<?xml version="1.0" encoding="UTF-8"?>
<!DOCTYPE svg PUBLIC "-//W3C//DTD SVG 1.1//EN" "http://www.w3.org/Graphics/SVG/1.1/DTD/svg11.dtd">
<!-- Creator: CorelDRAW 2026 -->
<svg xmlns="http://www.w3.org/2000/svg" xml:space="preserve" width="338.667mm" height="338.667mm" version="1.1" shape-rendering="geometricPrecision" text-rendering="geometricPrecision" image-rendering="optimizeQuality" fill-rule="evenodd" clip-rule="evenodd"
viewBox="0 0 33866.66 33866.66"
 xmlns:xlink="http://www.w3.org/1999/xlink"
 xmlns:xodm="http://www.corel.com/coreldraw/odm/2003">
 <g id="Camada_x0020_1">
  <metadata id="CorelCorpID_0Corel-Layer"/>
  <path fill="black" fill-rule="nonzero" d="M16933.48 -0.01c-146.12,0 -291.89,1.8 -437.11,5.28 -145.27,5.28 -289.99,10.56 -434.36,17.58 -144.18,7.02 -288.01,15.83 -431.49,26.33 -143.32,12.3 -286.11,24.6 -428.39,38.64 -142.23,14.08 -284.17,29.87 -425.36,49.18 -141.18,17.58 -281.88,36.89 -422.02,57.95 -140.14,21.11 -279.79,45.65 -418.68,70.25 -139.1,24.59 -277.5,50.93 -415.21,79.06 -137.85,28.08 -275,57.95 -411.51,89.56 -136.61,31.61 -272.57,64.97 -407.79,100.12 -135.21,35.09 -269.93,70.24 -403.75,108.88 -134.02,38.63 -267.34,77.26 -399.76,119.43 -132.58,40.37 -264.46,84.28 -395.69,128.19 -130.98,43.92 -261.52,89.57 -391.11,137.01 -129.78,47.4 -258.72,96.58 -386.72,147.51 -128.24,50.93 -255.74,101.86 -382.34,156.33 -126.65,52.67 -252.41,108.88 -377.42,165.09 -125.06,56.2 -249.22,114.15 -372.53,173.89 -123.47,59.7 -246.04,119.39 -367.76,182.61 -121.72,63.23 -242.55,126.46 -362.48,191.48 -119.98,64.96 -239.06,131.73 -357.25,200.18 -118.19,66.76 -235.53,137.01 -351.78,207.25 -116.44,70.25 -231.84,142.29 -346.35,216.02 -114.5,73.78 -228.11,149.3 -340.72,224.83 -112.56,75.52 -224.28,152.79 -334.9,231.85 -110.67,79 -220.4,158.06 -328.98,240.61 -108.67,80.75 -216.36,163.29 -322.95,247.62 -106.63,82.55 -212.18,168.58 -316.82,254.65 -104.5,86.08 -207.95,173.9 -310.36,261.67 -102.41,89.61 -203.72,179.18 -304.03,270.48 -100.27,91.36 -199.34,182.66 -297.51,277.5 -97.98,93.1 -194.76,187.94 -290.64,282.78 -95.74,96.58 -190.38,193.17 -283.82,291.54 -93.45,98.37 -185.65,196.7 -276.8,296.82 -91.16,100.11 -181.07,201.97 -269.74,303.83 -88.71,101.86 -176.18,205.46 -262.56,310.86 -86.27,103.65 -171.26,208.99 -255.04,316.13 -83.74,107.14 -166.33,214.28 -247.63,323.15 -81.3,108.88 -161.2,217.81 -239.91,328.43 -78.66,110.68 -156.12,223.04 -232.19,335.45 -76.03,112.42 -150.85,226.57 -224.28,340.73 -73.39,114.16 -145.42,230.11 -216.17,346 -70.79,117.65 -139.99,233.59 -207.95,353.03 -67.95,117.64 -134.51,237.07 -199.88,356.51 -65.17,119.43 -128.89,240.61 -191.22,361.78 -62.18,122.97 -123.12,245.89 -182.66,368.86 -59.39,122.92 -117.49,247.63 -173.9,372.34 -56.55,124.66 -111.71,251.11 -165.28,377.57 -53.52,126.45 -105.54,252.9 -156.12,381.15 -50.58,128.19 -99.57,258.13 -146.97,388.12 -47.44,129.94 -93.44,259.93 -137.9,389.91 -44.26,131.68 -87.12,263.41 -128.39,396.89 -41.27,131.73 -80.75,265.2 -118.89,398.67 -38.08,135.27 -74.48,268.74 -109.23,403.96 -34.79,135.26 -67.95,272.22 -99.56,407.49 -31.47,136.95 -61.34,273.96 -89.62,412.71 -28.07,137.01 -54.61,275.76 -79.55,414.51 -24.74,138.75 -47.94,279.24 -69.35,417.99 -21.46,140.49 -41.12,280.99 -58.99,423.27 -17.93,140.49 -34.26,282.73 -48.69,425.01 -14.39,142.24 -27.04,284.52 -37.94,428.55 -11.05,143.98 -20.01,286.26 -27.38,432.03 -7.37,144.03 -12.85,288.06 -16.53,433.83 -3.68,145.77 -5.58,291.54 -5.58,437.31 0,145.77 1.9,291.54 5.58,437.31 3.68,144.02 9.16,289.79 16.53,433.82 7.37,143.98 16.33,288 27.38,432.03 10.9,142.24 23.55,286.26 37.94,428.55 14.43,142.23 30.76,282.73 48.69,425.01 17.87,140.49 37.53,280.99 58.99,421.53 21.41,140.49 44.61,279.24 69.35,419.73 24.94,138.75 51.48,275.76 79.55,414.46 28.28,137.01 58.15,274.02 89.62,410.97 31.61,137.01 64.77,272.28 99.56,407.49 34.75,135.22 71.15,270.48 109.23,403.96 38.14,135.21 77.62,266.94 118.89,400.41 41.27,131.74 84.13,263.47 128.39,395.2 44.46,131.68 90.46,261.66 137.9,391.65 47.4,129.94 96.39,258.14 146.97,386.38 50.58,128.2 102.6,256.39 156.12,382.85 53.57,126.45 108.73,251.16 165.28,377.61 56.41,124.72 114.51,249.38 173.9,372.34 59.54,122.92 120.48,245.89 182.66,367.07 62.33,122.92 126.05,242.35 191.22,363.53 65.37,119.43 131.93,238.86 199.88,356.55 67.96,117.65 137.16,235.34 207.95,351.24 70.75,117.69 142.78,231.84 216.17,347.74 73.43,114.16 148.25,226.57 224.28,340.73 76.07,112.41 153.53,223.08 232.19,333.71 78.71,110.67 158.61,221.29 239.91,330.17 81.3,107.13 163.89,216.01 247.63,321.41 83.78,107.14 168.77,212.53 255.04,317.87 86.38,103.66 173.85,207.26 262.56,310.91 88.67,101.86 178.58,203.72 269.74,303.84 91.15,100.06 183.35,198.44 276.8,296.81 93.44,98.33 188.08,194.91 283.82,289.75 95.88,96.63 192.66,191.47 290.64,284.52 98.17,93.1 197.24,186.19 297.51,277.5 100.31,91.35 201.62,180.92 304.03,268.74 102.41,89.56 205.86,177.38 310.36,263.41 104.64,86.08 210.19,170.36 316.82,254.7 106.59,84.28 214.28,166.83 322.95,247.63 108.58,80.8 218.31,161.55 328.98,240.61 110.62,77.26 222.34,154.53 334.9,231.84 112.61,75.53 226.22,151 340.72,223.04 114.51,73.78 229.91,145.77 346.35,217.76 116.25,70.24 233.59,138.75 351.78,207.25 118.19,68.51 237.27,135.22 357.25,200.24 119.93,64.97 240.76,128.19 362.48,191.42 121.72,61.48 244.29,122.92 367.76,182.66 123.31,57.95 247.47,117.69 372.53,173.85 125.01,56.2 250.77,110.67 377.42,165.13 126.6,52.68 254.1,105.35 382.34,156.28 128,49.19 256.94,98.37 386.72,145.77 129.59,47.44 260.13,94.84 391.11,138.75 131.23,43.91 263.11,86.08 395.69,128.24 132.42,40.38 265.74,80.75 399.76,119.39 133.82,36.89 268.54,73.78 403.75,108.93 135.22,35.09 271.18,68.45 407.79,100.06 136.51,29.87 273.66,59.74 411.51,89.62 137.71,28.07 276.11,54.41 415.21,79 138.89,24.6 278.54,47.45 418.68,68.51 140.14,22.85 280.84,42.17 422.02,59.69 141.19,17.57 283.13,35.15 425.36,49.19 142.28,14.04 285.07,26.33 428.39,36.89 143.48,12.29 287.31,21.06 431.49,28.08 144.37,7.07 289.09,12.29 434.36,15.83 145.22,3.53 290.99,5.28 437.11,5.28 146.12,0 291.74,-1.75 436.96,-5.28 145.27,-3.54 290.14,-8.76 434.36,-15.83 144.33,-7.02 288.21,-15.79 431.48,-28.08 143.33,-10.56 286.12,-22.85 428.55,-36.89 142.28,-14.04 284.02,-31.62 425.36,-49.19 141.23,-17.52 281.87,-36.84 422.07,-59.69 140.14,-21.06 279.73,-43.91 418.68,-68.51 138.9,-24.59 277.3,-50.93 415.2,-79 137.86,-29.88 275.01,-59.75 411.47,-89.62 136.66,-31.61 272.57,-64.97 407.83,-100.06 135.22,-35.15 269.74,-72.04 403.75,-108.93 134.02,-38.64 267.15,-79.01 399.72,-119.39 132.63,-42.16 264.51,-84.33 395.54,-128.24 131.18,-43.91 261.67,-91.31 391.3,-138.75 129.59,-47.4 258.53,-96.58 386.73,-145.77 128.19,-50.93 255.54,-103.6 382.14,-156.28 126.65,-54.46 252.56,-108.93 377.62,-165.13 125.05,-56.16 249.22,-115.9 372.48,-173.85 123.47,-59.74 246.09,-121.18 367.61,-182.66 121.72,-63.23 242.55,-126.45 362.68,-191.42 119.93,-65.02 239.01,-131.73 357.2,-200.24 118.24,-68.5 235.53,-137.01 351.83,-207.25 116.39,-71.99 231.79,-143.98 346.3,-217.76 114.5,-72.04 228.16,-147.51 340.72,-223.04 112.56,-77.31 224.28,-154.58 334.95,-231.84 110.62,-79.06 220.2,-159.81 328.92,-240.61 108.73,-80.8 216.37,-163.35 323,-247.63 106.59,-84.34 212.14,-168.62 316.63,-254.7 104.7,-86.03 208.15,-173.85 310.51,-263.41 102.4,-87.82 203.76,-177.39 304.03,-268.74 100.27,-91.31 199.34,-184.4 297.36,-277.5 97.98,-93.05 194.91,-187.89 290.64,-284.52 95.74,-94.84 190.38,-191.42 283.82,-289.75 93.45,-98.37 185.8,-196.75 276.95,-296.81 91.01,-100.12 180.92,-201.98 269.59,-303.84 88.86,-103.65 176.33,-207.25 262.56,-310.91 86.27,-105.34 171.26,-210.73 255.19,-317.87 83.79,-105.4 166.33,-214.28 247.48,-321.41 81.3,-108.88 161.2,-219.5 239.91,-330.17 78.86,-110.63 156.12,-221.3 232.19,-333.71 76.02,-114.16 150.85,-226.57 224.28,-340.73 73.38,-115.9 145.57,-230.05 216.17,-347.74 70.79,-115.9 140.14,-233.59 208.14,-351.24 67.96,-117.69 134.52,-237.12 199.69,-356.55 65.17,-121.18 128.89,-240.61 191.22,-363.53 62.38,-121.18 123.12,-244.15 182.66,-367.07 59.39,-122.96 117.49,-247.62 173.9,-372.34 56.55,-126.45 111.71,-251.16 165.28,-377.61 53.52,-126.46 105.54,-254.65 156.12,-382.85 50.58,-128.24 99.57,-256.44 146.97,-386.38 47.44,-129.99 93.44,-259.97 137.9,-391.65 44.26,-131.73 87.12,-263.46 128.39,-395.2 41.27,-133.47 80.75,-265.2 118.89,-400.41 37.93,-133.48 74.47,-268.74 109.22,-403.96 34.8,-135.21 67.96,-270.48 99.57,-407.49 31.47,-136.95 61.34,-273.96 89.61,-410.97 28.08,-138.7 54.62,-275.71 79.36,-414.46 24.94,-140.49 48.14,-279.24 69.4,-419.73 21.41,-140.54 41.27,-281.04 59.14,-421.53 17.93,-142.28 34.11,-282.78 48.69,-425.01 14.39,-142.29 27.04,-286.31 37.94,-428.55 10.85,-144.03 20.01,-288.05 27.38,-432.03 7.37,-144.03 12.84,-289.8 16.53,-433.82 3.68,-145.77 5.42,-291.54 5.42,-437.31 0,-145.77 -1.74,-291.54 -5.42,-437.31 -3.69,-145.77 -9.16,-289.8 -16.53,-433.83 -7.37,-145.77 -16.53,-288.05 -27.38,-432.03 -10.9,-144.03 -23.55,-286.31 -37.94,-428.55 -14.58,-142.28 -30.76,-284.52 -48.69,-425.01 -17.87,-142.28 -37.73,-282.78 -59.14,-423.27 -21.26,-138.75 -44.46,-279.24 -69.4,-417.99 -24.74,-138.75 -51.28,-277.5 -79.36,-414.51 -28.27,-138.75 -58.14,-275.76 -89.61,-412.71 -31.61,-135.27 -64.77,-272.23 -99.57,-407.49 -34.75,-135.22 -71.29,-268.69 -109.22,-403.96 -38.14,-133.47 -77.62,-266.94 -118.89,-398.67 -41.27,-133.48 -84.13,-265.21 -128.39,-396.89 -44.46,-129.98 -90.46,-259.97 -137.9,-389.91 -47.4,-129.99 -96.39,-259.93 -146.97,-388.12 -50.58,-128.25 -102.6,-254.7 -156.12,-381.15 -53.57,-126.46 -108.73,-252.91 -165.28,-377.57 -56.41,-124.71 -114.51,-249.42 -173.9,-372.34 -59.54,-122.97 -120.28,-245.89 -182.66,-368.86 -62.33,-121.17 -126.05,-242.35 -191.22,-361.78 -65.17,-119.44 -131.73,-238.87 -199.69,-356.51 -68,-119.44 -137.35,-235.38 -208.14,-353.03 -70.6,-115.89 -142.79,-231.84 -216.17,-346 -73.43,-114.16 -148.26,-228.31 -224.28,-340.73 -76.07,-112.41 -153.33,-224.77 -232.19,-335.45 -78.71,-110.62 -158.61,-219.55 -239.91,-328.43 -81.15,-108.87 -163.69,-216.01 -247.48,-323.15 -83.93,-107.14 -168.92,-212.48 -255.19,-316.13 -86.23,-105.4 -173.7,-209 -262.56,-310.86 -88.67,-101.86 -178.58,-203.72 -269.59,-303.83 -91.15,-100.12 -183.5,-198.45 -276.95,-296.82 -93.44,-98.37 -188.08,-194.96 -283.82,-291.54 -95.73,-94.84 -192.66,-189.68 -290.64,-282.78 -98.02,-94.84 -197.09,-186.14 -297.36,-277.5 -100.27,-91.3 -201.63,-180.87 -304.03,-270.48 -102.36,-87.77 -205.81,-175.59 -310.51,-261.67 -104.49,-86.07 -210.04,-172.1 -316.63,-254.65 -106.63,-84.33 -214.27,-166.87 -323,-247.62 -108.72,-82.55 -218.3,-161.61 -328.92,-240.61 -110.67,-79.06 -222.39,-156.33 -334.95,-231.85 -112.56,-75.53 -226.22,-151.05 -340.72,-224.83 -114.51,-73.73 -229.91,-145.77 -346.3,-216.02 -116.3,-70.24 -233.59,-140.49 -351.83,-207.25 -118.19,-68.45 -237.27,-135.22 -357.2,-200.18 -120.13,-65.02 -240.96,-128.25 -362.68,-191.48 -121.52,-63.22 -244.14,-122.91 -367.61,-182.61 -123.26,-59.74 -247.43,-117.69 -372.48,-173.89 -125.06,-56.21 -250.97,-112.42 -377.62,-165.09 -126.6,-54.47 -253.95,-105.4 -382.14,-156.33 -128.2,-50.93 -257.14,-100.11 -386.73,-147.51 -129.63,-47.44 -260.12,-93.09 -391.3,-137.01 -131.03,-43.91 -262.91,-87.82 -395.54,-128.19 -132.57,-42.17 -265.7,-80.8 -399.72,-119.43 -134.01,-38.64 -268.53,-73.79 -403.75,-108.88 -135.26,-35.15 -271.17,-68.51 -407.83,-100.12 -136.46,-31.61 -273.61,-61.48 -411.47,-89.56 -137.9,-28.13 -276.3,-54.47 -415.2,-79.06 -138.95,-24.6 -278.54,-49.14 -418.68,-70.25 -140.2,-21.06 -280.84,-40.37 -422.07,-57.95 -141.34,-19.31 -283.08,-35.1 -425.36,-49.18 -142.43,-14.04 -285.22,-26.34 -428.55,-38.64 -143.27,-10.5 -287.15,-19.31 -431.48,-26.33 -144.22,-7.02 -289.09,-12.3 -434.36,-17.58 -145.22,-3.48 -290.84,-5.28 -436.96,-5.28l0 0 0 0 0 0 0 0 0 0 0 0 0 0 0 0 0 0 0 0 0 0 0 0 0 0 0 0 0 0 0 0 0 0 0 0 0 0 0 0 0 0 0 0 0 0 0 0 0 0 0 0 0 0 0 0 0 0 0 0 0 0 0 0 0 0 0 0 0 0 0 0 0 0 0 0 0 0 0 0 0 0 0 0 0 0 0 0 0 0 0 0 0 0 0 0 0 0 0 0 0 0 0 0 0 0 0 0 0 0 0 0 0 0 0 0 0 0 0 0 0 0 0 0 0 0 0 0zm0 2112.87c127.7,0 255.04,1.74 381.84,5.23 126.95,3.53 253.61,7.07 379.71,14.09 126.1,7.02 251.86,14.04 377.07,24.59 125.2,8.76 250.06,19.32 374.42,33.36 124.51,12.29 248.53,26.33 371.99,42.11 123.47,15.83 246.38,33.41 369,52.73 122.42,17.57 244.44,38.63 366.02,59.69 121.52,21.11 242.55,45.65 363.02,70.24 120.48,24.6 240.41,50.93 359.85,77.32 119.43,28.08 238.31,57.95 356.5,87.77 118.39,31.61 236.08,63.23 353.22,96.63 117.14,33.36 233.74,66.71 349.69,103.6 115.89,36.89 231.29,73.79 345.95,112.42 114.7,38.63 228.86,79.01 342.31,121.17 113.46,42.17 226.22,84.29 338.44,128.2 112.06,45.7 223.58,91.35 334.2,137.01 110.82,47.44 220.94,94.84 330.37,145.77 109.42,49.18 218.15,100.11 325.99,151.04 107.98,52.68 215.31,107.14 321.7,161.61 106.64,54.41 212.38,110.62 317.38,166.82 104.84,57.95 209.19,115.9 312.64,175.64 103.4,59.7 206.01,119.44 307.87,180.87 101.86,63.23 203.02,126.46 303.14,189.68 100.26,65.02 199.68,129.99 298.35,196.7 98.58,66.76 196.2,135.27 293.13,203.77 96.78,68.45 192.87,138.75 288.05,210.74 94.99,70.25 189.33,142.23 282.78,216.02 93.25,73.78 185.79,147.51 277.3,223.03 91.5,77.32 182.11,152.84 271.87,230.11 89.56,79 178.28,156.32 266.1,237.07 87.77,79.06 174.54,159.86 260.42,242.4 85.88,82.55 170.71,165.09 254.7,247.63 83.73,84.29 166.62,170.37 248.47,254.65 81.84,86.08 162.64,173.9 242.55,261.67 79.75,87.82 158.41,175.64 236.22,265.2 77.62,89.62 154.39,180.92 229.91,272.23 75.52,91.35 150,184.45 223.38,277.5 73.43,93.09 145.77,187.93 216.91,282.77 71.29,94.84 141.39,191.43 210.24,288.06 69,96.58 136.81,194.91 203.37,293.28 66.76,98.38 132.23,198.44 196.55,298.56 64.27,100.12 127.5,200.23 189.48,302.09 61.98,101.86 122.57,205.51 182.31,309.12 59.54,103.6 117.84,207.25 174.94,312.6 57.05,103.65 112.91,210.78 167.52,316.13 54.62,107.14 108.03,214.27 160.16,321.41 52.17,108.88 102.95,217.81 152.44,326.69 49.53,108.88 97.82,219.55 144.72,330.17 46.9,110.67 92.55,223.03 136.81,335.45 44.46,110.67 87.32,224.83 128.94,337.19 41.62,114.21 81.99,228.36 120.83,342.52 38.83,114.16 76.42,230.05 112.56,345.95 36.19,115.95 70.99,233.59 104.15,349.54 33.4,117.64 65.36,235.33 95.88,352.98 30.57,119.43 59.54,237.12 87.32,356.55 27.58,119.44 53.72,240.61 78.51,360.05 24.75,121.17 47.95,242.35 69.7,363.53 21.81,121.17 41.97,244.14 60.79,365.32 18.77,122.96 35.99,245.88 51.77,368.8 15.84,124.71 30.07,247.68 42.72,372.34 12.64,124.71 23.7,249.42 33.35,374.08 9.51,126.46 17.58,251.17 23.9,377.62 6.47,126.46 11.25,252.91 14.59,379.36 3.13,128.2 4.73,254.65 4.73,382.9 0,126.45 -1.6,254.65 -4.73,381.1 -3.34,128.19 -8.12,254.65 -14.59,379.36 -6.32,126.45 -14.39,252.9 -23.9,377.62 -9.65,124.66 -20.71,251.11 -33.35,374.08 -12.65,124.71 -26.88,249.37 -42.72,372.34 -15.78,124.71 -33,247.63 -51.77,368.8 -18.82,122.97 -38.98,244.15 -60.79,367.07 -21.75,121.17 -44.95,242.4 -69.7,361.78 -24.79,121.23 -50.93,240.61 -78.51,360.05 -27.78,119.43 -56.75,238.86 -87.32,356.55 -30.52,119.44 -62.48,237.08 -95.88,353.03 -33.16,117.64 -67.96,233.59 -104.15,349.49 -36.14,115.9 -73.73,231.84 -112.56,347.74 -38.84,114.16 -79.21,228.32 -120.83,340.73 -41.62,114.16 -84.48,226.57 -128.94,338.93 -44.26,112.42 -89.91,223.09 -136.81,333.71 -46.9,110.67 -95.19,221.29 -144.72,330.17 -49.49,110.68 -100.27,219.55 -152.44,326.69 -52.13,108.88 -105.54,216.02 -160.16,321.41 -54.61,107.14 -110.47,212.48 -167.52,317.88 -57.1,105.39 -115.4,208.99 -174.94,312.65 -59.74,103.6 -120.33,205.46 -182.31,307.32 -61.98,101.86 -125.21,203.72 -189.48,303.83 -64.32,100.12 -129.79,200.24 -196.55,298.56 -66.56,98.38 -134.37,196.75 -203.37,293.33 -68.85,96.59 -138.95,191.43 -210.24,288.01 -71.14,94.84 -143.48,189.68 -216.91,282.78 -73.38,93.09 -147.86,184.4 -223.38,277.5 -75.52,91.3 -152.29,180.91 -229.91,270.48 -77.81,89.56 -156.47,179.12 -236.22,266.94 -79.91,87.82 -160.71,173.9 -242.55,259.93 -81.85,86.08 -164.74,170.36 -248.47,254.65 -83.99,84.33 -168.82,166.88 -254.7,249.42 -85.88,80.8 -172.65,161.55 -260.42,242.35 -87.82,79.06 -176.54,158.07 -266.1,235.33 -89.76,79.06 -180.37,154.59 -271.87,230.11 -91.51,75.52 -184.05,151.05 -277.3,223.03 -93.45,73.79 -187.79,145.77 -282.78,217.81 -95.18,70.25 -191.27,140.5 -288.05,210.74 -96.93,68.51 -194.55,135.22 -293.13,201.98 -98.67,66.71 -198.09,133.47 -298.35,196.7 -100.12,64.97 -201.28,128.19 -303.14,189.68 -101.86,61.48 -204.47,122.92 -307.87,182.66 -103.45,59.69 -207.8,117.64 -312.64,175.64 -105,56.16 -210.74,112.36 -317.38,166.83 -106.39,54.46 -213.72,107.13 -321.7,159.81 -107.84,52.72 -216.57,103.65 -325.99,152.79 -109.43,49.18 -219.55,98.37 -330.37,144.02 -110.62,47.45 -222.14,93.1 -334.2,137.01 -112.22,45.65 -224.98,87.82 -338.44,129.94 -113.45,40.42 -227.61,80.8 -342.31,119.43 -114.66,40.43 -230.06,77.32 -345.95,114.16 -115.95,35.15 -232.55,70.24 -349.69,103.65 -117.14,33.36 -234.83,64.97 -353.22,94.84 -118.19,31.61 -237.07,59.69 -356.5,87.82 -119.44,28.08 -239.37,54.42 -359.85,79.01 -120.47,24.59 -241.5,47.44 -363.02,70.25 -121.58,21.1 -243.6,40.42 -366.02,59.74 -122.62,19.31 -245.53,36.89 -369,52.67 -123.46,15.83 -247.48,29.87 -371.99,42.17 -124.36,12.29 -249.22,24.59 -374.42,33.35 -125.21,8.76 -250.97,17.58 -377.07,24.6 -126.1,5.27 -252.76,10.55 -379.71,14.04 -126.8,3.53 -254.14,5.27 -381.84,5.27 -127.65,0 -255,-1.74 -382,-5.27 -126.95,-3.49 -253.4,-8.77 -379.5,-14.04 -126.11,-7.02 -251.86,-15.84 -377.27,-24.6 -125.2,-8.76 -250.06,-21.06 -374.42,-33.35 -124.37,-12.3 -248.33,-26.34 -371.79,-42.17 -123.47,-15.78 -246.59,-33.36 -369.01,-52.67 -122.61,-19.32 -244.64,-38.64 -366.21,-59.74 -121.52,-22.81 -242.55,-45.66 -363.03,-70.25 -120.47,-24.59 -240.4,-50.93 -359.84,-79.01 -119.43,-28.13 -238.31,-56.21 -356.5,-87.82 -118.39,-29.87 -236.08,-61.48 -353.22,-94.84 -117.14,-33.41 -233.74,-68.5 -349.69,-103.65 -115.89,-36.84 -231.29,-73.73 -345.95,-114.16 -114.7,-38.63 -228.86,-79.01 -342.31,-119.43 -113.46,-42.12 -226.22,-84.29 -338.24,-129.94 -112.26,-43.91 -223.78,-89.56 -334.4,-137.01 -110.82,-45.65 -220.94,-94.84 -330.37,-144.02 -109.42,-49.14 -218.15,-100.07 -325.99,-152.79 -107.98,-52.68 -215.31,-105.35 -321.7,-159.81 -106.64,-54.47 -212.38,-110.67 -317.38,-166.83 -104.84,-58 -209.19,-115.95 -312.64,-175.64 -103.41,-59.74 -206.01,-121.18 -307.87,-182.66 -101.86,-61.49 -203.02,-124.71 -303.29,-189.68 -100.11,-63.23 -199.53,-129.99 -298.2,-196.7 -98.58,-66.76 -196.2,-133.47 -293.13,-201.98 -96.98,-70.24 -192.87,-140.49 -288.06,-210.74 -95.18,-72.04 -189.33,-144.02 -282.77,-217.81 -93.25,-71.98 -185.8,-147.51 -277.3,-223.03 -91.5,-75.52 -182.11,-151.05 -271.87,-230.11 -89.56,-77.26 -178.28,-156.27 -266.1,-235.33 -87.77,-80.8 -174.54,-161.55 -260.42,-242.35 -85.88,-82.54 -170.71,-165.09 -254.7,-249.42 -83.73,-84.29 -166.62,-168.57 -248.47,-254.65 -81.85,-86.03 -162.64,-172.11 -242.55,-259.93 -79.75,-87.82 -158.41,-177.38 -236.23,-266.94 -77.61,-89.57 -154.38,-179.18 -229.9,-270.48 -75.52,-93.1 -150.15,-184.41 -223.38,-277.5 -73.43,-93.1 -145.77,-187.94 -216.91,-282.78 -71.29,-96.58 -141.39,-191.42 -210.24,-288.01 -69,-96.58 -136.81,-194.95 -203.37,-293.33 -66.76,-98.32 -132.23,-198.44 -196.55,-298.56 -64.27,-100.11 -127.5,-201.97 -189.48,-303.83 -61.98,-101.86 -122.77,-203.72 -182.31,-307.32 -59.54,-103.66 -117.84,-207.26 -174.94,-312.65 -57.05,-105.4 -112.91,-210.74 -167.52,-317.88 -54.82,-105.39 -108.04,-212.53 -160.16,-321.41 -52.17,-107.14 -102.95,-216.01 -152.44,-326.69 -49.53,-108.88 -97.83,-219.5 -144.72,-330.17 -47.1,-110.62 -92.55,-221.29 -137.01,-333.71 -44.26,-112.36 -87.12,-224.77 -128.74,-338.93 -41.62,-112.41 -82,-226.57 -120.83,-340.73 -38.98,-115.9 -76.42,-231.84 -112.56,-347.74 -36.19,-115.9 -70.99,-231.85 -104.35,-349.49 -33.2,-115.95 -65.17,-233.59 -95.68,-353.03 -30.57,-117.69 -59.54,-237.12 -87.32,-356.55 -27.59,-119.44 -53.72,-238.82 -78.51,-360.05 -24.75,-119.38 -47.95,-240.61 -69.7,-361.78 -21.81,-122.92 -41.97,-244.1 -60.79,-367.07 -18.77,-121.17 -36.19,-244.09 -51.77,-368.8 -15.84,-122.97 -30.07,-247.63 -42.72,-372.34 -12.64,-122.97 -23.7,-249.42 -33.36,-374.08 -9.5,-124.72 -17.57,-251.17 -23.89,-377.62 -6.47,-124.71 -11.25,-251.17 -14.59,-379.36 -3.13,-126.45 -4.73,-254.65 -4.73,-381.1 0,-128.25 1.6,-254.7 4.73,-382.9 3.34,-126.45 8.12,-252.9 14.59,-379.36 6.32,-126.45 14.39,-251.16 23.89,-377.62 9.66,-124.66 20.72,-249.37 33.36,-374.08 12.65,-124.66 26.88,-247.63 42.72,-372.34 15.58,-122.92 33,-245.84 51.77,-368.8 18.82,-121.18 38.98,-244.15 60.79,-365.32 21.75,-121.18 44.95,-242.36 69.7,-363.53 24.79,-119.44 50.92,-240.61 78.51,-360.05 27.78,-119.43 56.75,-237.12 87.32,-356.55 30.51,-117.65 62.48,-235.34 95.68,-352.98 33.36,-115.95 68.16,-233.59 104.35,-349.54 36.14,-115.9 73.58,-231.79 112.56,-345.95 38.83,-114.16 79.21,-228.31 120.83,-342.52 41.62,-112.36 84.48,-226.52 128.74,-337.19 44.46,-112.42 89.91,-224.78 137.01,-335.45 46.89,-110.62 95.19,-221.29 144.72,-330.17 49.49,-108.88 100.27,-217.81 152.44,-326.69 52.12,-107.14 105.34,-214.27 160.16,-321.41 54.61,-105.35 110.47,-212.48 167.52,-316.13 57.1,-105.35 115.4,-209 174.94,-312.6 59.54,-103.61 120.33,-207.26 182.31,-309.12 61.98,-101.86 125.21,-201.97 189.48,-302.09 64.32,-100.12 129.79,-200.18 196.55,-298.56 66.56,-98.37 134.37,-196.7 203.37,-293.28 68.85,-96.63 138.95,-193.22 210.24,-288.06 71.14,-94.84 143.48,-189.68 216.91,-282.77 73.23,-93.05 147.86,-186.15 223.38,-277.5 75.52,-91.31 152.29,-182.61 229.9,-272.23 77.82,-89.56 156.48,-177.38 236.23,-265.2 79.91,-87.77 160.7,-175.59 242.55,-261.67 81.85,-84.28 164.74,-170.36 248.47,-254.65 83.99,-82.54 168.82,-165.08 254.7,-247.63 85.88,-82.54 172.65,-163.34 260.42,-242.4 87.82,-80.75 176.54,-158.07 266.1,-237.07 89.76,-77.27 180.37,-152.79 271.87,-230.11 91.5,-75.52 184.05,-149.25 277.3,-223.03 93.44,-73.79 187.59,-145.77 282.77,-216.02 95.19,-71.99 191.08,-142.29 288.06,-210.74 96.93,-68.5 194.55,-137.01 293.13,-203.77 98.67,-66.71 198.09,-131.68 298.2,-196.7 100.27,-63.22 201.43,-126.45 303.29,-189.68 101.86,-61.43 204.46,-121.17 307.87,-180.87 103.45,-59.74 207.8,-117.69 312.64,-175.64 105,-56.2 210.74,-112.41 317.38,-166.82 106.39,-54.47 213.72,-108.93 321.7,-161.61 107.84,-50.93 216.57,-101.86 325.99,-151.04 109.43,-50.93 219.55,-98.33 330.37,-145.77 110.62,-45.66 222.14,-91.31 334.4,-137.01 112.02,-43.91 224.78,-86.03 338.24,-128.2 113.45,-42.16 227.61,-82.54 342.31,-121.17 114.66,-38.63 230.06,-75.53 345.95,-112.42 115.95,-36.89 232.55,-70.24 349.69,-103.6 117.14,-33.4 234.83,-65.02 353.22,-96.63 118.19,-29.82 237.07,-59.69 356.5,-87.77 119.44,-26.39 239.37,-52.72 359.84,-77.32 120.48,-24.59 241.51,-49.13 363.03,-70.24 121.57,-21.06 243.6,-42.12 366.21,-59.69 122.42,-19.32 245.54,-36.9 369.01,-52.73 123.46,-15.78 247.42,-29.82 371.79,-42.11 124.36,-14.04 249.22,-24.6 374.42,-33.36 125.41,-10.55 251.16,-17.57 377.27,-24.59 126.1,-7.02 252.55,-10.56 379.5,-14.09 127,-3.49 254.35,-5.23 382,-5.23z"/>
  <polygon fill="black" fill-rule="nonzero" points="22831.43,22831.88 11035.53,22831.88 11035.53,11036.58 22831.43,11036.58 22831.43,11220.98 22831.43,11403.64 22831.43,11588.04 22831.43,11772.44 22831.43,11956.9 22831.43,12141.3 22831.43,12325.7 22831.43,12510.1 22831.43,12694.51 22831.43,12878.91 22831.43,13063.36 22831.43,13247.77 22831.43,13432.17 22831.43,13616.57 22831.43,13800.97 22831.43,13985.38 22831.43,14169.83 22831.43,14354.23 22831.43,14538.63 22831.43,14721.29 22831.43,14905.7 22831.43,15090.1 22831.43,15274.5 22831.43,15458.91 22831.43,15643.36 22831.43,15827.76 22831.43,16012.16 22831.43,16196.57 22831.43,16380.97 22831.43,16565.37 22831.43,16749.82 22831.43,16934.23 22831.43,17118.63 22831.43,17303.03 22831.43,17487.43 22831.43,17671.84 22831.43,17856.29 22831.43,18038.9 22831.43,18223.35 22831.43,18407.75 22831.43,18592.16 22831.43,18776.56 22831.43,18960.96 22831.43,19145.37 22831.43,19329.82 22831.43,19514.22 22831.43,19698.62 22831.43,19883.03 22831.43,20067.43 22831.43,20251.83 22831.43,20436.28 22831.43,20620.69 22831.43,20805.09 22831.43,20989.49 22831.43,21173.89 22831.43,21358.3 22831.43,21542.75 22831.43,21725.41 22831.43,21909.81 22831.43,22094.22 22831.43,22278.62 22831.43,22463.02 22831.43,22647.42 "/>
 </g>
</svg>
