<?xml version="1.0" encoding="UTF-8"?>
<!DOCTYPE svg PUBLIC "-//W3C//DTD SVG 1.1//EN" "http://www.w3.org/Graphics/SVG/1.1/DTD/svg11.dtd">
<!-- Creator: CorelDRAW 2026 -->
<svg xmlns="http://www.w3.org/2000/svg" xml:space="preserve" width="338.667mm" height="338.667mm" version="1.1" shape-rendering="geometricPrecision" text-rendering="geometricPrecision" image-rendering="optimizeQuality" fill-rule="evenodd" clip-rule="evenodd"
viewBox="0 0 33866.66 33866.66"
 xmlns:xlink="http://www.w3.org/1999/xlink"
 xmlns:xodm="http://www.corel.com/coreldraw/odm/2003">
 <g id="Camada_x0020_1">
  <metadata id="CorelCorpID_0Corel-Layer"/>
  <path fill="black" fill-rule="nonzero" d="M16932.46 -0.01c-145.77,0 -291.54,1.8 -437.31,5.28 -144.02,5.28 -289.79,10.56 -433.82,17.58 -144.03,7.02 -288.06,15.83 -432.03,26.33 -142.29,12.3 -286.32,24.6 -428.55,38.64 -142.29,14.08 -282.78,29.87 -425.01,49.18 -140.55,17.58 -281.04,36.89 -421.53,57.95 -140.5,21.11 -279.25,45.65 -419.74,70.25 -138.75,24.59 -277.5,50.93 -414.51,79.06 -137,28.08 -275.75,57.95 -410.97,89.56 -137.01,31.61 -272.22,64.97 -407.44,100.12 -135.26,35.09 -270.48,70.24 -403.95,108.88 -135.27,38.63 -268.74,77.26 -400.47,119.43 -131.68,40.37 -265.21,84.28 -395.14,128.19 -131.74,43.92 -261.67,89.57 -391.66,137.01 -129.99,47.4 -258.19,96.58 -386.38,147.51 -128.2,50.93 -256.44,101.86 -382.9,156.33 -126.45,52.67 -252.9,108.88 -377.56,165.09 -124.72,56.2 -249.43,114.15 -372.35,173.89 -122.96,59.7 -245.88,119.39 -367.06,182.61 -122.97,63.23 -242.4,126.46 -363.58,191.48 -119.43,64.96 -238.86,131.73 -356.51,200.18 -117.69,66.76 -235.33,137.01 -351.28,207.25 -117.64,70.25 -231.8,142.29 -347.75,216.02 -114.15,73.78 -226.57,149.3 -340.72,224.83 -112.37,75.52 -223.04,152.79 -333.66,231.85 -110.67,79 -221.29,158.06 -330.22,240.61 -107.14,80.75 -216.02,163.29 -323.16,247.62 -105.34,82.55 -210.74,168.58 -316.13,254.65 -103.6,86.08 -207.25,173.9 -310.86,261.67 -101.86,89.61 -203.72,179.18 -303.83,270.48 -100.12,91.36 -198.45,182.66 -296.82,277.5 -98.37,93.1 -194.96,187.94 -291.54,282.78 -94.84,96.58 -189.68,193.17 -282.78,291.54 -93.1,98.37 -186.14,196.7 -277.5,296.82 -91.3,100.11 -180.87,201.97 -268.69,303.83 -89.56,101.86 -177.38,205.46 -263.46,310.86 -86.03,103.65 -170.36,208.99 -254.65,316.13 -84.28,107.14 -166.88,214.28 -247.63,323.15 -80.8,108.88 -161.6,217.81 -240.61,328.43 -77.31,110.68 -156.32,223.04 -231.85,335.45 -75.52,112.42 -151.04,226.57 -224.82,340.73 -71.99,114.16 -143.98,230.11 -216.02,346 -70.25,117.65 -138.75,233.59 -207.25,353.03 -68.46,117.64 -135.22,237.07 -200.19,356.51 -64.97,119.43 -128.19,240.61 -191.42,361.78 -61.49,122.97 -122.97,245.89 -182.66,368.86 -59.74,122.92 -117.69,247.63 -173.9,372.34 -56.21,124.66 -110.62,251.11 -165.09,377.57 -52.67,126.45 -105.39,252.9 -156.32,381.15 -49.14,128.19 -98.33,258.13 -145.77,388.12 -47.4,129.94 -94.84,259.93 -138.75,389.91 -43.91,131.68 -87.82,263.41 -128.2,396.89 -40.37,131.73 -80.8,265.2 -119.43,398.67 -36.89,135.27 -73.78,268.74 -108.88,403.96 -35.15,135.26 -68.5,272.22 -100.12,407.49 -31.61,136.95 -61.48,273.96 -89.56,412.71 -28.13,137.01 -54.46,275.76 -79.06,414.51 -24.54,138.75 -47.39,279.24 -68.45,417.99 -22.85,140.49 -42.17,280.99 -59.74,423.27 -17.58,140.49 -33.36,282.73 -49.19,425.01 -14.04,142.24 -26.34,284.52 -36.84,428.55 -12.3,143.98 -21.11,286.26 -28.13,432.03 -7.02,144.03 -12.3,288.06 -15.78,433.83 -3.54,145.77 -5.28,291.54 -5.28,437.31 0,145.77 1.74,291.54 5.28,437.31 3.48,144.02 8.76,289.79 15.78,433.82 7.02,143.98 15.83,288 28.13,432.03 10.5,142.24 22.8,286.26 36.84,428.55 15.83,142.23 31.61,282.73 49.19,425.01 17.57,140.49 36.89,280.99 59.74,421.53 21.06,140.49 43.91,279.24 68.45,419.73 24.6,138.75 50.93,275.76 79.06,414.46 28.08,137.01 57.95,274.02 89.56,410.97 31.62,137.01 64.97,272.28 100.12,407.49 35.1,135.22 71.99,270.48 108.88,403.96 38.63,135.21 79.06,266.94 119.43,400.41 40.38,131.74 84.29,263.47 128.2,395.2 43.91,131.68 91.35,261.66 138.75,391.65 47.44,129.94 96.63,258.14 145.77,386.38 50.93,128.2 103.65,256.39 156.32,382.85 54.47,126.45 108.88,251.16 165.09,377.61 56.21,124.72 114.16,249.38 173.9,372.34 59.69,122.92 121.17,245.89 182.66,367.07 63.23,122.92 126.45,242.35 191.42,363.53 64.97,119.43 131.73,238.86 200.19,356.55 68.5,117.65 137,235.34 207.25,351.24 72.04,117.69 144.03,231.84 216.02,347.74 73.78,114.16 149.3,226.57 224.82,340.73 75.53,112.41 154.54,223.08 231.85,333.71 79.01,110.67 159.81,221.29 240.61,330.17 80.75,107.13 163.35,216.01 247.63,321.41 84.29,107.14 168.62,212.53 254.65,317.87 86.08,103.66 173.9,207.26 263.46,310.91 87.82,101.86 177.39,203.72 268.69,303.84 91.36,100.06 184.4,198.44 277.5,296.81 93.1,98.33 187.94,194.91 282.78,289.75 96.58,96.63 193.17,191.47 291.54,284.52 98.37,93.1 196.7,186.19 296.82,277.5 100.11,91.35 201.97,180.92 303.83,268.74 103.61,89.56 207.26,177.38 310.86,263.41 105.39,86.08 210.79,170.36 316.13,254.7 107.14,84.28 216.02,166.83 323.16,247.63 108.93,80.8 219.55,161.55 330.22,240.61 110.62,77.26 221.29,154.53 333.66,231.84 114.15,75.53 226.57,151 340.72,223.04 115.95,73.78 230.11,145.77 347.75,217.76 115.95,70.24 233.59,138.75 351.28,207.25 117.65,68.51 237.08,135.22 356.51,200.24 121.18,64.97 240.61,128.19 363.58,191.42 121.18,61.48 244.1,122.92 367.06,182.66 122.92,57.95 247.63,117.69 372.35,173.85 124.66,56.2 251.11,110.67 377.56,165.13 126.46,52.68 254.7,105.35 382.9,156.28 128.19,49.19 256.39,98.37 386.38,145.77 129.99,47.44 259.92,94.84 391.66,138.75 129.93,43.91 263.46,86.08 395.14,128.24 131.73,40.38 265.2,80.75 400.47,119.39 133.47,36.89 268.69,73.78 403.95,108.93 135.22,35.09 270.43,68.45 407.44,100.06 135.22,29.87 273.97,59.74 410.97,89.62 137.01,28.07 275.76,54.41 414.51,79 140.49,24.6 279.24,47.45 419.74,68.51 140.49,22.85 280.98,42.17 421.53,59.69 142.23,17.57 282.72,35.15 425.01,49.19 142.23,14.04 286.26,26.33 428.55,36.89 143.97,12.29 288,21.06 432.03,28.08 144.03,7.07 289.8,12.29 433.82,15.83 145.77,3.53 291.54,5.28 437.31,5.28 145.77,0 291.54,-1.75 437.31,-5.28 145.77,-3.54 289.8,-8.76 433.83,-15.83 143.98,-7.02 288,-15.79 432.03,-28.08 144.03,-10.56 286.26,-22.85 428.55,-36.89 142.23,-14.04 284.52,-31.62 425.01,-49.19 142.24,-17.52 282.78,-36.84 421.53,-59.69 140.49,-21.06 280.99,-43.91 419.74,-68.51 138.75,-24.59 277.5,-50.93 414.5,-79 138.7,-29.88 275.71,-59.75 412.72,-89.62 135.22,-31.61 272.22,-64.97 407.44,-100.06 135.26,-35.15 268.74,-72.04 403.95,-108.93 133.48,-38.64 266.95,-79.01 398.68,-119.39 133.47,-42.16 265.2,-84.33 395.19,-128.24 131.73,-43.91 261.67,-91.31 391.66,-138.75 129.94,-47.4 258.13,-96.58 386.38,-145.77 128.19,-50.93 256.39,-103.6 382.84,-156.28 126.46,-54.46 252.91,-108.93 377.62,-165.13 124.71,-56.16 249.37,-115.9 372.34,-173.85 122.92,-59.74 245.89,-121.18 367.07,-182.66 122.91,-63.23 244.14,-126.45 363.52,-191.42 119.44,-65.02 238.87,-131.73 356.56,-200.24 119.44,-68.5 235.34,-137.01 353.03,-207.25 115.9,-71.99 231.8,-143.98 345.95,-217.76 114.16,-72.04 228.37,-147.51 340.73,-223.04 112.41,-77.31 224.83,-154.58 335.45,-231.84 110.67,-79.06 219.55,-159.81 328.43,-240.61 108.93,-80.8 216.02,-163.35 323.15,-247.63 105.4,-84.34 212.54,-168.62 316.14,-254.7 105.39,-86.03 208.99,-173.85 310.9,-263.41 101.86,-87.82 203.72,-177.39 303.84,-268.74 100.07,-91.31 198.44,-184.4 296.82,-277.5 98.32,-93.05 194.9,-187.89 291.54,-284.52 94.84,-94.84 189.68,-191.42 282.73,-289.75 94.84,-98.37 186.19,-196.75 277.5,-296.81 91.35,-100.12 180.91,-201.98 270.48,-303.84 87.82,-103.65 175.64,-207.25 261.67,-310.91 86.07,-105.34 172.15,-210.73 254.69,-317.87 84.29,-105.4 166.83,-214.28 247.63,-321.41 82.55,-108.88 161.56,-219.5 240.61,-330.17 79.01,-110.63 156.33,-221.3 231.85,-333.71 75.53,-114.16 151.05,-226.57 224.78,-340.73 73.78,-115.9 145.77,-230.05 216.02,-347.74 70.24,-115.9 140.54,-233.59 207.25,-351.24 68.51,-117.69 135.27,-237.12 200.24,-356.55 64.97,-121.18 128.19,-240.61 191.42,-363.53 61.48,-121.18 122.97,-244.15 182.66,-367.07 59.69,-122.96 117.69,-247.62 173.85,-372.34 56.2,-126.45 112.41,-251.16 165.13,-377.61 54.42,-126.46 105.35,-254.65 156.28,-382.85 50.93,-128.24 100.12,-256.44 147.56,-386.38 47.4,-129.99 93.05,-259.97 136.96,-391.65 43.91,-131.73 87.82,-263.46 128.24,-395.2 42.12,-133.47 80.76,-265.2 119.39,-400.41 38.68,-133.48 73.78,-268.74 108.93,-403.96 35.1,-135.21 68.5,-270.48 100.11,-407.49 31.62,-136.95 61.44,-273.96 89.57,-410.97 28.08,-138.7 54.41,-275.71 79.01,-414.46 24.59,-140.49 47.44,-279.24 70.24,-419.73 21.11,-140.54 40.43,-281.04 57.95,-421.53 17.58,-142.28 35.15,-282.78 49.19,-425.01 14.04,-142.29 26.34,-286.31 38.63,-428.55 10.56,-144.03 19.32,-288.05 26.39,-432.03 7.02,-144.03 12.25,-289.8 17.52,-433.82 3.54,-145.77 5.28,-291.54 5.28,-437.31 0,-145.77 -1.74,-291.54 -5.28,-437.31 -5.27,-145.77 -10.5,-289.8 -17.52,-433.83 -7.07,-145.77 -15.83,-288.05 -26.39,-432.03 -12.29,-144.03 -24.59,-286.31 -38.63,-428.55 -14.04,-142.28 -31.61,-284.52 -49.19,-425.01 -17.52,-142.28 -36.84,-282.78 -57.95,-423.27 -22.8,-138.75 -45.65,-279.24 -70.24,-417.99 -24.6,-138.75 -50.93,-277.5 -79.01,-414.51 -28.13,-138.75 -57.95,-275.76 -89.57,-412.71 -31.61,-135.27 -65.01,-272.23 -100.11,-407.49 -35.15,-135.22 -70.25,-268.69 -108.93,-403.96 -38.63,-133.47 -77.27,-266.94 -119.39,-398.67 -40.42,-133.48 -84.33,-265.21 -128.24,-396.89 -43.91,-129.98 -89.56,-259.97 -136.96,-389.91 -47.44,-129.99 -96.63,-259.93 -147.56,-388.12 -50.93,-128.25 -101.86,-254.7 -156.28,-381.15 -52.72,-126.46 -108.93,-252.91 -165.13,-377.57 -56.16,-124.71 -114.16,-249.42 -173.85,-372.34 -59.69,-122.97 -121.18,-245.89 -182.66,-368.86 -63.23,-121.17 -126.45,-242.35 -191.42,-361.78 -64.97,-119.44 -131.73,-238.87 -200.24,-356.51 -66.71,-119.44 -137.01,-235.38 -207.25,-353.03 -70.25,-115.89 -142.24,-231.84 -216.02,-346 -73.73,-114.16 -149.25,-228.31 -224.78,-340.73 -75.52,-112.41 -152.84,-224.77 -231.85,-335.45 -79.05,-110.62 -158.06,-219.55 -240.61,-328.43 -80.8,-108.87 -163.34,-216.01 -247.63,-323.15 -82.54,-107.14 -168.62,-212.48 -254.69,-316.13 -86.03,-105.4 -173.85,-209 -261.67,-310.86 -89.57,-101.86 -179.13,-203.72 -270.48,-303.83 -91.31,-100.12 -182.66,-198.45 -277.5,-296.82 -93.05,-98.37 -187.89,-194.96 -282.73,-291.54 -96.64,-94.84 -193.22,-189.68 -291.54,-282.78 -98.38,-94.84 -196.75,-186.14 -296.82,-277.5 -100.12,-91.3 -201.98,-180.87 -303.84,-270.48 -101.91,-87.77 -205.51,-175.59 -310.9,-261.67 -103.6,-86.07 -210.74,-172.1 -316.14,-254.65 -107.13,-84.33 -214.22,-166.87 -323.15,-247.62 -108.88,-82.55 -217.76,-161.61 -328.43,-240.61 -110.62,-79.06 -223.04,-156.33 -335.45,-231.85 -112.36,-75.53 -226.57,-151.05 -340.73,-224.83 -114.15,-73.73 -230.05,-145.77 -345.95,-216.02 -117.69,-70.24 -233.59,-140.49 -353.03,-207.25 -117.69,-68.45 -237.12,-135.22 -356.56,-200.18 -119.38,-65.02 -240.61,-128.25 -363.52,-191.48 -121.18,-63.22 -244.15,-122.91 -367.07,-182.61 -122.97,-59.74 -247.63,-117.69 -372.34,-173.89 -124.71,-56.21 -251.16,-112.42 -377.62,-165.09 -126.45,-54.47 -254.65,-105.4 -382.84,-156.33 -128.25,-50.93 -256.44,-100.11 -386.38,-147.51 -129.99,-47.44 -259.93,-93.09 -391.66,-137.01 -129.99,-43.91 -261.72,-87.82 -395.19,-128.19 -131.73,-42.17 -265.2,-80.8 -398.68,-119.43 -135.21,-38.64 -268.69,-73.79 -403.95,-108.88 -135.22,-35.15 -272.22,-68.51 -407.44,-100.12 -137.01,-31.61 -274.02,-61.48 -412.72,-89.56 -137,-28.13 -275.75,-54.47 -414.5,-79.06 -138.75,-24.6 -279.25,-49.14 -419.74,-70.25 -138.75,-21.06 -279.29,-40.37 -421.53,-57.95 -140.49,-19.31 -282.78,-35.1 -425.01,-49.18 -142.29,-14.04 -284.52,-26.34 -428.55,-38.64 -144.03,-10.5 -288.05,-19.31 -432.03,-26.33 -144.03,-7.02 -288.06,-12.3 -433.83,-17.58 -145.77,-3.48 -291.54,-5.28 -437.31,-5.28l0 0 0 0 0 0 0 0 0 0 0 0 0 0 0 0 0 0 0 0 0 0 0 0 0 0 0 0 0 0 0 0 0 0 0 0 0 0 0 0 0 0 0 0 0 0 0 0 0 0 0 0 0 0 0 0 0 0 0 0 0 0 0 0 0 0 0 0 0 0 0 0 0 0 0 0 0 0 0 0 0 0 0 0 0 0 0 0 0 0 0 0 0 0 0 0 0 0 0 0 0 0 0 0 0 0 0 0 0 0 0 0 0 0 0 0 0 0 0 0 0 0 0 0 0 0 0 0zm0 2112.87c128.2,0 254.65,1.74 382.85,5.23 126.45,3.53 252.91,7.07 379.36,14.09 126.45,7.02 251.16,14.04 375.87,24.59 126.46,8.76 251.17,19.32 375.83,33.36 124.71,12.29 247.63,26.33 370.6,42.11 124.71,15.83 247.63,33.41 370.55,52.73 121.22,17.57 244.14,38.63 365.32,59.69 121.17,21.11 242.4,45.65 363.58,70.24 119.43,24.6 240.61,50.93 360.04,77.32 119.43,28.08 237.08,57.95 356.51,87.77 117.69,31.61 235.33,63.23 353.02,96.63 115.9,33.36 233.59,66.71 349.49,103.6 115.95,36.89 230.11,73.79 346.01,112.42 114.15,38.63 228.31,79.01 342.47,121.17 112.41,42.17 224.83,84.29 337.19,128.2 112.41,45.7 224.83,91.35 335.45,137.01 110.67,47.44 221.29,94.84 330.22,145.77 108.88,49.18 217.76,100.11 324.9,151.04 108.88,52.68 216.01,107.14 323.15,161.61 105.4,54.41 210.79,110.62 316.13,166.82 105.4,57.95 209,115.9 312.65,175.64 103.61,59.7 207.21,119.44 309.12,180.87 101.86,63.23 201.92,126.46 302.04,189.68 100.12,65.02 200.24,129.99 298.61,196.7 98.33,66.76 196.7,135.27 293.28,203.77 96.59,68.45 193.17,138.75 288.01,210.74 94.84,70.25 189.68,142.23 282.78,216.02 93.09,73.78 186.19,147.51 277.5,223.03 91.35,77.32 182.66,152.84 272.22,230.11 89.56,79 177.38,156.32 265.2,237.07 87.82,79.06 175.65,159.86 261.67,242.4 84.34,82.55 170.37,165.09 252.91,247.63 84.34,84.29 166.88,170.37 249.42,254.65 82.55,86.08 163.35,173.9 242.35,261.67 79.06,87.82 158.07,175.64 237.13,265.2 77.27,89.62 152.79,180.92 228.31,272.23 77.27,91.35 151.05,184.45 224.78,277.5 73.78,93.09 145.77,187.93 216.07,282.77 71.99,94.84 142.23,191.43 210.74,288.06 68.5,96.58 137,194.91 203.72,293.28 66.76,98.38 131.73,198.44 196.7,298.56 63.22,100.12 126.45,200.23 187.93,302.09 63.23,101.86 122.92,205.51 182.66,309.12 59.7,103.6 117.65,207.25 175.64,312.6 56.21,103.65 112.37,210.78 166.83,316.13 54.47,107.14 108.88,214.27 159.81,321.41 52.73,108.88 103.66,217.81 152.79,326.69 50.98,108.88 98.38,219.55 145.82,330.17 45.66,110.67 91.31,223.03 136.96,335.45 43.91,110.67 86.08,224.83 128.2,337.19 42.16,114.21 82.59,228.36 121.22,342.52 38.64,114.16 75.53,230.05 112.37,345.95 35.14,115.95 70.29,233.59 103.65,349.54 33.35,117.64 64.97,235.33 96.58,352.98 29.87,119.43 59.74,237.12 86.08,356.55 28.08,119.44 54.41,240.61 79.01,360.05 24.59,121.17 47.44,242.35 70.24,363.53 21.11,121.17 42.17,244.14 61.49,365.32 17.57,122.96 35.15,245.88 50.93,368.8 15.83,124.71 29.87,247.68 42.17,372.34 12.29,124.71 24.59,249.42 33.35,374.08 10.56,126.46 17.58,251.17 24.6,377.62 7.02,126.46 10.55,252.91 14.03,379.36 3.54,128.2 5.28,254.65 5.28,382.9 0,126.45 -1.74,254.65 -5.28,381.1 -3.48,128.19 -7.01,254.65 -14.03,379.36 -7.02,126.45 -14.04,252.9 -24.6,377.62 -8.76,124.66 -21.06,251.11 -33.35,374.08 -12.3,124.71 -26.34,249.37 -42.17,372.34 -15.78,124.71 -33.36,247.63 -50.93,368.8 -19.32,122.97 -40.38,244.15 -61.49,367.07 -22.8,121.17 -45.65,242.4 -70.24,361.78 -24.6,121.23 -50.93,240.61 -79.01,360.05 -26.34,119.43 -56.21,238.86 -86.08,356.55 -31.61,119.44 -63.23,237.08 -96.58,353.03 -33.36,117.64 -68.51,233.59 -103.65,349.49 -36.84,115.9 -73.73,231.84 -112.37,347.74 -38.63,114.16 -79.06,228.32 -121.22,340.73 -42.12,114.16 -84.29,226.57 -128.2,338.93 -45.65,112.42 -91.3,223.09 -136.96,333.71 -47.44,110.67 -94.84,221.29 -145.82,330.17 -49.13,110.68 -100.06,219.55 -152.79,326.69 -50.93,108.88 -105.34,216.02 -159.81,321.41 -54.46,107.14 -110.62,212.48 -166.83,317.88 -57.99,105.39 -115.94,208.99 -175.64,312.65 -59.74,103.6 -119.43,205.46 -182.66,307.32 -61.48,101.86 -124.71,203.72 -187.93,303.83 -64.97,100.12 -129.94,200.24 -196.7,298.56 -66.72,98.38 -135.22,196.75 -203.72,293.33 -68.51,96.59 -138.75,191.43 -210.74,288.01 -70.3,94.84 -142.29,189.68 -216.07,282.78 -73.73,93.09 -147.51,184.4 -224.78,277.5 -75.52,91.3 -151.04,180.91 -228.31,270.48 -79.06,89.56 -158.07,179.12 -237.13,266.94 -79,87.82 -159.8,173.9 -242.35,259.93 -82.54,86.08 -165.08,170.36 -249.42,254.65 -82.54,84.33 -168.57,166.88 -252.91,249.42 -86.02,80.8 -173.85,161.55 -261.67,242.35 -87.82,79.06 -175.64,158.07 -265.2,235.33 -89.56,79.06 -180.87,154.59 -272.22,230.11 -91.31,75.52 -184.41,151.05 -277.5,223.03 -93.1,73.79 -187.94,145.77 -282.78,217.81 -94.84,70.25 -191.42,140.5 -288.01,210.74 -96.58,68.51 -194.95,135.22 -293.28,201.98 -98.37,66.71 -198.49,133.47 -298.61,196.7 -100.12,64.97 -200.18,128.19 -302.04,189.68 -101.91,61.48 -205.51,122.92 -309.12,182.66 -103.65,59.69 -207.25,117.64 -312.65,175.64 -105.34,56.16 -210.73,112.36 -316.13,166.83 -107.14,54.46 -214.27,107.13 -323.15,159.81 -107.14,52.72 -216.02,103.65 -324.9,152.79 -108.93,49.18 -219.55,98.37 -330.22,144.02 -110.62,47.45 -223.04,93.1 -335.45,137.01 -112.36,45.65 -224.78,87.82 -337.19,129.94 -114.16,40.42 -228.32,80.8 -342.47,119.43 -115.9,40.43 -230.06,77.32 -346.01,114.16 -115.9,35.15 -233.59,70.24 -349.49,103.65 -117.69,33.36 -235.33,64.97 -353.02,94.84 -119.43,31.61 -237.08,59.69 -356.51,87.82 -119.43,28.08 -240.61,54.42 -360.04,79.01 -121.18,24.59 -242.41,47.44 -363.58,70.25 -121.18,21.1 -244.1,40.42 -365.32,59.74 -122.92,19.31 -245.84,36.89 -370.55,52.67 -122.97,15.83 -245.89,29.87 -370.6,42.17 -124.66,12.29 -249.37,24.59 -375.83,33.35 -124.71,8.76 -249.42,17.58 -375.87,24.6 -126.45,5.27 -252.91,10.55 -379.36,14.04 -128.2,3.53 -254.65,5.27 -382.85,5.27 -128.19,0 -254.65,-1.74 -381.1,-5.27 -128.24,-3.49 -254.7,-8.77 -379.36,-14.04 -126.45,-7.02 -252.91,-15.84 -377.62,-24.6 -124.71,-8.76 -251.16,-21.06 -374.08,-33.35 -124.71,-12.3 -249.42,-26.34 -372.34,-42.17 -122.97,-15.78 -245.89,-33.36 -368.86,-52.67 -122.92,-19.32 -245.83,-38.64 -367.06,-59.74 -121.18,-22.81 -242.35,-45.66 -361.79,-70.25 -121.17,-24.59 -240.61,-50.93 -360.04,-79.01 -119.43,-28.13 -238.87,-56.21 -356.51,-87.82 -119.43,-29.87 -237.12,-61.48 -353.02,-94.84 -117.69,-33.41 -233.59,-68.5 -351.29,-103.65 -115.89,-36.84 -230.05,-73.73 -345.95,-114.16 -114.16,-38.63 -228.31,-79.01 -340.73,-119.43 -114.15,-42.12 -226.57,-84.29 -338.98,-129.94 -112.42,-43.91 -223.04,-89.56 -333.71,-137.01 -112.36,-45.65 -221.29,-94.84 -330.17,-144.02 -110.62,-49.14 -219.55,-100.07 -326.64,-152.79 -108.93,-52.68 -216.07,-105.35 -321.41,-159.81 -107.14,-54.47 -212.53,-110.67 -317.93,-166.83 -105.34,-58 -208.99,-115.95 -312.6,-175.64 -103.6,-59.74 -205.51,-121.18 -307.37,-182.66 -101.86,-61.49 -203.72,-124.71 -303.83,-189.68 -100.12,-63.23 -200.19,-129.99 -298.56,-196.7 -98.33,-66.76 -196.7,-133.47 -293.29,-201.98 -96.63,-70.24 -193.21,-140.49 -288.05,-210.74 -94.84,-72.04 -189.68,-144.02 -282.78,-217.81 -93.05,-71.98 -184.4,-147.51 -277.45,-223.03 -91.36,-75.52 -180.92,-151.05 -270.48,-230.11 -89.56,-77.26 -179.18,-156.27 -266.95,-235.33 -87.82,-80.8 -173.9,-161.55 -259.97,-242.35 -86.03,-82.54 -170.37,-165.09 -254.65,-249.42 -84.29,-84.29 -166.83,-168.57 -249.37,-254.65 -80.81,-86.03 -161.61,-172.11 -242.41,-259.93 -79.01,-87.82 -158.06,-177.38 -235.33,-266.94 -79.01,-89.57 -154.53,-179.18 -230.06,-270.48 -75.52,-93.1 -151.04,-184.41 -223.08,-277.5 -73.73,-93.1 -145.77,-187.94 -217.76,-282.78 -70.25,-96.58 -140.49,-191.42 -210.74,-288.01 -68.5,-96.58 -137.01,-194.95 -201.98,-293.33 -66.76,-98.32 -133.47,-198.44 -196.7,-298.56 -65.02,-100.11 -128.24,-201.97 -189.68,-303.83 -61.48,-101.86 -122.96,-203.72 -182.66,-307.32 -59.74,-103.66 -117.69,-207.26 -175.64,-312.65 -56.2,-105.4 -112.41,-210.74 -166.83,-317.88 -54.46,-105.39 -108.93,-212.53 -159.86,-321.41 -52.67,-107.14 -103.6,-216.01 -152.79,-326.69 -49.18,-108.88 -98.32,-219.5 -144.02,-330.17 -47.4,-110.62 -93.05,-221.29 -136.96,-333.71 -45.7,-112.36 -87.82,-224.77 -129.99,-338.93 -40.37,-112.41 -80.8,-226.57 -121.18,-340.73 -38.63,-115.9 -75.52,-231.84 -112.41,-347.74 -35.1,-115.9 -70.25,-231.85 -103.6,-349.49 -33.36,-115.95 -64.97,-233.59 -96.58,-353.03 -29.87,-117.69 -58,-237.12 -86.08,-356.55 -28.13,-119.44 -54.47,-238.82 -79.06,-360.05 -24.54,-119.38 -47.4,-240.61 -70.25,-361.78 -21.06,-122.92 -42.11,-244.1 -59.69,-367.07 -19.32,-121.17 -36.89,-244.09 -52.67,-368.8 -15.83,-122.97 -29.87,-247.63 -42.17,-372.34 -12.3,-122.97 -24.59,-249.42 -33.35,-374.08 -8.82,-124.72 -17.58,-251.17 -24.6,-377.62 -5.28,-124.71 -10.55,-251.17 -14.09,-379.36 -3.48,-126.45 -5.22,-254.65 -5.22,-381.1 0,-128.25 1.74,-254.7 5.22,-382.9 3.54,-126.45 8.81,-252.9 14.09,-379.36 7.02,-126.45 15.78,-251.16 24.6,-377.62 8.76,-124.66 21.05,-249.37 33.35,-374.08 12.3,-124.66 26.34,-247.63 42.17,-372.34 15.78,-122.92 33.35,-245.84 52.67,-368.8 17.58,-121.18 38.63,-244.15 59.69,-365.32 22.85,-121.18 45.71,-242.36 70.25,-363.53 24.59,-119.44 50.93,-240.61 79.06,-360.05 28.08,-119.43 56.21,-237.12 86.08,-356.55 31.61,-117.65 63.22,-235.34 96.58,-352.98 33.35,-115.95 68.5,-233.59 103.6,-349.54 36.89,-115.9 73.78,-231.79 112.41,-345.95 40.38,-114.16 80.81,-228.31 121.18,-342.52 42.17,-112.36 84.29,-226.52 129.99,-337.19 43.91,-112.42 89.56,-224.78 136.96,-335.45 45.7,-110.62 94.84,-221.29 144.02,-330.17 49.19,-108.88 100.12,-217.81 152.79,-326.69 50.93,-107.14 105.4,-214.27 159.86,-321.41 54.42,-105.35 110.63,-212.48 166.83,-316.13 57.95,-105.35 115.9,-209 175.64,-312.6 59.7,-103.61 121.18,-207.26 182.66,-309.12 61.44,-101.86 124.66,-201.97 189.68,-302.09 63.23,-100.12 129.94,-200.18 196.7,-298.56 64.97,-98.37 133.48,-196.7 201.98,-293.28 70.25,-96.63 140.49,-193.22 210.74,-288.06 71.99,-94.84 144.03,-189.68 217.76,-282.77 72.04,-93.05 147.56,-186.15 223.08,-277.5 75.53,-91.31 151.05,-182.61 230.06,-272.23 77.27,-89.56 156.32,-177.38 235.33,-265.2 80.8,-87.77 161.6,-175.59 242.41,-261.67 82.54,-84.28 165.08,-170.36 249.37,-254.65 84.28,-82.54 168.62,-165.08 254.65,-247.63 86.07,-82.54 172.15,-163.34 259.97,-242.4 87.77,-80.75 177.39,-158.07 266.95,-237.07 89.56,-77.27 179.12,-152.79 270.48,-230.11 93.05,-75.52 184.4,-149.25 277.45,-223.03 93.1,-73.79 187.94,-145.77 282.78,-216.02 94.84,-71.99 191.42,-142.29 288.05,-210.74 96.59,-68.5 194.96,-137.01 293.29,-203.77 98.37,-66.71 198.44,-131.68 298.56,-196.7 100.11,-63.22 201.97,-126.45 303.83,-189.68 101.86,-61.43 203.77,-121.17 307.37,-180.87 103.61,-59.74 207.26,-117.69 312.6,-175.64 105.4,-56.2 210.79,-112.41 317.93,-166.82 105.34,-54.47 212.48,-108.93 321.41,-161.61 107.09,-50.93 216.02,-101.86 326.64,-151.04 108.88,-50.93 217.81,-98.33 330.17,-145.77 110.67,-45.66 221.29,-91.31 333.71,-137.01 112.41,-43.91 224.83,-86.03 338.98,-128.2 112.42,-42.16 226.57,-82.54 340.73,-121.17 115.9,-38.63 230.06,-75.53 345.95,-112.42 117.7,-36.89 233.6,-70.24 351.29,-103.6 115.9,-33.4 233.59,-65.02 353.02,-96.63 117.64,-29.82 237.08,-59.69 356.51,-87.77 119.43,-26.39 238.87,-52.72 360.04,-77.32 119.44,-24.59 240.61,-49.13 361.79,-70.24 121.23,-21.06 244.14,-42.12 367.06,-59.69 122.97,-19.32 245.89,-36.9 368.86,-52.73 122.92,-15.78 247.63,-29.82 372.34,-42.11 122.92,-14.04 249.37,-24.6 374.08,-33.36 124.71,-10.55 251.17,-17.57 377.62,-24.59 124.66,-7.02 251.12,-10.56 379.36,-14.09 126.45,-3.49 252.91,-5.23 381.1,-5.23z"/>
  <polygon fill="black" fill-rule="nonzero" points="10179.5,16934.23 10328.76,16841.13 10478.06,16749.82 10629.11,16656.73 10778.36,16565.37 10927.67,16474.07 11076.97,16380.97 11228.02,16289.66 11377.27,16196.57 11526.58,16105.26 11675.83,16012.16 11825.14,15920.81 11976.19,15827.76 12125.49,15736.41 12274.75,15643.36 12424.05,15552 12573.31,15458.91 12724.35,15367.6 12873.66,15276.29 13022.91,15183.2 13172.22,15091.84 13323.26,14998.79 13472.57,14907.44 13621.82,14814.34 13771.13,14723.04 13920.38,14629.94 14071.43,14538.63 14220.73,14447.28 14370.04,14354.23 14519.29,14262.88 14668.6,14169.83 14819.65,14078.47 14968.9,13985.38 15118.21,13894.07 15267.46,13800.97 15418.51,13709.67 15567.81,13616.57 15717.12,13525.27 15866.37,13432.17 16015.68,13340.81 16166.72,13247.77 16315.98,13156.41 16465.28,13065.11 16614.59,12972.01 16763.84,12880.7 16914.89,12787.6 17064.19,12696.25 17213.45,12603.2 17362.75,12511.85 17513.8,12418.8 17663.06,12327.44 17812.36,12234.35 17961.67,12143.04 18110.92,12049.94 18261.97,11958.64 18411.27,11867.28 18560.53,11774.24 18709.83,11682.88 18859.14,11589.78 19010.13,11498.48 19159.44,11405.38 19308.74,11314.08 19458,11220.98 19607.3,11129.67 19758.35,11036.58 19758.35,11220.98 19758.35,11405.38 19758.35,11589.78 19758.35,11774.24 19758.35,11958.64 19758.35,12143.04 19758.35,12327.44 19758.35,12511.85 19758.35,12696.25 19758.35,12880.7 19758.35,13063.36 19758.35,13247.77 19758.35,13432.17 19758.35,13616.57 19758.35,13800.97 19758.35,13985.38 19758.35,14169.83 19758.35,14354.23 19758.35,14538.63 19758.35,14723.04 19758.35,14907.44 19758.35,15091.84 19758.35,15276.29 19758.35,15458.91 19758.35,15643.36 19758.35,15827.76 19758.35,16012.16 19758.35,16196.57 19758.35,16380.97 19758.35,16565.37 19758.35,16749.82 19758.35,16934.23 19758.35,17118.63 19758.35,17303.03 19758.35,17487.43 19758.35,17670.09 19758.35,17854.5 19758.35,18038.9 19758.35,18223.35 19758.35,18407.75 19758.35,18592.16 19758.35,18776.56 19758.35,18960.96 19758.35,19145.37 19758.35,19329.82 19758.35,19514.22 19758.35,19698.62 19758.35,19883.03 19758.35,20067.43 19758.35,20250.09 19758.35,20434.49 19758.35,20618.94 19758.35,20803.35 19758.35,20987.75 19758.35,21172.15 19758.35,21356.56 19758.35,21540.96 19758.35,21725.41 19758.35,21909.81 19758.35,22094.22 19758.35,22276.88 19758.35,22461.28 19758.35,22645.68 19758.35,22830.08 19607.3,22738.78 19458,22645.68 19308.74,22554.38 19159.44,22461.28 19010.13,22369.92 18859.14,22276.88 18709.83,22185.52 18560.53,22094.22 18411.27,22001.12 18261.97,21909.81 18110.92,21816.72 17961.67,21725.41 17812.36,21632.31 17663.06,21540.96 17513.8,21447.91 17362.75,21356.56 17213.45,21263.46 17064.19,21172.15 16914.89,21080.85 16763.84,20987.75 16614.59,20896.39 16465.28,20803.35 16315.98,20711.99 16166.72,20618.94 16015.68,20527.59 15866.37,20434.49 15717.12,20343.19 15567.81,20250.09 15418.51,20158.78 15267.46,20067.43 15118.21,19974.38 14968.9,19883.03 14819.65,19789.93 14668.6,19698.62 14519.29,19605.53 14370.04,19514.22 14220.73,19421.12 14071.43,19329.82 13920.38,19236.72 13771.13,19145.37 13621.82,19052.32 13472.57,18960.96 13323.26,18867.92 13172.22,18776.56 13022.91,18685.26 12873.66,18592.16 12724.35,18500.85 12573.31,18407.75 12424.05,18316.4 12274.75,18223.35 12125.49,18132 11976.19,18038.9 11825.14,17947.59 11675.83,17854.5 11526.58,17763.19 11377.27,17671.84 11228.02,17578.79 11076.97,17487.43 10927.67,17394.39 10778.36,17303.03 10629.11,17209.93 10478.06,17118.63 10328.76,17025.53 "/>
  <polygon fill="black" fill-rule="nonzero" points="16307.22,16934.23 16456.52,16841.13 16605.78,16749.82 16755.08,16656.73 16906.13,16565.37 17055.38,16474.07 17204.69,16380.97 17353.94,16289.66 17504.99,16196.57 17654.29,16105.26 17803.6,16012.16 17952.85,15920.81 18102.16,15827.76 18253.21,15736.41 18402.46,15643.36 18551.76,15552 18701.07,15458.91 18850.32,15367.6 19001.37,15276.29 19150.68,15183.2 19299.93,15091.84 19449.24,14998.79 19600.28,14907.44 19749.54,14814.34 19898.84,14723.04 20048.15,14629.94 20197.4,14538.63 20348.45,14447.28 20497.75,14354.23 20647.01,14262.88 20796.31,14169.83 20945.62,14078.47 21096.62,13985.38 21245.92,13894.07 21395.22,13800.97 21544.48,13709.67 21693.78,13616.57 21844.83,13525.27 21994.09,13432.17 22143.39,13340.81 22292.7,13247.77 22443.69,13156.41 22593,13065.11 22742.3,12972.01 22891.56,12880.7 23040.86,12787.6 23191.91,12696.25 23341.16,12603.2 23490.47,12511.85 23639.77,12418.8 23789.03,12327.44 23940.08,12234.35 24089.38,12143.04 24238.63,12049.94 24387.94,11958.64 24538.99,11867.28 24688.24,11774.24 24837.55,11682.88 24986.85,11589.78 25136.11,11498.48 25287.15,11405.38 25436.46,11314.08 25585.71,11220.98 25735.02,11129.67 25884.32,11036.58 25884.32,11220.98 25884.32,11405.38 25884.32,11589.78 25884.32,11774.24 25884.32,11958.64 25884.32,12143.04 25884.32,12327.44 25884.32,12511.85 25884.32,12696.25 25884.32,12880.7 25884.32,13063.36 25884.32,13247.77 25884.32,13432.17 25884.32,13616.57 25884.32,13800.97 25884.32,13985.38 25884.32,14169.83 25884.32,14354.23 25884.32,14538.63 25884.32,14723.04 25884.32,14907.44 25884.32,15091.84 25884.32,15276.29 25884.32,15458.91 25884.32,15643.36 25884.32,15827.76 25884.32,16012.16 25884.32,16196.57 25884.32,16380.97 25884.32,16565.37 25884.32,16749.82 25884.32,16934.23 25884.32,17118.63 25884.32,17303.03 25884.32,17487.43 25884.32,17670.09 25884.32,17854.5 25884.32,18038.9 25884.32,18223.35 25884.32,18407.75 25884.32,18592.16 25884.32,18776.56 25884.32,18960.96 25884.32,19145.37 25884.32,19329.82 25884.32,19514.22 25884.32,19698.62 25884.32,19883.03 25884.32,20067.43 25884.32,20250.09 25884.32,20434.49 25884.32,20618.94 25884.32,20803.35 25884.32,20987.75 25884.32,21172.15 25884.32,21356.56 25884.32,21540.96 25884.32,21725.41 25884.32,21909.81 25884.32,22094.22 25884.32,22276.88 25884.32,22461.28 25884.32,22645.68 25884.32,22830.08 25735.02,22738.78 25585.71,22645.68 25436.46,22554.38 25287.15,22461.28 25136.11,22369.92 24986.85,22276.88 24837.55,22185.52 24688.24,22094.22 24538.99,22001.12 24387.94,21909.81 24238.63,21816.72 24089.38,21725.41 23940.08,21632.31 23789.03,21540.96 23639.77,21447.91 23490.47,21356.56 23341.16,21263.46 23191.91,21172.15 23040.86,21080.85 22891.56,20987.75 22742.3,20896.39 22593,20803.35 22443.69,20711.99 22292.7,20618.94 22143.39,20527.59 21994.09,20434.49 21844.83,20343.19 21693.78,20250.09 21544.48,20158.78 21395.22,20067.43 21245.92,19974.38 21096.62,19883.03 20945.62,19789.93 20796.31,19698.62 20647.01,19605.53 20497.75,19514.22 20348.45,19421.12 20197.4,19329.82 20048.15,19236.72 19898.84,19145.37 19749.54,19052.32 19600.28,18960.96 19449.24,18867.92 19299.93,18776.56 19150.68,18685.26 19001.37,18592.16 18850.32,18500.85 18701.07,18407.75 18551.76,18316.4 18402.46,18223.35 18253.21,18132 18102.16,18038.9 17952.85,17947.59 17803.6,17854.5 17654.29,17763.19 17504.99,17671.84 17353.94,17578.79 17204.69,17487.43 17055.38,17394.39 16906.13,17303.03 16755.08,17209.93 16605.78,17118.63 16456.52,17025.53 "/>
  <polygon fill="black" fill-rule="nonzero" points="7980.61,22830.08 10999.66,22830.08 10999.66,11036.58 7980.61,11036.58 7980.61,11220.98 7980.61,11405.38 7980.61,11589.78 7980.61,11774.24 7980.61,11958.64 7980.61,12143.04 7980.61,12327.44 7980.61,12511.85 7980.61,12696.25 7980.61,12880.7 7980.61,13063.36 7980.61,13247.77 7980.61,13432.17 7980.61,13616.57 7980.61,13800.97 7980.61,13985.38 7980.61,14169.83 7980.61,14354.23 7980.61,14538.63 7980.61,14723.04 7980.61,14907.44 7980.61,15091.84 7980.61,15276.29 7980.61,15458.91 7980.61,15643.36 7980.61,15827.76 7980.61,16012.16 7980.61,16196.57 7980.61,16380.97 7980.61,16565.37 7980.61,16749.82 7980.61,16934.23 7980.61,17118.63 7980.61,17303.03 7980.61,17487.43 7980.61,17670.09 7980.61,17854.5 7980.61,18038.9 7980.61,18223.35 7980.61,18407.75 7980.61,18592.16 7980.61,18776.56 7980.61,18960.96 7980.61,19145.37 7980.61,19329.82 7980.61,19514.22 7980.61,19698.62 7980.61,19883.03 7980.61,20067.43 7980.61,20250.09 7980.61,20434.49 7980.61,20618.94 7980.61,20803.35 7980.61,20987.75 7980.61,21172.15 7980.61,21356.56 7980.61,21540.96 7980.61,21725.41 7980.61,21909.81 7980.61,22094.22 7980.61,22276.88 7980.61,22461.28 7980.61,22645.68 "/>
 </g>
</svg>
