<?xml version="1.0" encoding="UTF-8"?>
<!DOCTYPE svg PUBLIC "-//W3C//DTD SVG 1.1//EN" "http://www.w3.org/Graphics/SVG/1.1/DTD/svg11.dtd">
<!-- Creator: CorelDRAW 2026 -->
<svg xmlns="http://www.w3.org/2000/svg" xml:space="preserve" width="338.667mm" height="338.667mm" version="1.1" shape-rendering="geometricPrecision" text-rendering="geometricPrecision" image-rendering="optimizeQuality" fill-rule="evenodd" clip-rule="evenodd"
viewBox="0 0 33866.66 33866.66"
 xmlns:xlink="http://www.w3.org/1999/xlink"
 xmlns:xodm="http://www.corel.com/coreldraw/odm/2003">
 <g id="Camada_x0020_1">
  <metadata id="CorelCorpID_0Corel-Layer"/>
  <path fill="black" fill-rule="nonzero" d="M16934.18 -0.01c-145.77,0 -291.54,1.95 -437.31,5.63 -145.77,3.68 -289.8,9.11 -433.78,16.53 -144.02,7.17 -288.05,16.33 -432.08,27.18 -143.98,10.9 -286.26,23.75 -428.5,38.14 -142.28,14.38 -284.52,30.71 -425.06,48.63 -142.23,17.93 -282.73,37.59 -421.48,59 -140.54,21.46 -281.03,44.65 -419.78,69.4 -138.75,24.74 -277.5,51.27 -414.46,79.55 -138.75,28.28 -275.76,58.15 -412.76,89.56 -135.22,31.62 -272.23,64.62 -407.44,99.57 -135.22,34.8 -268.69,71.14 -403.96,109.28 -133.47,37.93 -266.94,77.61 -398.67,118.88 -133.48,41.27 -265.21,83.94 -396.94,128.39 -129.93,44.41 -259.92,90.26 -389.86,137.86 -129.99,47.44 -259.93,96.43 -388.17,147.01 -126.46,50.58 -254.65,102.55 -381.1,156.12 -126.46,53.57 -252.91,108.53 -377.62,165.09 -124.66,56.55 -249.37,114.5 -372.34,174.04 -122.92,59.39 -245.89,120.33 -368.81,182.66 -121.17,62.33 -242.35,126.1 -361.78,191.27 -119.44,65.17 -238.87,131.73 -356.56,199.68 -119.39,67.96 -235.33,137.36 -352.98,208.1 -115.94,70.64 -231.84,142.78 -346,216.21 -114.16,73.43 -228.31,148.06 -340.73,224.28 -112.41,76.07 -224.82,153.33 -335.45,232.19 -110.67,78.66 -219.55,158.56 -328.43,239.91 -108.87,81.15 -216.01,163.69 -323.15,247.43 -105.39,83.98 -212.53,168.96 -316.13,255.19 -105.4,86.22 -209,173.7 -310.86,262.56 -101.86,88.72 -203.77,178.62 -303.83,269.58 -100.12,91.15 -200.24,183.55 -296.82,277 -98.37,93.39 -194.96,188.08 -291.54,283.82 -94.84,95.68 -189.68,192.66 -282.78,290.64 -94.84,98.02 -186.19,197.24 -277.5,297.36 -91.3,100.26 -180.92,201.57 -270.48,303.98 -87.82,102.4 -175.64,206 -261.67,310.5 -86.07,104.5 -172.1,210.04 -254.65,316.68 -84.33,106.78 -166.87,214.27 -247.67,322.95 -82.55,108.72 -161.56,218.3 -240.61,328.97 -79.01,110.62 -156.28,222.33 -231.8,334.9 -75.53,112.76 -151.05,226.21 -224.83,340.72 -73.78,114.5 -145.77,230.1 -216.02,346.34 -70.24,116.45 -140.49,233.79 -207.25,351.98 -68.5,118.18 -135.22,237.27 -200.23,357.2 -64.97,119.98 -128.2,240.8 -191.43,362.52 -61.48,121.68 -122.91,244.29 -182.66,367.56 -59.69,123.46 -117.64,247.63 -173.84,372.68 -56.21,125.06 -112.42,250.82 -165.09,377.42 -54.47,126.65 -105.4,254.14 -156.33,382.19 -50.93,128.19 -100.11,257.08 -147.51,386.92 -47.44,129.59 -93.09,260.07 -137.01,391.1 -43.91,131.18 -87.82,263.06 -128.19,395.69 -42.17,132.42 -80.8,265.69 -119.43,399.71 -38.64,133.82 -73.79,268.54 -108.88,403.8 -35.15,135.21 -68.51,271.12 -100.12,407.63 -31.61,136.61 -61.48,273.76 -89.56,411.67 -28.13,137.65 -54.47,276.05 -79.06,415.14 -24.6,138.95 -47.4,278.55 -70.25,418.74 -21.06,140.14 -40.37,280.78 -57.95,422.02 -19.31,141.18 -35.15,283.12 -49.18,425.35 -14.04,142.28 -26.34,285.21 -38.64,428.54 -10.55,143.28 -19.31,287.16 -26.33,431.33 -7.02,144.37 -14.04,289.1 -17.58,434.32 -3.53,145.27 -5.28,291.03 -5.28,437.15 0,146.12 1.75,291.88 5.28,437.15 3.54,145.02 10.56,289.95 17.58,434.12 7.02,144.37 15.78,288.2 26.33,431.53 12.3,143.33 24.6,286.26 38.64,428.54 14.03,142.23 29.87,284.17 49.18,425.35 17.58,141.19 36.89,281.88 57.95,422.02 22.85,140.14 45.65,279.79 70.25,418.69 24.59,138.94 50.93,277.34 79.06,415.19 28.08,137.86 57.95,275.06 89.56,411.52 31.61,136.61 64.97,272.57 100.12,407.78 35.09,135.26 70.24,269.78 108.88,403.8 38.63,133.82 77.26,267.09 119.43,399.71 40.37,132.58 84.28,264.31 128.19,395.49 43.92,131.23 89.57,261.51 137.01,391.3 47.4,129.64 96.58,258.53 147.51,386.72 50.93,128.25 101.86,255.54 156.33,382.19 52.67,126.6 108.88,252.56 165.09,377.42 56.2,125.05 114.15,249.36 173.84,372.68 59.75,123.46 121.18,245.88 182.66,367.61 63.23,121.67 126.46,242.49 191.43,362.47 65.01,119.93 131.73,239.02 200.23,357.2 66.76,118.24 137.01,235.53 207.25,351.98 70.25,116.29 142.24,231.84 216.02,346.34 73.78,114.51 149.3,228.11 224.83,340.72 75.52,112.57 152.79,224.28 231.8,334.9 79.05,110.67 158.06,220.25 240.61,328.97 80.8,108.68 163.34,216.37 247.67,322.95 82.55,106.64 168.58,212.18 254.65,316.68 86.03,104.5 173.85,208.1 261.67,310.5 89.56,102.41 179.18,203.72 270.48,304.03 91.31,100.07 182.66,199.34 277.5,297.31 93.1,98.03 187.94,194.96 282.78,290.69 96.58,95.69 193.17,190.38 291.54,283.82 96.58,93.4 196.7,185.8 296.82,276.95 100.06,90.96 201.97,180.86 303.83,269.58 101.86,88.72 205.46,176.34 310.86,262.56 103.6,86.23 210.74,171.26 316.13,254.99 107.14,83.99 214.28,166.53 323.15,247.68 108.88,81.3 217.76,161.2 328.43,239.86 110.63,78.86 223.04,156.17 335.45,232.19 112.42,76.22 226.57,150.9 340.73,224.28 114.16,73.43 230.06,145.62 346,216.21 117.65,70.79 233.59,140.14 352.98,208.1 117.69,68 237.12,134.56 356.56,199.68 119.43,65.17 240.61,128.94 361.78,191.27 122.92,62.33 245.89,123.32 368.81,182.66 122.97,59.54 247.68,117.49 372.34,174.04 124.71,56.36 251.16,111.52 377.62,165.09 126.45,53.57 254.64,105.54 381.1,156.12 128.24,50.58 258.18,99.62 388.17,147.01 129.94,47.6 259.93,93.45 389.86,137.86 131.73,44.25 263.46,87.12 396.94,128.39 131.73,41.27 265.2,80.95 398.67,118.88 135.27,38.14 268.74,74.48 403.96,109.28 135.21,34.75 272.22,67.95 407.44,99.57 137,31.41 274.01,61.28 412.76,89.56 136.96,28.13 275.71,54.61 414.46,79.55 138.75,24.79 279.24,47.94 419.78,69.4 138.75,21.41 279.25,41.07 421.48,59 140.54,17.92 282.78,34.25 425.06,48.63 142.24,14.44 284.52,27.24 428.5,38.14 144.03,10.9 288.06,20.01 432.08,27.23 143.98,7.37 288.01,12.8 433.78,16.48 145.77,3.68 291.54,5.63 437.31,5.63 145.82,0 291.59,-1.95 437.36,-5.63 143.97,-3.68 289.74,-9.11 433.77,-16.48 144.03,-7.22 288.05,-16.33 432.08,-27.23 142.24,-10.9 286.26,-23.7 428.5,-38.14 142.28,-14.38 282.78,-30.71 425.06,-48.63 140.49,-17.93 280.99,-37.59 421.48,-59 140.49,-21.46 279.24,-44.61 419.78,-69.4 138.75,-24.94 277.5,-51.42 414.46,-79.55 137.01,-28.28 275.76,-58.15 410.97,-89.56 137.01,-31.62 272.23,-64.82 407.49,-99.57 135.22,-34.8 270.43,-71.14 403.96,-109.28 135.21,-37.93 266.94,-77.61 400.41,-118.88 131.74,-41.27 265.21,-84.14 395.15,-128.39 131.73,-44.41 261.71,-90.26 391.65,-137.86 129.99,-47.39 258.19,-96.43 386.38,-147.01 128.25,-50.58 256.44,-102.55 382.9,-156.12 126.45,-53.57 252.9,-108.73 377.61,-165.09 124.67,-56.55 249.38,-114.5 372.34,-174.04 122.92,-59.34 245.84,-120.33 367.07,-182.66 121.17,-62.33 242.35,-126.1 363.53,-191.27 119.43,-65.12 238.86,-131.68 356.55,-199.68 117.65,-67.96 235.34,-137.31 351.24,-208.1 117.69,-70.59 231.84,-142.78 347.74,-216.21 114.16,-73.38 226.57,-148.06 340.73,-224.28 112.41,-76.02 223.03,-153.33 333.71,-232.19 110.62,-78.66 221.29,-158.56 330.17,-239.86 107.13,-81.15 216.01,-163.69 321.41,-247.68 107.14,-83.73 212.48,-168.76 317.87,-254.99 103.61,-86.22 207.26,-173.84 310.86,-262.56 101.86,-88.72 203.72,-178.62 303.84,-269.58 100.11,-91.15 198.49,-183.55 296.81,-276.95 98.38,-93.44 194.96,-188.13 289.8,-283.82 96.58,-95.73 191.42,-192.66 284.52,-290.69 93.1,-97.97 186.19,-197.24 277.5,-297.31 91.31,-100.31 180.92,-201.62 268.69,-304.03 89.61,-102.4 177.43,-206 263.46,-310.5 86.08,-104.5 170.36,-210.04 254.65,-316.68 84.33,-106.58 166.88,-214.27 247.68,-322.95 80.75,-108.72 161.55,-218.3 240.61,-328.97 77.26,-110.62 154.53,-222.33 231.79,-334.9 75.53,-112.61 151.05,-226.21 223.09,-340.72 73.73,-114.5 145.77,-230.05 217.76,-346.34 70.24,-116.45 138.75,-233.74 207.25,-351.98 68.51,-118.18 135.22,-237.27 200.19,-357.2 65.02,-119.98 128.24,-240.8 191.47,-362.47 61.43,-121.73 122.92,-244.15 182.66,-367.61 59.69,-123.32 117.64,-247.63 173.85,-372.68 56.2,-124.86 110.67,-250.82 165.08,-377.42 52.73,-126.65 105.4,-253.94 156.33,-382.19 49.19,-128.19 98.37,-257.08 145.77,-386.72 47.44,-129.79 94.84,-260.07 138.75,-391.3 43.91,-131.18 86.08,-262.91 128.19,-395.49 40.43,-132.62 80.8,-265.89 119.44,-399.71 36.89,-134.02 73.78,-268.54 108.88,-403.8 35.14,-135.21 68.5,-271.17 100.11,-407.78 29.87,-136.46 59.74,-273.66 89.57,-411.52 28.12,-137.85 54.46,-276.25 79.05,-415.19 24.6,-138.9 47.4,-278.55 68.51,-418.69 22.8,-140.14 42.12,-280.83 59.69,-422.02 17.57,-141.18 33.36,-283.12 49.19,-425.35 14.04,-142.28 26.33,-285.21 36.89,-428.54 12.29,-143.33 21.06,-287.16 28.08,-431.53 7.02,-144.17 12.29,-289.1 15.83,-434.12 3.48,-145.27 5.28,-291.03 5.28,-437.15 0,-146.12 -1.8,-291.88 -5.28,-437.15 -3.54,-145.22 -8.81,-289.95 -15.83,-434.32 -7.02,-144.17 -15.79,-288.05 -28.08,-431.33 -10.56,-143.33 -22.85,-286.26 -36.89,-428.54 -15.83,-142.23 -31.62,-284.17 -49.19,-425.35 -17.57,-141.24 -36.89,-281.88 -59.69,-422.02 -21.11,-140.19 -43.91,-279.79 -68.51,-418.74 -24.59,-139.09 -50.93,-277.49 -79.05,-415.14 -29.83,-137.91 -59.7,-275.06 -89.57,-411.67 -31.61,-136.51 -64.97,-272.42 -100.11,-407.63 -35.1,-135.26 -71.99,-269.98 -108.88,-403.8 -38.64,-134.02 -79.01,-267.29 -119.44,-399.71 -42.11,-132.63 -84.28,-264.51 -128.19,-395.69 -43.91,-131.03 -91.31,-261.51 -138.75,-391.1 -47.4,-129.84 -96.58,-258.73 -145.77,-386.92 -50.93,-128.05 -103.6,-255.54 -156.33,-382.19 -54.41,-126.6 -108.88,-252.36 -165.08,-377.42 -56.21,-125.05 -114.16,-249.22 -173.85,-372.68 -59.74,-123.27 -121.23,-245.88 -182.66,-367.56 -63.23,-121.72 -126.45,-242.54 -191.47,-362.52 -64.97,-119.93 -131.68,-239.02 -200.19,-357.2 -68.5,-118.19 -137.01,-235.53 -207.25,-351.98 -71.99,-116.24 -144.03,-231.84 -217.76,-346.34 -72.04,-114.51 -147.56,-227.96 -223.09,-340.72 -77.26,-112.57 -154.53,-224.28 -231.79,-334.9 -79.06,-110.67 -159.86,-220.25 -240.61,-328.97 -80.8,-108.68 -163.35,-216.17 -247.68,-322.95 -84.29,-106.64 -168.57,-212.18 -254.65,-316.68 -86.03,-104.5 -173.85,-208.1 -263.46,-310.5 -87.77,-102.41 -177.38,-203.72 -268.69,-303.98 -91.31,-100.12 -184.4,-199.34 -277.5,-297.36 -93.1,-97.98 -187.94,-194.96 -284.52,-290.64 -94.84,-95.74 -191.42,-190.43 -289.8,-283.82 -98.32,-93.45 -196.7,-185.85 -296.81,-277 -100.12,-90.96 -201.98,-180.86 -303.84,-269.58 -103.6,-88.86 -207.25,-176.34 -310.86,-262.56 -105.39,-86.23 -210.73,-171.21 -317.87,-255.19 -105.4,-83.74 -214.28,-166.28 -321.41,-247.43 -108.88,-81.35 -219.55,-161.25 -330.17,-239.91 -110.68,-78.86 -221.3,-156.12 -333.71,-232.19 -114.16,-76.22 -226.57,-150.85 -340.73,-224.28 -115.9,-73.43 -230.05,-145.57 -347.74,-216.21 -115.9,-70.74 -233.59,-140.14 -351.24,-208.1 -117.69,-67.95 -237.12,-134.51 -356.55,-199.68 -121.18,-65.17 -242.36,-128.94 -363.53,-191.27 -121.23,-62.33 -244.15,-123.27 -367.07,-182.66 -122.96,-59.54 -247.67,-117.49 -372.34,-174.04 -124.71,-56.56 -251.16,-111.52 -377.61,-165.09 -126.46,-53.57 -254.65,-105.54 -382.9,-156.12 -128.19,-50.58 -256.39,-99.57 -386.38,-147.01 -129.94,-47.6 -259.92,-93.45 -391.65,-137.86 -129.94,-44.45 -263.41,-87.12 -395.15,-128.39 -133.47,-41.27 -265.2,-80.95 -400.41,-118.88 -133.53,-38.14 -268.74,-74.48 -403.96,-109.28 -135.26,-34.95 -270.48,-67.95 -407.49,-99.57 -135.21,-31.41 -273.96,-61.28 -410.97,-89.56 -136.96,-28.28 -275.71,-54.81 -414.46,-79.55 -140.54,-24.75 -279.29,-47.94 -419.78,-69.4 -140.49,-21.41 -280.99,-41.07 -421.48,-59 -142.28,-17.92 -282.78,-34.25 -425.06,-48.63 -142.24,-14.39 -286.26,-27.24 -428.5,-38.14 -144.03,-10.85 -288.05,-20.01 -432.08,-27.18 -144.03,-7.42 -289.8,-12.85 -433.77,-16.53 -145.77,-3.68 -291.54,-5.63 -437.36,-5.63l0 0 0 0 0 0 0 0 0 0 0 0 0 0 0 0 0 0 0 0 0 0 0 0 0 0 0 0 0 0 0 0 0 0 0 0 0 0 0 0 0 0 0 0 0 0 0 0 0 0 0 0 0 0 0 0 0 0 0 0 0 0 0 0 0 0 0 0 0 0 0 0 0 0 0 0 0 0 0 0 0 0 0 0 0 0 0 0 0 0 0 0 0 0 0 0 0 0 0 0 0 0 0 0 0 0 0 0 0 0 0 0 0 0 0 0 0 0 0 0 0 0 0 0 0 0 0 0zm0 2112.44c128.24,0 254.7,1.59 381.15,4.93 128.19,3.19 254.65,8.06 379.36,14.39 126.45,6.52 252.9,14.43 377.57,24.09 126.45,9.46 251.16,20.71 374.13,33.36 124.66,12.64 249.37,26.88 372.34,42.51 122.92,15.78 247.63,33.01 368.8,51.78 122.92,18.82 245.89,39.18 367.07,60.93 121.17,21.81 242.35,45.01 361.78,69.75 121.18,24.74 240.61,50.93 360.05,78.51 119.43,27.58 238.86,56.7 356.5,87.27 119.44,30.37 237.13,62.38 353.03,95.74 117.69,33.35 233.59,68.15 351.28,104.29 115.9,36.05 230.05,73.58 346,112.62 114.16,38.78 228.32,79 340.68,120.62 114.21,41.62 226.57,84.68 338.98,128.94 112.42,44.26 223.04,89.91 333.71,136.81 112.42,47.05 221.29,95.19 330.17,144.72 110.68,49.49 219.55,100.47 326.69,152.59 108.88,51.97 216.02,105.39 321.41,160.01 107.14,54.61 212.48,110.47 317.88,167.72 105.39,57.1 208.99,115.4 312.6,174.94 103.65,59.54 205.51,120.28 307.37,182.31 101.86,61.98 203.72,125.01 303.83,189.33 100.12,64.42 200.24,129.93 298.56,196.49 98.38,66.76 196.7,134.52 293.33,203.37 96.59,69.05 193.17,139.1 288.01,210.24 94.84,71.29 189.68,143.48 282.78,216.91 93.09,73.38 184.4,147.86 277.5,223.58 91.3,75.52 180.86,152.09 270.48,229.9 89.56,77.61 179.12,156.47 266.94,236.18 87.82,79.75 173.85,160.7 259.93,242.54 86.03,81.85 170.36,164.74 254.65,248.53 84.28,83.93 166.88,168.76 249.42,254.64 80.75,85.73 161.55,172.65 242.35,260.47 79.01,87.62 158.07,176.49 235.33,266.1 79.06,89.71 154.59,180.36 230.11,271.87 75.47,91.5 151,183.85 223.03,277.29 73.74,93.45 145.77,187.59 217.76,282.78 70.25,95.18 140.5,191.07 210.79,288 68.46,96.78 135.22,194.6 201.98,293.13 66.71,98.72 133.47,198.09 196.7,298.2 64.97,100.32 128.19,201.48 189.68,303.14 61.43,101.85 122.92,204.61 182.66,308.06 59.69,103.45 117.64,207.75 175.59,312.59 56.21,105.05 112.41,210.79 166.88,317.38 54.41,106.44 108.88,213.72 159.81,321.75 52.67,107.83 103.6,216.56 152.79,325.99 49.18,109.37 98.37,219.49 144.02,330.31 47.4,110.67 93.1,222.19 137.01,334.4 45.65,112.07 87.77,224.83 129.94,338.29 40.42,113.45 80.8,227.61 119.43,342.26 40.38,114.7 77.27,230.1 114.16,346 35.15,115.9 70.24,232.54 103.6,349.68 33.41,117.14 65.02,234.83 94.84,353.17 31.61,118.19 59.74,237.12 87.82,356.55 28.13,119.44 54.47,239.36 79.06,359.84 24.59,120.48 47.39,241.5 70.25,363.03 21.05,121.52 42.16,243.59 59.69,366.16 19.31,122.42 36.89,245.53 52.72,369 15.78,123.46 29.82,247.47 42.12,371.83 12.29,124.32 24.59,249.17 33.4,374.58 8.76,125.26 17.53,250.96 24.6,377.06 5.22,126.11 10.5,252.76 14.04,379.56 3.48,127 5.27,254.29 5.27,381.99 0,127.7 -1.79,254.99 -5.27,381.99 -3.54,126.8 -8.82,253.4 -14.04,379.51 -7.07,126.1 -15.84,251.85 -24.6,377.06 -8.81,125.41 -21.11,250.31 -33.4,374.62 -12.3,124.37 -26.34,248.33 -42.12,371.84 -15.83,123.47 -33.41,246.58 -52.72,368.95 -17.53,122.62 -38.64,244.69 -59.69,366.21 -22.86,121.52 -45.66,242.55 -70.25,363.03 -24.59,120.47 -50.93,240.4 -79.06,359.84 -28.08,119.43 -56.21,238.16 -87.82,356.55 -29.82,118.19 -61.43,236.02 -94.84,353.17 -33.36,117.14 -68.45,233.58 -103.6,349.68 -36.89,115.9 -73.78,231.3 -114.16,345.95 -38.63,114.7 -79.01,228.71 -119.43,342.16 -42.17,113.41 -84.29,226.37 -129.94,338.44 -43.91,112.21 -89.61,223.53 -137.01,334.35 -45.65,110.81 -94.84,220.94 -144.02,330.36 -49.19,109.23 -100.12,217.96 -152.79,325.99 -50.93,107.98 -105.4,215.11 -159.81,321.75 -54.47,106.39 -110.67,212.13 -166.88,317.18 -57.95,104.99 -115.9,209.14 -175.59,312.59 -59.74,103.45 -121.23,206.21 -182.66,308.06 -61.49,101.86 -124.71,202.87 -189.68,303.14 -63.23,100.26 -129.99,199.68 -196.7,298.2 -66.76,98.53 -133.52,196.35 -201.98,293.13 -70.29,96.93 -140.54,193.02 -210.79,288 -71.99,95.24 -144.02,189.53 -217.76,282.78 -72.03,93.44 -147.56,185.84 -223.03,277.34 -75.52,91.66 -151.05,182.26 -230.11,271.87 -77.26,89.71 -156.32,178.43 -235.33,266.25 -80.8,87.82 -161.6,174.54 -242.35,260.42 -82.54,85.73 -165.14,170.71 -249.42,254.49 -84.29,83.94 -168.62,166.68 -254.65,248.53 -86.08,81.99 -172.11,162.79 -259.93,242.54 -87.82,79.71 -177.38,158.57 -266.94,236.23 -89.62,77.76 -179.18,154.38 -270.48,230.05 -93.1,75.52 -184.41,150 -277.5,223.38 -93.1,73.43 -187.94,145.62 -282.78,216.91 -94.84,71.14 -191.42,141.24 -288.01,210.24 -96.63,68.85 -194.95,136.66 -293.33,203.37 -98.32,66.56 -198.44,132.07 -298.56,196.54 -100.11,64.27 -201.97,127.3 -303.83,189.33 -101.86,61.98 -203.72,122.77 -307.37,182.26 -103.61,59.54 -207.21,117.89 -312.6,174.94 -105.4,57.25 -210.74,113.11 -317.88,167.72 -105.39,54.62 -212.53,108.04 -321.41,160.01 -107.14,52.17 -216.01,102.9 -326.69,152.64 -108.88,49.48 -217.75,97.62 -330.17,144.67 -110.67,46.9 -221.29,92.6 -333.71,136.86 -112.41,44.26 -224.77,87.27 -338.98,128.89 -112.36,41.62 -226.52,81.84 -340.68,120.67 -115.95,38.99 -230.1,76.57 -346,112.57 -117.69,36.19 -233.59,70.94 -351.28,104.29 -115.9,33.41 -233.59,65.37 -353.03,95.74 -117.64,30.57 -237.07,59.69 -356.5,87.27 -119.44,27.58 -238.87,53.77 -360.05,78.51 -119.43,24.79 -240.61,47.94 -361.78,69.75 -121.18,21.75 -244.15,42.11 -367.07,60.93 -121.17,18.62 -245.88,36 -368.8,51.63 -122.97,15.83 -247.68,30.02 -372.34,42.66 -122.97,12.65 -247.68,23.9 -374.13,33.41 -124.67,9.66 -251.12,17.52 -377.57,24.04 -124.71,6.33 -251.17,11.25 -379.36,14.39 -126.45,3.19 -252.91,4.93 -381.15,4.93 -128.2,0 -254.65,-1.74 -382.85,-4.93 -126.45,-3.14 -252.9,-8.06 -379.36,-14.39 -126.45,-6.52 -251.16,-14.38 -375.87,-24.04 -126.46,-9.51 -251.12,-20.76 -375.83,-33.41 -124.71,-12.64 -247.63,-26.83 -370.6,-42.66 -124.66,-15.63 -247.62,-33.01 -370.54,-51.63 -121.18,-18.82 -244.15,-39.18 -365.32,-60.93 -121.18,-21.81 -242.36,-44.96 -363.53,-69.75 -119.44,-24.74 -240.66,-50.93 -360.05,-78.51 -119.43,-27.58 -237.12,-56.7 -356.55,-87.27 -117.65,-30.37 -235.34,-62.33 -353.03,-95.74 -115.9,-33.35 -233.59,-68.1 -349.49,-104.29 -115.9,-36 -230.05,-73.58 -346,-112.57 -114.16,-38.83 -228.31,-79.05 -342.47,-120.67 -112.41,-41.62 -224.78,-84.63 -337.19,-128.89 -112.42,-44.26 -224.83,-89.96 -335.45,-136.86 -110.67,-47.05 -221.29,-95.19 -330.17,-144.67 -108.93,-49.74 -217.81,-100.47 -324.95,-152.64 -108.88,-51.97 -216.01,-105.39 -323.15,-160.01 -105.4,-54.61 -210.74,-110.47 -316.13,-167.72 -105.4,-57.05 -209,-115.4 -312.6,-174.94 -103.65,-59.49 -207.26,-120.28 -309.12,-182.26 -101.86,-62.03 -201.97,-125.06 -302.09,-189.33 -100.12,-64.47 -200.23,-129.98 -298.56,-196.54 -98.37,-66.71 -196.7,-134.52 -293.33,-203.37 -96.58,-69 -193.17,-139.1 -288.01,-210.24 -94.84,-71.29 -189.68,-143.48 -282.77,-216.91 -93.1,-73.38 -186.15,-147.86 -277.5,-223.38 -91.31,-75.67 -182.66,-152.29 -272.23,-230.05 -89.56,-77.66 -177.38,-156.52 -265.2,-236.23 -87.82,-79.75 -175.64,-160.55 -261.67,-242.54 -84.33,-81.85 -170.36,-164.59 -252.9,-248.53 -84.34,-83.78 -166.88,-168.76 -249.43,-254.49 -82.54,-85.88 -163.29,-172.6 -242.35,-260.42 -80.8,-87.82 -158.07,-176.54 -237.07,-266.25 -77.32,-89.61 -152.84,-180.21 -230.11,-271.87 -75.52,-91.5 -149.25,-183.9 -223.03,-277.34 -73.79,-93.25 -145.77,-187.54 -216.02,-282.78 -72.04,-94.98 -142.29,-191.07 -210.79,-288 -68.45,-96.78 -136.96,-194.6 -203.72,-293.13 -66.71,-98.52 -131.73,-197.94 -196.7,-298.2 -63.22,-100.27 -126.45,-201.28 -187.93,-303.14 -63.23,-101.85 -122.92,-204.61 -182.67,-308.06 -59.69,-103.45 -117.64,-207.6 -175.59,-312.59 -56.2,-105.05 -112.41,-210.79 -166.87,-317.18 -54.42,-106.64 -108.88,-213.77 -161.56,-321.75 -50.93,-108.03 -101.86,-216.76 -151.04,-325.99 -50.93,-109.42 -98.38,-219.55 -145.77,-330.36 -45.7,-110.82 -91.36,-222.14 -137.01,-334.35 -43.91,-112.07 -86.08,-225.03 -128.2,-338.44 -42.16,-113.45 -82.54,-227.46 -121.17,-342.16 -38.63,-114.65 -75.53,-230.05 -112.42,-345.95 -35.14,-116.1 -70.24,-232.54 -103.65,-349.68 -33.35,-117.15 -64.97,-234.98 -96.58,-353.17 -29.87,-118.39 -59.69,-237.12 -86.03,-356.55 -28.13,-119.44 -54.46,-239.37 -79.06,-359.84 -24.59,-120.48 -49.18,-241.51 -70.24,-363.03 -21.06,-121.52 -42.17,-243.59 -61.49,-366.21 -17.57,-122.37 -35.1,-245.48 -50.93,-368.95 -15.78,-123.51 -29.87,-247.47 -42.11,-371.84 -14.09,-124.31 -24.6,-249.21 -33.41,-374.62 -10.5,-125.21 -17.57,-250.96 -24.59,-377.06 -7.02,-126.11 -10.51,-252.71 -14.04,-379.51 -3.49,-127 -5.28,-254.29 -5.28,-381.99 0,-127.7 1.79,-254.99 5.28,-381.99 3.53,-126.8 7.02,-253.45 14.04,-379.56 7.02,-126.1 14.09,-251.8 24.59,-377.06 8.81,-125.41 19.32,-250.26 33.41,-374.58 12.24,-124.36 26.33,-248.37 42.11,-371.83 15.83,-123.47 33.36,-246.58 50.93,-369 19.32,-122.57 40.43,-244.64 61.49,-366.16 21.06,-121.53 45.65,-242.55 70.24,-363.03 24.6,-120.48 50.93,-240.4 79.06,-359.84 26.34,-119.43 56.16,-238.36 86.03,-356.55 31.61,-118.34 63.23,-236.03 96.58,-353.17 33.41,-117.14 68.51,-233.78 103.65,-349.68 36.89,-115.9 73.79,-231.3 112.42,-346 38.63,-114.65 79.01,-228.81 121.17,-342.26 42.12,-113.46 84.29,-226.22 128.2,-338.29 45.65,-112.21 91.31,-223.73 137.01,-334.4 47.39,-110.82 94.84,-220.94 145.77,-330.31 49.18,-109.43 100.11,-218.16 151.04,-325.99 52.68,-108.03 107.14,-215.31 161.56,-321.75 54.46,-106.59 110.67,-212.33 166.87,-317.38 57.95,-104.84 115.9,-209.14 175.59,-312.59 59.75,-103.45 119.44,-206.21 182.67,-308.06 61.48,-101.66 124.71,-202.82 187.93,-303.14 64.97,-100.11 129.99,-199.48 196.7,-298.2 66.76,-98.53 135.27,-196.35 203.72,-293.13 68.5,-96.93 138.75,-192.82 210.79,-288 70.25,-95.19 142.23,-189.33 216.02,-282.78 73.78,-93.44 147.51,-185.79 223.03,-277.29 77.27,-91.51 152.79,-182.16 230.11,-271.87 79,-89.61 156.27,-178.48 237.07,-266.1 79.06,-87.82 159.81,-174.74 242.35,-260.47 82.55,-85.88 165.09,-170.71 249.43,-254.64 82.54,-83.79 168.57,-166.68 252.9,-248.53 86.03,-81.84 173.85,-162.79 261.67,-242.54 87.82,-79.71 175.64,-158.57 265.2,-236.18 89.57,-77.81 180.92,-154.38 272.23,-229.9 91.35,-75.72 184.4,-150.2 277.5,-223.58 93.09,-73.43 187.93,-145.62 282.77,-216.91 94.84,-71.14 191.43,-141.19 288.01,-210.24 96.63,-68.85 194.96,-136.61 293.33,-203.37 98.33,-66.56 198.44,-132.07 298.56,-196.49 100.12,-64.32 200.23,-127.35 302.09,-189.33 101.86,-62.03 205.47,-122.77 309.12,-182.31 103.6,-59.54 207.2,-117.84 312.6,-174.94 105.39,-57.25 210.73,-113.11 316.13,-167.72 107.14,-54.62 214.27,-108.04 323.15,-160.01 107.14,-52.12 216.02,-103.1 324.95,-152.59 108.88,-49.53 219.5,-97.67 330.17,-144.72 110.62,-46.9 223.03,-92.55 335.45,-136.81 112.41,-44.26 224.78,-87.32 337.19,-128.94 114.16,-41.62 228.31,-81.84 342.47,-120.62 115.95,-39.04 230.1,-76.57 346,-112.62 115.9,-36.14 233.59,-70.94 349.49,-104.29 117.69,-33.36 235.38,-65.37 353.03,-95.74 119.43,-30.57 237.12,-59.69 356.55,-87.27 119.39,-27.58 240.61,-53.77 360.05,-78.51 121.17,-24.74 242.35,-47.94 363.53,-69.75 121.17,-21.75 244.14,-42.11 365.32,-60.93 122.92,-18.77 245.88,-36 370.54,-51.78 122.97,-15.63 245.89,-29.87 370.6,-42.51 124.71,-12.65 249.37,-23.9 375.83,-33.36 124.71,-9.66 249.42,-17.57 375.87,-24.09 126.46,-6.33 252.91,-11.2 379.36,-14.39 128.2,-3.34 254.65,-4.93 382.85,-4.93z"/>
  <polygon fill="black" fill-rule="nonzero" points="8695.4,16933.23 8837.68,17039.67 8979.92,17146.11 9123.95,17252.55 9266.23,17358.98 9408.47,17465.42 9552.49,17571.81 9694.73,17678.25 9837.01,17784.69 9979.25,17891.12 10123.27,17997.36 10265.56,18103.8 10407.79,18210.24 10551.82,18316.68 10694.11,18423.07 10836.34,18529.51 10980.37,18635.94 11122.6,18742.38 11264.89,18848.82 11408.92,18955.26 11551.15,19061.65 11693.44,19168.08 11837.41,19274.37 11979.7,19380.76 12121.93,19487.2 12265.96,19593.64 12408.25,19700.08 12550.48,19806.51 12694.51,19912.95 12836.74,20019.34 12979.03,20125.78 13123.05,20232.22 13265.29,20338.46 13407.57,20444.9 13551.55,20551.33 13693.84,20657.77 13836.07,20764.21 13980.1,20870.65 14122.38,20977.04 14264.62,21083.47 14408.65,21189.91 14550.93,21296.35 14693.17,21402.79 14837.19,21509.03 14979.43,21615.47 15121.71,21721.9 15265.74,21828.34 15407.98,21934.73 15550.26,22041.17 15694.24,22147.61 15836.52,22254.05 15978.76,22360.48 16122.78,22466.92 16265.07,22573.31 16407.3,22679.6 16551.33,22786.04 16693.57,22892.43 16835.85,22998.86 16979.88,23105.3 17122.11,23211.74 17264.4,23318.18 17408.38,23424.62 17550.66,23531.01 17692.9,23637.44 17836.92,23743.88 17836.92,23531.01 17836.92,23318.18 17836.92,23105.3 17836.92,22892.43 17836.92,22679.6 17836.92,22466.92 17836.92,22254.05 17836.92,22041.17 17836.92,21828.34 17836.92,21615.47 17836.92,21402.79 17836.92,21189.91 17836.92,20977.04 17836.92,20764.21 17836.92,20551.33 17836.92,20338.46 17836.92,20125.78 17836.92,19912.95 17836.92,19700.08 17836.92,19487.2 17836.92,19274.37 17836.92,19061.65 17836.92,18848.82 17836.92,18635.94 17836.92,18423.07 17836.92,18210.24 17836.92,17997.36 17836.92,17784.69 17836.92,17571.81 17836.92,17358.98 17836.92,17146.11 17836.92,16933.23 17836.92,16720.55 17836.92,16507.73 17836.92,16294.85 17836.92,16081.97 17836.92,15869.15 17836.92,15656.42 17836.92,15443.59 17836.92,15230.72 17836.92,15017.84 17836.92,14805.01 17836.92,14592.14 17836.92,14379.46 17836.92,14166.58 17836.92,13953.76 17836.92,13740.88 17836.92,13528 17836.92,13315.33 17836.92,13102.45 17836.92,12889.62 17836.92,12676.75 17836.92,12463.87 17836.92,12251.04 17836.92,12038.37 17836.92,11825.49 17836.92,11612.61 17836.92,11399.79 17836.92,11186.91 17836.92,10974.23 17836.92,10761.36 17836.92,10548.53 17836.92,10335.65 17836.92,10122.78 17692.9,10229.22 17550.66,10335.65 17408.38,10442.09 17264.4,10548.53 17122.11,10654.92 16979.88,10761.36 16835.85,10867.8 16693.57,10974.23 16551.33,11080.67 16407.3,11186.91 16265.07,11293.35 16122.78,11399.79 15978.76,11506.18 15836.52,11612.61 15694.24,11719.05 15550.26,11825.49 15407.98,11931.93 15265.74,12038.37 15121.71,12144.76 14979.43,12251.04 14837.19,12357.48 14693.17,12463.87 14550.93,12570.31 14408.65,12676.75 14264.62,12783.19 14122.38,12889.62 13980.1,12996.06 13836.07,13102.45 13693.84,13208.89 13551.55,13315.33 13407.57,13421.57 13265.29,13528 13123.05,13634.44 12979.03,13740.88 12836.74,13847.32 12694.51,13953.76 12550.48,14060.15 12408.25,14166.58 12265.96,14273.02 12121.93,14379.46 11979.7,14485.9 11837.41,14592.14 11693.44,14698.58 11551.15,14805.01 11408.92,14911.45 11264.89,15017.84 11122.6,15124.28 10980.37,15230.72 10836.34,15337.15 10694.11,15443.59 10551.82,15550.03 10407.79,15656.42 10265.56,15762.71 10123.27,15869.15 9979.25,15975.54 9837.01,16081.97 9694.73,16188.41 9552.49,16294.85 9408.47,16401.29 9266.23,16507.73 9123.95,16614.11 8979.92,16720.55 8837.68,16826.84 "/>
  <polygon fill="black" fill-rule="nonzero" points="12699.78,19882.73 8695.4,19882.73 8695.4,13983.93 12699.78,13983.93 12699.78,14076.13 12699.78,14168.38 12699.78,14260.58 12699.78,14352.58 12699.78,14444.78 12699.78,14536.98 12699.78,14629.18 12699.78,14721.43 12699.78,14813.43 12699.78,14905.63 12699.78,14997.83 12699.78,15090.03 12699.78,15182.23 12699.78,15274.28 12699.78,15366.48 12699.78,15458.68 12699.78,15550.88 12699.78,15642.93 12699.78,15735.13 12699.78,15827.33 12699.78,15919.53 12699.78,16011.73 12699.78,16103.78 12699.78,16195.98 12699.78,16288.18 12699.78,16380.38 12699.78,16472.38 12699.78,16564.63 12699.78,16656.83 12699.78,16749.03 12699.78,16841.23 12699.78,16933.23 12699.78,17025.43 12699.78,17117.68 12699.78,17209.88 12699.78,17302.08 12699.78,17394.08 12699.78,17486.28 12699.78,17578.48 12699.78,17670.68 12699.78,17762.73 12699.78,17854.93 12699.78,17947.13 12699.78,18039.33 12699.78,18131.53 12699.78,18223.58 12699.78,18315.78 12699.78,18407.98 12699.78,18500.18 12699.78,18592.38 12699.78,18684.43 12699.78,18776.63 12699.78,18868.83 12699.78,18961.03 12699.78,19053.08 12699.78,19145.28 12699.78,19237.48 12699.78,19329.68 12699.78,19421.88 12699.78,19513.93 12699.78,19606.13 12699.78,19698.33 12699.78,19790.53 "/>
  <polygon fill="black" fill-rule="nonzero" points="22963.56,19862.72 21525.18,19862.72 21525.18,14003.99 22963.56,14003.99 22963.56,14095.49 22963.56,14186.95 22963.56,14278.65 22963.56,14370.15 22963.56,14461.65 22963.56,14553.16 22963.56,14644.81 22963.56,14736.31 22963.56,14827.81 22963.56,14919.32 22963.56,15011.02 22963.56,15102.52 22963.56,15194.03 22963.56,15285.53 22963.56,15377.03 22963.56,15468.68 22963.56,15560.19 22963.56,15651.69 22963.56,15743.19 22963.56,15834.9 22963.56,15926.4 22963.56,16017.9 22963.56,16109.4 22963.56,16201.06 22963.56,16292.56 22963.56,16384.06 22963.56,16475.57 22963.56,16567.07 22963.56,16658.72 22963.56,16750.22 22963.56,16841.73 22963.56,16933.23 22963.56,17024.93 22963.56,17116.44 22963.56,17207.94 22963.56,17299.44 22963.56,17391.09 22963.56,17482.6 22963.56,17574.1 22963.56,17665.6 22963.56,17757.11 22963.56,17848.81 22963.56,17940.31 22963.56,18031.81 22963.56,18123.32 22963.56,18214.97 22963.56,18306.47 22963.56,18397.98 22963.56,18489.48 22963.56,18581.13 22963.56,18672.63 22963.56,18764.14 22963.56,18855.64 22963.56,18947.14 22963.56,19038.85 22963.56,19130.35 22963.56,19221.85 22963.56,19313.35 22963.56,19405.01 22963.56,19496.51 22963.56,19588.01 22963.56,19679.52 22963.56,19771.22 "/>
  <polygon fill="black" fill-rule="nonzero" points="25173,17652.61 19313.99,17652.61 19313.99,16214.05 25173,16214.05 25173,16236.55 25173,16259.01 25173,16281.51 25173,16303.96 25173,16326.46 25173,16348.92 25173,16371.42 25173,16393.92 25173,16416.37 25173,16438.88 25173,16461.33 25173,16483.83 25173,16506.28 25173,16528.79 25173,16551.24 25173,16573.74 25173,16596.24 25173,16618.7 25173,16641.2 25173,16663.65 25173,16686.15 25173,16708.6 25173,16731.11 25173,16753.56 25173,16776.06 25173,16798.56 25173,16820.87 25173,16843.32 25173,16865.82 25173,16888.28 25173,16910.78 25173,16933.23 25173,16955.73 25173,16978.19 25173,17000.69 25173,17023.19 25173,17045.64 25173,17068.15 25173,17090.6 25173,17113.1 25173,17135.55 25173,17158.06 25173,17180.51 25173,17203.01 25173,17225.51 25173,17247.96 25173,17270.47 25173,17292.92 25173,17315.42 25173,17337.87 25173,17360.38 25173,17382.83 25173,17405.33 25173,17427.83 25173,17450.29 25173,17472.79 25173,17495.24 25173,17517.74 25173,17540.2 25173,17562.7 25173,17585.15 25173,17607.65 25173,17630.16 "/>
 </g>
</svg>
