<?xml version="1.0" encoding="UTF-8"?>
<!DOCTYPE svg PUBLIC "-//W3C//DTD SVG 1.1//EN" "http://www.w3.org/Graphics/SVG/1.1/DTD/svg11.dtd">
<!-- Creator: CorelDRAW 2026 -->
<svg xmlns="http://www.w3.org/2000/svg" xml:space="preserve" width="338.667mm" height="338.667mm" version="1.1" shape-rendering="geometricPrecision" text-rendering="geometricPrecision" image-rendering="optimizeQuality" fill-rule="evenodd" clip-rule="evenodd"
viewBox="0 0 33866.66 33866.66"
 xmlns:xlink="http://www.w3.org/1999/xlink"
 xmlns:xodm="http://www.corel.com/coreldraw/odm/2003">
 <g id="Camada_x0020_1">
  <metadata id="CorelCorpID_0Corel-Layer"/>
  <path fill="black" fill-rule="nonzero" d="M16933.33 -0.01c-145.76,0 -291.52,1.8 -437.29,5.28 -145.76,5.28 -289.78,10.56 -433.8,17.58 -143.97,7.02 -287.99,15.83 -432.01,26.33 -144.02,12.3 -286.25,24.6 -428.53,38.64 -142.22,14.08 -284.5,29.87 -424.99,49.18 -142.23,17.58 -282.76,36.89 -421.5,57.95 -140.49,21.11 -280.97,45.65 -419.72,70.25 -138.74,24.59 -277.48,50.93 -414.48,79.06 -138.75,28.08 -275.7,57.95 -412.7,89.56 -135.21,31.61 -272.21,64.97 -407.42,100.12 -135.26,35.09 -268.72,70.24 -403.93,108.88 -133.47,38.63 -266.93,77.26 -398.66,119.43 -133.46,40.37 -265.19,84.28 -395.17,128.19 -131.72,43.92 -261.65,89.57 -391.64,137.01 -129.93,47.4 -258.17,96.58 -386.36,147.51 -128.19,50.93 -256.37,101.86 -382.82,156.33 -126.45,52.67 -252.9,108.88 -377.6,165.09 -124.7,56.2 -249.41,114.15 -372.32,173.89 -122.91,59.7 -245.88,119.39 -367.05,182.61 -122.91,63.23 -244.13,126.46 -363.56,191.48 -119.37,64.96 -238.8,131.73 -356.49,200.18 -119.42,66.76 -235.32,137.01 -353,207.25 -115.9,70.25 -231.79,142.29 -345.94,216.02 -114.2,73.78 -228.35,149.3 -340.71,224.83 -112.41,75.52 -223.07,152.79 -333.69,231.85 -110.67,79 -221.28,158.06 -330.16,240.61 -108.92,80.75 -216.05,163.29 -323.13,247.62 -105.39,82.55 -210.78,168.58 -316.12,254.65 -105.39,86.08 -207.24,173.9 -310.89,261.67 -101.85,89.61 -203.71,179.18 -303.82,270.48 -100.11,91.36 -198.43,182.66 -296.8,277.5 -98.32,93.1 -194.9,187.94 -291.53,282.78 -94.83,96.58 -189.67,193.17 -282.71,291.54 -94.84,98.37 -186.19,196.7 -277.49,296.82 -91.35,100.11 -180.91,201.97 -270.46,303.83 -87.82,101.86 -175.64,205.46 -261.71,310.86 -86.02,103.65 -172.1,208.99 -254.64,316.13 -84.28,107.14 -166.82,214.28 -247.61,323.15 -80.8,108.88 -161.6,217.81 -240.6,328.43 -79.05,110.68 -156.32,223.04 -231.84,335.45 -75.52,112.42 -151.04,226.57 -224.76,340.73 -73.78,114.16 -145.77,230.11 -216.01,346 -70.29,117.65 -140.53,233.59 -207.24,353.03 -68.5,117.64 -135.26,237.07 -200.23,356.51 -64.96,119.43 -128.19,240.61 -191.41,361.78 -61.48,122.97 -122.96,245.89 -182.65,368.86 -59.69,122.92 -117.69,247.63 -173.89,372.34 -56.15,124.66 -110.62,251.11 -165.08,377.57 -52.67,126.45 -105.34,252.9 -156.26,381.15 -50.93,128.19 -100.12,258.13 -147.56,388.12 -47.39,129.94 -93.04,259.93 -136.95,389.91 -43.91,131.68 -87.82,263.41 -128.24,396.89 -42.11,131.73 -80.75,265.2 -119.43,398.67 -38.63,135.27 -73.72,268.74 -108.87,403.96 -35.1,135.26 -68.5,272.22 -100.11,407.49 -31.61,136.95 -61.43,273.96 -89.56,412.71 -28.08,137.01 -54.41,275.76 -79,414.51 -24.6,138.75 -47.45,279.24 -70.25,417.99 -21.11,140.49 -40.42,280.99 -57.99,423.27 -17.53,140.49 -35.1,282.73 -49.14,425.01 -14.09,142.24 -26.33,284.52 -38.63,428.55 -10.55,143.98 -19.32,286.26 -26.38,432.03 -7.02,144.03 -12.3,288.06 -17.53,433.83 -3.53,145.77 -5.28,291.54 -5.28,437.31 0,145.77 1.75,291.54 5.28,437.31 5.23,144.02 10.51,289.79 17.53,433.82 7.06,143.98 15.83,288 26.38,432.03 12.3,142.24 24.54,286.26 38.63,428.55 14.04,142.23 31.61,282.73 49.14,425.01 17.57,140.49 36.88,280.99 57.99,421.53 22.8,140.49 45.65,279.24 70.25,419.73 24.59,138.75 50.92,275.76 79,414.46 28.13,137.01 57.95,274.02 89.56,410.97 31.61,137.01 65.01,272.28 100.11,407.49 35.15,135.22 70.24,270.48 108.87,403.96 38.68,135.21 77.32,266.94 119.43,400.41 40.42,131.74 84.33,263.47 128.24,395.2 43.91,131.68 89.56,261.66 136.95,391.65 47.44,129.94 96.63,258.14 147.56,386.38 50.92,128.2 103.59,256.39 156.26,382.85 54.46,126.45 108.93,251.16 165.08,377.61 56.2,124.72 114.2,249.38 173.89,372.34 59.69,122.92 121.17,245.89 182.65,367.07 63.22,122.92 126.45,242.35 191.41,363.53 64.97,119.43 131.73,238.86 200.23,356.55 66.71,117.65 136.95,235.34 207.24,351.24 70.24,117.69 142.23,231.84 216.01,347.74 73.72,114.16 149.24,226.57 224.76,340.73 75.52,112.41 152.79,223.08 231.84,333.71 79,110.67 159.8,221.29 240.6,330.17 80.79,107.13 163.33,216.01 247.61,321.41 82.54,107.14 168.62,212.53 254.64,317.87 86.07,103.66 173.89,207.26 261.71,310.91 89.55,101.86 179.11,203.72 270.46,303.84 91.3,100.06 182.65,198.44 277.49,296.81 93.04,98.33 187.88,194.91 282.71,289.75 96.63,96.63 193.21,191.47 291.53,284.52 98.37,93.1 196.69,186.19 296.8,277.5 100.11,91.35 201.97,180.92 303.82,268.74 103.65,89.56 205.5,177.38 310.89,263.41 105.34,86.08 210.73,170.36 316.12,254.7 107.08,84.28 214.21,166.83 323.13,247.63 108.88,80.8 219.49,161.55 330.16,240.61 110.62,77.26 221.28,154.53 333.69,231.84 112.36,75.53 226.51,151 340.71,223.04 114.15,73.78 230.04,145.77 345.94,217.76 117.68,70.24 233.58,138.75 353,207.25 117.69,68.51 237.12,135.22 356.49,200.24 119.43,64.97 240.65,128.19 363.56,191.42 121.17,61.48 244.14,122.92 367.05,182.66 122.91,57.95 247.62,117.69 372.32,173.85 124.7,56.2 251.15,110.67 377.6,165.13 126.45,52.68 254.63,105.35 382.82,156.28 128.19,49.19 256.43,98.37 386.36,145.77 129.99,47.44 259.92,94.84 391.64,138.75 129.98,43.91 261.71,86.08 395.17,128.24 131.73,40.38 265.19,80.75 398.66,119.39 135.21,36.89 268.67,73.78 403.93,108.93 135.21,35.09 272.21,68.45 407.42,100.06 137,29.87 273.95,59.74 412.7,89.62 137,28.07 275.74,54.41 414.48,79 138.75,24.6 279.23,47.45 419.72,68.51 138.74,22.85 279.27,42.17 421.5,59.69 140.49,17.57 282.77,35.15 424.99,49.19 142.28,14.04 284.51,26.33 428.53,36.89 144.02,12.29 288.04,21.06 432.01,28.08 144.02,7.07 288.04,12.29 433.8,15.83 145.77,3.53 291.53,5.28 437.29,5.28 145.76,0 291.52,-1.75 437.29,-5.28 144.02,-3.54 289.78,-8.76 433.8,-15.83 144.02,-7.02 287.99,-15.79 432.01,-28.08 142.28,-10.56 286.3,-22.85 428.53,-36.89 142.27,-14.04 282.76,-31.62 424.99,-49.19 140.48,-17.52 281.02,-36.84 421.5,-59.69 140.49,-21.06 280.97,-43.91 419.72,-68.51 138.74,-24.59 277.48,-50.93 414.48,-79 138.75,-29.88 275.7,-59.75 410.96,-89.62 137,-31.61 273.95,-64.97 409.21,-100.06 135.21,-35.15 268.67,-72.04 402.14,-108.93 135.26,-38.64 268.72,-79.01 400.45,-119.39 133.46,-42.16 265.14,-84.33 395.12,-128.24 131.72,-43.91 261.65,-91.31 391.64,-138.75 129.98,-47.4 258.17,-96.58 386.36,-145.77 128.19,-50.93 256.42,-103.6 382.87,-156.28 126.45,-54.46 252.9,-108.93 377.55,-165.13 124.7,-56.16 249.41,-115.9 372.32,-173.85 122.96,-59.74 245.88,-121.18 367.05,-182.66 122.96,-63.23 242.39,-126.45 363.56,-191.42 119.42,-65.02 238.85,-131.73 356.49,-200.24 117.68,-68.5 235.32,-137.01 351.26,-207.25 117.64,-71.99 231.79,-143.98 347.73,-217.76 114.15,-72.04 228.3,-147.51 340.71,-223.04 112.36,-77.31 223.02,-154.58 333.64,-231.84 110.67,-79.06 221.28,-159.81 330.21,-240.61 108.87,-80.8 216,-163.35 323.13,-247.63 105.34,-84.34 210.73,-168.62 316.12,-254.7 103.6,-86.03 207.24,-173.85 310.84,-263.41 101.85,-87.82 203.71,-177.39 303.82,-268.74 100.11,-91.31 198.43,-184.4 296.8,-277.5 98.32,-93.05 194.95,-187.89 291.53,-284.52 94.83,-94.84 189.67,-191.42 282.76,-289.75 93.04,-98.37 186.14,-196.75 277.49,-296.81 91.3,-100.12 180.86,-201.98 268.67,-303.84 89.56,-103.65 177.38,-207.25 263.45,-310.91 86.02,-105.34 170.35,-210.73 254.64,-317.87 84.28,-105.4 166.82,-214.28 247.61,-321.41 80.8,-108.88 161.6,-219.5 240.6,-330.17 79.05,-110.63 156.32,-221.3 231.84,-333.71 75.52,-114.16 151.04,-226.57 224.81,-340.73 71.99,-115.9 143.97,-230.05 216.01,-347.74 70.24,-115.9 138.74,-233.59 207.19,-351.24 68.5,-117.69 135.26,-237.12 200.23,-356.55 64.96,-121.18 128.19,-240.61 191.41,-363.53 61.48,-121.18 122.96,-244.15 182.65,-367.07 59.74,-122.96 117.69,-247.62 173.89,-372.34 56.2,-126.45 110.62,-251.16 165.08,-377.61 52.67,-126.46 105.39,-254.65 156.31,-382.85 50.93,-128.24 98.32,-256.44 145.77,-386.38 49.13,-129.99 94.83,-259.97 138.74,-391.65 43.91,-131.73 87.82,-263.46 128.19,-395.2 42.16,-133.47 80.8,-265.2 119.43,-400.41 36.88,-133.48 73.72,-268.74 108.87,-403.96 35.15,-135.21 68.5,-270.48 100.11,-407.49 31.61,-136.95 61.48,-273.96 89.56,-410.97 28.08,-138.7 54.46,-275.71 79.05,-414.46 24.55,-140.49 47.4,-279.24 68.46,-419.73 22.85,-140.54 42.16,-281.04 59.73,-421.53 17.58,-142.28 35.1,-282.78 49.19,-425.01 14.04,-142.29 26.33,-286.31 36.84,-428.55 12.29,-144.03 21.11,-288.05 28.12,-432.03 7.02,-144.03 12.3,-289.8 15.79,-433.82 3.53,-145.77 7.02,-291.54 7.02,-437.31 0,-145.77 -3.49,-291.54 -7.02,-437.31 -3.49,-145.77 -8.77,-289.8 -15.79,-433.83 -7.01,-145.77 -15.83,-288.05 -28.12,-432.03 -10.51,-144.03 -22.8,-286.31 -36.84,-428.55 -14.09,-142.28 -31.61,-284.52 -49.19,-425.01 -17.57,-142.28 -36.88,-282.78 -59.73,-423.27 -21.06,-138.75 -43.91,-279.24 -68.46,-417.99 -24.59,-138.75 -50.97,-277.5 -79.05,-414.51 -28.08,-138.75 -57.95,-275.76 -89.56,-412.71 -31.61,-135.27 -64.96,-272.23 -100.11,-407.49 -35.15,-135.22 -71.99,-268.69 -108.87,-403.96 -38.63,-133.47 -77.27,-266.94 -119.43,-398.67 -40.37,-133.48 -84.28,-265.21 -128.19,-396.89 -43.91,-129.98 -89.61,-259.97 -138.74,-389.91 -47.45,-129.99 -94.84,-259.93 -145.77,-388.12 -50.92,-128.25 -103.64,-254.7 -156.31,-381.15 -54.46,-126.46 -108.88,-252.91 -165.08,-377.57 -56.2,-124.71 -114.15,-249.42 -173.89,-372.34 -59.69,-122.97 -121.17,-245.89 -182.65,-368.86 -63.22,-121.17 -126.45,-242.35 -191.41,-361.78 -64.97,-119.44 -131.73,-238.87 -200.23,-356.51 -68.45,-119.44 -136.95,-235.38 -207.19,-353.03 -72.04,-115.89 -144.02,-231.84 -216.01,-346 -73.77,-114.16 -149.29,-228.31 -224.81,-340.73 -75.52,-112.41 -152.79,-224.77 -231.84,-335.45 -79,-110.62 -159.8,-219.55 -240.6,-328.43 -80.79,-108.87 -163.33,-216.01 -247.61,-323.15 -84.29,-107.14 -168.62,-212.48 -254.64,-316.13 -86.07,-105.4 -173.89,-209 -263.45,-310.86 -87.81,-101.86 -177.37,-203.72 -268.67,-303.83 -91.35,-100.12 -184.45,-198.45 -277.49,-296.82 -93.09,-98.37 -187.93,-194.96 -282.76,-291.54 -96.58,-94.84 -193.21,-189.68 -291.53,-282.78 -98.37,-94.84 -196.69,-186.14 -296.8,-277.5 -100.11,-91.3 -201.97,-180.87 -303.82,-270.48 -103.6,-87.77 -207.24,-175.59 -310.84,-261.67 -105.39,-86.07 -210.78,-172.1 -316.12,-254.65 -107.13,-84.33 -214.26,-166.87 -323.13,-247.62 -108.93,-82.55 -219.54,-161.61 -330.21,-240.61 -110.62,-79.06 -221.28,-156.33 -333.64,-231.85 -112.41,-75.53 -226.56,-151.05 -340.71,-224.83 -115.94,-73.73 -230.09,-145.77 -347.73,-216.02 -115.94,-70.24 -233.58,-140.49 -351.26,-207.25 -117.64,-68.45 -237.07,-135.22 -356.49,-200.18 -121.17,-65.02 -240.6,-128.25 -363.56,-191.48 -121.17,-63.22 -244.09,-122.91 -367.05,-182.61 -122.91,-59.74 -247.62,-117.69 -372.32,-173.89 -124.65,-56.21 -251.1,-112.42 -377.55,-165.09 -126.45,-54.47 -254.68,-105.4 -382.87,-156.33 -128.19,-50.93 -256.38,-100.11 -386.36,-147.51 -129.99,-47.44 -259.92,-93.09 -391.64,-137.01 -129.98,-43.91 -261.66,-87.82 -395.12,-128.19 -131.73,-42.17 -265.19,-80.8 -400.45,-119.43 -133.47,-38.64 -266.93,-73.79 -402.14,-108.88 -135.26,-35.15 -272.21,-68.51 -409.21,-100.12 -135.26,-31.61 -272.21,-61.48 -410.96,-89.56 -137,-28.13 -275.74,-54.47 -414.48,-79.06 -138.75,-24.6 -279.23,-49.14 -419.72,-70.25 -140.48,-21.06 -281.02,-40.37 -421.5,-57.95 -142.23,-19.31 -282.72,-35.1 -424.99,-49.18 -142.23,-14.04 -286.25,-26.34 -428.53,-38.64 -144.02,-10.5 -287.99,-19.31 -432.01,-26.33 -144.02,-7.02 -289.78,-12.3 -433.8,-17.58 -145.77,-3.48 -291.53,-5.28 -437.29,-5.28l0 0 0 0 0 0 0 0 0 0 0 0 0 0 0 0 0 0 0 0 0 0 0 0 0 0 0 0 0 0 0 0 0 0 0 0 0 0 0 0 0 0 0 0 0 0 0 0 0 0 0 0 0 0 0 0 0 0 0 0 0 0 0 0 0 0 0 0 0 0 0 0 0 0 0 0 0 0 0 0 0 0 0 0 0 0 0 0 0 0 0 0 0 0 0 0 0 0 0 0 0 0 0 0 0 0 0 0 0 0 0 0 0 0 0 0 0 0 0 0 0 0 0 0 0 0 0 0zm0 2112.87c128.19,0 254.64,1.74 381.08,5.23 128.24,3.53 254.69,7.07 381.14,14.09 124.65,7.02 251.1,14.04 375.8,24.59 126.45,8.76 251.15,19.32 374.07,33.36 124.7,12.29 249.41,26.33 372.32,42.11 124.7,15.83 247.61,33.41 368.83,52.73 122.92,17.57 245.83,38.63 367.05,59.69 121.17,21.11 242.34,45.65 361.77,70.24 121.17,24.6 240.59,50.93 360.02,77.32 119.43,28.08 238.86,57.95 356.49,87.77 119.43,31.61 237.12,63.23 353.01,96.63 117.68,33.36 235.32,66.71 351.26,103.6 115.9,36.89 230.05,73.79 345.94,112.42 114.15,38.63 228.3,79.01 340.71,121.17 114.15,42.17 226.56,84.29 338.97,128.2 112.4,45.7 223.02,91.35 335.43,137.01 110.62,47.44 219.54,94.84 330.16,145.77 108.87,49.18 217.74,100.11 324.87,151.04 108.93,52.68 216.06,107.14 321.4,161.61 107.13,54.41 212.52,110.62 317.91,166.82 105.34,57.95 208.98,115.9 312.58,175.64 103.6,59.7 205.45,119.44 307.36,180.87 101.85,63.23 203.71,126.46 303.82,189.68 100.06,65.02 200.17,129.99 298.54,196.7 98.32,66.76 196.69,135.27 293.27,203.77 96.63,68.45 193.2,138.75 288.04,210.74 94.83,70.25 189.67,142.23 282.76,216.02 93.05,73.78 186.14,147.51 277.44,223.03 91.35,77.32 180.91,152.84 270.47,230.11 89.55,79 179.16,156.32 266.93,237.07 87.81,79.06 173.89,159.86 259.96,242.4 86.02,82.55 170.31,165.09 254.64,247.63 84.28,84.29 166.82,170.37 249.36,254.65 80.79,86.08 161.59,173.9 242.39,261.67 79,87.82 158.06,175.64 235.32,265.2 79,89.62 154.52,180.92 230.04,272.23 75.52,91.35 151.04,184.45 224.82,277.5 71.98,93.09 144.02,187.93 216,282.77 71.99,94.84 140.49,191.43 210.73,288.06 68.5,96.58 137,194.91 203.71,293.28 65.02,98.38 131.72,198.44 194.95,298.56 65.01,100.12 128.24,200.23 189.67,302.09 63.22,101.86 122.96,205.51 182.65,309.12 59.74,103.6 117.68,207.25 175.63,312.6 56.21,103.65 112.41,210.78 166.82,316.13 54.46,107.14 108.92,214.27 159.85,321.41 52.67,108.88 103.6,217.81 152.78,326.69 49.19,108.88 98.32,219.55 144.02,330.17 47.4,110.67 93.05,223.03 136.95,335.45 45.66,110.67 87.82,224.83 129.99,337.19 42.11,114.21 80.79,228.36 121.17,342.52 38.63,114.16 75.52,230.05 112.4,345.95 35.1,115.95 70.25,233.59 103.6,349.54 33.36,117.64 64.97,235.33 96.58,352.98 29.87,119.43 59.74,237.12 86.07,356.55 28.08,119.44 54.46,240.61 79.06,360.05 24.54,121.17 47.39,242.35 70.24,363.53 21.06,121.17 42.12,244.14 59.69,365.32 19.31,122.96 36.89,245.88 52.67,368.8 15.83,124.71 29.87,247.68 42.16,372.34 12.3,124.71 24.6,249.42 33.36,374.08 10.55,126.46 17.57,251.17 24.59,377.62 5.28,126.46 10.55,252.91 14.04,379.36 3.53,128.2 5.28,254.65 5.28,382.9 0,126.45 -1.75,254.65 -5.28,381.1 -3.49,128.19 -8.76,254.65 -14.04,379.36 -7.02,126.45 -14.04,252.9 -24.59,377.62 -8.76,124.66 -21.06,251.11 -33.36,374.08 -12.29,124.71 -26.33,249.37 -42.16,372.34 -15.78,124.71 -33.36,247.63 -52.67,368.8 -17.57,122.97 -38.63,244.15 -59.69,367.07 -22.85,121.17 -45.7,242.4 -70.24,361.78 -24.6,121.23 -50.98,240.61 -79.06,360.05 -26.33,119.43 -56.2,238.86 -86.07,356.55 -31.61,119.44 -63.22,237.08 -96.58,353.03 -33.35,117.64 -68.5,233.59 -103.6,349.49 -36.88,115.9 -73.77,231.84 -112.4,347.74 -40.38,114.16 -79.06,228.32 -121.17,340.73 -42.17,114.16 -84.33,226.57 -129.99,338.93 -43.9,112.42 -89.55,223.09 -136.95,333.71 -45.7,110.67 -94.83,221.29 -144.02,330.17 -49.18,110.68 -100.11,219.55 -152.78,326.69 -50.93,108.88 -105.39,216.02 -159.85,321.41 -54.41,107.14 -110.61,212.48 -166.82,317.88 -57.95,105.39 -115.89,208.99 -175.63,312.65 -59.69,103.6 -119.43,205.46 -182.65,307.32 -61.43,101.86 -124.66,203.72 -189.67,303.83 -63.23,100.12 -129.93,200.24 -194.95,298.56 -66.71,98.38 -135.21,196.75 -203.71,293.33 -70.24,96.59 -138.74,191.43 -210.73,288.01 -71.98,94.84 -144.02,189.68 -216,282.78 -73.78,93.09 -149.3,184.4 -224.82,277.5 -75.52,91.3 -151.04,180.91 -230.04,270.48 -77.26,89.56 -156.32,179.12 -235.32,266.94 -80.8,87.82 -161.6,173.9 -242.39,259.93 -82.54,86.08 -165.08,170.36 -249.36,254.65 -84.33,84.33 -168.62,166.88 -254.64,249.42 -86.07,80.8 -172.15,161.55 -259.96,242.35 -87.77,79.06 -177.38,158.07 -266.93,235.33 -89.56,79.06 -179.12,154.59 -270.47,230.11 -91.3,75.52 -184.39,151.05 -277.44,223.03 -93.09,73.79 -187.93,145.77 -282.76,217.81 -94.84,70.25 -191.41,140.5 -288.04,210.74 -96.58,68.51 -194.95,135.22 -293.27,201.98 -98.37,66.71 -198.48,133.47 -298.54,196.7 -100.11,64.97 -201.97,128.19 -303.82,189.68 -101.91,61.48 -203.76,122.92 -307.36,182.66 -103.6,59.69 -207.24,117.64 -312.58,175.64 -105.39,56.16 -210.78,112.36 -317.91,166.83 -105.34,54.46 -212.47,107.13 -321.4,159.81 -107.13,52.72 -216,103.65 -324.87,152.79 -110.62,49.18 -219.54,98.37 -330.16,144.02 -112.41,47.45 -223.03,93.1 -335.43,137.01 -112.41,45.65 -224.82,87.82 -338.97,129.94 -112.41,40.42 -226.56,80.8 -340.71,119.43 -115.89,40.43 -230.04,77.32 -345.94,114.16 -115.94,35.15 -233.58,70.24 -351.26,103.65 -115.89,33.36 -233.58,64.97 -353.01,94.84 -117.63,31.61 -237.06,59.69 -356.49,87.82 -119.43,28.08 -238.85,54.42 -360.02,79.01 -119.43,24.59 -240.6,47.44 -361.77,70.25 -121.22,21.1 -244.13,40.42 -367.05,59.74 -121.22,19.31 -244.13,36.89 -368.83,52.67 -122.91,15.83 -247.62,29.87 -372.32,42.17 -122.92,12.29 -247.62,24.59 -374.07,33.35 -124.7,8.76 -251.15,17.58 -375.8,24.6 -126.45,5.27 -252.9,10.55 -381.14,14.04 -126.44,3.53 -252.89,5.27 -381.08,5.27 -128.19,0 -254.64,-1.74 -382.83,-5.27 -126.44,-3.49 -252.89,-8.77 -379.34,-14.04 -126.44,-7.02 -251.15,-15.84 -375.85,-24.6 -126.45,-8.76 -251.15,-21.06 -375.81,-33.35 -124.7,-12.3 -247.62,-26.34 -370.58,-42.17 -124.7,-15.78 -247.61,-33.36 -370.58,-52.67 -121.17,-19.32 -244.08,-38.64 -365.25,-59.74 -121.17,-22.81 -242.39,-45.66 -363.56,-70.25 -119.43,-24.59 -240.6,-50.93 -360.02,-79.01 -119.43,-28.13 -237.07,-56.21 -356.5,-87.82 -117.68,-29.87 -235.32,-61.48 -353,-94.84 -115.89,-33.41 -233.58,-68.5 -349.47,-103.65 -115.95,-36.84 -230.1,-73.73 -345.99,-114.16 -114.15,-38.63 -228.3,-79.01 -342.45,-119.43 -112.41,-42.12 -224.82,-84.29 -337.18,-129.94 -112.4,-43.91 -224.81,-89.56 -335.48,-137.01 -110.62,-45.65 -219.49,-94.84 -330.16,-144.02 -108.87,-49.14 -217.74,-100.07 -324.87,-152.79 -108.88,-52.68 -216.01,-105.35 -323.14,-159.81 -105.39,-54.47 -210.78,-110.67 -316.12,-166.83 -105.39,-58 -208.98,-115.95 -312.63,-175.64 -103.6,-59.74 -207.19,-121.18 -309.1,-182.66 -101.85,-61.49 -201.97,-124.71 -302.03,-189.68 -100.11,-63.23 -200.22,-129.99 -298.59,-196.7 -98.32,-66.76 -196.69,-133.47 -293.27,-201.98 -96.58,-70.24 -193.2,-140.49 -288.04,-210.74 -94.83,-72.04 -189.67,-144.02 -282.71,-217.81 -93.1,-71.98 -186.19,-147.51 -277.49,-223.03 -91.35,-75.52 -182.65,-151.05 -272.21,-230.11 -89.56,-77.26 -177.37,-156.27 -265.19,-235.33 -87.81,-80.8 -175.63,-161.55 -259.91,-242.35 -86.07,-82.54 -172.1,-165.09 -254.69,-249.42 -84.28,-84.29 -166.82,-168.57 -249.36,-254.65 -82.54,-86.03 -163.33,-172.11 -242.34,-259.93 -79.05,-87.82 -158.06,-177.38 -237.11,-266.94 -77.26,-89.57 -152.78,-179.18 -228.3,-270.48 -75.52,-93.1 -151.04,-184.41 -224.77,-277.5 -72.03,-93.1 -145.81,-187.94 -216.05,-282.78 -71.99,-96.58 -142.23,-191.42 -210.73,-288.01 -68.5,-96.58 -137,-194.95 -203.71,-293.33 -66.76,-98.32 -131.72,-198.44 -196.69,-298.56 -63.22,-100.11 -126.45,-201.97 -187.93,-303.83 -63.22,-101.86 -122.91,-203.72 -182.65,-307.32 -59.69,-103.66 -117.68,-207.26 -175.63,-312.65 -56.21,-105.4 -112.36,-210.74 -166.82,-317.88 -54.46,-105.39 -108.88,-212.53 -159.8,-321.41 -52.72,-107.14 -103.65,-216.01 -152.83,-326.69 -49.14,-108.88 -98.32,-219.5 -145.77,-330.17 -45.65,-110.62 -91.3,-221.29 -136.95,-333.71 -43.91,-112.36 -86.07,-224.77 -128.24,-338.93 -42.11,-112.41 -82.54,-226.57 -121.17,-340.73 -38.63,-115.9 -75.52,-231.84 -112.35,-347.74 -35.15,-115.9 -70.3,-231.85 -103.65,-349.49 -33.36,-115.95 -64.97,-233.59 -96.58,-353.03 -29.87,-117.69 -59.74,-237.12 -86.07,-356.55 -28.08,-119.44 -54.41,-238.82 -79.01,-360.05 -24.59,-119.38 -47.44,-240.61 -70.24,-361.78 -21.11,-122.92 -42.17,-244.1 -59.74,-367.07 -19.31,-121.17 -36.89,-244.09 -52.67,-368.8 -15.83,-122.97 -29.87,-247.63 -42.16,-372.34 -12.3,-122.97 -24.6,-249.42 -33.36,-374.08 -10.55,-124.72 -17.57,-251.17 -24.59,-377.62 -7.02,-124.71 -10.55,-251.17 -14.04,-379.36 -3.53,-126.45 -5.28,-254.65 -5.28,-381.1 0,-128.25 1.75,-254.7 5.28,-382.9 3.49,-126.45 7.02,-252.9 14.04,-379.36 7.02,-126.45 14.04,-251.16 24.59,-377.62 8.76,-124.66 21.06,-249.37 33.36,-374.08 12.29,-124.66 26.33,-247.63 42.16,-372.34 15.78,-122.92 33.36,-245.84 52.67,-368.8 17.57,-121.18 38.63,-244.15 59.74,-365.32 22.8,-121.18 45.65,-242.36 70.24,-363.53 24.6,-119.44 50.93,-240.61 79.01,-360.05 26.33,-119.43 56.2,-237.12 86.07,-356.55 31.61,-117.65 63.22,-235.34 96.58,-352.98 33.35,-115.95 68.5,-233.59 103.65,-349.54 36.83,-115.9 73.72,-231.79 112.35,-345.95 38.63,-114.16 79.06,-228.31 121.17,-342.52 42.17,-112.36 84.33,-226.52 128.24,-337.19 45.65,-112.42 91.3,-224.78 136.95,-335.45 47.45,-110.62 96.63,-221.29 145.77,-330.17 49.18,-108.88 100.11,-217.81 152.83,-326.69 50.92,-107.14 105.34,-214.27 159.8,-321.41 54.46,-105.35 110.61,-212.48 166.82,-316.13 57.95,-105.35 115.94,-209 175.63,-312.6 59.74,-103.61 119.43,-207.26 182.65,-309.12 61.48,-101.86 124.71,-201.97 187.93,-302.09 64.97,-100.12 129.93,-200.18 196.69,-298.56 66.71,-98.37 135.21,-196.7 203.71,-293.28 68.5,-96.63 138.74,-193.22 210.73,-288.06 70.24,-94.84 144.02,-189.68 216.05,-282.77 73.73,-93.05 149.25,-186.15 224.77,-277.5 75.52,-91.31 151.04,-182.61 228.3,-272.23 79.05,-89.56 158.06,-177.38 237.11,-265.2 79.01,-87.77 159.8,-175.59 242.34,-261.67 82.54,-84.28 165.08,-170.36 249.36,-254.65 82.59,-82.54 168.62,-165.08 254.69,-247.63 84.28,-82.54 172.1,-163.34 259.91,-242.4 87.82,-80.75 175.63,-158.07 265.19,-237.07 89.56,-77.27 180.86,-152.79 272.21,-230.11 91.3,-75.52 184.39,-149.25 277.49,-223.03 93.04,-73.79 187.88,-145.77 282.71,-216.02 94.84,-71.99 191.46,-142.29 288.04,-210.74 96.58,-68.5 194.95,-137.01 293.27,-203.77 98.37,-66.71 198.48,-131.68 298.59,-196.7 100.06,-63.22 200.18,-126.45 302.03,-189.68 101.91,-61.43 205.5,-121.17 309.1,-180.87 103.65,-59.74 207.24,-117.69 312.63,-175.64 105.34,-56.2 210.73,-112.41 316.12,-166.82 107.13,-54.47 214.26,-108.93 323.14,-161.61 107.13,-50.93 216,-101.86 324.87,-151.04 110.67,-50.93 219.54,-98.33 330.16,-145.77 110.67,-45.66 223.08,-91.31 335.48,-137.01 112.36,-43.91 224.77,-86.03 337.18,-128.2 114.15,-42.16 228.3,-82.54 342.45,-121.17 115.89,-38.63 230.04,-75.53 345.99,-112.42 115.89,-36.89 233.58,-70.24 349.47,-103.6 117.68,-33.4 235.32,-65.02 353,-96.63 119.43,-29.82 237.07,-59.69 356.5,-87.77 119.42,-26.39 240.59,-52.72 360.02,-77.32 121.17,-24.59 242.39,-49.13 363.56,-70.24 121.17,-21.06 244.08,-42.12 365.25,-59.69 122.97,-19.32 245.88,-36.9 370.58,-52.73 122.96,-15.78 245.88,-29.82 370.58,-42.11 124.66,-14.04 249.36,-24.6 375.81,-33.36 124.7,-10.55 249.41,-17.57 375.85,-24.59 126.45,-7.02 252.9,-10.56 379.34,-14.09 128.19,-3.49 254.64,-5.23 382.83,-5.23z"/>
  <polygon fill="black" fill-rule="nonzero" points="20623.14,16934.23 20472.1,16841.13 20322.8,16749.82 20173.56,16656.73 20024.26,16565.37 19874.96,16474.07 19723.97,16380.97 19574.68,16289.66 19425.38,16196.57 19276.13,16105.26 19125.09,16012.16 18975.8,15920.81 18826.55,15827.76 18677.25,15736.41 18527.96,15643.36 18376.92,15552 18227.67,15458.91 18078.37,15367.6 17929.12,15276.29 17779.83,15183.2 17628.79,15091.84 17479.54,14998.79 17330.24,14907.44 17180.95,14814.34 17031.7,14723.04 16880.66,14629.94 16731.36,14538.63 16582.12,14447.28 16432.82,14354.23 16281.78,14262.88 16132.48,14169.83 15983.24,14078.47 15833.94,13985.38 15684.69,13894.07 15533.65,13800.97 15384.36,13709.67 15235.11,13616.57 15085.81,13525.27 14936.51,13432.17 14785.47,13340.81 14636.23,13247.77 14486.93,13156.41 14337.68,13065.11 14186.64,12972.01 14037.35,12880.7 13888.05,12787.6 13738.8,12696.25 13589.51,12603.2 13438.47,12511.85 13289.22,12418.8 13139.92,12327.44 12990.67,12234.35 12841.38,12143.04 12690.34,12049.94 12541.04,11958.64 12391.79,11867.28 12242.5,11774.24 12091.46,11682.88 11942.21,11589.78 11792.91,11498.48 11643.62,11405.38 11494.37,11314.08 11343.33,11220.98 11194.03,11129.67 11044.79,11036.58 11044.79,11220.98 11044.79,11405.38 11044.79,11589.78 11044.79,11774.24 11044.79,11958.64 11044.79,12143.04 11044.79,12327.44 11044.79,12511.85 11044.79,12696.25 11044.79,12880.7 11044.79,13063.36 11044.79,13247.77 11044.79,13432.17 11044.79,13616.57 11044.79,13800.97 11044.79,13985.38 11044.79,14169.83 11044.79,14354.23 11044.79,14538.63 11044.79,14723.04 11044.79,14907.44 11044.79,15091.84 11044.79,15276.29 11044.79,15458.91 11044.79,15643.36 11044.79,15827.76 11044.79,16012.16 11044.79,16196.57 11044.79,16380.97 11044.79,16565.37 11044.79,16749.82 11044.79,16934.23 11044.79,17118.63 11044.79,17303.03 11044.79,17487.43 11044.79,17670.09 11044.79,17854.5 11044.79,18038.9 11044.79,18223.35 11044.79,18407.75 11044.79,18592.16 11044.79,18776.56 11044.79,18960.96 11044.79,19145.37 11044.79,19329.82 11044.79,19514.22 11044.79,19698.62 11044.79,19883.03 11044.79,20067.43 11044.79,20250.09 11044.79,20434.49 11044.79,20618.94 11044.79,20803.35 11044.79,20987.75 11044.79,21172.15 11044.79,21356.56 11044.79,21540.96 11044.79,21725.41 11044.79,21909.81 11044.79,22094.22 11044.79,22276.88 11044.79,22461.28 11044.79,22645.68 11044.79,22830.08 11194.03,22738.78 11343.33,22645.68 11494.37,22554.38 11643.62,22461.28 11792.91,22369.92 11942.21,22276.88 12091.46,22185.52 12242.5,22094.22 12391.79,22001.12 12541.04,21909.81 12690.34,21816.72 12841.38,21725.41 12990.67,21632.31 13139.92,21540.96 13289.22,21447.91 13438.47,21356.56 13589.51,21263.46 13738.8,21172.15 13888.05,21080.85 14037.35,20987.75 14186.64,20896.39 14337.68,20803.35 14486.93,20711.99 14636.23,20618.94 14785.47,20527.59 14936.51,20434.49 15085.81,20343.19 15235.11,20250.09 15384.36,20158.78 15533.65,20067.43 15684.69,19974.38 15833.94,19883.03 15983.24,19789.93 16132.48,19698.62 16281.78,19605.53 16432.82,19514.22 16582.12,19421.12 16731.36,19329.82 16880.66,19236.72 17031.7,19145.37 17180.95,19052.32 17330.24,18960.96 17479.54,18867.92 17628.79,18776.56 17779.83,18685.26 17929.12,18592.16 18078.37,18500.85 18227.67,18407.75 18376.92,18316.4 18527.96,18223.35 18677.25,18132 18826.55,18038.9 18975.8,17947.59 19125.09,17854.5 19276.13,17763.19 19425.38,17671.84 19574.68,17578.79 19723.97,17487.43 19874.96,17394.39 20024.26,17303.03 20173.56,17209.93 20322.8,17118.63 20472.1,17025.53 "/>
  <polygon fill="black" fill-rule="nonzero" points="22821.92,22830.08 19802.98,22830.08 19802.98,11036.58 22821.92,11036.58 22821.92,11220.98 22821.92,11405.38 22821.92,11589.78 22821.92,11774.24 22821.92,11958.64 22821.92,12143.04 22821.92,12327.44 22821.92,12511.85 22821.92,12696.25 22821.92,12880.7 22821.92,13063.36 22821.92,13247.77 22821.92,13432.17 22821.92,13616.57 22821.92,13800.97 22821.92,13985.38 22821.92,14169.83 22821.92,14354.23 22821.92,14538.63 22821.92,14723.04 22821.92,14907.44 22821.92,15091.84 22821.92,15276.29 22821.92,15458.91 22821.92,15643.36 22821.92,15827.76 22821.92,16012.16 22821.92,16196.57 22821.92,16380.97 22821.92,16565.37 22821.92,16749.82 22821.92,16934.23 22821.92,17118.63 22821.92,17303.03 22821.92,17487.43 22821.92,17670.09 22821.92,17854.5 22821.92,18038.9 22821.92,18223.35 22821.92,18407.75 22821.92,18592.16 22821.92,18776.56 22821.92,18960.96 22821.92,19145.37 22821.92,19329.82 22821.92,19514.22 22821.92,19698.62 22821.92,19883.03 22821.92,20067.43 22821.92,20250.09 22821.92,20434.49 22821.92,20618.94 22821.92,20803.35 22821.92,20987.75 22821.92,21172.15 22821.92,21356.56 22821.92,21540.96 22821.92,21725.41 22821.92,21909.81 22821.92,22094.22 22821.92,22276.88 22821.92,22461.28 22821.92,22645.68 "/>
 </g>
</svg>
