<?xml version="1.0" encoding="UTF-8"?>
<!DOCTYPE svg PUBLIC "-//W3C//DTD SVG 1.1//EN" "http://www.w3.org/Graphics/SVG/1.1/DTD/svg11.dtd">
<!-- Creator: CorelDRAW 2026 -->
<svg xmlns="http://www.w3.org/2000/svg" xml:space="preserve" width="338.667mm" height="338.667mm" version="1.1" shape-rendering="geometricPrecision" text-rendering="geometricPrecision" image-rendering="optimizeQuality" fill-rule="evenodd" clip-rule="evenodd"
viewBox="0 0 33866.66 33866.66"
 xmlns:xlink="http://www.w3.org/1999/xlink"
 xmlns:xodm="http://www.corel.com/coreldraw/odm/2003">
 <g id="Camada_x0020_1">
  <metadata id="CorelCorpID_0Corel-Layer"/>
  <path fill="black" fill-rule="nonzero" d="M16933.33 -0.01c-145.76,0 -291.52,1.95 -437.29,5.63 -145.76,3.68 -289.78,9.11 -433.8,16.53 -143.97,7.17 -287.99,16.33 -432.01,27.18 -144.02,10.9 -286.25,23.75 -428.53,38.14 -142.22,14.38 -284.5,30.71 -424.99,48.63 -142.23,17.93 -282.76,37.59 -421.5,59 -140.49,21.46 -280.97,44.65 -419.72,69.4 -138.74,24.74 -277.48,51.27 -414.48,79.55 -138.75,28.28 -275.7,58.15 -412.7,89.56 -135.21,31.62 -272.21,64.62 -407.42,99.57 -135.26,34.8 -268.72,71.14 -403.93,109.28 -133.47,37.93 -266.93,77.61 -398.66,118.88 -133.46,41.27 -265.19,83.94 -395.17,128.39 -131.72,44.41 -261.65,90.26 -391.64,137.86 -129.93,47.44 -258.17,96.43 -386.36,147.01 -128.19,50.58 -256.37,102.55 -382.82,156.12 -126.45,53.57 -252.9,108.53 -377.6,165.09 -124.7,56.55 -249.41,114.5 -372.32,174.04 -122.91,59.39 -245.88,120.33 -367.05,182.66 -122.91,62.33 -244.13,126.1 -363.56,191.27 -119.37,65.17 -238.8,131.73 -356.49,199.68 -119.42,67.96 -235.32,137.36 -353,208.1 -115.9,70.64 -231.79,142.78 -345.94,216.21 -114.2,73.43 -228.35,148.06 -340.71,224.28 -112.41,76.07 -223.07,153.33 -333.69,232.19 -110.67,78.66 -221.28,158.56 -330.16,239.91 -108.92,81.15 -216.05,163.69 -323.13,247.43 -105.39,83.98 -210.78,168.96 -316.12,255.19 -105.39,86.22 -207.24,173.7 -310.89,262.56 -101.85,88.72 -203.71,178.62 -303.82,269.58 -100.11,91.15 -198.43,183.55 -296.8,277 -98.32,93.39 -194.9,188.08 -291.53,283.82 -94.83,95.68 -189.67,192.66 -282.71,290.64 -94.84,98.02 -186.19,197.24 -277.49,297.36 -91.35,100.26 -180.91,201.57 -270.46,303.98 -87.82,102.4 -175.64,206 -261.71,310.5 -86.02,104.5 -172.1,210.04 -254.64,316.68 -84.28,106.78 -166.82,214.27 -247.61,322.95 -80.8,108.72 -161.6,218.3 -240.6,328.97 -79.05,110.62 -156.32,222.33 -231.84,334.9 -75.52,112.76 -151.04,226.21 -224.76,340.72 -73.78,114.5 -145.77,230.1 -216.01,346.34 -70.29,116.45 -140.53,233.79 -207.24,351.98 -68.5,118.18 -135.26,237.27 -200.23,357.2 -64.96,119.98 -128.19,240.8 -191.41,362.52 -61.48,121.68 -122.96,244.29 -182.65,367.56 -59.69,123.46 -117.69,247.63 -173.89,372.68 -56.15,125.06 -110.62,250.82 -165.08,377.42 -52.67,126.65 -105.34,254.14 -156.26,382.19 -50.93,128.19 -100.12,257.08 -147.56,386.92 -47.39,129.59 -93.04,260.07 -136.95,391.1 -43.91,131.18 -87.82,263.06 -128.24,395.69 -42.11,132.42 -80.75,265.69 -119.43,399.71 -38.63,133.82 -73.72,268.54 -108.87,403.8 -35.1,135.21 -68.5,271.12 -100.11,407.63 -31.61,136.61 -61.43,273.76 -89.56,411.67 -28.08,137.65 -54.41,276.05 -79,415.14 -24.6,138.95 -47.45,278.55 -70.25,418.74 -21.11,140.14 -40.42,280.78 -57.99,422.02 -17.53,141.18 -35.1,283.12 -49.14,425.35 -14.09,142.28 -26.33,285.21 -38.63,428.54 -10.55,143.28 -19.32,287.16 -26.38,431.33 -7.02,144.37 -12.3,289.1 -17.53,434.32 -3.53,145.27 -5.28,291.03 -5.28,437.15 0,146.12 1.75,291.88 5.28,437.15 5.23,145.02 10.51,289.95 17.53,434.12 7.06,144.37 15.83,288.2 26.38,431.53 12.3,143.33 24.54,286.26 38.63,428.54 14.04,142.23 31.61,284.17 49.14,425.35 17.57,141.19 36.88,281.88 57.99,422.02 22.8,140.14 45.65,279.79 70.25,418.69 24.59,138.94 50.92,277.34 79,415.19 28.13,137.86 57.95,275.06 89.56,411.52 31.61,136.61 65.01,272.57 100.11,407.78 35.15,135.26 70.24,269.78 108.87,403.8 38.68,133.82 77.32,267.09 119.43,399.71 40.42,132.58 84.33,264.31 128.24,395.49 43.91,131.23 89.56,261.51 136.95,391.3 47.44,129.64 96.63,258.53 147.56,386.72 50.92,128.25 103.59,255.54 156.26,382.19 54.46,126.6 108.93,252.56 165.08,377.42 56.2,125.05 114.2,249.36 173.89,372.68 59.69,123.46 121.17,245.88 182.65,367.61 63.22,121.67 126.45,242.49 191.41,362.47 64.97,119.93 131.73,239.02 200.23,357.2 66.71,118.24 136.95,235.53 207.24,351.98 70.24,116.29 142.23,231.84 216.01,346.34 73.72,114.51 149.24,228.11 224.76,340.72 75.52,112.57 152.79,224.28 231.84,334.9 79,110.67 159.8,220.25 240.6,328.97 80.79,108.68 163.33,216.37 247.61,322.95 82.54,106.64 168.62,212.18 254.64,316.68 86.07,104.5 173.89,208.1 261.71,310.5 89.55,102.41 179.11,203.72 270.46,304.03 91.3,100.07 182.65,199.34 277.49,297.31 93.04,98.03 187.88,194.96 282.71,290.69 96.63,95.69 193.21,190.38 291.53,283.82 98.37,93.4 196.69,185.8 296.8,276.95 100.11,90.96 201.97,180.86 303.82,269.58 103.65,88.72 205.5,176.34 310.89,262.56 105.34,86.23 210.73,171.26 316.12,254.99 107.08,83.99 214.21,166.53 323.13,247.68 108.88,81.3 219.49,161.2 330.16,239.86 110.62,78.86 221.28,156.17 333.69,232.19 112.36,76.22 226.51,150.9 340.71,224.28 114.15,73.43 230.04,145.62 345.94,216.21 117.68,70.79 233.58,140.14 353,208.1 117.69,68 237.12,134.56 356.49,199.68 119.43,65.17 240.65,128.94 363.56,191.27 121.17,62.33 244.14,123.32 367.05,182.66 122.91,59.54 247.62,117.49 372.32,174.04 124.7,56.36 251.15,111.52 377.6,165.09 126.45,53.57 254.63,105.54 382.82,156.12 128.19,50.58 256.43,99.62 386.36,147.01 129.99,47.6 259.92,93.45 391.64,137.86 129.98,44.25 261.71,87.12 395.17,128.39 131.73,41.27 265.19,80.95 398.66,118.88 135.21,38.14 268.67,74.48 403.93,109.28 135.21,34.75 272.21,67.95 407.42,99.57 137,31.41 273.95,61.28 412.7,89.56 137,28.13 275.74,54.61 414.48,79.55 138.75,24.79 279.23,47.94 419.72,69.4 138.74,21.41 279.27,41.07 421.5,59 140.49,17.92 282.77,34.25 424.99,48.63 142.28,14.44 284.51,27.24 428.53,38.14 144.02,10.9 288.04,20.01 432.01,27.23 144.02,7.37 288.04,12.8 433.8,16.48 145.77,3.68 291.53,5.63 437.29,5.63 145.76,0 291.52,-1.95 437.29,-5.63 144.02,-3.68 289.78,-9.11 433.8,-16.48 144.02,-7.22 287.99,-16.33 432.01,-27.23 142.28,-10.9 286.3,-23.7 428.53,-38.14 142.27,-14.38 282.76,-30.71 424.99,-48.63 140.48,-17.93 281.02,-37.59 421.5,-59 140.49,-21.46 280.97,-44.61 419.72,-69.4 138.74,-24.94 277.48,-51.42 414.48,-79.55 138.75,-28.28 275.7,-58.15 410.96,-89.56 137,-31.62 273.95,-64.82 409.21,-99.57 135.21,-34.8 268.67,-71.14 402.14,-109.28 135.26,-37.93 268.72,-77.61 400.45,-118.88 133.46,-41.27 265.14,-84.14 395.12,-128.39 131.72,-44.41 261.65,-90.26 391.64,-137.86 129.98,-47.39 258.17,-96.43 386.36,-147.01 128.19,-50.58 256.42,-102.55 382.87,-156.12 126.45,-53.57 252.9,-108.73 377.55,-165.09 124.7,-56.55 249.41,-114.5 372.32,-174.04 122.96,-59.34 245.88,-120.33 367.05,-182.66 122.96,-62.33 242.39,-126.1 363.56,-191.27 119.42,-65.12 238.85,-131.68 356.49,-199.68 117.68,-67.96 235.32,-137.31 351.26,-208.1 117.64,-70.59 231.79,-142.78 347.73,-216.21 114.15,-73.38 228.3,-148.06 340.71,-224.28 112.36,-76.02 223.02,-153.33 333.64,-232.19 110.67,-78.66 221.28,-158.56 330.21,-239.86 108.87,-81.15 216,-163.69 323.13,-247.68 105.34,-83.73 210.73,-168.76 316.12,-254.99 103.6,-86.22 207.24,-173.84 310.84,-262.56 101.85,-88.72 203.71,-178.62 303.82,-269.58 100.11,-91.15 198.43,-183.55 296.8,-276.95 98.32,-93.44 194.95,-188.13 291.53,-283.82 94.83,-95.73 189.67,-192.66 282.76,-290.69 93.04,-97.97 186.14,-197.24 277.49,-297.31 91.3,-100.31 180.86,-201.62 268.67,-304.03 89.56,-102.4 177.38,-206 263.45,-310.5 86.02,-104.5 170.35,-210.04 254.64,-316.68 84.28,-106.58 166.82,-214.27 247.61,-322.95 80.8,-108.72 161.6,-218.3 240.6,-328.97 79.05,-110.62 156.32,-222.33 231.84,-334.9 75.52,-112.61 151.04,-226.21 224.81,-340.72 71.99,-114.5 143.97,-230.05 216.01,-346.34 70.24,-116.45 138.74,-233.74 207.19,-351.98 68.5,-118.18 135.26,-237.27 200.23,-357.2 64.96,-119.98 128.19,-240.8 191.41,-362.47 61.48,-121.73 122.96,-244.15 182.65,-367.61 59.74,-123.32 117.69,-247.63 173.89,-372.68 56.2,-124.86 110.62,-250.82 165.08,-377.42 52.67,-126.65 105.39,-253.94 156.31,-382.19 50.93,-128.19 98.32,-257.08 145.77,-386.72 49.13,-129.79 94.83,-260.07 138.74,-391.3 43.91,-131.18 87.82,-262.91 128.19,-395.49 42.16,-132.62 80.8,-265.89 119.43,-399.71 36.88,-134.02 73.72,-268.54 108.87,-403.8 35.15,-135.21 68.5,-271.17 100.11,-407.78 31.61,-136.46 61.48,-273.66 89.56,-411.52 28.08,-137.85 54.46,-276.25 79.05,-415.19 24.55,-138.9 47.4,-278.55 68.46,-418.69 22.85,-140.14 42.16,-280.83 59.73,-422.02 17.58,-141.18 35.1,-283.12 49.19,-425.35 14.04,-142.28 26.33,-285.21 36.84,-428.54 12.29,-143.33 21.11,-287.16 28.12,-431.53 7.02,-144.17 12.3,-289.1 15.79,-434.12 3.53,-145.27 7.02,-291.03 7.02,-437.15 0,-146.12 -3.49,-291.88 -7.02,-437.15 -3.49,-145.22 -8.77,-289.95 -15.79,-434.32 -7.01,-144.17 -15.83,-288.05 -28.12,-431.33 -10.51,-143.33 -22.8,-286.26 -36.84,-428.54 -14.09,-142.23 -31.61,-284.17 -49.19,-425.35 -17.57,-141.24 -36.88,-281.88 -59.73,-422.02 -21.06,-140.19 -43.91,-279.79 -68.46,-418.74 -24.59,-139.09 -50.97,-277.49 -79.05,-415.14 -28.08,-137.91 -57.95,-275.06 -89.56,-411.67 -31.61,-136.51 -64.96,-272.42 -100.11,-407.63 -35.15,-135.26 -71.99,-269.98 -108.87,-403.8 -38.63,-134.02 -77.27,-267.29 -119.43,-399.71 -40.37,-132.63 -84.28,-264.51 -128.19,-395.69 -43.91,-131.03 -89.61,-261.51 -138.74,-391.1 -47.45,-129.84 -94.84,-258.73 -145.77,-386.92 -50.92,-128.05 -103.64,-255.54 -156.31,-382.19 -54.46,-126.6 -108.88,-252.36 -165.08,-377.42 -56.2,-125.05 -114.15,-249.22 -173.89,-372.68 -59.69,-123.27 -121.17,-245.88 -182.65,-367.56 -63.22,-121.72 -126.45,-242.54 -191.41,-362.52 -64.97,-119.93 -131.73,-239.02 -200.23,-357.2 -68.45,-118.19 -136.95,-235.53 -207.19,-351.98 -72.04,-116.24 -144.02,-231.84 -216.01,-346.34 -73.77,-114.51 -149.29,-227.96 -224.81,-340.72 -75.52,-112.57 -152.79,-224.28 -231.84,-334.9 -79,-110.67 -159.8,-220.25 -240.6,-328.97 -80.79,-108.68 -163.33,-216.17 -247.61,-322.95 -84.29,-106.64 -168.62,-212.18 -254.64,-316.68 -86.07,-104.5 -173.89,-208.1 -263.45,-310.5 -87.81,-102.41 -177.37,-203.72 -268.67,-303.98 -91.35,-100.12 -184.45,-199.34 -277.49,-297.36 -93.09,-97.98 -187.93,-194.96 -282.76,-290.64 -96.58,-95.74 -193.21,-190.43 -291.53,-283.82 -98.37,-93.45 -196.69,-185.85 -296.8,-277 -100.11,-90.96 -201.97,-180.86 -303.82,-269.58 -103.6,-88.86 -207.24,-176.34 -310.84,-262.56 -105.39,-86.23 -210.78,-171.21 -316.12,-255.19 -107.13,-83.74 -214.26,-166.28 -323.13,-247.43 -108.93,-81.35 -219.54,-161.25 -330.21,-239.91 -110.62,-78.86 -221.28,-156.12 -333.64,-232.19 -112.41,-76.22 -226.56,-150.85 -340.71,-224.28 -115.94,-73.43 -230.09,-145.57 -347.73,-216.21 -115.94,-70.74 -233.58,-140.14 -351.26,-208.1 -117.64,-67.95 -237.07,-134.51 -356.49,-199.68 -121.17,-65.17 -240.6,-128.94 -363.56,-191.27 -121.17,-62.33 -244.09,-123.27 -367.05,-182.66 -122.91,-59.54 -247.62,-117.49 -372.32,-174.04 -124.65,-56.56 -251.1,-111.52 -377.55,-165.09 -126.45,-53.57 -254.68,-105.54 -382.87,-156.12 -128.19,-50.58 -256.38,-99.57 -386.36,-147.01 -129.99,-47.6 -259.92,-93.45 -391.64,-137.86 -129.98,-44.45 -261.66,-87.12 -395.12,-128.39 -131.73,-41.27 -265.19,-80.95 -400.45,-118.88 -133.47,-38.14 -266.93,-74.48 -402.14,-109.28 -135.26,-34.95 -272.21,-67.95 -409.21,-99.57 -135.26,-31.41 -272.21,-61.28 -410.96,-89.56 -137,-28.28 -275.74,-54.81 -414.48,-79.55 -138.75,-24.75 -279.23,-47.94 -419.72,-69.4 -140.48,-21.41 -281.02,-41.07 -421.5,-59 -142.23,-17.92 -282.72,-34.25 -424.99,-48.63 -142.23,-14.39 -286.25,-27.24 -428.53,-38.14 -144.02,-10.85 -287.99,-20.01 -432.01,-27.18 -144.02,-7.42 -289.78,-12.85 -433.8,-16.53 -145.77,-3.68 -291.53,-5.63 -437.29,-5.63l0 0 0 0 0 0 0 0 0 0 0 0 0 0 0 0 0 0 0 0 0 0 0 0 0 0 0 0 0 0 0 0 0 0 0 0 0 0 0 0 0 0 0 0 0 0 0 0 0 0 0 0 0 0 0 0 0 0 0 0 0 0 0 0 0 0 0 0 0 0 0 0 0 0 0 0 0 0 0 0 0 0 0 0 0 0 0 0 0 0 0 0 0 0 0 0 0 0 0 0 0 0 0 0 0 0 0 0 0 0 0 0 0 0 0 0 0 0 0 0 0 0 0 0 0 0 0 0zm0 2112.44c128.19,0 254.64,1.59 381.08,4.93 128.24,3.19 254.69,8.06 381.14,14.39 124.65,6.52 251.1,14.43 375.8,24.09 126.45,9.46 251.15,20.71 374.07,33.36 124.7,12.64 249.41,26.88 372.32,42.51 124.7,15.78 247.61,33.01 368.83,51.78 122.92,18.82 245.83,39.18 367.05,60.93 121.17,21.81 242.34,45.01 361.77,69.75 121.17,24.74 240.59,50.93 360.02,78.51 119.43,27.58 238.86,56.7 356.49,87.27 119.43,30.37 237.12,62.38 353.01,95.74 117.68,33.35 235.32,68.15 351.26,104.29 115.9,36.05 230.05,73.58 345.94,112.62 114.15,38.78 228.3,79 340.71,120.62 114.15,41.62 226.56,84.68 338.97,128.94 112.4,44.26 223.02,89.91 335.43,136.81 110.62,47.05 219.54,95.19 330.16,144.72 108.87,49.49 217.74,100.47 324.87,152.59 108.93,51.97 216.06,105.39 321.4,160.01 107.13,54.61 212.52,110.47 317.91,167.72 105.34,57.1 208.98,115.4 312.58,174.94 103.6,59.54 205.45,120.28 307.36,182.31 101.85,61.98 203.71,125.01 303.82,189.33 100.06,64.42 200.17,129.93 298.54,196.49 98.32,66.76 196.69,134.52 293.27,203.37 96.63,69.05 193.2,139.1 288.04,210.24 94.83,71.29 189.67,143.48 282.76,216.91 93.05,73.38 186.14,147.86 277.44,223.58 91.35,75.52 180.91,152.09 270.47,229.9 89.55,77.61 179.16,156.47 266.93,236.18 87.81,79.75 173.89,160.7 259.96,242.54 86.02,81.85 170.31,164.74 254.64,248.53 84.28,83.93 166.82,168.76 249.36,254.64 80.79,85.73 161.59,172.65 242.39,260.47 79,87.62 158.06,176.49 235.32,266.1 79,89.71 154.52,180.36 230.04,271.87 75.52,91.5 151.04,183.85 224.82,277.29 71.98,93.45 144.02,187.59 216,282.78 71.99,95.18 140.49,191.07 210.73,288 68.5,96.78 137,194.6 203.71,293.13 65.02,98.72 131.72,198.09 194.95,298.2 65.01,100.32 128.24,201.48 189.67,303.14 63.22,101.85 122.96,204.61 182.65,308.06 59.74,103.45 117.68,207.75 175.63,312.59 56.21,105.05 112.41,210.79 166.82,317.38 54.46,106.44 108.92,213.72 159.85,321.75 52.67,107.83 103.6,216.56 152.78,325.99 49.19,109.37 98.32,219.49 144.02,330.31 47.4,110.67 93.05,222.19 136.95,334.4 45.66,112.07 87.82,224.83 129.99,338.29 42.11,113.45 80.79,227.61 121.17,342.26 38.63,114.7 75.52,230.1 112.4,346 35.1,115.9 70.25,232.54 103.6,349.68 33.36,117.14 64.97,234.83 96.58,353.17 29.87,118.19 59.74,237.12 86.07,356.55 28.08,119.44 54.46,239.36 79.06,359.84 24.54,120.48 47.39,241.5 70.24,363.03 21.06,121.52 42.12,243.59 59.69,366.16 19.31,122.42 36.89,245.53 52.67,369 15.83,123.46 29.87,247.47 42.16,371.83 12.3,124.32 24.6,249.17 33.36,374.58 10.55,125.26 17.57,250.96 24.59,377.06 5.28,126.11 10.55,252.76 14.04,379.56 3.53,127 5.28,254.29 5.28,381.99 0,127.7 -1.75,254.99 -5.28,381.99 -3.49,126.8 -8.76,253.4 -14.04,379.51 -7.02,126.1 -14.04,251.85 -24.59,377.06 -8.76,125.41 -21.06,250.31 -33.36,374.62 -12.29,124.37 -26.33,248.33 -42.16,371.84 -15.78,123.47 -33.36,246.58 -52.67,368.95 -17.57,122.62 -38.63,244.69 -59.69,366.21 -22.85,121.52 -45.7,242.55 -70.24,363.03 -24.6,120.47 -50.98,240.4 -79.06,359.84 -26.33,119.43 -56.2,238.16 -86.07,356.55 -31.61,118.19 -63.22,236.02 -96.58,353.17 -33.35,117.14 -68.5,233.58 -103.6,349.68 -36.88,115.9 -73.77,231.3 -112.4,345.95 -40.38,114.7 -79.06,228.71 -121.17,342.16 -42.17,113.41 -84.33,226.37 -129.99,338.44 -43.9,112.21 -89.55,223.53 -136.95,334.35 -45.7,110.81 -94.83,220.94 -144.02,330.36 -49.18,109.23 -100.11,217.96 -152.78,325.99 -50.93,107.98 -105.39,215.11 -159.85,321.75 -54.41,106.39 -110.61,212.13 -166.82,317.18 -57.95,104.99 -115.89,209.14 -175.63,312.59 -59.69,103.45 -119.43,206.21 -182.65,308.06 -61.43,101.86 -124.66,202.87 -189.67,303.14 -63.23,100.26 -129.93,199.68 -194.95,298.2 -66.71,98.53 -135.21,196.35 -203.71,293.13 -70.24,96.93 -138.74,193.02 -210.73,288 -71.98,95.24 -144.02,189.53 -216,282.78 -73.78,93.44 -149.3,185.84 -224.82,277.34 -75.52,91.66 -151.04,182.26 -230.04,271.87 -77.26,89.71 -156.32,178.43 -235.32,266.25 -80.8,87.82 -161.6,174.54 -242.39,260.42 -82.54,85.73 -165.08,170.71 -249.36,254.49 -84.33,83.94 -168.62,166.68 -254.64,248.53 -86.07,81.99 -172.15,162.79 -259.96,242.54 -87.77,79.71 -177.38,158.57 -266.93,236.23 -89.56,77.76 -179.12,154.38 -270.47,230.05 -91.3,75.52 -184.39,150 -277.44,223.38 -93.09,73.43 -187.93,145.62 -282.76,216.91 -94.84,71.14 -191.41,141.24 -288.04,210.24 -96.58,68.85 -194.95,136.66 -293.27,203.37 -98.37,66.56 -198.48,132.07 -298.54,196.54 -100.11,64.27 -201.97,127.3 -303.82,189.33 -101.91,61.98 -203.76,122.77 -307.36,182.26 -103.6,59.54 -207.24,117.89 -312.58,174.94 -105.39,57.25 -210.78,113.11 -317.91,167.72 -105.34,54.62 -212.47,108.04 -321.4,160.01 -107.13,52.17 -216,102.9 -324.87,152.64 -110.62,49.48 -219.54,97.62 -330.16,144.67 -112.41,46.9 -223.03,92.6 -335.43,136.86 -112.41,44.26 -224.82,87.27 -338.97,128.89 -112.41,41.62 -226.56,81.84 -340.71,120.67 -115.89,38.99 -230.04,76.57 -345.94,112.57 -115.94,36.19 -233.58,70.94 -351.26,104.29 -115.89,33.41 -233.58,65.37 -353.01,95.74 -117.63,30.57 -237.06,59.69 -356.49,87.27 -119.43,27.58 -238.85,53.77 -360.02,78.51 -119.43,24.79 -240.6,47.94 -361.77,69.75 -121.22,21.75 -244.13,42.11 -367.05,60.93 -121.22,18.62 -244.13,36 -368.83,51.63 -122.91,15.83 -247.62,30.02 -372.32,42.66 -122.92,12.65 -247.62,23.9 -374.07,33.41 -124.7,9.66 -251.15,17.52 -375.8,24.04 -126.45,6.33 -252.9,11.25 -381.14,14.39 -126.44,3.19 -252.89,4.93 -381.08,4.93 -128.19,0 -254.64,-1.74 -382.83,-4.93 -126.44,-3.14 -252.89,-8.06 -379.34,-14.39 -126.44,-6.52 -251.15,-14.38 -375.85,-24.04 -126.45,-9.51 -251.15,-20.76 -375.81,-33.41 -124.7,-12.64 -247.62,-26.83 -370.58,-42.66 -124.7,-15.63 -247.61,-33.01 -370.58,-51.63 -121.17,-18.82 -244.08,-39.18 -365.25,-60.93 -121.17,-21.81 -242.39,-44.96 -363.56,-69.75 -119.43,-24.74 -240.6,-50.93 -360.02,-78.51 -119.43,-27.58 -237.07,-56.7 -356.5,-87.27 -117.68,-30.37 -235.32,-62.33 -353,-95.74 -115.89,-33.35 -233.58,-68.1 -349.47,-104.29 -115.95,-36 -230.1,-73.58 -345.99,-112.57 -114.15,-38.83 -228.3,-79.05 -342.45,-120.67 -112.41,-41.62 -224.82,-84.63 -337.18,-128.89 -112.4,-44.26 -224.81,-89.96 -335.48,-136.86 -110.62,-47.05 -219.49,-95.19 -330.16,-144.67 -108.87,-49.74 -217.74,-100.47 -324.87,-152.64 -108.88,-51.97 -216.01,-105.39 -323.14,-160.01 -105.39,-54.61 -210.78,-110.47 -316.12,-167.72 -105.39,-57.05 -208.98,-115.4 -312.63,-174.94 -103.6,-59.49 -207.19,-120.28 -309.1,-182.26 -101.85,-62.03 -201.97,-125.06 -302.03,-189.33 -100.11,-64.47 -200.22,-129.98 -298.59,-196.54 -98.32,-66.71 -196.69,-134.52 -293.27,-203.37 -96.58,-69 -193.2,-139.1 -288.04,-210.24 -94.83,-71.29 -189.67,-143.48 -282.71,-216.91 -93.1,-73.38 -186.19,-147.86 -277.49,-223.38 -91.35,-75.67 -182.65,-152.29 -272.21,-230.05 -89.56,-77.66 -177.37,-156.52 -265.19,-236.23 -87.81,-79.75 -175.63,-160.55 -259.91,-242.54 -86.07,-81.85 -172.1,-164.59 -254.69,-248.53 -84.28,-83.78 -166.82,-168.76 -249.36,-254.49 -82.54,-85.88 -163.33,-172.6 -242.34,-260.42 -79.05,-87.82 -158.06,-176.54 -237.11,-266.25 -77.26,-89.61 -152.78,-180.21 -228.3,-271.87 -75.52,-91.5 -151.04,-183.9 -224.77,-277.34 -72.03,-93.25 -145.81,-187.54 -216.05,-282.78 -71.99,-94.98 -142.23,-191.07 -210.73,-288 -68.5,-96.78 -137,-194.6 -203.71,-293.13 -66.76,-98.52 -131.72,-197.94 -196.69,-298.2 -63.22,-100.27 -126.45,-201.28 -187.93,-303.14 -63.22,-101.85 -122.91,-204.61 -182.65,-308.06 -59.69,-103.45 -117.68,-207.6 -175.63,-312.59 -56.21,-105.05 -112.36,-210.79 -166.82,-317.18 -54.46,-106.64 -108.88,-213.77 -159.8,-321.75 -52.72,-108.03 -103.65,-216.76 -152.83,-325.99 -49.14,-109.42 -98.32,-219.55 -145.77,-330.36 -45.65,-110.82 -91.3,-222.14 -136.95,-334.35 -43.91,-112.07 -86.07,-225.03 -128.24,-338.44 -42.11,-113.45 -82.54,-227.46 -121.17,-342.16 -38.63,-114.65 -75.52,-230.05 -112.35,-345.95 -35.15,-116.1 -70.3,-232.54 -103.65,-349.68 -33.36,-117.15 -64.97,-234.98 -96.58,-353.17 -29.87,-118.39 -59.74,-237.12 -86.07,-356.55 -28.08,-119.44 -54.41,-239.37 -79.01,-359.84 -24.59,-120.48 -47.44,-241.51 -70.24,-363.03 -21.11,-121.52 -42.17,-243.59 -59.74,-366.21 -19.31,-122.37 -36.89,-245.48 -52.67,-368.95 -15.83,-123.51 -29.87,-247.47 -42.16,-371.84 -12.3,-124.31 -24.6,-249.21 -33.36,-374.62 -10.55,-125.21 -17.57,-250.96 -24.59,-377.06 -7.02,-126.11 -10.55,-252.71 -14.04,-379.51 -3.53,-127 -5.28,-254.29 -5.28,-381.99 0,-127.7 1.75,-254.99 5.28,-381.99 3.49,-126.8 7.02,-253.45 14.04,-379.56 7.02,-126.1 14.04,-251.8 24.59,-377.06 8.76,-125.41 21.06,-250.26 33.36,-374.58 12.29,-124.36 26.33,-248.37 42.16,-371.83 15.78,-123.47 33.36,-246.58 52.67,-369 17.57,-122.57 38.63,-244.64 59.74,-366.16 22.8,-121.53 45.65,-242.55 70.24,-363.03 24.6,-120.48 50.93,-240.4 79.01,-359.84 26.33,-119.43 56.2,-238.36 86.07,-356.55 31.61,-118.34 63.22,-236.03 96.58,-353.17 33.35,-117.14 68.5,-233.78 103.65,-349.68 36.83,-115.9 73.72,-231.3 112.35,-346 38.63,-114.65 79.06,-228.81 121.17,-342.26 42.17,-113.46 84.33,-226.22 128.24,-338.29 45.65,-112.21 91.3,-223.73 136.95,-334.4 47.45,-110.82 96.63,-220.94 145.77,-330.31 49.18,-109.43 100.11,-218.16 152.83,-325.99 50.92,-108.03 105.34,-215.31 159.8,-321.75 54.46,-106.59 110.61,-212.33 166.82,-317.38 57.95,-104.84 115.94,-209.14 175.63,-312.59 59.74,-103.45 119.43,-206.21 182.65,-308.06 61.48,-101.66 124.71,-202.82 187.93,-303.14 64.97,-100.11 129.93,-199.48 196.69,-298.2 66.71,-98.53 135.21,-196.35 203.71,-293.13 68.5,-96.93 138.74,-192.82 210.73,-288 70.24,-95.19 144.02,-189.33 216.05,-282.78 73.73,-93.44 149.25,-185.79 224.77,-277.29 75.52,-91.51 151.04,-182.16 228.3,-271.87 79.05,-89.61 158.06,-178.48 237.11,-266.1 79.01,-87.82 159.8,-174.74 242.34,-260.47 82.54,-85.88 165.08,-170.71 249.36,-254.64 82.59,-83.79 168.62,-166.68 254.69,-248.53 84.28,-81.84 172.1,-162.79 259.91,-242.54 87.82,-79.71 175.63,-158.57 265.19,-236.18 89.56,-77.81 180.86,-154.38 272.21,-229.9 91.3,-75.72 184.39,-150.2 277.49,-223.58 93.04,-73.43 187.88,-145.62 282.71,-216.91 94.84,-71.14 191.46,-141.19 288.04,-210.24 96.58,-68.85 194.95,-136.61 293.27,-203.37 98.37,-66.56 198.48,-132.07 298.59,-196.49 100.06,-64.32 200.18,-127.35 302.03,-189.33 101.91,-62.03 205.5,-122.77 309.1,-182.31 103.65,-59.54 207.24,-117.84 312.63,-174.94 105.34,-57.25 210.73,-113.11 316.12,-167.72 107.13,-54.62 214.26,-108.04 323.14,-160.01 107.13,-52.12 216,-103.1 324.87,-152.59 110.67,-49.53 219.54,-97.67 330.16,-144.72 110.67,-46.9 223.08,-92.55 335.48,-136.81 112.36,-44.26 224.77,-87.32 337.18,-128.94 114.15,-41.62 228.3,-81.84 342.45,-120.62 115.89,-39.04 230.04,-76.57 345.99,-112.62 115.89,-36.14 233.58,-70.94 349.47,-104.29 117.68,-33.36 235.32,-65.37 353,-95.74 119.43,-30.57 237.07,-59.69 356.5,-87.27 119.42,-27.58 240.59,-53.77 360.02,-78.51 121.17,-24.74 242.39,-47.94 363.56,-69.75 121.17,-21.75 244.08,-42.11 365.25,-60.93 122.97,-18.77 245.88,-36 370.58,-51.78 122.96,-15.63 245.88,-29.87 370.58,-42.51 124.66,-12.65 249.36,-23.9 375.81,-33.36 124.7,-9.66 249.41,-17.57 375.85,-24.09 126.45,-6.33 252.9,-11.2 379.34,-14.39 128.19,-3.34 254.64,-4.93 382.83,-4.93z"/>
  <polygon fill="black" fill-rule="nonzero" points="8694.96,16933.23 8837.24,17039.67 8979.47,17146.11 9123.49,17252.55 9265.72,17358.98 9408,17465.42 9552.02,17571.81 9694.24,17678.25 9836.52,17784.69 9980.49,17891.12 10122.77,17997.36 10265,18103.8 10409.02,18210.24 10551.29,18316.68 10693.52,18423.07 10837.54,18529.51 10979.77,18635.94 11122.05,18742.38 11266.07,18848.82 11408.3,18955.26 11550.57,19061.65 11694.59,19168.08 11836.82,19274.37 11979.1,19380.76 12123.07,19487.2 12265.35,19593.64 12407.58,19700.08 12551.6,19806.51 12693.87,19912.95 12836.1,20019.34 12980.12,20125.78 13122.35,20232.22 13264.63,20338.46 13408.65,20444.9 13550.87,20551.33 13693.15,20657.77 13837.12,20764.21 13979.4,20870.65 14121.63,20977.04 14265.65,21083.47 14407.93,21189.91 14550.15,21296.35 14694.17,21402.79 14836.4,21509.03 14978.68,21615.47 15120.91,21721.9 15264.93,21828.34 15407.21,21934.73 15549.43,22041.17 15693.45,22147.61 15835.73,22254.05 15977.96,22360.48 16121.98,22466.92 16264.21,22573.31 16406.48,22679.6 16550.5,22786.04 16692.73,22892.43 16835.01,22998.86 16978.98,23105.3 17121.26,23211.74 17263.49,23318.18 17407.51,23424.62 17549.78,23531.01 17692.01,23637.44 17836.03,23743.88 17836.03,23531.01 17836.03,23318.18 17836.03,23105.3 17836.03,22892.43 17836.03,22679.6 17836.03,22466.92 17836.03,22254.05 17836.03,22041.17 17836.03,21828.34 17836.03,21615.47 17836.03,21402.79 17836.03,21189.91 17836.03,20977.04 17836.03,20764.21 17836.03,20551.33 17836.03,20338.46 17836.03,20125.78 17836.03,19912.95 17836.03,19700.08 17836.03,19487.2 17836.03,19274.37 17836.03,19061.65 17836.03,18848.82 17836.03,18635.94 17836.03,18423.07 17836.03,18210.24 17836.03,17997.36 17836.03,17784.69 17836.03,17571.81 17836.03,17358.98 17836.03,17146.11 17836.03,16933.23 17836.03,16720.55 17836.03,16507.73 17836.03,16294.85 17836.03,16081.97 17836.03,15869.15 17836.03,15656.42 17836.03,15443.59 17836.03,15230.72 17836.03,15017.84 17836.03,14805.01 17836.03,14592.14 17836.03,14379.46 17836.03,14166.58 17836.03,13953.76 17836.03,13740.88 17836.03,13528 17836.03,13315.33 17836.03,13102.45 17836.03,12889.62 17836.03,12676.75 17836.03,12463.87 17836.03,12251.04 17836.03,12038.37 17836.03,11825.49 17836.03,11612.61 17836.03,11399.79 17836.03,11186.91 17836.03,10974.23 17836.03,10761.36 17836.03,10548.53 17836.03,10335.65 17836.03,10122.78 17692.01,10229.22 17549.78,10335.65 17407.51,10442.09 17263.49,10548.53 17121.26,10654.92 16978.98,10761.36 16835.01,10867.8 16692.73,10974.23 16550.5,11080.67 16406.48,11186.91 16264.21,11293.35 16121.98,11399.79 15977.96,11506.18 15835.73,11612.61 15693.45,11719.05 15549.43,11825.49 15407.21,11931.93 15264.93,12038.37 15120.91,12144.76 14978.68,12251.04 14836.4,12357.48 14694.17,12463.87 14550.15,12570.31 14407.93,12676.75 14265.65,12783.19 14121.63,12889.62 13979.4,12996.06 13837.12,13102.45 13693.15,13208.89 13550.87,13315.33 13408.65,13421.57 13264.63,13528 13122.35,13634.44 12980.12,13740.88 12836.1,13847.32 12693.87,13953.76 12551.6,14060.15 12407.58,14166.58 12265.35,14273.02 12123.07,14379.46 11979.1,14485.9 11836.82,14592.14 11694.59,14698.58 11550.57,14805.01 11408.3,14911.45 11266.07,15017.84 11122.05,15124.28 10979.77,15230.72 10837.54,15337.15 10693.52,15443.59 10551.29,15550.03 10409.02,15656.42 10265,15762.71 10122.77,15869.15 9980.49,15975.54 9836.52,16081.97 9694.24,16188.41 9552.02,16294.85 9408,16401.29 9265.72,16507.73 9123.49,16614.11 8979.47,16720.55 8837.24,16826.84 "/>
  <polygon fill="black" fill-rule="nonzero" points="12699.1,19882.73 8694.96,19882.73 8694.96,13983.93 12699.1,13983.93 12699.1,14076.13 12699.1,14168.38 12699.1,14260.58 12699.1,14352.58 12699.1,14444.78 12699.1,14536.98 12699.1,14629.18 12699.1,14721.43 12699.1,14813.43 12699.1,14905.63 12699.1,14997.83 12699.1,15090.03 12699.1,15182.23 12699.1,15274.28 12699.1,15366.48 12699.1,15458.68 12699.1,15550.88 12699.1,15642.93 12699.1,15735.13 12699.1,15827.33 12699.1,15919.53 12699.1,16011.73 12699.1,16103.78 12699.1,16195.98 12699.1,16288.18 12699.1,16380.38 12699.1,16472.38 12699.1,16564.63 12699.1,16656.83 12699.1,16749.03 12699.1,16841.23 12699.1,16933.23 12699.1,17025.43 12699.1,17117.68 12699.1,17209.88 12699.1,17302.08 12699.1,17394.08 12699.1,17486.28 12699.1,17578.48 12699.1,17670.68 12699.1,17762.73 12699.1,17854.93 12699.1,17947.13 12699.1,18039.33 12699.1,18131.53 12699.1,18223.58 12699.1,18315.78 12699.1,18407.98 12699.1,18500.18 12699.1,18592.38 12699.1,18684.43 12699.1,18776.63 12699.1,18868.83 12699.1,18961.03 12699.1,19053.08 12699.1,19145.28 12699.1,19237.48 12699.1,19329.68 12699.1,19421.88 12699.1,19513.93 12699.1,19606.13 12699.1,19698.33 12699.1,19790.53 "/>
  <polygon fill="black" fill-rule="nonzero" points="25171.7,17652.61 19313.02,17652.61 19313.02,16214.05 25171.7,16214.05 25171.7,16236.55 25171.7,16259.01 25171.7,16281.51 25171.7,16303.96 25171.7,16326.46 25171.7,16348.92 25171.7,16371.42 25171.7,16393.92 25171.7,16416.37 25171.7,16438.88 25171.7,16461.33 25171.7,16483.83 25171.7,16506.28 25171.7,16528.79 25171.7,16551.24 25171.7,16573.74 25171.7,16596.24 25171.7,16618.7 25171.7,16641.2 25171.7,16663.65 25171.7,16686.15 25171.7,16708.6 25171.7,16731.11 25171.7,16753.56 25171.7,16776.06 25171.7,16798.56 25171.7,16820.87 25171.7,16843.32 25171.7,16865.82 25171.7,16888.28 25171.7,16910.78 25171.7,16933.23 25171.7,16955.73 25171.7,16978.19 25171.7,17000.69 25171.7,17023.19 25171.7,17045.64 25171.7,17068.15 25171.7,17090.6 25171.7,17113.1 25171.7,17135.55 25171.7,17158.06 25171.7,17180.51 25171.7,17203.01 25171.7,17225.51 25171.7,17247.96 25171.7,17270.47 25171.7,17292.92 25171.7,17315.42 25171.7,17337.87 25171.7,17360.38 25171.7,17382.83 25171.7,17405.33 25171.7,17427.83 25171.7,17450.29 25171.7,17472.79 25171.7,17495.24 25171.7,17517.74 25171.7,17540.2 25171.7,17562.7 25171.7,17585.15 25171.7,17607.65 25171.7,17630.16 "/>
 </g>
</svg>
