<?xml version="1.0" encoding="UTF-8"?>
<!DOCTYPE svg PUBLIC "-//W3C//DTD SVG 1.1//EN" "http://www.w3.org/Graphics/SVG/1.1/DTD/svg11.dtd">
<!-- Creator: CorelDRAW 2026 -->
<svg xmlns="http://www.w3.org/2000/svg" xml:space="preserve" width="338.667mm" height="338.667mm" version="1.1" shape-rendering="geometricPrecision" text-rendering="geometricPrecision" image-rendering="optimizeQuality" fill-rule="evenodd" clip-rule="evenodd"
viewBox="0 0 33866.66 33866.66"
 xmlns:xlink="http://www.w3.org/1999/xlink"
 xmlns:xodm="http://www.corel.com/coreldraw/odm/2003">
 <g id="Camada_x0020_1">
  <metadata id="CorelCorpID_0Corel-Layer"/>
  <path fill="black" fill-rule="nonzero" d="M16932.43 0c-145.77,0 -291.54,1.74 -437.31,5.28 -143.97,3.48 -289.79,8.76 -433.77,15.78 -144.03,7.02 -288.05,17.57 -432.08,28.13 -142.24,10.5 -286.26,22.8 -428.5,36.84 -142.28,15.83 -282.78,31.61 -425.06,49.19 -140.49,17.57 -280.99,38.63 -421.48,59.74 -140.54,21.06 -279.24,43.91 -419.78,68.5 -138.75,24.55 -275.71,50.93 -414.46,80.75 -137.01,28.13 -274.02,57.95 -410.97,89.57 -137.01,29.87 -272.23,63.22 -407.49,98.37 -135.22,35.15 -270.43,71.99 -403.96,108.88 -135.21,38.63 -266.94,79.06 -400.41,119.43 -131.74,42.17 -263.47,84.34 -395.15,128.2 -131.73,43.91 -261.71,91.35 -391.65,138.75 -129.99,47.44 -258.19,96.63 -386.38,145.77 -128.25,50.93 -256.44,103.65 -382.9,156.32 -126.45,54.47 -251.16,108.88 -377.61,165.09 -124.67,57.95 -249.38,115.95 -372.34,173.9 -122.92,59.69 -245.89,121.17 -367.07,182.66 -121.17,63.23 -242.35,126.45 -363.53,191.42 -119.43,64.97 -238.86,131.73 -356.55,200.24 -117.65,68.45 -235.34,136.95 -351.24,207.2 -117.69,72.04 -231.84,144.03 -347.74,217.81 -114.16,71.99 -226.57,147.51 -338.99,223.03 -114.15,77.27 -224.77,154.59 -335.45,231.85 -110.62,79.01 -221.29,159.81 -330.17,240.61 -107.13,80.8 -216.01,163.35 -321.41,247.63 -107.14,84.29 -212.48,168.62 -317.87,254.65 -103.66,86.08 -207.26,173.9 -309.12,263.46 -103.6,87.82 -203.72,177.39 -305.58,268.69 -100.11,91.36 -198.49,184.45 -296.81,277.5 -98.38,93.1 -194.96,187.94 -289.8,284.52 -96.58,94.84 -191.42,191.47 -284.52,289.8 -93.1,98.37 -186.19,196.7 -277.5,296.82 -91.31,100.11 -180.92,201.97 -268.74,303.83 -89.56,103.66 -177.38,207.26 -263.41,310.86 -86.08,105.39 -170.36,210.79 -254.65,317.93 -84.33,105.34 -166.88,214.27 -247.68,321.36 -80.75,108.93 -161.55,219.55 -240.61,330.22 -77.26,110.62 -154.53,221.29 -231.79,335.45 -75.53,112.36 -151.05,224.78 -223.09,338.93 -73.73,115.95 -145.77,230.11 -217.76,347.75 -70.24,115.95 -138.75,233.59 -207.25,351.28 -68.51,117.65 -135.22,237.08 -200.24,356.51 -64.97,121.18 -128.19,242.4 -191.42,363.58 -61.48,121.18 -122.92,244.1 -182.66,367.06 -57.95,122.92 -115.9,247.63 -173.85,372.35 -56.2,126.45 -110.67,251.11 -165.08,377.56 -52.73,126.46 -105.4,254.7 -156.33,382.9 -49.19,128.19 -98.37,256.44 -145.77,386.38 -47.44,129.99 -94.84,259.92 -138.75,391.66 -43.91,131.73 -86.08,263.46 -128.19,395.19 -40.43,133.47 -80.8,265.15 -119.44,400.42 -36.89,133.47 -73.78,268.69 -108.88,403.95 -35.14,135.22 -68.5,270.48 -98.37,407.44 -31.61,137.01 -61.48,274.02 -89.56,410.97 -29.87,138.75 -56.21,275.76 -80.8,416.25 -24.6,138.75 -47.4,277.5 -68.51,418 -21.06,140.49 -42.12,281.03 -59.69,421.53 -17.57,142.23 -33.36,282.77 -49.19,425.01 -14.04,142.28 -26.33,286.26 -36.89,428.55 -10.5,144.02 -21.06,288 -28.08,432.03 -7.02,144.03 -12.29,289.8 -15.83,433.82 -3.48,145.77 -5.28,291.54 -5.28,437.31 0,145.77 1.8,291.54 5.28,437.31 3.54,145.77 8.81,289.8 15.83,433.83 7.02,145.77 17.58,288 28.08,432.03 10.56,144.03 22.85,286.26 36.89,428.55 15.83,142.23 31.62,284.52 49.19,425.01 17.57,142.29 38.63,282.78 59.69,423.27 21.11,138.75 43.91,279.25 68.51,418 24.59,138.75 50.93,277.5 80.8,414.5 28.08,138.75 57.95,275.71 89.56,412.72 29.87,135.22 63.23,272.22 98.37,407.44 35.1,135.26 71.99,268.74 108.88,403.95 38.64,133.48 79.01,267 119.44,398.68 42.11,133.47 84.28,265.2 128.19,396.93 43.91,129.99 91.31,261.72 138.75,389.92 47.4,129.94 96.58,259.93 145.77,388.12 50.93,128.2 103.6,254.65 156.33,381.1 54.41,126.46 108.88,252.91 165.08,377.62 57.95,124.71 115.9,249.42 173.85,372.34 59.74,124.71 121.18,245.89 182.66,368.81 63.23,121.22 126.45,242.4 191.42,361.83 65.02,119.44 131.73,238.82 200.24,356.51 68.5,119.44 137.01,237.13 207.25,353.03 71.99,115.9 144.03,231.85 217.76,346 72.04,114.16 147.56,228.32 223.09,340.68 77.26,112.41 154.53,224.83 231.79,335.5 79.06,110.62 159.86,219.5 240.61,328.38 80.8,108.93 163.35,216.07 247.68,323.2 84.29,107.14 168.57,212.49 254.65,316.14 86.03,105.34 173.85,208.99 263.41,310.85 87.82,101.86 177.43,203.72 268.74,303.84 91.31,100.12 184.4,200.18 277.5,296.82 93.1,98.32 187.94,194.95 284.52,291.54 94.84,94.84 191.42,189.68 289.8,282.77 98.32,94.85 196.7,186.15 296.81,277.46 101.86,91.35 201.98,180.91 305.58,270.48 101.86,87.82 205.46,175.64 309.12,261.72 105.39,86.02 210.73,172.1 317.87,254.64 105.4,84.29 214.28,166.83 321.41,247.63 108.88,82.55 219.55,161.61 330.17,240.61 110.68,79.06 221.3,156.33 335.45,231.85 112.42,77.27 224.83,151.05 338.99,224.78 115.9,73.78 230.05,145.77 347.74,216.07 115.9,70.24 233.59,140.49 351.24,207.2 117.69,68.51 237.12,135.27 356.55,200.24 121.18,64.97 242.36,129.98 363.53,191.42 121.18,63.23 244.15,122.97 367.07,182.66 122.96,59.74 247.67,117.69 372.34,173.9 126.45,56.2 251.16,112.36 377.61,165.08 126.46,54.42 254.65,105.35 382.9,156.28 128.19,50.98 256.39,100.12 386.38,147.56 129.94,47.4 259.92,93.1 391.65,136.96 131.68,45.7 263.41,87.82 395.15,128.24 133.47,42.12 265.2,80.81 400.41,119.44 133.53,38.63 268.74,73.73 403.96,108.88 135.26,35.1 270.48,68.5 407.49,100.11 136.95,31.62 273.96,61.44 410.97,89.57 138.75,28.08 275.71,54.41 414.46,79.01 140.54,24.59 279.24,49.18 419.78,70.24 140.49,21.11 280.99,40.43 421.48,58 142.28,19.32 282.78,35.1 425.06,49.14 142.24,14.09 286.26,28.13 428.5,38.68 144.03,10.51 288.05,19.32 432.08,26.34 143.98,7.02 289.8,14.04 433.77,17.52 145.77,3.54 291.54,5.28 437.31,5.28 145.82,0 291.59,-1.74 437.36,-5.28 145.77,-3.48 289.75,-10.5 433.78,-17.52 145.77,-7.02 288.05,-15.83 432.08,-26.34 143.98,-10.55 286.26,-24.59 428.5,-38.68 142.28,-14.04 284.52,-29.82 425.06,-49.14 142.23,-17.57 282.73,-36.89 423.27,-58 138.7,-21.06 279.24,-45.65 417.99,-70.24 138.75,-24.6 277.5,-50.93 414.46,-79.01 138.75,-28.13 275.76,-57.95 412.71,-89.57 135.27,-31.61 272.28,-65.01 407.49,-100.11 135.22,-35.15 268.69,-70.25 403.96,-108.88 133.47,-38.63 266.94,-77.32 398.67,-119.44 133.48,-40.42 265.21,-82.54 396.94,-128.24 129.93,-43.86 261.66,-89.56 389.86,-136.96 129.99,-47.44 259.93,-96.58 388.17,-147.56 128.2,-50.93 254.65,-101.86 381.1,-156.28 126.46,-52.72 252.91,-108.88 377.62,-165.08 124.66,-56.21 249.37,-114.16 372.34,-173.9 124.66,-59.69 245.84,-119.43 368.81,-182.66 121.17,-61.44 242.35,-126.45 361.78,-191.42 119.44,-64.97 238.87,-131.73 356.56,-200.24 119.39,-66.71 237.08,-136.96 352.98,-207.2 115.94,-70.3 231.84,-142.29 346,-216.07 114.16,-73.73 228.31,-147.51 340.73,-224.78 112.41,-75.52 224.82,-152.79 335.45,-231.85 110.67,-79 219.55,-158.06 328.43,-240.61 108.87,-80.8 216.01,-163.34 323.15,-247.63 107.14,-82.54 212.53,-168.62 316.13,-254.64 105.4,-86.08 209,-173.9 310.86,-261.72 101.86,-89.57 203.72,-179.13 303.83,-270.48 100.12,-91.31 200.24,-182.61 296.82,-277.46 98.37,-93.09 194.96,-187.93 291.54,-282.77 94.84,-96.59 189.68,-193.22 282.78,-291.54 94.84,-96.64 186.19,-196.7 277.5,-296.82 91.3,-100.12 180.92,-201.98 270.48,-303.84 87.82,-101.86 175.64,-205.51 261.67,-310.85 86.07,-103.65 172.1,-209 254.65,-316.14 84.33,-107.13 166.87,-214.27 247.67,-323.2 82.55,-108.88 161.56,-217.76 240.61,-328.38 79.01,-110.67 156.28,-223.09 231.8,-335.5 77.32,-112.36 151.05,-226.52 224.83,-340.68 73.78,-114.15 145.77,-230.1 216.02,-346 70.24,-115.9 140.49,-233.59 207.25,-353.03 68.5,-117.69 135.22,-237.07 200.18,-356.51 65.02,-119.43 129.99,-240.61 191.48,-361.83 63.22,-122.92 122.91,-244.1 182.66,-368.81 59.69,-122.92 117.64,-247.63 173.84,-372.34 56.21,-124.71 112.42,-251.16 165.09,-377.62 54.47,-126.45 105.4,-252.9 156.33,-381.1 50.93,-128.19 100.11,-258.18 147.51,-388.12 47.44,-128.2 93.09,-259.93 137.01,-389.92 43.91,-131.73 87.82,-263.46 128.19,-396.93 42.17,-131.68 80.8,-265.2 119.43,-398.68 38.64,-135.21 73.79,-268.69 108.88,-403.95 35.15,-135.22 68.51,-272.22 100.12,-407.44 31.61,-137.01 61.48,-273.97 89.56,-412.72 28.13,-137 54.47,-275.75 79.06,-414.5 24.6,-138.75 49.19,-279.25 70.25,-418 21.06,-140.49 40.37,-280.98 57.95,-423.27 19.31,-140.49 35.15,-282.78 49.18,-425.01 14.04,-142.29 26.34,-284.52 38.64,-428.55 10.55,-144.03 19.31,-286.26 26.33,-432.03 7.02,-144.03 14.04,-288.06 17.58,-433.83 3.53,-145.77 5.28,-291.54 5.28,-437.31 0,-145.77 -1.75,-291.54 -5.28,-437.31 -3.54,-144.02 -10.56,-289.79 -17.58,-433.82 -7.02,-144.03 -15.78,-288.01 -26.33,-432.03 -12.3,-142.29 -24.6,-286.27 -38.64,-428.55 -14.03,-142.24 -29.87,-282.78 -49.18,-425.01 -17.58,-140.5 -36.89,-281.04 -57.95,-421.53 -21.06,-140.5 -45.65,-279.25 -70.25,-418 -24.59,-140.49 -50.93,-277.5 -79.06,-416.25 -28.08,-136.95 -57.95,-273.96 -89.56,-410.97 -31.61,-136.96 -64.97,-272.22 -100.12,-407.44 -35.09,-135.26 -70.24,-270.48 -108.88,-403.95 -38.63,-135.27 -77.26,-266.95 -119.43,-400.42 -40.37,-131.73 -84.28,-263.46 -128.19,-395.19 -43.92,-131.74 -89.57,-261.67 -137.01,-391.66 -47.4,-129.94 -96.58,-258.19 -147.51,-386.38 -50.93,-128.2 -101.86,-256.44 -156.33,-382.9 -52.67,-126.45 -108.88,-251.11 -165.09,-377.56 -56.2,-124.72 -114.15,-249.43 -173.84,-372.35 -59.75,-122.96 -119.44,-245.88 -182.66,-367.06 -61.49,-121.18 -126.46,-242.4 -191.48,-363.58 -64.96,-119.43 -131.68,-238.86 -200.18,-356.51 -66.76,-117.69 -137.01,-235.33 -207.25,-351.28 -70.25,-117.64 -142.24,-231.8 -216.02,-347.75 -73.78,-114.15 -147.51,-226.57 -224.83,-338.93 -75.52,-114.16 -152.79,-224.83 -231.8,-335.45 -79.05,-110.67 -158.06,-221.29 -240.61,-330.22 -80.8,-107.09 -163.34,-216.02 -247.67,-321.36 -82.55,-107.14 -168.58,-212.54 -254.65,-317.93 -86.03,-103.6 -173.85,-207.2 -261.67,-310.86 -89.56,-101.86 -179.18,-203.72 -270.48,-303.83 -91.31,-100.12 -182.66,-198.45 -277.5,-296.82 -93.1,-98.33 -187.94,-194.96 -282.78,-289.8 -96.58,-96.58 -193.17,-191.42 -291.54,-284.52 -96.58,-93.05 -196.7,-186.14 -296.82,-277.5 -100.11,-91.3 -201.97,-180.87 -303.83,-268.69 -101.86,-89.56 -205.46,-177.38 -310.86,-263.46 -103.6,-86.03 -208.99,-170.36 -316.13,-254.65 -107.14,-84.28 -214.28,-166.83 -323.15,-247.63 -108.88,-80.8 -217.76,-161.6 -328.43,-240.61 -110.63,-77.26 -223.04,-154.58 -335.45,-231.85 -112.42,-75.52 -226.57,-151.04 -340.73,-223.03 -114.16,-73.78 -230.06,-145.77 -346,-217.81 -115.9,-70.25 -233.59,-138.75 -352.98,-207.2 -117.69,-68.51 -237.12,-135.27 -356.56,-200.24 -119.43,-64.97 -240.61,-128.19 -361.78,-191.42 -122.97,-61.49 -244.15,-122.97 -368.81,-182.66 -122.97,-57.95 -247.68,-115.95 -372.34,-173.9 -124.71,-56.21 -251.16,-110.62 -377.62,-165.09 -126.45,-52.67 -252.9,-105.39 -381.1,-156.32 -128.24,-49.14 -258.18,-98.33 -388.17,-145.77 -128.2,-47.4 -259.93,-94.84 -389.86,-138.75 -131.73,-43.86 -263.46,-86.03 -396.94,-128.2 -131.73,-40.37 -265.2,-80.8 -398.67,-119.43 -135.27,-36.89 -268.74,-73.73 -403.96,-108.88 -135.21,-35.15 -272.22,-68.5 -407.49,-98.37 -136.95,-31.62 -273.96,-61.44 -412.71,-89.57 -136.96,-29.82 -275.71,-56.2 -414.46,-80.75 -138.75,-24.59 -279.29,-47.44 -417.99,-68.5 -140.54,-21.11 -281.04,-42.17 -423.27,-59.74 -140.54,-17.58 -282.78,-33.36 -425.06,-49.19 -142.24,-14.04 -284.52,-26.34 -428.5,-36.84 -144.03,-10.56 -286.31,-21.11 -432.08,-28.13 -144.03,-7.02 -288.01,-12.3 -433.78,-15.78 -145.77,-3.54 -291.54,-5.28 -437.36,-5.28l0 0 0 0 0 0 0 0 0 0 0 0 0 0 0 0 0 0 0 0 0 0 0 0 0 0 0 0 0 0 0 0 0 0 0 0 0 0 0 0 0 0 0 0 0 0 0 0 0 0 0 0 0 0 0 0 0 0 0 0 0 0 0 0 0 0 0 0 0 0 0 0 0 0 0 0 0 0 0 0 0 0 0 0 0 0 0 0 0 0 0 0 0 0 0 0 0 0 0 0 0 0 0 0 0 0 0 0 0 0 0 0 0 0 0 0 0 0 0 0 0 0 0 0 0 0 0 0zm0 2111.08c128.25,0 254.7,1.74 382.9,5.27 126.45,3.49 252.9,8.76 379.36,14.04 126.45,7.02 251.16,15.78 377.62,24.6 124.66,10.5 249.37,21.05 374.08,33.35 124.71,12.3 247.63,26.34 370.6,42.17 124.66,15.78 247.62,33.35 370.54,52.67 121.18,19.32 244.15,38.63 365.32,59.69 121.18,22.85 242.36,45.71 363.53,70.3 119.44,24.54 240.61,50.93 360.05,79.01 119.43,28.08 237.12,56.21 356.55,87.82 117.65,29.87 235.34,61.48 353.03,94.84 115.9,33.35 233.59,68.5 349.49,103.6 115.9,36.89 231.84,73.78 346,114.16 114.16,38.63 228.31,79.06 342.47,119.43 112.41,42.17 226.57,86.08 337.19,129.99 112.42,43.91 224.83,89.56 335.45,136.96 110.67,45.7 221.29,94.89 330.17,144.02 108.93,49.19 217.81,100.12 324.95,152.79 108.88,52.73 216.01,105.4 323.15,159.86 105.4,54.42 212.48,110.63 316.13,166.83 105.4,57.95 209,115.9 312.6,175.64 103.65,59.7 207.26,121.18 309.12,182.66 101.86,61.49 201.97,124.66 302.09,189.68 100.12,63.23 200.23,129.94 298.56,196.7 98.37,66.72 196.7,133.48 293.33,201.98 96.58,70.25 193.17,140.49 288.01,210.74 94.84,72.04 189.68,144.03 282.77,217.81 93.1,71.99 186.15,147.51 277.5,223.03 91.31,75.53 182.66,152.79 272.23,230.06 89.56,77.27 177.38,156.32 265.2,235.33 87.82,80.8 175.64,161.6 261.67,242.41 84.28,82.54 170.36,165.08 254.65,249.37 82.54,84.33 165.13,168.62 247.68,254.7 82.54,86.02 163.29,172.1 242.35,259.92 80.8,87.82 158.07,177.39 237.07,266.95 77.32,89.56 154.59,179.12 230.11,270.48 75.52,93.05 149.25,184.4 223.03,277.5 73.79,94.84 145.77,187.89 216.02,282.73 72.04,96.63 142.29,191.47 210.79,288.05 68.45,98.33 136.96,194.96 203.72,293.29 66.71,98.37 131.73,198.49 196.7,298.56 63.22,100.11 126.45,201.97 189.68,303.83 61.48,101.91 121.17,203.77 180.92,307.37 59.69,103.66 117.64,207.26 175.59,312.65 56.2,105.35 112.41,210.74 166.87,317.88 56.21,105.39 108.88,212.48 161.56,321.41 50.93,107.14 101.86,216.02 151.04,326.64 50.93,108.93 98.38,219.55 145.77,330.22 47.45,110.62 91.36,221.29 137.01,333.66 43.91,112.41 86.03,224.83 128.2,338.98 42.16,112.42 82.54,226.57 121.17,342.47 38.63,114.16 75.53,230.11 112.42,346.01 36.89,115.9 70.24,231.84 103.6,349.49 33.4,115.9 65.02,233.59 96.63,353.02 29.82,117.69 59.69,237.08 87.82,356.51 26.34,119.43 52.67,238.87 77.27,360.04 24.59,119.44 49.18,240.61 70.24,361.84 21.06,122.92 42.17,244.09 61.49,367.06 17.52,122.92 35.1,245.84 50.93,368.81 15.78,122.92 29.82,247.63 42.11,372.34 14.09,122.92 24.6,249.37 33.41,374.08 10.5,124.71 17.52,251.17 24.59,377.62 7.02,124.66 10.51,252.91 14.04,379.36 3.49,126.45 5.28,254.65 5.28,381.1 0,128.2 -1.79,254.65 -5.28,382.9 -3.53,126.45 -7.02,252.91 -14.04,379.36 -7.07,126.45 -14.09,251.11 -24.59,377.57 -8.81,124.71 -19.32,249.42 -33.41,374.08 -12.29,124.71 -26.33,247.68 -42.11,372.34 -15.83,122.97 -33.41,245.89 -50.93,368.86 -19.32,121.17 -40.43,244.09 -61.49,365.27 -21.06,121.22 -45.65,242.4 -70.24,363.58 -24.6,119.43 -50.93,240.61 -77.27,360.04 -28.13,119.43 -58,237.08 -87.82,356.51 -31.61,117.69 -63.23,235.33 -96.63,353.02 -33.36,117.69 -66.71,233.59 -103.6,349.49 -36.89,115.95 -73.79,231.85 -112.42,346.01 -38.63,114.15 -79.01,228.31 -121.17,342.47 -42.17,112.41 -84.29,226.57 -128.2,337.24 -45.65,112.36 -89.56,224.78 -137.01,335.45 -47.39,110.62 -94.84,221.29 -145.77,330.17 -49.18,108.88 -100.11,217.76 -151.04,326.69 -52.68,107.09 -105.35,214.22 -161.56,321.36 -54.46,105.4 -110.67,212.53 -166.87,316.13 -57.95,105.4 -115.9,209 -175.59,312.65 -59.75,103.61 -119.44,207.26 -180.92,309.12 -63.23,101.86 -126.46,201.97 -189.68,302.04 -64.97,100.12 -129.99,200.24 -196.7,298.61 -66.76,98.33 -135.27,196.7 -203.72,293.28 -68.5,96.59 -138.75,193.22 -210.79,288.06 -70.25,94.84 -142.23,189.68 -216.02,282.73 -73.78,93.09 -147.51,186.19 -223.03,277.5 -75.52,91.35 -152.79,182.66 -230.11,272.22 -79,89.56 -156.27,177.38 -237.07,265.2 -79.06,87.82 -159.81,175.65 -242.35,261.72 -82.55,84.29 -165.14,170.37 -247.68,254.65 -84.29,82.55 -170.37,165.09 -254.65,247.63 -86.03,82.55 -173.85,163.35 -261.67,242.35 -87.82,80.81 -175.64,158.07 -265.2,237.13 -89.57,77.27 -180.92,154.53 -272.23,230.06 -91.35,75.52 -184.4,149.3 -277.5,223.08 -93.09,73.73 -187.93,145.77 -282.77,216.02 -94.84,71.99 -191.43,142.23 -288.01,210.74 -96.63,68.5 -194.96,137 -293.33,203.72 -98.33,66.76 -198.44,131.73 -298.56,196.7 -100.12,63.22 -200.23,126.45 -302.09,189.68 -101.86,61.48 -205.47,121.22 -309.12,180.91 -103.6,59.7 -207.2,117.7 -312.6,175.64 -103.65,57.95 -210.73,112.42 -316.13,166.83 -107.14,56.21 -214.27,108.88 -323.15,161.61 -107.14,50.93 -216.02,101.86 -324.95,151.04 -108.88,50.93 -219.5,98.33 -330.17,145.77 -110.62,47.4 -223.03,93.05 -335.45,136.96 -110.62,43.91 -224.78,86.08 -337.19,128.25 -114.16,42.11 -228.31,82.54 -342.47,121.17 -114.16,38.64 -230.1,75.53 -346,112.42 -115.9,36.84 -233.59,70.24 -349.49,103.6 -117.69,33.35 -235.38,66.76 -353.03,96.58 -119.43,29.87 -237.12,59.74 -356.55,87.82 -119.44,26.34 -240.61,52.67 -360.05,77.27 -121.17,24.59 -242.35,49.19 -363.53,70.24 -121.17,21.11 -244.14,42.17 -365.32,61.49 -122.92,17.57 -245.88,35.15 -370.54,50.93 -122.97,15.83 -245.89,29.87 -370.6,42.17 -124.71,14.04 -249.42,24.59 -374.08,33.35 -126.46,10.56 -251.17,17.58 -377.62,24.6 -126.46,7.02 -252.91,10.55 -379.36,14.03 -128.2,3.54 -254.65,5.28 -382.9,5.28 -128.19,0 -254.65,-1.74 -381.1,-5.28 -128.19,-3.48 -254.65,-7.01 -379.36,-14.03 -126.45,-7.02 -252.9,-14.04 -377.62,-24.6 -124.66,-8.76 -251.11,-19.31 -374.08,-33.35 -124.66,-12.3 -249.37,-26.34 -372.34,-42.17 -122.92,-15.78 -245.84,-33.36 -368.8,-50.93 -122.92,-19.32 -244.15,-40.38 -367.07,-61.49 -121.17,-21.05 -242.35,-45.65 -361.78,-70.24 -121.18,-24.6 -240.61,-50.93 -360.05,-77.27 -119.43,-28.08 -238.86,-57.95 -356.55,-87.82 -119.39,-29.82 -237.08,-63.23 -352.98,-96.58 -117.69,-33.36 -233.59,-66.76 -349.54,-103.6 -115.9,-36.89 -231.79,-73.78 -345.95,-112.42 -115.95,-38.63 -230.11,-79.06 -342.52,-121.17 -114.16,-42.17 -226.52,-84.34 -338.93,-128.25 -112.42,-43.91 -223.04,-89.56 -333.71,-136.96 -110.62,-47.44 -221.29,-94.84 -330.17,-145.77 -110.68,-49.18 -219.55,-100.11 -326.69,-151.04 -108.88,-52.73 -216.02,-105.4 -321.41,-161.61 -107.14,-54.41 -212.48,-108.88 -317.88,-166.83 -105.39,-57.94 -208.99,-115.94 -312.6,-175.64 -103.65,-59.69 -205.51,-119.43 -307.37,-180.91 -101.86,-63.23 -203.72,-126.46 -303.83,-189.68 -100.12,-64.97 -200.24,-129.94 -298.56,-196.7 -98.38,-66.72 -194.96,-135.22 -293.33,-203.72 -96.59,-68.51 -191.43,-138.75 -288.01,-210.74 -94.84,-70.25 -187.94,-142.29 -282.78,-216.02 -93.09,-73.78 -184.4,-147.56 -277.5,-223.08 -91.3,-75.53 -180.86,-152.79 -270.48,-230.06 -89.56,-79.06 -179.12,-156.32 -266.94,-237.13 -87.82,-79 -173.85,-159.8 -259.93,-242.35 -86.08,-82.54 -170.36,-165.08 -254.65,-247.63 -84.33,-84.28 -166.88,-170.36 -249.42,-254.65 -80.75,-86.07 -161.55,-173.9 -242.35,-261.72 -79.01,-87.82 -158.07,-175.64 -235.33,-265.2 -77.27,-89.56 -154.59,-180.87 -230.11,-272.22 -75.52,-91.31 -151,-184.41 -223.03,-277.5 -73.79,-93.05 -145.77,-187.89 -217.76,-282.73 -70.25,-94.84 -140.55,-191.47 -210.79,-288.06 -68.46,-96.58 -135.22,-194.95 -201.98,-293.28 -66.71,-98.37 -133.47,-198.49 -196.7,-298.61 -64.97,-100.07 -128.19,-200.18 -189.68,-302.04 -61.43,-101.86 -122.92,-205.51 -182.66,-309.12 -59.69,-103.65 -117.64,-207.25 -175.59,-312.65 -56.21,-103.6 -112.41,-210.73 -166.88,-316.13 -54.41,-107.14 -107.13,-214.27 -159.81,-321.36 -52.67,-108.93 -103.6,-217.81 -152.79,-326.69 -49.18,-108.88 -98.37,-219.55 -144.02,-330.17 -47.4,-110.67 -93.1,-223.09 -137.01,-335.45 -43.91,-110.67 -87.82,-224.83 -129.94,-337.24 -40.42,-114.16 -80.8,-228.32 -119.43,-342.47 -40.38,-114.16 -77.27,-230.06 -114.16,-346.01 -35.15,-115.9 -70.24,-231.8 -103.65,-349.49 -33.36,-117.69 -64.97,-235.33 -94.84,-353.02 -31.61,-119.43 -59.69,-237.08 -87.77,-356.51 -28.13,-119.43 -54.47,-240.61 -79.06,-360.04 -24.59,-121.18 -47.39,-242.36 -70.25,-363.58 -21.05,-121.18 -40.37,-244.1 -59.69,-365.27 -19.36,-122.97 -36.89,-245.89 -52.72,-368.86 -15.78,-124.66 -29.87,-247.63 -42.12,-372.34 -12.29,-124.66 -22.85,-249.37 -33.4,-374.08 -8.76,-126.46 -17.58,-251.12 -24.6,-377.57 -5.22,-126.45 -10.5,-252.91 -14.04,-379.36 -3.48,-128.25 -5.27,-254.7 -5.27,-382.9 0,-126.45 1.79,-254.65 5.27,-381.1 3.54,-126.45 8.82,-254.7 14.04,-379.36 7.02,-126.45 15.84,-252.91 24.6,-377.62 10.55,-124.71 21.11,-251.16 33.4,-374.08 12.25,-124.71 26.34,-249.42 42.12,-372.34 15.83,-122.97 33.36,-245.89 52.72,-368.81 19.32,-122.97 38.64,-244.14 59.69,-367.06 22.86,-121.23 45.66,-242.4 70.25,-361.84 24.59,-121.17 50.93,-240.61 79.06,-360.04 28.08,-119.43 56.16,-238.82 87.77,-356.51 29.87,-119.43 61.48,-237.12 94.84,-353.02 33.41,-117.65 68.5,-233.59 103.65,-349.49 36.89,-115.9 73.78,-231.85 114.16,-346.01 38.63,-115.9 79.01,-230.05 119.43,-342.47 42.12,-114.15 86.03,-226.57 129.94,-338.98 43.91,-112.37 89.61,-223.04 137.01,-333.66 45.65,-110.67 94.84,-221.29 144.02,-330.22 49.19,-110.62 100.12,-219.5 152.79,-326.64 52.68,-108.93 105.4,-216.02 159.81,-321.41 54.47,-107.14 110.67,-212.53 166.88,-317.88 57.95,-105.39 115.9,-208.99 175.59,-312.65 59.74,-103.6 121.23,-205.46 182.66,-307.37 61.49,-101.86 124.71,-203.72 189.68,-303.83 63.23,-100.07 129.99,-200.19 196.7,-298.56 66.76,-98.33 133.52,-194.96 201.98,-293.29 70.24,-96.58 140.54,-191.42 210.79,-288.05 71.99,-94.84 143.97,-187.89 217.76,-282.73 72.03,-93.1 147.51,-184.45 223.03,-277.5 75.52,-91.36 152.84,-180.92 230.11,-270.48 77.26,-89.56 156.32,-179.13 235.33,-266.95 80.8,-87.82 161.6,-173.9 242.35,-259.92 82.54,-86.08 165.09,-170.37 249.42,-254.7 84.29,-84.29 168.57,-166.83 254.65,-249.37 86.08,-80.81 172.11,-161.61 259.93,-242.41 87.82,-79.01 177.38,-158.06 266.94,-235.33 89.62,-77.27 179.18,-154.53 270.48,-230.06 93.1,-75.52 184.41,-151.04 277.5,-223.03 94.84,-73.78 187.94,-145.77 282.78,-217.81 96.58,-70.25 191.42,-140.49 288.01,-210.74 98.37,-68.5 194.95,-135.26 293.33,-201.98 98.32,-66.76 198.44,-133.47 298.56,-196.7 100.11,-65.02 201.97,-128.19 303.83,-189.68 101.86,-61.48 203.72,-122.96 307.37,-182.66 103.61,-59.74 207.21,-117.69 312.6,-175.64 105.4,-56.2 210.74,-112.41 317.88,-166.83 105.39,-54.46 212.53,-107.13 321.41,-159.86 107.14,-52.67 216.01,-103.6 326.69,-152.79 108.88,-49.13 219.55,-98.32 330.17,-144.02 110.67,-47.4 221.29,-93.05 333.71,-136.96 112.41,-43.91 224.77,-87.82 338.93,-129.99 112.41,-40.37 226.57,-80.8 342.52,-119.43 114.16,-40.38 230.05,-77.27 345.95,-114.16 115.95,-35.1 231.85,-70.25 349.54,-103.6 115.9,-33.36 233.59,-64.97 352.98,-94.84 117.69,-31.61 237.12,-59.74 356.55,-87.82 119.44,-28.08 238.87,-54.47 360.05,-79.01 119.43,-24.59 240.61,-47.45 361.78,-70.3 122.92,-21.06 244.15,-40.37 367.07,-59.69 122.96,-19.32 245.88,-36.89 368.8,-52.67 122.97,-15.83 247.68,-29.87 372.34,-42.17 122.97,-12.3 249.42,-22.85 374.08,-33.35 124.72,-8.82 251.17,-17.58 377.62,-24.6 124.71,-5.28 251.17,-10.55 379.36,-14.04 126.45,-3.53 252.91,-5.27 381.1,-5.27z"/>
  <path fill="black" fill-rule="nonzero" d="M16932.43 20165.79c-28.07,0 -54.41,-1.74 -82.54,-1.74 -28.08,0 -56.16,-1.75 -82.54,-3.49 -28.08,-1.79 -56.21,-3.53 -82.55,-5.28 -28.07,-1.79 -54.41,-3.53 -82.54,-7.02 -26.33,-3.53 -54.41,-5.27 -80.8,-8.81 -26.34,-3.48 -54.41,-7.02 -80.75,-12.29 -26.34,-3.49 -52.72,-7.02 -80.8,-12.3 -26.34,-5.28 -52.67,-10.51 -79.06,-15.78 -26.33,-5.28 -52.67,-10.56 -77.26,-17.58 -26.34,-5.27 -52.68,-12.29 -79.01,-17.57 -24.6,-7.02 -50.93,-14.04 -77.32,-21.06 -24.54,-7.02 -50.93,-15.83 -75.47,-22.85 -24.6,-8.76 -50.98,-15.78 -75.53,-24.6 -24.59,-8.76 -49.18,-17.52 -75.52,-26.33 -24.59,-8.76 -49.19,-19.32 -73.78,-28.08 -22.85,-10.55 -47.45,-19.32 -71.99,-29.87 -24.59,-10.56 -49.19,-21.06 -72.04,-31.61 -24.59,-10.56 -47.39,-21.06 -71.99,-33.36 -22.85,-10.55 -45.65,-22.85 -70.24,-35.15 -22.85,-12.3 -45.71,-22.8 -68.51,-36.89 -22.85,-12.3 -45.65,-24.54 -68.5,-36.84 -22.85,-14.09 -43.91,-26.39 -66.76,-40.42 -22.8,-14.04 -43.86,-26.34 -66.71,-40.38 -21.06,-14.04 -42.17,-28.13 -64.97,-43.91 -21.11,-14.04 -42.17,-28.13 -63.23,-43.91 -21.11,-15.83 -42.17,-29.87 -63.23,-45.65 -21.1,-15.83 -40.42,-31.62 -61.48,-47.45 -21.06,-15.78 -40.38,-31.61 -59.74,-49.19 -21.06,-15.78 -40.38,-33.35 -59.69,-49.13 -19.32,-17.58 -38.64,-35.15 -57.95,-52.73 -19.32,-15.78 -38.64,-33.35 -56.21,-52.67 -19.32,-17.57 -38.63,-35.15 -56.21,-52.67 -17.57,-19.32 -36.89,-36.89 -54.46,-56.21 -17.53,-19.31 -35.1,-36.89 -52.67,-56.2 -17.58,-19.32 -35.1,-38.64 -50.93,-57.95 -17.58,-21.11 -33.36,-40.43 -50.93,-59.75 -15.78,-19.31 -31.62,-40.37 -49.19,-61.43 -15.78,-19.37 -31.61,-40.43 -45.65,-61.48 -15.78,-19.32 -31.62,-40.43 -47.4,-61.49 -14.09,-21.06 -28.13,-43.91 -43.91,-64.97 -14.09,-21.11 -28.13,-42.17 -42.17,-64.97 -14.04,-21.11 -28.12,-43.91 -42.16,-65.02 -12.3,-22.8 -26.34,-45.65 -38.64,-68.5 -14.04,-22.8 -26.33,-45.65 -38.63,-68.45 -12.3,-22.86 -24.59,-45.71 -36.89,-68.51 -12.3,-22.85 -22.8,-45.65 -35.1,-70.24 -10.55,-22.86 -21.11,-47.45 -31.61,-70.25 -12.3,-24.59 -22.85,-49.19 -31.61,-72.04 -10.56,-24.59 -21.11,-49.19 -29.88,-73.78 -10.55,-24.54 -19.31,-49.14 -28.12,-73.73 -10.51,-24.6 -19.32,-49.19 -26.34,-75.53 -8.76,-24.59 -17.52,-49.18 -24.59,-73.78 -8.77,-26.33 -15.79,-50.93 -22.81,-77.26 -7.02,-24.6 -14.03,-50.93 -21.1,-77.27 -7.02,-26.33 -14.04,-50.93 -19.32,-77.26 -5.23,-26.39 -12.3,-52.73 -17.52,-79.06 -5.28,-26.34 -10.56,-52.67 -14.09,-79.01 -5.23,-26.39 -10.51,-52.72 -14.04,-79.06 -3.49,-28.08 -7.02,-54.46 -10.51,-80.8 -3.53,-28.08 -7.07,-54.42 -10.55,-82.54 -1.74,-26.34 -3.54,-54.42 -7.02,-80.8 -1.79,-28.08 -3.54,-54.42 -5.28,-82.55 0,-28.08 -1.74,-54.41 -1.74,-82.54 -1.79,-28.08 -1.79,-56.21 -1.79,-84.29 0,-28.07 0,-54.46 1.79,-82.54 0,-28.13 1.74,-56.21 1.74,-82.54 1.74,-28.13 3.49,-56.21 5.28,-82.55 3.48,-28.12 5.28,-54.46 7.02,-82.54 3.48,-26.34 7.02,-54.46 10.55,-80.8 3.49,-26.34 7.02,-54.46 10.51,-80.8 3.53,-26.34 8.81,-52.67 14.04,-80.8 3.53,-26.34 8.81,-52.67 14.09,-79.01 5.22,-26.34 12.29,-52.67 17.52,-77.27 5.28,-26.33 12.3,-52.72 19.32,-79.05 7.07,-24.6 14.08,-50.93 21.1,-77.27 7.02,-24.59 14.04,-50.93 22.81,-75.52 7.07,-24.6 15.83,-50.93 24.59,-75.53 7.02,-24.59 15.83,-49.18 26.34,-75.52 8.81,-24.59 17.57,-49.19 28.12,-73.78 8.77,-22.8 19.32,-47.4 29.88,-71.99 8.76,-24.59 19.31,-49.19 31.61,-71.99 10.5,-24.59 21.06,-47.44 31.61,-72.04 12.3,-22.8 22.8,-45.65 35.1,-70.24 12.3,-22.81 24.59,-45.66 36.89,-68.51 12.3,-22.8 24.59,-45.65 38.63,-68.45 12.3,-22.85 26.34,-43.91 38.64,-66.76 14.04,-22.86 28.12,-43.91 42.16,-66.77 14.04,-21.05 28.08,-42.11 42.17,-64.97 15.78,-21.05 29.82,-42.16 43.91,-63.22 15.78,-21.06 31.62,-42.17 47.4,-63.23 14.04,-21.06 29.87,-40.37 45.65,-61.48 17.57,-21.06 33.41,-40.38 49.19,-59.69 17.57,-21.06 33.35,-40.38 50.93,-59.7 15.83,-19.36 33.35,-38.68 50.93,-58 17.57,-19.31 35.14,-38.63 52.67,-56.2 17.57,-19.32 36.89,-38.64 54.46,-56.16 17.58,-17.57 36.89,-36.89 56.21,-54.46 17.57,-17.58 36.89,-35.15 56.21,-52.68 19.31,-17.57 38.63,-35.15 57.95,-50.93 19.31,-17.57 38.63,-33.4 59.69,-50.93 19.36,-15.83 38.68,-31.61 59.74,-49.18 21.06,-15.84 40.38,-31.62 61.48,-45.66 21.06,-15.83 42.12,-31.61 63.23,-47.44 21.06,-14.04 42.12,-28.08 63.23,-43.91 22.8,-14.04 43.91,-28.08 64.97,-42.17 22.85,-14.04 43.91,-28.08 66.71,-42.12 22.85,-12.29 43.91,-26.33 66.76,-38.63 22.85,-14.09 45.65,-26.39 68.5,-38.63 22.8,-12.3 45.66,-24.6 68.51,-36.89 24.59,-10.56 47.39,-22.86 70.24,-35.15 24.6,-10.56 47.4,-21.06 71.99,-31.62 22.85,-12.29 47.45,-22.8 72.04,-31.61 24.54,-10.55 49.14,-21.06 71.99,-29.87 24.59,-10.5 49.19,-19.32 73.78,-28.08 26.34,-10.55 50.93,-19.32 75.52,-26.34 24.55,-8.81 50.93,-17.57 75.53,-24.59 24.54,-8.76 50.93,-15.83 75.47,-22.85 26.39,-7.02 52.72,-14.04 77.32,-21.06 26.33,-7.02 52.67,-12.3 79.01,-19.32 24.59,-5.27 50.93,-12.29 77.26,-17.57 26.39,-5.28 52.72,-10.55 79.06,-14.04 28.08,-5.28 54.46,-10.55 80.8,-14.04 26.34,-3.53 54.41,-7.02 80.75,-10.55 26.39,-3.54 54.47,-7.02 80.8,-10.56 28.13,-1.74 54.47,-5.22 82.54,-7.02 26.34,-1.74 54.47,-3.48 82.55,-5.27 26.38,0 54.46,-1.75 82.54,-1.75 28.13,-1.74 54.47,-1.74 82.54,-1.74 28.13,0 56.21,0 84.34,1.74 28.08,0 54.41,1.75 82.54,1.75 28.08,1.79 54.42,3.53 82.55,5.27 26.33,1.8 54.46,5.28 80.8,7.02 28.07,3.54 54.41,7.02 82.54,10.56 26.34,3.53 52.67,7.02 80.8,10.55 26.34,3.49 52.67,8.76 79.01,14.04 26.33,3.49 52.67,8.76 79.06,14.04 26.33,5.28 52.67,12.3 79,17.57 26.34,7.02 50.93,12.3 77.27,19.32 26.34,7.02 52.72,14.04 77.27,21.06 26.38,7.02 50.98,14.09 77.31,22.85 24.6,7.02 49.14,15.78 75.53,24.59 24.59,7.02 49.13,15.79 73.73,26.34 24.59,8.76 49.18,17.58 73.78,28.08 24.59,8.81 49.19,19.32 73.78,29.87 22.8,8.81 47.39,19.32 71.99,31.61 22.85,10.56 47.44,21.06 70.24,31.62 22.86,12.29 47.45,24.59 70.25,35.15 22.85,12.29 45.65,24.59 68.5,36.89 22.86,12.24 45.66,24.54 68.51,38.63 22.85,12.3 45.65,26.34 68.5,38.63 21.06,14.04 43.91,28.08 64.97,42.12 22.85,14.09 43.91,28.13 64.97,42.17 21.11,15.83 43.91,29.87 65.02,43.91 21.06,15.83 42.12,31.61 61.43,47.44 21.11,14.04 42.17,29.82 61.49,45.66 21.06,17.57 40.37,33.35 61.48,49.18 19.32,17.53 38.63,33.36 59.69,50.93 19.32,15.78 38.64,33.36 57.95,50.93 19.32,17.53 36.89,35.1 56.21,52.68 19.32,17.57 36.89,36.89 56.21,54.46 17.57,17.52 35.14,36.84 52.67,56.16 19.37,17.57 36.89,36.89 52.72,56.2 17.58,19.32 35.1,38.64 52.67,58 15.83,19.32 33.36,38.64 49.19,59.7 17.57,19.31 33.36,38.63 49.19,59.69 15.78,21.11 31.61,40.42 47.39,61.48 15.83,21.06 29.87,42.17 45.66,63.23 15.83,21.06 29.87,42.17 43.91,63.22 15.83,22.86 29.87,43.92 43.91,64.97 14.09,22.86 26.33,43.91 40.42,66.77 14.04,22.85 26.34,43.91 40.38,66.76 12.29,22.8 24.59,45.65 36.89,68.45 14.04,22.85 24.59,45.7 36.89,68.51 12.29,24.59 24.59,47.44 35.1,70.24 12.29,24.6 22.85,47.45 33.4,72.04 10.51,22.8 21.06,47.4 31.61,71.99 10.51,24.59 19.32,49.19 29.83,71.99 8.81,24.59 19.31,49.19 28.12,73.78 8.77,26.34 17.58,50.93 26.34,75.52 8.76,24.6 15.78,50.93 24.59,75.53 7.02,24.59 15.79,50.93 22.81,75.52 7.06,26.34 14.08,52.67 21.1,77.27 5.28,26.33 12.3,52.72 17.58,79.05 7.02,24.6 12.25,50.93 17.52,77.27 5.28,26.34 10.56,52.67 15.83,79.01 5.28,28.13 8.77,54.46 12.3,80.8 5.28,26.34 8.76,54.46 12.3,80.8 3.48,26.34 5.27,54.46 8.76,80.8 3.53,28.08 5.28,54.42 7.02,82.54 1.74,26.34 3.53,54.42 5.28,82.55 1.74,26.33 3.53,54.41 3.53,82.54 0,28.08 1.74,54.47 1.74,82.54 0,28.08 -1.74,56.21 -1.74,84.29 0,28.13 -1.79,54.46 -3.53,82.54 -1.75,28.13 -3.54,54.47 -5.28,82.55 -1.74,26.38 -3.49,54.46 -7.02,80.8 -3.49,28.12 -5.28,54.46 -8.76,82.54 -3.54,26.34 -7.02,52.72 -12.3,80.8 -3.53,26.34 -7.02,52.67 -12.3,79.06 -5.27,26.34 -10.55,52.67 -15.83,79.01 -5.27,26.33 -10.5,52.67 -17.52,79.06 -5.28,26.33 -12.3,50.93 -17.58,77.26 -7.02,26.34 -14.04,52.67 -21.1,77.27 -7.02,26.33 -15.79,50.93 -22.81,77.26 -8.81,24.6 -15.83,49.19 -24.59,73.78 -8.76,26.34 -17.57,50.93 -26.34,75.53 -8.81,24.59 -19.31,49.19 -28.12,73.73 -10.51,24.59 -19.32,49.19 -29.83,73.78 -10.55,22.85 -21.1,47.45 -31.61,72.04 -10.55,22.8 -21.11,47.39 -33.4,70.25 -10.51,24.59 -22.81,47.39 -35.1,70.24 -12.3,22.8 -22.85,45.65 -36.89,68.51 -12.3,22.8 -24.6,45.65 -36.89,68.45 -14.04,22.85 -26.34,45.7 -40.38,68.5 -14.09,21.11 -26.33,43.91 -40.42,65.02 -14.04,22.8 -28.08,43.86 -43.91,64.97 -14.04,21.06 -28.08,43.91 -43.91,64.97 -15.79,21.06 -29.83,42.17 -45.66,61.49 -15.78,21.05 -31.61,42.11 -47.39,61.48 -15.83,21.06 -31.62,42.12 -49.19,61.43 -15.83,19.32 -33.36,38.64 -49.19,59.75 -17.57,19.31 -35.09,38.63 -52.67,57.95 -15.83,19.31 -33.35,36.89 -52.72,56.2 -17.53,19.32 -35.1,36.89 -52.67,56.21 -19.32,17.52 -36.89,35.1 -56.21,52.67 -19.32,19.32 -36.89,36.89 -56.21,52.67 -19.31,17.58 -38.63,35.15 -57.95,52.73 -21.06,15.78 -40.37,33.35 -59.69,49.13 -21.11,17.58 -40.42,33.41 -61.48,49.19 -19.32,15.83 -40.38,31.62 -61.49,47.45 -19.31,15.78 -40.37,29.82 -61.43,45.65 -21.11,15.78 -43.91,29.87 -65.02,43.91 -21.06,15.78 -42.12,29.87 -64.97,43.91 -21.06,14.04 -43.91,26.34 -64.97,40.38 -22.85,14.03 -45.65,26.33 -68.5,40.42 -22.85,12.3 -45.65,24.54 -68.51,36.84 -22.85,14.09 -45.65,24.59 -68.5,36.89 -22.8,12.3 -47.39,24.6 -70.25,35.15 -22.8,12.3 -47.39,22.8 -70.24,33.36 -24.6,10.55 -49.19,21.05 -71.99,31.61 -24.59,10.55 -49.19,19.32 -73.78,29.87 -24.6,8.76 -49.19,19.32 -73.78,28.08 -24.6,8.81 -49.14,17.57 -73.73,26.33 -26.39,8.82 -50.93,15.84 -75.53,24.6 -26.33,7.02 -50.93,15.83 -77.31,22.85 -24.55,7.02 -50.93,14.04 -77.27,21.06 -26.34,5.28 -50.93,12.3 -77.27,17.57 -26.33,7.02 -52.67,12.3 -79,17.58 -26.39,5.27 -52.73,10.5 -79.06,15.78 -26.34,5.28 -52.67,8.81 -79.01,12.3 -28.13,5.27 -54.46,8.81 -80.8,12.29 -28.13,3.54 -54.47,5.28 -82.54,8.81 -26.34,3.49 -54.47,5.23 -80.8,7.02 -28.13,1.75 -54.47,3.49 -82.55,5.28 -28.13,1.74 -54.46,3.49 -82.54,3.49 -28.13,0 -56.21,1.74 -84.34,1.74zm7857.68 -1612.28l0 -3242.09 -2154.98 0c-1.75,-7.07 -3.49,-14.09 -5.23,-21.11 -3.54,-7.02 -5.28,-14.04 -7.07,-21.06 -1.74,-5.27 -3.48,-12.29 -5.23,-19.31 -3.53,-7.02 -5.27,-14.04 -7.02,-21.06 -1.79,-7.07 -3.53,-14.09 -5.27,-21.11 -3.54,-7.02 -5.28,-14.04 -7.02,-21.06 -1.8,-7.02 -3.54,-14.04 -7.07,-21.06 -1.75,-7.07 -3.49,-12.3 -5.23,-19.37 -3.54,-7.02 -5.28,-14.04 -7.02,-21.06 -1.79,-7.01 -5.28,-14.03 -7.07,-21.05 -1.74,-7.02 -3.48,-14.04 -7.02,-19.32 -1.74,-7.02 -3.48,-14.04 -5.28,-21.11 -3.48,-7.02 -5.22,-14.04 -7.02,-21.06 -3.48,-7.02 -5.22,-14.04 -7.02,-19.31 -3.48,-7.02 -5.27,-14.04 -7.02,-21.06 -3.48,-7.02 -5.27,-14.09 -7.02,-21.11 -3.53,-7.02 -5.27,-12.3 -7.01,-19.32 -3.54,-7.02 -5.28,-14.04 -7.02,-21.06 -3.54,-7.02 -5.28,-14.04 -7.02,-19.31 -3.54,-7.02 -5.28,-14.04 -8.82,-21.06 -1.74,-7.07 -3.48,-14.09 -7.02,-19.32 -1.74,-7.07 -5.27,-14.09 -7.02,-21.11 -1.74,-7.02 -5.27,-14.04 -7.01,-19.32 -3.54,-7.01 -5.28,-14.03 -8.77,-21.05 -1.79,-7.02 -3.53,-14.04 -7.07,-19.32 -1.74,-7.02 -5.22,-14.04 -7.02,-21.11 -3.48,-7.02 -5.22,-12.3 -8.76,-19.32 -1.74,-7.02 -5.28,-14.04 -7.02,-19.31 -3.53,-7.02 -5.27,-14.04 -8.81,-21.06 -1.74,-7.02 -5.23,-12.3 -7.02,-19.32 -3.48,-7.02 -5.23,-14.04 -8.76,-19.31 -1.74,-7.02 -5.28,-14.04 -8.76,-21.06 -1.8,-7.07 -5.28,-12.3 -7.07,-19.37 -3.49,-7.02 -5.23,-14.04 -8.77,-19.32 -1.74,-7.02 -5.27,-14.04 -8.76,-21.06 -1.79,-5.27 -5.27,-12.29 -7.02,-19.31 -3.53,-5.28 -7.07,-12.3 -8.81,-19.32 -3.48,-7.02 -7.02,-12.3 -8.76,-19.31 -3.54,-7.02 -5.28,-14.04 -8.81,-19.32 -3.49,-7.02 -5.23,-14.04 -8.76,-19.32 -3.54,-7.02 -5.28,-14.04 -8.77,-19.31 -3.53,-7.02 -5.27,-14.04 -8.81,-21.11 -3.48,-5.23 -5.28,-12.3 -8.76,-19.32 -3.54,-5.23 -5.28,-12.3 -8.81,-19.32 -3.49,-5.27 -7.02,-12.29 -8.77,-19.31 -3.48,-5.28 -7.01,-12.3 -10.55,-19.32 -1.74,-5.28 -5.23,-12.3 -8.76,-19.32 -1.74,-5.27 -5.28,-12.29 -8.76,-19.31 -3.54,-5.28 -7.02,-12.3 -8.82,-19.32 -3.48,-5.28 -7.02,-12.3 -10.5,-17.57 -1.79,-7.02 -5.28,-14.04 -8.81,-19.32 -3.49,-7.02 -7.02,-14.04 -8.76,-19.32 -3.54,-7.02 -7.02,-12.29 -10.56,-19.31 -3.48,-7.02 -7.02,-12.3 -8.76,-19.32 -3.54,-5.28 -7.02,-12.3 -10.55,-19.32 -3.49,-5.27 -7.02,-12.29 -8.77,-17.57 -3.53,-7.02 -7.02,-14.04 -10.55,-19.32 -3.54,-7.02 -7.02,-12.29 -10.56,-19.31 -3.48,-5.28 -7.02,-12.3 -8.76,-19.32 -3.53,-5.28 -7.02,-12.3 -10.55,-17.57 -3.49,-7.02 -7.02,-12.3 -10.51,-19.32 -3.53,-5.28 -7.02,-12.3 -10.55,-19.32 -3.54,-5.27 -7.02,-12.29 -10.56,-17.57 -3.48,-7.02 -7.02,-12.3 -10.5,-19.32l24.59 -22.8 24.55 -24.59 22.85 -22.85 24.59 -24.6 22.85 -22.8 24.55 -24.59 22.85 -24.6 24.59 -22.85 22.85 -24.59 24.55 -22.8 22.85 -24.6 24.59 -22.85 24.6 -24.59 22.8 -22.8 24.59 -24.6 22.85 -22.85 24.6 -24.59 22.8 -22.8 24.59 -24.6 22.85 -24.59 24.6 -22.85 22.8 -24.54 24.59 -22.86 22.85 -24.59 24.6 -22.85 24.59 -24.59 22.8 -22.81 24.59 -24.59 22.86 -22.85 24.59 -24.54 22.8 -22.86 24.59 -24.59 22.86 -24.59 24.59 -22.8 22.8 -24.6 24.59 -22.85 24.6 -24.59 22.85 -22.8 24.59 -24.6 22.8 -22.85 24.6 -24.59 22.85 -22.8 24.59 -24.6 22.8 -24.59 24.6 -22.85 22.85 -24.6 24.59 -22.8 22.8 -24.59 24.6 -22.85 24.59 -24.6 22.85 -22.8 24.55 -24.59 22.85 -22.85 24.59 -24.6 22.85 -22.8 24.55 -24.59 22.85 -24.6 24.59 -22.85 22.85 -24.59 24.55 -22.8 22.85 -24.6 24.59 -22.85 24.59 -24.59 22.81 -22.8 -35.1 -36.89 -36.89 -35.15 -35.1 -36.84 -35.15 -35.15 -36.89 -35.15 -35.1 -36.84 -36.89 -35.15 -35.15 -35.15 -35.09 -36.84 -36.89 -35.14 -35.15 -36.89 -36.89 -35.1 -35.1 -35.15 -35.15 -36.89 -36.89 -35.1 -35.1 -36.89 -36.89 -35.15 -35.1 -35.1 -35.15 -36.89 -36.89 -35.15 -35.09 -36.84 -36.89 -35.14 -35.15 -35.15 -35.1 -36.84 -36.89 -35.15 -35.15 -36.89 -36.89 -35.1 -35.1 -35.15 -35.15 -36.89 -36.89 -35.1 -35.09 -36.89 -36.9 -35.15 -35.09 -35.09 -35.15 -36.89 -36.89 -35.15 -35.1 -36.84 -36.89 -35.15 -35.15 -35.15 -35.1 -36.84 -36.89 -35.15 -35.15 -36.89 -35.09 -35.1 -36.89 -35.15 -35.15 -36.89 -36.89 -35.09 -35.1 -35.15 -35.15 -36.89 -36.84 -35.1 -35.15 -36.89 -36.89 -35.15 -35.1 -35.1 -35.14 -36.89 -36.9 -35.15 -35.09 -36.84 -36.89 -35.15 -35.15 -35.14 -35.1 -36.84 -36.89 -35.15 -35.15 -36.89 -36.89 -35.1 -35.1 -35.15 -35.15 -36.89 -36.84 -35.1 -35.14 -36.89 -24.6 24.6 -22.85 22.8 -24.54 24.59 -22.85 24.59 -24.6 22.86 -22.85 24.59 -24.54 22.8 -24.6 24.59 -22.85 22.86 -24.59 24.59 -22.8 22.8 -24.6 24.59 -22.85 22.86 -24.59 24.59 -22.8 22.8 -24.6 24.59 -22.85 24.6 -24.59 22.85 -22.8 24.59 -24.6 22.8 -24.59 24.6 -22.85 22.85 -24.59 24.59 -22.81 22.8 -24.59 24.6 -22.85 22.85 -24.59 24.59 -22.81 24.55 -24.59 22.85 -22.85 24.59 -24.59 22.85 -22.81 24.55 -24.59 22.85 -24.59 24.59 -22.85 22.85 -24.6 24.6 -22.8 22.8 -24.59 24.59 -22.85 22.85 -24.6 24.6 -22.8 24.54 -24.59 22.85 -22.85 24.6 -24.6 22.85 -24.54 24.54 -22.85 22.85 -24.6 24.6 -22.85 22.8 -24.54 24.59 -22.85 22.85 -24.6 24.6 -22.85 22.8 -24.54 24.59 -22.85 24.59 -24.6 22.86 -22.85 24.59 -24.54 22.8 -24.6 24.59 -22.85 22.86 -24.59 24.59 -22.8 22.8 -24.6 24.59 -22.85 22.86 -24.59 24.59c-5.28,-3.53 -12.3,-7.02 -17.57,-10.55 -7.02,-3.49 -12.3,-7.02 -19.32,-10.56 -7.02,-3.48 -12.3,-7.02 -19.32,-10.5 -5.27,-3.54 -12.29,-5.28 -17.57,-8.82 -7.02,-3.48 -12.25,-7.02 -19.32,-10.5 -7.02,-3.53 -12.29,-7.02 -19.31,-10.55 -5.23,-3.54 -12.3,-7.02 -17.53,-8.77 -7.07,-3.53 -14.09,-7.02 -19.31,-10.55 -7.07,-3.54 -12.3,-7.02 -19.37,-10.56 -5.23,-1.74 -12.25,-5.22 -19.32,-8.76 -5.23,-3.53 -12.29,-7.02 -19.31,-10.55 -5.23,-3.49 -12.3,-5.28 -17.53,-8.76 -7.07,-3.54 -14.09,-7.02 -19.31,-10.56 -7.07,-1.74 -12.3,-5.28 -19.37,-8.76 -7.02,-3.54 -12.25,-5.28 -19.32,-8.81 -7.02,-3.49 -12.29,-7.02 -19.31,-10.51 -7.02,-1.74 -12.3,-5.27 -19.32,-8.81 -7.02,-3.48 -12.3,-5.23 -19.32,-8.76 -7.02,-3.54 -12.29,-7.02 -19.31,-8.76 -7.02,-3.54 -12.3,-7.02 -19.32,-8.81 -7.02,-3.49 -12.3,-7.02 -19.32,-8.77 -7.02,-3.53 -12.29,-7.02 -19.31,-10.55 -7.02,-1.74 -12.3,-5.28 -19.32,-8.76 -7.02,-1.8 -12.3,-5.28 -19.32,-8.82 -7.02,-1.74 -14.04,-5.22 -19.31,-8.76 -7.02,-1.74 -14.04,-5.27 -19.32,-7.02 -7.02,-3.53 -14.04,-7.02 -21.11,-8.76 -5.23,-3.53 -12.24,-7.07 -19.31,-8.81 -7.02,-3.49 -12.3,-5.28 -19.32,-8.76 -7.02,-1.8 -12.3,-5.28 -19.32,-8.82 -7.02,-1.74 -14.04,-5.27 -19.31,-7.02 -7.02,-3.48 -14.04,-5.27 -21.06,-8.76 -5.28,-3.53 -12.3,-5.27 -19.32,-8.81 -7.02,-1.74 -14.04,-5.23 -19.32,-7.02 -7.02,-3.48 -14.03,-5.23 -21.1,-8.76 -5.23,-1.74 -12.25,-5.28 -19.32,-7.02 -7.02,-3.54 -14.04,-5.28 -19.32,-8.81 -7.02,-1.74 -14.04,-5.23 -21.06,-7.02 -7.02,-3.49 -12.29,-5.23 -19.31,-8.76 -7.02,-1.75 -14.04,-3.54 -21.06,-7.02 -5.28,-1.75 -12.3,-5.28 -19.32,-7.02 -7.07,-3.54 -14.09,-5.28 -21.11,-8.82 -5.27,-1.74 -12.29,-3.48 -19.31,-7.02 -7.02,-1.74 -14.04,-5.27 -21.06,-7.01 -5.28,-1.75 -12.3,-5.28 -19.32,-7.02 -7.02,-1.75 -14.04,-5.28 -21.11,-7.02 -7.02,-3.54 -12.24,-5.28 -19.31,-7.02 -7.02,-3.54 -14.04,-5.28 -21.06,-7.02 -7.02,-3.54 -14.04,-5.28 -19.32,-7.02 -7.02,-3.54 -14.04,-5.28 -21.06,-7.07 -7.02,-3.49 -14.09,-5.23 -21.11,-7.02 -7.02,-1.74 -12.29,-5.28 -19.31,-7.02 -7.02,-1.74 -14.04,-5.28 -21.06,-7.02 -7.02,-1.74 -14.04,-3.49 -21.06,-7.02 -7.02,-1.74 -14.09,-3.54 -19.32,-5.28 -7.07,-3.48 -14.09,-5.28 -21.11,-7.02 -7.02,-1.74 -14.04,-5.28 -21.06,-7.02 -7.02,-1.74 -14.03,-3.53 -21.05,-5.27 -7.07,-3.49 -14.09,-5.28 -21.11,-7.02 -5.28,-1.75 -12.3,-3.54 -19.32,-7.02 -7.02,-1.75 -14.04,-3.54 -21.06,-5.28 -7.02,-1.74 -14.04,-3.49 -21.06,-7.02 -7.07,-1.74 -14.09,-3.54 -21.11,-5.28 -7.02,-1.74 -14.04,-3.48 -21.06,-5.28l0 -35.09 0 -33.41 0 -33.36 0 -33.35 0 -33.36 0 -33.4 0 -35.1 0 -33.36 0 -33.4 0 -33.36 0 -33.35 0 -33.41 0 -35.1 0 -33.35 0 -33.41 0 -33.35 0 -33.36 0 -33.41 0 -35.09 0 -33.36 0 -33.41 0 -33.35 0 -33.36 0 -33.4 0 -35.1 0 -33.36 0 -33.4 0 -33.36 0 -33.35 0 -33.36 0 -35.15 0 -33.35 0 -33.41 0 -33.36 0 -33.35 0 -33.36 0 -35.15 0 -33.35 0 -33.36 0 -33.4 0 -33.36 0 -33.35 0 -35.15 0 -33.36 0 -33.35 0 -33.41 0 -33.36 0 -33.35 0 -35.15 0 -33.36 0 -33.35 0 -33.41 0 -33.35 0 -35.15 0 -33.36 0 -33.35 0 -33.36 0 -33.4 0 -33.36 0 -35.1 0 -33.4 0 -33.36 0 -33.36 0 -33.4 -50.93 0 -49.18 0 -50.93 0 -50.93 0 -50.93 0 -50.93 0 -50.93 0 -50.93 0 -49.19 0 -50.93 0 -50.93 0 -50.93 0 -50.93 0 -50.93 0 -49.18 0 -50.93 0 -50.93 0 -50.93 0 -50.93 0 -50.93 0 -49.19 0 -50.93 0 -50.93 0 -50.93 0 -50.93 0 -50.93 0 -50.98 0 -49.14 0 -50.93 0 -50.93 0 -50.93 0 -50.98 0 -50.93 0 -49.13 0 -50.93 0 -50.93 0 -50.98 0 -50.93 0 -50.93 0 -50.93 0 -49.14 0 -50.98 0 -50.93 0 -50.93 0 -50.93 0 -50.93 0 -49.19 0 -50.93 0 -50.93 0 -50.93 0 -50.92 0 -50.93 0 -49.19 0 -50.93 0 -50.93 0 -50.93 0 -50.93 0 -50.93 0 -50.93 0 -49.19 0 -50.93 0 -50.93 0 -50.93 0 -50.93 0 0 33.4 0 33.36 0 33.36 0 33.4 0 35.1 0 33.36 0 33.4 0 33.36 0 33.35 0 33.36 0 35.15 0 33.35 0 33.41 0 33.35 0 33.36 0 35.15 0 33.35 0 33.36 0 33.41 0 33.35 0 33.36 0 35.15 0 33.35 0 33.36 0 33.4 0 33.36 0 33.35 0 35.15 0 33.36 0 33.35 0 33.36 0 33.41 0 33.35 0 35.15 0 33.36 0 33.35 0 33.36 0 33.4 0 33.36 0 35.1 0 33.4 0 33.36 0 33.35 0 33.41 0 33.36 0 35.09 0 33.41 0 33.36 0 33.35 0 33.41 0 33.35 0 35.1 0 33.41 0 33.35 0 33.36 0 33.4 0 33.36 0 35.1 0 33.4 0 33.36 0 33.35 0 33.36 0 33.41 0 35.09c-7.02,1.8 -14.04,3.54 -21.06,5.28 -7.02,1.74 -14.04,3.54 -21.1,5.28 -5.23,3.53 -12.3,5.28 -19.32,7.02 -7.02,1.74 -14.04,3.53 -21.06,5.28 -7.02,3.48 -14.04,5.27 -21.06,7.02 -7.02,1.74 -14.09,3.53 -21.11,7.02 -7.02,1.74 -14.04,3.53 -21.06,5.27 -5.27,1.74 -12.29,5.28 -19.31,7.02 -7.02,1.74 -14.04,3.54 -21.06,7.02 -7.02,1.74 -14.09,3.54 -21.11,5.28 -7.02,3.53 -14.04,5.28 -19.32,7.02 -7.02,1.74 -14.04,5.28 -21.06,7.02 -7.02,1.74 -14.04,5.28 -21.06,7.02 -7.06,1.79 -14.08,3.53 -19.31,7.02 -7.07,1.79 -14.09,3.53 -21.11,7.07 -7.02,1.74 -14.04,3.48 -21.06,7.02 -7.02,1.74 -12.3,3.48 -19.32,7.02 -7.02,1.74 -14.04,3.48 -21.1,7.02 -7.02,1.74 -14.04,5.27 -19.32,7.02 -7.02,1.74 -14.04,5.27 -21.06,7.02 -7.02,1.74 -14.04,5.27 -19.32,7.01 -7.02,3.54 -14.04,5.28 -21.06,7.02 -7.02,3.54 -14.08,5.28 -19.31,8.82 -7.02,1.74 -14.09,5.27 -21.11,7.02 -7.02,3.48 -12.3,5.27 -19.32,7.02 -7.02,3.53 -14.04,5.27 -21.06,8.76 -7.02,1.79 -12.29,5.28 -19.31,7.02 -7.02,3.53 -14.04,5.27 -19.32,8.81 -7.02,1.74 -14.04,5.28 -21.11,7.02 -7.02,3.53 -12.25,5.28 -19.31,8.76 -7.02,1.79 -14.04,5.28 -19.32,7.02 -7.02,3.54 -14.04,5.28 -21.06,8.81 -7.02,3.49 -12.3,5.28 -19.32,8.76 -7.02,1.75 -14.04,5.28 -19.31,7.02 -7.02,3.54 -14.04,7.02 -21.06,8.82 -5.28,3.48 -12.3,5.27 -19.32,8.76 -5.28,3.53 -12.3,5.28 -19.36,8.81 -7.02,1.74 -12.25,5.23 -19.32,8.76 -7.02,1.75 -14.04,5.28 -19.32,8.76 -7.02,1.8 -14.04,5.28 -19.31,7.02 -7.02,3.54 -14.04,7.02 -19.32,8.82 -7.02,3.48 -14.04,7.02 -21.06,8.76 -5.28,3.53 -12.3,7.02 -19.32,10.55 -5.27,1.75 -12.29,5.28 -19.31,8.77 -5.28,1.79 -12.3,5.27 -19.32,8.81 -5.28,3.48 -12.3,5.22 -19.32,8.76 -5.27,3.53 -12.29,5.28 -19.31,8.76 -5.28,3.54 -12.3,7.07 -19.32,8.81 -5.28,3.49 -12.3,7.02 -19.31,10.51 -5.28,3.53 -12.3,5.27 -17.58,8.81 -7.02,3.48 -14.04,7.02 -19.32,8.76 -7.01,3.54 -14.08,7.02 -19.31,10.56 -7.02,3.48 -12.3,7.02 -19.32,8.76 -7.07,3.53 -12.3,7.02 -19.31,10.55 -5.28,3.54 -12.3,7.02 -19.37,8.76 -5.23,3.54 -12.25,7.02 -17.53,10.56 -7.01,3.53 -14.08,7.02 -19.31,10.55 -7.02,1.75 -12.3,5.23 -19.32,8.77 -5.28,3.53 -12.3,7.02 -19.31,10.55 -5.28,3.48 -12.3,7.02 -17.58,10.5 -7.02,3.54 -12.3,5.28 -19.32,8.82 -5.27,3.48 -12.29,7.02 -19.31,10.5 -5.28,3.54 -12.3,7.07 -17.58,10.56 -7.02,3.53 -12.29,7.02 -19.31,10.55l-22.85 -24.59 -24.6 -22.86 -22.8 -24.59 -24.59 -22.8 -22.85 -24.59 -24.6 -22.86 -24.59 -24.59 -22.8 -22.8 -24.6 -24.59 -22.85 -22.86 -24.59 -24.59 -22.8 -24.59 -24.6 -22.8 -22.85 -24.6 -24.59 -22.85 -22.8 -24.59 -24.6 -22.8 -22.85 -24.6 -24.59 -22.85 -24.54 -24.54 -22.86 -22.85 -24.59 -24.6 -22.85 -22.85 -24.54 -24.54 -22.86 -24.6 -24.59 -22.85 -22.85 -24.59 -24.54 -22.8 -22.86 -24.6 -24.59 -22.85 -24.59 -24.59 -22.8 -22.85 -24.6 -24.55 -22.85 -22.85 -24.59 -24.59 -22.8 -22.85 -24.6 -24.55 -22.85 -24.59 -24.59 -22.85 -22.8 -24.6 -24.6 -22.8 -22.85 -24.59 -24.59 -22.85 -24.6 -24.6 -22.8 -22.8 -24.59 -24.59 -22.85 -22.85 -24.6 -24.6 -22.8 -24.59 -24.59 -22.8 -22.85 -24.59 -24.6 -22.86 -22.8 -24.59 -24.59 -22.8 -22.85 -24.59 -24.6 -22.86 -24.59 -24.59 -22.8 -22.8 -24.59 -24.59 -22.86 -22.86 -24.59 -24.59 -22.8 -24.59 -24.59 -22.8 -22.86 -24.6 -36.89 36.89 -35.09 35.1 -36.9 36.89 -35.14 35.15 -35.1 35.1 -36.89 36.89 -35.1 35.15 -35.15 36.84 -36.89 35.14 -35.1 35.15 -36.89 36.84 -35.15 35.15 -35.09 36.89 -36.89 35.1 -35.15 35.15 -36.89 36.89 -35.1 35.1 -35.15 36.89 -36.89 35.15 -35.1 35.09 -36.89 36.89 -35.1 35.15 -35.14 35.1 -36.9 36.89 -35.09 35.15 -36.89 36.84 -35.15 35.15 -35.1 35.15 -36.89 36.84 -35.15 35.15 -36.89 36.89 -35.1 35.09 -35.15 35.15 -36.89 36.89 -35.09 35.1 -36.89 36.89 -35.1 35.15 -35.15 35.1 -36.89 36.89 -35.1 35.15 -36.89 36.84 -35.15 35.15 -35.1 35.14 -36.89 36.84 -35.14 35.15 -35.1 36.89 -36.89 35.1 -35.15 35.15 -36.89 36.89 -35.1 35.1 -35.15 36.89 -36.84 35.15 -35.15 35.1 -36.89 36.89 -35.1 35.14 -35.14 36.84 -36.89 35.15 -35.1 35.15 -36.89 36.84 -35.15 35.15 -35.1 35.15 -36.89 36.84 -35.15 35.15 -36.89 36.89 24.6 22.8 22.85 24.59 24.59 22.85 24.59 24.6 22.81 22.8 24.59 24.59 22.85 22.85 24.59 24.6 22.81 24.59 24.59 22.8 22.85 24.6 24.59 22.85 22.81 24.59 24.59 22.8 22.85 24.6 24.59 22.85 24.6 24.59 22.8 22.8 24.59 24.6 22.85 22.85 24.6 24.59 22.8 24.6 24.59 22.8 22.85 24.59 24.6 22.85 22.8 24.6 24.59 22.8 24.6 24.59 22.85 22.85 24.59 24.6 22.8 22.8 24.6 24.59 22.85 24.59 24.59 22.86 22.8 24.54 24.6 22.85 22.85 24.59 24.59 22.81 22.8 24.59 24.6 22.85 24.59 24.59 22.85 22.86 24.54 24.54 22.86 22.85 24.59 24.59 22.85 24.6 24.54 22.8 22.86 24.59 24.59 22.85 22.85 24.6 24.54 22.8 22.86 24.59 24.59 22.85 24.59 24.6 22.8 22.8 24.6 24.59 22.85 22.85 24.59 24.6 22.8 24.59 24.6 22.8 22.85 24.6 24.59 22.85 22.8 24.59 24.6 22.8c-3.49,7.02 -7.02,12.3 -10.51,19.32 -3.53,5.28 -7.02,12.3 -10.55,17.57 -3.54,7.02 -7.02,14.04 -10.56,19.32 -3.48,7.02 -5.27,12.3 -8.76,19.32 -3.53,5.27 -7.02,12.29 -10.55,17.57 -3.49,7.02 -7.02,14.04 -10.51,19.32 -3.53,7.02 -7.07,12.29 -8.81,19.31 -3.48,5.28 -7.02,12.3 -10.5,19.32 -3.54,5.28 -7.07,12.3 -10.56,17.57 -1.74,7.02 -5.27,14.04 -8.81,19.32 -3.48,7.02 -7.02,12.3 -10.5,19.32 -3.54,7.02 -5.28,12.29 -8.82,19.31 -3.48,5.28 -7.02,12.3 -10.5,19.32 -1.79,5.28 -5.28,12.3 -8.81,19.32 -3.49,5.27 -5.23,12.29 -8.76,17.57 -3.54,7.02 -7.02,14.04 -10.56,19.32 -1.74,7.02 -5.28,14.04 -8.76,19.31 -3.54,7.02 -5.28,14.04 -8.76,19.32 -3.54,7.02 -7.07,14.04 -8.81,19.32 -3.49,7.02 -7.02,14.04 -8.77,19.31 -3.53,7.02 -7.02,14.09 -8.81,19.32 -3.48,7.02 -7.02,14.09 -10.5,19.32 -1.8,7.07 -5.28,14.09 -8.82,21.11 -1.74,5.27 -5.27,12.29 -8.76,19.31 -1.74,5.28 -5.27,12.3 -7.02,19.32 -3.53,5.28 -7.02,12.3 -8.81,19.32 -3.48,7.01 -7.02,12.29 -8.76,19.31 -3.54,7.02 -7.02,14.04 -8.76,19.32 -3.54,7.02 -5.28,14.04 -8.82,19.31 -1.74,7.02 -5.27,14.04 -8.76,21.06 -1.74,5.28 -5.27,12.3 -7.02,19.32 -3.53,7.07 -5.27,12.3 -8.81,19.37 -3.48,7.02 -5.23,14.04 -8.76,21.06 -1.74,5.27 -5.28,12.29 -7.02,19.31 -3.54,7.02 -5.28,12.3 -8.81,19.32 -1.75,7.02 -5.23,14.04 -7.02,21.06 -3.49,5.27 -5.23,12.29 -8.76,19.31 -1.75,7.02 -5.28,12.3 -7.02,19.32 -3.54,7.07 -5.28,14.09 -8.82,21.11 -1.74,5.28 -5.22,12.3 -7.02,19.32 -1.74,7.02 -5.22,14.04 -7.02,21.05 -3.48,5.28 -5.27,12.3 -8.76,19.32 -1.74,7.02 -3.53,14.04 -7.02,21.11 -1.79,5.23 -5.27,12.25 -7.02,19.32 -1.79,7.02 -5.27,14.04 -7.02,21.06 -1.79,5.27 -5.27,12.29 -7.07,19.31 -3.48,7.02 -5.22,14.04 -7.02,21.06 -3.48,7.02 -5.27,12.3 -7.01,19.32 -3.49,7.02 -5.28,14.09 -7.02,21.11 -3.49,7.02 -5.28,14.04 -7.02,21.06 -3.54,5.27 -5.28,12.29 -7.02,19.31 -1.75,7.02 -5.28,14.04 -7.02,21.06 -1.8,7.07 -5.28,14.09 -7.02,21.11 -1.8,5.28 -3.54,12.3 -7.02,19.32 -1.8,7.02 -3.54,14.04 -5.28,21.05 -3.53,7.02 -5.28,14.04 -7.02,21.06 -1.79,7.07 -5.28,12.3 -7.07,19.37 -1.74,7.02 -3.48,14.04 -5.23,21.06 -3.53,7.02 -5.27,14.04 -7.02,21.06 -1.79,7.02 -3.53,14.04 -7.07,21.11 -1.74,7.02 -3.48,14.04 -5.22,21.06 -1.8,7.02 -3.54,14.04 -7.07,19.31 -1.74,7.02 -3.49,14.04 -5.23,21.06 -1.79,7.02 -3.53,14.04 -5.28,21.11l-35.15 0 -33.35 0 -33.36 0 -33.4 0 -33.36 0 -33.35 0 -35.15 0 -33.36 0 -33.35 0 -33.41 0 -33.35 0 -33.36 0 -35.15 0 -33.35 0 -33.36 0 -33.36 0 -33.4 0 -33.36 0 -35.15 0 -33.35 0 -33.36 0 -33.35 0 -33.41 0 -33.35 0 -35.15 0 -33.36 0 -33.35 0 -33.36 0 -33.4 0 -33.36 0 -35.1 0 -33.4 0 -33.36 0 -33.36 0 -33.4 0 -33.36 0 -35.1 0 -33.4 0 -33.36 0 -33.35 0 -33.41 0 -33.35 0 -35.1 0 -33.41 0 -33.35 0 -33.36 0 -33.36 0 -35.14 0 -33.36 0 -33.4 0 -33.36 0 -33.36 0 -33.35 0 -35.15 0 -33.36 0 -33.4 0 -33.36 0 -33.35 0 -33.36 0 -35.15 0 -33.35 0 -33.36 0 -33.4 0 -33.36 0 0 50.93 0 50.93 0 50.93 0 50.93 0 49.19 0 50.93 0 50.93 0 50.93 0 50.93 0 50.93 0 49.18 0 50.93 0 50.93 0 50.93 0 50.93 0 50.93 0 50.93 0 49.19 0 50.93 0 50.93 0 50.93 0 50.93 0 50.93 0 49.19 0 50.93 0 50.93 0 50.93 0 50.93 0 50.93 0 50.93 0 49.18 0 50.93 0 50.93 0 50.93 0 50.93 0 50.93 0 49.19 0 50.93 0 50.93 0 50.93 0 50.93 0 50.93 0 50.93 0 49.19 0 50.93 0 50.93 0 50.93 0 50.93 0 50.93 0 49.18 0 50.93 0 50.93 0 50.93 0 50.93 0 50.93 0 49.19 0 50.93 0 50.93 0 50.93 0 50.93 0 50.93 0 50.98 0 49.14 0 50.93 33.36 0 33.4 0 33.36 0 33.35 0 35.15 0 33.36 0 33.35 0 33.36 0 33.4 0 33.36 0 35.15 0 33.35 0 33.36 0 33.36 0 33.4 0 33.36 0 35.14 0 33.36 0 33.36 0 33.35 0 33.41 0 35.1 0 33.35 0 33.41 0 33.35 0 33.36 0 33.4 0 35.1 0 33.36 0 33.4 0 33.36 0 33.36 0 33.4 0 35.1 0 33.36 0 33.4 0 33.36 0 33.35 0 33.36 0 35.15 0 33.35 0 33.41 0 33.35 0 33.36 0 33.35 0 35.15 0 33.36 0 33.4 0 33.36 0 33.36 0 33.35 0 35.15 0 33.36 0 33.35 0 33.41 0 33.35 0 33.36 0 35.15 0 33.35 0 33.36 0 33.4 0 33.36 0 33.35 0 35.15 0c1.75,7.02 3.49,14.09 5.28,21.11 1.74,7.02 3.49,14.04 5.23,21.05 3.53,7.02 5.27,14.04 7.07,21.06 1.74,7.02 3.48,14.09 5.22,21.11 3.54,7.02 5.28,14.04 7.07,19.32 1.75,7.02 3.49,14.04 7.02,21.06 1.75,7.02 3.49,14.04 5.23,21.06 1.79,7.07 5.28,14.09 7.07,21.11 1.74,7.02 3.49,14.04 7.02,21.05 1.74,5.28 3.48,12.3 5.28,19.32 3.48,7.02 5.22,14.04 7.02,21.06 1.74,7.07 5.22,14.09 7.02,21.11 1.74,7.02 5.27,12.3 7.02,19.32 1.74,7.02 3.48,14.03 7.02,21.05 1.74,7.02 3.53,14.04 7.02,21.11 1.74,5.23 3.53,12.25 7.02,19.32 1.74,7.02 3.53,14.04 7.01,21.06 1.8,7.02 3.54,12.3 7.02,19.32 1.8,7.01 5.28,14.03 7.07,21.05 1.75,7.02 5.23,14.09 7.02,19.32 1.75,7.02 5.23,14.09 7.02,21.11 3.49,7.02 5.28,14.04 7.02,19.32 3.49,7.02 5.28,14.04 8.76,21.06 1.8,7.01 5.28,14.03 7.02,19.31 3.54,7.02 5.28,14.04 7.02,21.06 3.54,7.07 5.28,12.3 8.82,19.37 1.74,7.02 5.27,14.04 7.02,21.06 3.53,5.27 5.27,12.29 8.76,19.31 1.79,7.02 5.27,14.04 7.02,19.32 3.53,7.02 5.27,14.04 8.81,21.06 1.74,5.27 5.28,12.29 7.02,19.31 3.53,7.02 5.28,12.3 8.76,19.32 3.54,7.07 5.28,14.09 8.81,21.11 1.75,5.28 5.28,12.3 7.02,19.32 3.49,7.02 7.02,12.29 8.76,19.31 3.54,7.02 5.28,12.3 8.82,19.32 3.48,7.02 5.22,14.04 8.76,19.32 1.74,7.02 5.28,14.03 8.76,21.05 1.79,5.28 5.28,12.3 8.81,19.32 1.75,5.28 5.28,12.3 7.02,19.32 3.49,7.07 7.02,12.29 8.76,19.31 3.54,7.07 7.02,12.3 8.82,19.37 3.48,7.02 7.02,12.25 10.5,19.32 1.79,7.02 5.28,12.29 8.81,19.31 1.75,7.02 5.28,12.3 8.77,19.32 3.53,7.02 5.27,12.3 8.81,19.32 3.48,7.02 5.22,12.29 8.76,19.31 3.48,7.02 7.02,12.3 8.76,19.32 3.54,7.02 7.02,12.3 10.56,19.32 3.53,7.02 5.27,12.29 8.76,19.31 3.53,7.02 7.02,12.3 8.81,19.32 3.48,5.28 7.02,12.3 10.5,19.32 3.54,5.27 7.07,12.29 8.82,17.57 3.48,7.02 7.02,14.04 10.5,19.32 3.54,7.02 7.07,14.04 8.81,19.31 3.49,7.02 7.02,12.3 10.56,19.32 3.48,5.28 7.02,12.3 10.5,19.32 1.74,5.27 5.28,12.29 8.81,17.57 3.49,7.02 7.02,12.3 10.51,19.32 3.53,7.02 7.02,12.29 10.55,19.31 3.49,5.28 5.28,12.3 8.76,17.58 3.54,7.02 7.02,12.29 10.56,19.31 3.53,7.02 7.02,12.3 10.55,19.32 3.49,5.28 7.02,12.3 10.51,17.57l-24.6 24.6 -22.8 22.8 -24.59 24.59 -22.85 22.85 -24.6 24.6 -22.8 22.8 -24.59 24.59 -22.85 24.6 -24.6 22.85 -22.8 24.54 -24.59 22.85 -24.59 24.6 -22.86 22.85 -24.54 24.54 -22.85 22.85 -24.59 24.6 -22.86 22.85 -24.54 24.54 -22.85 22.85 -24.59 24.6 -22.86 24.59 -24.54 22.8 -22.85 24.6 -24.59 22.85 -24.6 24.59 -22.8 22.8 -24.59 24.6 -22.85 22.85 -24.6 24.59 -22.8 22.8 -24.59 24.6 -22.85 24.59 -24.6 22.85 -22.8 24.59 -24.59 22.81 -22.85 24.59 -24.6 22.85 -24.59 24.59 -22.8 22.81 -24.6 24.59 -22.85 22.85 -24.59 24.59 -22.8 22.81 -24.6 24.59 -22.85 24.59 -24.59 22.85 -22.8 24.6 -24.6 22.8 -24.59 24.59 -22.85 22.85 -24.59 24.6 -22.81 22.8 -24.59 24.59 -22.85 22.85 -24.59 24.6 -22.81 22.8 -24.59 24.59 -22.85 24.6 -24.59 22.85 -22.81 24.54 -24.59 22.85 -24.59 24.6 -22.85 22.85 -24.6 24.54 36.89 35.15 35.15 36.89 36.89 35.1 35.1 35.15 35.15 36.89 36.89 35.1 35.1 36.89 36.89 35.14 35.14 35.1 35.1 36.89 36.89 35.15 35.15 36.89 36.84 35.1 35.15 35.15 35.1 36.84 36.89 35.15 35.15 36.89 36.89 35.1 35.1 35.14 35.14 36.9 36.89 35.09 35.1 36.89 35.15 35.15 36.89 35.1 35.1 36.89 36.89 35.15 35.15 35.1 35.1 36.89 36.89 35.15 35.09 36.84 36.89 35.14 35.15 35.15 35.1 36.84 36.89 35.15 35.15 36.89 36.89 35.1 35.1 35.15 35.15 36.89 36.89 35.1 35.09 36.89 36.9 35.15 35.14 35.09 35.1 36.89 36.89 35.15 35.1 36.84 36.89 35.15 35.15 35.15 35.1 36.84 36.89 35.15 35.15 36.89 36.89 35.1 35.09 35.15 35.15 36.89 36.89 35.09 35.1 36.9 36.89 35.14 35.15 35.1 35.1 36.89 36.89 35.15 35.1 36.84 35.14 35.15 36.9 35.15 35.09 36.84 36.89 35.15 22.86 -22.86 24.59 -24.59 22.8 -24.54 24.59 -22.85 22.86 -24.6 24.59 -22.85 22.8 -24.54 24.59 -22.85 24.6 -24.6 22.85 -22.85 24.59 -24.54 22.8 -22.85 24.6 -24.6 22.85 -22.85 24.59 -24.54 22.8 -24.6 24.6 -22.85 22.85 -24.59 24.59 -22.8 22.8 -24.6 24.6 -22.85 24.59 -24.59 22.85 -22.8 24.6 -24.6 22.8 -22.85 24.59 -24.59 22.85 -22.8 24.6 -24.6 22.8 -24.59 24.59 -22.85 22.85 -24.6 24.6 -22.8 22.8 -24.59 24.59 -22.85 24.59 -24.6 22.86 -22.8 24.54 -24.59 22.85 -22.85 24.59 -24.6 22.86 -24.59 24.54 -22.8 22.85 -24.59 24.59 -22.86 22.86 -24.59 24.54 -22.8 24.59 -24.59 22.85 -22.86 24.6 -24.59 22.8 -22.8 24.59 -24.59 22.85 -22.86 24.6 -24.59 22.8 -24.54 24.59 -22.86 22.85 -24.59 24.6 -22.85 22.8 -24.54 24.59 -22.86 24.6 -24.59 22.85 -22.85 24.59 -24.54 22.8 -22.86 24.6 -24.59 22.85 -24.59c7.02,3.53 12.29,7.02 19.31,10.55 5.28,3.49 12.3,7.02 17.58,10.51 7.02,3.53 14.04,7.07 19.31,10.55 7.02,3.54 12.3,7.02 19.32,10.56 5.28,3.48 12.3,7.01 17.58,10.5 7.01,1.79 14.03,5.28 19.31,8.81 7.02,3.49 12.3,7.02 19.32,10.56 5.23,3.48 12.3,7.02 19.31,8.76 5.28,3.48 12.3,7.02 17.53,10.55 7.07,3.49 14.09,7.02 19.37,10.51 7.01,1.79 12.24,5.27 19.31,8.81 7.02,3.48 12.3,7.02 19.32,10.5 5.23,1.8 12.3,5.28 19.31,8.82 5.28,3.48 12.3,7.02 19.32,8.76 5.28,3.53 12.3,7.02 17.58,10.55 7.01,1.74 14.03,5.28 19.31,8.76 7.02,3.54 14.04,7.02 19.32,8.82 7.02,3.48 14.04,7.02 19.31,8.76 7.02,3.48 14.04,7.02 19.32,10.55 7.02,1.75 14.04,5.23 19.32,8.76 7.02,3.54 14.04,5.28 19.31,8.77 7.02,3.53 14.04,5.27 19.32,8.81 7.02,3.48 14.04,5.28 21.06,8.76 5.28,3.54 12.3,5.28 19.32,8.81 5.27,3.49 12.29,5.23 19.31,8.76 5.28,3.49 12.3,5.28 19.32,8.77 7.07,1.79 12.3,5.27 19.32,8.81 7.06,1.74 14.08,5.28 19.36,8.76 7.02,1.74 14.04,5.28 19.32,7.02 7.02,3.54 14.04,5.28 21.06,8.81 5.27,3.49 12.29,5.23 19.31,8.76 7.02,1.75 12.3,5.28 19.32,7.02 7.02,3.54 14.04,7.02 21.06,8.77 5.28,3.53 12.3,5.27 19.32,8.81 7.06,1.74 12.29,5.28 19.31,7.02 7.07,3.53 14.09,5.28 21.11,8.76 5.28,1.79 12.3,5.28 19.32,7.02 7.02,3.53 12.29,5.28 19.31,8.81 7.02,1.74 14.04,5.28 21.06,7.02 7.02,1.74 12.3,5.28 19.32,7.02 7.02,3.54 14.09,5.28 21.11,8.76 5.23,1.8 12.29,5.28 19.31,7.07 7.02,1.75 14.04,5.23 21.06,7.02 5.28,3.49 12.3,5.28 19.32,7.02 7.02,3.49 14.04,5.28 21.06,8.76 5.28,1.75 12.3,3.54 19.32,7.02 7.06,1.8 14.08,3.54 21.1,7.02 7.02,1.8 12.3,3.54 19.32,7.07 7.02,1.75 14.04,3.49 21.06,7.02 7.02,1.75 14.04,3.49 21.11,7.02 5.23,1.74 12.25,3.49 19.31,7.02 7.02,1.74 14.04,3.49 21.06,7.02 7.02,1.74 14.04,3.54 21.06,5.28 5.28,3.48 12.3,5.28 19.32,7.02 7.02,1.74 14.09,5.28 21.11,7.02 7.02,1.74 14.04,3.53 21.06,7.02 7.02,1.74 14.04,3.53 19.31,5.27 7.02,3.54 14.04,5.28 21.06,7.02 7.02,1.75 14.09,3.54 21.11,7.02 7.02,1.75 14.04,3.54 21.06,5.28 7.02,1.74 14.04,3.54 21.06,7.02 7.02,1.74 14.09,3.54 19.32,5.28 7.06,1.74 14.08,3.53 21.1,7.02 7.02,1.74 14.04,3.53 21.06,5.28l0 33.35 0 33.36 0 33.4 0 35.1 0 33.41 0 33.35 0 33.36 0 33.35 0 33.41 0 35.1 0 33.4 0 33.36 0 33.36 0 33.35 0 33.41 0 35.09 0 33.36 0 33.41 0 33.35 0 33.36 0 33.4 0 35.1 0 33.36 0 33.4 0 33.36 0 33.35 0 33.41 0 35.1 0 33.35 0 33.41 0 33.36 0 33.35 0 33.36 0 35.15 0 33.35 0 33.41 0 33.35 0 33.36 0 33.35 0 35.15 0 33.36 0 33.4 0 33.36 0 33.36 0 33.35 0 35.15 0 33.36 0 33.35 0 33.41 0 33.35 0 33.36 0 35.15 0 33.35 0 33.36 0 33.4 0 33.36 0 35.15 0 33.35 0 33.36 0 33.36 0 33.4 0 33.36 0 35.1 0 33.4 50.93 0 50.93 0 50.93 0 50.93 0 49.19 0 50.93 0 50.93 0 50.93 0 50.93 0 50.93 0 50.93 0 49.19 0 50.93 0 50.92 0 50.93 0 50.93 0 50.93 0 49.19 0 50.93 0 50.93 0 50.93 0 50.93 0 50.98 0 49.14 0 50.93 0 50.93 0 50.93 0 50.98 0 50.93 0 50.93 0 49.13 0 50.93 0 50.98 0 50.93 0 50.93 0 50.93 0 49.14 0 50.98 0 50.93 0 50.93 0 50.93 0 50.93 0 50.93 0 49.19 0 50.93 0 50.93 0 50.93 0 50.93 0 50.93 0 49.18 0 50.93 0 50.93 0 50.93 0 50.93 0 50.93 0 49.19 0 50.93 0 50.93 0 50.93 0 50.93 0 50.93 0 50.93 0 49.18 0 50.93 0 0 -33.4 0 -35.1 0 -33.36 0 -33.4 0 -33.36 0 -33.36 0 -33.35 0 -35.15 0 -33.36 0 -33.4 0 -33.36 0 -33.35 0 -35.15 0 -33.36 0 -33.35 0 -33.41 0 -33.35 0 -33.36 0 -35.15 0 -33.35 0 -33.36 0 -33.36 0 -33.4 0 -33.36 0 -35.15 0 -33.35 0 -33.36 0 -33.35 0 -33.41 0 -33.35 0 -35.15 0 -33.36 0 -33.35 0 -33.36 0 -33.41 0 -33.35 0 -35.1 0 -33.41 0 -33.35 0 -33.36 0 -33.4 0 -33.36 0 -35.1 0 -33.4 0 -33.36 0 -33.35 0 -33.41 0 -33.36 0 -35.09 0 -33.41 0 -33.35 0 -33.36 0 -33.36 0 -33.4 0 -35.1 0 -33.41 0 -33.35 0 -33.36 0 -33.35 0 -33.41 0 -35.1 0 -33.4 0 -33.36 0 -33.35c7.02,-1.75 14.04,-3.54 21.06,-5.28 7.02,-3.49 14.04,-5.28 21.11,-7.02 7.02,-1.74 14.04,-3.54 21.06,-5.28 7.02,-3.48 14.04,-5.28 21.06,-7.02 7.02,-1.74 14.04,-3.53 19.32,-5.28 7.02,-3.48 14.04,-5.27 21.11,-7.02 7.02,-1.74 14.03,-3.48 21.05,-7.02 7.02,-1.74 14.04,-3.53 21.06,-5.27 7.02,-3.49 14.04,-5.28 21.11,-7.02 5.23,-1.74 12.3,-5.28 19.32,-7.02 7.02,-1.74 14.04,-3.54 21.06,-7.02 7.02,-1.74 14.04,-3.54 21.06,-5.28 7.02,-3.53 12.29,-5.28 19.31,-7.02 7.02,-3.53 14.09,-5.28 21.11,-7.02 7.02,-3.53 14.04,-5.27 21.06,-7.02 5.28,-3.53 12.3,-5.27 19.32,-7.02 7.02,-3.53 14.04,-5.27 21.06,-7.07 7.07,-3.48 12.29,-5.22 19.31,-7.02 7.07,-3.48 14.09,-5.27 21.11,-7.02 7.02,-3.48 14.04,-5.27 19.32,-8.76 7.02,-1.74 14.04,-3.53 21.06,-7.02 7.02,-1.79 14.04,-5.27 19.31,-7.02 7.02,-1.79 14.04,-5.27 21.11,-7.07 7.02,-3.48 14.04,-5.22 19.32,-8.76 7.02,-1.74 14.04,-5.28 21.06,-7.02 7.02,-1.74 12.29,-5.28 19.31,-7.02 7.02,-3.53 14.04,-5.28 21.06,-8.81 5.28,-1.74 12.3,-5.23 19.32,-7.02 7.07,-3.48 14.09,-5.23 19.32,-8.76 7.07,-1.74 14.08,-5.28 21.1,-7.02 5.28,-3.54 12.3,-5.28 19.32,-8.81 7.02,-1.75 14.04,-5.23 19.32,-8.77 7.02,-1.74 14.04,-5.27 21.06,-7.02 5.27,-3.53 12.29,-5.27 19.31,-8.76 7.02,-1.79 12.3,-5.27 19.32,-8.81 7.02,-1.74 12.3,-5.28 19.32,-7.02 7.07,-3.48 14.08,-7.02 19.31,-8.76 7.07,-3.54 14.09,-7.02 21.11,-8.81 5.28,-3.49 12.3,-5.28 19.32,-8.77 5.27,-3.53 12.29,-5.27 19.31,-8.76 7.02,-3.53 12.3,-5.27 19.32,-8.81 7.02,-3.48 12.3,-5.28 19.32,-8.76 7.02,-3.54 12.29,-5.28 19.31,-8.81 7.02,-3.49 12.3,-5.23 19.32,-8.77 7.02,-3.53 12.3,-7.01 19.32,-8.76 7.02,-3.53 12.29,-7.07 19.31,-10.55 7.02,-1.74 12.3,-5.28 19.32,-8.76 7.02,-1.8 12.3,-5.28 19.32,-8.82 7.02,-3.48 12.29,-7.02 19.31,-8.76 7.07,-3.53 12.3,-7.02 19.32,-10.55 7.07,-1.74 12.3,-5.28 19.37,-8.76 5.22,-3.54 12.24,-7.02 19.31,-8.82 5.23,-3.48 12.3,-7.02 17.53,-10.5 7.02,-3.54 14.08,-7.02 19.31,-8.81 7.07,-3.49 14.09,-7.02 19.32,-10.51 7.07,-3.53 12.3,-7.07 19.37,-8.81 5.22,-3.48 12.24,-7.02 19.31,-10.5 5.23,-3.54 12.3,-7.07 17.53,-10.56 7.02,-3.53 12.29,-7.02 19.31,-8.81 7.07,-3.49 12.3,-7.02 19.32,-10.5 5.28,-3.54 12.3,-7.02 17.57,-10.56 7.02,-3.48 12.3,-7.02 19.32,-10.55 7.02,-3.49 12.3,-7.02 19.32,-10.51 5.27,-3.53 12.29,-7.02 17.57,-10.55l24.59 24.59 22.85 24.59 24.6 22.86 22.8 24.54 24.59 22.85 22.85 24.59 24.6 22.86 24.54 24.54 22.85 22.85 24.6 24.59 22.85 22.86 24.54 24.54 22.85 24.59 24.6 22.86 22.85 24.59 24.54 22.8 22.85 24.59 24.6 22.86 22.85 24.59 24.54 22.8 24.6 24.59 22.85 22.86 24.59 24.59 22.8 22.8 24.6 24.59 22.85 24.6 24.59 22.85 22.8 24.59 24.6 22.8 22.85 24.6 24.59 22.85 24.59 24.59 22.81 22.8 24.59 24.6 22.85 22.85 24.59 24.59 22.81 24.6 24.59 22.8 22.85 24.59 24.59 22.85 22.81 24.6 24.59 22.8 22.85 24.59 24.59 22.85 24.6 24.6 22.8 22.8 24.59 24.59 22.85 22.85 24.6 24.6 22.8 24.54 24.59 22.85 22.85 24.6 24.6 22.85 22.8 24.54 24.59 22.85 22.85 24.6 24.6 22.85 24.54 24.54 22.85 22.85 24.6 24.6 22.85 22.85 24.54 24.54 22.85 24.59 24.6 22.86 35.14 -35.15 36.84 -36.84 35.15 -35.15 35.1 -35.15 36.89 -36.84 35.15 -35.15 36.89 -36.89 35.1 -35.1 35.15 -35.14 36.89 -36.9 35.09 -35.09 36.9 -36.89 35.14 -35.15 35.1 -35.1 36.89 -36.89 35.15 -35.15 36.84 -36.84 35.15 -35.15 35.1 -35.15 36.89 -36.84 35.15 -35.15 36.89 -36.89 35.09 -35.09 35.15 -35.15 36.89 -36.89 35.1 -35.1 35.15 -36.89 36.89 -35.15 35.1 -35.1 36.89 -36.89 35.15 -35.15 35.09 -36.84 36.9 -35.15 35.09 -35.14 36.89 -36.84 35.15 -35.15 35.1 -36.89 36.89 -35.1 35.15 -35.15 36.89 -36.89 35.1 -35.1 35.15 -35.15 36.89 -36.89 35.09 -35.09 36.89 -36.9 35.15 -35.14 35.1 -35.1 36.89 -36.89 35.1 -35.15 36.89 -36.84 35.15 -35.15 35.1 -35.1 36.89 -36.89 35.15 -35.15 36.89 -36.89 35.09 -35.1 35.15 -35.14 36.89 -36.89 35.1 -35.1 36.89 -36.89 35.15 -35.15 35.1 -35.1 36.89 -36.89 35.1 -35.15 -22.81 -24.54 -24.59 -22.85 -24.59 -24.6 -22.85 -22.85 -24.55 -24.54 -22.85 -22.85 -24.59 -24.6 -22.85 -24.59 -24.55 -22.8 -22.85 -24.6 -24.59 -22.85 -22.85 -24.59 -24.55 -22.8 -22.85 -24.6 -24.59 -22.85 -24.6 -24.59 -22.8 -22.8 -24.59 -24.6 -22.85 -22.85 -24.6 -24.59 -22.8 -24.59 -24.59 -22.81 -22.85 -24.59 -24.6 -22.85 -22.8 -24.59 -24.59 -22.81 -22.85 -24.59 -24.6 -22.85 -24.59 -24.59 -22.8 -22.81 -24.59 -24.59 -22.86 -22.85 -24.59 -24.59 -22.8 -24.6 -24.59 -22.8 -22.86 -24.59 -24.59 -22.85 -22.8 -24.6 -24.59 -22.8 -24.6 -24.59 -22.85 -22.85 -24.59 -24.6 -22.8 -22.8 -24.6 -24.59 -22.85 -24.6 -24.59 -22.85 -22.8 -24.54 -24.6 -22.85 -22.85 -24.6 -24.59 -22.85 -22.8 -24.54 -24.6 -22.85 -24.59 -24.6 -22.85 -22.85 -24.55 -24.54 -22.85 -22.85 -24.59 -24.6 -22.85 -24.59 -24.55 -22.8 -22.85 -24.6 -24.59 -22.85 -22.85 -24.59 -24.55 -22.8 -24.59 -24.6c3.48,-5.27 7.02,-12.29 10.5,-17.57 3.54,-7.02 7.02,-12.3 10.56,-19.32 3.53,-7.02 7.02,-12.29 10.55,-19.31 3.49,-5.28 7.02,-12.3 10.51,-17.58 3.53,-7.02 7.02,-12.29 10.55,-19.31 1.74,-7.02 5.28,-12.3 8.76,-19.32 3.54,-5.28 7.02,-12.3 10.56,-17.57 3.53,-7.02 7.02,-14.04 8.76,-19.32 3.54,-7.02 7.07,-12.3 10.56,-19.32 3.53,-5.27 7.01,-12.29 10.55,-19.31 1.74,-5.28 5.28,-12.3 8.76,-19.32 3.54,-5.28 7.02,-12.3 10.56,-17.57 1.74,-7.02 5.27,-14.04 8.76,-19.32 3.53,-7.02 7.02,-12.3 8.81,-19.32 3.48,-7.02 7.02,-12.29 10.5,-19.31 1.8,-7.02 5.28,-12.3 8.82,-19.32 3.48,-7.02 7.02,-12.3 8.76,-19.32 3.53,-7.02 7.02,-12.29 8.76,-19.31 3.54,-7.02 7.07,-12.3 10.55,-19.32 1.75,-7.02 5.28,-12.3 8.77,-19.32 1.79,-7.02 5.27,-12.29 8.81,-19.31 3.48,-7.07 5.28,-12.3 8.76,-19.32 3.54,-7.07 5.28,-12.3 8.81,-19.37 3.49,-7.02 5.23,-12.24 8.77,-19.31 3.53,-7.02 5.27,-14.04 8.76,-19.32 3.53,-7.02 5.27,-14.04 8.81,-19.32 1.74,-7.02 5.28,-14.03 8.76,-21.05 1.74,-5.28 5.28,-12.3 8.81,-19.32 1.75,-7.02 5.23,-12.3 7.02,-19.32 3.49,-7.02 5.28,-12.29 8.76,-19.31 3.54,-7.02 5.28,-14.04 8.77,-19.32 1.79,-7.02 5.27,-14.04 7.07,-21.11 3.48,-7.02 7.02,-12.3 8.76,-19.32 3.53,-7.02 5.28,-14.04 8.76,-19.31 1.79,-7.02 5.28,-14.04 7.02,-21.06 3.54,-5.28 5.28,-12.3 8.81,-19.32 1.74,-7.02 5.28,-14.04 7.02,-19.31 3.54,-7.02 5.28,-14.04 8.76,-21.06 1.8,-7.07 5.28,-12.3 7.02,-19.37 1.8,-7.02 5.28,-14.04 7.07,-21.06 3.49,-5.28 5.23,-12.3 8.77,-19.31 1.74,-7.02 5.27,-14.04 7.01,-21.06 1.75,-5.28 5.28,-12.3 7.02,-19.32 3.54,-7.02 5.28,-14.09 7.02,-21.11 3.54,-5.23 5.28,-12.3 8.82,-19.32 1.74,-7.02 3.48,-14.04 7.02,-21.05 1.74,-7.02 3.48,-12.3 7.02,-19.32 1.74,-7.02 3.48,-14.04 7.01,-21.06 1.75,-7.07 3.54,-14.09 7.02,-19.32 1.75,-7.07 3.54,-14.09 7.02,-21.11 1.8,-7.02 3.54,-14.03 7.02,-21.05 1.8,-7.02 3.54,-12.3 7.02,-19.32 1.8,-7.02 3.54,-14.04 5.28,-21.11 3.54,-7.02 5.28,-14.04 7.02,-21.06 1.79,-7.02 5.28,-14.04 7.07,-19.32 1.74,-7.01 3.48,-14.03 7.02,-21.05 1.74,-7.02 3.48,-14.04 5.23,-21.11 3.53,-7.02 5.27,-14.04 7.07,-21.06 1.74,-7.02 3.48,-14.04 7.02,-21.06 1.74,-5.28 3.48,-12.3 5.27,-19.32 1.75,-7.02 3.49,-14.09 7.02,-21.11 1.75,-7.02 3.49,-14.04 5.23,-21.06 1.79,-7.01 3.53,-14.03 7.07,-21.05 1.74,-7.02 3.48,-14.09 5.23,-21.11l33.4 0 33.36 0 33.35 0 35.15 0 33.36 0 33.35 0 33.41 0 33.36 0 33.35 0 35.15 0 33.35 0 33.36 0 33.41 0 33.35 0 33.36 0 35.15 0 33.35 0 33.36 0 33.4 0 33.36 0 33.35 0 35.15 0 33.36 0 33.35 0 33.36 0 33.41 0 33.35 0 35.15 0 33.35 0 33.36 0 33.36 0 33.4 0 33.36 0 35.15 0 33.35 0 33.36 0 33.35 0 33.41 0 33.35 0 35.1 0 33.41 0 33.35 0 33.36 0 33.41 0 33.35 0 35.1 0 33.4 0 33.36 0 33.36 0 33.4 0 35.1 0 33.36 0 33.4 0 33.36 0 33.35 0 33.36 0 35.15 0 33.35 0 33.41 0 33.35 0 33.36 0 33.36 0 35.14 0 33.36 0z"/>
 </g>
</svg>
