<?xml version="1.0" encoding="UTF-8"?>
<!DOCTYPE svg PUBLIC "-//W3C//DTD SVG 1.1//EN" "http://www.w3.org/Graphics/SVG/1.1/DTD/svg11.dtd">
<!-- Creator: CorelDRAW 2026 -->
<svg xmlns="http://www.w3.org/2000/svg" xml:space="preserve" width="338.667mm" height="338.667mm" version="1.1" shape-rendering="geometricPrecision" text-rendering="geometricPrecision" image-rendering="optimizeQuality" fill-rule="evenodd" clip-rule="evenodd"
viewBox="0 0 33866.66 33866.66"
 xmlns:xlink="http://www.w3.org/1999/xlink"
 xmlns:xodm="http://www.corel.com/coreldraw/odm/2003">
 <g id="Camada_x0020_1">
  <metadata id="CorelCorpID_0Corel-Layer"/>
  <path fill="black" fill-rule="nonzero" d="M16933.68 -0.01c-146.12,0 -291.89,1.95 -437.11,5.63 -145.27,3.68 -290,9.11 -434.37,16.53 -144.33,7.17 -288.21,16.33 -431.49,27.18 -143.33,10.9 -286.11,23.75 -428.4,38.14 -142.43,14.38 -284.17,30.71 -425.36,48.63 -141.19,17.93 -282.08,37.59 -422.22,59 -139.95,21.46 -279.59,44.65 -418.69,69.4 -138.9,24.74 -277.3,51.27 -415.01,79.55 -137.85,28.28 -275.06,58.15 -411.67,89.56 -136.46,31.62 -272.42,64.62 -407.63,99.57 -135.27,34.8 -269.94,71.14 -403.76,109.28 -134.02,37.93 -267.34,77.61 -399.77,118.88 -132.58,41.27 -264.51,83.94 -395.69,128.39 -131.03,44.41 -261.52,90.26 -391.11,137.86 -129.79,47.44 -258.73,96.43 -386.92,147.01 -128.05,50.58 -255.55,102.55 -382.15,156.12 -126.65,53.57 -252.41,108.53 -377.42,165.09 -125.06,56.55 -249.22,114.5 -372.69,174.04 -123.32,59.39 -245.89,120.33 -367.61,182.66 -121.72,62.33 -242.55,126.1 -362.48,191.27 -119.98,65.17 -239.07,131.73 -357.26,199.68 -118.19,67.96 -235.53,137.36 -351.78,208.1 -116.44,70.64 -231.84,142.78 -346.5,216.21 -114.5,73.43 -227.96,148.06 -340.58,224.28 -112.76,76.07 -224.28,153.33 -334.9,232.19 -110.67,78.66 -220.44,158.56 -329.12,239.91 -108.54,81.15 -216.22,163.69 -322.81,247.43 -106.64,83.98 -212.33,168.96 -316.83,255.19 -104.5,86.22 -207.95,173.7 -310.36,262.56 -102.55,88.72 -203.92,178.62 -304.03,269.58 -100.27,91.15 -199.49,183.55 -297.52,277 -97.97,93.39 -194.9,188.08 -290.64,283.82 -95.74,95.68 -190.38,192.66 -283.82,290.64 -93.45,98.02 -185.8,197.24 -276.81,297.36 -91.15,100.26 -181.06,201.57 -269.73,303.98 -88.72,102.4 -176.19,206 -262.56,310.5 -86.28,104.5 -171.26,210.04 -255.05,316.68 -83.79,106.78 -166.33,214.27 -247.63,322.95 -81.3,108.72 -161.2,218.3 -239.91,328.97 -78.66,110.62 -156.13,222.33 -232.2,334.9 -76.02,112.76 -150.85,226.21 -224.28,340.72 -73.38,114.5 -145.42,230.1 -216.17,346.34 -70.79,116.45 -140.14,233.79 -207.95,351.98 -67.95,118.18 -134.71,237.27 -199.88,357.2 -65.17,119.98 -128.89,240.8 -191.27,362.52 -62.34,121.68 -123.12,244.29 -182.62,367.56 -59.39,123.46 -117.54,247.63 -174.04,372.68 -56.41,125.06 -111.57,250.82 -165.14,377.42 -53.57,126.65 -105.54,254.14 -156.12,382.19 -50.59,128.19 -99.57,257.08 -147.02,386.92 -47.39,129.59 -93.39,260.07 -137.85,391.1 -44.26,131.18 -87.13,263.06 -128.4,395.69 -41.27,132.42 -80.75,265.69 -118.88,399.71 -38.09,133.82 -74.48,268.54 -109.23,403.8 -34.8,135.21 -67.96,271.12 -99.57,407.63 -31.46,136.61 -61.33,273.76 -89.61,411.67 -28.08,137.65 -54.62,276.05 -79.56,415.14 -24.74,138.95 -47.94,278.55 -69.35,418.74 -21.46,140.14 -41.12,280.78 -59.04,422.02 -17.88,141.18 -34.21,283.12 -48.64,425.35 -14.39,142.28 -27.04,285.21 -38.09,428.54 -10.9,143.28 -20.01,287.16 -27.23,431.33 -7.37,144.37 -12.85,289.1 -16.53,434.32 -3.68,145.27 -5.63,291.03 -5.63,437.15 0,146.12 1.95,291.88 5.63,437.15 3.68,145.02 9.16,289.95 16.53,434.12 7.22,144.37 16.33,288.2 27.23,431.53 11.05,143.33 23.7,286.26 38.09,428.54 14.43,142.23 30.76,284.17 48.64,425.35 17.92,141.19 37.58,281.88 59.04,422.02 21.41,140.14 44.61,279.79 69.35,418.69 24.94,138.94 51.48,277.34 79.56,415.19 28.28,137.86 58.15,275.06 89.61,411.52 31.61,136.61 64.77,272.57 99.57,407.78 34.75,135.26 71.14,269.78 109.23,403.8 38.13,133.82 77.61,267.09 118.88,399.71 41.27,132.58 84.14,264.31 128.4,395.49 44.46,131.23 90.46,261.51 137.85,391.3 47.45,129.64 96.43,258.53 147.02,386.72 50.58,128.25 102.55,255.54 156.12,382.19 53.57,126.6 108.73,252.56 165.14,377.42 56.5,125.05 114.65,249.36 174.04,372.68 59.5,123.46 120.28,245.88 182.62,367.61 62.38,121.67 126.1,242.49 191.27,362.47 65.17,119.93 131.93,239.02 199.88,357.2 67.81,118.24 137.16,235.53 207.95,351.98 70.75,116.29 142.79,231.84 216.17,346.34 73.43,114.51 148.26,228.11 224.28,340.72 76.07,112.57 153.54,224.28 232.2,334.9 78.71,110.67 158.61,220.25 239.91,328.97 81.3,108.68 163.84,216.37 247.63,322.95 83.79,106.64 168.77,212.18 255.05,316.68 86.37,104.5 173.84,208.1 262.56,310.5 88.67,102.41 178.58,203.72 269.73,304.03 91.01,100.07 183.36,199.34 276.81,297.31 93.44,98.03 188.08,194.96 283.82,290.69 95.74,95.69 192.67,190.38 290.64,283.82 98.03,93.4 197.25,185.8 297.52,276.95 100.11,90.96 201.48,180.86 304.03,269.58 102.41,88.72 205.86,176.34 310.36,262.56 104.5,86.23 210.19,171.26 316.83,254.99 106.59,83.99 214.27,166.53 322.81,247.68 108.68,81.3 218.45,161.2 329.12,239.86 110.62,78.86 222.14,156.17 334.9,232.19 112.62,76.22 226.08,150.9 340.58,224.28 114.66,73.43 230.06,145.62 346.5,216.21 116.25,70.79 233.59,140.14 351.78,208.1 118.19,68 237.28,134.56 357.26,199.68 119.93,65.17 240.76,128.94 362.48,191.27 121.72,62.33 244.29,123.32 367.61,182.66 123.47,59.54 247.63,117.49 372.69,174.04 125.01,56.36 250.77,111.52 377.42,165.09 126.6,53.57 254.1,105.54 382.15,156.12 128.19,50.58 257.13,99.62 386.92,147.01 129.59,47.6 260.08,93.45 391.11,137.86 131.18,44.25 263.11,87.12 395.69,128.39 132.43,41.27 265.75,80.95 399.77,118.88 133.82,38.14 268.49,74.48 403.76,109.28 135.21,34.75 271.17,67.95 407.63,99.57 136.61,31.41 273.82,61.28 411.67,89.56 137.71,28.13 276.11,54.61 415.01,79.55 139.1,24.79 278.74,47.94 418.69,69.4 140.14,21.41 281.03,41.07 422.22,59 141.19,17.92 282.93,34.25 425.36,48.63 142.29,14.44 285.07,27.24 428.4,38.14 143.28,10.9 287.16,20.01 431.49,27.23 144.37,7.37 289.1,12.8 434.37,16.48 145.22,3.68 290.99,5.63 437.11,5.63 146.12,0 291.74,-1.95 436.96,-5.63 145.27,-3.68 290,-9.11 434.37,-16.48 144.33,-7.22 288.2,-16.33 431.49,-27.23 143.33,-10.9 286.11,-23.7 428.54,-38.14 142.29,-14.38 283.97,-30.71 425.36,-48.63 141.24,-17.93 281.88,-37.59 422.08,-59 140.14,-21.46 279.74,-44.61 418.69,-69.4 138.9,-24.94 277.3,-51.42 415.15,-79.55 137.91,-28.28 275.06,-58.15 411.52,-89.56 136.66,-31.62 272.43,-64.82 407.84,-99.57 135.22,-34.8 269.73,-71.14 403.75,-109.28 133.83,-37.93 267.15,-77.61 399.73,-118.88 132.62,-41.27 264.5,-84.14 395.54,-128.39 131.18,-44.41 261.66,-90.26 391.3,-137.86 129.59,-47.39 258.49,-96.43 386.73,-147.01 128.2,-50.58 255.55,-102.55 382.15,-156.12 126.65,-53.57 252.56,-108.73 377.62,-165.09 124.86,-56.55 249.22,-114.5 372.49,-174.04 123.46,-59.34 245.88,-120.33 367.61,-182.66 121.72,-62.33 242.55,-126.1 361.78,-191.27 121.18,-65.12 240.61,-131.68 358.3,-199.68 117.65,-67.96 235.34,-137.31 351.24,-208.1 115.94,-70.59 231.84,-142.78 346,-216.21 115.9,-73.38 228.31,-148.06 340.73,-224.28 114.15,-76.02 224.82,-153.33 335.45,-232.19 110.67,-78.66 221.29,-158.56 328.43,-239.86 108.87,-81.15 217.75,-163.69 323.15,-247.68 107.14,-83.73 212.53,-168.76 317.87,-254.99 103.66,-86.22 207.26,-173.84 309.12,-262.56 103.65,-88.72 203.77,-178.62 303.83,-269.58 101.86,-91.15 200.24,-183.55 298.61,-276.95 98.33,-93.44 194.91,-188.13 289.75,-283.82 96.63,-95.73 191.47,-192.66 284.52,-290.69 93.1,-97.97 186.19,-197.24 277.5,-297.31 89.56,-100.31 180.92,-201.62 268.74,-304.03 89.56,-102.4 175.64,-206 263.41,-310.5 86.08,-104.5 170.36,-210.04 254.7,-316.68 84.28,-106.58 166.83,-214.27 247.63,-322.95 80.8,-108.72 161.55,-218.3 238.86,-328.97 79.01,-110.62 156.28,-222.33 233.59,-334.9 75.53,-112.61 151.05,-226.21 223.04,-340.72 73.78,-114.5 145.77,-230.05 216.02,-346.34 71.98,-116.45 140.49,-233.74 208.99,-351.98 68.51,-118.18 133.48,-237.27 200.24,-357.2 64.97,-119.98 128.19,-240.8 189.68,-362.47 63.22,-121.73 124.71,-244.15 182.66,-367.61 59.69,-123.32 117.64,-247.63 175.59,-372.68 56.2,-124.86 110.67,-250.82 165.13,-377.42 52.68,-126.65 105.35,-253.94 154.54,-382.19 50.93,-128.19 100.11,-257.08 147.51,-386.72 47.44,-129.79 93.09,-260.07 138.75,-391.3 43.91,-131.18 86.08,-262.91 128.24,-395.49 40.38,-132.62 80.75,-265.89 117.64,-399.71 38.64,-134.02 75.53,-268.54 110.68,-403.8 35.09,-135.21 66.71,-271.17 98.32,-407.78 31.61,-136.46 61.48,-273.66 89.56,-411.52 28.13,-137.85 56.21,-276.25 80.8,-415.19 24.6,-138.9 47.45,-278.55 68.51,-418.69 21.06,-140.14 42.17,-280.83 59.69,-422.02 17.57,-141.18 33.41,-283.12 47.44,-425.35 15.79,-142.28 28.08,-285.21 38.64,-428.54 10.55,-143.33 21.06,-287.16 28.13,-431.53 7.02,-144.17 12.24,-289.1 15.78,-434.12 3.53,-145.27 5.28,-291.03 5.28,-437.15 0,-146.12 -1.75,-291.88 -5.28,-437.15 -3.54,-145.22 -8.76,-289.95 -15.78,-434.32 -7.07,-144.17 -17.58,-288.05 -28.13,-431.33 -10.56,-143.33 -22.85,-286.26 -38.64,-428.54 -14.03,-142.23 -29.87,-284.17 -47.44,-425.35 -17.52,-141.24 -38.63,-281.88 -59.69,-422.02 -21.06,-140.19 -43.91,-279.79 -68.51,-418.74 -24.59,-139.09 -52.67,-277.49 -80.8,-415.14 -28.08,-137.91 -57.95,-275.06 -89.56,-411.67 -31.61,-136.51 -63.23,-272.42 -98.32,-407.63 -35.15,-135.26 -72.04,-269.98 -110.68,-403.8 -36.89,-134.02 -77.26,-267.29 -117.64,-399.71 -42.16,-132.63 -84.33,-264.51 -128.24,-395.69 -45.66,-131.03 -91.31,-261.51 -138.75,-391.1 -47.4,-129.84 -96.58,-258.73 -147.51,-386.92 -49.19,-128.05 -101.86,-255.54 -154.54,-382.19 -54.46,-126.6 -108.93,-252.36 -165.13,-377.42 -57.95,-125.05 -115.9,-249.22 -175.59,-372.68 -57.95,-123.27 -119.44,-245.88 -182.66,-367.56 -61.49,-121.72 -124.71,-242.54 -189.68,-362.52 -66.76,-119.93 -131.73,-239.02 -200.24,-357.2 -68.5,-118.19 -137.01,-235.53 -208.99,-351.98 -70.25,-116.24 -142.24,-231.84 -216.02,-346.34 -71.99,-114.51 -147.51,-227.96 -223.04,-340.72 -77.31,-112.57 -154.58,-224.28 -233.59,-334.9 -77.31,-110.67 -158.06,-220.25 -238.86,-328.97 -80.8,-108.68 -163.35,-216.17 -247.63,-322.95 -84.34,-106.64 -168.62,-212.18 -254.7,-316.68 -87.77,-104.5 -173.85,-208.1 -263.41,-310.5 -87.82,-102.41 -179.18,-203.72 -268.74,-303.98 -91.31,-100.12 -184.4,-199.34 -277.5,-297.36 -93.05,-97.98 -187.89,-194.96 -284.52,-290.64 -94.84,-95.74 -191.42,-190.43 -289.75,-283.82 -98.37,-93.45 -196.75,-185.85 -298.61,-277 -100.06,-90.96 -200.18,-180.86 -303.83,-269.58 -101.86,-88.86 -205.46,-176.34 -309.12,-262.56 -105.34,-86.23 -210.73,-171.21 -317.87,-255.19 -105.4,-83.74 -214.28,-166.28 -323.15,-247.43 -107.14,-81.35 -217.76,-161.25 -328.43,-239.91 -110.63,-78.86 -221.3,-156.12 -335.45,-232.19 -112.42,-76.22 -224.83,-150.85 -340.73,-224.28 -114.16,-73.43 -230.06,-145.57 -346,-216.21 -115.9,-70.74 -233.59,-140.14 -351.24,-208.1 -117.69,-67.95 -237.12,-134.51 -358.3,-199.68 -119.23,-65.17 -240.06,-128.94 -361.78,-191.27 -121.73,-62.33 -244.15,-123.27 -367.61,-182.66 -123.27,-59.54 -247.63,-117.49 -372.49,-174.04 -125.06,-56.56 -250.97,-111.52 -377.62,-165.09 -126.6,-53.57 -253.95,-105.54 -382.15,-156.12 -128.24,-50.58 -257.14,-99.57 -386.73,-147.01 -129.64,-47.6 -260.12,-93.45 -391.3,-137.86 -131.04,-44.45 -262.92,-87.12 -395.54,-128.39 -132.58,-41.27 -265.9,-80.95 -399.73,-118.88 -134.02,-38.14 -268.53,-74.48 -403.75,-109.28 -135.41,-34.95 -271.18,-67.95 -407.84,-99.57 -136.46,-31.41 -273.61,-61.28 -411.52,-89.56 -137.85,-28.28 -276.25,-54.81 -415.15,-79.55 -138.95,-24.75 -278.55,-47.94 -418.69,-69.4 -140.2,-21.41 -280.84,-41.07 -422.08,-59 -141.39,-17.92 -283.07,-34.25 -425.36,-48.63 -142.43,-14.39 -285.21,-27.24 -428.54,-38.14 -143.29,-10.85 -287.16,-20.01 -431.49,-27.18 -144.37,-7.42 -289.1,-12.85 -434.37,-16.53 -145.22,-3.68 -290.84,-5.63 -436.96,-5.63l0 0 0 0 0 0 0 0 0 0 0 0 0 0 0 0 0 0 0 0 0 0 0 0 0 0 0 0 0 0 0 0 0 0 0 0 0 0 0 0 0 0 0 0 0 0 0 0 0 0 0 0 0 0 0 0 0 0 0 0 0 0 0 0 0 0 0 0 0 0 0 0 0 0 0 0 0 0 0 0 0 0 0 0 0 0 0 0 0 0 0 0 0 0 0 0 0 0 0 0 0 0 0 0 0 0 0 0 0 0 0 0 0 0 0 0 0 0 0 0 0 0 0 0 0 0 0 0zm0 2112.44c127.7,0 255.05,1.59 381.85,4.93 126.95,3.19 253.4,8.06 379.71,14.39 126.1,6.52 251.66,14.43 377.07,24.09 125.2,9.46 250.06,20.71 374.43,33.36 124.51,12.64 248.32,26.88 371.99,42.51 123.46,15.78 246.38,33.01 369,51.78 122.42,18.82 244.45,39.18 366.02,60.93 121.52,21.81 242.5,45.01 363.03,69.75 120.48,24.74 240.41,50.93 359.84,78.51 119.44,27.58 238.32,56.7 356.51,87.27 118.39,30.37 236.08,62.38 353.23,95.74 117.14,33.35 233.74,68.15 349.63,104.29 115.95,36.05 231.35,73.58 346.01,112.62 114.7,38.78 228.86,79 342.32,120.62 113.46,41.62 226.22,84.68 338.24,128.94 112.26,44.26 223.78,89.91 334.4,136.81 110.82,47.05 220.94,95.19 330.37,144.72 109.43,49.49 218.11,100.47 325.99,152.59 107.98,51.97 215.32,105.39 321.71,160.01 106.64,54.61 212.38,110.47 317.23,167.72 105,57.1 209.34,115.4 312.8,174.94 103.4,59.54 206.01,120.28 307.87,182.31 101.86,61.98 203.02,125.01 303.63,189.33 100.12,64.42 198.49,129.93 298.61,196.49 98.33,66.76 194.91,134.52 291.54,203.37 98.33,69.05 193.17,139.1 288.01,210.24 96.58,71.29 189.68,143.48 282.77,216.91 94.84,73.38 186.15,147.86 277.5,223.58 91.31,75.52 182.66,152.09 272.23,229.9 89.56,77.61 179.12,156.47 266.94,236.18 87.82,79.75 173.9,160.7 259.93,242.54 86.08,81.85 170.36,164.74 254.65,248.53 84.33,83.93 166.88,168.76 247.68,254.64 82.54,85.73 163.29,172.65 244.09,260.47 79.06,87.62 158.07,176.49 235.33,266.1 77.32,89.71 154.59,180.36 230.11,271.87 75.52,91.5 149.25,183.85 223.03,277.29 73.79,93.45 145.77,187.59 217.81,282.78 70.25,95.18 140.5,191.07 209,288 70.25,96.78 136.96,194.6 203.72,293.13 66.71,98.72 131.73,198.09 196.7,298.2 64.97,100.32 128.19,201.48 189.68,303.14 61.48,101.85 122.92,204.61 182.66,308.06 59.69,103.45 117.64,207.75 173.85,312.59 58,105.05 114.15,210.79 168.62,317.38 54.46,106.44 107.13,213.72 159.81,321.75 52.72,107.83 103.65,216.56 152.79,325.99 49.18,109.37 96.63,219.49 144.02,330.31 47.45,110.67 93.1,222.19 137.01,334.4 43.91,112.07 87.82,224.83 129.94,338.29 40.42,113.45 80.8,227.61 119.43,342.26 38.63,114.7 77.32,230.1 112.42,346 36.89,115.9 72.03,232.54 105.39,349.68 33.36,117.14 64.97,234.83 94.84,353.17 31.61,118.19 59.69,237.12 87.82,356.55 28.08,119.44 54.42,239.36 79.01,359.84 24.59,120.48 47.44,241.5 68.5,363.03 22.85,121.52 42.17,243.59 61.49,366.16 19.31,122.42 36.89,245.53 50.93,369 15.78,123.46 31.61,247.47 43.91,371.83 12.29,124.32 22.8,249.17 33.35,374.58 8.76,125.26 17.58,250.96 22.85,377.06 7.02,126.11 12.3,252.76 15.79,379.56 3.53,127 3.53,254.29 3.53,381.99 0,127.7 0,254.99 -3.53,381.99 -3.49,126.8 -8.77,253.4 -15.79,379.51 -5.27,126.1 -14.09,251.85 -22.85,377.06 -10.55,125.41 -21.06,250.31 -33.35,374.62 -12.3,124.37 -28.13,248.33 -43.91,371.84 -14.04,123.47 -31.62,246.58 -50.93,368.95 -19.32,122.62 -38.64,244.69 -61.49,366.21 -21.06,121.52 -43.91,242.55 -68.5,363.03 -24.59,120.47 -50.93,240.4 -79.01,359.84 -28.13,119.43 -56.21,238.16 -87.82,356.55 -29.87,118.19 -61.48,236.02 -94.84,353.17 -33.36,117.14 -68.5,233.58 -105.39,349.68 -35.1,115.9 -73.79,231.3 -112.42,345.95 -38.63,114.7 -79.01,228.71 -119.43,342.16 -42.12,113.41 -86.03,226.37 -129.94,338.44 -43.91,112.21 -89.56,223.53 -137.01,334.35 -47.39,110.81 -94.84,220.94 -144.02,330.36 -49.14,109.23 -100.07,217.96 -152.79,325.99 -52.68,107.98 -105.35,215.11 -159.81,321.75 -54.47,106.39 -110.62,212.13 -168.62,317.18 -56.21,104.99 -114.16,209.14 -173.85,312.59 -59.74,103.45 -121.18,206.21 -182.66,308.06 -61.49,101.86 -124.71,202.87 -189.68,303.14 -64.97,100.26 -129.99,199.68 -196.7,298.2 -66.76,98.53 -133.47,196.35 -203.72,293.13 -68.5,96.93 -138.75,193.02 -209,288 -72.04,95.24 -144.02,189.53 -217.81,282.78 -73.78,93.44 -147.51,185.84 -223.03,277.34 -75.52,91.66 -152.79,182.26 -230.11,271.87 -77.26,89.71 -156.27,178.43 -235.33,266.25 -80.8,87.82 -161.55,174.54 -244.09,260.42 -80.8,85.73 -163.35,170.71 -247.68,254.49 -84.29,83.94 -168.57,166.68 -254.65,248.53 -86.03,81.99 -172.11,162.79 -259.93,242.54 -87.82,79.71 -177.38,158.57 -266.94,236.23 -89.57,77.76 -180.92,154.38 -272.23,230.05 -91.35,75.52 -182.66,150 -277.5,223.38 -93.09,73.43 -186.19,145.62 -282.77,216.91 -94.84,71.14 -189.68,141.24 -288.01,210.24 -96.63,68.85 -193.21,136.66 -291.54,203.37 -100.12,66.56 -198.49,132.07 -298.61,196.54 -100.61,64.27 -201.77,127.3 -303.63,189.33 -101.86,61.98 -204.47,122.77 -307.87,182.26 -103.46,59.54 -207.8,117.89 -312.8,174.94 -104.85,57.25 -210.59,113.11 -317.23,167.72 -106.39,54.62 -213.73,108.04 -321.71,160.01 -107.88,52.17 -216.56,102.9 -325.99,152.64 -109.43,49.48 -219.55,97.62 -330.37,144.67 -110.62,46.9 -222.14,92.6 -334.4,136.86 -112.02,44.26 -224.78,87.27 -338.24,128.89 -113.46,41.62 -227.62,81.84 -342.32,120.67 -114.66,38.99 -230.06,76.57 -346.01,112.57 -115.89,36.19 -232.49,70.94 -349.63,104.29 -117.15,33.41 -234.84,65.37 -353.23,95.74 -118.19,30.57 -237.07,59.69 -356.51,87.27 -119.43,27.58 -239.36,53.77 -359.84,78.51 -120.53,24.79 -241.51,47.94 -363.03,69.75 -121.57,21.75 -243.6,42.11 -366.02,60.93 -122.62,18.62 -245.54,36 -369,51.63 -123.67,15.83 -247.48,30.02 -371.99,42.66 -124.37,12.65 -249.23,23.9 -374.43,33.41 -125.41,9.66 -250.97,17.52 -377.07,24.04 -126.31,6.33 -252.76,11.25 -379.71,14.39 -126.8,3.19 -254.15,4.93 -381.85,4.93 -127.65,0 -255,-1.74 -382,-4.93 -126.95,-3.14 -253.4,-8.06 -379.51,-14.39 -126.3,-6.52 -251.86,-14.38 -377.27,-24.04 -125.21,-9.51 -250.07,-20.76 -374.43,-33.41 -124.51,-12.64 -248.33,-26.83 -371.79,-42.66 -123.67,-15.63 -246.59,-33.01 -369.2,-51.63 -122.43,-18.82 -244.45,-39.18 -366.02,-60.93 -121.53,-21.81 -242.55,-44.96 -363.03,-69.75 -120.48,-24.74 -240.41,-50.93 -359.85,-78.51 -119.43,-27.58 -238.32,-56.7 -356.51,-87.27 -118.38,-30.37 -236.07,-62.33 -353.22,-95.74 -117.14,-33.35 -233.74,-68.1 -349.69,-104.29 -115.9,-36 -231.3,-73.58 -345.95,-112.57 -114.7,-38.83 -228.86,-79.05 -342.32,-120.67 -113.46,-41.62 -226.22,-84.63 -338.44,-128.89 -112.06,-44.26 -223.58,-89.96 -334.4,-136.86 -110.62,-47.05 -220.75,-95.19 -330.17,-144.67 -109.43,-49.74 -218.16,-100.47 -326.14,-152.64 -107.84,-51.97 -215.17,-105.39 -321.61,-160.01 -106.59,-54.61 -212.33,-110.47 -317.33,-167.72 -104.85,-57.05 -209.2,-115.4 -312.65,-174.94 -103.45,-59.49 -206.01,-120.28 -308.02,-182.26 -101.71,-62.03 -202.87,-125.06 -303.14,-189.33 -100.11,-64.47 -199.53,-129.98 -298.26,-196.54 -98.52,-66.71 -196.15,-134.52 -293.08,-203.37 -96.98,-69 -192.87,-139.1 -288.05,-210.24 -95.19,-71.29 -189.34,-143.48 -282.78,-216.91 -93.25,-73.38 -185.8,-147.86 -277.3,-223.38 -91.51,-75.67 -182.12,-152.29 -271.88,-230.05 -89.56,-77.66 -178.43,-156.52 -266.1,-236.23 -87.77,-79.75 -174.54,-160.55 -260.42,-242.54 -85.88,-81.85 -170.71,-164.59 -254.7,-248.53 -83.74,-83.78 -166.63,-168.76 -248.48,-254.49 -81.84,-85.88 -162.64,-172.6 -242.55,-260.42 -79.75,-87.82 -158.61,-176.54 -236.22,-266.25 -77.62,-89.61 -154.39,-180.21 -229.91,-271.87 -75.67,-91.5 -150.15,-183.9 -223.58,-277.34 -73.39,-93.25 -145.57,-187.54 -216.92,-282.78 -71.09,-94.98 -141.19,-191.07 -210.04,-288 -69,-96.78 -136.81,-194.6 -203.57,-293.13 -66.56,-98.52 -132.03,-197.94 -196.35,-298.2 -64.42,-100.27 -127.5,-201.28 -189.48,-303.14 -61.98,-101.85 -122.77,-204.61 -182.31,-308.06 -59.54,-103.45 -117.84,-207.6 -174.95,-312.59 -57.05,-105.05 -113.06,-210.79 -167.72,-317.18 -54.61,-106.64 -107.83,-213.77 -159.96,-321.75 -52.17,-108.03 -102.95,-216.76 -152.49,-325.99 -49.49,-109.42 -97.78,-219.55 -144.67,-330.36 -47.1,-110.82 -92.6,-222.14 -137.01,-334.35 -44.26,-112.07 -87.12,-225.03 -128.74,-338.44 -41.62,-113.45 -82,-227.46 -120.83,-342.16 -38.98,-114.65 -76.42,-230.05 -112.57,-345.95 -36.19,-116.1 -70.99,-232.54 -104.34,-349.68 -33.36,-117.15 -65.17,-234.98 -95.69,-353.17 -30.57,-118.39 -59.54,-237.12 -87.32,-356.55 -27.58,-119.44 -53.72,-239.37 -78.51,-359.84 -24.75,-120.48 -47.95,-241.51 -69.7,-363.03 -21.81,-121.52 -41.97,-243.59 -60.79,-366.21 -18.77,-122.37 -36.19,-245.48 -51.83,-368.95 -15.78,-123.51 -30.02,-247.47 -42.66,-371.84 -12.65,-124.31 -23.9,-249.21 -33.36,-374.62 -9.51,-125.21 -17.57,-250.96 -23.89,-377.06 -6.48,-126.11 -11.4,-252.71 -14.59,-379.51 -3.14,-127 -4.88,-254.29 -4.88,-381.99 0,-127.7 1.74,-254.99 4.88,-381.99 3.19,-126.8 8.11,-253.45 14.59,-379.56 6.32,-126.1 14.38,-251.8 23.89,-377.06 9.46,-125.41 20.71,-250.26 33.36,-374.58 12.64,-124.36 26.88,-248.37 42.66,-371.83 15.64,-123.47 33.06,-246.58 51.83,-369 18.82,-122.57 38.98,-244.64 60.79,-366.16 21.75,-121.53 44.95,-242.55 69.7,-363.03 24.79,-120.48 50.93,-240.4 78.51,-359.84 27.78,-119.43 56.75,-238.36 87.32,-356.55 30.52,-118.34 62.33,-236.03 95.69,-353.17 33.35,-117.14 68.15,-233.78 104.34,-349.68 36.15,-115.9 73.59,-231.3 112.57,-346 38.83,-114.65 79.21,-228.81 120.83,-342.26 41.62,-113.46 84.48,-226.22 128.74,-338.29 44.41,-112.21 89.91,-223.73 137.01,-334.4 46.89,-110.82 95.18,-220.94 144.67,-330.31 49.54,-109.43 100.32,-218.16 152.49,-325.99 52.13,-108.03 105.35,-215.31 159.96,-321.75 54.66,-106.59 110.67,-212.33 167.72,-317.38 57.11,-104.84 115.41,-209.14 174.95,-312.59 59.54,-103.45 120.33,-206.21 182.31,-308.06 61.98,-101.66 125.06,-202.82 189.48,-303.14 64.32,-100.11 129.79,-199.48 196.35,-298.2 66.76,-98.53 134.57,-196.35 203.57,-293.13 68.85,-96.93 138.95,-192.82 210.04,-288 71.35,-95.19 143.53,-189.33 216.92,-282.78 73.43,-93.44 147.91,-185.79 223.58,-277.29 75.52,-91.51 152.29,-182.16 229.91,-271.87 77.61,-89.61 156.47,-178.48 236.22,-266.1 79.91,-87.82 160.71,-174.74 242.55,-260.47 81.85,-85.88 164.74,-170.71 248.48,-254.64 83.99,-83.79 168.82,-166.68 254.7,-248.53 85.88,-81.84 172.65,-162.79 260.42,-242.54 87.67,-79.71 176.54,-158.57 266.1,-236.18 89.76,-77.81 180.37,-154.38 271.88,-229.9 91.5,-75.72 184.05,-150.2 277.3,-223.58 93.44,-73.43 187.59,-145.62 282.78,-216.91 95.18,-71.14 191.07,-141.19 288.05,-210.24 96.93,-68.85 194.56,-136.61 293.08,-203.37 98.73,-66.56 198.15,-132.07 298.26,-196.49 100.27,-64.32 201.43,-127.35 303.14,-189.33 102.01,-62.03 204.57,-122.77 308.02,-182.31 103.45,-59.54 207.8,-117.84 312.65,-174.94 105,-57.25 210.74,-113.11 317.33,-167.72 106.44,-54.62 213.77,-108.04 321.61,-160.01 107.98,-52.12 216.71,-103.1 326.14,-152.59 109.42,-49.53 219.55,-97.67 330.17,-144.72 110.82,-46.9 222.34,-92.55 334.4,-136.81 112.22,-44.26 224.98,-87.32 338.44,-128.94 113.46,-41.62 227.62,-81.84 342.32,-120.62 114.65,-39.04 230.05,-76.57 345.95,-112.62 115.95,-36.14 232.55,-70.94 349.69,-104.29 117.15,-33.36 234.84,-65.37 353.22,-95.74 118.19,-30.57 237.08,-59.69 356.51,-87.27 119.44,-27.58 239.37,-53.77 359.85,-78.51 120.48,-24.74 241.5,-47.94 363.03,-69.75 121.57,-21.75 243.59,-42.11 366.02,-60.93 122.61,-18.77 245.53,-36 369.2,-51.78 123.46,-15.63 247.28,-29.87 371.79,-42.51 124.36,-12.65 249.22,-23.9 374.43,-33.36 125.41,-9.66 250.97,-17.57 377.27,-24.09 126.11,-6.33 252.56,-11.2 379.51,-14.39 127,-3.34 254.35,-4.93 382,-4.93z"/>
  <polygon fill="black" fill-rule="nonzero" points="8379.81,16933.23 8522.6,17039.67 8665.38,17146.11 8808.36,17252.55 8951.14,17358.98 9093.93,17465.42 9236.91,17571.81 9379.69,17678.25 9522.47,17784.69 9665.45,17891.12 9808.24,17997.36 9951.02,18103.8 10093.8,18210.24 10236.78,18316.68 10379.57,18423.07 10522.35,18529.51 10665.28,18635.94 10808.06,18742.38 10950.85,18848.82 11093.68,18955.26 11236.61,19061.65 11379.39,19168.08 11522.18,19274.37 11665.16,19380.76 11807.94,19487.2 11950.72,19593.64 12093.51,19700.08 12236.49,19806.51 12379.27,19912.95 12522.05,20019.34 12665.03,20125.78 12807.82,20232.22 12950.6,20338.46 13093.38,20444.9 13236.31,20551.33 13379.15,20657.77 13521.93,20764.21 13664.86,20870.65 13807.64,20977.04 13950.43,21083.47 14093.21,21189.91 14236.19,21296.35 14378.97,21402.79 14521.76,21509.03 14664.74,21615.47 14807.52,21721.9 14950.3,21828.34 15093.29,21934.73 15236.07,22041.17 15378.85,22147.61 15521.63,22254.05 15664.57,22360.48 15807.4,22466.92 15950.18,22573.31 16093.11,22679.6 16235.9,22786.04 16378.68,22892.43 16521.51,22998.86 16664.44,23105.3 16807.23,23211.74 16950.01,23318.18 17092.99,23424.62 17235.77,23531.01 17378.55,23637.44 17521.34,23743.88 17521.34,23531.01 17521.34,23318.18 17521.34,23105.3 17521.34,22892.43 17521.34,22679.6 17521.34,22466.92 17521.34,22254.05 17521.34,22041.17 17521.34,21828.34 17521.34,21615.47 17521.34,21402.79 17521.34,21189.91 17521.34,20977.04 17521.34,20764.21 17521.34,20551.33 17521.34,20338.46 17521.34,20125.78 17521.34,19912.95 17521.34,19700.08 17521.34,19487.2 17521.34,19274.37 17521.34,19061.65 17521.34,18848.82 17521.34,18635.94 17521.34,18423.07 17521.34,18210.24 17521.34,17997.36 17521.34,17784.69 17521.34,17571.81 17521.34,17358.98 17521.34,17146.11 17521.34,16933.23 17521.34,16720.55 17521.34,16507.73 17521.34,16294.85 17521.34,16081.97 17521.34,15869.15 17521.34,15656.42 17521.34,15443.59 17521.34,15230.72 17521.34,15017.84 17521.34,14805.01 17521.34,14592.14 17521.34,14379.46 17521.34,14166.58 17521.34,13953.76 17521.34,13740.88 17521.34,13528 17521.34,13315.33 17521.34,13102.45 17521.34,12889.62 17521.34,12676.75 17521.34,12463.87 17521.34,12251.04 17521.34,12038.37 17521.34,11825.49 17521.34,11612.61 17521.34,11399.79 17521.34,11186.91 17521.34,10974.23 17521.34,10761.36 17521.34,10548.53 17521.34,10335.65 17521.34,10122.78 17378.55,10229.22 17235.77,10335.65 17092.99,10442.09 16950.01,10548.53 16807.23,10654.92 16664.44,10761.36 16521.51,10867.8 16378.68,10974.23 16235.9,11080.67 16093.11,11186.91 15950.18,11293.35 15807.4,11399.79 15664.57,11506.18 15521.63,11612.61 15378.85,11719.05 15236.07,11825.49 15093.29,11931.93 14950.3,12038.37 14807.52,12144.76 14664.74,12251.04 14521.76,12357.48 14378.97,12463.87 14236.19,12570.31 14093.21,12676.75 13950.43,12783.19 13807.64,12889.62 13664.86,12996.06 13521.93,13102.45 13379.15,13208.89 13236.31,13315.33 13093.38,13421.57 12950.6,13528 12807.82,13634.44 12665.03,13740.88 12522.05,13847.32 12379.27,13953.76 12236.49,14060.15 12093.51,14166.58 11950.72,14273.02 11807.94,14379.46 11665.16,14485.9 11522.18,14592.14 11379.39,14698.58 11236.61,14805.01 11093.68,14911.45 10950.85,15017.84 10808.06,15124.28 10665.28,15230.72 10522.35,15337.15 10379.57,15443.59 10236.78,15550.03 10093.8,15656.42 9951.02,15762.71 9808.24,15869.15 9665.45,15975.54 9522.47,16081.97 9379.69,16188.41 9236.91,16294.85 9093.93,16401.29 8951.14,16507.73 8808.36,16614.11 8665.38,16720.55 8522.6,16826.84 "/>
  <polygon fill="black" fill-rule="nonzero" points="12384.35,19882.73 8379.81,19882.73 8379.81,13983.93 12384.35,13983.93 12384.35,14076.13 12384.35,14168.38 12384.35,14260.58 12384.35,14352.58 12384.35,14444.78 12384.35,14536.98 12384.35,14629.18 12384.35,14721.43 12384.35,14813.43 12384.35,14905.63 12384.35,14997.83 12384.35,15090.03 12384.35,15182.23 12384.35,15274.28 12384.35,15366.48 12384.35,15458.68 12384.35,15550.88 12384.35,15642.93 12384.35,15735.13 12384.35,15827.33 12384.35,15919.53 12384.35,16011.73 12384.35,16103.78 12384.35,16195.98 12384.35,16288.18 12384.35,16380.38 12384.35,16472.38 12384.35,16564.63 12384.35,16656.83 12384.35,16749.03 12384.35,16841.23 12384.35,16933.23 12384.35,17025.43 12384.35,17117.68 12384.35,17209.88 12384.35,17302.08 12384.35,17394.08 12384.35,17486.28 12384.35,17578.48 12384.35,17670.68 12384.35,17762.73 12384.35,17854.93 12384.35,17947.13 12384.35,18039.33 12384.35,18131.53 12384.35,18223.58 12384.35,18315.78 12384.35,18407.98 12384.35,18500.18 12384.35,18592.38 12384.35,18684.43 12384.35,18776.63 12384.35,18868.83 12384.35,18961.03 12384.35,19053.08 12384.35,19145.28 12384.35,19237.48 12384.35,19329.68 12384.35,19421.88 12384.35,19513.93 12384.35,19606.13 12384.35,19698.33 12384.35,19790.53 "/>
  <path fill="black" fill-rule="nonzero" d="M21070.09 23338.89c-2.98,0 -6.12,0 -9.31,-0.2 -3.13,0 -6.12,-0.15 -9.31,-0.15 -3.13,-0.2 -6.32,-0.35 -9.26,-0.55 -3.18,-0.15 -6.32,-0.35 -9.31,-0.49 -3.18,-0.2 -6.32,-0.55 -9.31,-0.7 -3.18,-0.35 -6.32,-0.7 -9.3,-1.1 -3.19,-0.35 -6.18,-0.69 -9.31,-1.04 -2.99,-0.35 -6.18,-0.85 -9.17,-1.2 -3.13,-0.54 -6.12,-1.09 -9.11,-1.44 -3.18,-0.5 -6.17,-1.05 -9.16,-1.74 -3.13,-0.5 -6.12,-1.05 -9.11,-1.75 -3.18,-0.54 -6.17,-1.24 -9.16,-1.94 -2.98,-0.54 -5.97,-1.24 -8.96,-1.94 -2.94,-0.84 -5.92,-1.59 -8.91,-2.29 -2.99,-0.85 -5.97,-1.54 -8.96,-2.44 -2.99,-0.89 -5.98,-1.74 -8.96,-2.64 -2.99,-0.89 -5.83,-1.74 -8.81,-2.64 -2.99,-0.84 -5.98,-1.94 -8.77,-2.78 -2.98,-1.05 -5.77,-2.14 -8.76,-3.19 -2.84,-1.04 -5.82,-2.09 -8.61,-3.14 -2.99,-1.04 -5.83,-2.29 -8.61,-3.33 -2.99,-1.05 -5.83,-2.29 -8.62,-3.54 -2.78,-1.24 -5.62,-2.44 -8.41,-3.68 -2.84,-1.24 -5.63,-2.44 -8.46,-3.68 -2.79,-1.4 -5.63,-2.64 -8.42,-4.04 -2.79,-1.39 -5.42,-2.63 -8.26,-4.03 -2.79,-1.44 -5.43,-2.84 -8.27,-4.43 -2.63,-1.39 -5.42,-2.79 -8.06,-4.38 -2.64,-1.39 -5.43,-2.99 -8.07,-4.38 -2.63,-1.59 -5.27,-3.14 -7.91,-4.73 -2.64,-1.59 -5.28,-3.19 -7.92,-4.93 -2.64,-1.59 -5.27,-3.34 -7.86,-4.93 -2.64,-1.74 -5.13,-3.33 -7.77,-5.08 -2.44,-1.74 -5.08,-3.53 -7.52,-5.27 -2.64,-1.75 -5.13,-3.69 -7.56,-5.43 -2.64,-1.94 -5.08,-3.68 -7.57,-5.63 -2.44,-1.74 -4.93,-3.68 -7.37,-5.62 -2.44,-1.94 -4.73,-3.88 -7.22,-5.78 -2.44,-1.94 -4.73,-4.08 -7.17,-5.97 -2.29,-2.14 -4.73,-4.03 -7.02,-6.17 -2.29,-2.09 -4.78,-4.19 -7.02,-6.33 -2.29,-2.09 -4.58,-4.18 -6.87,-6.32 -2.29,-2.09 -4.38,-4.18 -6.67,-6.47 -2.29,-2.14 -4.38,-4.43 -6.67,-6.67 -2.09,-2.14 -4.38,-4.43 -6.52,-6.67 -2.09,-2.29 -4.18,-4.58 -6.47,-7.07 -2.09,-2.24 -4.04,-4.53 -6.18,-7.02 -2.09,-2.29 -4.18,-4.73 -6.12,-7.17 -2.09,-2.29 -4.23,-4.78 -6.17,-7.22 -1.9,-2.44 -3.84,-4.93 -5.98,-7.37 -1.89,-2.49 -3.83,-5.08 -5.77,-7.56 -1.75,-2.64 -3.69,-5.08 -5.63,-7.72 -1.94,-2.64 -3.68,-5.08 -5.43,-7.72 -1.94,-2.64 -3.68,-5.27 -5.47,-7.91 -1.74,-2.79 -3.49,-5.43 -5.23,-8.07 -1.79,-2.84 -3.53,-5.47 -5.13,-8.26 -1.74,-2.64 -3.48,-5.43 -5.07,-8.27 -1.6,-2.78 -3.14,-5.62 -4.93,-8.41 -1.6,-2.84 -3.14,-5.63 -4.53,-8.46 -1.6,-2.99 -3.19,-5.78 -4.58,-8.76 -1.6,-2.79 -2.99,-5.78 -4.39,-8.77 -1.59,-2.83 -2.98,-5.82 -4.43,-8.81 -1.39,-2.99 -2.63,-5.97 -4.03,-8.96 -1.39,-3.14 -2.64,-6.12 -4.03,-9.11 -1.59,-4.23 -3.34,-8.26 -4.93,-12.3 -1.54,-4.23 -3.14,-8.26 -4.73,-12.29 -1.39,-4.24 -2.79,-8.27 -4.23,-12.45 -1.4,-4.08 -2.79,-8.26 -4.03,-12.5 -1.2,-4.03 -2.44,-8.26 -3.69,-12.44 -1.19,-4.08 -2.29,-8.27 -3.33,-12.5 -1.05,-4.23 -2.09,-8.26 -2.99,-12.44 -0.85,-4.23 -1.94,-8.47 -2.64,-12.65 -0.85,-4.03 -1.74,-8.26 -2.44,-12.49 -0.7,-4.19 -1.39,-8.42 -1.94,-12.65 -0.7,-4.18 -1.24,-8.26 -1.74,-12.45 -0.55,-4.23 -1.05,-8.46 -1.4,-12.64 -0.35,-4.23 -0.89,-8.46 -1.09,-12.5 -0.35,-4.18 -0.7,-8.41 -0.85,-12.64 -0.2,-4.18 -0.35,-8.41 -0.35,-12.45 -0.2,-4.23 -0.2,-8.46 -0.2,-12.64 0,-4.23 0,-8.27 0.2,-12.5 0,-4.18 0.15,-8.26 0.35,-12.44 0.15,-4.24 0.5,-8.27 0.85,-12.5 0.2,-4.03 0.55,-8.21 1.09,-12.3 0.35,-4.18 0.7,-8.21 1.2,-12.44 0.55,-4.04 1.04,-8.07 1.79,-12.3 0.5,-4.03 1.2,-8.06 1.89,-12.1 0.7,-4.08 1.45,-8.26 2.14,-12.29 0.85,-4.09 1.75,-8.12 2.64,-11.95 0.85,-4.03 1.74,-8.12 2.79,-12.15 0.9,-4.03 1.94,-7.86 2.99,-11.95 1.24,-4.03 2.29,-7.86 3.53,-11.9 1.05,-3.88 2.24,-7.76 3.69,-11.79 1.19,-3.84 2.43,-7.72 3.83,-11.6 1.39,-3.84 2.84,-7.72 4.23,-11.55 1.39,-3.89 2.99,-7.77 4.58,-11.45 1.39,-3.84 2.99,-7.72 4.73,-11.4 1.59,-3.89 3.34,-7.57 4.93,-11.26 1.74,-3.68 3.48,-7.56 5.28,-11.25 1.89,-3.68 3.68,-7.17 5.57,-10.85 1.94,-3.68 3.89,-7.42 5.83,-10.9 2.09,-3.69 4.03,-7.22 6.12,-10.71 2.14,-3.53 4.23,-7.22 6.32,-10.7 2.29,-3.39 4.43,-6.87 6.67,-10.4 2.29,-3.49 4.58,-6.83 6.87,-10.36 2.29,-3.34 4.73,-6.67 7.02,-10.01 2.44,-3.33 4.93,-6.67 7.37,-10 2.64,-3.34 5.13,-6.47 7.72,-9.81 2.49,-3.19 5.13,-6.52 7.77,-9.71 2.78,-3.13 5.42,-6.32 8.21,-9.26 2.64,-3.18 5.48,-6.32 8.26,-9.31 2.84,-3.18 5.83,-6.17 8.62,-9.16 2.98,-2.99 5.82,-5.97 8.81,-8.76 2.99,-2.99 6.12,-5.82 9.11,-8.81 2.99,-2.79 6.12,-5.63 9.31,-8.42 3.14,-2.78 6.32,-5.62 9.46,-8.26 3.18,-2.79 6.52,-5.43 9.86,-8.06 3.18,-2.64 6.52,-5.28 10,-7.72 3.34,-2.64 6.67,-5.13 10.21,-7.77 3.33,-2.44 6.82,-4.88 10.35,-7.17 3.49,-2.49 7.02,-4.92 10.71,-7.21 3.53,-2.29 7.22,-4.58 10.9,-6.83 3.68,-2.29 7.37,-4.58 11.05,-6.67 3.69,-2.14 7.57,-4.23 11.25,-6.32 3.84,-2.14 7.72,-4.23 11.6,-6.17 3.84,-2.09 7.72,-4.03 11.75,-5.98 3.89,-1.74 7.92,-3.68 11.95,-5.42 4.03,-1.94 8.07,-3.69 12.1,-5.48 34.1,-14.39 68,-28.97 101.71,-44.06 33.7,-14.93 67.06,-30.22 100.46,-45.85 33.36,-15.43 66.37,-31.41 99.37,-47.39 32.86,-16.18 65.72,-32.66 98.23,-49.39 32.46,-16.68 64.77,-33.7 96.93,-50.93 32.11,-17.17 64.07,-34.75 95.89,-52.47 31.61,-17.92 63.22,-36.04 94.49,-54.31 31.41,-18.23 62.53,-36.84 93.44,-55.81 30.92,-18.82 61.44,-37.94 92.01,-57.45 30.56,-19.32 60.78,-38.98 90.8,-59 30.02,-19.86 59.89,-40.07 89.57,-60.44 29.72,-20.56 59.04,-41.07 88.36,-62.18 29.13,-20.85 58.1,-42.11 86.93,-63.57 28.82,-21.41 57.25,-43.01 85.53,-64.97 28.48,-21.95 56.55,-44.11 84.28,-66.41 27.93,-22.45 55.71,-45.1 83.09,-67.95 27.39,-22.81 54.62,-46.01 81.5,-69.35 27.04,-23.35 53.72,-46.9 80.26,-70.8 26.53,-23.69 52.87,-47.79 78.85,-71.98 25.99,-24.25 51.83,-48.84 77.47,-73.59 25.44,-24.59 50.73,-49.53 75.87,-74.67 25.09,-25.09 50.04,-50.58 74.63,-76.02 24.59,-25.64 48.99,-51.48 73.08,-77.47 24.05,-25.98 47.95,-52.17 71.64,-78.5 23.55,-26.54 47.05,-53.02 70.1,-79.91 23.15,-26.88 46,-53.91 68.65,-81.15 22.66,-27.23 45.16,-54.61 67.26,-82.19 22.16,-27.58 43.91,-55.51 65.52,-83.44 21.61,-28.08 43.01,-56.2 64.12,-84.63 21.06,-28.28 41.97,-56.9 62.53,-85.73 20.51,-28.62 40.87,-57.6 60.94,-86.72 20.01,-29.18 39.83,-58.5 59.34,-87.82 19.67,-29.52 38.83,-59.19 57.8,-89.06 19.12,-29.88 37.74,-59.7 56.21,-89.91 18.42,-30.22 36.69,-60.59 54.61,-90.96 17.92,-30.57 35.45,-61.33 52.87,-92.05 17.38,-30.92 34.41,-61.83 51.28,-93.1 16.68,-31.06 33.36,-62.33 49.54,-93.74 16.33,-31.66 32.11,-63.28 47.94,-95.04 15.63,-31.61 31.07,-63.57 46.15,-95.73 15.14,-31.96 29.87,-64.27 44.46,-96.58 14.59,-32.31 28.77,-64.82 42.66,-97.48 14.04,-32.66 27.78,-65.52 41.13,-98.32 13.34,-33.06 26.48,-66.07 39.13,-99.27 12.84,-33.16 25.29,-66.56 37.58,-99.92 12.15,-33.55 24.1,-67.11 35.65,-100.81 11.6,-33.71 22.85,-67.46 33.9,-101.51 10.91,-33.9 21.61,-67.96 31.97,-102.21 10.55,-34.05 20.56,-68.5 30.41,-102.9 9.66,-34.45 19.12,-68.85 28.28,-103.65 9.11,-34.6 18.07,-69.35 26.49,-104.15 8.61,-34.95 16.87,-69.9 24.79,-105 7.92,-35.14 15.43,-70.24 22.65,-105.59 7.37,-35.29 14.39,-70.59 20.91,-106.04 6.67,-35.49 13,-71.14 18.97,-106.78 5.97,-35.65 11.75,-71.29 17.03,-107.34 5.42,-35.79 10.35,-71.64 15.08,-107.63 4.73,-36.19 9.16,-72.19 13.19,-108.38 4.04,-36.19 7.72,-72.54 11.06,-108.88 3.33,-36.34 6.52,-72.73 9.16,-109.22 2.59,-36.55 5.07,-73.09 7.17,-109.78 1.94,-36.54 3.68,-73.23 5.07,-110.12 1.25,-36.69 2.29,-73.58 2.99,-110.47 0.75,-36.89 1.1,-73.93 1.1,-111.02 0,-36.84 -0.35,-73.93 -1.1,-110.82 -0.7,-36.89 -1.74,-73.73 -2.99,-110.62 -1.39,-36.69 -3.13,-73.43 -5.07,-110.12 -2.1,-36.54 -4.58,-73.08 -7.17,-109.58 -2.64,-36.54 -5.83,-73.08 -9.16,-109.27 -3.34,-36.34 -7.02,-72.69 -11.06,-108.88 -4.03,-36.19 -8.46,-72.34 -13.19,-108.38 -4.73,-35.99 -9.66,-71.79 -15.08,-107.83 -5.28,-35.8 -11.06,-71.44 -17.03,-107.14 -5.97,-35.64 -12.3,-71.29 -18.97,-106.73 -6.52,-35.5 -13.54,-70.8 -20.91,-106.09 -7.22,-35.3 -14.73,-70.6 -22.65,-105.55 -7.92,-35.14 -16.18,-70.09 -24.79,-105.04 -8.42,-34.8 -17.38,-69.55 -26.49,-104.35 -9.16,-34.6 -18.62,-69.15 -28.28,-103.4 -9.85,-34.6 -19.86,-68.85 -30.41,-103.1 -10.36,-34.1 -21.06,-68.16 -31.97,-102.21 -11.05,-33.9 -22.3,-67.8 -33.9,-101.36 -11.55,-33.7 -23.5,-67.45 -35.65,-100.81 -12.29,-33.55 -24.74,-66.71 -37.58,-99.92 -12.65,-33.2 -25.79,-66.21 -39.13,-99.22 -13.35,-32.85 -27.09,-65.71 -41.13,-98.37 -13.89,-32.66 -28.07,-65.17 -42.66,-97.48 -14.59,-32.31 -29.32,-64.62 -44.46,-96.58 -15.08,-32.16 -30.52,-64.12 -46.15,-95.88 -15.83,-31.81 -31.61,-63.43 -47.94,-94.84 -16.18,-31.46 -32.86,-62.73 -49.54,-93.99 -16.87,-31.07 -33.9,-61.98 -51.28,-92.9 -17.42,-30.72 -34.95,-61.48 -52.87,-92 -17.92,-30.42 -36.19,-60.79 -54.61,-91.01 -18.47,-30.21 -37.09,-60.23 -56.21,-89.91 -18.97,-29.87 -38.13,-59.54 -57.8,-89.06 -19.51,-29.47 -39.33,-58.64 -59.34,-87.77 -20.07,-29.17 -40.43,-58.15 -60.94,-86.97 -20.56,-28.63 -41.47,-57.25 -62.53,-85.68 -21.11,-28.28 -42.51,-56.55 -64.12,-84.48 -21.61,-28.13 -43.36,-55.86 -65.52,-83.44 -22.1,-27.58 -44.6,-55.16 -67.26,-82.34 -22.65,-27.24 -45.5,-54.12 -68.65,-81 -23.05,-26.84 -46.55,-53.37 -70.1,-79.91 -23.69,-26.33 -47.59,-52.52 -71.64,-78.5 -24.09,-26.14 -48.49,-51.78 -73.08,-77.42 -24.59,-25.69 -49.54,-50.98 -74.63,-76.07 -25.14,-25.09 -50.43,-50.03 -75.87,-74.82 -25.64,-24.75 -51.48,-49.19 -77.47,-73.39 -25.98,-24.24 -52.32,-48.34 -78.85,-72.18 -26.54,-23.75 -53.22,-47.25 -80.26,-70.65 -26.88,-23.34 -54.11,-46.49 -81.5,-69.35 -27.38,-22.85 -55.16,-45.5 -83.09,-67.95 -27.73,-22.5 -55.8,-44.61 -84.28,-66.56 -28.28,-21.81 -56.71,-43.56 -85.53,-65.02 -28.83,-21.41 -57.8,-42.66 -86.93,-63.57 -29.32,-20.86 -58.64,-41.62 -88.36,-61.98 -29.68,-20.37 -59.55,-40.58 -89.57,-60.59 -30.02,-19.87 -60.24,-39.53 -90.8,-59 -30.57,-19.31 -61.09,-38.48 -92.01,-57.45 -30.91,-18.77 -62.03,-37.38 -93.44,-55.85 -31.27,-18.28 -62.88,-36.35 -94.49,-54.07 -31.82,-17.92 -63.78,-35.5 -95.89,-52.72 -32.16,-17.18 -64.47,-34.25 -96.93,-50.93 -32.51,-16.68 -65.37,-33.01 -98.23,-49.14 -33,-16.18 -66.01,-32.01 -99.37,-47.59 -33.4,-15.63 -66.76,-30.92 -100.46,-45.85 -33.71,-14.94 -67.61,-29.67 -101.71,-44.11 -4.03,-1.74 -8.07,-3.49 -12.1,-5.28 -4.03,-1.89 -8.06,-3.68 -11.95,-5.57 -4.03,-1.94 -7.91,-3.89 -11.75,-5.83 -3.88,-2.09 -7.76,-4.03 -11.6,-6.12 -3.68,-2.14 -7.56,-4.23 -11.25,-6.52 -3.68,-2.09 -7.37,-4.38 -11.05,-6.47 -3.68,-2.3 -7.37,-4.59 -10.9,-7.02 -3.69,-2.29 -7.22,-4.58 -10.71,-7.07 -3.53,-2.44 -7.02,-4.88 -10.35,-7.37 -3.54,-2.44 -6.87,-5.08 -10.21,-7.52 -3.48,-2.64 -6.82,-5.28 -10,-7.91 -3.34,-2.64 -6.68,-5.28 -9.86,-7.92 -3.14,-2.79 -6.32,-5.63 -9.46,-8.26 -3.19,-2.79 -6.32,-5.63 -9.31,-8.62 -2.99,-2.79 -6.12,-5.62 -9.11,-8.56 -2.99,-2.99 -5.83,-5.97 -8.81,-8.96 -2.79,-2.99 -5.78,-5.98 -8.62,-8.96 -2.78,-3.19 -5.62,-6.18 -8.26,-9.31 -2.79,-3.19 -5.43,-6.32 -8.21,-9.51 -2.64,-3.14 -5.28,-6.32 -7.77,-9.46 -2.59,-3.34 -5.08,-6.67 -7.72,-9.86 -2.44,-3.33 -4.93,-6.67 -7.37,-10 -2.29,-3.34 -4.73,-6.67 -7.02,-10.21 -2.29,-3.33 -4.58,-6.82 -6.87,-10.16 -2.24,-3.53 -4.38,-7.01 -6.67,-10.55 -2.09,-3.48 -4.18,-7.02 -6.32,-10.5 -2.09,-3.54 -4.03,-7.22 -6.12,-10.76 -1.94,-3.68 -3.89,-7.17 -5.83,-10.85 -1.89,-3.68 -3.68,-7.42 -5.57,-11.1 -1.8,-3.69 -3.54,-7.37 -5.28,-11.05 -1.59,-3.69 -3.34,-7.57 -4.93,-11.26 -1.74,-3.83 -3.34,-7.51 -4.73,-11.4 -1.59,-3.68 -3.19,-7.56 -4.58,-11.4 -1.39,-3.88 -2.84,-7.76 -4.23,-11.6 -1.4,-3.88 -2.64,-7.71 -3.83,-11.74 -1.45,-3.89 -2.64,-7.77 -3.69,-11.8 -1.24,-3.84 -2.29,-7.92 -3.53,-11.75 -1.05,-4.04 -2.09,-7.92 -2.99,-11.95 -1.05,-4.03 -1.94,-8.07 -2.79,-12.15 -0.89,-4.03 -1.79,-8.06 -2.64,-12.1 -0.69,-4.03 -1.44,-8.06 -2.14,-12.09 -0.69,-4.04 -1.39,-8.12 -1.89,-12.3 -0.75,-4.03 -1.24,-8.11 -1.79,-12.3 -0.5,-4.03 -0.85,-8.11 -1.2,-12.29 -0.54,-4.04 -0.89,-8.27 -1.09,-12.3 -0.35,-4.23 -0.7,-8.41 -0.85,-12.5 -0.2,-4.18 -0.35,-8.21 -0.35,-12.44 -0.2,-4.23 -0.2,-8.42 -0.2,-12.5 0,-4.18 0,-8.41 0.2,-12.64 0,-4.04 0.15,-8.22 0.35,-12.45 0.15,-4.23 0.5,-8.41 0.85,-12.64 0.2,-4.04 0.74,-8.27 1.09,-12.45 0.35,-4.23 0.85,-8.46 1.4,-12.64 0.5,-4.24 1.04,-8.47 1.74,-12.5 0.55,-4.23 1.24,-8.41 1.94,-12.65 0.7,-4.23 1.59,-8.41 2.44,-12.64 0.7,-4.03 1.79,-8.27 2.64,-12.45 0.9,-4.23 1.94,-8.46 2.99,-12.49 1.04,-4.23 2.14,-8.42 3.33,-12.45 1.25,-4.23 2.49,-8.46 3.69,-12.49 1.24,-4.24 2.63,-8.42 4.03,-12.45 1.44,-4.23 2.84,-8.26 4.23,-12.5 1.59,-4.03 3.19,-8.26 4.73,-12.29 1.59,-4.04 3.34,-8.27 4.93,-12.3 1.74,-4.03 3.53,-8.06 5.28,-12.1 1.94,-4.03 3.68,-7.91 5.62,-11.95 1.94,-3.88 3.84,-7.71 5.78,-11.6 2.14,-3.83 4.03,-7.71 6.17,-11.59 2.09,-3.84 4.18,-7.52 6.32,-11.21 2.09,-3.73 4.38,-7.41 6.67,-11.1 2.29,-3.68 4.58,-7.37 6.82,-10.85 2.29,-3.68 4.78,-7.22 7.02,-10.75 2.49,-3.49 4.93,-7.02 7.42,-10.36 2.44,-3.48 4.88,-6.82 7.52,-10.16 2.64,-3.33 5.13,-6.67 7.77,-10 2.58,-3.34 5.42,-6.52 8.06,-9.66 2.64,-3.34 5.43,-6.52 8.27,-9.66 2.78,-3.18 5.62,-6.17 8.41,-9.31 2.79,-2.98 5.77,-5.97 8.61,-8.96 2.99,-2.99 5.98,-5.97 8.96,-8.81 2.99,-2.99 5.98,-5.78 8.96,-8.61 2.99,-2.79 6.13,-5.63 9.31,-8.42 2.99,-2.64 6.13,-5.42 9.31,-8.06 3.14,-2.64 6.48,-5.28 9.66,-7.92 3.14,-2.44 6.47,-5.08 9.81,-7.56 3.19,-2.44 6.52,-4.88 9.86,-7.37 3.33,-2.44 6.67,-4.73 10.15,-7.17 3.34,-2.29 6.87,-4.58 10.21,-6.87 3.53,-2.09 7.02,-4.38 10.55,-6.52 3.49,-2.24 7.02,-4.38 10.51,-6.33 3.53,-2.09 7.02,-4.18 10.75,-6.12 3.49,-1.94 7.17,-4.03 10.85,-5.77 3.54,-1.95 7.22,-3.89 10.91,-5.63 3.68,-1.79 7.37,-3.53 11.05,-5.28 3.88,-1.74 7.57,-3.53 11.25,-5.12 3.88,-1.55 7.57,-3.14 11.4,-4.73 3.88,-1.6 7.57,-2.99 11.45,-4.53 3.84,-1.45 7.72,-2.84 11.55,-4.24 3.89,-1.39 7.77,-2.63 11.8,-3.88 3.83,-1.19 7.72,-2.44 11.75,-3.68 3.88,-1.25 7.92,-2.29 11.8,-3.34 4.03,-1.24 7.87,-2.09 11.9,-3.14 4.08,-1.09 8.11,-1.94 12.15,-2.83 4.03,-0.85 8.06,-1.75 12.09,-2.64 4.04,-0.7 8.12,-1.4 12.15,-2.09 4.03,-0.7 8.07,-1.4 12.3,-1.94 4.03,-0.7 8.06,-1.25 12.29,-1.75 4.04,-0.54 8.07,-0.89 12.25,-1.39 4.08,-0.35 8.27,-0.7 12.5,-1.1 4.03,-0.14 8.26,-0.49 12.29,-0.69 4.24,-0.15 8.42,-0.35 12.45,-0.5 4.23,0 8.46,-0.2 12.65,-0.2 4.23,0 8.26,0.2 12.49,0.2 4.23,0.15 8.41,0.35 12.65,0.5 4.23,0.2 8.41,0.55 12.44,0.69 4.23,0.4 8.47,0.75 12.65,1.1 4.23,0.5 8.46,0.85 12.64,1.39 4.24,0.5 8.47,1.25 12.65,1.75 4.23,0.69 8.46,1.24 12.64,2.09 4.24,0.74 8.27,1.44 12.5,2.29 4.18,0.89 8.41,1.79 12.65,2.64 4.18,1.04 8.41,1.94 12.64,2.98 4.03,1.05 8.26,2.29 12.45,3.34 4.23,1.24 8.46,2.49 12.49,3.68 4.18,1.25 8.42,2.64 12.45,4.03 4.23,1.45 8.46,2.84 12.5,4.44 4.18,1.39 8.21,2.98 12.44,4.53 4.03,1.59 8.27,3.33 12.3,5.12 40.02,16.83 79.9,34.06 119.43,51.63 39.53,17.72 79.01,35.64 118.04,53.92 39.13,18.27 78.16,36.89 116.8,55.85 38.63,18.97 77.06,38.29 115.35,57.75 38.13,19.67 76.07,39.53 113.81,59.89 37.78,20.22 75.37,40.78 112.61,61.69 37.24,20.85 74.28,42.11 110.97,63.72 36.89,21.61 73.43,43.41 109.77,65.51 36.2,22.16 72.39,44.61 108.19,67.46 35.64,22.8 71.29,45.8 106.64,69.35 35.29,23.35 70.39,47.1 105.19,70.94 34.75,24.1 69.35,48.34 103.6,72.89 34.45,24.59 68.51,49.53 102.21,74.67 33.75,25.29 67.26,50.73 100.67,76.37 33.15,25.84 66.21,51.83 99.02,78.16 32.71,26.34 65.17,52.87 97.33,79.76 32.31,26.88 64.27,54.06 95.88,81.49 31.62,27.38 63.03,55.11 94.29,83.04 31.12,27.93 61.84,56.21 92.55,84.69 30.57,28.42 60.79,57.25 90.81,86.22 30.07,29.12 59.89,58.3 89.41,87.97 29.33,29.52 58.65,59.19 87.48,89.21 28.97,30.07 57.6,60.44 85.88,91.01 28.27,30.37 56.35,61.28 84.13,92.2 27.73,31.06 55.31,62.33 82.35,93.79 27.23,31.61 54.11,63.23 80.8,95.34 26.53,31.96 52.87,64.12 78.86,96.63 25.98,32.31 51.62,64.97 77.11,97.97 25.29,32.86 50.38,66.02 75.18,99.22 24.74,33.36 49.33,66.91 73.58,100.82 24.04,33.7 47.94,67.6 71.44,101.85 23.55,34.25 46.9,68.71 69.75,103.31 23,34.59 45.65,69.34 67.95,104.49 22.31,34.95 44.26,70.25 66.07,105.69 21.61,35.5 43.01,71.14 63.92,106.99 21.06,35.79 41.77,71.84 62.18,107.98 20.37,36.19 40.58,72.54 60.24,109.28 19.67,36.49 39.13,73.23 58.3,110.27 18.97,36.89 37.74,74.13 56.21,111.36 18.42,37.39 36.54,74.83 54.26,112.57 17.73,37.58 35.1,75.52 52.18,113.45 17.17,38.09 34.05,76.22 49.88,114.51 17.53,38.48 33.36,76.91 49.14,115.55 15.83,38.63 29.87,77.46 45.7,116.44 14.04,38.98 29.82,78.16 43.86,117.49 14.09,39.38 28.13,78.71 42.17,118.39 14.04,39.53 26.34,79.2 40.43,119.23 12.24,39.88 24.54,79.95 36.84,119.98 12.29,40.23 24.59,80.45 35.14,121.02 12.3,40.38 22.85,80.95 33.36,121.68 10.55,40.57 21.11,81.49 31.61,122.42 10.56,40.92 19.32,82.04 28.13,123.31 10.51,41.07 19.32,82.54 28.08,123.96 8.76,41.47 15.83,82.89 24.59,124.71 7.02,41.62 14.04,83.44 21.06,125.21 7.02,41.97 14.09,83.98 21.11,126.1 5.23,42.17 12.3,84.34 17.53,126.65 5.27,42.32 10.55,84.63 15.83,127.15 3.48,42.52 8.76,85.18 12.29,127.85 3.49,42.66 7.02,85.52 10.56,128.39 3.48,42.86 5.23,85.88 8.76,128.89 1.74,43.06 3.49,86.08 5.28,129.29 1.74,43.21 3.48,86.57 3.48,129.94 1.79,43.21 1.79,86.77 1.79,130.13 0,43.56 0,86.97 -1.79,130.33 0,43.37 -1.74,86.58 -3.48,129.99 -1.79,43.16 -3.54,86.23 -5.28,129.24 -3.53,43.01 -5.28,86.08 -8.76,128.89 -3.54,42.87 -7.07,85.73 -10.56,128.39 -3.53,42.67 -8.81,85.18 -12.29,127.7 -5.28,42.52 -10.56,84.98 -15.83,127.3 -5.23,42.36 -12.3,84.48 -17.53,126.65 -7.02,42.17 -14.09,84.13 -21.11,125.9 -7.02,42.02 -14.04,83.79 -21.06,125.41 -8.76,41.62 -15.83,83.24 -24.59,124.71 -8.76,41.47 -17.57,82.74 -28.08,124.01 -8.81,41.07 -17.57,82.19 -28.13,123.11 -10.5,41.08 -21.06,81.85 -31.61,122.57 -10.51,40.73 -21.06,81.3 -33.36,121.72 -10.55,40.38 -22.85,80.61 -35.14,120.83 -12.3,40.23 -24.6,80.25 -36.84,120.13 -14.09,39.88 -26.39,79.55 -40.43,119.23 -14.04,39.53 -28.08,79.06 -42.17,118.19 -14.04,39.38 -29.82,78.51 -43.86,117.49 -15.83,39.03 -29.87,77.81 -45.7,116.44 -15.78,38.64 -31.61,77.12 -49.14,115.6 -15.83,38.29 -32.71,76.37 -49.88,114.51 -17.08,37.93 -34.45,75.87 -52.18,113.45 -17.72,37.74 -35.84,75.18 -54.26,112.57 -18.47,37.23 -37.24,74.47 -56.21,111.36 -19.17,37.04 -38.63,73.73 -58.3,110.27 -19.66,36.7 -39.87,73.09 -60.24,109.23 -20.41,36.19 -41.12,72.19 -62.18,108.03 -20.91,35.85 -42.31,71.49 -63.92,106.94 -21.81,35.49 -43.76,70.64 -66.07,105.74 -22.3,34.95 -44.95,69.9 -67.95,104.5 -22.85,34.6 -46.2,69.05 -69.75,103.1 -23.5,34.25 -47.4,68.3 -71.44,102.06 -24.25,33.7 -48.84,67.25 -73.58,100.61 -24.8,33.35 -49.89,66.56 -75.18,99.42 -25.49,32.81 -51.13,65.51 -77.11,97.97 -25.99,32.51 -52.33,64.62 -78.86,96.58 -26.69,32.01 -53.57,63.78 -80.8,95.24 -27.04,31.41 -54.62,62.83 -82.35,93.74 -27.78,31.12 -55.86,61.84 -84.13,92.4 -28.28,30.57 -56.91,60.79 -85.88,90.81 -28.83,30.02 -58.15,59.89 -87.48,89.36 -29.52,29.52 -59.34,58.85 -89.41,87.82 -30.02,28.97 -60.24,57.8 -90.81,86.28 -30.71,28.62 -61.43,56.7 -92.55,84.63 -31.26,28.08 -62.67,55.66 -94.29,83.24 -31.61,27.38 -63.57,54.46 -95.88,81.29 -32.16,26.89 -64.62,53.57 -97.33,79.96 -32.81,26.13 -65.87,52.32 -99.02,77.96 -33.41,25.79 -66.92,51.28 -100.67,76.37 -33.7,25.29 -67.76,50.08 -102.21,74.67 -34.25,24.6 -68.85,48.99 -103.6,72.89 -34.8,24.04 -69.9,47.74 -105.19,71.14 -35.35,23.35 -71,46.5 -106.64,69.35 -35.8,22.65 -71.99,45.3 -108.19,67.46 -36.34,22.1 -72.88,43.91 -109.77,65.51 -36.69,21.56 -73.73,42.82 -110.97,63.73 -37.24,20.9 -74.83,41.47 -112.61,61.83 -37.74,20.21 -75.68,40.22 -113.81,59.69 -38.29,19.66 -76.72,39.03 -115.35,58 -38.64,18.96 -77.67,37.53 -116.8,55.8 -39.03,18.28 -78.51,36.2 -118.04,53.77 -39.53,17.72 -79.41,34.95 -119.43,51.83 -1.05,0.49 -1.94,0.84 -2.99,1.19 -1.04,0.55 -2.09,0.9 -3.14,1.4 -1.09,0.39 -1.94,0.74 -2.98,1.24 -1.1,0.35 -2.14,0.7 -3.19,1.24 -1.04,0.35 -1.94,0.7 -2.99,1.25 -1.04,0.35 -2.09,0.7 -3.13,1.04 -1.05,0.35 -1.94,0.85 -2.99,1.2 -1.04,0.35 -2.14,0.75 -3.19,1.09 -1.04,0.35 -2.09,0.7 -3.13,1.2 -0.9,0.35 -1.94,0.7 -2.99,1.04 -1.04,0.4 -2.14,0.75 -3.19,1.1 -1.04,0.35 -2.09,0.7 -2.98,1.05 -1.05,0.34 -2.09,0.69 -3.14,1.04 -1.04,0.35 -2.14,0.7 -3.19,0.9 -1.04,0.35 -2.09,0.69 -3.13,1.04 -0.9,0.35 -1.94,0.7 -2.99,1.05 -1.04,0.15 -2.14,0.5 -3.18,0.89 -1.05,0.35 -2.1,0.7 -3.14,0.85 -1.05,0.35 -2.14,0.7 -3.19,0.9 -0.84,0.34 -1.94,0.69 -2.98,0.84 -1.05,0.4 -2.1,0.75 -3.14,0.9 -1.05,0.35 -2.14,0.7 -3.19,0.89 -1.04,0.35 -2.09,0.5 -3.13,0.85 -1.05,0.2 -2.14,0.55 -3.19,0.7 -1.05,0.4 -1.89,0.55 -2.99,0.89 -1.04,0.2 -2.09,0.55 -3.13,0.7 -1.05,0.35 -2.09,0.55 -3.19,0.7 -1.05,0.35 -2.09,0.55 -3.14,0.89 -1.04,0.2 -2.09,0.35 -3.18,0.7 -1.05,0.2 -2.09,0.35 -3.14,0.55 -1.04,0.35 -2.09,0.5 -3.19,0.7 -1.04,0.15 -2.09,0.49 -3.13,0.69 -0.9,0.15 -1.94,0.35 -2.99,0.5 -1.04,0.2 -2.09,0.55 -3.18,0.75 -1.05,0.15 -2.1,0.35 -3.14,0.5 -1.05,0.19 -2.09,0.34 -3.19,0.54 -1.04,0.15 -2.09,0.35 -3.13,0.5 -1.05,0.2 -2.09,0.35 -3.19,0.55 -1.05,0.15 -2.09,0.35 -3.14,0.55 -1.04,0.15 -2.09,0.34 -3.18,0.49 -1.05,0.2 -2.09,0.35 -3.14,0.35 -1.04,0.2 -2.09,0.35 -3.19,0.55 -1.04,0.15 -2.09,0.35 -3.13,0.35 -1.05,0.15 -2.09,0.35 -3.19,0.5 -1.04,0 -2.09,0.2 -3.13,0.34 -1.05,0.2 -2.1,0.2 -3.19,0.35 -0.85,0.2 -1.89,0.2 -2.99,0.4 -1.04,0 -2.09,0.15 -3.13,0.35 -1.05,0 -2.1,0.15 -3.19,0.15 -1.05,0.2 -2.09,0.2 -3.14,0.35 -1.04,0 -2.09,0.2 -3.18,0.2 -1.05,0.15 -2.09,0.15 -3.14,0.35 -1.05,0 -2.09,0.14 -3.19,0.14 -1.04,0 -2.09,0.2 -3.13,0.2 -1.05,0.15 -2.09,0.15 -3.19,0.15 -1.04,0.2 -2.09,0.2 -3.13,0.2 -1.05,0.15 -2.1,0.15 -3.19,0.15 -1.05,0 -1.89,0.2 -2.99,0.2 -1.04,0 -2.09,0 -3.13,0 -1.05,0.15 -2.1,0.15 -3.19,0.15 -1.05,0 -2.09,0 -3.14,0 -1.04,0 -2.09,0 -3.18,0 -1.05,0.2 -2.09,0.2 -3.14,0.2 -1.05,0 -2.09,0 -3.19,0z"/>
  <path fill="black" fill-rule="nonzero" d="M20169.84 21209.43c-3.14,0 -6.33,0 -9.31,0 -3.14,-0.2 -6.33,-0.2 -9.46,-0.35 -2.99,0 -6.18,-0.2 -9.31,-0.35 -2.99,-0.2 -6.18,-0.35 -9.31,-0.55 -2.99,-0.34 -6.18,-0.54 -9.31,-0.89 -2.99,-0.35 -6.18,-0.5 -9.16,-0.85 -3.14,-0.35 -6.32,-0.7 -9.31,-1.04 -3.14,-0.55 -6.13,-0.9 -9.31,-1.45 -2.99,-0.35 -5.98,-0.84 -9.11,-1.39 -2.99,-0.5 -6.18,-1.05 -9.16,-1.6 -2.99,-0.49 -5.98,-1.19 -9.11,-1.74 -2.99,-0.5 -5.98,-1.24 -8.96,-1.94 -2.99,-0.7 -6.13,-1.39 -9.12,-2.09 -2.98,-0.7 -5.97,-1.39 -8.96,-2.29 -2.98,-0.7 -5.97,-1.59 -8.96,-2.29 -2.98,-0.85 -5.82,-1.74 -8.81,-2.64 -2.99,-0.85 -5.97,-1.74 -8.96,-2.64 -2.79,-1.04 -5.78,-1.89 -8.76,-2.98 -2.79,-0.85 -5.78,-1.9 -8.62,-2.99 -2.98,-1.05 -5.77,-2.09 -8.76,-3.14 -2.84,-1.24 -5.62,-2.29 -8.61,-3.33 -2.84,-1.25 -5.63,-2.44 -8.41,-3.54 -2.99,-1.19 -5.83,-2.44 -8.62,-3.68 -2.83,-1.2 -5.62,-2.44 -8.46,-3.84 -2.79,-1.24 -5.58,-2.63 -8.21,-3.88 -2.84,-1.39 -5.63,-2.79 -8.27,-4.23 -2.84,-1.39 -5.62,-2.79 -8.26,-4.18 -2.79,-1.45 -5.43,-2.84 -8.27,-4.38 -2.64,-1.45 -5.27,-2.99 -7.91,-4.58 -2.79,-1.6 -5.43,-2.99 -8.07,-4.73 -2.64,-1.6 -5.28,-3.19 -7.91,-4.78 -2.64,-1.55 -5.23,-3.34 -7.72,-4.88 -2.64,-1.79 -5.28,-3.54 -7.72,-5.28 -2.64,-1.79 -5.08,-3.53 -7.71,-5.27 -2.49,-1.75 -5.13,-3.54 -7.57,-5.28 -2.44,-1.94 -4.93,-3.69 -7.37,-5.63 -2.49,-1.94 -4.93,-3.83 -7.37,-5.62 -2.49,-1.94 -4.93,-3.84 -7.37,-5.98 -2.29,-1.94 -4.78,-3.83 -7.07,-5.97 -2.43,-1.89 -4.72,-4.03 -7.16,-5.98 -2.29,-2.09 -4.58,-4.18 -6.87,-6.32 -2.29,-2.09 -4.58,-4.18 -6.83,-6.32 -2.29,-2.09 -4.58,-4.38 -6.87,-6.47 -2.09,-2.29 -4.38,-4.38 -6.47,-6.67 -2.29,-2.29 -4.43,-4.58 -6.72,-6.87 -2.09,-2.29 -4.18,-4.53 -6.32,-6.82 -2.09,-2.29 -4.18,-4.78 -6.32,-7.02 -2.09,-2.29 -4.04,-4.78 -6.13,-7.22 -2.09,-2.44 -4.03,-4.73 -6.12,-7.22 -1.94,-2.44 -3.88,-4.93 -5.83,-7.52 -1.94,-2.49 -3.88,-4.93 -5.77,-7.57 -1.94,-2.48 -3.88,-5.07 -5.83,-7.56 -1.74,-2.64 -3.68,-5.28 -5.42,-7.92 -1.94,-2.59 -3.69,-5.23 -5.43,-7.86 -1.79,-2.64 -3.53,-5.28 -5.28,-8.12 -1.79,-2.64 -3.53,-5.43 -5.12,-8.06 -1.75,-2.79 -3.34,-5.43 -5.08,-8.27 -1.59,-2.79 -3.14,-5.62 -4.73,-8.41 -1.59,-2.79 -3.19,-5.63 -4.73,-8.61 -1.59,-2.79 -3.19,-5.63 -4.58,-8.62 -1.59,-2.78 -2.99,-5.77 -4.38,-8.76 -1.6,-2.99 -2.99,-5.97 -4.43,-8.81 -1.4,-2.94 -2.59,-6.12 -4.04,-9.11 -1.39,-2.99 -2.63,-5.98 -4.03,-9.11 -1.59,-4.08 -3.33,-8.12 -4.93,-12.3 -1.54,-4.03 -3.13,-8.11 -4.73,-12.3 -1.39,-4.03 -2.78,-8.26 -4.18,-12.29 -1.44,-4.23 -2.84,-8.27 -4.08,-12.5 -1.2,-4.18 -2.44,-8.26 -3.68,-12.44 -1.2,-4.24 -2.29,-8.27 -3.34,-12.5 -1.05,-4.18 -2.09,-8.41 -2.99,-12.45 -0.84,-4.23 -1.94,-8.41 -2.64,-12.64 -0.84,-4.23 -1.74,-8.26 -2.44,-12.5 -0.69,-4.18 -1.39,-8.41 -1.94,-12.64 -0.69,-4.18 -1.24,-8.22 -1.74,-12.45 -0.55,-4.23 -1.04,-8.41 -1.39,-12.64 -0.35,-4.23 -0.9,-8.42 -1.1,-12.65 -0.35,-4.03 -0.7,-8.26 -0.84,-12.49 -0.2,-4.19 -0.35,-8.42 -0.35,-12.45 -0.2,-4.23 -0.2,-8.41 -0.2,-12.64 0,-4.24 0,-8.27 0.2,-12.45 0,-4.23 0.15,-8.26 0.35,-12.5 0.14,-4.23 0.49,-8.26 0.84,-12.44 0.2,-4.08 0.55,-8.27 1.1,-12.3 0.35,-4.23 0.69,-8.26 1.19,-12.49 0.55,-4.04 1.1,-8.07 1.79,-12.3 0.5,-4.03 1.2,-8.07 1.9,-12.1 0.74,-4.03 1.44,-8.06 2.29,-12.15 0.69,-4.03 1.59,-8.06 2.48,-12.09 0.85,-4.04 1.75,-8.07 2.79,-12.1 1.05,-4.08 1.94,-7.92 3.19,-11.95 1.04,-3.88 2.09,-7.92 3.33,-11.8 1.05,-4.03 2.29,-7.86 3.69,-11.75 1.19,-4.03 2.44,-7.91 3.83,-11.75 1.45,-3.88 2.84,-7.76 4.23,-11.6 1.4,-3.88 2.99,-7.71 4.58,-11.45 1.4,-3.83 2.99,-7.51 4.73,-11.4 1.6,-3.68 3.34,-7.56 4.93,-11.25 1.74,-3.68 3.49,-7.37 5.43,-11.05 1.74,-3.68 3.53,-7.37 5.48,-11.05 1.89,-3.69 3.83,-7.22 5.77,-10.9 2.09,-3.49 4.03,-7.22 6.12,-10.71 2.14,-3.53 4.24,-7.02 6.33,-10.55 2.29,-3.49 4.43,-7.02 6.67,-10.51 2.29,-3.33 4.58,-6.87 6.87,-10.2 2.29,-3.54 4.73,-6.87 7.22,-10.21 2.29,-3.33 4.73,-6.67 7.36,-10.01 2.44,-3.33 4.93,-6.47 7.57,-9.8 2.59,-3.19 5.23,-6.33 7.87,-9.51 2.64,-3.34 5.28,-6.32 8.11,-9.46 2.59,-3.19 5.43,-6.32 8.22,-9.31 2.84,-2.99 5.82,-6.17 8.61,-9.16 2.99,-2.99 5.97,-5.78 8.96,-8.76 2.99,-2.99 5.98,-5.78 8.96,-8.76 3.19,-2.84 6.18,-5.63 9.31,-8.47 3.19,-2.79 6.33,-5.42 9.51,-8.26 3.34,-2.64 6.47,-5.43 9.81,-8.07 3.33,-2.64 6.67,-5.07 10.01,-7.71 3.33,-2.64 6.87,-5.08 10.2,-7.57 3.49,-2.64 7.02,-5.08 10.51,-7.37 3.53,-2.44 7.07,-4.93 10.55,-7.22 3.68,-2.24 7.22,-4.53 10.9,-6.82 3.69,-2.29 7.37,-4.38 11.06,-6.67 3.88,-2.14 7.56,-4.23 11.4,-6.32 3.68,-2.14 7.56,-4.23 11.45,-6.17 4.03,-1.95 7.86,-3.84 11.75,-5.78 4.03,-1.94 7.91,-3.88 11.94,-5.62 4.04,-1.75 8.07,-3.69 12.1,-5.28 20.76,-8.76 41.27,-17.72 61.83,-26.89 20.37,-9.11 40.78,-18.22 60.94,-27.72 20.36,-9.46 40.43,-19.12 60.44,-28.98 20.01,-9.86 39.88,-19.66 59.54,-29.87 19.82,-10.16 39.53,-20.36 59,-30.92 19.51,-10.5 38.83,-21.05 58.15,-31.96 19.11,-10.7 38.28,-21.75 57.4,-32.8 18.97,-11.26 37.93,-22.51 56.55,-33.91 18.82,-11.6 37.44,-23.2 56.06,-34.95 18.42,-11.79 36.89,-23.74 55.11,-35.84 18.27,-12.1 36.4,-24.25 54.27,-36.69 18.12,-12.5 36.04,-24.94 53.57,-37.79 17.77,-12.64 35.49,-25.44 52.87,-38.43 17.57,-12.99 34.8,-26.19 52.02,-39.53 17.18,-13.34 34.2,-26.88 51.28,-40.37 16.83,-13.54 33.51,-27.43 50.23,-41.27 16.68,-13.89 33.16,-27.93 49.49,-42.02 16.53,-14.19 32.71,-28.63 48.84,-43.02 15.98,-14.38 31.96,-28.97 47.79,-43.71 15.78,-14.78 31.42,-29.72 47.05,-44.6 15.48,-14.94 30.91,-30.22 46,-45.51 15.28,-15.08 30.42,-30.56 45.35,-46 14.89,-15.63 29.68,-31.26 44.41,-47.09 14.59,-15.78 29.18,-31.61 43.36,-47.74 14.44,-15.98 28.68,-32.16 42.72,-48.49 14.04,-16.18 27.93,-32.66 41.62,-49.19 13.69,-16.48 27.38,-33.21 40.72,-49.88 13.54,-16.83 26.69,-33.71 39.88,-50.73 13.19,-16.88 26.19,-34.11 38.83,-51.28 12.8,-17.23 25.64,-34.6 38.09,-52.03 12.49,-17.52 24.79,-35.09 36.89,-52.67 12.3,-17.72 24.24,-35.49 36.19,-53.37 11.75,-17.92 23.55,-35.84 34.95,-54.11 11.6,-18.07 23,-36.19 34.05,-54.61 11.26,-18.27 22.31,-36.69 33.21,-55.16 10.9,-18.62 21.61,-37.24 32.16,-55.86 10.51,-18.77 20.86,-37.59 31.07,-56.36 10.2,-18.97 20.21,-37.93 30.02,-57.1 9.85,-19.12 19.66,-38.28 29.17,-57.6 9.46,-19.32 18.77,-38.63 27.93,-58.1 9.31,-19.51 18.27,-39.03 27.03,-58.69 8.77,-19.67 17.58,-39.33 25.99,-59.2 8.41,-19.81 16.68,-39.67 24.94,-59.69 8.07,-20.01 15.98,-40.02 23.7,-60.24 7.92,-20.21 15.48,-40.37 22.85,-60.58 7.37,-20.37 14.59,-40.78 21.61,-61.14 7.02,-20.51 13.89,-41.07 20.56,-61.63 6.67,-20.71 13.14,-41.27 19.47,-62.18 6.32,-20.71 12.49,-41.42 18.47,-62.33 5.77,-20.91 11.55,-41.97 17.17,-62.88 5.48,-21.06 10.9,-42.16 16.18,-63.42 5.08,-21.06 10.01,-42.32 14.94,-63.58 4.73,-21.4 9.31,-42.66 13.69,-64.07 4.58,-21.46 8.76,-42.86 12.79,-64.47 4.08,-21.61 7.77,-43.21 11.45,-64.82 3.69,-21.6 7.02,-43.36 10.36,-65.17 3.13,-21.75 6.32,-43.51 9.11,-65.31 2.84,-21.96 5.48,-43.91 7.91,-65.87 2.44,-21.95 4.73,-43.91 6.87,-66.01 1.9,-21.95 3.84,-44.11 5.43,-66.21 1.74,-22.31 3.19,-44.46 4.38,-66.76 1.25,-22.11 2.29,-44.41 3.19,-66.71 0.7,-22.31 1.39,-44.81 1.74,-67.11 0.55,-22.5 0.7,-44.96 0.7,-67.46 0,-22.45 -0.15,-44.76 -0.7,-67.26 -0.35,-22.3 -1.04,-44.75 -1.74,-67.06 -0.9,-22.3 -1.94,-44.6 -3.19,-66.91 -1.19,-22.15 -2.64,-44.45 -4.38,-66.61 -1.59,-22.1 -3.53,-44.26 -5.43,-66.16 -2.14,-22.15 -4.43,-44.11 -6.87,-66.06 -2.43,-22.11 -5.07,-43.91 -7.91,-65.87 -2.79,-21.75 -5.98,-43.71 -9.11,-65.31 -3.34,-21.81 -6.67,-43.57 -10.36,-65.17 -3.68,-21.61 -7.37,-43.21 -11.45,-64.82 -4.03,-21.61 -8.21,-43.01 -12.79,-64.42 -4.38,-21.46 -8.96,-42.72 -13.69,-64.12 -4.93,-21.26 -9.86,-42.52 -14.94,-63.58 -5.28,-21.26 -10.7,-42.31 -16.18,-63.42 -5.62,-20.86 -11.4,-41.97 -17.17,-62.88 -5.98,-20.86 -12.15,-41.62 -18.47,-62.48 -6.33,-20.76 -12.8,-41.47 -19.47,-62.03 -6.67,-20.56 -13.54,-41.07 -20.56,-61.63 -7.02,-20.36 -14.24,-40.73 -21.61,-61.14 -7.37,-20.16 -14.93,-40.57 -22.85,-60.58 -7.72,-20.17 -15.63,-40.23 -23.7,-60.24 -8.26,-20.02 -16.53,-39.88 -24.94,-59.69 -8.41,-19.87 -17.22,-39.53 -25.99,-59.2 -8.76,-19.66 -17.72,-39.18 -27.03,-58.64 -9.16,-19.52 -18.47,-38.83 -27.93,-58.15 -9.51,-19.32 -19.32,-38.48 -29.17,-57.6 -9.81,-19.17 -19.82,-38.13 -30.02,-57.1 -10.21,-18.77 -20.56,-37.59 -31.07,-56.36 -10.55,-18.82 -21.26,-37.44 -32.16,-55.86 -10.9,-18.42 -21.95,-36.89 -33.21,-55.31 -11.05,-18.27 -22.45,-36.34 -34.05,-54.61 -11.4,-18.12 -23.2,-36.04 -34.95,-53.91 -11.95,-17.93 -23.89,-35.7 -36.19,-53.42 -12.1,-17.58 -24.4,-35.3 -36.89,-52.67 -12.45,-17.38 -25.29,-34.8 -38.09,-51.98 -12.64,-17.22 -25.64,-34.45 -38.83,-51.48 -13.19,-16.87 -26.34,-33.7 -39.88,-50.58 -13.34,-16.67 -27.03,-33.35 -40.72,-49.88 -13.69,-16.53 -27.58,-33.01 -41.62,-49.19 -14.04,-16.33 -28.28,-32.46 -42.72,-48.44 -14.18,-16.18 -28.77,-31.96 -43.36,-47.79 -14.73,-15.78 -29.52,-31.41 -44.41,-47.04 -14.93,-15.49 -30.07,-30.92 -45.35,-46.2 -15.09,-15.14 -30.52,-30.37 -46,-45.31 -15.63,-14.93 -31.27,-29.87 -47.05,-44.6 -15.83,-14.79 -31.81,-29.38 -47.79,-43.76 -16.13,-14.39 -32.31,-28.78 -48.84,-43.02 -16.33,-14.04 -32.81,-28.13 -49.49,-41.97 -16.72,-13.89 -33.4,-27.78 -50.23,-41.27 -17.08,-13.69 -34.1,-27.08 -51.28,-40.42 -17.22,-13.34 -34.45,-26.49 -52.02,-39.48 -17.38,-12.99 -35.1,-25.84 -52.87,-38.68 -17.53,-12.65 -35.45,-25.09 -53.57,-37.54 -17.87,-12.49 -36,-24.59 -54.27,-36.74 -18.22,-12.1 -36.69,-24.05 -55.11,-35.79 -18.62,-11.8 -37.24,-23.4 -56.06,-34.95 -18.62,-11.45 -37.58,-22.7 -56.55,-33.91 -19.12,-11.1 -38.29,-22.15 -57.4,-32.85 -19.32,-10.91 -38.64,-21.41 -58.15,-31.96 -19.47,-10.56 -39.18,-20.71 -59,-30.92 -19.66,-10.21 -39.53,-20.21 -59.54,-29.87 -20.01,-9.81 -40.08,-19.47 -60.44,-28.98 -20.16,-9.45 -40.57,-18.61 -60.94,-27.72 -20.56,-9.17 -41.07,-18.13 -61.83,-26.89 -4.03,-1.74 -8.06,-3.48 -12.1,-5.28 -4.03,-1.74 -7.91,-3.68 -11.94,-5.62 -3.89,-1.89 -7.72,-3.83 -11.75,-5.78 -3.89,-2.09 -7.77,-4.03 -11.45,-6.17 -3.84,-2.09 -7.52,-4.18 -11.4,-6.32 -3.69,-2.24 -7.37,-4.38 -11.06,-6.67 -3.68,-2.24 -7.22,-4.53 -10.9,-6.82 -3.48,-2.49 -7.02,-4.73 -10.55,-7.22 -3.49,-2.44 -7.02,-4.93 -10.51,-7.37 -3.33,-2.44 -6.87,-4.93 -10.2,-7.57 -3.34,-2.64 -6.68,-5.27 -10.01,-7.86 -3.34,-2.64 -6.47,-5.28 -9.81,-7.92 -3.18,-2.84 -6.32,-5.47 -9.51,-8.26 -3.13,-2.79 -6.12,-5.63 -9.31,-8.62 -2.98,-2.78 -5.97,-5.62 -8.96,-8.61 -2.99,-2.98 -5.97,-5.97 -8.96,-8.96 -2.79,-2.99 -5.77,-5.97 -8.61,-8.96 -2.79,-3.14 -5.63,-6.12 -8.22,-9.31 -2.83,-3.14 -5.47,-6.32 -8.11,-9.46 -2.64,-3.18 -5.28,-6.32 -7.87,-9.66 -2.64,-3.18 -5.13,-6.52 -7.57,-9.65 -2.63,-3.34 -5.07,-6.68 -7.36,-10.01 -2.49,-3.34 -4.93,-6.67 -7.22,-10.21 -2.29,-3.33 -4.58,-6.82 -6.87,-10.15 -2.24,-3.54 -4.38,-7.02 -6.67,-10.56 -2.09,-3.53 -4.19,-7.02 -6.33,-10.55 -2.09,-3.49 -4.03,-7.17 -6.12,-10.71 -1.94,-3.68 -3.88,-7.21 -5.77,-10.9 -1.95,-3.68 -3.74,-7.37 -5.48,-11.05 -1.94,-3.68 -3.69,-7.37 -5.43,-11.05 -1.59,-3.69 -3.33,-7.57 -4.93,-11.25 -1.74,-3.89 -3.33,-7.57 -4.73,-11.4 -1.59,-3.89 -3.18,-7.57 -4.58,-11.45 -1.39,-3.84 -2.78,-7.72 -4.23,-11.55 -1.39,-3.89 -2.64,-7.77 -3.83,-11.8 -1.4,-3.84 -2.64,-7.72 -3.69,-11.75 -1.24,-3.88 -2.29,-7.92 -3.33,-11.75 -1.25,-4.08 -2.14,-8.12 -3.19,-11.95 -1.04,-4.03 -1.94,-8.11 -2.79,-12.15 -0.89,-4.03 -1.79,-8.06 -2.48,-12.09 -0.85,-4.04 -1.55,-8.07 -2.29,-12.15 -0.7,-4.03 -1.4,-8.07 -1.9,-12.3 -0.69,-4.03 -1.24,-8.06 -1.79,-12.24 -0.5,-4.09 -0.84,-8.12 -1.19,-12.3 -0.55,-4.08 -0.9,-8.27 -1.1,-12.3 -0.35,-4.23 -0.7,-8.46 -0.84,-12.49 -0.2,-4.19 -0.35,-8.42 -0.35,-12.45 -0.2,-4.23 -0.2,-8.46 -0.2,-12.5 0,-4.18 0,-8.41 0.2,-12.64 0,-4.18 0.15,-8.26 0.35,-12.45 0.14,-4.23 0.49,-8.46 0.84,-12.64 0.2,-4.23 0.75,-8.27 1.1,-12.5 0.35,-4.18 0.84,-8.41 1.39,-12.64 0.5,-4.18 1.05,-8.42 1.74,-12.45 0.55,-4.23 1.25,-8.46 1.94,-12.64 0.7,-4.24 1.6,-8.47 2.44,-12.5 0.7,-4.18 1.8,-8.41 2.64,-12.64 0.9,-4.19 1.94,-8.22 2.99,-12.45 1.05,-4.23 2.14,-8.41 3.34,-12.5 1.24,-4.18 2.48,-8.41 3.68,-12.44 1.24,-4.23 2.64,-8.27 4.08,-12.5 1.4,-4.18 2.79,-8.21 4.18,-12.25 1.6,-4.23 3.19,-8.26 4.73,-12.49 1.6,-4.03 3.34,-8.07 4.93,-12.3 1.74,-4.03 3.54,-8.06 5.48,-12.1 1.74,-3.88 3.68,-7.91 5.42,-11.79 1.95,-4.04 3.89,-7.87 5.98,-11.75 1.94,-3.89 4.03,-7.72 6.12,-11.6 2.14,-3.69 4.23,-7.57 6.33,-11.25 2.14,-3.69 4.43,-7.37 6.67,-11.06 2.29,-3.68 4.58,-7.36 6.87,-10.9 2.29,-3.48 4.73,-7.17 7.22,-10.7 2.24,-3.49 4.73,-6.82 7.16,-10.36 2.64,-3.53 5.13,-6.87 7.72,-10.2 2.49,-3.34 5.13,-6.67 7.77,-10.01 2.64,-3.34 5.27,-6.47 8.06,-9.81 2.64,-3.18 5.43,-6.32 8.27,-9.51 2.78,-3.13 5.62,-6.12 8.41,-9.31 2.84,-2.98 5.83,-6.12 8.81,-8.96 2.79,-2.98 5.78,-5.97 8.76,-8.96 2.99,-2.79 5.98,-5.77 9.12,-8.56 2.98,-2.84 6.17,-5.63 9.3,-8.26 2.99,-2.84 6.18,-5.48 9.31,-8.07 3.19,-2.84 6.53,-5.48 9.66,-7.92 3.34,-2.63 6.52,-5.12 9.86,-7.71 3.34,-2.49 6.67,-4.93 10.01,-7.42 3.33,-2.24 6.67,-4.73 10,-7.02 3.54,-2.44 6.87,-4.73 10.36,-6.82 3.53,-2.29 6.87,-4.58 10.35,-6.67 3.54,-2.14 7.02,-4.23 10.76,-6.32 3.48,-2.14 7.02,-4.23 10.7,-6.18 3.49,-1.94 7.17,-3.83 10.85,-5.77 3.54,-1.94 7.22,-3.88 10.91,-5.63 3.68,-1.74 7.37,-3.53 11.25,-5.27 3.68,-1.75 7.37,-3.54 11.25,-5.08 3.68,-1.6 7.52,-3.19 11.4,-4.78 3.68,-1.54 7.57,-3.14 11.4,-4.53 3.88,-1.4 7.77,-2.84 11.6,-4.23 3.88,-1.4 7.72,-2.64 11.6,-3.89 4.03,-1.39 7.92,-2.59 11.75,-3.68 4.03,-1.2 7.92,-2.24 11.95,-3.49 3.88,-1.04 7.91,-2.09 11.95,-2.98 4.03,-1.05 7.91,-1.94 11.95,-2.84 4.03,-0.85 8.06,-1.74 12.09,-2.59 4.09,-0.75 8.12,-1.59 12.3,-2.29 4.08,-0.7 8.11,-1.24 12.15,-1.94 4.18,-0.55 8.26,-1.05 12.29,-1.59 4.19,-0.5 8.27,-1.05 12.45,-1.4 4.03,-0.35 8.26,-0.69 12.3,-1.04 4.23,-0.35 8.26,-0.55 12.49,-0.7 4.04,-0.2 8.22,-0.35 12.45,-0.55 4.03,0 8.26,-0.2 12.5,-0.2 4.18,0 8.41,0 12.44,0.2 4.23,0.2 8.42,0.35 12.65,0.55 4.23,0.15 8.26,0.35 12.49,0.7 4.18,0.35 8.42,0.69 12.65,1.04 4.18,0.5 8.41,0.9 12.44,1.4 4.24,0.54 8.42,1.04 12.65,1.74 4.23,0.7 8.41,1.44 12.65,2.14 4.03,0.7 8.26,1.39 12.44,2.29 4.23,0.85 8.46,1.74 12.5,2.59 4.23,1.09 8.41,2.14 12.64,3.18 4.04,1.05 8.27,2.1 12.45,3.34 4.23,1.05 8.26,2.29 12.49,3.68 4.04,1.25 8.27,2.44 12.45,3.89 4.03,1.39 8.27,2.98 12.3,4.38 4.23,1.59 8.26,3.13 12.29,4.73 4.24,1.59 8.27,3.33 12.3,4.93 26.69,11.4 53.22,22.85 79.56,34.6 26.33,11.6 52.52,23.69 78.51,35.84 25.99,12.1 51.97,24.54 77.61,37.19 25.84,12.5 51.48,25.29 76.77,38.48 25.49,13 50.78,26.34 75.87,39.88 25.14,13.34 50.09,27.03 74.98,41.07 24.79,13.89 49.38,27.93 73.98,42.37 24.39,14.39 48.64,28.97 72.88,43.71 24.25,14.73 48.1,29.67 71.99,44.8 23.9,15.24 47.45,30.52 70.95,46.15 23.54,15.49 46.89,31.27 70.09,47.25 23.2,15.98 46.2,32.16 69,48.49 22.85,16.53 45.51,33 68.01,49.68 22.45,16.88 44.76,33.76 66.91,50.93 22.1,17.08 44.06,34.45 65.87,52.03 21.75,17.37 43.36,35.09 64.96,53.02 21.41,17.92 42.67,35.99 63.73,54.26 21.11,18.27 42.02,36.69 62.73,55.31 20.71,18.47 41.27,37.24 61.63,56.21 20.36,18.96 40.38,38.13 60.44,57.45 20.01,19.31 39.83,38.78 59.34,58.49 19.67,19.67 39.18,39.48 58.3,59.5 19.32,20.06 38.29,40.07 57.25,60.43 18.82,20.36 37.44,40.73 56.06,61.49 18.42,20.56 36.69,41.42 54.76,62.33 18.13,21.05 36.05,42.16 53.57,63.42 17.78,21.26 35.3,42.67 52.53,64.27 17.37,21.61 34.45,43.36 51.27,65.17 17.03,21.95 33.76,44.06 50.24,66.21 16.53,22.11 32.66,44.41 48.84,66.91 16.13,22.45 31.96,45.11 47.59,67.96 15.78,22.65 31.27,45.65 46.55,68.65 15.28,23 30.22,46.2 45.1,69.55 14.79,23.2 29.53,46.74 43.91,70.24 14.44,23.55 28.63,47.25 42.72,71.14 13.84,23.9 27.73,47.8 41.27,72.04 13.49,24.05 26.83,48.29 40.03,72.54 13.19,24.39 26.18,48.78 38.83,73.38 12.65,24.59 25.09,49.33 37.39,74.28 12.3,24.79 24.24,49.73 36.19,74.82 11.75,24.94 23.35,50.23 34.75,75.52 11.25,25.29 22.5,50.78 33.41,76.22 10.85,25.49 21.55,51.13 31.96,76.77 10.5,25.79 20.71,51.63 30.72,77.61 10,25.99 19.86,51.98 29.32,78.16 9.51,26.19 18.82,52.33 27.93,78.66 8.96,26.39 17.92,52.87 26.53,79.41 8.62,26.53 16.83,53.02 24.95,79.9 8.21,26.69 16.13,53.57 23.69,80.45 7.72,26.89 15.09,53.92 22.11,80.95 7.22,27.03 14.24,54.27 20.91,81.5 6.67,27.23 12.99,54.61 19.16,82.04 6.33,27.38 12.1,54.76 17.93,82.54 5.57,27.53 11.05,55.11 16.33,82.89 5.07,27.73 10,55.46 14.73,83.39 4.73,27.93 9.11,55.86 13.35,83.79 4.23,28.13 8.06,56.21 11.74,84.28 3.74,28.13 7.07,56.41 10.21,84.69 3.19,28.27 6.17,56.55 8.76,84.98 2.64,28.47 4.93,56.9 7.07,85.53 2.09,28.47 4.03,57.1 5.58,85.72 1.59,28.63 2.98,57.26 4.08,86.03 1.05,28.83 1.89,57.65 2.44,86.43 0.55,28.82 0.7,57.8 0.7,86.57 0,28.97 -0.15,58 -0.7,86.77 -0.55,28.83 -1.39,57.6 -2.44,86.43 -1.1,28.77 -2.49,57.4 -4.08,86.03 -1.55,28.62 -3.49,57.25 -5.58,85.72 -2.14,28.63 -4.43,57.06 -7.07,85.53 -2.59,28.28 -5.57,56.71 -8.76,84.98 -3.14,28.28 -6.47,56.56 -10.21,84.69 -3.68,28.07 -7.51,56.2 -11.74,84.28 -4.24,27.93 -8.62,55.86 -13.35,83.79 -4.73,27.93 -9.66,55.66 -14.73,83.44 -5.28,27.73 -10.76,55.31 -16.33,82.89 -5.83,27.58 -11.6,55.11 -17.93,82.54 -6.17,27.38 -12.49,54.76 -19.16,81.99 -6.67,27.23 -13.69,54.47 -20.91,81.5 -7.02,27.03 -14.39,54.11 -22.11,80.95 -7.56,26.88 -15.48,53.76 -23.69,80.45 -8.12,26.68 -16.33,53.42 -24.95,79.9 -8.61,26.54 -17.57,53.07 -26.53,79.41 -9.11,26.33 -18.42,52.52 -27.93,78.66 -9.46,26.18 -19.32,52.17 -29.32,78.16 -10.01,25.98 -20.22,51.82 -30.72,77.46 -10.41,25.79 -21.11,51.43 -31.96,76.92 -10.91,25.49 -22.16,50.93 -33.41,76.22 -11.4,25.29 -23,50.43 -34.75,75.52 -11.95,25.09 -23.89,50.03 -36.19,74.82 -12.3,24.95 -24.74,49.54 -37.39,74.13 -12.65,24.55 -25.64,49.14 -38.83,73.38 -13.2,24.45 -26.54,48.64 -40.03,72.74 -13.54,24.04 -27.43,48.09 -41.27,71.99 -14.09,23.69 -28.28,47.44 -42.72,71.14 -14.38,23.55 -29.12,46.89 -43.91,70.24 -14.88,23.35 -29.82,46.55 -45.1,69.55 -15.28,23 -30.77,45.85 -46.55,68.65 -15.63,22.85 -31.46,45.31 -47.59,67.81 -16.18,22.5 -32.31,44.95 -48.84,67.11 -16.48,22.1 -33.21,44.26 -50.24,66.01 -16.82,21.96 -33.9,43.71 -51.27,65.32 -17.23,21.46 -34.75,42.86 -52.53,64.32 -17.52,21.21 -35.44,42.32 -53.57,63.22 -18.07,21.06 -36.34,41.77 -54.76,62.48 -18.62,20.56 -37.24,41.13 -56.06,61.49 -18.96,20.21 -37.93,40.42 -57.25,60.43 -19.12,20.02 -38.63,39.88 -58.3,59.55 -19.51,19.46 -39.33,38.98 -59.34,58.29 -20.06,19.32 -40.08,38.44 -60.44,57.4 -20.36,18.97 -40.92,37.79 -61.63,56.41 -20.71,18.62 -41.62,37.04 -62.73,55.31 -21.06,18.27 -42.32,36.34 -63.73,54.12 -21.6,17.92 -43.21,35.64 -64.96,53.21 -21.81,17.53 -43.77,34.75 -65.87,51.98 -22.15,17.02 -44.46,34.05 -66.91,50.73 -22.5,16.88 -45.16,33.4 -68.01,49.73 -22.8,16.33 -45.8,32.46 -69,48.44 -23.2,15.98 -46.55,31.81 -70.09,47.45 -23.5,15.43 -47.05,30.91 -70.95,46 -23.89,15.28 -47.74,30.22 -71.99,44.95 -24.24,14.79 -48.49,29.32 -72.88,43.56 -24.6,14.39 -49.19,28.63 -73.98,42.52 -24.89,13.89 -49.84,27.58 -74.98,41.07 -25.09,13.54 -50.38,26.73 -75.87,39.88 -25.29,12.99 -50.93,25.84 -76.77,38.48 -25.64,12.65 -51.62,24.94 -77.61,37.24 -25.99,12.1 -52.18,24.04 -78.51,35.79 -26.34,11.6 -52.87,23.2 -79.56,34.45 -1.04,0.35 -1.94,0.85 -2.99,1.2 -1.04,0.55 -2.09,0.9 -3.13,1.24 -1.05,0.55 -1.94,0.9 -2.99,1.25 -1.04,0.5 -2.14,0.84 -3.19,1.24 -0.84,0.5 -1.94,0.85 -2.98,1.2 -1.05,0.55 -2.09,0.89 -3.14,1.24 -1.04,0.35 -1.94,0.7 -2.99,1.25 -1.04,0.35 -2.14,0.69 -3.18,1.04 -1.05,0.35 -1.94,0.7 -2.99,1.05 -1.04,0.35 -2.09,0.89 -3.14,1.24 -1.04,0.35 -2.14,0.7 -3.18,1.05 -0.85,0.35 -1.89,0.69 -2.99,1.04 -1.04,0.35 -2.09,0.7 -3.14,1.05 -1.04,0.2 -2.09,0.55 -3.18,0.89 -0.85,0.35 -1.89,0.7 -2.99,1.05 -1.04,0.35 -2.09,0.7 -3.14,1.05 -1.04,0.19 -2.09,0.54 -3.18,0.89 -1.05,0.35 -2.09,0.5 -3.14,0.85 -0.89,0.35 -1.94,0.75 -2.99,0.89 -1.04,0.35 -2.09,0.7 -3.18,0.9 -1.05,0.35 -2.09,0.7 -3.14,0.85 -1.04,0.35 -2.09,0.54 -3.18,0.89 -1.05,0.35 -2.09,0.55 -2.99,0.9 -1.05,0.15 -2.09,0.5 -3.14,0.7 -1.04,0.34 -2.09,0.49 -3.18,0.84 -1.05,0.2 -2.09,0.55 -3.14,0.7 -1.05,0.4 -2.09,0.55 -3.19,0.75 -1.04,0.34 -2.09,0.49 -3.13,0.69 -1.05,0.35 -2.09,0.5 -3.19,0.7 -1.04,0.35 -1.89,0.5 -2.99,0.7 -1.04,0.35 -2.09,0.54 -3.13,0.69 -1.05,0.2 -2.09,0.35 -3.19,0.7 -1.04,0.2 -2.09,0.35 -3.14,0.55 -1.04,0.15 -2.09,0.5 -3.18,0.7 -1.05,0.14 -2.09,0.34 -3.14,0.49 -1.04,0.2 -2.09,0.35 -3.18,0.55 -1.05,0.2 -2.1,0.35 -3.14,0.55 -1.05,0.15 -2.09,0.35 -3.19,0.5 -1.04,0.2 -2.09,0.34 -3.13,0.54 -1.05,0.15 -2.09,0.35 -3.19,0.5 -1.04,0.2 -2.09,0.2 -3.14,0.35 -0.89,0.2 -1.94,0.35 -2.98,0.55 -1.05,0.15 -2.09,0.15 -3.19,0.35 -1.04,0.2 -2.09,0.35 -3.14,0.35 -1.04,0.19 -2.09,0.34 -3.18,0.54 -1.05,0 -2.09,0.15 -3.14,0.35 -1.04,0 -2.09,0.15 -3.18,0.15 -1.05,0.2 -2.1,0.35 -3.14,0.35 -1.05,0.2 -2.09,0.2 -3.19,0.35 -1.04,0.2 -2.09,0.2 -3.13,0.35 -1.05,0 -2.09,0.2 -3.19,0.2 -1.05,0.14 -2.09,0.14 -3.14,0.14 -1.04,0.2 -2.09,0.2 -3.18,0.4 -1.05,0 -2.09,0 -2.94,0.15 -1.1,0 -2.14,0.2 -3.19,0.2 -1.04,0 -2.09,0.15 -3.13,0.15 -1.1,0 -2.14,0 -3.19,0.2 -1.04,0 -2.09,0 -3.14,0 -1.09,0.15 -2.14,0.15 -3.18,0.15 -1.05,0 -2.09,0 -3.14,0 -1.09,0.2 -2.14,0.2 -2.98,0.2 -1.1,0 -2.15,0 -3.19,0 -1.05,0 -2.09,0 -3.14,0 -1.09,0 -2.14,0 -3.18,0z"/>
  <path fill="black" fill-rule="nonzero" d="M19286.95 19120.34c-3.18,0 -6.32,0 -9.31,0 -3.18,-0.2 -6.32,-0.2 -9.51,-0.35 -2.98,0 -6.12,-0.2 -9.3,-0.35 -3.14,-0.19 -6.13,-0.34 -9.31,-0.69 -3.14,-0.2 -6.13,-0.4 -9.26,-0.75 -2.99,-0.35 -6.18,-0.5 -9.31,-0.85 -2.99,-0.34 -6.18,-0.69 -9.16,-1.24 -3.14,-0.35 -6.13,-0.7 -9.31,-1.24 -2.99,-0.35 -5.98,-0.85 -9.11,-1.4 -2.99,-0.5 -6.18,-1.04 -9.17,-1.59 -2.98,-0.5 -5.97,-1.2 -9.11,-1.74 -2.98,-0.7 -5.97,-1.25 -8.96,-1.95 -3.18,-0.69 -6.17,-1.39 -9.16,-2.09 -2.98,-0.69 -5.97,-1.39 -8.91,-2.29 -2.99,-0.69 -5.97,-1.59 -8.96,-2.44 -2.99,-0.69 -5.83,-1.59 -8.81,-2.49 -2.99,-0.84 -5.98,-1.74 -8.96,-2.78 -2.79,-0.9 -5.78,-1.94 -8.77,-2.84 -2.83,-1.05 -5.82,-1.89 -8.61,-2.94 -2.99,-1.09 -5.77,-2.14 -8.76,-3.38 -2.84,-1.05 -5.63,-2.09 -8.61,-3.34 -2.84,-1.04 -5.63,-2.24 -8.47,-3.48 -2.98,-1.05 -5.77,-2.29 -8.56,-3.54 -2.84,-1.39 -5.63,-2.64 -8.46,-3.83 -2.79,-1.25 -5.43,-2.64 -8.27,-4.03 -2.79,-1.25 -5.57,-2.64 -8.21,-4.09 -2.84,-1.39 -5.63,-2.78 -8.27,-4.18 -2.83,-1.59 -5.47,-2.99 -8.06,-4.38 -2.84,-1.59 -5.48,-3.19 -8.12,-4.58 -2.78,-1.59 -5.42,-3.19 -8.06,-4.73 -2.64,-1.59 -5.28,-3.19 -7.92,-4.93 -2.64,-1.59 -5.08,-3.18 -7.71,-4.93 -2.64,-1.74 -5.28,-3.33 -7.72,-5.07 -2.64,-1.8 -5.08,-3.54 -7.72,-5.28 -2.49,-1.74 -4.93,-3.69 -7.56,-5.43 -2.44,-1.94 -4.93,-3.73 -7.37,-5.62 -2.49,-1.95 -4.93,-3.69 -7.37,-5.63 -2.49,-1.94 -4.93,-3.88 -7.22,-5.97 -2.44,-1.94 -4.93,-3.89 -7.22,-5.98 -2.44,-1.94 -4.73,-4.03 -7.02,-5.97 -2.44,-2.09 -4.73,-4.23 -7.02,-6.32 -2.29,-2.09 -4.58,-4.24 -6.87,-6.33 -2.24,-2.29 -4.53,-4.38 -6.67,-6.52 -2.24,-2.24 -4.53,-4.53 -6.67,-6.67 -2.24,-2.24 -4.38,-4.53 -6.47,-6.82 -2.29,-2.29 -4.38,-4.58 -6.52,-6.87 -2.09,-2.44 -4.19,-4.73 -6.33,-7.02 -1.89,-2.44 -4.03,-4.93 -6.12,-7.22 -1.94,-2.44 -4.03,-4.88 -5.97,-7.37 -1.95,-2.44 -4.04,-4.87 -5.98,-7.36 -1.94,-2.64 -3.88,-5.08 -5.77,-7.57 -1.94,-2.59 -3.89,-5.08 -5.63,-7.72 -1.94,-2.64 -3.68,-5.27 -5.62,-7.91 -1.8,-2.59 -3.54,-5.23 -5.28,-7.87 -1.94,-2.64 -3.69,-5.28 -5.43,-8.11 -1.59,-2.59 -3.33,-5.43 -5.13,-8.07 -1.59,-2.79 -3.33,-5.62 -4.92,-8.41 -1.75,-2.84 -3.34,-5.63 -4.88,-8.47 -1.6,-2.78 -3.19,-5.57 -4.78,-8.41 -1.4,-2.99 -2.99,-5.77 -4.53,-8.76 -1.45,-2.84 -2.99,-5.83 -4.38,-8.81 -1.45,-2.99 -2.84,-5.78 -4.24,-8.77 -1.39,-3.18 -2.83,-6.12 -4.23,-9.11 -1.19,-2.98 -2.64,-5.97 -3.83,-9.16 -1.79,-4.03 -3.34,-8.06 -5.13,-12.29 -1.54,-4.04 -3.14,-8.27 -4.53,-12.3 -1.59,-4.18 -2.99,-8.26 -4.43,-12.45 -1.39,-4.03 -2.64,-8.26 -4.03,-12.29 -1.2,-4.23 -2.44,-8.47 -3.49,-12.5 -1.24,-4.18 -2.29,-8.41 -3.33,-12.44 -1.1,-4.24 -2.14,-8.42 -2.99,-12.65 -1.05,-4.03 -1.94,-8.26 -2.84,-12.49 -0.7,-4.19 -1.59,-8.42 -2.29,-12.65 -0.7,-4.03 -1.39,-8.21 -2.09,-12.45 -0.55,-4.23 -1.04,-8.41 -1.59,-12.64 -0.5,-4.23 -1.05,-8.26 -1.4,-12.5 -0.54,-4.18 -0.89,-8.41 -1.24,-12.64 -0.15,-4.18 -0.5,-8.22 -0.7,-12.45 -0.15,-4.23 -0.35,-8.41 -0.5,-12.64 0,-4.04 0,-8.27 0,-12.5 0,-4.18 0,-8.21 0.15,-12.44 0,-4.24 0.2,-8.27 0.35,-12.45 0.2,-4.23 0.55,-8.26 0.9,-12.5 0.15,-4.03 0.5,-8.26 1.04,-12.29 0.35,-4.23 0.9,-8.27 1.25,-12.3 0.5,-4.18 1.04,-8.26 1.74,-12.3 0.55,-4.18 1.25,-8.26 1.94,-12.29 0.7,-4.04 1.4,-8.07 2.29,-12.1 0.7,-4.03 1.55,-8.07 2.44,-12.15 0.9,-4.03 1.94,-8.06 2.84,-11.9 1.04,-4.08 2.09,-8.11 3.14,-11.94 1.04,-4.04 2.29,-7.92 3.33,-11.95 1.25,-3.89 2.44,-7.92 3.69,-11.8 1.24,-3.83 2.63,-7.72 4.03,-11.55 1.24,-3.88 2.84,-7.77 4.23,-11.6 1.39,-3.88 2.99,-7.72 4.38,-11.45 1.59,-3.83 3.19,-7.72 4.93,-11.4 1.59,-3.84 3.14,-7.57 4.93,-11.25 1.74,-3.69 3.48,-7.37 5.42,-11.06 1.75,-3.68 3.69,-7.36 5.43,-11.05 1.94,-3.68 3.88,-7.22 5.98,-10.9 1.94,-3.48 4.08,-7.17 5.97,-10.7 2.14,-3.54 4.23,-7.02 6.52,-10.56 2.09,-3.48 4.23,-7.02 6.47,-10.35 2.29,-3.49 4.58,-7.02 6.87,-10.36 2.44,-3.33 4.73,-6.87 7.22,-10.2 2.44,-3.34 4.88,-6.67 7.37,-9.81 2.44,-3.34 5.08,-6.67 7.52,-9.86 2.64,-3.33 5.28,-6.47 7.91,-9.66 2.64,-3.13 5.48,-6.32 8.07,-9.46 2.84,-2.98 5.62,-6.17 8.46,-9.16 2.79,-3.13 5.63,-6.12 8.62,-9.11 2.98,-2.98 5.77,-5.97 8.76,-8.81 2.98,-2.93 6.17,-5.77 9.16,-8.76 2.93,-2.79 6.12,-5.63 9.26,-8.41 3.18,-2.84 6.32,-5.48 9.51,-8.27 3.33,-2.64 6.52,-5.42 9.85,-8.06 3.34,-2.64 6.68,-5.13 10.01,-7.77 3.34,-2.59 6.67,-5.08 10.16,-7.52 3.53,-2.49 6.87,-4.92 10.35,-7.36 3.54,-2.49 7.22,-4.78 10.76,-7.22 3.68,-2.29 7.16,-4.58 10.85,-6.87 3.68,-2.24 7.37,-4.38 11.1,-6.67 3.83,-2.09 7.52,-4.19 11.4,-6.33 3.69,-2.09 7.57,-4.03 11.4,-6.12 3.89,-1.94 7.92,-3.88 11.8,-5.82 4.03,-1.9 7.87,-3.84 11.9,-5.58 4.08,-1.79 8.11,-3.54 12.15,-5.28 7.56,-3.18 15.08,-6.52 22.45,-9.85 7.57,-3.34 14.94,-6.68 22.3,-10.16 7.42,-3.34 14.79,-6.87 22.16,-10.56 7.22,-3.53 14.39,-7.21 21.6,-10.9 7.17,-3.68 14.39,-7.37 21.61,-11.25 7.02,-3.83 14.04,-7.72 21.06,-11.55 7.02,-4.08 14.04,-7.91 21.06,-12.15 6.87,-4.03 13.74,-8.06 20.56,-12.29 6.87,-4.18 13.69,-8.42 20.56,-12.65 6.67,-4.38 13.34,-8.76 20.01,-13.14 6.68,-4.43 13.35,-8.81 19.87,-13.39 6.47,-4.53 13.14,-9.11 19.46,-13.69 6.53,-4.73 13,-9.31 19.32,-14.04 6.32,-4.93 12.65,-9.66 18.97,-14.39 6.32,-4.93 12.49,-9.86 18.62,-14.79 6.17,-5.07 12.3,-10 18.47,-15.08 5.97,-5.08 12.1,-10.21 18.07,-15.28 5.97,-5.28 11.95,-10.51 17.72,-15.79 5.83,-5.27 11.6,-10.55 17.43,-15.98 5.77,-5.27 11.55,-10.75 17.17,-16.18 5.63,-5.42 11.26,-11.05 16.88,-16.52 5.43,-5.58 11.05,-11.21 16.53,-16.83 5.43,-5.83 10.7,-11.4 16.13,-17.23 5.28,-5.77 10.55,-11.6 15.83,-17.37 5.28,-5.83 10.36,-11.8 15.63,-17.72 5.08,-5.98 10.16,-11.95 15.09,-17.93 5.08,-5.97 10.01,-12.14 14.93,-18.27 4.93,-6.17 9.66,-12.29 14.59,-18.47 4.73,-6.12 9.46,-12.44 14.04,-18.77 4.73,-6.17 9.31,-12.49 13.89,-18.96 4.53,-6.33 9.11,-12.65 13.49,-19.17 4.38,-6.47 8.81,-12.99 13.19,-19.47 4.39,-6.52 8.62,-13.19 12.8,-19.66 4.23,-6.67 8.26,-13.34 12.5,-20.01 4.03,-6.72 8.06,-13.4 11.94,-20.07 4.04,-6.82 7.87,-13.69 11.75,-20.36 3.89,-6.82 7.72,-13.69 11.4,-20.71 3.69,-6.87 7.42,-13.89 10.91,-20.71 3.68,-7.07 7.22,-14.09 10.7,-21.11 3.34,-7.02 6.87,-14.04 10.21,-21.25 3.33,-7.02 6.67,-14.19 9.8,-21.41 3.19,-7.02 6.33,-14.24 9.51,-21.41 2.99,-7.42 6.13,-14.59 9.11,-21.95 2.99,-7.22 5.83,-14.59 8.62,-21.96 2.83,-7.22 5.62,-14.78 8.26,-22.15 2.84,-7.37 5.43,-14.74 7.92,-22.31 2.63,-7.36 5.07,-14.93 7.56,-22.45 2.44,-7.57 4.73,-15.13 7.17,-22.65 2.29,-7.57 4.38,-15.13 6.67,-22.85 2.14,-7.57 4.24,-15.28 6.18,-22.85 2.09,-7.72 4.03,-15.43 5.97,-23.15 1.89,-7.77 3.69,-15.48 5.43,-23.2 1.74,-7.72 3.53,-15.63 5.08,-23.35 1.59,-7.92 3.18,-15.63 4.58,-23.55 1.39,-7.91 2.78,-15.78 4.23,-23.69 1.19,-7.92 2.64,-15.84 3.68,-23.7 1.2,-7.92 2.29,-15.98 3.34,-23.9 1.04,-8.11 2.09,-15.98 2.98,-24.09 0.85,-7.87 1.75,-15.98 2.44,-24.05 0.7,-8.06 1.4,-16.13 1.95,-24.24 0.69,-8.07 1.24,-16.13 1.59,-24.25 0.5,-8.06 0.84,-16.33 1.19,-24.39 0.35,-8.27 0.55,-16.33 0.75,-24.6 0.15,-8.06 0.15,-16.33 0.15,-24.59 0,-8.06 0,-16.33 -0.15,-24.59 -0.2,-8.07 -0.4,-16.33 -0.75,-24.4 -0.35,-8.06 -0.69,-16.33 -1.19,-24.39 -0.35,-8.12 -0.9,-16.18 -1.59,-24.25 -0.55,-8.06 -1.25,-16.18 -1.95,-24.24 -0.69,-8.07 -1.59,-16.13 -2.44,-24.05 -0.89,-8.11 -1.94,-16.18 -2.98,-24.09 -1.05,-8.07 -2.14,-15.98 -3.34,-23.85 -1.04,-7.91 -2.49,-15.83 -3.68,-23.75 -1.45,-7.86 -2.84,-15.78 -4.23,-23.69 -1.4,-7.92 -2.99,-15.63 -4.58,-23.55 -1.55,-7.72 -3.34,-15.63 -5.08,-23.35 -1.74,-7.72 -3.54,-15.43 -5.43,-23.15 -1.94,-7.77 -3.88,-15.48 -5.97,-23.2 -1.94,-7.71 -4.04,-15.28 -6.18,-23 -2.29,-7.57 -4.38,-15.13 -6.67,-22.85 -2.44,-7.57 -4.73,-15.08 -7.17,-22.45 -2.49,-7.57 -4.93,-15.14 -7.56,-22.65 -2.49,-7.42 -5.08,-14.79 -7.92,-22.31 -2.64,-7.41 -5.43,-14.78 -8.26,-22.15 -2.79,-7.37 -5.63,-14.59 -8.62,-21.96 -2.98,-7.21 -6.12,-14.58 -9.11,-21.75 -3.18,-7.22 -6.32,-14.44 -9.51,-21.61 -3.13,-7.22 -6.47,-14.24 -9.8,-21.45 -3.34,-7.02 -6.87,-14.04 -10.21,-21.26 -3.48,-7.02 -7.02,-13.84 -10.7,-20.86 -3.49,-7.02 -7.22,-13.89 -10.91,-20.91 -3.68,-6.87 -7.51,-13.69 -11.4,-20.56 -3.88,-6.87 -7.71,-13.54 -11.75,-20.36 -3.88,-6.67 -7.91,-13.54 -11.94,-20.22 -4.24,-6.67 -8.27,-13.34 -12.5,-19.81 -4.18,-6.72 -8.41,-13.19 -12.8,-19.71 -4.38,-6.68 -8.81,-13 -13.19,-19.47 -4.38,-6.52 -8.96,-12.84 -13.49,-19.32 -4.58,-6.32 -9.16,-12.64 -13.89,-18.96 -4.58,-6.33 -9.31,-12.5 -14.04,-18.62 -4.93,-6.33 -9.66,-12.5 -14.59,-18.62 -4.92,-6.18 -9.85,-12.15 -14.93,-18.07 -4.93,-6.18 -10.01,-12.15 -15.09,-18.12 -5.27,-5.78 -10.35,-11.75 -15.63,-17.58 -5.28,-5.97 -10.55,-11.75 -15.83,-17.37 -5.43,-5.78 -10.7,-11.6 -16.13,-17.23 -5.48,-5.57 -11.1,-11.2 -16.53,-16.83 -5.62,-5.62 -11.25,-11.1 -16.88,-16.52 -5.62,-5.43 -11.4,-10.91 -17.17,-16.33 -5.83,-5.43 -11.6,-10.71 -17.43,-15.98 -5.77,-5.28 -11.75,-10.56 -17.72,-15.64 -5.97,-5.07 -12.1,-10.35 -18.07,-15.28 -6.17,-5.08 -12.3,-10.16 -18.47,-15.08 -6.13,-4.93 -12.3,-9.86 -18.62,-14.79 -6.32,-4.88 -12.65,-9.66 -18.97,-14.39 -6.32,-4.73 -12.79,-9.46 -19.32,-14.04 -6.32,-4.58 -12.99,-9.31 -19.46,-13.69 -6.52,-4.58 -13.19,-9.16 -19.87,-13.54 -6.67,-4.38 -13.34,-8.76 -20.01,-12.99 -6.87,-4.23 -13.69,-8.61 -20.56,-12.65 -6.82,-4.23 -13.69,-8.41 -20.56,-12.44 -7.02,-4.09 -14.04,-8.12 -21.06,-11.95 -7.02,-4.03 -14.04,-7.92 -21.06,-11.6 -7.22,-3.88 -14.44,-7.72 -21.61,-11.4 -7.21,-3.74 -14.38,-7.22 -21.6,-10.9 -7.37,-3.54 -14.74,-7.02 -22.16,-10.56 -7.36,-3.33 -14.73,-6.82 -22.3,-10.01 -7.37,-3.33 -14.89,-6.67 -22.45,-9.8 -4.04,-1.79 -8.07,-3.54 -12.15,-5.28 -4.03,-1.94 -7.87,-3.68 -11.9,-5.63 -3.88,-1.94 -7.91,-3.88 -11.8,-5.82 -3.83,-2.09 -7.71,-4.03 -11.4,-6.12 -3.88,-2.09 -7.57,-4.24 -11.4,-6.53 -3.73,-2.09 -7.42,-4.18 -11.1,-6.47 -3.69,-2.29 -7.17,-4.58 -10.85,-6.87 -3.54,-2.44 -7.22,-4.73 -10.76,-7.17 -3.48,-2.49 -6.82,-4.92 -10.35,-7.41 -3.49,-2.44 -6.82,-4.88 -10.16,-7.52 -3.33,-2.64 -6.67,-5.28 -10.01,-7.92 -3.33,-2.64 -6.52,-5.27 -9.85,-7.91 -3.19,-2.79 -6.33,-5.43 -9.51,-8.27 -3.14,-2.78 -6.33,-5.57 -9.26,-8.56 -2.99,-2.84 -6.18,-5.63 -9.16,-8.61 -2.99,-2.99 -5.78,-5.83 -8.76,-8.81 -2.99,-2.99 -5.83,-6.13 -8.62,-9.11 -2.84,-2.99 -5.62,-6.18 -8.46,-9.31 -2.59,-2.99 -5.43,-6.18 -8.07,-9.31 -2.63,-3.19 -5.27,-6.53 -7.91,-9.66 -2.44,-3.34 -5.08,-6.52 -7.52,-9.86 -2.49,-3.33 -4.93,-6.67 -7.37,-10.01 -2.49,-3.33 -4.78,-6.67 -7.22,-10 -2.29,-3.49 -4.58,-6.82 -6.87,-10.36 -2.24,-3.33 -4.38,-6.87 -6.47,-10.35 -2.29,-3.54 -4.38,-7.02 -6.52,-10.56 -1.89,-3.68 -4.03,-7.17 -5.97,-10.85 -2.1,-3.53 -4.04,-7.22 -5.98,-10.75 -1.74,-3.69 -3.68,-7.37 -5.43,-11.05 -1.94,-3.69 -3.68,-7.37 -5.42,-11.06 -1.79,-3.68 -3.34,-7.56 -4.93,-11.25 -1.74,-3.88 -3.34,-7.57 -4.93,-11.4 -1.39,-3.88 -2.99,-7.57 -4.38,-11.45 -1.39,-3.83 -2.99,-7.72 -4.23,-11.55 -1.4,-3.88 -2.79,-7.77 -4.03,-11.6 -1.25,-4.03 -2.44,-7.91 -3.69,-11.8 -1.04,-4.03 -2.29,-7.86 -3.33,-11.9 -1.05,-4.08 -2.1,-7.91 -3.14,-11.94 -0.9,-4.04 -1.94,-7.92 -2.84,-11.95 -0.89,-4.03 -1.74,-8.12 -2.44,-12.15 -0.89,-4.03 -1.59,-8.06 -2.29,-12.1 -0.69,-4.23 -1.39,-8.26 -1.94,-12.29 -0.7,-4.04 -1.24,-8.27 -1.74,-12.3 -0.35,-4.03 -0.9,-8.26 -1.25,-12.3 -0.54,-4.23 -0.89,-8.26 -1.04,-12.44 -0.35,-4.09 -0.7,-8.27 -0.9,-12.3 -0.15,-4.23 -0.35,-8.46 -0.35,-12.5 -0.15,-4.18 -0.15,-8.41 -0.15,-12.64 0,-4.03 0,-8.26 0,-12.45 0.15,-4.23 0.35,-8.26 0.5,-12.49 0.2,-4.18 0.55,-8.42 0.7,-12.65 0.35,-4.18 0.7,-8.26 1.24,-12.44 0.35,-4.24 0.9,-8.47 1.4,-12.65 0.55,-4.23 1.04,-8.26 1.59,-12.49 0.7,-4.19 1.39,-8.42 2.09,-12.65 0.7,-4.18 1.59,-8.21 2.29,-12.45 0.9,-4.23 1.79,-8.41 2.84,-12.64 0.85,-4.03 1.89,-8.26 2.99,-12.5 1.04,-4.18 2.09,-8.21 3.33,-12.44 1.05,-4.23 2.29,-8.27 3.49,-12.5 1.39,-4.18 2.64,-8.21 4.03,-12.44 1.44,-4.04 2.84,-8.27 4.43,-12.3 1.39,-4.23 2.99,-8.26 4.53,-12.3 1.79,-4.23 3.34,-8.26 5.13,-12.29 1.74,-4.24 3.48,-8.27 5.23,-12.3 1.79,-4.03 3.73,-7.92 5.62,-11.95 1.94,-3.83 3.88,-7.86 5.83,-11.75 2.09,-3.88 4.03,-7.71 6.12,-11.4 2.14,-3.88 4.23,-7.76 6.32,-11.45 2.29,-3.68 4.38,-7.37 6.67,-11.05 2.29,-3.68 4.58,-7.37 6.87,-10.9 2.44,-3.69 4.73,-7.17 7.17,-10.71 2.49,-3.48 4.93,-7.02 7.42,-10.55 2.44,-3.34 5.08,-6.82 7.52,-10.16 2.64,-3.33 5.28,-6.67 7.91,-10 2.64,-3.34 5.28,-6.53 7.92,-9.86 2.79,-3.14 5.63,-6.32 8.26,-9.46 2.79,-3.19 5.63,-6.32 8.62,-9.31 2.78,-3.19 5.57,-6.17 8.56,-9.16 2.99,-2.99 5.97,-5.97 8.96,-8.96 2.99,-2.79 5.98,-5.78 8.96,-8.56 3.19,-2.84 6.18,-5.63 9.31,-8.27 3.19,-2.84 6.32,-5.47 9.51,-8.26 3.14,-2.64 6.32,-5.28 9.66,-7.92 3.14,-2.44 6.47,-5.08 9.66,-7.57 3.33,-2.43 6.67,-4.87 10,-7.36 3.34,-2.44 6.68,-4.88 10.16,-7.17 3.34,-2.29 6.87,-4.58 10.21,-6.87 3.53,-2.29 7.02,-4.38 10.55,-6.67 3.49,-2.09 7.02,-4.23 10.51,-6.33 3.53,-2.09 7.21,-4.23 10.75,-6.12 3.68,-1.94 7.17,-3.88 10.85,-5.82 3.69,-1.95 7.37,-3.84 11.1,-5.63 3.69,-1.74 7.37,-3.48 11.06,-5.28 3.68,-1.74 7.36,-3.48 11.25,-5.07 3.68,-1.6 7.51,-3.34 11.4,-4.73 3.68,-1.6 7.57,-3.19 11.4,-4.58 3.88,-1.4 7.72,-2.79 11.6,-4.24 3.88,-1.39 7.72,-2.58 11.6,-4.03 4.03,-1.19 7.91,-2.44 11.75,-3.48 4.03,-1.25 7.91,-2.49 11.95,-3.54 3.88,-1.04 7.91,-2.09 11.94,-2.98 3.89,-1.05 7.92,-1.95 11.95,-2.99 4.04,-0.85 8.07,-1.55 12.1,-2.44 4.03,-0.9 8.12,-1.59 12.15,-2.29 4.03,-0.7 8.26,-1.25 12.29,-1.94 4.04,-0.5 8.07,-1.05 12.3,-1.6 4.03,-0.49 8.22,-1.04 12.3,-1.39 4.03,-0.35 8.21,-0.7 12.25,-1.05 4.23,-0.34 8.46,-0.49 12.49,-0.69 4.23,-0.2 8.27,-0.35 12.45,-0.55 4.23,0 8.26,-0.15 12.49,-0.15 4.24,0 8.42,0.15 12.45,0.15 4.23,0.2 8.46,0.35 12.65,0.55 4.23,0.2 8.26,0.55 12.49,0.69 4.23,0.35 8.41,0.7 12.65,1.25 4.03,0.35 8.26,0.85 12.44,1.39 4.23,0.55 8.47,1.05 12.65,1.75 4.03,0.54 8.26,1.24 12.49,1.94 4.19,0.89 8.42,1.59 12.45,2.44 4.23,0.89 8.46,1.79 12.65,2.63 4.23,1.1 8.26,2.15 12.49,3.19 4.18,1.05 8.27,2.09 12.45,3.34 4.23,1.24 8.26,2.44 12.49,3.68 4.04,1.25 8.22,2.64 12.3,4.03 4.18,1.4 8.21,2.84 12.45,4.38 4.03,1.45 8.26,2.99 12.29,4.78 4.04,1.55 8.07,3.14 12.3,4.88 13.54,5.83 26.88,11.6 40.23,17.58 13.34,5.82 26.68,11.94 39.87,18.12 13.15,6.12 26.34,12.44 39.33,18.77 13.15,6.32 26.19,12.84 38.99,19.51 12.99,6.67 25.83,13.34 38.48,20.16 12.79,6.67 25.44,13.69 37.93,20.76 12.65,7.02 25.1,14.19 37.59,21.41 12.45,7.37 24.75,14.74 37.04,22.11 12.1,7.56 24.4,15.13 36.54,22.85 11.95,7.56 24.05,15.43 36,23.34 11.75,7.72 23.7,15.84 35.5,23.9 11.74,8.07 23.34,16.33 34.94,24.59 11.55,8.27 23,16.68 34.41,25.1 11.4,8.46 22.85,17.07 34.05,25.83 11.25,8.62 22.3,17.38 33.4,26.34 11.06,8.81 21.96,17.72 32.81,26.88 10.9,8.96 21.61,18.07 32.31,27.38 10.76,9.31 21.46,18.62 31.81,28.13 10.56,9.31 20.91,18.77 31.27,28.43 10.35,9.66 20.56,19.31 30.72,29.17 10.2,9.81 20.21,19.67 30.07,29.47 10,10.06 19.81,20.07 29.67,30.22 9.66,10.21 19.31,20.36 28.97,30.57 9.46,10.36 18.97,20.71 28.28,31.26 9.46,10.36 18.77,20.91 27.93,31.62 9.11,10.55 18.27,21.26 27.23,32.16 8.91,10.7 17.73,21.55 26.49,32.46 8.81,10.9 17.57,21.95 25.99,33 8.61,11.11 17.07,22.31 25.49,33.56 8.41,11.25 16.67,22.65 24.74,33.9 8.26,11.4 16.18,22.85 24.24,34.45 7.92,11.55 15.83,23.15 23.55,34.75 7.72,11.75 15.29,23.55 22.8,35.3 7.57,11.75 14.94,23.69 22.31,35.64 7.22,11.95 14.43,24.1 21.6,36 7.02,12.14 14.09,24.24 20.91,36.54 6.87,12.15 13.69,24.44 20.36,36.89 6.68,12.29 13.2,24.59 19.72,37.04 6.32,12.49 12.64,25.14 18.97,37.58 6.12,12.65 12.24,25.29 18.22,37.94 5.97,12.84 11.95,25.49 17.57,38.28 5.83,12.85 11.4,25.84 17.03,38.69 5.48,12.99 10.9,25.98 16.18,38.98 5.43,13.14 10.55,26.13 15.63,39.33 5.08,13.19 10.01,26.33 14.74,39.52 4.93,13.35 9.66,26.69 14.24,40.03 4.58,13.34 9.11,26.69 13.34,40.23 4.38,13.34 8.61,26.88 12.84,40.37 4.04,13.54 8.07,27.23 11.95,40.77 3.83,13.7 7.52,27.39 11.2,41.08 3.69,13.69 7.22,27.58 10.56,41.27 3.33,13.89 6.67,27.78 9.85,41.62 2.94,13.89 6.13,27.93 8.92,41.82 2.83,14.03 5.62,28.07 8.26,42.16 2.64,14.04 5.13,28.08 7.57,42.12 2.29,14.24 4.58,28.48 6.67,42.52 2.09,14.23 4.23,28.42 5.97,42.86 1.94,14.24 3.69,28.43 5.28,42.86 1.59,14.39 2.99,28.63 4.38,43.02 1.25,14.38 2.44,28.97 3.49,43.36 1.24,14.39 2.14,28.97 2.98,43.41 0.75,14.54 1.45,29.12 1.94,43.71 0.55,14.59 0.9,29.17 1.25,43.71 0.35,14.59 0.35,29.37 0.35,43.91 0,14.79 0,29.32 -0.35,44.11 -0.35,14.59 -0.7,29.12 -1.25,43.71 -0.49,14.59 -1.19,29.17 -1.94,43.56 -0.84,14.59 -1.74,29.17 -2.98,43.56 -1.05,14.39 -2.24,28.83 -3.49,43.21 -1.39,14.39 -2.79,28.78 -4.38,43.22 -1.59,14.18 -3.34,28.62 -5.28,42.81 -1.74,14.24 -3.88,28.48 -5.97,42.72 -2.09,14.18 -4.38,28.42 -6.67,42.46 -2.44,14.24 -4.93,28.28 -7.57,42.37 -2.64,14.04 -5.43,28.08 -8.26,41.97 -2.79,14.03 -5.98,27.92 -8.92,41.76 -3.18,14.09 -6.52,27.78 -9.85,41.62 -3.34,13.89 -6.87,27.58 -10.56,41.27 -3.68,13.74 -7.37,27.44 -11.2,41.13 -3.88,13.69 -7.91,27.23 -11.95,40.72 -4.23,13.54 -8.46,27.08 -12.84,40.57 -4.23,13.35 -8.76,26.89 -13.34,40.23 -4.58,13.34 -9.31,26.53 -14.24,39.88 -4.73,13.19 -9.66,26.33 -14.74,39.52 -5.08,13.15 -10.2,26.34 -15.63,39.33 -5.28,13 -10.7,25.99 -16.18,38.98 -5.63,12.85 -11.2,25.84 -17.03,38.64 -5.62,12.84 -11.6,25.49 -17.57,38.28 -5.98,12.65 -12.1,25.29 -18.22,37.94 -6.33,12.49 -12.65,25.14 -18.97,37.58 -6.52,12.3 -13.04,24.8 -19.72,37.09 -6.67,12.45 -13.49,24.6 -20.36,36.84 -6.82,12.3 -13.89,24.45 -20.91,36.54 -7.17,11.95 -14.38,24.1 -21.6,36 -7.37,11.95 -14.74,23.74 -22.31,35.69 -7.51,11.75 -15.08,23.5 -22.8,35.1 -7.72,11.8 -15.63,23.35 -23.55,34.95 -8.06,11.4 -15.98,22.85 -24.24,34.25 -8.07,11.4 -16.33,22.85 -24.74,34.05 -8.42,11.25 -16.88,22.31 -25.49,33.41 -8.42,11.05 -17.18,22.1 -25.99,33 -8.76,11.06 -17.58,21.96 -26.49,32.66 -8.96,10.71 -18.12,21.46 -27.23,32.16 -9.16,10.51 -18.47,21.06 -27.93,31.62 -9.31,10.35 -18.82,20.71 -28.28,31.06 -9.66,10.36 -19.31,20.56 -28.97,30.77 -9.86,10 -19.67,20.01 -29.67,30.02 -9.86,10 -19.87,19.81 -30.07,29.67 -10.16,9.66 -20.37,19.51 -30.72,28.97 -10.36,9.66 -20.71,19.17 -31.27,28.63 -10.35,9.51 -21.05,18.82 -31.81,27.93 -10.7,9.31 -21.41,18.42 -32.31,27.58 -10.85,8.96 -21.75,17.92 -32.81,26.88 -11.1,8.76 -22.15,17.53 -33.4,26.34 -11.2,8.61 -22.65,17.17 -34.05,25.79 -11.41,8.46 -22.86,16.87 -34.41,25.14 -11.6,8.26 -23.2,16.47 -34.94,24.59 -11.8,8.06 -23.75,15.98 -35.5,23.85 -11.95,7.91 -24.05,15.83 -36,23.39 -12.14,7.72 -24.44,15.29 -36.54,22.81 -12.29,7.36 -24.59,14.78 -37.04,22.15 -12.49,7.17 -24.94,14.39 -37.59,21.41 -12.49,7.02 -25.14,14.04 -37.93,20.91 -12.65,6.87 -25.49,13.54 -38.48,20.21 -12.8,6.47 -25.84,12.99 -38.99,19.46 -12.99,6.33 -26.18,12.65 -39.33,18.82 -13.19,6.13 -26.53,12.1 -39.87,18.07 -13.35,5.98 -26.69,11.75 -40.23,17.58 -1.05,0.35 -2.09,0.84 -3.19,1.24 -1.04,0.35 -1.89,0.85 -2.98,1.2 -1.05,0.35 -2.09,0.89 -3.14,1.24 -0.9,0.55 -1.94,0.9 -2.99,1.25 -1.04,0.34 -2.09,0.84 -3.13,1.19 -0.9,0.35 -1.94,0.7 -2.99,1.25 -1.1,0.34 -2.14,0.69 -3.19,1.04 -1.04,0.35 -1.94,0.7 -2.98,1.25 -1.05,0.34 -2.09,0.69 -3.14,1.04 -1.1,0.35 -1.94,0.7 -2.99,1.05 -1.09,0.35 -2.14,0.69 -3.18,1.04 -1.05,0.35 -2.09,0.7 -3.14,1.1 -0.9,0.35 -1.94,0.69 -2.99,1.04 -1.09,0.35 -2.14,0.7 -3.18,1.05 -1.05,0.35 -2.09,0.7 -2.99,1.04 -1.05,0.2 -2.09,0.55 -3.14,0.9 -1.04,0.35 -2.14,0.7 -3.18,0.85 -1.05,0.34 -2.09,0.69 -2.99,1.04 -1.05,0.2 -2.09,0.55 -3.14,0.9 -1.04,0.35 -2.14,0.55 -3.18,0.89 -1.05,0.35 -2.09,0.5 -3.14,0.85 -1.04,0.2 -1.94,0.55 -2.99,0.9 -1.04,0.2 -2.14,0.54 -3.18,0.69 -1.05,0.35 -2.09,0.55 -3.14,0.9 -1.04,0.15 -2.14,0.5 -3.18,0.7 -1.05,0.34 -1.95,0.49 -2.99,0.89 -1.05,0.15 -2.09,0.5 -3.14,0.7 -1.04,0.15 -2.14,0.5 -3.18,0.7 -1.05,0.15 -2.1,0.49 -3.14,0.69 -1.05,0.15 -2.14,0.5 -3.19,0.7 -1.04,0.2 -2.09,0.35 -2.98,0.7 -1.05,0.2 -2.1,0.35 -3.14,0.55 -1.05,0.14 -2.14,0.49 -3.19,0.69 -1.04,0.15 -2.09,0.35 -3.13,0.5 -1.05,0.2 -2.14,0.35 -3.19,0.55 -1.05,0.35 -2.09,0.55 -3.14,0.69 -1.04,0.2 -2.14,0.35 -3.18,0.55 -1.05,0.15 -1.94,0.35 -2.99,0.5 -1.04,0.2 -2.09,0.35 -3.14,0.55 -1.04,0 -2.14,0.15 -3.18,0.35 -1.05,0.15 -2.09,0.34 -3.14,0.49 -1.04,0.2 -2.14,0.4 -3.18,0.4 -1.05,0.15 -2.1,0.35 -3.14,0.5 -1.05,0.2 -2.14,0.2 -3.19,0.35 -1.04,0.2 -2.09,0.35 -3.13,0.35 -1.05,0.2 -2.14,0.35 -2.99,0.35 -1.05,0.19 -2.14,0.34 -3.19,0.34 -1.04,0.2 -2.09,0.2 -3.13,0.35 -1.05,0.2 -2.09,0.2 -3.19,0.35 -1.05,0 -2.09,0.2 -3.14,0.2 -1.04,0.15 -2.09,0.15 -3.18,0.35 -1.05,0 -2.09,0.2 -3.14,0.2 -1.04,0.15 -2.14,0.15 -3.19,0.15 -1.04,0.2 -2.09,0.2 -3.13,0.35 -1.05,0 -1.94,0 -2.99,0.19 -1.04,0 -2.09,0 -3.18,0.15 -1.05,0 -2.1,0 -3.14,0 -1.05,0.2 -2.09,0.2 -3.19,0.2 -1.04,0 -2.09,0.15 -3.13,0.15 -1.05,0 -2.09,0 -3.19,0 -1.05,0 -2.09,0.2 -3.14,0.2 -0.89,0 -1.94,0 -2.98,0 -1.05,0 -2.09,0 -3.19,0 -1.05,0 -2.09,0 -3.14,0z"/>
 </g>
</svg>
