<?xml version="1.0" encoding="UTF-8"?>
<!DOCTYPE svg PUBLIC "-//W3C//DTD SVG 1.1//EN" "http://www.w3.org/Graphics/SVG/1.1/DTD/svg11.dtd">
<!-- Creator: CorelDRAW 2026 -->
<svg xmlns="http://www.w3.org/2000/svg" xml:space="preserve" width="338.667mm" height="338.667mm" version="1.1" shape-rendering="geometricPrecision" text-rendering="geometricPrecision" image-rendering="optimizeQuality" fill-rule="evenodd" clip-rule="evenodd"
viewBox="0 0 33866.66 33866.66"
 xmlns:xlink="http://www.w3.org/1999/xlink"
 xmlns:xodm="http://www.corel.com/coreldraw/odm/2003">
 <g id="Camada_x0020_1">
  <metadata id="CorelCorpID_0Corel-Layer"/>
  <path fill="black" fill-rule="nonzero" d="M16932.46 -0.01c-145.77,0 -291.54,1.95 -437.31,5.63 -144.02,3.68 -289.79,9.11 -433.82,16.53 -144.03,7.17 -288.06,16.33 -432.03,27.18 -142.29,10.9 -286.32,23.75 -428.55,38.14 -142.29,14.38 -282.78,30.71 -425.01,48.63 -140.55,17.93 -281.04,37.59 -421.53,59 -140.5,21.46 -279.25,44.65 -419.74,69.4 -138.75,24.74 -277.5,51.27 -414.51,79.55 -137,28.28 -275.75,58.15 -410.97,89.56 -137.01,31.62 -272.22,64.62 -407.44,99.57 -135.26,34.8 -270.48,71.14 -403.95,109.28 -135.27,37.93 -268.74,77.61 -400.47,118.88 -131.68,41.27 -265.21,83.94 -395.14,128.39 -131.74,44.41 -261.67,90.26 -391.66,137.86 -129.99,47.44 -258.19,96.43 -386.38,147.01 -128.2,50.58 -256.44,102.55 -382.9,156.12 -126.45,53.57 -252.9,108.53 -377.56,165.09 -124.72,56.55 -249.43,114.5 -372.35,174.04 -122.96,59.39 -245.88,120.33 -367.06,182.66 -122.97,62.33 -242.4,126.1 -363.58,191.27 -119.43,65.17 -238.86,131.73 -356.51,199.68 -117.69,67.96 -235.33,137.36 -351.28,208.1 -117.64,70.64 -231.8,142.78 -347.75,216.21 -114.15,73.43 -226.57,148.06 -340.72,224.28 -112.37,76.07 -223.04,153.33 -333.66,232.19 -110.67,78.66 -221.29,158.56 -330.22,239.91 -107.14,81.15 -216.02,163.69 -323.16,247.43 -105.34,83.98 -210.74,168.96 -316.13,255.19 -103.6,86.22 -207.25,173.7 -310.86,262.56 -101.86,88.72 -203.72,178.62 -303.83,269.58 -100.12,91.15 -198.45,183.55 -296.82,277 -98.37,93.39 -194.96,188.08 -291.54,283.82 -94.84,95.68 -189.68,192.66 -282.78,290.64 -93.1,98.02 -186.14,197.24 -277.5,297.36 -91.3,100.26 -180.87,201.57 -268.69,303.98 -89.56,102.4 -177.38,206 -263.46,310.5 -86.03,104.5 -170.36,210.04 -254.65,316.68 -84.28,106.78 -166.88,214.27 -247.63,322.95 -80.8,108.72 -161.6,218.3 -240.61,328.97 -77.31,110.62 -156.32,222.33 -231.85,334.9 -75.52,112.76 -151.04,226.21 -224.82,340.72 -71.99,114.5 -143.98,230.1 -216.02,346.34 -70.25,116.45 -138.75,233.79 -207.25,351.98 -68.46,118.18 -135.22,237.27 -200.19,357.2 -64.97,119.98 -128.19,240.8 -191.42,362.52 -61.49,121.68 -122.97,244.29 -182.66,367.56 -59.74,123.46 -117.69,247.63 -173.9,372.68 -56.21,125.06 -110.62,250.82 -165.09,377.42 -52.67,126.65 -105.39,254.14 -156.32,382.19 -49.14,128.19 -98.33,257.08 -145.77,386.92 -47.4,129.59 -94.84,260.07 -138.75,391.1 -43.91,131.18 -87.82,263.06 -128.2,395.69 -40.37,132.42 -80.8,265.69 -119.43,399.71 -36.89,133.82 -73.78,268.54 -108.88,403.8 -35.15,135.21 -68.5,271.12 -100.12,407.63 -31.61,136.61 -61.48,273.76 -89.56,411.67 -28.13,137.65 -54.46,276.05 -79.06,415.14 -24.54,138.95 -47.39,278.55 -68.45,418.74 -22.85,140.14 -42.17,280.78 -59.74,422.02 -17.58,141.18 -33.36,283.12 -49.19,425.35 -14.04,142.28 -26.34,285.21 -36.84,428.54 -12.3,143.28 -21.11,287.16 -28.13,431.33 -7.02,144.37 -12.3,289.1 -15.78,434.32 -3.54,145.27 -5.28,291.03 -5.28,437.15 0,146.12 1.74,291.88 5.28,437.15 3.48,145.02 8.76,289.95 15.78,434.12 7.02,144.37 15.83,288.2 28.13,431.53 10.5,143.33 22.8,286.26 36.84,428.54 15.83,142.23 31.61,284.17 49.19,425.35 17.57,141.19 36.89,281.88 59.74,422.02 21.06,140.14 43.91,279.79 68.45,418.69 24.6,138.94 50.93,277.34 79.06,415.19 28.08,137.86 57.95,275.06 89.56,411.52 31.62,136.61 64.97,272.57 100.12,407.78 35.1,135.26 71.99,269.78 108.88,403.8 38.63,133.82 79.06,267.09 119.43,399.71 40.38,132.58 84.29,264.31 128.2,395.49 43.91,131.23 91.35,261.51 138.75,391.3 47.44,129.64 96.63,258.53 145.77,386.72 50.93,128.25 103.65,255.54 156.32,382.19 54.47,126.6 108.88,252.56 165.09,377.42 56.21,125.05 114.16,249.36 173.9,372.68 59.69,123.46 121.17,245.88 182.66,367.61 63.23,121.67 126.45,242.49 191.42,362.47 64.97,119.93 131.73,239.02 200.19,357.2 68.5,118.24 137,235.53 207.25,351.98 72.04,116.29 144.03,231.84 216.02,346.34 73.78,114.51 149.3,228.11 224.82,340.72 75.53,112.57 154.54,224.28 231.85,334.9 79.01,110.67 159.81,220.25 240.61,328.97 80.75,108.68 163.35,216.37 247.63,322.95 84.29,106.64 168.62,212.18 254.65,316.68 86.08,104.5 173.9,208.1 263.46,310.5 87.82,102.41 177.39,203.72 268.69,304.03 91.36,100.07 184.4,199.34 277.5,297.31 93.1,98.03 187.94,194.96 282.78,290.69 96.58,95.69 193.17,190.38 291.54,283.82 98.37,93.4 196.7,185.8 296.82,276.95 100.11,90.96 201.97,180.86 303.83,269.58 103.61,88.72 207.26,176.34 310.86,262.56 105.39,86.23 210.79,171.26 316.13,254.99 107.14,83.99 216.02,166.53 323.16,247.68 108.93,81.3 219.55,161.2 330.22,239.86 110.62,78.86 221.29,156.17 333.66,232.19 114.15,76.22 226.57,150.9 340.72,224.28 115.95,73.43 230.11,145.62 347.75,216.21 115.95,70.79 233.59,140.14 351.28,208.1 117.65,68 237.08,134.56 356.51,199.68 121.18,65.17 240.61,128.94 363.58,191.27 121.18,62.33 244.1,123.32 367.06,182.66 122.92,59.54 247.63,117.49 372.35,174.04 124.66,56.36 251.11,111.52 377.56,165.09 126.46,53.57 254.7,105.54 382.9,156.12 128.19,50.58 256.39,99.62 386.38,147.01 129.99,47.6 259.92,93.45 391.66,137.86 129.93,44.25 263.46,87.12 395.14,128.39 131.73,41.27 265.2,80.95 400.47,118.88 133.47,38.14 268.69,74.48 403.95,109.28 135.22,34.75 270.43,67.95 407.44,99.57 135.22,31.41 273.97,61.28 410.97,89.56 137.01,28.13 275.76,54.61 414.51,79.55 140.49,24.79 279.24,47.94 419.74,69.4 140.49,21.41 280.98,41.07 421.53,59 142.23,17.92 282.72,34.25 425.01,48.63 142.23,14.44 286.26,27.24 428.55,38.14 143.97,10.9 288,20.01 432.03,27.23 144.03,7.37 289.8,12.8 433.82,16.48 145.77,3.68 291.54,5.63 437.31,5.63 145.77,0 291.54,-1.95 437.31,-5.63 145.77,-3.68 289.8,-9.11 433.83,-16.48 143.98,-7.22 288,-16.33 432.03,-27.23 144.03,-10.9 286.26,-23.7 428.55,-38.14 142.23,-14.38 284.52,-30.71 425.01,-48.63 142.24,-17.93 282.78,-37.59 421.53,-59 140.49,-21.46 280.99,-44.61 419.74,-69.4 138.75,-24.94 277.5,-51.42 414.5,-79.55 138.7,-28.28 275.71,-58.15 412.72,-89.56 135.22,-31.62 272.22,-64.82 407.44,-99.57 135.26,-34.8 268.74,-71.14 403.95,-109.28 133.48,-37.93 266.95,-77.61 398.68,-118.88 133.47,-41.27 265.2,-84.14 395.19,-128.39 131.73,-44.41 261.67,-90.26 391.66,-137.86 129.94,-47.39 258.13,-96.43 386.38,-147.01 128.19,-50.58 256.39,-102.55 382.84,-156.12 126.46,-53.57 252.91,-108.73 377.62,-165.09 124.71,-56.55 249.37,-114.5 372.34,-174.04 122.92,-59.34 245.89,-120.33 367.07,-182.66 122.91,-62.33 244.14,-126.1 363.52,-191.27 119.44,-65.12 238.87,-131.68 356.56,-199.68 119.44,-67.96 235.34,-137.31 353.03,-208.1 115.9,-70.59 231.8,-142.78 345.95,-216.21 114.16,-73.38 228.37,-148.06 340.73,-224.28 112.41,-76.02 224.83,-153.33 335.45,-232.19 110.67,-78.66 219.55,-158.56 328.43,-239.86 108.93,-81.15 216.02,-163.69 323.15,-247.68 105.4,-83.73 212.54,-168.76 316.14,-254.99 105.39,-86.22 208.99,-173.84 310.9,-262.56 101.86,-88.72 203.72,-178.62 303.84,-269.58 100.07,-91.15 198.44,-183.55 296.82,-276.95 98.32,-93.44 194.9,-188.13 291.54,-283.82 94.84,-95.73 189.68,-192.66 282.73,-290.69 94.84,-97.97 186.19,-197.24 277.5,-297.31 91.35,-100.31 180.91,-201.62 270.48,-304.03 87.82,-102.4 175.64,-206 261.67,-310.5 86.07,-104.5 172.15,-210.04 254.69,-316.68 84.29,-106.58 166.83,-214.27 247.63,-322.95 82.55,-108.72 161.56,-218.3 240.61,-328.97 79.01,-110.62 156.33,-222.33 231.85,-334.9 75.53,-112.61 151.05,-226.21 224.78,-340.72 73.78,-114.5 145.77,-230.05 216.02,-346.34 70.24,-116.45 140.54,-233.74 207.25,-351.98 68.51,-118.18 135.27,-237.27 200.24,-357.2 64.97,-119.98 128.19,-240.8 191.42,-362.47 61.48,-121.73 122.97,-244.15 182.66,-367.61 59.69,-123.32 117.69,-247.63 173.85,-372.68 56.2,-124.86 112.41,-250.82 165.13,-377.42 54.42,-126.65 105.35,-253.94 156.28,-382.19 50.93,-128.19 100.12,-257.08 147.56,-386.72 47.4,-129.79 93.05,-260.07 136.96,-391.3 43.91,-131.18 87.82,-262.91 128.24,-395.49 42.12,-132.62 80.76,-265.89 119.39,-399.71 38.68,-134.02 73.78,-268.54 108.93,-403.8 35.1,-135.21 68.5,-271.17 100.11,-407.78 31.62,-136.46 61.44,-273.66 89.57,-411.52 28.08,-137.85 54.41,-276.25 79.01,-415.19 24.59,-138.9 47.44,-278.55 70.24,-418.69 21.11,-140.14 40.43,-280.83 57.95,-422.02 17.58,-141.18 35.15,-283.12 49.19,-425.35 14.04,-142.28 26.34,-285.21 38.63,-428.54 10.56,-143.33 19.32,-287.16 26.39,-431.53 7.02,-144.17 12.25,-289.1 17.52,-434.12 3.54,-145.27 5.28,-291.03 5.28,-437.15 0,-146.12 -1.74,-291.88 -5.28,-437.15 -5.27,-145.22 -10.5,-289.95 -17.52,-434.32 -7.07,-144.17 -15.83,-288.05 -26.39,-431.33 -12.29,-143.33 -24.59,-286.26 -38.63,-428.54 -14.04,-142.23 -31.61,-284.17 -49.19,-425.35 -17.52,-141.24 -36.84,-281.88 -57.95,-422.02 -22.8,-140.19 -45.65,-279.79 -70.24,-418.74 -24.6,-139.09 -50.93,-277.49 -79.01,-415.14 -28.13,-137.91 -57.95,-275.06 -89.57,-411.67 -31.61,-136.51 -65.01,-272.42 -100.11,-407.63 -35.15,-135.26 -70.25,-269.98 -108.93,-403.8 -38.63,-134.02 -77.27,-267.29 -119.39,-399.71 -40.42,-132.63 -84.33,-264.51 -128.24,-395.69 -43.91,-131.03 -89.56,-261.51 -136.96,-391.1 -47.44,-129.84 -96.63,-258.73 -147.56,-386.92 -50.93,-128.05 -101.86,-255.54 -156.28,-382.19 -52.72,-126.6 -108.93,-252.36 -165.13,-377.42 -56.16,-125.05 -114.16,-249.22 -173.85,-372.68 -59.69,-123.27 -121.18,-245.88 -182.66,-367.56 -63.23,-121.72 -126.45,-242.54 -191.42,-362.52 -64.97,-119.93 -131.73,-239.02 -200.24,-357.2 -66.71,-118.19 -137.01,-235.53 -207.25,-351.98 -70.25,-116.24 -142.24,-231.84 -216.02,-346.34 -73.73,-114.51 -149.25,-227.96 -224.78,-340.72 -75.52,-112.57 -152.84,-224.28 -231.85,-334.9 -79.05,-110.67 -158.06,-220.25 -240.61,-328.97 -80.8,-108.68 -163.34,-216.17 -247.63,-322.95 -82.54,-106.64 -168.62,-212.18 -254.69,-316.68 -86.03,-104.5 -173.85,-208.1 -261.67,-310.5 -89.57,-102.41 -179.13,-203.72 -270.48,-303.98 -91.31,-100.12 -182.66,-199.34 -277.5,-297.36 -93.05,-97.98 -187.89,-194.96 -282.73,-290.64 -96.64,-95.74 -193.22,-190.43 -291.54,-283.82 -98.38,-93.45 -196.75,-185.85 -296.82,-277 -100.12,-90.96 -201.98,-180.86 -303.84,-269.58 -101.91,-88.86 -205.51,-176.34 -310.9,-262.56 -103.6,-86.23 -210.74,-171.21 -316.14,-255.19 -107.13,-83.74 -214.22,-166.28 -323.15,-247.43 -108.88,-81.35 -217.76,-161.25 -328.43,-239.91 -110.62,-78.86 -223.04,-156.12 -335.45,-232.19 -112.36,-76.22 -226.57,-150.85 -340.73,-224.28 -114.15,-73.43 -230.05,-145.57 -345.95,-216.21 -117.69,-70.74 -233.59,-140.14 -353.03,-208.1 -117.69,-67.95 -237.12,-134.51 -356.56,-199.68 -119.38,-65.17 -240.61,-128.94 -363.52,-191.27 -121.18,-62.33 -244.15,-123.27 -367.07,-182.66 -122.97,-59.54 -247.63,-117.49 -372.34,-174.04 -124.71,-56.56 -251.16,-111.52 -377.62,-165.09 -126.45,-53.57 -254.65,-105.54 -382.84,-156.12 -128.25,-50.58 -256.44,-99.57 -386.38,-147.01 -129.99,-47.6 -259.93,-93.45 -391.66,-137.86 -129.99,-44.45 -261.72,-87.12 -395.19,-128.39 -131.73,-41.27 -265.2,-80.95 -398.68,-118.88 -135.21,-38.14 -268.69,-74.48 -403.95,-109.28 -135.22,-34.95 -272.22,-67.95 -407.44,-99.57 -137.01,-31.41 -274.02,-61.28 -412.72,-89.56 -137,-28.28 -275.75,-54.81 -414.5,-79.55 -138.75,-24.75 -279.25,-47.94 -419.74,-69.4 -138.75,-21.41 -279.29,-41.07 -421.53,-59 -140.49,-17.92 -282.78,-34.25 -425.01,-48.63 -142.29,-14.39 -284.52,-27.24 -428.55,-38.14 -144.03,-10.85 -288.05,-20.01 -432.03,-27.18 -144.03,-7.42 -288.06,-12.85 -433.83,-16.53 -145.77,-3.68 -291.54,-5.63 -437.31,-5.63l0 0 0 0 0 0 0 0 0 0 0 0 0 0 0 0 0 0 0 0 0 0 0 0 0 0 0 0 0 0 0 0 0 0 0 0 0 0 0 0 0 0 0 0 0 0 0 0 0 0 0 0 0 0 0 0 0 0 0 0 0 0 0 0 0 0 0 0 0 0 0 0 0 0 0 0 0 0 0 0 0 0 0 0 0 0 0 0 0 0 0 0 0 0 0 0 0 0 0 0 0 0 0 0 0 0 0 0 0 0 0 0 0 0 0 0 0 0 0 0 0 0 0 0 0 0 0 0zm0 2112.44c128.2,0 254.65,1.59 382.85,4.93 126.45,3.19 252.91,8.06 379.36,14.39 126.45,6.52 251.16,14.43 375.87,24.09 126.46,9.46 251.17,20.71 375.83,33.36 124.71,12.64 247.63,26.88 370.6,42.51 124.71,15.78 247.63,33.01 370.55,51.78 121.22,18.82 244.14,39.18 365.32,60.93 121.17,21.81 242.4,45.01 363.58,69.75 119.43,24.74 240.61,50.93 360.04,78.51 119.43,27.58 237.08,56.7 356.51,87.27 117.69,30.37 235.33,62.38 353.02,95.74 115.9,33.35 233.59,68.15 349.49,104.29 115.95,36.05 230.11,73.58 346.01,112.62 114.15,38.78 228.31,79 342.47,120.62 112.41,41.62 224.83,84.68 337.19,128.94 112.41,44.26 224.83,89.91 335.45,136.81 110.67,47.05 221.29,95.19 330.22,144.72 108.88,49.49 217.76,100.47 324.9,152.59 108.88,51.97 216.01,105.39 323.15,160.01 105.4,54.61 210.79,110.47 316.13,167.72 105.4,57.1 209,115.4 312.65,174.94 103.61,59.54 207.21,120.28 309.12,182.31 101.86,61.98 201.92,125.01 302.04,189.33 100.12,64.42 200.24,129.93 298.61,196.49 98.33,66.76 196.7,134.52 293.28,203.37 96.59,69.05 193.17,139.1 288.01,210.24 94.84,71.29 189.68,143.48 282.78,216.91 93.09,73.38 186.19,147.86 277.5,223.58 91.35,75.52 182.66,152.09 272.22,229.9 89.56,77.61 177.38,156.47 265.2,236.18 87.82,79.75 175.65,160.7 261.67,242.54 84.34,81.85 170.37,164.74 252.91,248.53 84.34,83.93 166.88,168.76 249.42,254.64 82.55,85.73 163.35,172.65 242.35,260.47 79.06,87.62 158.07,176.49 237.13,266.1 77.27,89.71 152.79,180.36 228.31,271.87 77.27,91.5 151.05,183.85 224.78,277.29 73.78,93.45 145.77,187.59 216.07,282.78 71.99,95.18 142.23,191.07 210.74,288 68.5,96.78 137,194.6 203.72,293.13 66.76,98.72 131.73,198.09 196.7,298.2 63.22,100.32 126.45,201.48 187.93,303.14 63.23,101.85 122.92,204.61 182.66,308.06 59.7,103.45 117.65,207.75 175.64,312.59 56.21,105.05 112.37,210.79 166.83,317.38 54.47,106.44 108.88,213.72 159.81,321.75 52.73,107.83 103.66,216.56 152.79,325.99 50.98,109.37 98.38,219.49 145.82,330.31 45.66,110.67 91.31,222.19 136.96,334.4 43.91,112.07 86.08,224.83 128.2,338.29 42.16,113.45 82.59,227.61 121.22,342.26 38.64,114.7 75.53,230.1 112.37,346 35.14,115.9 70.29,232.54 103.65,349.68 33.35,117.14 64.97,234.83 96.58,353.17 29.87,118.19 59.74,237.12 86.08,356.55 28.08,119.44 54.41,239.36 79.01,359.84 24.59,120.48 47.44,241.5 70.24,363.03 21.11,121.52 42.17,243.59 61.49,366.16 17.57,122.42 35.15,245.53 50.93,369 15.83,123.46 29.87,247.47 42.17,371.83 12.29,124.32 24.59,249.17 33.35,374.58 10.56,125.26 17.58,250.96 24.6,377.06 7.02,126.11 10.55,252.76 14.03,379.56 3.54,127 5.28,254.29 5.28,381.99 0,127.7 -1.74,254.99 -5.28,381.99 -3.48,126.8 -7.01,253.4 -14.03,379.51 -7.02,126.1 -14.04,251.85 -24.6,377.06 -8.76,125.41 -21.06,250.31 -33.35,374.62 -12.3,124.37 -26.34,248.33 -42.17,371.84 -15.78,123.47 -33.36,246.58 -50.93,368.95 -19.32,122.62 -40.38,244.69 -61.49,366.21 -22.8,121.52 -45.65,242.55 -70.24,363.03 -24.6,120.47 -50.93,240.4 -79.01,359.84 -26.34,119.43 -56.21,238.16 -86.08,356.55 -31.61,118.19 -63.23,236.02 -96.58,353.17 -33.36,117.14 -68.51,233.58 -103.65,349.68 -36.84,115.9 -73.73,231.3 -112.37,345.95 -38.63,114.7 -79.06,228.71 -121.22,342.16 -42.12,113.41 -84.29,226.37 -128.2,338.44 -45.65,112.21 -91.3,223.53 -136.96,334.35 -47.44,110.81 -94.84,220.94 -145.82,330.36 -49.13,109.23 -100.06,217.96 -152.79,325.99 -50.93,107.98 -105.34,215.11 -159.81,321.75 -54.46,106.39 -110.62,212.13 -166.83,317.18 -57.99,104.99 -115.94,209.14 -175.64,312.59 -59.74,103.45 -119.43,206.21 -182.66,308.06 -61.48,101.86 -124.71,202.87 -187.93,303.14 -64.97,100.26 -129.94,199.68 -196.7,298.2 -66.72,98.53 -135.22,196.35 -203.72,293.13 -68.51,96.93 -138.75,193.02 -210.74,288 -70.3,95.24 -142.29,189.53 -216.07,282.78 -73.73,93.44 -147.51,185.84 -224.78,277.34 -75.52,91.66 -151.04,182.26 -228.31,271.87 -79.06,89.71 -158.07,178.43 -237.13,266.25 -79,87.82 -159.8,174.54 -242.35,260.42 -82.54,85.73 -165.08,170.71 -249.42,254.49 -82.54,83.94 -168.57,166.68 -252.91,248.53 -86.02,81.99 -173.85,162.79 -261.67,242.54 -87.82,79.71 -175.64,158.57 -265.2,236.23 -89.56,77.76 -180.87,154.38 -272.22,230.05 -91.31,75.52 -184.41,150 -277.5,223.38 -93.1,73.43 -187.94,145.62 -282.78,216.91 -94.84,71.14 -191.42,141.24 -288.01,210.24 -96.58,68.85 -194.95,136.66 -293.28,203.37 -98.37,66.56 -198.49,132.07 -298.61,196.54 -100.12,64.27 -200.18,127.3 -302.04,189.33 -101.91,61.98 -205.51,122.77 -309.12,182.26 -103.65,59.54 -207.25,117.89 -312.65,174.94 -105.34,57.25 -210.73,113.11 -316.13,167.72 -107.14,54.62 -214.27,108.04 -323.15,160.01 -107.14,52.17 -216.02,102.9 -324.9,152.64 -108.93,49.48 -219.55,97.62 -330.22,144.67 -110.62,46.9 -223.04,92.6 -335.45,136.86 -112.36,44.26 -224.78,87.27 -337.19,128.89 -114.16,41.62 -228.32,81.84 -342.47,120.67 -115.9,38.99 -230.06,76.57 -346.01,112.57 -115.9,36.19 -233.59,70.94 -349.49,104.29 -117.69,33.41 -235.33,65.37 -353.02,95.74 -119.43,30.57 -237.08,59.69 -356.51,87.27 -119.43,27.58 -240.61,53.77 -360.04,78.51 -121.18,24.79 -242.41,47.94 -363.58,69.75 -121.18,21.75 -244.1,42.11 -365.32,60.93 -122.92,18.62 -245.84,36 -370.55,51.63 -122.97,15.83 -245.89,30.02 -370.6,42.66 -124.66,12.65 -249.37,23.9 -375.83,33.41 -124.71,9.66 -249.42,17.52 -375.87,24.04 -126.45,6.33 -252.91,11.25 -379.36,14.39 -128.2,3.19 -254.65,4.93 -382.85,4.93 -128.19,0 -254.65,-1.74 -381.1,-4.93 -128.24,-3.14 -254.7,-8.06 -379.36,-14.39 -126.45,-6.52 -252.91,-14.38 -377.62,-24.04 -124.71,-9.51 -251.16,-20.76 -374.08,-33.41 -124.71,-12.64 -249.42,-26.83 -372.34,-42.66 -122.97,-15.63 -245.89,-33.01 -368.86,-51.63 -122.92,-18.82 -245.83,-39.18 -367.06,-60.93 -121.18,-21.81 -242.35,-44.96 -361.79,-69.75 -121.17,-24.74 -240.61,-50.93 -360.04,-78.51 -119.43,-27.58 -238.87,-56.7 -356.51,-87.27 -119.43,-30.37 -237.12,-62.33 -353.02,-95.74 -117.69,-33.35 -233.59,-68.1 -351.29,-104.29 -115.89,-36 -230.05,-73.58 -345.95,-112.57 -114.16,-38.83 -228.31,-79.05 -340.73,-120.67 -114.15,-41.62 -226.57,-84.63 -338.98,-128.89 -112.42,-44.26 -223.04,-89.96 -333.71,-136.86 -112.36,-47.05 -221.29,-95.19 -330.17,-144.67 -110.62,-49.74 -219.55,-100.47 -326.64,-152.64 -108.93,-51.97 -216.07,-105.39 -321.41,-160.01 -107.14,-54.61 -212.53,-110.47 -317.93,-167.72 -105.34,-57.05 -208.99,-115.4 -312.6,-174.94 -103.6,-59.49 -205.51,-120.28 -307.37,-182.26 -101.86,-62.03 -203.72,-125.06 -303.83,-189.33 -100.12,-64.47 -200.19,-129.98 -298.56,-196.54 -98.33,-66.71 -196.7,-134.52 -293.29,-203.37 -96.63,-69 -193.21,-139.1 -288.05,-210.24 -94.84,-71.29 -189.68,-143.48 -282.78,-216.91 -93.05,-73.38 -184.4,-147.86 -277.45,-223.38 -91.36,-75.67 -180.92,-152.29 -270.48,-230.05 -89.56,-77.66 -179.18,-156.52 -266.95,-236.23 -87.82,-79.75 -173.9,-160.55 -259.97,-242.54 -86.03,-81.85 -170.37,-164.59 -254.65,-248.53 -84.29,-83.78 -166.83,-168.76 -249.37,-254.49 -80.81,-85.88 -161.61,-172.6 -242.41,-260.42 -79.01,-87.82 -158.06,-176.54 -235.33,-266.25 -79.01,-89.61 -154.53,-180.21 -230.06,-271.87 -75.52,-91.5 -151.04,-183.9 -223.08,-277.34 -73.73,-93.25 -145.77,-187.54 -217.76,-282.78 -70.25,-94.98 -140.49,-191.07 -210.74,-288 -68.5,-96.78 -137.01,-194.6 -201.98,-293.13 -66.76,-98.52 -133.47,-197.94 -196.7,-298.2 -65.02,-100.27 -128.24,-201.28 -189.68,-303.14 -61.48,-101.85 -122.96,-204.61 -182.66,-308.06 -59.74,-103.45 -117.69,-207.6 -175.64,-312.59 -56.2,-105.05 -112.41,-210.79 -166.83,-317.18 -54.46,-106.64 -108.93,-213.77 -159.86,-321.75 -52.67,-108.03 -103.6,-216.76 -152.79,-325.99 -49.18,-109.42 -98.32,-219.55 -144.02,-330.36 -47.4,-110.82 -93.05,-222.14 -136.96,-334.35 -45.7,-112.07 -87.82,-225.03 -129.99,-338.44 -40.37,-113.45 -80.8,-227.46 -121.18,-342.16 -38.63,-114.65 -75.52,-230.05 -112.41,-345.95 -35.1,-116.1 -70.25,-232.54 -103.6,-349.68 -33.36,-117.15 -64.97,-234.98 -96.58,-353.17 -29.87,-118.39 -58,-237.12 -86.08,-356.55 -28.13,-119.44 -54.47,-239.37 -79.06,-359.84 -24.54,-120.48 -47.4,-241.51 -70.25,-363.03 -21.06,-121.52 -42.11,-243.59 -59.69,-366.21 -19.32,-122.37 -36.89,-245.48 -52.67,-368.95 -15.83,-123.51 -29.87,-247.47 -42.17,-371.84 -12.3,-124.31 -24.59,-249.21 -33.35,-374.62 -8.82,-125.21 -17.58,-250.96 -24.6,-377.06 -5.28,-126.11 -10.55,-252.71 -14.09,-379.51 -3.48,-127 -5.22,-254.29 -5.22,-381.99 0,-127.7 1.74,-254.99 5.22,-381.99 3.54,-126.8 8.81,-253.45 14.09,-379.56 7.02,-126.1 15.78,-251.8 24.6,-377.06 8.76,-125.41 21.05,-250.26 33.35,-374.58 12.3,-124.36 26.34,-248.37 42.17,-371.83 15.78,-123.47 33.35,-246.58 52.67,-369 17.58,-122.57 38.63,-244.64 59.69,-366.16 22.85,-121.53 45.71,-242.55 70.25,-363.03 24.59,-120.48 50.93,-240.4 79.06,-359.84 28.08,-119.43 56.21,-238.36 86.08,-356.55 31.61,-118.34 63.22,-236.03 96.58,-353.17 33.35,-117.14 68.5,-233.78 103.6,-349.68 36.89,-115.9 73.78,-231.3 112.41,-346 40.38,-114.65 80.81,-228.81 121.18,-342.26 42.17,-113.46 84.29,-226.22 129.99,-338.29 43.91,-112.21 89.56,-223.73 136.96,-334.4 45.7,-110.82 94.84,-220.94 144.02,-330.31 49.19,-109.43 100.12,-218.16 152.79,-325.99 50.93,-108.03 105.4,-215.31 159.86,-321.75 54.42,-106.59 110.63,-212.33 166.83,-317.38 57.95,-104.84 115.9,-209.14 175.64,-312.59 59.7,-103.45 121.18,-206.21 182.66,-308.06 61.44,-101.66 124.66,-202.82 189.68,-303.14 63.23,-100.11 129.94,-199.48 196.7,-298.2 64.97,-98.53 133.48,-196.35 201.98,-293.13 70.25,-96.93 140.49,-192.82 210.74,-288 71.99,-95.19 144.03,-189.33 217.76,-282.78 72.04,-93.44 147.56,-185.79 223.08,-277.29 75.53,-91.51 151.05,-182.16 230.06,-271.87 77.27,-89.61 156.32,-178.48 235.33,-266.1 80.8,-87.82 161.6,-174.74 242.41,-260.47 82.54,-85.88 165.08,-170.71 249.37,-254.64 84.28,-83.79 168.62,-166.68 254.65,-248.53 86.07,-81.84 172.15,-162.79 259.97,-242.54 87.77,-79.71 177.39,-158.57 266.95,-236.18 89.56,-77.81 179.12,-154.38 270.48,-229.9 93.05,-75.72 184.4,-150.2 277.45,-223.58 93.1,-73.43 187.94,-145.62 282.78,-216.91 94.84,-71.14 191.42,-141.19 288.05,-210.24 96.59,-68.85 194.96,-136.61 293.29,-203.37 98.37,-66.56 198.44,-132.07 298.56,-196.49 100.11,-64.32 201.97,-127.35 303.83,-189.33 101.86,-62.03 203.77,-122.77 307.37,-182.31 103.61,-59.54 207.26,-117.84 312.6,-174.94 105.4,-57.25 210.79,-113.11 317.93,-167.72 105.34,-54.62 212.48,-108.04 321.41,-160.01 107.09,-52.12 216.02,-103.1 326.64,-152.59 108.88,-49.53 217.81,-97.67 330.17,-144.72 110.67,-46.9 221.29,-92.55 333.71,-136.81 112.41,-44.26 224.83,-87.32 338.98,-128.94 112.42,-41.62 226.57,-81.84 340.73,-120.62 115.9,-39.04 230.06,-76.57 345.95,-112.62 117.7,-36.14 233.6,-70.94 351.29,-104.29 115.9,-33.36 233.59,-65.37 353.02,-95.74 117.64,-30.57 237.08,-59.69 356.51,-87.27 119.43,-27.58 238.87,-53.77 360.04,-78.51 119.44,-24.74 240.61,-47.94 361.79,-69.75 121.23,-21.75 244.14,-42.11 367.06,-60.93 122.97,-18.77 245.89,-36 368.86,-51.78 122.92,-15.63 247.63,-29.87 372.34,-42.51 122.92,-12.65 249.37,-23.9 374.08,-33.36 124.71,-9.66 251.17,-17.57 377.62,-24.09 124.66,-6.33 251.12,-11.2 379.36,-14.39 126.45,-3.34 252.91,-4.93 381.1,-4.93z"/>
  <polygon fill="black" fill-rule="nonzero" points="8867.52,16933.23 9011.55,17039.67 9153.83,17146.11 9296.07,17252.55 9440.1,17358.98 9582.33,17465.42 9724.62,17571.81 9868.65,17678.25 10010.88,17784.69 10153.17,17891.12 10297.14,17997.36 10439.43,18103.8 10581.66,18210.24 10725.69,18316.68 10867.98,18423.07 11010.21,18529.51 11154.24,18635.94 11296.47,18742.38 11438.76,18848.82 11580.99,18955.26 11725.02,19061.65 11867.31,19168.08 12009.54,19274.37 12153.57,19380.76 12295.8,19487.2 12438.09,19593.64 12582.12,19700.08 12724.35,19806.51 12866.64,19912.95 13010.66,20019.34 13152.9,20125.78 13295.18,20232.22 13439.16,20338.46 13581.45,20444.9 13723.68,20551.33 13867.71,20657.77 14010,20764.21 14152.23,20870.65 14296.26,20977.04 14438.49,21083.47 14580.78,21189.91 14724.81,21296.35 14867.04,21402.79 15009.33,21509.03 15153.3,21615.47 15295.59,21721.9 15437.82,21828.34 15581.85,21934.73 15724.14,22041.17 15866.37,22147.61 16010.4,22254.05 16152.63,22360.48 16294.92,22466.92 16438.95,22573.31 16581.18,22679.6 16723.47,22786.04 16867.49,22892.43 17009.73,22998.86 17152.01,23105.3 17295.99,23211.74 17438.28,23318.18 17580.51,23424.62 17724.54,23531.01 17866.83,23637.44 18009.06,23743.88 18009.06,23531.01 18009.06,23318.18 18009.06,23105.3 18009.06,22892.43 18009.06,22679.6 18009.06,22466.92 18009.06,22254.05 18009.06,22041.17 18009.06,21828.34 18009.06,21615.47 18009.06,21402.79 18009.06,21189.91 18009.06,20977.04 18009.06,20764.21 18009.06,20551.33 18009.06,20338.46 18009.06,20125.78 18009.06,19912.95 18009.06,19700.08 18009.06,19487.2 18009.06,19274.37 18009.06,19061.65 18009.06,18848.82 18009.06,18635.94 18009.06,18423.07 18009.06,18210.24 18009.06,17997.36 18009.06,17784.69 18009.06,17571.81 18009.06,17358.98 18009.06,17146.11 18009.06,16933.23 18009.06,16720.55 18009.06,16507.73 18009.06,16294.85 18009.06,16081.97 18009.06,15869.15 18009.06,15656.42 18009.06,15443.59 18009.06,15230.72 18009.06,15017.84 18009.06,14805.01 18009.06,14592.14 18009.06,14379.46 18009.06,14166.58 18009.06,13953.76 18009.06,13740.88 18009.06,13528 18009.06,13315.33 18009.06,13102.45 18009.06,12889.62 18009.06,12676.75 18009.06,12463.87 18009.06,12251.04 18009.06,12038.37 18009.06,11825.49 18009.06,11612.61 18009.06,11399.79 18009.06,11186.91 18009.06,10974.23 18009.06,10761.36 18009.06,10548.53 18009.06,10335.65 18009.06,10122.78 17866.83,10229.22 17724.54,10335.65 17580.51,10442.09 17438.28,10548.53 17295.99,10654.92 17152.01,10761.36 17009.73,10867.8 16867.49,10974.23 16723.47,11080.67 16581.18,11186.91 16438.95,11293.35 16294.92,11399.79 16152.63,11506.18 16010.4,11612.61 15866.37,11719.05 15724.14,11825.49 15581.85,11931.93 15437.82,12038.37 15295.59,12144.76 15153.3,12251.04 15009.33,12357.48 14867.04,12463.87 14724.81,12570.31 14580.78,12676.75 14438.49,12783.19 14296.26,12889.62 14152.23,12996.06 14010,13102.45 13867.71,13208.89 13723.68,13315.33 13581.45,13421.57 13439.16,13528 13295.18,13634.44 13152.9,13740.88 13010.66,13847.32 12866.64,13953.76 12724.35,14060.15 12582.12,14166.58 12438.09,14273.02 12295.8,14379.46 12153.57,14485.9 12009.54,14592.14 11867.31,14698.58 11725.02,14805.01 11580.99,14911.45 11438.76,15017.84 11296.47,15124.28 11154.24,15230.72 11010.21,15337.15 10867.98,15443.59 10725.69,15550.03 10581.66,15656.42 10439.43,15762.71 10297.14,15869.15 10153.17,15975.54 10010.88,16081.97 9868.65,16188.41 9724.62,16294.85 9582.33,16401.29 9440.1,16507.73 9296.07,16614.11 9153.83,16720.55 9011.55,16826.84 "/>
  <polygon fill="black" fill-rule="nonzero" points="12871.91,19882.73 8867.52,19882.73 8867.52,13983.93 12871.91,13983.93 12871.91,14076.13 12871.91,14168.38 12871.91,14260.58 12871.91,14352.58 12871.91,14444.78 12871.91,14536.98 12871.91,14629.18 12871.91,14721.43 12871.91,14813.43 12871.91,14905.63 12871.91,14997.83 12871.91,15090.03 12871.91,15182.23 12871.91,15274.28 12871.91,15366.48 12871.91,15458.68 12871.91,15550.88 12871.91,15642.93 12871.91,15735.13 12871.91,15827.33 12871.91,15919.53 12871.91,16011.73 12871.91,16103.78 12871.91,16195.98 12871.91,16288.18 12871.91,16380.38 12871.91,16472.38 12871.91,16564.63 12871.91,16656.83 12871.91,16749.03 12871.91,16841.23 12871.91,16933.23 12871.91,17025.43 12871.91,17117.68 12871.91,17209.88 12871.91,17302.08 12871.91,17394.08 12871.91,17486.28 12871.91,17578.48 12871.91,17670.68 12871.91,17762.73 12871.91,17854.93 12871.91,17947.13 12871.91,18039.33 12871.91,18131.53 12871.91,18223.58 12871.91,18315.78 12871.91,18407.98 12871.91,18500.18 12871.91,18592.38 12871.91,18684.43 12871.91,18776.63 12871.91,18868.83 12871.91,18961.03 12871.91,19053.08 12871.91,19145.28 12871.91,19237.48 12871.91,19329.68 12871.91,19421.88 12871.91,19513.93 12871.91,19606.13 12871.91,19698.33 12871.91,19790.53 "/>
  <polygon fill="black" fill-rule="nonzero" points="20854.26,19513.54 20838.48,19497.75 20822.65,19481.77 20806.87,19465.94 20791.04,19449.96 20775.25,19434.18 20759.42,19418.2 20741.85,19402.37 20726.07,19386.39 20710.24,19370.61 20694.45,19354.63 20678.62,19338.79 20662.84,19322.81 20647.01,19307.03 20631.23,19291.05 20615.4,19275.22 20599.61,19259.24 20583.78,19243.46 20568,19227.48 20552.17,19211.65 20536.39,19195.66 20520.56,19179.88 20504.77,19163.9 20488.94,19148.07 20473.16,19132.09 20457.33,19116.31 20441.55,19100.33 20423.97,19084.5 20408.19,19068.52 20392.36,19052.73 20376.58,19036.75 20360.75,19020.92 20344.96,19004.94 20329.13,18989.16 20313.35,18973.13 20297.52,18957.35 20281.74,18941.37 20265.91,18925.54 20250.12,18909.56 20234.29,18893.77 20218.51,18877.79 20202.68,18861.96 20186.9,18845.98 20171.07,18830.2 20155.28,18814.22 20139.45,18798.39 20123.67,18782.41 20106.1,18766.63 20090.26,18750.65 20074.48,18734.81 20058.65,18718.83 20042.87,18703.05 20027.04,18687.07 20011.26,18671.24 19995.42,18655.26 19979.64,18639.48 19963.81,18623.5 19948.03,18607.67 19932.2,18591.69 19916.42,18575.9 19900.58,18559.92 19884.8,18544.09 19868.97,18528.11 19853.19,18512.33 19837.36,18496.35 19900.58,18431.53 19965.6,18366.91 20030.57,18302.09 20095.54,18237.47 20160.51,18172.65 20225.53,18107.83 20290.5,18043.21 20355.47,17978.4 20418.7,17913.58 20483.66,17848.96 20548.68,17784.14 20613.65,17719.52 20678.62,17654.7 20743.64,17589.93 20808.61,17525.26 20871.84,17460.49 20936.81,17395.87 21001.78,17331.05 21066.79,17266.24 21131.76,17201.62 21196.73,17136.8 21261.75,17071.98 21324.98,17007.36 21389.95,16942.54 21454.92,16877.92 21519.89,16813.1 21584.9,16748.33 21649.87,16683.66 21714.84,16618.89 21778.07,16554.22 21843.04,16489.46 21908.06,16424.64 21973.03,16360.02 22038,16295.2 22103.02,16230.38 22167.98,16165.76 22231.21,16100.94 22296.18,16036.32 22361.15,15971.5 22426.17,15906.68 22491.14,15842.06 22556.11,15777.3 22621.13,15712.63 22686.1,15647.86 22749.32,15583.04 22814.29,15518.42 22879.26,15453.6 22944.28,15388.78 23009.25,15324.16 23074.22,15259.34 23139.19,15194.72 23202.41,15129.9 23267.43,15065.09 23332.4,15000.47 23397.37,14935.65 23462.39,14871.03 23527.36,14806.21 23592.33,14741.44 23655.55,14676.77 23720.52,14612 23785.54,14547.18 23850.51,14482.56 23915.48,14417.74 23980.5,14353.12 23996.28,14368.91 24012.11,14384.89 24027.9,14400.72 24043.73,14416.7 24059.51,14432.48 24075.34,14448.46 24091.12,14464.29 24106.95,14480.27 24122.74,14496.05 24138.57,14512.03 24154.35,14527.87 24170.18,14543.85 24185.96,14559.63 24201.79,14575.61 24219.32,14591.44 24235.15,14607.42 24250.93,14623.2 24266.76,14639.23 24282.54,14655.01 24298.38,14671 24314.16,14686.83 24329.99,14702.81 24345.77,14718.59 24361.6,14734.57 24377.38,14750.4 24393.22,14766.38 24409,14782.16 24424.83,14798.14 24440.61,14813.97 24456.44,14829.96 24472.22,14845.74 24488.06,14861.72 24503.84,14877.55 24519.67,14893.53 24537.24,14909.31 24553.03,14925.29 24568.86,14941.12 24584.64,14957.1 24600.47,14972.89 24616.25,14988.87 24632.08,15004.7 24647.87,15020.68 24663.7,15036.46 24679.48,15052.44 24695.31,15068.27 24711.09,15084.25 24726.92,15100.03 24742.71,15116.01 24758.54,15131.85 24774.32,15147.83 24790.15,15163.61 24805.93,15179.59 24821.76,15195.42 24837.55,15211.4 24855.12,15227.23 24870.9,15243.21 24886.73,15258.99 24902.52,15274.97 24918.35,15290.81 24934.13,15306.79 24949.96,15322.57 24965.74,15338.55 24981.57,15354.38 24997.36,15370.36 24932.39,15434.98 24867.42,15499.8 24802.45,15564.57 24739.22,15629.24 24674.2,15694.01 24609.23,15758.83 24544.26,15823.45 24479.24,15888.26 24414.28,15952.88 24349.31,16017.7 24284.34,16082.52 24221.11,16147.14 24156.09,16211.96 24091.12,16276.58 24026.15,16341.4 23961.13,16406.17 23896.16,16470.84 23831.2,16535.61 23767.97,16600.42 23703,16665.04 23637.98,16729.86 23573.01,16794.48 23508.04,16859.3 23443.07,16924.12 23378.05,16988.74 23314.83,17053.56 23249.86,17118.18 23184.89,17183 23119.87,17247.82 23054.9,17312.44 22989.93,17377.25 22924.96,17442.02 22861.74,17506.69 22796.72,17571.46 22731.75,17636.13 22666.78,17700.9 22601.76,17765.72 22536.79,17830.34 22471.82,17895.16 22408.59,17959.78 22343.63,18024.6 22278.61,18089.41 22213.64,18154.03 22148.67,18218.85 22083.7,18283.62 22018.68,18348.29 21953.71,18413.06 21890.48,18477.73 21825.51,18542.5 21760.5,18607.32 21695.53,18671.94 21630.56,18736.76 21565.59,18801.38 21500.57,18866.19 21437.34,18931.01 21372.37,18995.63 21307.4,19060.45 21242.39,19125.27 21177.42,19189.89 21112.45,19254.71 21047.48,19319.33 20984.25,19384.1 20919.23,19448.92 "/>
  <polygon fill="black" fill-rule="nonzero" points="23980.5,19513.54 23915.48,19448.92 23850.51,19384.1 23785.54,19319.33 23720.52,19254.71 23655.55,19189.89 23592.33,19125.27 23527.36,19060.45 23462.39,18995.63 23397.37,18931.01 23332.4,18866.19 23267.43,18801.38 23202.41,18736.76 23139.19,18671.94 23074.22,18607.32 23009.25,18542.5 22944.28,18477.73 22879.26,18413.06 22814.29,18348.29 22749.32,18283.62 22686.1,18218.85 22621.13,18154.03 22556.11,18089.41 22491.14,18024.6 22426.17,17959.78 22361.15,17895.16 22296.18,17830.34 22231.21,17765.72 22167.98,17700.9 22103.02,17636.13 22038,17571.46 21973.03,17506.69 21908.06,17442.02 21843.04,17377.25 21778.07,17312.44 21714.84,17247.82 21649.87,17183 21584.9,17118.18 21519.89,17053.56 21454.92,16988.74 21389.95,16924.12 21324.98,16859.3 21261.75,16794.48 21196.73,16729.86 21131.76,16665.04 21066.79,16600.42 21001.78,16535.61 20936.81,16470.84 20871.84,16406.17 20808.61,16341.4 20743.64,16276.58 20678.62,16211.96 20613.65,16147.14 20548.68,16082.52 20483.66,16017.7 20418.7,15952.88 20355.47,15888.26 20290.5,15823.45 20225.53,15758.83 20160.51,15694.01 20095.54,15629.24 20030.57,15564.57 19965.6,15499.8 19900.58,15434.98 19837.36,15370.36 19853.19,15354.38 19868.97,15338.55 19884.8,15322.57 19900.58,15306.79 19916.42,15290.81 19932.2,15274.97 19948.03,15258.99 19963.81,15243.21 19979.64,15227.23 19995.42,15211.4 20011.26,15195.42 20027.04,15179.59 20042.87,15163.61 20058.65,15147.83 20074.48,15131.85 20090.26,15116.01 20106.1,15100.03 20123.67,15084.25 20139.45,15068.27 20155.28,15052.44 20171.07,15036.46 20186.9,15020.68 20202.68,15004.7 20218.51,14988.87 20234.29,14972.89 20250.12,14957.1 20265.91,14941.12 20281.74,14925.29 20297.52,14909.31 20313.35,14893.53 20329.13,14877.55 20344.96,14861.72 20360.75,14845.74 20376.58,14829.96 20392.36,14813.97 20408.19,14798.14 20423.97,14782.16 20441.55,14766.38 20457.33,14750.4 20473.16,14734.57 20488.94,14718.59 20504.77,14702.81 20520.56,14686.83 20536.39,14671 20552.17,14655.01 20568,14639.23 20583.78,14623.2 20599.61,14607.42 20615.4,14591.44 20631.23,14575.61 20647.01,14559.63 20662.84,14543.85 20678.62,14527.87 20694.45,14512.03 20710.24,14496.05 20726.07,14480.27 20741.85,14464.29 20759.42,14448.46 20775.25,14432.48 20791.04,14416.7 20806.87,14400.72 20822.65,14384.89 20838.48,14368.91 20854.26,14353.12 20919.23,14417.74 20984.25,14482.56 21047.48,14547.18 21112.45,14612 21177.42,14676.77 21242.39,14741.44 21307.4,14806.21 21372.37,14871.03 21437.34,14935.65 21500.57,15000.47 21565.59,15065.09 21630.56,15129.9 21695.53,15194.72 21760.5,15259.34 21825.51,15324.16 21890.48,15388.78 21953.71,15453.6 22018.68,15518.42 22083.7,15583.04 22148.67,15647.86 22213.64,15712.63 22278.61,15777.3 22343.63,15842.06 22408.59,15906.68 22471.82,15971.5 22536.79,16036.32 22601.76,16100.94 22666.78,16165.76 22731.75,16230.38 22796.72,16295.2 22861.74,16360.02 22924.96,16424.64 22989.93,16489.46 23054.9,16554.22 23119.87,16618.89 23184.89,16683.66 23249.86,16748.33 23314.83,16813.1 23378.05,16877.92 23443.07,16942.54 23508.04,17007.36 23573.01,17071.98 23637.98,17136.8 23703,17201.62 23767.97,17266.24 23831.2,17331.05 23896.16,17395.87 23961.13,17460.49 24026.15,17525.26 24091.12,17589.93 24156.09,17654.7 24221.11,17719.52 24284.34,17784.14 24349.31,17848.96 24414.28,17913.58 24479.24,17978.4 24544.26,18043.21 24609.23,18107.83 24674.2,18172.65 24739.22,18237.47 24802.45,18302.09 24867.42,18366.91 24932.39,18431.53 24997.36,18496.35 24981.57,18512.33 24965.74,18528.11 24949.96,18544.09 24934.13,18559.92 24918.35,18575.9 24902.52,18591.69 24886.73,18607.67 24870.9,18623.5 24855.12,18639.48 24837.55,18655.26 24821.76,18671.24 24805.93,18687.07 24790.15,18703.05 24774.32,18718.83 24758.54,18734.81 24742.71,18750.65 24726.92,18766.63 24711.09,18782.41 24695.31,18798.39 24679.48,18814.22 24663.7,18830.2 24647.87,18845.98 24632.08,18861.96 24616.25,18877.79 24600.47,18893.77 24584.64,18909.56 24568.86,18925.54 24553.03,18941.37 24537.24,18957.35 24519.67,18973.13 24503.84,18989.16 24488.06,19004.94 24472.22,19020.92 24456.44,19036.75 24440.61,19052.73 24424.83,19068.52 24409,19084.5 24393.22,19100.33 24377.38,19116.31 24361.6,19132.09 24345.77,19148.07 24329.99,19163.9 24314.16,19179.88 24298.38,19195.66 24282.54,19211.65 24266.76,19227.48 24250.93,19243.46 24235.15,19259.24 24219.32,19275.22 24201.79,19291.05 24185.96,19307.03 24170.18,19322.81 24154.35,19338.79 24138.57,19354.63 24122.74,19370.61 24106.95,19386.39 24091.12,19402.37 24075.34,19418.2 24059.51,19434.18 24043.73,19449.96 24027.9,19465.94 24012.11,19481.77 23996.28,19497.75 "/>
 </g>
</svg>
