<?xml version="1.0" encoding="UTF-8"?>
<!DOCTYPE svg PUBLIC "-//W3C//DTD SVG 1.1//EN" "http://www.w3.org/Graphics/SVG/1.1/DTD/svg11.dtd">
<!-- Creator: CorelDRAW 2026 -->
<svg xmlns="http://www.w3.org/2000/svg" xml:space="preserve" width="338.667mm" height="338.667mm" version="1.1" shape-rendering="geometricPrecision" text-rendering="geometricPrecision" image-rendering="optimizeQuality" fill-rule="evenodd" clip-rule="evenodd"
viewBox="0 0 33866.66 33866.66"
 xmlns:xlink="http://www.w3.org/1999/xlink"
 xmlns:xodm="http://www.corel.com/coreldraw/odm/2003">
 <g id="Camada_x0020_1">
  <metadata id="CorelCorpID_0Corel-Layer"/>
  <path fill="black" fill-rule="nonzero" d="M16933.68 -0.01c-146.12,0 -291.89,1.8 -437.11,5.28 -145.27,5.28 -290,10.56 -434.37,17.58 -144.33,7.02 -288.21,15.83 -431.49,26.33 -143.33,12.3 -286.11,24.6 -428.4,38.64 -142.43,14.08 -284.17,29.87 -425.36,49.18 -141.19,17.58 -282.08,36.89 -422.22,57.95 -139.95,21.11 -279.59,45.65 -418.69,70.25 -138.9,24.59 -277.3,50.93 -415.01,79.06 -137.85,28.08 -275.06,57.95 -411.67,89.56 -136.46,31.61 -272.42,64.97 -407.63,100.12 -135.27,35.09 -269.94,70.24 -403.76,108.88 -134.02,38.63 -267.34,77.26 -399.77,119.43 -132.58,40.37 -264.51,84.28 -395.69,128.19 -131.03,43.92 -261.52,89.57 -391.11,137.01 -129.79,47.4 -258.73,96.58 -386.92,147.51 -128.05,50.93 -255.55,101.86 -382.15,156.33 -126.65,52.67 -252.41,108.88 -377.42,165.09 -125.06,56.2 -249.22,114.15 -372.69,173.89 -123.32,59.7 -245.89,119.39 -367.61,182.61 -121.72,63.23 -242.55,126.46 -362.48,191.48 -119.98,64.96 -239.07,131.73 -357.26,200.18 -118.19,66.76 -235.53,137.01 -351.78,207.25 -116.44,70.25 -231.84,142.29 -346.5,216.02 -114.5,73.78 -227.96,149.3 -340.58,224.83 -112.76,75.52 -224.28,152.79 -334.9,231.85 -110.67,79 -220.44,158.06 -329.12,240.61 -108.54,80.75 -216.22,163.29 -322.81,247.62 -106.64,82.55 -212.33,168.58 -316.83,254.65 -104.5,86.08 -207.95,173.9 -310.36,261.67 -102.55,89.61 -203.92,179.18 -304.03,270.48 -100.27,91.36 -199.49,182.66 -297.52,277.5 -97.97,93.1 -194.9,187.94 -290.64,282.78 -95.74,96.58 -190.38,193.17 -283.82,291.54 -93.45,98.37 -185.8,196.7 -276.81,296.82 -91.15,100.11 -181.06,201.97 -269.73,303.83 -88.72,101.86 -176.19,205.46 -262.56,310.86 -86.28,103.65 -171.26,208.99 -255.05,316.13 -83.79,107.14 -166.33,214.28 -247.63,323.15 -81.3,108.88 -161.2,217.81 -239.91,328.43 -78.66,110.68 -156.13,223.04 -232.2,335.45 -76.02,112.42 -150.85,226.57 -224.28,340.73 -73.38,114.16 -145.42,230.11 -216.17,346 -70.79,117.65 -140.14,233.59 -207.95,353.03 -67.95,117.64 -134.71,237.07 -199.88,356.51 -65.17,119.43 -128.89,240.61 -191.27,361.78 -62.34,122.97 -123.12,245.89 -182.62,368.86 -59.39,122.92 -117.54,247.63 -174.04,372.34 -56.41,124.66 -111.57,251.11 -165.14,377.57 -53.57,126.45 -105.54,252.9 -156.12,381.15 -50.59,128.19 -99.57,258.13 -147.02,388.12 -47.39,129.94 -93.39,259.93 -137.85,389.91 -44.26,131.68 -87.13,263.41 -128.4,396.89 -41.27,131.73 -80.75,265.2 -118.88,398.67 -38.09,135.27 -74.48,268.74 -109.23,403.96 -34.8,135.26 -67.96,272.22 -99.57,407.49 -31.46,136.95 -61.33,273.96 -89.61,412.71 -28.08,137.01 -54.62,275.76 -79.56,414.51 -24.74,138.75 -47.94,279.24 -69.35,417.99 -21.46,140.49 -41.12,280.99 -59.04,423.27 -17.88,140.49 -34.21,282.73 -48.64,425.01 -14.39,142.24 -27.04,284.52 -38.09,428.55 -10.9,143.98 -20.01,286.26 -27.23,432.03 -7.37,144.03 -12.85,288.06 -16.53,433.83 -3.68,145.77 -5.63,291.54 -5.63,437.31 0,145.77 1.95,291.54 5.63,437.31 3.68,144.02 9.16,289.79 16.53,433.82 7.22,143.98 16.33,288 27.23,432.03 11.05,142.24 23.7,286.26 38.09,428.55 14.43,142.23 30.76,282.73 48.64,425.01 17.92,140.49 37.58,280.99 59.04,421.53 21.41,140.49 44.61,279.24 69.35,419.73 24.94,138.75 51.48,275.76 79.56,414.46 28.28,137.01 58.15,274.02 89.61,410.97 31.61,137.01 64.77,272.28 99.57,407.49 34.75,135.22 71.14,270.48 109.23,403.96 38.13,135.21 77.61,266.94 118.88,400.41 41.27,131.74 84.14,263.47 128.4,395.2 44.46,131.68 90.46,261.66 137.85,391.65 47.45,129.94 96.43,258.14 147.02,386.38 50.58,128.2 102.55,256.39 156.12,382.85 53.57,126.45 108.73,251.16 165.14,377.61 56.5,124.72 114.65,249.38 174.04,372.34 59.5,122.92 120.28,245.89 182.62,367.07 62.38,122.92 126.1,242.35 191.27,363.53 65.17,119.43 131.93,238.86 199.88,356.55 67.81,117.65 137.16,235.34 207.95,351.24 70.75,117.69 142.79,231.84 216.17,347.74 73.43,114.16 148.26,226.57 224.28,340.73 76.07,112.41 153.54,223.08 232.2,333.71 78.71,110.67 158.61,221.29 239.91,330.17 81.3,107.13 163.84,216.01 247.63,321.41 83.79,107.14 168.77,212.53 255.05,317.87 86.37,103.66 173.84,207.26 262.56,310.91 88.67,101.86 178.58,203.72 269.73,303.84 91.01,100.06 183.36,198.44 276.81,296.81 93.44,98.33 188.08,194.91 283.82,289.75 95.74,96.63 192.67,191.47 290.64,284.52 98.03,93.1 197.25,186.19 297.52,277.5 100.11,91.35 201.48,180.92 304.03,268.74 102.41,89.56 205.86,177.38 310.36,263.41 104.5,86.08 210.19,170.36 316.83,254.7 106.59,84.28 214.27,166.83 322.81,247.63 108.68,80.8 218.45,161.55 329.12,240.61 110.62,77.26 222.14,154.53 334.9,231.84 112.62,75.53 226.08,151 340.58,223.04 114.66,73.78 230.06,145.77 346.5,217.76 116.25,70.24 233.59,138.75 351.78,207.25 118.19,68.51 237.28,135.22 357.26,200.24 119.93,64.97 240.76,128.19 362.48,191.42 121.72,61.48 244.29,122.92 367.61,182.66 123.47,57.95 247.63,117.69 372.69,173.85 125.01,56.2 250.77,110.67 377.42,165.13 126.6,52.68 254.1,105.35 382.15,156.28 128.19,49.19 257.13,98.37 386.92,145.77 129.59,47.44 260.08,94.84 391.11,138.75 131.18,43.91 263.11,86.08 395.69,128.24 132.43,40.38 265.75,80.75 399.77,119.39 133.82,36.89 268.49,73.78 403.76,108.93 135.21,35.09 271.17,68.45 407.63,100.06 136.61,29.87 273.82,59.74 411.67,89.62 137.71,28.07 276.11,54.41 415.01,79 139.1,24.6 278.74,47.45 418.69,68.51 140.14,22.85 281.03,42.17 422.22,59.69 141.19,17.57 282.93,35.15 425.36,49.19 142.29,14.04 285.07,26.33 428.4,36.89 143.28,12.29 287.16,21.06 431.49,28.08 144.37,7.07 289.1,12.29 434.37,15.83 145.22,3.53 290.99,5.28 437.11,5.28 146.12,0 291.74,-1.75 436.96,-5.28 145.27,-3.54 290,-8.76 434.37,-15.83 144.33,-7.02 288.2,-15.79 431.49,-28.08 143.33,-10.56 286.11,-22.85 428.54,-36.89 142.29,-14.04 283.97,-31.62 425.36,-49.19 141.24,-17.52 281.88,-36.84 422.08,-59.69 140.14,-21.06 279.74,-43.91 418.69,-68.51 138.9,-24.59 277.3,-50.93 415.15,-79 137.91,-29.88 275.06,-59.75 411.52,-89.62 136.66,-31.61 272.43,-64.97 407.84,-100.06 135.22,-35.15 269.73,-72.04 403.75,-108.93 133.83,-38.64 267.15,-79.01 399.73,-119.39 132.62,-42.16 264.5,-84.33 395.54,-128.24 131.18,-43.91 261.66,-91.31 391.3,-138.75 129.59,-47.4 258.49,-96.58 386.73,-145.77 128.2,-50.93 255.55,-103.6 382.15,-156.28 126.65,-54.46 252.56,-108.93 377.62,-165.13 124.86,-56.16 249.22,-115.9 372.49,-173.85 123.46,-59.74 245.88,-121.18 367.61,-182.66 121.72,-63.23 242.55,-126.45 361.78,-191.42 121.18,-65.02 240.61,-131.73 358.3,-200.24 117.65,-68.5 235.34,-137.01 351.24,-207.25 115.94,-71.99 231.84,-143.98 346,-217.76 115.9,-72.04 228.31,-147.51 340.73,-223.04 114.15,-77.31 224.82,-154.58 335.45,-231.84 110.67,-79.06 221.29,-159.81 328.43,-240.61 108.87,-80.8 217.75,-163.35 323.15,-247.63 107.14,-84.34 212.53,-168.62 317.87,-254.7 103.66,-86.03 207.26,-173.85 309.12,-263.41 103.65,-87.82 203.77,-177.39 303.83,-268.74 101.86,-91.31 200.24,-184.4 298.61,-277.5 98.33,-93.05 194.91,-187.89 289.75,-284.52 96.63,-94.84 191.47,-191.42 284.52,-289.75 93.1,-98.37 186.19,-196.75 277.5,-296.81 89.56,-100.12 180.92,-201.98 268.74,-303.84 89.56,-103.65 175.64,-207.25 263.41,-310.91 86.08,-105.34 170.36,-210.73 254.7,-317.87 84.28,-105.4 166.83,-214.28 247.63,-321.41 80.8,-108.88 161.55,-219.5 238.86,-330.17 79.01,-110.63 156.28,-221.3 233.59,-333.71 75.53,-114.16 151.05,-226.57 223.04,-340.73 73.78,-115.9 145.77,-230.05 216.02,-347.74 71.98,-115.9 140.49,-233.59 208.99,-351.24 68.51,-117.69 133.48,-237.12 200.24,-356.55 64.97,-121.18 128.19,-240.61 189.68,-363.53 63.22,-121.18 124.71,-244.15 182.66,-367.07 59.69,-122.96 117.64,-247.62 175.59,-372.34 56.2,-126.45 110.67,-251.16 165.13,-377.61 52.68,-126.46 105.35,-254.65 154.54,-382.85 50.93,-128.24 100.11,-256.44 147.51,-386.38 47.44,-129.99 93.09,-259.97 138.75,-391.65 43.91,-131.73 86.08,-263.46 128.24,-395.2 40.38,-133.47 80.75,-265.2 117.64,-400.41 38.64,-133.48 75.53,-268.74 110.68,-403.96 35.09,-135.21 66.71,-270.48 98.32,-407.49 31.61,-136.95 61.48,-273.96 89.56,-410.97 28.13,-138.7 56.21,-275.71 80.8,-414.46 24.6,-140.49 47.45,-279.24 68.51,-419.73 21.06,-140.54 42.17,-281.04 59.69,-421.53 17.57,-142.28 33.41,-282.78 47.44,-425.01 15.79,-142.29 28.08,-286.31 38.64,-428.55 10.55,-144.03 21.06,-288.05 28.13,-432.03 7.02,-144.03 12.24,-289.8 15.78,-433.82 3.53,-145.77 5.28,-291.54 5.28,-437.31 0,-145.77 -1.75,-291.54 -5.28,-437.31 -3.54,-145.77 -8.76,-289.8 -15.78,-433.83 -7.07,-145.77 -17.58,-288.05 -28.13,-432.03 -10.56,-144.03 -22.85,-286.31 -38.64,-428.55 -14.03,-142.28 -29.87,-284.52 -47.44,-425.01 -17.52,-142.28 -38.63,-282.78 -59.69,-423.27 -21.06,-138.75 -43.91,-279.24 -68.51,-417.99 -24.59,-138.75 -52.67,-277.5 -80.8,-414.51 -28.08,-138.75 -57.95,-275.76 -89.56,-412.71 -31.61,-135.27 -63.23,-272.23 -98.32,-407.49 -35.15,-135.22 -72.04,-268.69 -110.68,-403.96 -36.89,-133.47 -77.26,-266.94 -117.64,-398.67 -42.16,-133.48 -84.33,-265.21 -128.24,-396.89 -45.66,-129.98 -91.31,-259.97 -138.75,-389.91 -47.4,-129.99 -96.58,-259.93 -147.51,-388.12 -49.19,-128.25 -101.86,-254.7 -154.54,-381.15 -54.46,-126.46 -108.93,-252.91 -165.13,-377.57 -57.95,-124.71 -115.9,-249.42 -175.59,-372.34 -57.95,-122.97 -119.44,-245.89 -182.66,-368.86 -61.49,-121.17 -124.71,-242.35 -189.68,-361.78 -66.76,-119.44 -131.73,-238.87 -200.24,-356.51 -68.5,-119.44 -137.01,-235.38 -208.99,-353.03 -70.25,-115.89 -142.24,-231.84 -216.02,-346 -71.99,-114.16 -147.51,-228.31 -223.04,-340.73 -77.31,-112.41 -154.58,-224.77 -233.59,-335.45 -77.31,-110.62 -158.06,-219.55 -238.86,-328.43 -80.8,-108.87 -163.35,-216.01 -247.63,-323.15 -84.34,-107.14 -168.62,-212.48 -254.7,-316.13 -87.77,-105.4 -173.85,-209 -263.41,-310.86 -87.82,-101.86 -179.18,-203.72 -268.74,-303.83 -91.31,-100.12 -184.4,-198.45 -277.5,-296.82 -93.05,-98.37 -187.89,-194.96 -284.52,-291.54 -94.84,-94.84 -191.42,-189.68 -289.75,-282.78 -98.37,-94.84 -196.75,-186.14 -298.61,-277.5 -100.06,-91.3 -200.18,-180.87 -303.83,-270.48 -101.86,-87.77 -205.46,-175.59 -309.12,-261.67 -105.34,-86.07 -210.73,-172.1 -317.87,-254.65 -105.4,-84.33 -214.28,-166.87 -323.15,-247.62 -107.14,-82.55 -217.76,-161.61 -328.43,-240.61 -110.63,-79.06 -221.3,-156.33 -335.45,-231.85 -112.42,-75.53 -224.83,-151.05 -340.73,-224.83 -114.16,-73.73 -230.06,-145.77 -346,-216.02 -115.9,-70.24 -233.59,-140.49 -351.24,-207.25 -117.69,-68.45 -237.12,-135.22 -358.3,-200.18 -119.23,-65.02 -240.06,-128.25 -361.78,-191.48 -121.73,-63.22 -244.15,-122.91 -367.61,-182.61 -123.27,-59.74 -247.63,-117.69 -372.49,-173.89 -125.06,-56.21 -250.97,-112.42 -377.62,-165.09 -126.6,-54.47 -253.95,-105.4 -382.15,-156.33 -128.24,-50.93 -257.14,-100.11 -386.73,-147.51 -129.64,-47.44 -260.12,-93.09 -391.3,-137.01 -131.04,-43.91 -262.92,-87.82 -395.54,-128.19 -132.58,-42.17 -265.9,-80.8 -399.73,-119.43 -134.02,-38.64 -268.53,-73.79 -403.75,-108.88 -135.41,-35.15 -271.18,-68.51 -407.84,-100.12 -136.46,-31.61 -273.61,-61.48 -411.52,-89.56 -137.85,-28.13 -276.25,-54.47 -415.15,-79.06 -138.95,-24.6 -278.55,-49.14 -418.69,-70.25 -140.2,-21.06 -280.84,-40.37 -422.08,-57.95 -141.39,-19.31 -283.07,-35.1 -425.36,-49.18 -142.43,-14.04 -285.21,-26.34 -428.54,-38.64 -143.29,-10.5 -287.16,-19.31 -431.49,-26.33 -144.37,-7.02 -289.1,-12.3 -434.37,-17.58 -145.22,-3.48 -290.84,-5.28 -436.96,-5.28l0 0 0 0 0 0 0 0 0 0 0 0 0 0 0 0 0 0 0 0 0 0 0 0 0 0 0 0 0 0 0 0 0 0 0 0 0 0 0 0 0 0 0 0 0 0 0 0 0 0 0 0 0 0 0 0 0 0 0 0 0 0 0 0 0 0 0 0 0 0 0 0 0 0 0 0 0 0 0 0 0 0 0 0 0 0 0 0 0 0 0 0 0 0 0 0 0 0 0 0 0 0 0 0 0 0 0 0 0 0 0 0 0 0 0 0 0 0 0 0 0 0 0 0 0 0 0 0zm0 2112.87c127.7,0 255.05,1.74 381.85,5.23 126.95,3.53 253.4,7.07 379.71,14.09 126.1,7.02 251.66,14.04 377.07,24.59 125.2,8.76 250.06,19.32 374.43,33.36 124.51,12.29 248.32,26.33 371.99,42.11 123.46,15.83 246.38,33.41 369,52.73 122.42,17.57 244.45,38.63 366.02,59.69 121.52,21.11 242.5,45.65 363.03,70.24 120.48,24.6 240.41,50.93 359.84,77.32 119.44,28.08 238.32,57.95 356.51,87.77 118.39,31.61 236.08,63.23 353.23,96.63 117.14,33.36 233.74,66.71 349.63,103.6 115.95,36.89 231.35,73.79 346.01,112.42 114.7,38.63 228.86,79.01 342.32,121.17 113.46,42.17 226.22,84.29 338.24,128.2 112.26,45.7 223.78,91.35 334.4,137.01 110.82,47.44 220.94,94.84 330.37,145.77 109.43,49.18 218.11,100.11 325.99,151.04 107.98,52.68 215.32,107.14 321.71,161.61 106.64,54.41 212.38,110.62 317.23,166.82 105,57.95 209.34,115.9 312.8,175.64 103.4,59.7 206.01,119.44 307.87,180.87 101.86,63.23 203.02,126.46 303.63,189.68 100.12,65.02 198.49,129.99 298.61,196.7 98.33,66.76 194.91,135.27 291.54,203.77 98.33,68.45 193.17,138.75 288.01,210.74 96.58,70.25 189.68,142.23 282.77,216.02 94.84,73.78 186.15,147.51 277.5,223.03 91.31,77.32 182.66,152.84 272.23,230.11 89.56,79 179.12,156.32 266.94,237.07 87.82,79.06 173.9,159.86 259.93,242.4 86.08,82.55 170.36,165.09 254.65,247.63 84.33,84.29 166.88,170.37 247.68,254.65 82.54,86.08 163.29,173.9 244.09,261.67 79.06,87.82 158.07,175.64 235.33,265.2 77.32,89.62 154.59,180.92 230.11,272.23 75.52,91.35 149.25,184.45 223.03,277.5 73.79,93.09 145.77,187.93 217.81,282.77 70.25,94.84 140.5,191.43 209,288.06 70.25,96.58 136.96,194.91 203.72,293.28 66.71,98.38 131.73,198.44 196.7,298.56 64.97,100.12 128.19,200.23 189.68,302.09 61.48,101.86 122.92,205.51 182.66,309.12 59.69,103.6 117.64,207.25 173.85,312.6 58,103.65 114.15,210.78 168.62,316.13 54.46,107.14 107.13,214.27 159.81,321.41 52.72,108.88 103.65,217.81 152.79,326.69 49.18,108.88 96.63,219.55 144.02,330.17 47.45,110.67 93.1,223.03 137.01,335.45 43.91,110.67 87.82,224.83 129.94,337.19 40.42,114.21 80.8,228.36 119.43,342.52 38.63,114.16 77.32,230.05 112.42,345.95 36.89,115.95 72.03,233.59 105.39,349.54 33.36,117.64 64.97,235.33 94.84,352.98 31.61,119.43 59.69,237.12 87.82,356.55 28.08,119.44 54.42,240.61 79.01,360.05 24.59,121.17 47.44,242.35 68.5,363.53 22.85,121.17 42.17,244.14 61.49,365.32 19.31,122.96 36.89,245.88 50.93,368.8 15.78,124.71 31.61,247.68 43.91,372.34 12.29,124.71 22.8,249.42 33.35,374.08 8.76,126.46 17.58,251.17 22.85,377.62 7.02,126.46 12.3,252.91 15.79,379.36 3.53,128.2 3.53,254.65 3.53,382.9 0,126.45 0,254.65 -3.53,381.1 -3.49,128.19 -8.77,254.65 -15.79,379.36 -5.27,126.45 -14.09,252.9 -22.85,377.62 -10.55,124.66 -21.06,251.11 -33.35,374.08 -12.3,124.71 -28.13,249.37 -43.91,372.34 -14.04,124.71 -31.62,247.63 -50.93,368.8 -19.32,122.97 -38.64,244.15 -61.49,367.07 -21.06,121.17 -43.91,242.4 -68.5,361.78 -24.59,121.23 -50.93,240.61 -79.01,360.05 -28.13,119.43 -56.21,238.86 -87.82,356.55 -29.87,119.44 -61.48,237.08 -94.84,353.03 -33.36,117.64 -68.5,233.59 -105.39,349.49 -35.1,115.9 -73.79,231.84 -112.42,347.74 -38.63,114.16 -79.01,228.32 -119.43,340.73 -42.12,114.16 -86.03,226.57 -129.94,338.93 -43.91,112.42 -89.56,223.09 -137.01,333.71 -47.39,110.67 -94.84,221.29 -144.02,330.17 -49.14,110.68 -100.07,219.55 -152.79,326.69 -52.68,108.88 -105.35,216.02 -159.81,321.41 -54.47,107.14 -110.62,212.48 -168.62,317.88 -56.21,105.39 -114.16,208.99 -173.85,312.65 -59.74,103.6 -121.18,205.46 -182.66,307.32 -61.49,101.86 -124.71,203.72 -189.68,303.83 -64.97,100.12 -129.99,200.24 -196.7,298.56 -66.76,98.38 -133.47,196.75 -203.72,293.33 -68.5,96.59 -138.75,191.43 -209,288.01 -72.04,94.84 -144.02,189.68 -217.81,282.78 -73.78,93.09 -147.51,184.4 -223.03,277.5 -75.52,91.3 -152.79,180.91 -230.11,270.48 -77.26,89.56 -156.27,179.12 -235.33,266.94 -80.8,87.82 -161.55,173.9 -244.09,259.93 -80.8,86.08 -163.35,170.36 -247.68,254.65 -84.29,84.33 -168.57,166.88 -254.65,249.42 -86.03,80.8 -172.11,161.55 -259.93,242.35 -87.82,79.06 -177.38,158.07 -266.94,235.33 -89.57,79.06 -180.92,154.59 -272.23,230.11 -91.35,75.52 -182.66,151.05 -277.5,223.03 -93.09,73.79 -186.19,145.77 -282.77,217.81 -94.84,70.25 -189.68,140.5 -288.01,210.74 -96.63,68.51 -193.21,135.22 -291.54,201.98 -100.12,66.71 -198.49,133.47 -298.61,196.7 -100.61,64.97 -201.77,128.19 -303.63,189.68 -101.86,61.48 -204.47,122.92 -307.87,182.66 -103.46,59.69 -207.8,117.64 -312.8,175.64 -104.85,56.16 -210.59,112.36 -317.23,166.83 -106.39,54.46 -213.73,107.13 -321.71,159.81 -107.88,52.72 -216.56,103.65 -325.99,152.79 -109.43,49.18 -219.55,98.37 -330.37,144.02 -110.62,47.45 -222.14,93.1 -334.4,137.01 -112.02,45.65 -224.78,87.82 -338.24,129.94 -113.46,40.42 -227.62,80.8 -342.32,119.43 -114.66,40.43 -230.06,77.32 -346.01,114.16 -115.89,35.15 -232.49,70.24 -349.63,103.65 -117.15,33.36 -234.84,64.97 -353.23,94.84 -118.19,31.61 -237.07,59.69 -356.51,87.82 -119.43,28.08 -239.36,54.42 -359.84,79.01 -120.53,24.59 -241.51,47.44 -363.03,70.25 -121.57,21.1 -243.6,40.42 -366.02,59.74 -122.62,19.31 -245.54,36.89 -369,52.67 -123.67,15.83 -247.48,29.87 -371.99,42.17 -124.37,12.29 -249.23,24.59 -374.43,33.35 -125.41,8.76 -250.97,17.58 -377.07,24.6 -126.31,5.27 -252.76,10.55 -379.71,14.04 -126.8,3.53 -254.15,5.27 -381.85,5.27 -127.65,0 -255,-1.74 -382,-5.27 -126.95,-3.49 -253.4,-8.77 -379.51,-14.04 -126.3,-7.02 -251.86,-15.84 -377.27,-24.6 -125.21,-8.76 -250.07,-21.06 -374.43,-33.35 -124.51,-12.3 -248.33,-26.34 -371.79,-42.17 -123.67,-15.78 -246.59,-33.36 -369.2,-52.67 -122.43,-19.32 -244.45,-38.64 -366.02,-59.74 -121.53,-22.81 -242.55,-45.66 -363.03,-70.25 -120.48,-24.59 -240.41,-50.93 -359.85,-79.01 -119.43,-28.13 -238.32,-56.21 -356.51,-87.82 -118.38,-29.87 -236.07,-61.48 -353.22,-94.84 -117.14,-33.41 -233.74,-68.5 -349.69,-103.65 -115.9,-36.84 -231.3,-73.73 -345.95,-114.16 -114.7,-38.63 -228.86,-79.01 -342.32,-119.43 -113.46,-42.12 -226.22,-84.29 -338.44,-129.94 -112.06,-43.91 -223.58,-89.56 -334.4,-137.01 -110.62,-45.65 -220.75,-94.84 -330.17,-144.02 -109.43,-49.14 -218.16,-100.07 -326.14,-152.79 -107.84,-52.68 -215.17,-105.35 -321.61,-159.81 -106.59,-54.47 -212.33,-110.67 -317.33,-166.83 -104.85,-58 -209.2,-115.95 -312.65,-175.64 -103.45,-59.74 -206.01,-121.18 -308.02,-182.66 -101.71,-61.49 -202.87,-124.71 -303.14,-189.68 -100.11,-63.23 -199.53,-129.99 -298.26,-196.7 -98.52,-66.76 -196.15,-133.47 -293.08,-201.98 -96.98,-70.24 -192.87,-140.49 -288.05,-210.74 -95.19,-72.04 -189.34,-144.02 -282.78,-217.81 -93.25,-71.98 -185.8,-147.51 -277.3,-223.03 -91.51,-75.52 -182.12,-151.05 -271.88,-230.11 -89.56,-77.26 -178.43,-156.27 -266.1,-235.33 -87.77,-80.8 -174.54,-161.55 -260.42,-242.35 -85.88,-82.54 -170.71,-165.09 -254.7,-249.42 -83.74,-84.29 -166.63,-168.57 -248.48,-254.65 -81.84,-86.03 -162.64,-172.11 -242.55,-259.93 -79.75,-87.82 -158.61,-177.38 -236.22,-266.94 -77.62,-89.57 -154.39,-179.18 -229.91,-270.48 -75.67,-93.1 -150.15,-184.41 -223.58,-277.5 -73.39,-93.1 -145.57,-187.94 -216.92,-282.78 -71.09,-96.58 -141.19,-191.42 -210.04,-288.01 -69,-96.58 -136.81,-194.95 -203.57,-293.33 -66.56,-98.32 -132.03,-198.44 -196.35,-298.56 -64.42,-100.11 -127.5,-201.97 -189.48,-303.83 -61.98,-101.86 -122.77,-203.72 -182.31,-307.32 -59.54,-103.66 -117.84,-207.26 -174.95,-312.65 -57.05,-105.4 -113.06,-210.74 -167.72,-317.88 -54.61,-105.39 -107.83,-212.53 -159.96,-321.41 -52.17,-107.14 -102.95,-216.01 -152.49,-326.69 -49.49,-108.88 -97.78,-219.5 -144.67,-330.17 -47.1,-110.62 -92.6,-221.29 -137.01,-333.71 -44.26,-112.36 -87.12,-224.77 -128.74,-338.93 -41.62,-112.41 -82,-226.57 -120.83,-340.73 -38.98,-115.9 -76.42,-231.84 -112.57,-347.74 -36.19,-115.9 -70.99,-231.85 -104.34,-349.49 -33.36,-115.95 -65.17,-233.59 -95.69,-353.03 -30.57,-117.69 -59.54,-237.12 -87.32,-356.55 -27.58,-119.44 -53.72,-238.82 -78.51,-360.05 -24.75,-119.38 -47.95,-240.61 -69.7,-361.78 -21.81,-122.92 -41.97,-244.1 -60.79,-367.07 -18.77,-121.17 -36.19,-244.09 -51.83,-368.8 -15.78,-122.97 -30.02,-247.63 -42.66,-372.34 -12.65,-122.97 -23.9,-249.42 -33.36,-374.08 -9.51,-124.72 -17.57,-251.17 -23.89,-377.62 -6.48,-124.71 -11.4,-251.17 -14.59,-379.36 -3.14,-126.45 -4.88,-254.65 -4.88,-381.1 0,-128.25 1.74,-254.7 4.88,-382.9 3.19,-126.45 8.11,-252.9 14.59,-379.36 6.32,-126.45 14.38,-251.16 23.89,-377.62 9.46,-124.66 20.71,-249.37 33.36,-374.08 12.64,-124.66 26.88,-247.63 42.66,-372.34 15.64,-122.92 33.06,-245.84 51.83,-368.8 18.82,-121.18 38.98,-244.15 60.79,-365.32 21.75,-121.18 44.95,-242.36 69.7,-363.53 24.79,-119.44 50.93,-240.61 78.51,-360.05 27.78,-119.43 56.75,-237.12 87.32,-356.55 30.52,-117.65 62.33,-235.34 95.69,-352.98 33.35,-115.95 68.15,-233.59 104.34,-349.54 36.15,-115.9 73.59,-231.79 112.57,-345.95 38.83,-114.16 79.21,-228.31 120.83,-342.52 41.62,-112.36 84.48,-226.52 128.74,-337.19 44.41,-112.42 89.91,-224.78 137.01,-335.45 46.89,-110.62 95.18,-221.29 144.67,-330.17 49.54,-108.88 100.32,-217.81 152.49,-326.69 52.13,-107.14 105.35,-214.27 159.96,-321.41 54.66,-105.35 110.67,-212.48 167.72,-316.13 57.11,-105.35 115.41,-209 174.95,-312.6 59.54,-103.61 120.33,-207.26 182.31,-309.12 61.98,-101.86 125.06,-201.97 189.48,-302.09 64.32,-100.12 129.79,-200.18 196.35,-298.56 66.76,-98.37 134.57,-196.7 203.57,-293.28 68.85,-96.63 138.95,-193.22 210.04,-288.06 71.35,-94.84 143.53,-189.68 216.92,-282.77 73.43,-93.05 147.91,-186.15 223.58,-277.5 75.52,-91.31 152.29,-182.61 229.91,-272.23 77.61,-89.56 156.47,-177.38 236.22,-265.2 79.91,-87.77 160.71,-175.59 242.55,-261.67 81.85,-84.28 164.74,-170.36 248.48,-254.65 83.99,-82.54 168.82,-165.08 254.7,-247.63 85.88,-82.54 172.65,-163.34 260.42,-242.4 87.67,-80.75 176.54,-158.07 266.1,-237.07 89.76,-77.27 180.37,-152.79 271.88,-230.11 91.5,-75.52 184.05,-149.25 277.3,-223.03 93.44,-73.79 187.59,-145.77 282.78,-216.02 95.18,-71.99 191.07,-142.29 288.05,-210.74 96.93,-68.5 194.56,-137.01 293.08,-203.77 98.73,-66.71 198.15,-131.68 298.26,-196.7 100.27,-63.22 201.43,-126.45 303.14,-189.68 102.01,-61.43 204.57,-121.17 308.02,-180.87 103.45,-59.74 207.8,-117.69 312.65,-175.64 105,-56.2 210.74,-112.41 317.33,-166.82 106.44,-54.47 213.77,-108.93 321.61,-161.61 107.98,-50.93 216.71,-101.86 326.14,-151.04 109.42,-50.93 219.55,-98.33 330.17,-145.77 110.82,-45.66 222.34,-91.31 334.4,-137.01 112.22,-43.91 224.98,-86.03 338.44,-128.2 113.46,-42.16 227.62,-82.54 342.32,-121.17 114.65,-38.63 230.05,-75.53 345.95,-112.42 115.95,-36.89 232.55,-70.24 349.69,-103.6 117.15,-33.4 234.84,-65.02 353.22,-96.63 118.19,-29.82 237.08,-59.69 356.51,-87.77 119.44,-26.39 239.37,-52.72 359.85,-77.32 120.48,-24.59 241.5,-49.13 363.03,-70.24 121.57,-21.06 243.59,-42.12 366.02,-59.69 122.61,-19.32 245.53,-36.9 369.2,-52.73 123.46,-15.78 247.28,-29.82 371.79,-42.11 124.36,-14.04 249.22,-24.6 374.43,-33.36 125.41,-10.55 250.97,-17.57 377.27,-24.59 126.11,-7.02 252.56,-10.56 379.51,-14.09 127,-3.49 254.35,-5.23 382,-5.23z"/>
  <polygon fill="black" fill-rule="nonzero" points="15406.23,22830.08 12387.34,22830.08 12387.34,11036.58 15406.23,11036.58 15406.23,11220.98 15406.23,11405.38 15406.23,11589.78 15406.23,11774.24 15406.23,11958.64 15406.23,12143.04 15406.23,12327.44 15406.23,12511.85 15406.23,12696.25 15406.23,12880.7 15406.23,13063.36 15406.23,13247.77 15406.23,13432.17 15406.23,13616.57 15406.23,13800.97 15406.23,13985.38 15406.23,14169.83 15406.23,14354.23 15406.23,14538.63 15406.23,14723.04 15406.23,14907.44 15406.23,15091.84 15406.23,15276.29 15406.23,15458.91 15406.23,15643.36 15406.23,15827.76 15406.23,16012.16 15406.23,16196.57 15406.23,16380.97 15406.23,16565.37 15406.23,16749.82 15406.23,16934.23 15406.23,17118.63 15406.23,17303.03 15406.23,17487.43 15406.23,17670.09 15406.23,17854.5 15406.23,18038.9 15406.23,18223.35 15406.23,18407.75 15406.23,18592.16 15406.23,18776.56 15406.23,18960.96 15406.23,19145.37 15406.23,19329.82 15406.23,19514.22 15406.23,19698.62 15406.23,19883.03 15406.23,20067.43 15406.23,20250.09 15406.23,20434.49 15406.23,20618.94 15406.23,20803.35 15406.23,20987.75 15406.23,21172.15 15406.23,21356.56 15406.23,21540.96 15406.23,21725.41 15406.23,21909.81 15406.23,22094.22 15406.23,22276.88 15406.23,22461.28 15406.23,22645.68 "/>
  <polygon fill="black" fill-rule="nonzero" points="21479.87,22831.88 18460.28,22831.88 18460.28,11036.58 21479.87,11036.58 21479.87,11220.98 21479.87,11403.64 21479.87,11588.04 21479.87,11772.44 21479.87,11956.9 21479.87,12141.3 21479.87,12325.7 21479.87,12510.1 21479.87,12694.51 21479.87,12878.91 21479.87,13063.36 21479.87,13247.77 21479.87,13432.17 21479.87,13616.57 21479.87,13800.97 21479.87,13985.38 21479.87,14169.83 21479.87,14354.23 21479.87,14538.63 21479.87,14721.29 21479.87,14905.7 21479.87,15090.1 21479.87,15274.5 21479.87,15458.91 21479.87,15643.36 21479.87,15827.76 21479.87,16012.16 21479.87,16196.57 21479.87,16380.97 21479.87,16565.37 21479.87,16749.82 21479.87,16934.23 21479.87,17118.63 21479.87,17303.03 21479.87,17487.43 21479.87,17671.84 21479.87,17856.29 21479.87,18038.9 21479.87,18223.35 21479.87,18407.75 21479.87,18592.16 21479.87,18776.56 21479.87,18960.96 21479.87,19145.37 21479.87,19329.82 21479.87,19514.22 21479.87,19698.62 21479.87,19883.03 21479.87,20067.43 21479.87,20251.83 21479.87,20436.28 21479.87,20620.69 21479.87,20805.09 21479.87,20989.49 21479.87,21173.89 21479.87,21358.3 21479.87,21542.75 21479.87,21725.41 21479.87,21909.81 21479.87,22094.22 21479.87,22278.62 21479.87,22463.02 21479.87,22647.42 "/>
 </g>
</svg>
