<?xml version="1.0" encoding="UTF-8"?>
<!DOCTYPE svg PUBLIC "-//W3C//DTD SVG 1.1//EN" "http://www.w3.org/Graphics/SVG/1.1/DTD/svg11.dtd">
<!-- Creator: CorelDRAW 2026 -->
<svg xmlns="http://www.w3.org/2000/svg" xml:space="preserve" width="338.667mm" height="338.667mm" version="1.1" shape-rendering="geometricPrecision" text-rendering="geometricPrecision" image-rendering="optimizeQuality" fill-rule="evenodd" clip-rule="evenodd"
viewBox="0 0 33866.66 33866.66"
 xmlns:xlink="http://www.w3.org/1999/xlink"
 xmlns:xodm="http://www.corel.com/coreldraw/odm/2003">
 <g id="Camada_x0020_1">
  <metadata id="CorelCorpID_0Corel-Layer"/>
  <path fill="black" fill-rule="nonzero" d="M16933.5 -0.01c-146.12,0 -291.88,1.8 -437.16,5.28 -145.22,5.28 -289.94,10.56 -434.31,17.58 -144.38,7.02 -288.2,15.83 -431.53,26.33 -143.28,12.3 -286.06,24.6 -428.35,38.64 -142.43,14.08 -284.16,29.87 -425.35,49.18 -141.39,17.58 -282.08,36.89 -422.22,57.95 -140.15,21.11 -279.59,45.65 -418.69,70.25 -138.95,24.59 -277.3,50.93 -415.2,79.06 -137.7,28.08 -274.86,57.95 -411.47,89.56 -136.45,31.61 -272.41,64.97 -407.83,100.12 -135.21,35.09 -269.78,70.24 -403.75,108.88 -133.82,38.63 -267.14,77.26 -399.72,119.43 -132.62,40.37 -264.35,84.28 -395.53,128.19 -131.18,43.92 -261.52,89.57 -391.31,137.01 -129.58,47.4 -258.52,96.58 -386.72,147.51 -128.19,50.93 -255.54,101.86 -382.14,156.33 -126.65,52.67 -252.56,108.88 -377.62,165.09 -124.86,56.2 -249.22,114.15 -372.53,173.89 -123.47,59.7 -245.89,119.39 -367.56,182.61 -121.72,63.23 -242.55,126.46 -362.53,191.48 -120.13,64.96 -239.16,131.73 -357.4,200.18 -118.19,66.76 -235.33,137.01 -351.77,207.25 -116.45,70.25 -231.8,142.29 -346.35,216.02 -114.51,73.78 -228.11,149.3 -340.68,224.83 -112.61,75.52 -224.27,152.79 -334.94,231.85 -110.63,79 -220.25,158.06 -328.93,240.61 -108.73,80.75 -216.41,163.29 -323,247.62 -106.59,82.55 -212.18,168.58 -316.68,254.65 -104.64,86.08 -208.09,173.9 -310.5,261.67 -102.36,89.61 -203.72,179.18 -303.98,270.48 -100.32,91.36 -199.34,182.66 -297.36,277.5 -97.98,93.1 -194.96,187.94 -290.64,282.78 -95.89,96.58 -190.38,193.17 -283.82,291.54 -93.45,98.37 -185.85,196.7 -277,296.82 -90.96,100.11 -180.87,201.97 -269.74,303.83 -88.71,101.86 -176.18,205.46 -262.41,310.86 -86.22,103.65 -171.41,208.99 -255.19,316.13 -83.74,107.14 -166.28,214.28 -247.43,323.15 -81.35,108.88 -161.25,217.81 -240.11,328.43 -78.66,110.68 -155.92,223.04 -231.99,335.45 -76.22,112.42 -150.85,226.57 -224.28,340.73 -73.38,114.16 -145.57,230.11 -216.21,346 -70.75,117.65 -140.15,233.59 -208.1,353.03 -67.96,117.64 -134.52,237.07 -199.69,356.51 -65.16,119.43 -128.89,240.61 -191.27,361.78 -62.33,122.97 -123.26,245.89 -182.66,368.86 -59.54,122.92 -117.49,247.63 -174.04,372.34 -56.36,124.66 -111.52,251.11 -165.09,377.57 -53.56,126.45 -105.54,252.9 -156.12,381.15 -50.58,128.19 -99.57,258.13 -147.01,388.12 -47.4,129.94 -93.45,259.93 -137.86,389.91 -44.25,131.68 -87.12,263.41 -128.39,396.89 -41.27,131.73 -80.8,265.2 -118.88,398.67 -38.14,135.27 -74.48,268.74 -109.23,403.96 -34.8,135.26 -68.01,272.22 -99.62,407.49 -31.41,136.95 -61.28,273.96 -89.56,412.71 -28.08,137.01 -54.61,275.76 -79.56,414.51 -24.74,138.75 -47.94,279.24 -69.34,417.99 -21.46,140.49 -41.13,280.99 -59.05,423.27 -17.92,140.49 -34.05,282.73 -48.64,425.01 -14.39,142.24 -27.03,284.52 -37.93,428.55 -10.91,143.98 -20.02,286.26 -27.39,432.03 -7.36,144.03 -12.84,288.06 -16.52,433.83 -3.69,145.77 -5.63,291.54 -5.63,437.31 0,145.77 1.94,291.54 5.63,437.31 3.68,144.02 9.16,289.79 16.52,433.82 7.37,143.98 16.48,288 27.39,432.03 10.9,142.24 23.54,286.26 37.93,428.55 14.59,142.23 30.72,282.73 48.64,425.01 17.92,140.49 37.59,280.99 59.05,421.53 21.4,140.49 44.6,279.24 69.34,419.73 24.95,138.75 51.48,275.76 79.56,414.46 28.28,137.01 58.15,274.02 89.56,410.97 31.61,137.01 64.82,272.28 99.62,407.49 34.75,135.22 71.09,270.48 109.23,403.96 38.08,135.21 77.61,266.94 118.88,400.41 41.27,131.74 84.14,263.47 128.39,395.2 44.41,131.68 90.46,261.66 137.86,391.65 47.44,129.94 96.43,258.14 147.01,386.38 50.58,128.2 102.56,256.39 156.12,382.85 53.57,126.45 108.73,251.16 165.09,377.61 56.55,124.72 114.5,249.38 174.04,372.34 59.4,122.92 120.33,245.89 182.66,367.07 62.38,122.92 126.11,242.35 191.27,363.53 65.17,119.43 131.73,238.86 199.69,356.55 67.95,117.65 137.35,235.34 208.1,351.24 70.64,117.69 142.83,231.84 216.21,347.74 73.43,114.16 148.06,226.57 224.28,340.73 76.07,112.41 153.33,223.08 231.99,333.71 78.86,110.67 158.76,221.29 240.11,330.17 81.15,107.13 163.69,216.01 247.43,321.41 83.78,107.14 168.97,212.53 255.19,317.87 86.23,103.66 173.7,207.26 262.41,310.91 88.87,101.86 178.78,203.72 269.74,303.84 91.15,100.06 183.55,198.44 277,296.81 93.44,98.33 187.93,194.91 283.82,289.75 95.68,96.63 192.66,191.47 290.64,284.52 98.02,93.1 197.04,186.19 297.36,277.5 100.26,91.35 201.62,180.92 303.98,268.74 102.41,89.56 205.86,177.38 310.5,263.41 104.5,86.08 210.09,170.36 316.68,254.7 106.59,84.28 214.27,166.83 323,247.63 108.68,80.8 218.3,161.55 328.93,240.61 110.67,77.26 222.33,154.53 334.94,231.84 112.57,75.53 226.17,151 340.68,223.04 114.55,73.78 229.9,145.77 346.35,217.76 116.44,70.24 233.58,138.75 351.77,207.25 118.24,68.51 237.27,135.22 357.4,200.24 119.98,64.97 240.81,128.19 362.53,191.42 121.67,61.48 244.09,122.92 367.56,182.66 123.31,57.95 247.67,117.69 372.53,173.85 125.06,56.2 250.97,110.67 377.62,165.13 126.6,52.68 253.95,105.35 382.14,156.28 128.2,49.19 257.14,98.37 386.72,145.77 129.79,47.44 260.13,94.84 391.31,138.75 131.18,43.91 262.91,86.08 395.53,128.24 132.58,40.38 265.9,80.75 399.72,119.39 133.97,36.89 268.54,73.78 403.75,108.93 135.42,35.09 271.38,68.45 407.83,100.06 136.61,29.87 273.77,59.74 411.47,89.62 137.9,28.07 276.25,54.41 415.2,79 139.1,24.6 278.54,47.45 418.69,68.51 140.14,22.85 280.83,42.17 422.22,59.69 141.19,17.57 282.92,35.15 425.35,49.19 142.29,14.04 285.07,26.33 428.35,36.89 143.33,12.29 287.15,21.06 431.53,28.08 144.37,7.07 289.09,12.29 434.31,15.83 145.28,3.53 291.04,5.28 437.16,5.28 146.12,0 291.74,-1.75 436.96,-5.28 145.27,-3.54 290.14,-8.76 434.31,-15.83 144.38,-7.02 288.2,-15.79 431.53,-28.08 143.33,-10.56 286.11,-22.85 428.55,-36.89 142.23,-14.04 283.97,-31.62 425.35,-49.19 141.19,-17.52 281.88,-36.84 422.02,-59.69 140.2,-21.06 279.64,-43.91 418.74,-68.51 138.9,-24.59 277.3,-50.93 415.15,-79 137.7,-29.88 274.86,-59.75 411.52,-89.62 136.45,-31.61 272.37,-64.97 407.63,-100.06 135.41,-35.15 269.93,-72.04 403.95,-108.93 133.82,-38.64 267.09,-79.01 399.72,-119.39 132.42,-42.16 264.3,-84.33 395.48,-128.24 131.23,-43.91 261.52,-91.31 391.31,-138.75 129.63,-47.4 258.53,-96.58 386.77,-145.77 128.19,-50.93 255.49,-103.6 382.14,-156.28 126.61,-54.46 252.36,-108.93 377.42,-165.13 125.06,-56.16 249.22,-115.9 372.68,-173.85 123.32,-59.74 245.89,-121.18 367.61,-182.66 121.72,-63.23 242.55,-126.45 362.48,-191.42 119.98,-65.02 239.01,-131.73 357.25,-200.24 118.19,-68.5 235.48,-137.01 351.93,-207.25 116.29,-71.99 231.84,-143.98 346.34,-217.76 114.51,-72.04 227.97,-147.51 340.73,-223.04 112.56,-77.31 224.08,-154.58 334.75,-231.84 110.82,-79.06 220.39,-159.81 329.12,-240.61 108.53,-80.8 216.21,-163.35 322.8,-247.63 106.59,-84.34 212.33,-168.62 316.83,-254.7 104.49,-86.03 207.95,-173.85 310.5,-263.41 102.41,-87.82 203.72,-177.39 303.84,-268.74 100.31,-91.31 199.53,-184.4 297.51,-277.5 98.02,-93.05 194.95,-187.89 290.69,-284.52 95.68,-94.84 190.37,-191.42 283.82,-289.75 93.39,-98.37 185.79,-196.75 276.75,-296.81 91.15,-100.12 181.11,-201.98 269.78,-303.84 88.71,-103.65 176.13,-207.25 262.56,-310.91 86.23,-105.34 171.26,-210.73 254.99,-317.87 83.79,-105.4 166.33,-214.28 247.68,-321.41 81.3,-108.88 161.2,-219.5 239.91,-330.17 78.66,-110.63 156.12,-221.3 232.14,-333.71 76.07,-114.16 150.9,-226.57 224.28,-340.73 73.43,-115.9 145.42,-230.05 216.22,-347.74 70.79,-115.9 139.99,-233.59 207.94,-351.24 67.96,-117.69 134.52,-237.12 199.84,-356.55 65.17,-121.18 128.94,-240.61 191.27,-363.53 62.18,-121.18 123.12,-244.15 182.66,-367.07 59.39,-122.96 117.49,-247.62 173.89,-372.34 56.56,-126.45 111.67,-251.16 165.24,-377.61 53.57,-126.46 105.54,-254.65 156.12,-382.85 50.43,-128.24 99.62,-256.44 147.01,-386.38 47.45,-129.99 93.45,-259.97 137.91,-391.65 44.25,-131.73 87.07,-263.46 128.34,-395.2 41.27,-133.47 80.8,-265.2 118.93,-400.41 37.94,-133.48 74.43,-268.74 109.23,-403.96 34.75,-135.21 67.96,-270.48 99.57,-407.49 31.46,-136.95 61.28,-273.96 89.56,-410.97 28.13,-138.7 54.61,-275.71 79.56,-414.46 24.79,-140.49 47.94,-279.24 69.4,-419.73 21.25,-140.54 41.07,-281.04 58.99,-421.53 17.92,-142.28 34.1,-282.78 48.64,-425.01 14.44,-142.29 27.08,-286.31 37.93,-428.55 10.91,-144.03 20.07,-288.05 27.44,-432.03 7.36,-144.03 12.79,-289.8 16.47,-433.82 3.69,-145.77 5.48,-291.54 5.48,-437.31 0,-145.77 -1.79,-291.54 -5.48,-437.31 -3.68,-145.77 -9.11,-289.8 -16.47,-433.83 -7.37,-145.77 -16.53,-288.05 -27.44,-432.03 -10.85,-144.03 -23.49,-286.31 -37.93,-428.55 -14.54,-142.28 -30.72,-284.52 -48.64,-425.01 -17.92,-142.28 -37.74,-282.78 -58.99,-423.27 -21.46,-138.75 -44.61,-279.24 -69.4,-417.99 -24.95,-138.75 -51.43,-277.5 -79.56,-414.51 -28.28,-138.75 -58.1,-275.76 -89.56,-412.71 -31.61,-135.27 -64.82,-272.23 -99.57,-407.49 -34.8,-135.22 -71.29,-268.69 -109.23,-403.96 -38.13,-133.47 -77.66,-266.94 -118.93,-398.67 -41.27,-133.48 -84.09,-265.21 -128.34,-396.89 -44.46,-129.98 -90.46,-259.97 -137.91,-389.91 -47.39,-129.99 -96.58,-259.93 -147.01,-388.12 -50.58,-128.25 -102.55,-254.7 -156.12,-381.15 -53.57,-126.46 -108.68,-252.91 -165.24,-377.57 -56.4,-124.71 -114.5,-249.42 -173.89,-372.34 -59.54,-122.97 -120.48,-245.89 -182.66,-368.86 -62.33,-121.17 -126.1,-242.35 -191.27,-361.78 -65.32,-119.44 -131.88,-238.87 -199.84,-356.51 -67.95,-119.44 -137.15,-235.38 -207.94,-353.03 -70.8,-115.89 -142.79,-231.84 -216.22,-346 -73.38,-114.16 -148.21,-228.31 -224.28,-340.73 -76.02,-112.41 -153.48,-224.77 -232.14,-335.45 -78.71,-110.62 -158.61,-219.55 -239.91,-328.43 -81.35,-108.87 -163.89,-216.01 -247.68,-323.15 -83.73,-107.14 -168.76,-212.48 -254.99,-316.13 -86.43,-105.4 -173.85,-209 -262.56,-310.86 -88.67,-101.86 -178.63,-203.72 -269.78,-303.83 -90.96,-100.12 -183.36,-198.45 -276.75,-296.82 -93.45,-98.37 -188.14,-194.96 -283.82,-291.54 -95.74,-94.84 -192.67,-189.68 -290.69,-282.78 -97.98,-94.84 -197.2,-186.14 -297.51,-277.5 -100.12,-91.3 -201.43,-180.87 -303.84,-270.48 -102.55,-87.77 -206.01,-175.59 -310.5,-261.67 -104.5,-86.07 -210.24,-172.1 -316.83,-254.65 -106.59,-84.33 -214.27,-166.87 -322.8,-247.62 -108.73,-82.55 -218.3,-161.61 -329.12,-240.61 -110.67,-79.06 -222.19,-156.33 -334.75,-231.85 -112.76,-75.53 -226.22,-151.05 -340.73,-224.83 -114.5,-73.73 -230.05,-145.77 -346.34,-216.02 -116.45,-70.24 -233.74,-140.49 -351.93,-207.25 -118.24,-68.45 -237.27,-135.22 -357.25,-200.18 -119.93,-65.02 -240.76,-128.25 -362.48,-191.48 -121.72,-63.22 -244.29,-122.91 -367.61,-182.61 -123.46,-59.74 -247.62,-117.69 -372.68,-173.89 -125.06,-56.21 -250.81,-112.42 -377.42,-165.09 -126.65,-54.47 -253.95,-105.4 -382.14,-156.33 -128.24,-50.93 -257.14,-100.11 -386.77,-147.51 -129.79,-47.44 -260.08,-93.09 -391.31,-137.01 -131.18,-43.91 -263.06,-87.82 -395.48,-128.19 -132.63,-42.17 -265.9,-80.8 -399.72,-119.43 -134.02,-38.64 -268.54,-73.79 -403.95,-108.88 -135.26,-35.15 -271.18,-68.51 -407.63,-100.12 -136.66,-31.61 -273.82,-61.48 -411.52,-89.56 -137.85,-28.13 -276.25,-54.47 -415.15,-79.06 -139.1,-24.6 -278.54,-49.14 -418.74,-70.25 -140.14,-21.06 -280.83,-40.37 -422.02,-57.95 -141.38,-19.31 -283.12,-35.1 -425.35,-49.18 -142.44,-14.04 -285.22,-26.34 -428.55,-38.64 -143.33,-10.5 -287.15,-19.31 -431.53,-26.33 -144.17,-7.02 -289.04,-12.3 -434.31,-17.58 -145.22,-3.48 -290.84,-5.28 -436.96,-5.28l0 0 0 0 0 0 0 0 0 0 0 0 0 0 0 0 0 0 0 0 0 0 0 0 0 0 0 0 0 0 0 0 0 0 0 0 0 0 0 0 0 0 0 0 0 0 0 0 0 0 0 0 0 0 0 0 0 0 0 0 0 0 0 0 0 0 0 0 0 0 0 0 0 0 0 0 0 0 0 0 0 0 0 0 0 0 0 0 0 0 0 0 0 0 0 0 0 0 0 0 0 0 0 0 0 0 0 0 0 0 0 0 0 0 0 0 0 0 0 0 0 0 0 0 0 0 0 0zm0 2112.87c127.7,0 255,1.74 381.8,5.23 127,3.53 253.65,7.07 379.7,14.09 126.1,7.02 251.86,14.04 377.12,24.59 125.2,8.76 250.06,19.32 374.57,33.36 124.36,12.29 248.38,26.33 371.84,42.11 123.47,15.83 246.38,33.41 369,52.73 122.37,17.57 244.44,38.63 365.96,59.69 121.58,21.11 242.55,45.65 363.03,70.24 120.48,24.6 240.46,50.93 359.89,77.32 119.43,28.08 238.32,57.95 356.51,87.77 118.38,31.61 236.02,63.23 353.17,96.63 117.14,33.36 233.78,66.71 349.68,103.6 115.95,36.89 231.3,73.79 346,112.42 114.7,38.63 228.86,79.01 342.32,121.17 113.46,42.17 226.17,84.29 338.43,128.2 112.02,45.7 223.58,91.35 334.4,137.01 110.62,47.44 220.74,94.84 330.17,145.77 109.43,49.18 218.1,100.11 326.14,151.04 107.83,52.68 215.11,107.14 321.55,161.61 106.64,54.41 212.33,110.62 317.38,166.82 104.84,57.95 209.19,115.9 312.59,175.64 103.45,59.7 206.01,119.44 307.92,180.87 101.86,63.23 203.02,126.46 303.28,189.68 100.12,65.02 199.54,129.99 298.21,196.7 98.52,66.76 196.2,135.27 293.13,203.77 96.93,68.45 192.87,138.75 288.05,210.74 95.19,70.25 189.33,142.23 282.73,216.02 93.29,73.78 185.84,147.51 277.35,223.03 91.5,77.32 182.11,152.84 271.87,230.11 89.56,79 178.22,156.32 266.04,237.07 87.82,79.06 174.6,159.86 260.47,242.4 85.88,82.55 170.71,165.09 254.65,247.63 83.79,84.29 166.68,170.37 248.52,254.65 81.85,86.08 162.65,173.9 242.55,261.67 79.76,87.82 158.42,175.64 236.23,265.2 77.61,89.62 154.38,180.92 229.9,272.23 75.53,91.35 149.95,184.45 223.38,277.5 73.44,93.09 145.77,187.93 216.91,282.77 71.3,94.84 141.39,191.43 210.24,288.06 69,96.58 136.81,194.91 203.37,293.28 66.71,98.38 132.23,198.44 196.5,298.56 64.27,100.12 127.5,200.23 189.53,302.09 61.98,101.86 122.77,205.51 182.31,309.12 59.54,103.6 117.84,207.25 174.89,312.6 57.1,103.65 112.96,210.78 167.57,316.13 54.62,107.14 107.99,214.27 160.16,321.41 52.17,108.88 102.9,217.81 152.44,326.69 49.53,108.88 97.83,219.55 144.72,330.17 46.9,110.67 92.55,223.03 136.81,335.45 44.46,110.67 87.32,224.83 128.94,337.19 41.62,114.21 82,228.36 120.83,342.52 38.78,114.16 76.37,230.05 112.56,345.95 36.19,115.95 70.94,233.59 104.35,349.54 33.15,117.64 65.11,235.33 95.68,352.98 30.57,119.43 59.54,237.12 87.27,356.55 27.58,119.44 53.77,240.61 78.51,360.05 24.8,121.17 47.95,242.35 69.75,363.53 21.76,121.17 41.97,244.14 60.79,365.32 18.77,122.96 35.99,245.88 51.77,368.8 15.83,124.71 30.02,247.68 42.67,372.34 12.64,124.71 23.75,249.42 33.4,374.08 9.46,126.46 17.58,251.17 23.9,377.62 6.47,126.46 11.2,252.91 14.54,379.36 3.18,128.2 4.78,254.65 4.78,382.9 0,126.45 -1.6,254.65 -4.78,381.1 -3.34,128.19 -8.07,254.65 -14.54,379.36 -6.32,126.45 -14.44,252.9 -23.9,377.62 -9.65,124.66 -20.76,251.11 -33.4,374.08 -12.65,124.71 -26.84,249.37 -42.67,372.34 -15.78,124.71 -33,247.63 -51.77,368.8 -18.82,122.97 -39.03,244.15 -60.79,367.07 -21.8,121.17 -44.95,242.4 -69.75,361.78 -24.74,121.23 -50.93,240.61 -78.51,360.05 -27.73,119.43 -56.7,238.86 -87.27,356.55 -30.57,119.44 -62.53,237.08 -95.68,353.03 -33.41,117.64 -68.16,233.59 -104.35,349.49 -36.19,115.9 -73.78,231.84 -112.56,347.74 -38.83,114.16 -79.21,228.32 -120.83,340.73 -41.62,114.16 -84.48,226.57 -128.94,338.93 -44.26,112.42 -89.91,223.09 -136.81,333.71 -46.89,110.67 -95.19,221.29 -144.72,330.17 -49.54,110.68 -100.27,219.55 -152.44,326.69 -52.17,108.88 -105.54,216.02 -160.16,321.41 -54.61,107.14 -110.47,212.48 -167.57,317.88 -57.05,105.39 -115.35,208.99 -174.89,312.65 -59.54,103.6 -120.33,205.46 -182.31,307.32 -62.03,101.86 -125.26,203.72 -189.53,303.83 -64.27,100.12 -129.79,200.24 -196.5,298.56 -66.56,98.38 -134.37,196.75 -203.37,293.33 -68.85,96.59 -138.94,191.43 -210.24,288.01 -71.14,94.84 -143.47,189.68 -216.91,282.78 -73.43,93.09 -147.85,184.4 -223.38,277.5 -75.52,91.3 -152.29,180.91 -229.9,270.48 -77.81,89.56 -156.47,179.12 -236.23,266.94 -79.9,87.82 -160.7,173.9 -242.55,259.93 -81.84,86.08 -164.73,170.36 -248.52,254.65 -83.94,84.33 -168.77,166.88 -254.65,249.42 -85.87,80.8 -172.65,161.55 -260.47,242.35 -87.82,79.06 -176.48,158.07 -266.04,235.33 -89.76,79.06 -180.37,154.59 -271.87,230.11 -91.51,75.52 -184.06,151.05 -277.35,223.03 -93.4,73.79 -187.54,145.77 -282.73,217.81 -95.18,70.25 -191.12,140.5 -288.05,210.74 -96.93,68.51 -194.61,135.22 -293.13,201.98 -98.67,66.71 -198.09,133.47 -298.21,196.7 -100.26,64.97 -201.42,128.19 -303.28,189.68 -101.91,61.48 -204.47,122.92 -307.92,182.66 -103.4,59.69 -207.75,117.64 -312.59,175.64 -105.05,56.16 -210.74,112.36 -317.38,166.83 -106.44,54.46 -213.72,107.13 -321.55,159.81 -108.04,52.72 -216.71,103.65 -326.14,152.79 -109.43,49.18 -219.55,98.37 -330.17,144.02 -110.82,47.45 -222.38,93.1 -334.4,137.01 -112.26,45.65 -224.97,87.82 -338.43,129.94 -113.46,40.42 -227.62,80.8 -342.32,119.43 -114.7,40.43 -230.05,77.32 -346,114.16 -115.9,35.15 -232.54,70.24 -349.68,103.65 -117.15,33.36 -234.79,64.97 -353.17,94.84 -118.19,31.61 -237.08,59.69 -356.51,87.82 -119.43,28.08 -239.41,54.42 -359.89,79.01 -120.48,24.59 -241.45,47.44 -363.03,70.25 -121.52,21.1 -243.59,40.42 -365.96,59.74 -122.62,19.31 -245.53,36.89 -369,52.67 -123.46,15.83 -247.48,29.87 -371.84,42.17 -124.51,12.29 -249.37,24.59 -374.57,33.35 -125.26,8.76 -251.02,17.58 -377.12,24.6 -126.05,5.27 -252.7,10.55 -379.7,14.04 -126.8,3.53 -254.1,5.27 -381.8,5.27 -127.7,0 -254.99,-1.74 -381.99,-5.27 -126.95,-3.49 -253.41,-8.77 -379.51,-14.04 -126.1,-7.02 -251.86,-15.84 -377.11,-24.6 -125.36,-8.76 -250.27,-21.06 -374.58,-33.35 -124.36,-12.3 -248.38,-26.34 -371.84,-42.17 -123.46,-15.78 -246.58,-33.36 -368.95,-52.67 -122.62,-19.32 -244.69,-38.64 -366.21,-59.74 -121.53,-22.81 -242.55,-45.66 -363.03,-70.25 -120.48,-24.59 -240.41,-50.93 -359.84,-79.01 -119.43,-28.13 -238.32,-56.21 -356.56,-87.82 -118.33,-29.87 -236.02,-61.48 -353.16,-94.84 -117.15,-33.41 -233.74,-68.5 -349.69,-103.65 -115.9,-36.84 -231.3,-73.73 -346,-114.16 -114.65,-38.63 -228.81,-79.01 -342.27,-119.43 -113.45,-42.12 -226.22,-84.29 -338.28,-129.94 -112.21,-43.91 -223.73,-89.56 -334.4,-137.01 -110.82,-45.65 -220.94,-94.84 -330.32,-144.02 -109.42,-49.14 -218.15,-100.07 -325.99,-152.79 -107.98,-52.68 -215.31,-105.35 -321.75,-159.81 -106.44,-54.47 -212.33,-110.67 -317.18,-166.83 -105.04,-58 -209.34,-115.95 -312.79,-175.64 -103.45,-59.74 -206.01,-121.18 -307.87,-182.66 -101.86,-61.49 -203.02,-124.71 -303.13,-189.68 -100.27,-63.23 -199.69,-129.99 -298.41,-196.7 -98.52,-66.76 -196.15,-133.47 -293.13,-201.98 -96.73,-70.24 -192.81,-140.49 -288,-210.74 -95.19,-72.04 -189.33,-144.02 -282.78,-217.81 -93.24,-71.98 -185.79,-147.51 -277.29,-223.03 -91.51,-75.52 -182.16,-151.05 -271.88,-230.11 -89.56,-77.26 -178.27,-156.27 -266.09,-235.33 -87.82,-80.8 -174.55,-161.55 -260.47,-242.35 -85.88,-82.54 -170.71,-165.09 -254.65,-249.42 -83.79,-84.29 -166.68,-168.57 -248.52,-254.65 -81.85,-86.03 -162.6,-172.11 -242.5,-259.93 -79.76,-87.82 -158.47,-177.38 -236.23,-266.94 -77.66,-89.57 -154.38,-179.18 -229.9,-270.48 -75.52,-93.1 -150.15,-184.41 -223.43,-277.5 -73.39,-93.1 -145.77,-187.94 -216.86,-282.78 -71.34,-96.58 -141.39,-191.42 -210.24,-288.01 -69,-96.58 -136.81,-194.95 -203.37,-293.33 -66.76,-98.32 -132.28,-198.44 -196.55,-298.56 -64.27,-100.11 -127.5,-201.97 -189.48,-303.83 -62.03,-101.86 -122.77,-203.72 -182.31,-307.32 -59.54,-103.66 -117.84,-207.26 -174.94,-312.65 -57.05,-105.4 -112.91,-210.74 -167.52,-317.88 -54.62,-105.39 -108.04,-212.53 -160.21,-321.41 -52.12,-107.14 -102.9,-216.01 -152.44,-326.69 -49.53,-108.88 -97.82,-219.5 -144.72,-330.17 -46.9,-110.62 -92.55,-221.29 -136.81,-333.71 -44.41,-112.36 -87.27,-224.77 -128.89,-338.93 -41.62,-112.41 -82.04,-226.57 -120.83,-340.73 -38.98,-115.9 -76.41,-231.84 -112.61,-347.74 -36.14,-115.9 -70.94,-231.85 -104.3,-349.49 -33.2,-115.95 -65.16,-233.59 -95.73,-353.03 -30.57,-117.69 -59.54,-237.12 -87.27,-356.55 -27.58,-119.44 -53.72,-238.82 -78.51,-360.05 -24.75,-119.38 -47.94,-240.61 -69.7,-361.78 -21.81,-122.92 -42.02,-244.1 -60.79,-367.07 -18.82,-121.17 -35.99,-244.09 -51.82,-368.8 -15.78,-122.97 -30.02,-247.63 -42.67,-372.34 -12.64,-122.97 -23.69,-249.42 -33.35,-374.08 -9.51,-124.72 -17.58,-251.17 -23.9,-377.62 -6.52,-124.71 -11.25,-251.17 -14.59,-379.36 -3.13,-126.45 -4.73,-254.65 -4.73,-381.1 0,-128.25 1.6,-254.7 4.73,-382.9 3.34,-126.45 8.07,-252.9 14.59,-379.36 6.32,-126.45 14.39,-251.16 23.9,-377.62 9.66,-124.66 20.71,-249.37 33.35,-374.08 12.65,-124.66 26.89,-247.63 42.67,-372.34 15.83,-122.92 33,-245.84 51.82,-368.8 18.77,-121.18 38.98,-244.15 60.79,-365.32 21.76,-121.18 44.95,-242.36 69.7,-363.53 24.79,-119.44 50.93,-240.61 78.51,-360.05 27.73,-119.43 56.7,-237.12 87.27,-356.55 30.57,-117.65 62.53,-235.34 95.73,-352.98 33.36,-115.95 68.16,-233.59 104.3,-349.54 36.2,-115.9 73.63,-231.79 112.61,-345.95 38.79,-114.16 79.21,-228.31 120.83,-342.52 41.62,-112.36 84.48,-226.52 128.89,-337.19 44.26,-112.42 89.91,-224.78 136.81,-335.45 46.9,-110.62 95.19,-221.29 144.72,-330.17 49.54,-108.88 100.32,-217.81 152.44,-326.69 52.17,-107.14 105.59,-214.27 160.21,-321.41 54.61,-105.35 110.47,-212.48 167.52,-316.13 57.1,-105.35 115.4,-209 174.94,-312.6 59.54,-103.61 120.28,-207.26 182.31,-309.12 61.98,-101.86 125.21,-201.97 189.48,-302.09 64.27,-100.12 129.79,-200.18 196.55,-298.56 66.56,-98.37 134.37,-196.7 203.37,-293.28 68.85,-96.63 138.9,-193.22 210.24,-288.06 71.09,-94.84 143.47,-189.68 216.86,-282.77 73.28,-93.05 147.91,-186.15 223.43,-277.5 75.52,-91.31 152.24,-182.61 229.9,-272.23 77.76,-89.56 156.47,-177.38 236.23,-265.2 79.9,-87.77 160.65,-175.59 242.5,-261.67 81.84,-84.28 164.73,-170.36 248.52,-254.65 83.94,-82.54 168.77,-165.08 254.65,-247.63 85.92,-82.54 172.65,-163.34 260.47,-242.4 87.82,-80.75 176.53,-158.07 266.09,-237.07 89.72,-77.27 180.37,-152.79 271.88,-230.11 91.5,-75.52 184.05,-149.25 277.29,-223.03 93.45,-73.79 187.59,-145.77 282.78,-216.02 95.19,-71.99 191.27,-142.29 288,-210.74 96.98,-68.5 194.61,-137.01 293.13,-203.77 98.72,-66.71 198.14,-131.68 298.41,-196.7 100.11,-63.22 201.27,-126.45 303.13,-189.68 101.86,-61.43 204.42,-121.17 307.87,-180.87 103.45,-59.74 207.75,-117.69 312.79,-175.64 104.85,-56.2 210.74,-112.41 317.18,-166.82 106.44,-54.47 213.77,-108.93 321.75,-161.61 107.84,-50.93 216.57,-101.86 325.99,-151.04 109.38,-50.93 219.5,-98.33 330.32,-145.77 110.67,-45.66 222.19,-91.31 334.4,-137.01 112.06,-43.91 224.83,-86.03 338.28,-128.2 113.46,-42.16 227.62,-82.54 342.27,-121.17 114.7,-38.63 230.1,-75.53 346,-112.42 115.95,-36.89 232.54,-70.24 349.69,-103.6 117.14,-33.4 234.83,-65.02 353.16,-96.63 118.24,-29.82 237.13,-59.69 356.56,-87.77 119.43,-26.39 239.36,-52.72 359.84,-77.32 120.48,-24.59 241.5,-49.13 363.03,-70.24 121.52,-21.06 243.59,-42.12 366.21,-59.69 122.37,-19.32 245.49,-36.9 368.95,-52.73 123.46,-15.78 247.48,-29.82 371.84,-42.11 124.31,-14.04 249.22,-24.6 374.58,-33.36 125.25,-10.55 251.01,-17.57 377.11,-24.59 126.1,-7.02 252.56,-10.56 379.51,-14.09 127,-3.49 254.29,-5.23 381.99,-5.23z"/>
  <polygon fill="black" fill-rule="nonzero" points="23949.64,16934.23 23771.91,16825.35 23594.18,16714.68 23416.45,16605.8 23238.72,16496.92 23060.99,16386.25 22883.26,16277.37 22705.48,16168.49 22527.75,16057.82 22350.02,15948.94 22172.29,15840.06 21994.57,15731.13 21816.84,15620.51 21639.11,15511.63 21461.38,15402.75 21283.65,15292.08 21105.87,15183.2 20928.14,15074.32 20750.41,14965.39 20572.68,14854.77 20394.95,14745.89 20217.22,14635.22 20039.49,14526.34 19861.76,14417.46 19684.03,14308.53 19506.25,14197.91 19328.52,14089.03 19150.79,13980.15 18973.06,13869.48 18795.33,13760.6 18617.6,13651.72 18439.87,13542.79 18262.14,13432.17 18084.41,13323.29 17906.63,13214.36 17728.9,13103.74 17551.17,12994.86 17373.44,12885.93 17195.71,12775.31 17017.98,12666.43 16840.25,12557.55 16662.52,12446.88 16484.79,12338 16307.02,12229.12 16129.29,12120.19 15951.56,12009.57 15773.83,11900.69 15596.1,11791.76 15418.37,11681.14 15240.64,11572.26 15062.91,11463.33 14885.18,11352.71 14707.4,11243.83 14529.67,11134.95 14351.94,11026.02 14174.21,10915.4 13996.48,10806.52 13818.75,10697.59 13641.02,10586.97 13463.29,10478.09 13285.56,10369.16 13107.78,10258.54 12930.05,10149.66 12752.52,10040.73 12574.59,9931.85 12574.59,10149.66 12574.59,10369.16 12574.59,10586.97 12574.59,10806.52 12574.59,11026.02 12574.59,11243.83 12574.59,11463.33 12574.59,11681.14 12574.59,11900.69 12574.59,12120.19 12574.59,12338 12574.59,12557.55 12574.59,12775.31 12574.59,12994.86 12574.59,13214.36 12574.59,13432.17 12574.59,13651.72 12574.59,13869.48 12574.59,14089.03 12574.59,14308.53 12574.59,14526.34 12574.59,14745.89 12574.59,14963.65 12574.59,15183.2 12574.59,15402.75 12574.59,15620.51 12574.59,15840.06 12574.59,16057.82 12574.59,16277.37 12574.59,16496.92 12574.59,16714.68 12574.59,16934.23 12574.59,17151.98 12574.59,17371.54 12574.59,17591.09 12574.59,17808.84 12574.59,18028.4 12574.59,18246.15 12574.59,18465.7 12574.59,18685.26 12574.59,18903.01 12574.59,19122.56 12574.59,19340.32 12574.59,19559.87 12574.59,19779.42 12574.59,19997.18 12574.59,20216.73 12574.59,20436.28 12574.59,20654.04 12574.59,20873.59 12574.59,21091.35 12574.59,21310.9 12574.59,21528.66 12574.59,21748.21 12574.59,21967.76 12574.59,22185.52 12574.59,22405.07 12574.59,22622.83 12574.59,22842.38 12574.59,23061.93 12574.59,23279.69 12574.59,23499.24 12574.59,23717.05 12574.59,23936.55 12752.52,23827.67 12930.05,23717.05 13107.78,23608.12 13285.56,23499.24 13463.29,23390.36 13641.02,23279.69 13818.75,23170.81 13996.48,23061.93 14174.21,22951.26 14351.94,22842.38 14529.67,22733.5 14707.4,22622.83 14885.18,22513.95 15062.91,22405.07 15240.64,22296.19 15418.37,22185.52 15596.1,22076.64 15773.83,21967.76 15951.56,21857.09 16129.29,21748.21 16307.02,21639.33 16484.79,21528.66 16662.52,21419.78 16840.25,21310.9 17017.98,21202.02 17195.71,21091.35 17373.44,20982.47 17551.17,20873.59 17728.9,20762.92 17906.63,20654.04 18084.41,20545.16 18262.14,20436.28 18439.87,20325.61 18617.6,20216.73 18795.33,20107.85 18973.06,19997.18 19150.79,19888.3 19328.52,19779.42 19506.25,19668.75 19684.03,19559.87 19861.76,19450.99 20039.49,19340.32 20217.22,19231.44 20394.95,19122.56 20572.68,19013.69 20750.41,18903.01 20928.14,18794.13 21105.87,18685.26 21283.65,18574.58 21461.38,18465.7 21639.11,18356.83 21816.84,18246.15 21994.57,18137.27 22172.29,18028.4 22350.02,17919.52 22527.75,17808.84 22705.48,17699.97 22883.26,17591.09 23060.99,17480.41 23238.72,17371.54 23416.45,17262.66 23594.18,17151.98 23771.91,17043.11 "/>
 </g>
</svg>
