<?xml version="1.0" encoding="UTF-8"?>
<!DOCTYPE svg PUBLIC "-//W3C//DTD SVG 1.1//EN" "http://www.w3.org/Graphics/SVG/1.1/DTD/svg11.dtd">
<!-- Creator: CorelDRAW 2026 -->
<svg xmlns="http://www.w3.org/2000/svg" xml:space="preserve" width="338.667mm" height="338.667mm" version="1.1" shape-rendering="geometricPrecision" text-rendering="geometricPrecision" image-rendering="optimizeQuality" fill-rule="evenodd" clip-rule="evenodd"
viewBox="0 0 33866.66 33866.66"
 xmlns:xlink="http://www.w3.org/1999/xlink"
 xmlns:xodm="http://www.corel.com/coreldraw/odm/2003">
 <g id="Camada_x0020_1">
  <metadata id="CorelCorpID_0Corel-Layer"/>
  <path fill="black" fill-rule="nonzero" d="M16932.43 -0.01c-145.77,0 -291.54,1.8 -437.31,5.28 -143.97,5.28 -289.79,10.56 -433.77,17.58 -144.03,7.02 -288.05,15.83 -432.08,26.33 -142.24,12.3 -286.26,24.6 -428.5,38.64 -142.28,14.08 -282.78,29.87 -425.06,49.18 -140.49,17.58 -280.99,36.89 -421.48,57.95 -140.54,21.11 -279.24,45.65 -419.78,70.25 -138.75,24.59 -275.71,50.93 -414.46,79.06 -137.01,28.08 -274.02,57.95 -410.97,89.56 -137.01,31.61 -272.23,64.97 -407.49,100.12 -135.22,35.09 -270.43,70.24 -403.96,108.88 -135.21,38.63 -266.94,77.26 -400.41,119.43 -131.74,40.37 -263.47,84.28 -395.15,128.19 -131.73,43.92 -261.71,89.57 -391.65,137.01 -129.99,47.4 -258.19,96.58 -386.38,147.51 -128.25,50.93 -256.44,101.86 -382.9,156.33 -126.45,52.67 -251.16,108.88 -377.61,165.09 -124.67,56.2 -249.38,114.15 -372.34,173.89 -122.92,59.7 -245.89,119.39 -367.07,182.61 -121.17,63.23 -242.35,126.46 -363.53,191.48 -119.43,64.96 -238.86,131.73 -356.55,200.18 -117.65,66.76 -235.34,137.01 -351.24,207.25 -117.69,70.25 -231.84,142.29 -347.74,216.02 -114.16,73.78 -226.57,149.3 -338.99,224.83 -114.15,75.52 -224.77,152.79 -335.45,231.85 -110.62,79 -221.29,158.06 -330.17,240.61 -107.13,80.75 -216.01,163.29 -321.41,247.62 -107.14,82.55 -212.48,168.58 -317.87,254.65 -103.66,86.08 -207.26,173.9 -309.12,261.67 -103.6,89.61 -203.72,179.18 -305.58,270.48 -100.11,91.36 -198.49,182.66 -296.81,277.5 -98.38,93.1 -194.96,187.94 -289.8,282.78 -96.58,96.58 -191.42,193.17 -284.52,291.54 -93.1,98.37 -186.19,196.7 -277.5,296.82 -91.31,100.11 -180.92,201.97 -268.74,303.83 -89.56,101.86 -177.38,205.46 -263.41,310.86 -86.08,103.65 -170.36,208.99 -254.65,316.13 -84.33,107.14 -166.88,214.28 -247.68,323.15 -80.75,108.88 -161.55,217.81 -240.61,328.43 -77.26,110.68 -154.53,223.04 -231.79,335.45 -75.53,112.42 -151.05,226.57 -223.09,340.73 -73.73,114.16 -145.77,230.11 -217.76,346 -70.24,117.65 -138.75,233.59 -207.25,353.03 -68.51,117.64 -135.22,237.07 -200.24,356.51 -64.97,119.43 -128.19,240.61 -191.42,361.78 -61.48,122.97 -122.92,245.89 -182.66,368.86 -57.95,122.92 -115.9,247.63 -173.85,372.34 -56.2,124.66 -110.67,251.11 -165.08,377.57 -52.73,126.45 -105.4,252.9 -156.33,381.15 -49.19,128.19 -98.37,258.13 -145.77,388.12 -47.44,129.94 -94.84,259.93 -138.75,389.91 -43.91,131.68 -86.08,263.41 -128.19,396.89 -40.43,131.73 -80.8,265.2 -119.44,398.67 -36.89,135.27 -73.78,268.74 -108.88,403.96 -35.14,135.26 -68.5,272.22 -98.37,407.49 -31.61,136.95 -61.48,273.96 -89.56,412.71 -29.87,137.01 -56.21,275.76 -80.8,414.51 -24.6,138.75 -47.4,279.24 -68.51,417.99 -21.06,140.49 -42.12,280.99 -59.69,423.27 -17.57,140.49 -33.36,282.73 -49.19,425.01 -14.04,142.24 -26.33,284.52 -36.89,428.55 -10.5,143.98 -21.06,286.26 -28.08,432.03 -7.02,144.03 -12.29,288.06 -15.83,433.83 -3.48,145.77 -5.28,291.54 -5.28,437.31 0,145.77 1.8,291.54 5.28,437.31 3.54,144.02 8.81,289.79 15.83,433.82 7.02,143.98 17.58,288 28.08,432.03 10.56,142.24 22.85,286.26 36.89,428.55 15.83,142.23 31.62,282.73 49.19,425.01 17.57,140.49 38.63,280.99 59.69,421.53 21.11,140.49 43.91,279.24 68.51,419.73 24.59,138.75 50.93,275.76 80.8,414.46 28.08,137.01 57.95,274.02 89.56,410.97 29.87,137.01 63.23,272.28 98.37,407.49 35.1,135.22 71.99,270.48 108.88,403.96 38.64,135.21 79.01,266.94 119.44,400.41 42.11,131.74 84.28,263.47 128.19,395.2 43.91,131.68 91.31,261.66 138.75,391.65 47.4,129.94 96.58,258.14 145.77,386.38 50.93,128.2 103.6,256.39 156.33,382.85 54.41,126.45 108.88,251.16 165.08,377.61 57.95,124.72 115.9,249.38 173.85,372.34 59.74,122.92 121.18,245.89 182.66,367.07 63.23,122.92 126.45,242.35 191.42,363.53 65.02,119.43 131.73,238.86 200.24,356.55 68.5,117.65 137.01,235.34 207.25,351.24 71.99,117.69 144.03,231.84 217.76,347.74 72.04,114.16 147.56,226.57 223.09,340.73 77.26,112.41 154.53,223.08 231.79,333.71 79.06,110.67 159.86,221.29 240.61,330.17 80.8,107.13 163.35,216.01 247.68,321.41 84.29,107.14 168.57,212.53 254.65,317.87 86.03,103.66 173.85,207.26 263.41,310.91 87.82,101.86 177.43,203.72 268.74,303.84 91.31,100.06 184.4,198.44 277.5,296.81 93.1,98.33 187.94,194.91 284.52,289.75 94.84,96.63 191.42,191.47 289.8,284.52 98.32,93.1 196.7,186.19 296.81,277.5 101.86,91.35 201.98,180.92 305.58,268.74 101.86,89.56 205.46,177.38 309.12,263.41 105.39,86.08 210.73,170.36 317.87,254.7 105.4,84.28 214.28,166.83 321.41,247.63 108.88,80.8 219.55,161.55 330.17,240.61 110.68,77.26 221.3,154.53 335.45,231.84 112.42,75.53 224.83,151 338.99,223.04 115.9,73.78 230.05,145.77 347.74,217.76 115.9,70.24 233.59,138.75 351.24,207.25 117.69,68.51 237.12,135.22 356.55,200.24 121.18,64.97 242.36,128.19 363.53,191.42 121.18,61.48 244.15,122.92 367.07,182.66 122.96,57.95 247.67,117.69 372.34,173.85 126.45,56.2 251.16,110.67 377.61,165.13 126.46,52.68 254.65,105.35 382.9,156.28 128.19,49.19 256.39,98.37 386.38,145.77 129.94,47.44 259.92,94.84 391.65,138.75 131.68,43.91 263.41,86.08 395.15,128.24 133.47,40.38 265.2,80.75 400.41,119.39 133.53,36.89 268.74,73.78 403.96,108.93 135.26,35.09 270.48,68.45 407.49,100.06 136.95,29.87 273.96,59.74 410.97,89.62 138.75,28.07 275.71,54.41 414.46,79 140.54,24.6 279.24,47.45 419.78,68.51 140.49,22.85 280.99,42.17 421.48,59.69 142.28,17.57 282.78,35.15 425.06,49.19 142.24,14.04 286.26,26.33 428.5,36.89 144.03,12.29 288.05,21.06 432.08,28.08 143.98,7.07 289.8,12.29 433.77,15.83 145.77,3.53 291.54,5.28 437.31,5.28 145.82,0 291.59,-1.75 437.36,-5.28 145.77,-3.54 289.75,-8.76 433.78,-15.83 145.77,-7.02 288.05,-15.79 432.08,-28.08 143.98,-10.56 286.26,-22.85 428.5,-36.89 142.28,-14.04 284.52,-31.62 425.06,-49.19 142.23,-17.52 282.73,-36.84 423.27,-59.69 138.7,-21.06 279.24,-43.91 417.99,-68.51 138.75,-24.59 277.5,-50.93 414.46,-79 138.75,-29.88 275.76,-59.75 412.71,-89.62 135.27,-31.61 272.28,-64.97 407.49,-100.06 135.22,-35.15 268.69,-72.04 403.96,-108.93 133.47,-38.64 266.94,-79.01 398.67,-119.39 133.48,-42.16 265.21,-84.33 396.94,-128.24 129.93,-43.91 261.66,-91.31 389.86,-138.75 129.99,-47.4 259.93,-96.58 388.17,-145.77 128.2,-50.93 254.65,-103.6 381.1,-156.28 126.46,-54.46 252.91,-108.93 377.62,-165.13 124.66,-56.16 249.37,-115.9 372.34,-173.85 124.66,-59.74 245.84,-121.18 368.81,-182.66 121.17,-63.23 242.35,-126.45 361.78,-191.42 119.44,-65.02 238.87,-131.73 356.56,-200.24 119.39,-68.5 237.08,-137.01 352.98,-207.25 115.94,-71.99 231.84,-143.98 346,-217.76 114.16,-72.04 228.31,-147.51 340.73,-223.04 112.41,-77.31 224.82,-154.58 335.45,-231.84 110.67,-79.06 219.55,-159.81 328.43,-240.61 108.87,-80.8 216.01,-163.35 323.15,-247.63 107.14,-84.34 212.53,-168.62 316.13,-254.7 105.4,-86.03 209,-173.85 310.86,-263.41 101.86,-87.82 203.72,-177.39 303.83,-268.74 100.12,-91.31 200.24,-184.4 296.82,-277.5 98.37,-93.05 194.96,-187.89 291.54,-284.52 94.84,-94.84 189.68,-191.42 282.78,-289.75 94.84,-98.37 186.19,-196.75 277.5,-296.81 91.3,-100.12 180.92,-201.98 270.48,-303.84 87.82,-103.65 175.64,-207.25 261.67,-310.91 86.07,-105.34 172.1,-210.73 254.65,-317.87 84.33,-105.4 166.87,-214.28 247.67,-321.41 82.55,-108.88 161.56,-219.5 240.61,-330.17 79.01,-110.63 156.28,-221.3 231.8,-333.71 77.32,-114.16 151.05,-226.57 224.83,-340.73 73.78,-115.9 145.77,-230.05 216.02,-347.74 70.24,-115.9 140.49,-233.59 207.25,-351.24 68.5,-117.69 135.22,-237.12 200.18,-356.55 65.02,-121.18 129.99,-240.61 191.48,-363.53 63.22,-121.18 122.91,-244.15 182.66,-367.07 59.69,-122.96 117.64,-247.62 173.84,-372.34 56.21,-126.45 112.42,-251.16 165.09,-377.61 54.47,-126.46 105.4,-254.65 156.33,-382.85 50.93,-128.24 100.11,-256.44 147.51,-386.38 47.44,-129.99 93.09,-259.97 137.01,-391.65 43.91,-131.73 87.82,-263.46 128.19,-395.2 42.17,-133.47 80.8,-265.2 119.43,-400.41 38.64,-133.48 73.79,-268.74 108.88,-403.96 35.15,-135.21 68.51,-270.48 100.12,-407.49 31.61,-136.95 61.48,-273.96 89.56,-410.97 28.13,-138.7 54.47,-275.71 79.06,-414.46 24.6,-140.49 49.19,-279.24 70.25,-419.73 21.06,-140.54 40.37,-281.04 57.95,-421.53 19.31,-142.28 35.15,-282.78 49.18,-425.01 14.04,-142.29 26.34,-286.31 38.64,-428.55 10.55,-144.03 19.31,-288.05 26.33,-432.03 7.02,-144.03 14.04,-289.8 17.58,-433.82 3.53,-145.77 5.28,-291.54 5.28,-437.31 0,-145.77 -1.75,-291.54 -5.28,-437.31 -3.54,-145.77 -10.56,-289.8 -17.58,-433.83 -7.02,-145.77 -15.78,-288.05 -26.33,-432.03 -12.3,-144.03 -24.6,-286.31 -38.64,-428.55 -14.03,-142.28 -29.87,-284.52 -49.18,-425.01 -17.58,-142.28 -36.89,-282.78 -57.95,-423.27 -21.06,-138.75 -45.65,-279.24 -70.25,-417.99 -24.59,-138.75 -50.93,-277.5 -79.06,-414.51 -28.08,-138.75 -57.95,-275.76 -89.56,-412.71 -31.61,-135.27 -64.97,-272.23 -100.12,-407.49 -35.09,-135.22 -70.24,-268.69 -108.88,-403.96 -38.63,-133.47 -77.26,-266.94 -119.43,-398.67 -40.37,-133.48 -84.28,-265.21 -128.19,-396.89 -43.92,-129.98 -89.57,-259.97 -137.01,-389.91 -47.4,-129.99 -96.58,-259.93 -147.51,-388.12 -50.93,-128.25 -101.86,-254.7 -156.33,-381.15 -52.67,-126.46 -108.88,-252.91 -165.09,-377.57 -56.2,-124.71 -114.15,-249.42 -173.84,-372.34 -59.75,-122.97 -119.44,-245.89 -182.66,-368.86 -61.49,-121.17 -126.46,-242.35 -191.48,-361.78 -64.96,-119.44 -131.68,-238.87 -200.18,-356.51 -66.76,-119.44 -137.01,-235.38 -207.25,-353.03 -70.25,-115.89 -142.24,-231.84 -216.02,-346 -73.78,-114.16 -147.51,-228.31 -224.83,-340.73 -75.52,-112.41 -152.79,-224.77 -231.8,-335.45 -79.05,-110.62 -158.06,-219.55 -240.61,-328.43 -80.8,-108.87 -163.34,-216.01 -247.67,-323.15 -82.55,-107.14 -168.58,-212.48 -254.65,-316.13 -86.03,-105.4 -173.85,-209 -261.67,-310.86 -89.56,-101.86 -179.18,-203.72 -270.48,-303.83 -91.31,-100.12 -182.66,-198.45 -277.5,-296.82 -93.1,-98.37 -187.94,-194.96 -282.78,-291.54 -96.58,-94.84 -193.17,-189.68 -291.54,-282.78 -96.58,-94.84 -196.7,-186.14 -296.82,-277.5 -100.11,-91.3 -201.97,-180.87 -303.83,-270.48 -101.86,-87.77 -205.46,-175.59 -310.86,-261.67 -103.6,-86.07 -208.99,-172.1 -316.13,-254.65 -107.14,-84.33 -214.28,-166.87 -323.15,-247.62 -108.88,-82.55 -217.76,-161.61 -328.43,-240.61 -110.63,-79.06 -223.04,-156.33 -335.45,-231.85 -112.42,-75.53 -226.57,-151.05 -340.73,-224.83 -114.16,-73.73 -230.06,-145.77 -346,-216.02 -115.9,-70.24 -233.59,-140.49 -352.98,-207.25 -117.69,-68.45 -237.12,-135.22 -356.56,-200.18 -119.43,-65.02 -240.61,-128.25 -361.78,-191.48 -122.97,-63.22 -244.15,-122.91 -368.81,-182.61 -122.97,-59.74 -247.68,-117.69 -372.34,-173.89 -124.71,-56.21 -251.16,-112.42 -377.62,-165.09 -126.45,-54.47 -252.9,-105.4 -381.1,-156.33 -128.24,-50.93 -258.18,-100.11 -388.17,-147.51 -128.2,-47.44 -259.93,-93.09 -389.86,-137.01 -131.73,-43.91 -263.46,-87.82 -396.94,-128.19 -131.73,-42.17 -265.2,-80.8 -398.67,-119.43 -135.27,-38.64 -268.74,-73.79 -403.96,-108.88 -135.21,-35.15 -272.22,-68.51 -407.49,-100.12 -136.95,-31.61 -273.96,-61.48 -412.71,-89.56 -136.96,-28.13 -275.71,-54.47 -414.46,-79.06 -138.75,-24.6 -279.29,-49.14 -417.99,-70.25 -140.54,-21.06 -281.04,-40.37 -423.27,-57.95 -140.54,-19.31 -282.78,-35.1 -425.06,-49.18 -142.24,-14.04 -284.52,-26.34 -428.5,-38.64 -144.03,-10.5 -286.31,-19.31 -432.08,-26.33 -144.03,-7.02 -288.01,-12.3 -433.78,-17.58 -145.77,-3.48 -291.54,-5.28 -437.36,-5.28l0 0 0 0 0 0 0 0 0 0 0 0 0 0 0 0 0 0 0 0 0 0 0 0 0 0 0 0 0 0 0 0 0 0 0 0 0 0 0 0 0 0 0 0 0 0 0 0 0 0 0 0 0 0 0 0 0 0 0 0 0 0 0 0 0 0 0 0 0 0 0 0 0 0 0 0 0 0 0 0 0 0 0 0 0 0 0 0 0 0 0 0 0 0 0 0 0 0 0 0 0 0 0 0 0 0 0 0 0 0 0 0 0 0 0 0 0 0 0 0 0 0 0 0 0 0 0 0zm0 2112.87c128.25,0 254.7,1.74 382.9,5.23 126.45,3.53 252.9,7.07 379.36,14.09 126.45,7.02 251.16,14.04 377.62,24.59 124.66,8.76 249.37,19.32 374.08,33.36 124.71,12.29 247.63,26.33 370.6,42.11 124.66,15.83 247.62,33.41 370.54,52.73 121.18,17.57 244.15,38.63 365.32,59.69 121.18,21.11 242.36,45.65 363.53,70.24 119.44,24.6 240.61,50.93 360.05,77.32 119.43,28.08 237.12,57.95 356.55,87.77 117.65,31.61 235.34,63.23 353.03,96.63 115.9,33.36 233.59,66.71 349.49,103.6 115.9,36.89 231.84,73.79 346,112.42 114.16,38.63 228.31,79.01 342.47,121.17 112.41,42.17 226.57,84.29 337.19,128.2 112.42,45.7 224.83,91.35 335.45,137.01 110.67,47.44 221.29,94.84 330.17,145.77 108.93,49.18 217.81,100.11 324.95,151.04 108.88,52.68 216.01,107.14 323.15,161.61 105.4,54.41 212.48,110.62 316.13,166.82 105.4,57.95 209,115.9 312.6,175.64 103.65,59.7 207.26,119.44 309.12,180.87 101.86,63.23 201.97,126.46 302.09,189.68 100.12,65.02 200.23,129.99 298.56,196.7 98.37,66.76 196.7,135.27 293.33,203.77 96.58,68.45 193.17,138.75 288.01,210.74 94.84,70.25 189.68,142.23 282.77,216.02 93.1,73.78 186.15,147.51 277.5,223.03 91.31,77.32 182.66,152.84 272.23,230.11 89.56,79 177.38,156.32 265.2,237.07 87.82,79.06 175.64,159.86 261.67,242.4 84.28,82.55 170.36,165.09 254.65,247.63 82.54,84.29 165.13,170.37 247.68,254.65 82.54,86.08 163.29,173.9 242.35,261.67 80.8,87.82 158.07,175.64 237.07,265.2 77.32,89.62 154.59,180.92 230.11,272.23 75.52,91.35 149.25,184.45 223.03,277.5 73.79,93.09 145.77,187.93 216.02,282.77 72.04,94.84 142.29,191.43 210.79,288.06 68.45,96.58 136.96,194.91 203.72,293.28 66.71,98.38 131.73,198.44 196.7,298.56 63.22,100.12 126.45,200.23 189.68,302.09 61.48,101.86 121.17,205.51 180.92,309.12 59.69,103.6 117.64,207.25 175.59,312.6 56.2,103.65 112.41,210.78 166.87,316.13 56.21,107.14 108.88,214.27 161.56,321.41 50.93,108.88 101.86,217.81 151.04,326.69 50.93,108.88 98.38,219.55 145.77,330.17 47.45,110.67 91.36,223.03 137.01,335.45 43.91,110.67 86.03,224.83 128.2,337.19 42.16,114.21 82.54,228.36 121.17,342.52 38.63,114.16 75.53,230.05 112.42,345.95 36.89,115.95 70.24,233.59 103.6,349.54 33.4,117.64 65.02,235.33 96.63,352.98 29.82,119.43 59.69,237.12 87.82,356.55 26.34,119.44 52.67,240.61 77.27,360.05 24.59,121.17 49.18,242.35 70.24,363.53 21.06,121.17 42.17,244.14 61.49,365.32 17.52,122.96 35.1,245.88 50.93,368.8 15.78,124.71 29.82,247.68 42.11,372.34 14.09,124.71 24.6,249.42 33.41,374.08 10.5,126.46 17.52,251.17 24.59,377.62 7.02,126.46 10.51,252.91 14.04,379.36 3.49,128.2 5.28,254.65 5.28,382.9 0,126.45 -1.79,254.65 -5.28,381.1 -3.53,128.19 -7.02,254.65 -14.04,379.36 -7.07,126.45 -14.09,252.9 -24.59,377.62 -8.81,124.66 -19.32,251.11 -33.41,374.08 -12.29,124.71 -26.33,249.37 -42.11,372.34 -15.83,124.71 -33.41,247.63 -50.93,368.8 -19.32,122.97 -40.43,244.15 -61.49,367.07 -21.06,121.17 -45.65,242.4 -70.24,361.78 -24.6,121.23 -50.93,240.61 -77.27,360.05 -28.13,119.43 -58,238.86 -87.82,356.55 -31.61,119.44 -63.23,237.08 -96.63,353.03 -33.36,117.64 -66.71,233.59 -103.6,349.49 -36.89,115.9 -73.79,231.84 -112.42,347.74 -38.63,114.16 -79.01,228.32 -121.17,340.73 -42.17,114.16 -84.29,226.57 -128.2,338.93 -45.65,112.42 -89.56,223.09 -137.01,333.71 -47.39,110.67 -94.84,221.29 -145.77,330.17 -49.18,110.68 -100.11,219.55 -151.04,326.69 -52.68,108.88 -105.35,216.02 -161.56,321.41 -54.46,107.14 -110.67,212.48 -166.87,317.88 -57.95,105.39 -115.9,208.99 -175.59,312.65 -59.75,103.6 -119.44,205.46 -180.92,307.32 -63.23,101.86 -126.46,203.72 -189.68,303.83 -64.97,100.12 -129.99,200.24 -196.7,298.56 -66.76,98.38 -135.27,196.75 -203.72,293.33 -68.5,96.59 -138.75,191.43 -210.79,288.01 -70.25,94.84 -142.23,189.68 -216.02,282.78 -73.78,93.09 -147.51,184.4 -223.03,277.5 -75.52,91.3 -152.79,180.91 -230.11,270.48 -79,89.56 -156.27,179.12 -237.07,266.94 -79.06,87.82 -159.81,173.9 -242.35,259.93 -82.55,86.08 -165.14,170.36 -247.68,254.65 -84.29,84.33 -170.37,166.88 -254.65,249.42 -86.03,80.8 -173.85,161.55 -261.67,242.35 -87.82,79.06 -175.64,158.07 -265.2,235.33 -89.57,79.06 -180.92,154.59 -272.23,230.11 -91.35,75.52 -184.4,151.05 -277.5,223.03 -93.09,73.79 -187.93,145.77 -282.77,217.81 -94.84,70.25 -191.43,140.5 -288.01,210.74 -96.63,68.51 -194.96,135.22 -293.33,201.98 -98.33,66.71 -198.44,133.47 -298.56,196.7 -100.12,64.97 -200.23,128.19 -302.09,189.68 -101.86,61.48 -205.47,122.92 -309.12,182.66 -103.6,59.69 -207.2,117.64 -312.6,175.64 -103.65,56.16 -210.73,112.36 -316.13,166.83 -107.14,54.46 -214.27,107.13 -323.15,159.81 -107.14,52.72 -216.02,103.65 -324.95,152.79 -108.88,49.18 -219.5,98.37 -330.17,144.02 -110.62,47.45 -223.03,93.1 -335.45,137.01 -110.62,45.65 -224.78,87.82 -337.19,129.94 -114.16,40.42 -228.31,80.8 -342.47,119.43 -114.16,40.43 -230.1,77.32 -346,114.16 -115.9,35.15 -233.59,70.24 -349.49,103.65 -117.69,33.36 -235.38,64.97 -353.03,94.84 -119.43,31.61 -237.12,59.69 -356.55,87.82 -119.44,28.08 -240.61,54.42 -360.05,79.01 -121.17,24.59 -242.35,47.44 -363.53,70.25 -121.17,21.1 -244.14,40.42 -365.32,59.74 -122.92,19.31 -245.88,36.89 -370.54,52.67 -122.97,15.83 -245.89,29.87 -370.6,42.17 -124.71,12.29 -249.42,24.59 -374.08,33.35 -126.46,8.76 -251.17,17.58 -377.62,24.6 -126.46,5.27 -252.91,10.55 -379.36,14.04 -128.2,3.53 -254.65,5.27 -382.9,5.27 -128.19,0 -254.65,-1.74 -381.1,-5.27 -128.19,-3.49 -254.65,-8.77 -379.36,-14.04 -126.45,-7.02 -252.9,-15.84 -377.62,-24.6 -124.66,-8.76 -251.11,-21.06 -374.08,-33.35 -124.66,-12.3 -249.37,-26.34 -372.34,-42.17 -122.92,-15.78 -245.84,-33.36 -368.8,-52.67 -122.92,-19.32 -244.15,-38.64 -367.07,-59.74 -121.17,-22.81 -242.35,-45.66 -361.78,-70.25 -121.18,-24.59 -240.61,-50.93 -360.05,-79.01 -119.43,-28.13 -238.86,-56.21 -356.55,-87.82 -119.39,-29.87 -237.08,-61.48 -352.98,-94.84 -117.69,-33.41 -233.59,-68.5 -349.54,-103.65 -115.9,-36.84 -231.79,-73.73 -345.95,-114.16 -115.95,-38.63 -230.11,-79.01 -342.52,-119.43 -114.16,-42.12 -226.52,-84.29 -338.93,-129.94 -112.42,-43.91 -223.04,-89.56 -333.71,-137.01 -110.62,-45.65 -221.29,-94.84 -330.17,-144.02 -110.68,-49.14 -219.55,-100.07 -326.69,-152.79 -108.88,-52.68 -216.02,-105.35 -321.41,-159.81 -107.14,-54.47 -212.48,-110.67 -317.88,-166.83 -105.39,-58 -208.99,-115.95 -312.6,-175.64 -103.65,-59.74 -205.51,-121.18 -307.37,-182.66 -101.86,-61.49 -203.72,-124.71 -303.83,-189.68 -100.12,-63.23 -200.24,-129.99 -298.56,-196.7 -98.38,-66.76 -194.96,-133.47 -293.33,-201.98 -96.59,-70.24 -191.43,-140.49 -288.01,-210.74 -94.84,-72.04 -187.94,-144.02 -282.78,-217.81 -93.09,-71.98 -184.4,-147.51 -277.5,-223.03 -91.3,-75.52 -180.86,-151.05 -270.48,-230.11 -89.56,-77.26 -179.12,-156.27 -266.94,-235.33 -87.82,-80.8 -173.85,-161.55 -259.93,-242.35 -86.08,-82.54 -170.36,-165.09 -254.65,-249.42 -84.33,-84.29 -166.88,-168.57 -249.42,-254.65 -80.75,-86.03 -161.55,-172.11 -242.35,-259.93 -79.01,-87.82 -158.07,-177.38 -235.33,-266.94 -77.27,-89.57 -154.59,-179.18 -230.11,-270.48 -75.52,-93.1 -151,-184.41 -223.03,-277.5 -73.79,-93.1 -145.77,-187.94 -217.76,-282.78 -70.25,-96.58 -140.55,-191.42 -210.79,-288.01 -68.46,-96.58 -135.22,-194.95 -201.98,-293.33 -66.71,-98.32 -133.47,-198.44 -196.7,-298.56 -64.97,-100.11 -128.19,-201.97 -189.68,-303.83 -61.43,-101.86 -122.92,-203.72 -182.66,-307.32 -59.69,-103.66 -117.64,-207.26 -175.59,-312.65 -56.21,-105.4 -112.41,-210.74 -166.88,-317.88 -54.41,-105.39 -107.13,-212.53 -159.81,-321.41 -52.67,-107.14 -103.6,-216.01 -152.79,-326.69 -49.18,-108.88 -98.37,-219.5 -144.02,-330.17 -47.4,-110.62 -93.1,-221.29 -137.01,-333.71 -43.91,-112.36 -87.82,-224.77 -129.94,-338.93 -40.42,-112.41 -80.8,-226.57 -119.43,-340.73 -40.38,-115.9 -77.27,-231.84 -114.16,-347.74 -35.15,-115.9 -70.24,-231.85 -103.65,-349.49 -33.36,-115.95 -64.97,-233.59 -94.84,-353.03 -31.61,-117.69 -59.69,-237.12 -87.77,-356.55 -28.13,-119.44 -54.47,-238.82 -79.06,-360.05 -24.59,-119.38 -47.39,-240.61 -70.25,-361.78 -21.05,-122.92 -40.37,-244.1 -59.69,-367.07 -19.36,-121.17 -36.89,-244.09 -52.72,-368.8 -15.78,-122.97 -29.87,-247.63 -42.12,-372.34 -12.29,-122.97 -22.85,-249.42 -33.4,-374.08 -8.76,-124.72 -17.58,-251.17 -24.6,-377.62 -5.22,-124.71 -10.5,-251.17 -14.04,-379.36 -3.48,-126.45 -5.27,-254.65 -5.27,-381.1 0,-128.25 1.79,-254.7 5.27,-382.9 3.54,-126.45 8.82,-252.9 14.04,-379.36 7.02,-126.45 15.84,-251.16 24.6,-377.62 10.55,-124.66 21.11,-249.37 33.4,-374.08 12.25,-124.66 26.34,-247.63 42.12,-372.34 15.83,-122.92 33.36,-245.84 52.72,-368.8 19.32,-121.18 38.64,-244.15 59.69,-365.32 22.86,-121.18 45.66,-242.36 70.25,-363.53 24.59,-119.44 50.93,-240.61 79.06,-360.05 28.08,-119.43 56.16,-237.12 87.77,-356.55 29.87,-117.65 61.48,-235.34 94.84,-352.98 33.41,-115.95 68.5,-233.59 103.65,-349.54 36.89,-115.9 73.78,-231.79 114.16,-345.95 38.63,-114.16 79.01,-228.31 119.43,-342.52 42.12,-112.36 86.03,-226.52 129.94,-337.19 43.91,-112.42 89.61,-224.78 137.01,-335.45 45.65,-110.62 94.84,-221.29 144.02,-330.17 49.19,-108.88 100.12,-217.81 152.79,-326.69 52.68,-107.14 105.4,-214.27 159.81,-321.41 54.47,-105.35 110.67,-212.48 166.88,-316.13 57.95,-105.35 115.9,-209 175.59,-312.6 59.74,-103.61 121.23,-207.26 182.66,-309.12 61.49,-101.86 124.71,-201.97 189.68,-302.09 63.23,-100.12 129.99,-200.18 196.7,-298.56 66.76,-98.37 133.52,-196.7 201.98,-293.28 70.24,-96.63 140.54,-193.22 210.79,-288.06 71.99,-94.84 143.97,-189.68 217.76,-282.77 72.03,-93.05 147.51,-186.15 223.03,-277.5 75.52,-91.31 152.84,-182.61 230.11,-272.23 77.26,-89.56 156.32,-177.38 235.33,-265.2 80.8,-87.77 161.6,-175.59 242.35,-261.67 82.54,-84.28 165.09,-170.36 249.42,-254.65 84.29,-82.54 168.57,-165.08 254.65,-247.63 86.08,-82.54 172.11,-163.34 259.93,-242.4 87.82,-80.75 177.38,-158.07 266.94,-237.07 89.62,-77.27 179.18,-152.79 270.48,-230.11 93.1,-75.52 184.41,-149.25 277.5,-223.03 94.84,-73.79 187.94,-145.77 282.78,-216.02 96.58,-71.99 191.42,-142.29 288.01,-210.74 98.37,-68.5 194.95,-137.01 293.33,-203.77 98.32,-66.71 198.44,-131.68 298.56,-196.7 100.11,-63.22 201.97,-126.45 303.83,-189.68 101.86,-61.43 203.72,-121.17 307.37,-180.87 103.61,-59.74 207.21,-117.69 312.6,-175.64 105.4,-56.2 210.74,-112.41 317.88,-166.82 105.39,-54.47 212.53,-108.93 321.41,-161.61 107.14,-50.93 216.01,-101.86 326.69,-151.04 108.88,-50.93 219.55,-98.33 330.17,-145.77 110.67,-45.66 221.29,-91.31 333.71,-137.01 112.41,-43.91 224.77,-86.03 338.93,-128.2 112.41,-42.16 226.57,-82.54 342.52,-121.17 114.16,-38.63 230.05,-75.53 345.95,-112.42 115.95,-36.89 231.85,-70.24 349.54,-103.6 115.9,-33.4 233.59,-65.02 352.98,-96.63 117.69,-29.82 237.12,-59.69 356.55,-87.77 119.44,-26.39 238.87,-52.72 360.05,-77.32 119.43,-24.59 240.61,-49.13 361.78,-70.24 122.92,-21.06 244.15,-42.12 367.07,-59.69 122.96,-19.32 245.88,-36.9 368.8,-52.73 122.97,-15.78 247.68,-29.82 372.34,-42.11 122.97,-14.04 249.42,-24.6 374.08,-33.36 124.72,-10.55 251.17,-17.57 377.62,-24.59 124.71,-7.02 251.17,-10.56 379.36,-14.09 126.45,-3.49 252.91,-5.23 381.1,-5.23z"/>
  <polygon fill="black" fill-rule="nonzero" points="23685.44,16934.23 23536.13,16841.13 23386.83,16749.82 23237.57,16656.73 23086.53,16565.37 22937.22,16474.07 22787.97,16380.97 22638.66,16289.66 22489.36,16196.57 22338.31,16105.26 22189.06,16012.16 22039.75,15920.81 21890.5,15827.76 21739.45,15736.41 21590.15,15643.36 21440.89,15552 21291.59,15458.91 21142.28,15367.6 20991.23,15276.29 20841.98,15183.2 20692.68,15091.84 20543.42,14998.79 20394.12,14907.44 20243.07,14814.34 20093.77,14723.04 19944.51,14629.94 19795.21,14538.63 19644.16,14447.28 19494.9,14354.23 19345.6,14262.88 19196.35,14169.83 19047.04,14078.47 18895.99,13985.38 18746.69,13894.07 18597.43,13800.97 18448.13,13709.67 18298.88,13616.57 18147.83,13525.27 17998.52,13432.17 17849.22,13340.81 17699.97,13247.77 17550.66,13156.41 17399.61,13065.11 17250.36,12972.01 17101.05,12880.7 16951.8,12787.6 16800.75,12696.25 16651.45,12603.2 16502.14,12511.85 16352.89,12418.8 16203.59,12327.44 16052.54,12234.35 15903.28,12143.04 15753.98,12049.94 15604.67,11958.64 15455.42,11867.28 15304.37,11774.24 15155.07,11682.88 15005.81,11589.78 14856.51,11498.48 14705.46,11405.38 14556.21,11314.08 14406.9,11220.98 14257.6,11129.67 14108.34,11036.58 14108.34,11220.98 14108.34,11405.38 14108.34,11589.78 14108.34,11774.24 14108.34,11958.64 14108.34,12143.04 14108.34,12327.44 14108.34,12511.85 14108.34,12696.25 14108.34,12880.7 14108.34,13063.36 14108.34,13247.77 14108.34,13432.17 14108.34,13616.57 14108.34,13800.97 14108.34,13985.38 14108.34,14169.83 14108.34,14354.23 14108.34,14538.63 14108.34,14723.04 14108.34,14907.44 14108.34,15091.84 14108.34,15276.29 14108.34,15458.91 14108.34,15643.36 14108.34,15827.76 14108.34,16012.16 14108.34,16196.57 14108.34,16380.97 14108.34,16565.37 14108.34,16749.82 14108.34,16934.23 14108.34,17118.63 14108.34,17303.03 14108.34,17487.43 14108.34,17670.09 14108.34,17854.5 14108.34,18038.9 14108.34,18223.35 14108.34,18407.75 14108.34,18592.16 14108.34,18776.56 14108.34,18960.96 14108.34,19145.37 14108.34,19329.82 14108.34,19514.22 14108.34,19698.62 14108.34,19883.03 14108.34,20067.43 14108.34,20250.09 14108.34,20434.49 14108.34,20618.94 14108.34,20803.35 14108.34,20987.75 14108.34,21172.15 14108.34,21356.56 14108.34,21540.96 14108.34,21725.41 14108.34,21909.81 14108.34,22094.22 14108.34,22276.88 14108.34,22461.28 14108.34,22645.68 14108.34,22830.08 14257.6,22738.78 14406.9,22645.68 14556.21,22554.38 14705.46,22461.28 14856.51,22369.92 15005.81,22276.88 15155.07,22185.52 15304.37,22094.22 15455.42,22001.12 15604.67,21909.81 15753.98,21816.72 15903.28,21725.41 16052.54,21632.31 16203.59,21540.96 16352.89,21447.91 16502.14,21356.56 16651.45,21263.46 16800.75,21172.15 16951.8,21080.85 17101.05,20987.75 17250.36,20896.39 17399.61,20803.35 17550.66,20711.99 17699.97,20618.94 17849.22,20527.59 17998.52,20434.49 18147.83,20343.19 18298.88,20250.09 18448.13,20158.78 18597.43,20067.43 18746.69,19974.38 18895.99,19883.03 19047.04,19789.93 19196.35,19698.62 19345.6,19605.53 19494.9,19514.22 19644.16,19421.12 19795.21,19329.82 19944.51,19236.72 20093.77,19145.37 20243.07,19052.32 20394.12,18960.96 20543.42,18867.92 20692.68,18776.56 20841.98,18685.26 20991.23,18592.16 21142.28,18500.85 21291.59,18407.75 21440.89,18316.4 21590.15,18223.35 21739.45,18132 21890.5,18038.9 22039.75,17947.59 22189.06,17854.5 22338.31,17763.19 22489.36,17671.84 22638.66,17578.79 22787.97,17487.43 22937.22,17394.39 23086.53,17303.03 23237.57,17209.93 23386.83,17118.63 23536.13,17025.53 "/>
  <polygon fill="black" fill-rule="nonzero" points="17559.47,16934.23 17408.43,16841.13 17259.12,16749.82 17109.87,16656.73 16960.56,16565.37 16809.52,16474.07 16660.21,16380.97 16510.96,16289.66 16361.65,16196.57 16212.4,16105.26 16061.35,16012.16 15912.05,15920.81 15762.74,15827.76 15613.49,15736.41 15464.18,15643.36 15313.14,15552 15163.88,15458.91 15014.58,15367.6 14865.32,15276.29 14714.27,15183.2 14564.97,15091.84 14415.67,14998.79 14266.41,14907.44 14117.11,14814.34 13966.06,14723.04 13816.8,14629.94 13667.5,14538.63 13518.2,14447.28 13368.94,14354.23 13217.89,14262.88 13068.59,14169.83 12919.34,14078.47 12770.03,13985.38 12620.78,13894.07 12469.73,13800.97 12320.42,13709.67 12171.12,13616.57 12021.87,13525.27 11870.82,13432.17 11721.51,13340.81 11572.26,13247.77 11422.96,13156.41 11273.65,13065.11 11122.65,12972.01 10973.35,12880.7 10824.04,12787.6 10674.79,12696.25 10525.49,12603.2 10374.44,12511.85 10225.18,12418.8 10075.88,12327.44 9926.58,12234.35 9775.58,12143.04 9626.27,12049.94 9476.97,11958.64 9327.71,11867.28 9178.41,11774.24 9027.36,11682.88 8878.11,11589.78 8728.8,11498.48 8579.5,11405.38 8430.24,11314.08 8279.2,11220.98 8129.89,11129.67 7980.64,11036.58 7980.64,11220.98 7980.64,11405.38 7980.64,11589.78 7980.64,11774.24 7980.64,11958.64 7980.64,12143.04 7980.64,12327.44 7980.64,12511.85 7980.64,12696.25 7980.64,12880.7 7980.64,13063.36 7980.64,13247.77 7980.64,13432.17 7980.64,13616.57 7980.64,13800.97 7980.64,13985.38 7980.64,14169.83 7980.64,14354.23 7980.64,14538.63 7980.64,14723.04 7980.64,14907.44 7980.64,15091.84 7980.64,15276.29 7980.64,15458.91 7980.64,15643.36 7980.64,15827.76 7980.64,16012.16 7980.64,16196.57 7980.64,16380.97 7980.64,16565.37 7980.64,16749.82 7980.64,16934.23 7980.64,17118.63 7980.64,17303.03 7980.64,17487.43 7980.64,17670.09 7980.64,17854.5 7980.64,18038.9 7980.64,18223.35 7980.64,18407.75 7980.64,18592.16 7980.64,18776.56 7980.64,18960.96 7980.64,19145.37 7980.64,19329.82 7980.64,19514.22 7980.64,19698.62 7980.64,19883.03 7980.64,20067.43 7980.64,20250.09 7980.64,20434.49 7980.64,20618.94 7980.64,20803.35 7980.64,20987.75 7980.64,21172.15 7980.64,21356.56 7980.64,21540.96 7980.64,21725.41 7980.64,21909.81 7980.64,22094.22 7980.64,22276.88 7980.64,22461.28 7980.64,22645.68 7980.64,22830.08 8129.89,22738.78 8279.2,22645.68 8430.24,22554.38 8579.5,22461.28 8728.8,22369.92 8878.11,22276.88 9027.36,22185.52 9178.41,22094.22 9327.71,22001.12 9476.97,21909.81 9626.27,21816.72 9775.58,21725.41 9926.58,21632.31 10075.88,21540.96 10225.18,21447.91 10374.44,21356.56 10525.49,21263.46 10674.79,21172.15 10824.04,21080.85 10973.35,20987.75 11122.65,20896.39 11273.65,20803.35 11422.96,20711.99 11572.26,20618.94 11721.51,20527.59 11870.82,20434.49 12021.87,20343.19 12171.12,20250.09 12320.42,20158.78 12469.73,20067.43 12620.78,19974.38 12770.03,19883.03 12919.34,19789.93 13068.59,19698.62 13217.89,19605.53 13368.94,19514.22 13518.2,19421.12 13667.5,19329.82 13816.8,19236.72 13966.06,19145.37 14117.11,19052.32 14266.41,18960.96 14415.67,18867.92 14564.97,18776.56 14714.27,18685.26 14865.32,18592.16 15014.58,18500.85 15163.88,18407.75 15313.14,18316.4 15464.18,18223.35 15613.49,18132 15762.74,18038.9 15912.05,17947.59 16061.35,17854.5 16212.4,17763.19 16361.65,17671.84 16510.96,17578.79 16660.21,17487.43 16809.52,17394.39 16960.56,17303.03 17109.87,17209.93 17259.12,17118.63 17408.43,17025.53 "/>
  <polygon fill="black" fill-rule="nonzero" points="25886.07,22830.08 22866.97,22830.08 22866.97,11036.58 25886.07,11036.58 25886.07,11220.98 25886.07,11405.38 25886.07,11589.78 25886.07,11774.24 25886.07,11958.64 25886.07,12143.04 25886.07,12327.44 25886.07,12511.85 25886.07,12696.25 25886.07,12880.7 25886.07,13063.36 25886.07,13247.77 25886.07,13432.17 25886.07,13616.57 25886.07,13800.97 25886.07,13985.38 25886.07,14169.83 25886.07,14354.23 25886.07,14538.63 25886.07,14723.04 25886.07,14907.44 25886.07,15091.84 25886.07,15276.29 25886.07,15458.91 25886.07,15643.36 25886.07,15827.76 25886.07,16012.16 25886.07,16196.57 25886.07,16380.97 25886.07,16565.37 25886.07,16749.82 25886.07,16934.23 25886.07,17118.63 25886.07,17303.03 25886.07,17487.43 25886.07,17670.09 25886.07,17854.5 25886.07,18038.9 25886.07,18223.35 25886.07,18407.75 25886.07,18592.16 25886.07,18776.56 25886.07,18960.96 25886.07,19145.37 25886.07,19329.82 25886.07,19514.22 25886.07,19698.62 25886.07,19883.03 25886.07,20067.43 25886.07,20250.09 25886.07,20434.49 25886.07,20618.94 25886.07,20803.35 25886.07,20987.75 25886.07,21172.15 25886.07,21356.56 25886.07,21540.96 25886.07,21725.41 25886.07,21909.81 25886.07,22094.22 25886.07,22276.88 25886.07,22461.28 25886.07,22645.68 "/>
 </g>
</svg>
