<?xml version="1.0" encoding="UTF-8"?>
<!DOCTYPE svg PUBLIC "-//W3C//DTD SVG 1.1//EN" "http://www.w3.org/Graphics/SVG/1.1/DTD/svg11.dtd">
<!-- Creator: CorelDRAW 2026 -->
<svg xmlns="http://www.w3.org/2000/svg" xml:space="preserve" width="338.667mm" height="338.667mm" version="1.1" shape-rendering="geometricPrecision" text-rendering="geometricPrecision" image-rendering="optimizeQuality" fill-rule="evenodd" clip-rule="evenodd"
viewBox="0 0 33866.66 33866.66"
 xmlns:xlink="http://www.w3.org/1999/xlink"
 xmlns:xodm="http://www.corel.com/coreldraw/odm/2003">
 <g id="Camada_x0020_1">
  <metadata id="CorelCorpID_0Corel-Layer"/>
  <path fill="black" fill-rule="nonzero" d="M16933.5 0c-146.12,0 -291.89,1.79 -437.16,5.27 -145.22,3.54 -289.94,8.76 -434.31,15.83 -144.38,8.77 -288.2,17.53 -431.53,28.08 -143.28,10.56 -286.06,22.85 -428.35,38.64 -142.43,14.03 -284.17,29.87 -425.35,47.44 -141.39,17.52 -282.08,38.63 -422.22,59.69 -140.15,21.06 -279.59,43.91 -418.69,68.51 -138.95,26.33 -277.3,52.67 -415.2,80.8 -137.7,28.08 -274.86,57.95 -411.47,89.56 -136.45,31.61 -272.42,64.97 -407.83,98.32 -135.21,35.15 -269.78,72.04 -403.75,110.68 -133.82,36.89 -267.14,77.26 -399.72,117.69 -132.62,42.11 -264.35,84.28 -395.53,128.19 -131.18,45.66 -261.52,91.31 -391.31,138.75 -129.58,47.4 -258.53,96.58 -386.72,147.51 -128.19,49.19 -255.54,101.86 -382.14,154.59 -126.65,54.41 -252.56,108.88 -377.62,166.83 -124.86,56.2 -249.22,114.15 -372.53,173.84 -123.47,58 -245.89,119.44 -367.56,182.66 -121.72,61.49 -242.55,124.71 -362.53,189.68 -120.13,66.76 -239.16,133.48 -357.4,200.24 -118.19,68.5 -235.33,137.01 -351.77,208.99 -116.45,70.25 -231.8,142.29 -346.35,216.02 -114.51,73.78 -228.11,147.56 -340.68,223.04 -112.61,77.31 -224.28,154.58 -334.95,233.59 -110.62,77.31 -220.24,158.06 -328.92,238.86 -108.73,82.55 -216.41,165.09 -323,247.63 -106.59,84.34 -212.18,168.62 -316.68,254.7 -104.64,87.82 -208.1,173.85 -310.5,263.41 -102.36,87.82 -203.72,179.18 -303.98,270.48 -100.32,89.57 -199.34,182.66 -297.37,275.76 -97.97,93.05 -194.95,187.89 -290.64,284.52 -95.88,94.84 -190.37,191.42 -283.82,289.8 -93.44,98.32 -185.84,198.44 -277,298.56 -90.95,100.11 -180.86,200.18 -269.73,303.83 -88.71,101.86 -176.18,205.46 -262.41,309.12 -86.23,105.34 -171.41,210.73 -255.19,317.87 -83.74,107.14 -166.28,214.28 -247.43,323.15 -81.35,108.88 -161.25,217.81 -240.11,328.43 -78.66,110.68 -155.92,223.04 -231.99,335.45 -76.22,112.42 -150.85,224.83 -224.28,340.73 -73.38,114.16 -145.57,230.06 -216.22,346 -70.74,115.9 -140.14,233.59 -208.09,351.24 -67.96,119.43 -134.52,237.12 -199.69,358.3 -65.17,119.43 -128.89,240.61 -191.27,361.78 -62.33,121.18 -123.26,244.15 -182.66,367.07 -59.54,124.71 -117.49,247.62 -174.04,374.08 -56.36,124.71 -111.52,249.42 -165.09,375.87 -53.57,128.2 -105.54,254.65 -156.12,382.85 -50.58,128.24 -99.57,256.44 -147.01,386.38 -47.4,129.99 -93.45,259.97 -137.86,391.65 -44.25,131.73 -87.12,263.46 -128.39,395.2 -41.27,133.47 -80.8,266.94 -118.88,400.41 -38.14,133.48 -74.48,268.74 -109.23,403.96 -34.8,135.26 -68.01,270.48 -99.62,407.49 -31.41,136.95 -61.28,273.96 -89.56,410.97 -28.08,138.75 -54.61,277.45 -79.56,416.2 -24.74,138.75 -47.94,277.5 -69.35,418.04 -21.45,140.49 -41.12,280.99 -59.04,421.48 -17.92,142.28 -34.05,284.52 -48.64,426.8 -14.39,142.24 -27.03,284.52 -37.93,428.5 -10.91,142.29 -20.02,286.31 -27.39,430.34 -7.36,143.98 -12.84,289.75 -16.52,435.52 -3.69,144.02 -5.63,289.79 -5.63,435.56 0,147.57 1.94,293.34 5.63,437.31 3.68,145.82 9.16,289.8 16.52,435.57 7.37,144.03 16.48,288.05 27.39,430.29 10.9,144.03 23.54,286.31 37.93,428.55 14.59,142.28 30.72,284.52 48.64,425.01 17.92,142.28 37.59,282.78 59.04,423.27 21.41,138.75 44.61,279.29 69.35,417.99 24.95,138.75 51.48,277.5 79.56,414.51 28.28,138.75 58.15,275.76 89.56,412.71 31.61,137.01 64.82,272.23 99.62,407.49 34.75,135.22 71.09,270.48 109.23,403.96 38.08,133.47 77.61,266.94 118.88,398.67 41.27,133.48 84.14,265.21 128.39,396.89 44.41,129.98 90.46,261.71 137.86,389.91 47.44,129.99 96.43,259.93 147.01,388.17 50.58,128.2 102.55,254.65 156.12,381.1 53.57,126.46 108.73,252.91 165.09,377.62 56.55,124.66 114.5,249.37 174.04,372.29 59.4,124.71 120.33,245.89 182.66,368.86 62.38,121.17 126.1,242.35 191.27,361.78 65.17,119.44 131.73,238.87 199.69,358.3 67.95,117.65 137.35,235.34 208.09,351.24 70.65,115.94 142.84,231.84 216.22,346 73.43,114.16 148.06,228.31 224.28,340.73 76.07,112.41 153.33,224.77 231.99,335.45 78.86,110.62 158.76,219.55 240.11,328.43 81.15,108.87 163.69,216.01 247.43,323.15 83.78,107.14 168.96,212.53 255.19,316.13 86.23,105.4 173.7,209 262.41,310.86 88.87,101.86 178.78,203.72 269.73,303.83 91.16,100.12 183.56,200.24 277,298.56 93.45,96.63 187.94,194.96 283.82,289.8 95.69,96.58 192.67,189.68 290.64,284.52 98.03,93.1 197.05,184.4 297.37,275.76 100.26,91.3 201.62,180.87 303.98,270.48 102.4,87.77 205.86,175.59 310.5,261.67 104.5,86.07 210.09,172.1 316.68,256.44 106.59,82.54 214.27,165.08 323,247.63 108.68,80.75 218.3,159.81 328.92,238.81 110.67,79.06 222.34,156.33 334.95,231.85 112.57,77.27 226.17,151.05 340.68,224.83 114.55,73.73 229.9,145.77 346.35,216.02 116.44,70.24 233.58,140.49 351.77,208.99 118.24,66.71 237.27,133.48 357.4,198.44 119.98,65.02 240.81,129.99 362.53,191.48 121.67,63.22 244.09,122.91 367.56,182.66 123.31,59.69 247.67,117.64 372.53,173.84 125.06,57.95 250.97,112.42 377.62,165.09 126.6,54.47 253.95,105.4 382.14,156.33 128.19,50.93 257.14,100.11 386.72,147.51 129.79,47.44 260.13,93.09 391.31,137.01 131.18,45.65 262.91,87.82 395.53,129.93 132.58,40.43 265.9,80.8 399.72,117.69 133.97,38.64 268.54,75.53 403.75,110.63 135.41,33.4 271.38,66.76 407.83,98.37 136.61,31.61 273.77,61.48 411.47,89.56 137.9,28.13 276.25,54.47 415.2,79.06 139.1,26.34 278.54,49.14 418.69,70.25 140.14,21.06 280.83,40.37 422.22,59.69 141.18,17.57 282.92,33.41 425.35,47.44 142.29,15.79 285.07,28.08 428.35,38.64 143.33,10.55 287.15,19.31 431.53,28.08 144.37,7.02 289.09,12.29 434.31,15.83 145.27,3.48 291.04,5.28 437.16,5.28 146.12,0 291.73,-1.8 436.96,-5.28 145.27,-3.54 290.14,-8.81 434.31,-15.83 144.38,-8.77 288.2,-17.53 431.53,-28.08 143.33,-10.56 286.11,-22.85 428.55,-38.64 142.23,-14.03 283.96,-29.87 425.35,-47.44 141.19,-19.32 281.88,-38.63 422.02,-59.69 140.2,-21.11 279.64,-43.91 418.74,-70.25 138.9,-24.59 277.3,-50.93 415.15,-79.06 137.7,-28.08 274.86,-57.95 411.52,-89.56 136.45,-31.61 272.36,-64.97 407.63,-98.37 135.41,-35.1 269.93,-71.99 403.95,-110.63 133.82,-36.89 267.09,-77.26 399.72,-117.69 132.42,-42.11 264.3,-84.28 395.48,-129.93 131.23,-43.92 261.52,-89.57 391.31,-137.01 129.63,-47.4 258.53,-96.58 386.77,-147.51 128.19,-50.93 255.49,-101.86 382.14,-156.33 126.6,-52.67 252.36,-107.14 377.42,-165.09 125.06,-56.2 249.22,-114.15 372.68,-173.84 123.32,-59.75 245.89,-119.44 367.61,-182.66 121.72,-61.49 242.55,-126.46 362.48,-191.48 119.98,-64.96 239.01,-131.73 357.25,-198.44 118.19,-68.5 235.48,-138.75 351.92,-208.99 116.3,-70.25 231.85,-142.29 346.35,-216.02 114.51,-73.78 227.97,-147.56 340.73,-224.83 112.56,-75.52 224.08,-152.79 334.75,-231.85 110.82,-79 220.39,-158.06 329.12,-238.81 108.53,-82.55 216.21,-165.09 322.8,-247.63 106.59,-84.34 212.33,-170.37 316.83,-256.44 104.49,-86.08 207.95,-173.9 310.5,-261.67 102.41,-89.61 203.72,-179.18 303.83,-270.48 100.32,-91.36 199.54,-182.66 297.51,-275.76 98.03,-94.84 194.96,-187.94 290.7,-284.52 95.68,-94.84 190.37,-193.17 283.81,-289.8 93.4,-98.32 185.8,-198.44 276.76,-298.56 91.15,-100.11 181.11,-201.97 269.78,-303.83 88.71,-101.86 176.13,-205.46 262.56,-310.86 86.22,-103.6 171.26,-208.99 254.99,-316.13 83.79,-107.14 166.33,-214.28 247.68,-323.15 81.3,-108.88 161.2,-217.81 239.91,-328.43 78.66,-110.68 156.12,-223.04 232.14,-335.45 76.07,-112.42 150.9,-226.57 224.28,-340.73 73.43,-114.16 145.42,-230.06 216.21,-346 70.8,-115.9 140,-233.59 207.95,-351.24 67.96,-119.43 134.52,-238.86 199.84,-358.3 65.16,-119.43 128.94,-240.61 191.27,-361.78 62.18,-122.97 123.11,-244.15 182.66,-368.86 59.39,-122.92 117.49,-247.63 173.89,-372.29 56.56,-124.71 111.67,-251.16 165.24,-377.62 53.56,-126.45 105.54,-252.9 156.12,-381.1 50.43,-128.24 99.62,-258.18 147.01,-388.17 47.45,-128.2 93.45,-259.93 137.91,-389.91 44.25,-131.68 87.07,-263.41 128.34,-396.89 41.27,-131.73 80.8,-265.2 118.93,-398.67 37.94,-133.48 74.43,-268.74 109.23,-403.96 34.75,-135.26 67.96,-270.48 99.57,-407.49 31.46,-136.95 61.28,-273.96 89.56,-412.71 28.13,-137.01 54.61,-275.76 79.56,-414.51 24.79,-138.7 47.94,-279.24 69.4,-417.99 21.25,-140.49 41.07,-280.99 58.99,-423.27 17.92,-140.49 34.1,-282.73 48.64,-425.01 14.44,-142.24 27.08,-284.52 37.93,-428.55 10.91,-142.24 20.07,-286.26 27.44,-430.29 7.36,-145.77 12.79,-289.75 16.47,-435.57 3.69,-143.97 5.48,-289.74 5.48,-437.31 0,-145.77 -1.79,-291.54 -5.48,-435.56 -3.68,-145.77 -9.11,-291.54 -16.47,-435.52 -7.37,-144.03 -16.53,-288.05 -27.44,-430.34 -10.85,-143.98 -23.49,-286.26 -37.93,-428.5 -14.54,-142.28 -30.72,-284.52 -48.64,-426.8 -17.92,-140.49 -37.74,-280.99 -58.99,-421.48 -21.46,-140.54 -44.61,-279.29 -69.4,-418.04 -24.95,-138.75 -51.43,-277.45 -79.56,-416.2 -28.28,-137.01 -58.1,-274.02 -89.56,-410.97 -31.61,-137.01 -64.82,-272.23 -99.57,-407.49 -34.8,-135.22 -71.29,-270.48 -109.23,-403.96 -38.13,-133.47 -77.66,-266.94 -118.93,-400.41 -41.27,-131.74 -84.09,-263.47 -128.34,-395.2 -44.46,-131.68 -90.46,-261.66 -137.91,-391.65 -47.39,-129.94 -96.58,-258.14 -147.01,-386.38 -50.58,-128.2 -102.56,-254.65 -156.12,-382.85 -53.57,-126.45 -108.68,-251.16 -165.24,-375.87 -56.4,-126.46 -114.5,-249.37 -173.89,-374.08 -59.55,-122.92 -120.48,-245.89 -182.66,-367.07 -62.33,-121.17 -126.11,-242.35 -191.27,-361.78 -65.32,-121.18 -131.88,-238.87 -199.84,-358.3 -67.95,-117.65 -137.15,-235.34 -207.95,-351.24 -70.79,-115.94 -142.78,-231.84 -216.21,-346 -73.38,-115.9 -148.21,-228.31 -224.28,-340.73 -76.02,-112.41 -153.48,-224.77 -232.14,-335.45 -78.71,-110.62 -158.61,-219.55 -239.91,-328.43 -81.35,-108.87 -163.89,-216.01 -247.68,-323.15 -83.73,-107.14 -168.77,-212.53 -254.99,-317.87 -86.43,-103.66 -173.85,-207.26 -262.56,-309.12 -88.67,-103.65 -178.63,-203.72 -269.78,-303.83 -90.96,-100.12 -183.36,-200.24 -276.76,-298.56 -93.44,-98.38 -188.13,-194.96 -283.81,-289.8 -95.74,-96.63 -192.67,-191.47 -290.7,-284.52 -97.97,-93.1 -197.19,-186.19 -297.51,-275.76 -100.11,-91.3 -201.42,-182.66 -303.83,-270.48 -102.55,-89.56 -206.01,-175.59 -310.5,-263.41 -104.5,-86.08 -210.24,-170.36 -316.83,-254.7 -106.59,-82.54 -214.27,-165.08 -322.8,-247.63 -108.73,-80.8 -218.3,-161.55 -329.12,-238.86 -110.67,-79.01 -222.19,-156.28 -334.75,-233.59 -112.76,-75.48 -226.22,-149.26 -340.73,-223.04 -114.5,-73.73 -230.05,-145.77 -346.35,-216.02 -116.44,-71.98 -233.73,-140.49 -351.92,-208.99 -118.24,-66.76 -237.27,-133.48 -357.25,-200.24 -119.93,-64.97 -240.76,-128.19 -362.48,-189.68 -121.72,-63.22 -244.29,-124.66 -367.61,-182.66 -123.46,-59.69 -247.62,-117.64 -372.68,-173.84 -125.06,-57.95 -250.82,-112.42 -377.42,-166.83 -126.65,-52.73 -253.95,-105.4 -382.14,-154.59 -128.24,-50.93 -257.14,-100.11 -386.77,-147.51 -129.79,-47.44 -260.08,-93.09 -391.31,-138.75 -131.18,-43.91 -263.06,-86.08 -395.48,-128.19 -132.63,-40.43 -265.9,-80.8 -399.72,-117.69 -134.02,-38.64 -268.54,-75.53 -403.95,-110.68 -135.27,-33.35 -271.18,-66.71 -407.63,-98.32 -136.66,-31.61 -273.82,-61.48 -411.52,-89.56 -137.85,-28.13 -276.25,-54.47 -415.15,-80.8 -139.1,-24.6 -278.54,-47.45 -418.74,-68.51 -140.14,-21.06 -280.83,-42.17 -422.02,-59.69 -141.39,-17.57 -283.12,-33.41 -425.35,-47.44 -142.44,-15.79 -285.22,-28.08 -428.55,-38.64 -143.33,-10.55 -287.15,-19.31 -431.53,-28.08 -144.17,-7.07 -289.04,-12.29 -434.31,-15.83 -145.23,-3.48 -290.84,-5.27 -436.96,-5.27l0 0 0 0 0 0 0 0 0 0 0 0 0 0 0 0 0 0 0 0 0 0 0 0 0 0 0 0 0 0 0 0 0 0 0 0 0 0 0 0 0 0 0 0 0 0 0 0 0 0 0 0 0 0 0 0 0 0 0 0 0 0 0 0 0 0 0 0 0 0 0 0 0 0 0 0 0 0 0 0 0 0 0 0 0 0 0 0 0 0 0 0 0 0 0 0 0 0 0 0 0 0 0 0 0 0 0 0 0 0 0 0 0 0 0 0 0 0 0 0 0 0 0 0 0 0 0 0zm0 2112.81c127.7,0 254.99,1.79 381.79,3.53 127,3.54 253.66,8.77 379.71,15.79 126.1,5.27 251.86,14.09 377.11,22.85 125.21,10.55 250.07,21.06 374.58,33.35 124.36,12.3 248.37,28.13 371.84,43.91 123.46,14.09 246.38,31.62 369,50.93 122.37,19.32 244.44,38.69 365.96,61.49 121.58,21.06 242.55,43.91 363.03,68.5 120.48,24.59 240.46,50.93 359.89,79.01 119.43,28.13 238.32,56.21 356.51,87.82 118.38,29.87 236.02,61.48 353.17,94.84 117.14,33.41 233.78,68.5 349.68,105.39 115.95,35.15 231.3,73.79 346,112.42 114.7,38.63 228.86,79.01 342.32,121.17 113.45,40.38 226.17,84.29 338.43,128.2 112.01,43.91 223.58,89.56 334.4,137.01 110.62,47.39 220.74,94.84 330.17,144.02 109.43,49.14 218.1,100.07 326.14,152.79 107.83,52.68 215.11,105.35 321.55,159.81 106.64,54.47 212.33,110.67 317.38,168.62 104.84,56.21 209.19,114.16 312.59,173.85 103.45,59.74 206.01,121.18 307.92,182.66 101.86,61.49 203.02,124.71 303.28,189.68 100.12,64.97 199.54,129.99 298.21,196.7 98.52,66.76 196.2,133.47 293.13,203.77 96.93,68.45 192.86,138.7 288.05,209 95.19,71.99 189.33,143.97 282.73,217.76 93.29,73.78 185.84,147.51 277.34,223.03 91.51,75.52 182.11,152.79 271.88,230.11 89.56,77.26 178.22,156.27 266.04,235.33 87.82,80.8 174.6,161.55 260.47,242.35 85.88,82.54 170.71,165.09 254.65,249.42 83.79,84.29 166.68,168.57 248.52,254.65 81.85,86.08 162.65,172.11 242.55,259.93 79.76,87.82 158.42,177.38 236.23,266.94 77.61,89.57 154.38,179.18 229.9,272.23 75.52,91.35 149.95,182.66 223.38,277.5 73.44,93.09 145.77,186.19 216.91,281.03 71.29,96.58 141.39,191.42 210.24,288.01 69,98.37 136.81,194.95 203.37,293.33 66.71,100.07 132.23,198.44 196.5,298.56 64.27,100.11 127.5,201.97 189.53,303.83 61.98,101.86 122.77,203.72 182.31,307.32 59.54,103.66 117.84,207.26 174.89,312.65 57.1,105.4 112.96,210.74 167.57,317.88 54.62,107.14 107.99,214.27 160.16,321.41 52.17,108.88 102.9,216.01 152.44,326.69 49.53,108.88 97.82,219.5 144.72,330.17 46.9,110.62 92.55,221.29 136.81,333.71 44.46,112.36 87.32,224.77 128.94,338.93 41.62,112.41 81.99,226.57 120.83,342.47 38.78,114.21 76.37,230.1 112.56,346 36.19,115.95 70.94,231.85 104.35,349.49 33.15,115.95 65.11,235.38 95.68,353.03 30.57,117.69 59.54,237.12 87.27,356.55 27.58,119.44 53.77,238.82 78.51,360.05 24.8,119.43 47.94,240.61 69.75,361.78 21.76,122.92 41.97,244.1 60.79,367.07 18.77,122.92 35.99,245.88 51.77,368.8 15.83,122.97 30.02,247.63 42.67,372.34 12.64,124.71 23.74,249.42 33.4,374.08 9.46,124.72 17.58,251.17 23.9,377.62 6.47,126.46 11.2,252.91 14.54,379.36 3.18,126.45 4.78,254.65 4.78,381.1 0,128.25 -1.6,256.45 -4.78,382.9 -3.34,126.45 -8.07,252.9 -14.54,379.36 -6.32,126.45 -14.44,251.16 -23.9,377.62 -9.66,124.66 -20.76,249.37 -33.4,374.08 -12.65,124.66 -26.84,247.63 -42.67,372.34 -15.78,122.92 -33,245.88 -51.77,368.8 -18.82,122.92 -39.03,244.15 -60.79,365.32 -21.81,121.18 -44.95,242.36 -69.75,363.53 -24.74,121.18 -50.93,240.61 -78.51,360.05 -27.73,119.43 -56.7,238.86 -87.27,356.55 -30.57,117.65 -62.53,235.34 -95.68,352.98 -33.41,117.69 -68.16,233.59 -104.35,349.54 -36.19,115.9 -73.78,231.79 -112.56,345.95 -38.84,114.16 -79.21,228.36 -120.83,342.52 -41.62,114.16 -84.48,226.52 -128.94,338.93 -44.26,110.68 -89.91,223.04 -136.81,333.71 -46.9,110.62 -95.19,221.29 -144.72,330.17 -49.54,108.88 -100.27,217.81 -152.44,326.69 -52.17,107.14 -105.54,214.27 -160.16,321.41 -54.61,107.14 -110.47,212.48 -167.57,317.88 -57.05,103.6 -115.35,208.99 -174.89,312.6 -59.54,101.9 -120.33,205.51 -182.31,307.37 -62.03,101.86 -125.26,201.97 -189.53,303.83 -64.27,100.12 -129.79,198.44 -196.5,296.82 -66.56,98.37 -134.37,196.7 -203.37,293.28 -68.85,96.63 -138.95,193.22 -210.24,288.06 -71.14,94.84 -143.47,189.68 -216.91,282.77 -73.43,93.05 -147.86,186.15 -223.38,277.5 -75.52,91.31 -152.29,182.61 -229.9,272.23 -77.81,89.56 -156.47,179.12 -236.23,266.94 -79.9,87.82 -160.7,173.85 -242.55,259.93 -81.84,86.08 -164.73,170.36 -248.52,254.65 -83.94,84.33 -168.77,166.88 -254.65,247.63 -85.87,82.54 -172.65,163.34 -260.47,242.4 -87.82,80.8 -176.48,159.81 -266.04,237.07 -89.77,77.27 -180.37,154.59 -271.88,230.11 -91.5,75.52 -184.05,149.25 -277.34,223.03 -93.4,73.79 -187.54,145.77 -282.73,217.76 -95.19,70.25 -191.12,140.55 -288.05,209 -96.93,68.5 -194.61,137.01 -293.13,203.77 -98.67,66.71 -198.09,131.68 -298.21,196.7 -100.26,64.97 -201.42,126.45 -303.28,189.68 -101.91,61.43 -204.47,122.92 -307.92,182.66 -103.4,57.95 -207.75,117.64 -312.59,173.85 -105.05,57.95 -210.74,114.15 -317.38,168.62 -106.44,54.41 -213.72,107.13 -321.55,159.81 -108.04,50.93 -216.71,101.86 -326.14,152.79 -109.43,49.18 -219.55,96.63 -330.17,144.02 -110.82,47.45 -222.39,93.1 -334.4,137.01 -112.26,43.91 -224.98,87.82 -338.43,128.2 -113.46,42.16 -227.62,82.54 -342.32,121.17 -114.7,38.63 -230.05,77.27 -346,112.42 -115.9,36.89 -232.54,71.98 -349.68,105.39 -117.15,33.36 -234.79,64.97 -353.17,94.84 -118.19,29.82 -237.08,59.69 -356.51,87.77 -119.43,28.13 -239.41,52.72 -359.89,77.32 -120.48,26.33 -241.45,49.13 -363.03,70.24 -121.52,22.8 -243.59,42.17 -365.96,61.49 -122.62,19.31 -245.54,35.1 -369,50.93 -123.47,15.78 -247.48,29.82 -371.84,43.91 -124.51,12.24 -249.37,22.8 -374.58,33.35 -125.25,8.76 -251.01,17.58 -377.11,22.8 -126.05,7.07 -252.71,12.3 -379.71,14.09 -126.8,3.49 -254.09,5.23 -381.79,5.23 -127.7,0 -255,-1.74 -382,-5.23 -126.94,-1.79 -253.4,-7.02 -379.5,-14.09 -126.1,-5.22 -251.86,-14.04 -377.12,-22.8 -125.35,-10.55 -250.26,-21.11 -374.57,-33.35 -124.36,-14.09 -248.38,-28.13 -371.84,-43.91 -123.47,-15.83 -246.58,-31.62 -368.95,-50.93 -122.62,-19.32 -244.69,-38.69 -366.21,-61.49 -121.53,-21.11 -242.55,-43.91 -363.03,-70.24 -120.48,-24.6 -240.41,-49.19 -359.84,-77.32 -119.43,-28.08 -238.32,-57.95 -356.56,-87.77 -118.33,-29.87 -236.02,-61.48 -353.17,-94.84 -117.14,-33.41 -233.73,-68.5 -349.68,-105.39 -115.9,-35.15 -231.3,-73.79 -346,-112.42 -114.65,-38.63 -228.81,-79.01 -342.27,-121.17 -113.46,-40.38 -226.22,-84.29 -338.28,-128.2 -112.21,-43.91 -223.73,-89.56 -334.4,-137.01 -110.82,-47.39 -220.94,-94.84 -330.32,-144.02 -109.43,-50.93 -218.15,-101.86 -325.99,-152.79 -107.98,-52.68 -215.31,-105.4 -321.75,-159.81 -106.44,-54.47 -212.33,-110.67 -317.18,-168.62 -105.04,-56.21 -209.34,-115.9 -312.79,-173.85 -103.45,-59.74 -206.01,-121.23 -307.87,-182.66 -101.86,-63.23 -203.02,-124.71 -303.13,-189.68 -100.27,-65.02 -199.69,-129.99 -298.41,-196.7 -98.52,-66.76 -196.15,-135.27 -293.13,-203.77 -96.73,-68.45 -192.81,-138.75 -288,-209 -95.19,-71.99 -189.33,-143.97 -282.78,-217.76 -93.24,-73.78 -185.79,-147.51 -277.29,-223.03 -91.51,-75.52 -182.17,-152.84 -271.88,-230.11 -89.56,-77.26 -178.27,-156.27 -266.09,-237.07 -87.82,-79.06 -174.55,-159.86 -260.47,-242.4 -85.88,-80.75 -170.71,-163.3 -254.65,-247.63 -83.79,-84.29 -166.68,-168.57 -248.52,-254.65 -81.85,-86.08 -162.6,-172.11 -242.5,-259.93 -79.76,-87.82 -158.47,-177.38 -236.23,-266.94 -77.66,-89.62 -154.38,-180.92 -229.9,-272.23 -75.53,-91.35 -150.15,-184.45 -223.43,-277.5 -73.39,-93.09 -145.77,-187.93 -216.86,-282.77 -71.34,-94.84 -141.39,-191.43 -210.24,-288.06 -69,-96.58 -136.81,-194.91 -203.37,-293.28 -66.76,-98.38 -132.28,-196.7 -196.55,-296.82 -64.27,-101.86 -127.5,-201.97 -189.48,-303.83 -62.03,-101.86 -122.77,-205.47 -182.31,-307.37 -59.54,-103.61 -117.84,-209 -174.94,-312.6 -57.05,-105.4 -112.91,-210.74 -167.52,-317.88 -54.62,-107.14 -108.04,-214.27 -160.21,-321.41 -52.12,-108.88 -102.9,-217.81 -152.44,-326.69 -49.53,-108.88 -97.83,-219.55 -144.72,-330.17 -46.9,-110.67 -92.55,-223.03 -136.81,-333.71 -44.41,-112.41 -87.27,-224.77 -128.89,-338.93 -41.62,-114.16 -82.04,-228.36 -120.83,-342.52 -38.98,-114.16 -76.42,-230.05 -112.61,-345.95 -36.14,-115.95 -70.94,-231.85 -104.3,-349.54 -33.2,-117.64 -65.16,-235.33 -95.73,-352.98 -30.57,-117.69 -59.54,-237.12 -87.27,-356.55 -27.58,-119.44 -53.72,-238.87 -78.51,-360.05 -24.75,-121.17 -47.95,-242.35 -69.7,-363.53 -21.81,-121.17 -42.02,-242.4 -60.79,-365.32 -18.82,-122.92 -35.99,-245.88 -51.82,-368.8 -15.78,-124.71 -30.02,-247.68 -42.67,-372.34 -12.64,-124.71 -23.7,-249.42 -33.35,-374.08 -9.51,-126.46 -17.58,-251.17 -23.9,-377.62 -6.52,-126.46 -11.25,-252.91 -14.59,-379.36 -3.13,-126.45 -4.73,-254.65 -4.73,-382.9 0,-126.45 1.6,-254.65 4.73,-381.1 3.34,-126.45 8.07,-252.9 14.59,-379.36 6.32,-126.45 14.39,-252.9 23.9,-377.62 9.65,-124.66 20.71,-249.37 33.35,-374.08 12.65,-124.71 26.89,-249.37 42.67,-372.34 15.83,-122.92 33,-245.88 51.82,-368.8 18.77,-122.97 38.98,-244.15 60.79,-367.07 21.75,-121.17 44.95,-242.35 69.7,-361.78 24.79,-121.23 50.93,-240.61 78.51,-360.05 27.73,-119.43 56.7,-238.86 87.27,-356.55 30.57,-117.65 62.53,-237.08 95.73,-353.03 33.36,-117.64 68.16,-233.54 104.3,-349.49 36.19,-115.9 73.63,-231.79 112.61,-346 38.79,-115.9 79.21,-230.06 120.83,-342.47 41.62,-114.16 84.48,-226.57 128.89,-338.93 44.26,-112.42 89.91,-223.09 136.81,-333.71 46.89,-110.67 95.19,-221.29 144.72,-330.17 49.54,-110.68 100.32,-217.81 152.44,-326.69 52.17,-107.14 105.59,-214.27 160.21,-321.41 54.61,-107.14 110.47,-212.48 167.52,-317.88 57.1,-105.39 115.4,-208.99 174.94,-312.65 59.54,-103.6 120.28,-205.46 182.31,-307.32 61.98,-101.86 125.21,-203.72 189.48,-303.83 64.27,-100.12 129.79,-198.49 196.55,-298.56 66.56,-98.38 134.37,-194.96 203.37,-293.33 68.85,-96.59 138.9,-191.43 210.24,-288.01 71.09,-94.84 143.47,-187.94 216.86,-281.03 73.28,-94.84 147.9,-186.15 223.43,-277.5 75.52,-93.05 152.24,-182.66 229.9,-272.23 77.76,-89.56 156.47,-179.12 236.23,-266.94 79.9,-87.82 160.65,-173.85 242.5,-259.93 81.84,-86.08 164.73,-170.36 248.52,-254.65 83.94,-84.33 168.77,-166.88 254.65,-249.42 85.92,-80.8 172.65,-161.55 260.47,-242.35 87.82,-79.06 176.53,-158.07 266.09,-235.33 89.71,-77.32 180.37,-154.59 271.88,-230.11 91.5,-75.52 184.05,-149.25 277.29,-223.03 93.45,-73.79 187.59,-145.77 282.78,-217.76 95.19,-70.3 191.27,-140.55 288,-209 96.98,-70.3 194.61,-137.01 293.13,-203.77 98.72,-66.71 198.14,-131.73 298.41,-196.7 100.11,-64.97 201.27,-128.19 303.13,-189.68 101.86,-61.48 204.42,-122.92 307.87,-182.66 103.45,-59.69 207.75,-117.64 312.79,-173.85 104.85,-57.95 210.74,-114.15 317.18,-168.62 106.44,-54.46 213.77,-107.13 321.75,-159.81 107.84,-52.72 216.56,-103.65 325.99,-152.79 109.38,-49.18 219.5,-96.63 330.32,-144.02 110.67,-47.45 222.19,-93.1 334.4,-137.01 112.06,-43.91 224.82,-87.82 338.28,-128.2 113.46,-42.16 227.62,-82.54 342.27,-121.17 114.7,-38.63 230.1,-77.27 346,-112.42 115.95,-36.89 232.54,-71.98 349.68,-105.39 117.15,-33.36 234.84,-64.97 353.17,-94.84 118.24,-31.61 237.13,-59.69 356.56,-87.82 119.43,-28.08 239.36,-54.42 359.84,-79.01 120.48,-24.59 241.5,-47.44 363.03,-68.5 121.52,-22.8 243.59,-42.17 366.21,-61.49 122.37,-19.31 245.48,-36.84 368.95,-50.93 123.46,-15.78 247.48,-31.61 371.84,-43.91 124.31,-12.29 249.22,-22.8 374.57,-33.35 125.26,-8.76 251.02,-17.58 377.12,-22.85 126.1,-7.02 252.56,-12.25 379.5,-15.79 127,-1.74 254.3,-3.53 382,-3.53z"/>
  <path fill="black" fill-rule="nonzero" d="M17513.44 24740.92c-16.53,0 -32.86,0 -49.39,0 -16.48,0 -32.81,0 -49.34,0 -16.33,-1.74 -32.85,-1.74 -49.18,-1.74 -16.48,0 -32.81,0 -49.34,0 -16.33,-1.74 -32.66,-1.74 -49.19,-1.74 -16.33,-1.8 -32.65,-1.8 -48.98,-1.8 -16.53,-1.74 -32.86,-1.74 -49.19,-1.74 -16.33,-1.74 -32.66,-1.74 -48.99,-3.48 -16.33,0 -32.66,-1.79 -48.99,-1.79 -16.33,-1.75 -32.65,-1.75 -48.83,-3.49 -16.33,0 -32.66,-1.74 -48.99,-1.74 -16.18,-1.79 -32.51,-3.54 -48.84,-3.54 -16.18,-1.74 -32.51,-3.53 -48.64,-5.27 -16.33,0 -32.51,-1.75 -48.84,-3.49 -16.13,-1.79 -32.51,-3.53 -48.64,-3.53 -16.18,-1.75 -32.31,-3.54 -48.64,-5.28 -16.18,-1.74 -32.31,-3.49 -48.49,-5.28 -16.13,-1.74 -32.31,-3.48 -48.49,-5.23 -16.13,-1.79 -32.31,-3.53 -48.44,-5.27 -16.18,-1.79 -32.31,-3.54 -48.49,-5.28 -15.98,-3.53 -32.16,-5.28 -48.29,-7.02 -15.98,-1.79 -32.16,-3.53 -48.14,-7.02 -16.13,-1.79 -32.31,-3.53 -48.29,-5.28 -15.98,-3.53 -32.11,-5.27 -48.09,-7.02 -15.98,-3.53 -32.16,-5.27 -48.14,-8.81 -15.98,-1.74 -31.96,-5.27 -47.94,-7.02 -15.98,-3.48 -31.97,-5.27 -47.95,-8.76 -15.98,-1.74 -31.96,-5.28 -47.94,-7.02 -15.98,-3.53 -31.96,-7.02 -47.79,-8.81 -15.98,-3.49 -31.96,-7.02 -47.74,-8.76 -15.98,-3.54 -31.97,-7.02 -47.8,-8.77 -15.98,-3.53 -31.81,-7.06 -47.59,-10.55 -15.98,-3.53 -31.81,-5.28 -47.59,-8.81 -15.84,-3.49 -31.82,-7.02 -47.6,-10.51 -15.83,-3.53 -31.61,-7.02 -47.44,-10.55 -15.78,-3.49 -31.62,-7.02 -47.25,-10.55 -15.78,-3.49 -31.61,-7.02 -47.39,-10.51 -15.63,-3.53 -31.42,-8.81 -47.25,-12.3 -15.63,-3.53 -31.41,-7.02 -47.04,-10.55 -15.84,-3.49 -31.47,-8.76 -47.1,-12.3 -15.78,-3.48 -31.41,-8.76 -47.05,-12.29 -15.63,-3.49 -31.26,-8.77 -46.89,-12.3 -15.63,-3.49 -31.27,-8.76 -46.9,-12.3 -15.63,-5.23 -31.26,-8.76 -46.9,-14.04 -15.48,-3.48 -31.11,-8.76 -46.69,-12.29 -15.49,-5.28 -31.12,-8.77 -46.55,-14.04 -15.63,-5.28 -31.12,-8.77 -46.75,-14.04 -15.43,-5.28 -30.92,-8.81 -46.35,-14.04 -15.63,-5.28 -31.06,-10.56 -46.55,-14.09 -15.43,-5.23 -30.91,-10.51 -46.35,-15.78 -15.28,-5.28 -30.76,-8.81 -46.2,-14.04 -15.43,-5.28 -30.71,-10.56 -46.2,-15.83 -15.43,-5.28 -30.71,-10.56 -46.19,-15.79 -15.29,-5.27 -30.52,-10.55 -46.01,-15.83 -15.28,-5.27 -30.56,-10.55 -45.85,-15.78 -15.28,-7.02 -30.56,-12.3 -45.8,-17.57 -15.28,-5.28 -30.57,-10.56 -45.85,-17.58 -15.28,-5.27 -30.57,-10.55 -45.65,-15.78 -15.29,-7.07 -30.57,-12.3 -45.7,-17.57 -15.29,-7.02 -30.37,-12.3 -45.46,-17.58 -15.28,-7.02 -30.41,-12.29 -45.5,-19.31 -15.08,-5.28 -30.22,-12.3 -45.3,-17.58 -15.14,-7.02 -30.22,-12.29 -45.31,-19.31 -15.13,-5.28 -30.22,-12.3 -45.35,-19.32 -14.39,-5.28 -28.97,-12.3 -43.51,-17.57 -14.44,-7.02 -28.98,-12.3 -43.41,-19.32 -14.39,-5.28 -28.78,-12.3 -43.22,-19.32 -14.38,-5.27 -28.77,-12.29 -43.16,-19.31 -14.44,-5.28 -28.63,-12.3 -43.06,-19.32 -14.19,-7.02 -28.43,-12.3 -42.87,-19.32 -14.19,-7.02 -28.42,-14.04 -42.66,-21.06 -14.24,-5.27 -28.43,-12.29 -42.52,-19.31 -14.19,-7.02 -28.23,-14.09 -42.46,-21.11 -14.04,-7.02 -28.13,-14.04 -42.17,-21.06 -14.24,-7.02 -28.08,-14.04 -42.17,-21.06 -14.04,-7.02 -28.08,-14.09 -41.97,-21.11 -14.04,-7.02 -27.93,-14.04 -41.96,-21.06 -13.89,-7.02 -27.73,-14.04 -41.62,-21.06 -13.89,-8.81 -27.73,-15.83 -41.62,-22.85 -13.69,-7.02 -27.58,-14.04 -41.27,-22.85 -13.89,-7.02 -27.59,-14.04 -41.28,-21.06 -13.69,-8.76 -27.38,-15.78 -41.12,-22.85 -13.69,-8.76 -27.38,-15.78 -40.92,-22.8 -13.69,-8.81 -27.18,-15.83 -40.72,-24.59 -13.69,-7.02 -27.24,-15.83 -40.73,-22.85 -13.54,-8.77 -27.08,-15.79 -40.42,-24.6 -13.49,-7.02 -27.03,-15.78 -40.38,-22.8 -13.54,-8.81 -26.88,-15.83 -40.22,-24.59 -13.34,-8.76 -26.69,-15.83 -40.03,-24.6 -13.34,-8.76 -26.73,-15.78 -39.88,-24.59 -13.34,-8.76 -26.53,-15.78 -39.67,-24.59 -13.4,-8.77 -26.54,-17.53 -39.73,-24.6 -13.15,-8.76 -26.14,-17.52 -39.33,-26.33 -13.19,-8.77 -26.19,-17.58 -39.33,-24.6 -12.99,-8.76 -25.99,-17.52 -38.98,-26.33 -13,-8.77 -25.99,-17.58 -39.03,-26.34 -13,-8.76 -25.79,-17.57 -38.79,-26.34 -12.84,-8.81 -25.83,-17.57 -38.63,-26.33 -12.84,-8.81 -25.64,-17.58 -38.48,-26.34 -12.8,-8.81 -25.64,-19.36 -38.28,-28.13 -12.8,-8.76 -25.44,-17.57 -38.29,-26.33 -12.64,-8.76 -25.29,-19.32 -37.93,-28.13 -12.65,-8.76 -25.29,-17.52 -37.74,-28.08 -12.65,-8.76 -25.29,-17.57 -37.79,-28.08 -12.44,-8.81 -24.94,-17.57 -37.58,-28.13 -12.45,-8.76 -24.95,-17.57 -37.24,-28.07 -12.45,-8.82 -24.94,-19.32 -37.24,-28.13 -12.3,-10.51 -24.74,-19.32 -37.04,-29.82 -12.3,-8.82 -24.59,-19.37 -36.89,-28.13 -12.3,-10.56 -24.4,-19.32 -36.69,-29.87 -12.15,-10.51 -24.45,-19.32 -36.54,-29.82 -12.1,-8.82 -24.25,-19.32 -36.35,-29.88 -12.14,-8.76 -24.04,-19.31 -36.19,-29.87 -12.1,-10.5 -24.05,-19.31 -35.99,-29.87 -12.1,-10.5 -24.05,-21.06 -35.85,-31.61 -11.95,-8.76 -23.89,-19.32 -35.79,-29.82 -11.8,-10.56 -23.75,-21.11 -35.5,-31.61 -11.75,-10.56 -23.7,-21.11 -35.5,-29.88 -11.74,-10.55 -23.34,-21.05 -35.09,-31.61 -11.8,-10.55 -23.35,-21.06 -34.95,-31.61 -11.8,-10.56 -23.35,-21.06 -34.95,-33.36 -11.6,-10.55 -23.2,-21.11 -34.6,-31.61 -11.6,-10.56 -23.2,-21.11 -34.6,-31.61 -11.4,-10.56 -23,-22.86 -34.45,-33.41 -11.4,-10.5 -22.65,-21.06 -34.05,-31.61 -11.4,-12.25 -22.66,-22.81 -34.06,-33.36 -11.25,-12.3 -22.5,-22.8 -33.75,-33.36 -11.25,-12.29 -22.45,-22.85 -33.7,-33.35 -6.33,-7.02 -12.3,-12.3 -18.47,-19.32 -5.93,-7.07 -11.9,-12.29 -17.88,-19.31 -5.82,-7.07 -11.6,-12.3 -17.22,-19.37 -5.63,-7.02 -11.25,-14.04 -16.68,-19.32 -5.48,-7.02 -10.7,-14.04 -15.98,-21.06 -5.28,-7.02 -10.55,-14.03 -15.63,-21.05 -5.13,-7.02 -10.01,-14.04 -14.94,-21.11 -4.73,-7.02 -9.66,-14.04 -14.24,-21.06 -4.72,-7.02 -9.31,-14.04 -13.89,-21.06 -4.38,-7.02 -8.76,-14.04 -13.14,-21.11 -4.23,-7.02 -8.41,-14.04 -12.49,-22.8 -4.19,-7.02 -8.07,-14.04 -12.1,-21.11 -3.88,-7.02 -7.57,-15.78 -11.25,-22.8 -3.84,-7.02 -7.37,-14.04 -10.86,-22.85 -3.53,-7.02 -7.07,-14.04 -10.2,-22.8 -3.34,-7.02 -6.67,-14.09 -9.66,-22.86 -3.19,-7.01 -6.17,-15.78 -9.16,-22.85 -2.99,-7.02 -5.78,-15.78 -8.41,-22.8 -2.79,-8.81 -5.43,-15.83 -7.92,-24.59 -2.64,-7.02 -5.08,-15.83 -7.37,-22.85 -2.29,-8.76 -4.58,-15.78 -6.67,-24.6 -2.29,-7.02 -4.23,-15.78 -6.12,-22.8 -1.94,-8.81 -3.89,-15.83 -5.63,-24.59 -1.74,-8.76 -3.33,-15.83 -4.93,-24.6 -1.59,-7.01 -2.98,-15.78 -4.38,-24.59 -1.39,-7.02 -2.64,-15.78 -3.88,-22.8 -1.24,-8.81 -2.29,-17.57 -3.14,-24.59 -1.04,-8.82 -1.94,-15.84 -2.64,-24.6 -0.89,-8.81 -1.59,-15.83 -2.14,-24.59 -0.49,-8.81 -1.04,-15.83 -1.39,-24.59 -0.35,-8.77 -0.7,-15.84 -0.85,-24.6 -0.2,-8.76 -0.34,-15.78 -0.34,-24.59 0,-8.76 0.14,-15.78 0.34,-24.6 0.15,-8.76 0.5,-15.78 0.85,-24.59 0.35,-8.76 0.9,-15.78 1.39,-24.54 0.55,-7.07 1.25,-15.83 2.14,-24.6 0.7,-7.02 1.6,-15.83 2.64,-24.59 0.85,-7.02 1.9,-15.83 3.14,-24.59 1.24,-7.02 2.49,-15.84 3.88,-22.86 1.4,-8.76 2.79,-17.57 4.38,-24.59 1.6,-8.76 3.19,-15.78 4.93,-24.59 1.74,-8.77 3.69,-15.78 5.63,-24.55 1.89,-7.07 3.83,-15.83 6.12,-22.85 2.09,-8.76 4.38,-15.83 6.67,-24.59 2.29,-7.02 4.73,-15.78 7.37,-22.85 2.49,-8.76 5.13,-15.78 7.92,-24.55 2.63,-7.07 5.42,-15.83 8.41,-22.85 2.99,-7.02 5.97,-15.83 9.16,-22.85 2.99,-7.02 6.32,-15.78 9.66,-22.8 3.13,-8.81 6.67,-15.83 10.2,-22.85 3.49,-7.02 7.02,-15.78 10.86,-22.8 3.68,-7.07 7.37,-15.83 11.25,-22.85 4.03,-7.02 7.91,-14.04 12.1,-21.06 4.08,-8.82 8.26,-15.83 12.49,-22.85 4.38,-7.02 8.76,-14.04 13.14,-21.06 4.58,-7.02 9.17,-14.09 13.89,-21.11 4.58,-7.02 9.51,-14.04 14.24,-21.06 4.93,-7.02 9.81,-14.04 14.94,-21.06 5.08,-7.02 10.35,-14.09 15.63,-21.11 5.28,-7.02 10.5,-14.04 15.98,-21.06 5.43,-5.27 11.05,-12.29 16.68,-19.31 5.62,-7.02 11.4,-12.3 17.22,-19.32 5.98,-7.02 11.95,-12.3 17.88,-19.32 6.17,-7.02 12.14,-12.29 18.47,-19.31 6.32,-5.28 12.44,-12.3 18.96,-17.58 6.33,-7.02 12.65,-12.29 19.12,-17.57 6.52,-7.02 13,-12.3 19.72,-17.58 6.47,-5.22 13.14,-12.29 19.81,-17.52 6.87,-5.28 13.54,-10.55 20.36,-15.83 6.67,-5.28 13.54,-10.56 20.56,-15.78 6.87,-5.28 13.89,-8.82 20.71,-14.09 7.07,-5.23 14.09,-10.51 21.26,-14.04 7.02,-5.28 14.24,-10.51 21.46,-14.04 7.02,-5.28 14.39,-8.76 21.6,-14.04 7.17,-3.53 14.54,-8.81 21.96,-12.3 7.17,-3.53 14.54,-7.02 22.1,-12.29 7.37,-3.54 14.94,-7.02 22.31,-10.56 7.56,-3.48 15.13,-7.02 22.65,-10.5 7.57,-3.54 15.13,-7.07 22.85,-10.56 7.52,-3.53 15.28,-7.02 23,-10.55 7.57,-1.74 15.28,-5.28 23,-8.76 7.92,-3.54 15.63,-5.28 23.35,-8.82 7.91,-1.74 15.63,-5.22 23.55,-7.02 7.91,-3.48 15.83,-5.27 23.69,-7.01 7.92,-3.49 15.84,-5.28 23.7,-7.02 7.92,-1.75 16.03,-5.28 23.9,-7.02 8.11,-1.75 15.98,-3.54 24.09,-5.28 8.07,-1.74 15.98,-3.49 24.05,-5.28 8.06,-1.74 16.13,-1.74 24.24,-3.48 8.07,-1.8 16.13,-3.54 24.25,-3.54 8.21,-1.74 16.33,-3.48 24.39,-3.48 8.07,-1.8 16.33,-1.8 24.4,-3.54 8.26,0 16.33,-1.74 24.44,-1.74 8.22,0 16.33,0 24.6,-1.74 8.06,0 16.32,0 24.54,0 8.11,0 16.33,0 24.44,0 8.27,0 16.33,0 24.6,0 8.06,0 16.33,0 24.39,0 8.26,1.74 16.33,1.74 24.59,1.74 8.07,0 16.33,1.74 24.4,1.74 8.26,1.74 16.33,1.74 24.44,3.54 8.07,0 16.33,1.74 24.4,3.48 8.06,0 16.18,1.74 24.24,3.54 8.07,1.74 16.13,1.74 24.25,3.48 8.06,1.79 16.13,3.54 24.04,5.28 8.07,1.74 16.18,3.53 24.05,5.28 8.11,1.74 15.98,5.27 23.89,7.02 8.07,1.74 15.99,3.53 23.9,7.02 7.92,1.74 15.78,3.53 23.55,7.01 7.86,1.8 15.78,5.28 23.5,7.02 7.91,3.54 15.63,5.28 23.35,8.82 7.76,3.48 15.48,7.02 23.2,8.76 7.71,3.53 15.28,7.02 23,10.55 7.56,3.49 15.28,7.02 22.85,10.56 7.56,3.48 15.08,7.02 22.45,10.5 7.57,3.54 14.93,7.02 22.5,10.56 7.37,5.27 14.74,8.76 22.11,12.29 7.41,3.49 14.58,8.77 21.8,12.3 7.37,5.28 14.59,8.76 21.76,14.04 7.22,3.53 14.24,8.76 21.45,14.04 7.02,3.53 14.04,8.81 21.06,14.04 7.02,5.27 13.89,8.81 20.91,14.09 6.82,5.22 13.69,10.5 20.56,15.78 6.67,5.28 13.49,10.55 20.17,15.83 6.67,5.23 13.34,12.3 19.86,17.52 6.67,5.28 13.19,10.56 19.66,17.58 6.53,5.28 13,10.55 19.32,17.57 6.32,5.28 12.65,12.3 18.82,17.58 8.21,8.76 16.68,17.57 24.94,24.59 8.22,8.76 16.68,17.52 24.94,24.59 8.42,8.77 16.83,17.53 25.29,24.55 8.22,8.81 16.68,15.83 25.09,24.59 8.42,8.81 17.03,15.83 25.49,24.59 8.42,7.02 17.03,15.84 25.44,22.86 8.62,8.76 17.03,15.78 25.64,24.59 8.62,7.02 17.23,15.78 25.84,22.8 8.61,8.81 17.18,15.83 25.79,24.59 8.81,7.02 17.42,14.04 25.99,22.86 8.81,7.02 17.42,15.78 26.18,22.8 8.76,7.07 17.58,15.83 26.34,22.85 8.81,7.02 17.57,15.83 26.33,22.85 8.82,7.02 17.58,14.04 26.54,22.8 8.76,7.02 17.72,14.04 26.68,21.11 8.82,8.76 17.78,15.78 26.69,22.8 8.96,7.02 17.92,14.04 26.88,22.85 8.96,7.02 17.92,14.04 26.89,21.06 9.11,7.02 18.07,14.04 27.23,21.06 8.96,8.81 18.07,15.83 27.23,22.85 9.11,7.02 18.27,14.04 27.38,21.06 9.11,7.07 18.27,14.09 27.38,21.11 9.16,7.02 18.47,14.04 27.58,21.06 9.31,7.02 18.47,14.04 27.78,21.06 9.26,7.07 18.57,14.09 27.88,19.31 9.16,7.07 18.47,14.09 27.93,21.11 9.31,7.02 18.62,14.04 27.93,21.06 9.51,7.02 18.82,12.3 28.28,19.32 9.31,7.02 18.81,14.04 28.27,21.11 9.51,5.22 18.97,12.24 28.48,19.31 9.46,7.02 18.97,12.3 28.43,19.32 9.66,7.02 19.16,12.3 28.62,19.32 9.66,7.02 19.17,12.29 28.83,19.31 9.66,7.02 19.31,12.3 28.97,19.32 9.66,5.28 19.32,12.3 28.98,19.32 9.66,5.27 19.31,12.29 28.97,17.57 9.86,7.02 19.52,12.3 29.32,19.32 9.66,5.27 19.52,12.29 29.33,17.52 9.85,7.07 19.51,12.3 29.32,19.37 9.86,5.22 19.86,12.24 29.72,17.52 9.81,5.28 19.67,12.3 29.67,17.57 9.81,7.02 19.87,12.3 29.67,17.58 10.01,7.02 20.02,12.3 29.87,17.57 10.01,5.23 20.02,12.3 30.02,17.53 10.01,5.27 20.22,12.29 30.22,17.57 10.01,5.28 20.02,10.56 30.22,15.83 10.01,7.02 20.17,12.3 30.37,17.53 10.01,5.27 20.21,10.55 30.37,15.83 10.21,7.02 20.36,12.3 30.57,17.57 10.2,5.28 20.36,10.51 30.56,15.78 10.36,5.28 20.57,10.56 30.92,15.84 10.16,5.27 20.56,10.5 30.72,15.78 10.35,5.27 20.71,10.55 31.11,15.83 10.36,5.28 20.71,10.5 31.07,15.78 10.35,5.28 20.71,10.56 31.06,15.83 10.56,5.28 20.91,10.51 31.47,14.04 10.35,5.28 20.91,10.56 31.41,15.78 10.36,5.28 20.91,10.56 31.46,14.09 10.51,5.28 21.06,10.51 31.62,15.78 10.5,5.28 21.06,8.82 31.76,14.04 10.55,5.28 21.11,8.82 31.81,14.09 10.51,5.23 21.26,8.76 31.96,14.04 10.56,5.28 21.26,8.76 31.96,14.04 10.71,5.28 21.41,8.76 32.17,14.04 22.1,8.81 44.4,17.57 66.56,28.13 22.3,8.76 44.6,17.57 67.06,26.33 22.3,8.77 44.8,17.58 67.25,26.34 22.51,7.02 44.96,15.83 67.61,24.59 22.5,8.77 45.16,15.79 67.81,24.6 22.85,7.02 45.5,15.78 68.35,22.8 22.65,7.07 45.45,15.83 68.31,22.85 23,7.02 45.85,14.04 68.85,21.06 22.8,7.07 45.8,14.09 68.85,21.11 23,7.02 46.15,12.3 69.2,19.32 23.15,7.01 46.35,12.29 69.55,19.31 23.15,5.28 46.35,12.3 69.55,17.58 23.34,5.22 46.49,12.29 69.89,17.52 23.35,5.28 46.7,10.55 70.05,15.83 23.35,5.28 46.9,10.56 70.24,15.78 23.55,5.28 46.9,8.82 70.45,14.09 23.55,5.23 47.05,8.76 70.59,14.04 23.7,3.49 47.25,8.76 70.8,12.3 23.69,3.48 47.24,8.76 70.94,12.3 23.7,3.48 47.44,7.01 71.14,10.5 23.7,3.53 47.4,7.07 71.14,10.55 23.7,3.54 47.4,5.28 71.29,8.77 23.7,3.53 47.6,5.27 71.29,8.81 23.9,1.74 47.8,5.28 71.49,7.02 23.9,1.74 47.75,5.28 71.64,7.02 23.9,1.74 47.8,3.53 71.69,5.27 23.85,1.75 47.75,3.49 71.64,5.28 24.05,1.74 47.95,1.74 71.84,3.49 23.9,1.79 47.94,1.79 71.84,3.53 23.85,0 47.94,1.74 71.79,1.74 23.9,0 47.99,1.75 71.84,1.75 24.09,0 47.94,0 72.04,0 23.89,0 47.74,0 71.83,0 23.85,0 47.95,-1.75 71.79,-1.75 23.9,0 48,-1.74 71.84,-1.74 23.9,-1.74 47.94,-1.74 71.84,-3.53 23.9,-1.75 47.94,-1.75 71.84,-3.49 23.9,-1.79 47.79,-3.53 71.64,-5.28 23.9,-1.74 47.79,-3.53 71.69,-5.27 23.84,-1.74 47.74,-5.28 71.64,-7.02 23.89,-1.74 47.59,-5.28 71.49,-7.02 23.89,-3.54 47.59,-5.28 71.49,-8.81 23.7,-3.49 47.39,-5.23 71.29,-8.77 23.7,-3.48 47.39,-7.02 71.14,-10.55 23.7,-3.49 47.4,-7.02 71.09,-10.5 23.55,-3.54 47.25,-8.82 70.99,-12.3 23.5,-3.54 47.05,-8.81 70.75,-12.3 23.55,-5.28 47.09,-8.81 70.64,-14.04 23.5,-5.27 46.85,-8.81 70.4,-14.09 23.54,-5.22 46.89,-10.5 70.24,-15.78 23.35,-5.28 46.75,-10.55 70.1,-15.83 23.35,-5.23 46.7,-12.3 69.9,-17.52 23.34,-5.28 46.54,-12.3 69.69,-17.58 23.2,-7.02 46.4,-12.3 69.55,-19.31 23.05,-7.02 46.2,-12.3 69.2,-19.32 23.05,-7.02 46.05,-14.04 69.05,-21.11 22.8,-7.02 45.85,-14.04 68.66,-21.06 22.85,-7.02 45.65,-15.78 68.5,-22.85 22.85,-7.02 45.5,-15.78 68.3,-22.8 22.65,-8.81 45.31,-15.83 67.81,-24.6 22.65,-8.76 45.15,-17.57 67.61,-24.59 22.65,-8.76 44.95,-17.57 67.45,-26.34 22.31,-8.76 44.76,-17.57 66.91,-26.33 22.31,-10.56 44.61,-19.32 66.76,-28.13 10.71,-5.28 21.41,-8.76 32.11,-14.04 10.71,-5.28 21.41,-8.76 31.97,-14.04 10.7,-5.28 21.25,-8.81 31.96,-14.04 10.55,-5.27 21.11,-8.81 31.81,-14.09 10.5,-5.22 21.06,-8.76 31.61,-14.04 10.51,-5.27 21.06,-10.5 31.62,-15.78 10.5,-3.53 21.05,-8.81 31.41,-14.09 10.55,-5.22 20.91,-10.5 31.46,-14.04 10.36,-5.27 20.86,-10.5 31.27,-15.78 10.35,-5.27 20.71,-10.55 31.06,-15.83 10.36,-5.28 20.71,-10.5 31.07,-15.78 10.4,-5.28 20.76,-10.56 30.91,-15.83 10.36,-5.28 20.76,-10.51 30.92,-15.78 10.36,-5.28 20.56,-10.56 30.77,-15.84 10.15,-5.27 20.51,-10.5 30.71,-15.78 10.21,-5.27 20.37,-10.55 30.37,-15.83 10.21,-7.02 20.36,-12.3 30.57,-17.57 10.01,-5.23 20.21,-10.51 30.22,-15.79 10.16,-7.01 20.21,-12.29 30.22,-17.57 10,-5.28 20.16,-12.3 30.17,-17.57 10.05,-5.23 19.86,-10.51 29.87,-17.53 10,-5.27 20.01,-10.55 29.87,-17.57 10.01,-5.28 20.01,-10.56 29.87,-17.58 9.81,-5.27 19.81,-10.55 29.67,-17.57 9.81,-5.28 19.67,-12.3 29.47,-17.52 9.86,-7.07 19.72,-12.3 29.38,-19.37 9.8,-5.23 19.66,-12.25 29.32,-17.52 9.81,-7.02 19.46,-12.3 29.32,-19.32 9.66,-5.28 19.32,-12.3 28.98,-17.57 9.85,-7.02 19.51,-12.3 28.97,-19.32 9.66,-7.02 19.32,-12.3 28.97,-19.32 9.51,-7.02 19.17,-12.29 28.83,-19.31 9.46,-7.02 18.97,-12.3 28.63,-19.32 9.45,-7.02 18.96,-12.3 28.42,-19.32 9.51,-7.07 18.97,-14.09 28.48,-19.31 9.46,-7.07 18.77,-14.09 28.28,-21.11 9.46,-7.02 18.76,-12.3 28.07,-19.32 9.51,-7.02 18.82,-14.04 28.13,-21.06 9.31,-7.02 18.62,-14.04 27.88,-19.31 9.31,-7.02 18.62,-14.04 27.93,-21.11 9.16,-7.02 18.47,-14.04 27.78,-21.06 9.11,-7.02 18.27,-14.04 27.58,-21.06 9.11,-7.02 18.27,-14.04 27.38,-21.11 9.11,-7.02 18.27,-14.04 27.38,-21.06 9.16,-7.02 18.12,-14.04 27.24,-21.06 9.16,-8.81 18.07,-15.83 27.03,-22.85 9.16,-7.02 18.12,-14.04 27.08,-21.06 8.96,-7.02 17.92,-15.83 26.83,-22.85 8.97,-7.02 17.93,-14.04 26.89,-21.06 8.81,-8.81 17.72,-15.83 26.53,-22.85 8.96,-8.76 17.73,-15.78 26.54,-22.8 8.76,-7.02 17.52,-15.83 26.33,-22.85 8.77,-7.02 17.53,-15.78 26.34,-22.85 8.76,-7.02 17.37,-15.78 26.19,-22.8 8.56,-8.82 17.37,-15.84 25.98,-22.86 8.57,-8.76 17.18,-15.78 25.99,-24.59 8.61,-7.02 17.18,-15.78 25.64,-22.8 8.61,-8.81 17.23,-15.83 25.64,-24.59 8.61,-7.02 17.03,-15.84 25.64,-22.86 8.41,-8.76 16.87,-15.78 25.29,-24.59 8.41,-8.76 16.87,-15.78 25.29,-24.59 8.41,-7.02 16.88,-15.78 25.09,-24.55 8.46,-7.07 16.88,-15.83 25.14,-24.59 8.26,-7.02 16.68,-15.83 24.94,-24.59 8.27,-7.02 16.48,-15.84 24.75,-24.6 8.11,-8.81 16.32,-15.83 24.44,-24.59 8.21,-8.76 16.33,-17.58 24.39,-24.59 8.27,-8.77 16.33,-17.58 24.25,-26.34 8.06,-8.76 16.13,-15.83 24.24,-24.59 7.87,-8.77 15.79,-17.58 23.85,-26.34 7.92,-8.81 15.83,-17.57 23.75,-24.59 7.86,-8.77 15.63,-17.58 23.5,-26.34 7.91,-8.81 15.63,-17.57 23.39,-26.34 7.72,-8.81 15.44,-17.57 23.15,-26.38 7.72,-8.76 15.49,-17.53 23.2,-26.34 7.57,-8.76 15.29,-17.52 22.85,-26.33 7.52,-8.77 15.09,-17.58 22.66,-26.34 7.51,-8.76 15.08,-17.57 22.65,-26.34 7.37,-8.81 14.93,-17.57 22.3,-26.33 7.52,-8.81 14.94,-17.58 22.3,-26.39 7.37,-8.76 14.74,-17.52 21.96,-26.34 7.37,-8.76 14.54,-19.31 21.95,-28.07 7.17,-8.82 14.39,-17.58 21.61,-26.34 7.17,-8.81 14.39,-19.32 21.61,-28.13 7.02,-8.76 14.19,-17.57 21.21,-26.33 7.21,-8.77 14.23,-19.32 21.25,-28.08 7.02,-8.81 14.04,-17.58 21.11,-28.13 6.82,-8.76 13.84,-17.58 20.71,-26.34 7.02,-10.55 13.89,-19.31 20.71,-28.08 6.87,-10.55 13.69,-19.31 20.56,-28.12 6.67,-10.56 13.54,-19.32 20.22,-28.08 6.82,-10.56 13.49,-19.32 20.16,-28.13 6.67,-10.51 13.34,-19.32 20.01,-28.08 6.52,-10.55 13.19,-19.32 19.72,-29.87 6.67,-8.76 13.14,-17.57 19.66,-28.08 6.47,-8.81 12.99,-19.32 19.47,-28.13 6.32,-10.5 12.84,-19.31 19.16,-28.08 6.47,-10.55 12.8,-19.31 19.12,-29.87 6.32,-8.76 12.65,-19.31 18.97,-28.08 6.17,-10.55 12.49,-19.31 18.62,-29.87 6.32,-10.55 12.49,-19.31 18.62,-29.87 6.17,-8.76 12.29,-19.31 18.47,-28.08 6.12,-10.55 12.09,-19.31 18.22,-29.87 5.97,-10.55 11.95,-19.31 17.92,-29.87 5.97,-10.5 11.95,-19.31 17.92,-29.82 5.98,-8.81 11.75,-19.37 17.58,-29.87 5.97,-8.81 11.75,-19.32 17.57,-29.87 5.77,-8.76 11.6,-19.32 17.37,-29.87 5.63,-10.51 11.41,-19.32 17.03,-29.82 5.83,-10.56 11.4,-19.32 17.03,-29.87 5.62,-10.56 11.25,-21.06 16.67,-29.87 5.63,-10.51 11.26,-21.06 16.73,-31.62 5.43,-10.5 11.05,-19.31 16.48,-29.87 5.48,-10.5 10.7,-21.06 16.18,-31.61 5.43,-8.76 10.7,-19.32 15.98,-29.82 5.43,-10.56 10.7,-21.11 15.98,-31.62 5.28,-10.55 10.56,-19.31 15.63,-29.87 5.28,-10.55 10.36,-21.06 15.64,-31.61 5.07,-10.55 10.15,-21.06 15.28,-31.61 5.08,-10.56 10.16,-21.06 15.08,-31.62 5.08,-10.55 10.01,-19.31 14.94,-29.87 5.08,-10.5 10.01,-21.06 14.94,-31.61 4.92,-10.51 9.65,-21.06 14.58,-31.61 4.73,-10.51 9.66,-21.06 14.39,-31.62 4.73,-10.5 9.46,-21.06 14.24,-33.35 4.73,-10.56 9.46,-21.06 14.04,-31.62 4.73,-10.55 9.31,-21.06 13.89,-31.61 4.53,-10.55 9.11,-21.06 13.69,-31.61 4.73,-12.3 9.31,-22.85 13.84,-33.36 4.78,-12.3 9.31,-22.85 13.89,-33.4 4.58,-12.25 8.96,-22.81 13.54,-33.36 4.38,-12.3 8.76,-22.8 13.34,-33.36 4.38,-12.29 8.61,-22.85 12.99,-33.35 4.39,-12.3 8.62,-22.85 12.8,-35.15 4.43,-10.55 8.61,-21.06 12.64,-33.36 4.24,-10.55 8.47,-22.85 12.5,-33.35 4.23,-10.56 8.26,-22.85 12.3,-33.41 4.03,-12.29 8.06,-22.8 11.95,-35.1 4.03,-10.55 7.91,-21.1 11.74,-33.4 4.04,-10.51 7.72,-22.8 11.6,-33.36 3.89,-12.29 7.72,-22.8 11.4,-35.1 3.69,-10.55 7.37,-22.85 11.11,-33.4 3.68,-12.3 7.36,-22.8 10.85,-35.1 3.68,-10.55 7.22,-22.85 10.7,-33.4 3.74,-12.25 7.07,-22.81 10.56,-35.1 3.53,-10.56 6.87,-22.85 10.35,-33.36 3.34,-12.3 6.67,-22.85 10.01,-35.15 3.33,-10.55 6.52,-22.85 9.86,-33.35 3.13,-12.3 6.32,-22.85 9.46,-35.15 3.18,-12.3 6.32,-22.8 9.5,-35.1 2.99,-10.55 6.13,-22.85 9.11,-33.4 2.99,-12.3 5.98,-24.55 8.97,-35.1 2.98,-12.3 5.82,-22.85 8.81,-35.15 2.79,-12.3 5.62,-22.8 8.41,-35.1 2.79,-10.55 5.63,-22.85 8.41,-35.15 2.64,-10.5 5.28,-22.8 8.12,-33.35 2.59,-12.3 5.23,-24.6 7.72,-35.15 2.63,-12.3 5.07,-24.59 7.71,-35.1 2.44,-12.3 4.93,-24.59 7.37,-35.15 2.49,-12.29 4.73,-24.59 7.22,-35.09 2.29,-12.3 4.73,-24.6 7.02,-35.15 2.29,-12.3 4.58,-24.6 6.67,-35.1 2.29,-12.3 4.38,-24.59 6.52,-35.15 2.24,-12.3 4.38,-24.59 6.32,-35.15 2.1,-12.24 4.19,-24.54 6.13,-36.84 1.94,-10.55 4.03,-22.85 5.97,-35.15 1.94,-10.55 3.69,-22.85 5.63,-35.09 1.74,-12.3 3.68,-22.86 5.42,-35.15 1.75,-12.3 3.54,-24.6 5.08,-35.15 1.79,-12.3 3.54,-24.54 5.13,-36.84 1.59,-10.56 3.14,-22.85 4.73,-35.15 1.59,-12.3 3.19,-22.85 4.58,-35.15 1.39,-12.24 2.99,-24.54 4.38,-36.84 1.39,-10.55 2.79,-22.85 4.03,-35.15 1.4,-12.29 2.64,-22.85 3.89,-35.09 1.19,-12.3 2.44,-24.6 3.68,-36.89 1.2,-10.56 2.44,-22.86 3.49,-35.15 1.09,-12.3 2.14,-24.6 3.18,-36.89 1.05,-10.51 2.09,-22.8 2.99,-35.1 1.04,-12.3 1.94,-24.6 2.79,-36.89 0.89,-10.56 1.79,-22.85 2.63,-35.15 0.7,-12.3 1.6,-24.59 2.3,-36.84 0.69,-10.55 1.39,-22.85 2.09,-35.15 0.69,-12.3 1.24,-24.59 1.94,-36.89 0.55,-12.3 1.04,-22.8 1.59,-35.1 0.55,-12.29 1.05,-24.59 1.59,-36.89 0.35,-12.29 0.7,-24.59 1.2,-36.89 0.35,-12.3 0.7,-22.85 0.89,-35.15 0.35,-12.29 0.55,-24.59 0.9,-36.84 0.15,-12.29 0.35,-24.59 0.5,-36.89 0.2,-12.29 0.2,-24.59 0.35,-35.15 0,-12.29 0,-24.59 0,-36.89 0,-12.29 0,-24.59 0,-36.89 -0.15,-12.24 -0.15,-24.54 -0.35,-36.84 -0.15,-12.29 -0.35,-22.85 -0.5,-35.15 -0.35,-12.29 -0.55,-24.59 -0.9,-36.89 -0.19,-12.29 -0.54,-24.59 -0.89,-36.89 -0.5,-12.29 -0.85,-22.8 -1.2,-35.09 -0.54,-12.3 -1.04,-24.6 -1.59,-36.9 -0.55,-12.29 -1.04,-24.59 -1.59,-36.89 -0.7,-10.5 -1.25,-22.8 -1.94,-35.09 -0.7,-12.3 -1.4,-24.6 -2.09,-36.89 -0.7,-12.3 -1.6,-22.86 -2.3,-35.15 -0.84,-12.3 -1.74,-24.6 -2.63,-36.89 -0.85,-12.3 -1.75,-24.55 -2.79,-35.1 -0.9,-12.3 -1.94,-24.59 -2.99,-36.89 -1.04,-12.3 -2.09,-22.85 -3.18,-35.15 -1.05,-12.25 -2.29,-24.54 -3.49,-36.84 -1.24,-10.55 -2.49,-22.85 -3.68,-35.15 -1.25,-12.3 -2.49,-24.59 -3.89,-35.1 -1.24,-12.29 -2.64,-24.59 -4.03,-36.89 -1.39,-12.29 -2.99,-22.85 -4.38,-35.15 -1.39,-12.29 -2.99,-24.59 -4.58,-35.09 -1.59,-12.3 -3.14,-24.6 -4.73,-36.89 -1.59,-12.3 -3.34,-22.86 -5.13,-35.15 -1.54,-12.3 -3.33,-24.6 -5.08,-35.1 -1.74,-12.3 -3.68,-24.59 -5.42,-35.15 -1.94,-12.3 -3.69,-24.59 -5.63,-36.89 -1.94,-10.5 -4.03,-22.8 -5.97,-35.1 -1.94,-10.55 -4.03,-22.85 -6.13,-35.14 -1.94,-12.3 -4.08,-22.81 -6.32,-35.1 -2.14,-12.3 -4.23,-22.85 -6.52,-35.15 -2.09,-12.3 -4.38,-22.85 -6.67,-35.15 -2.29,-12.25 -4.73,-22.8 -7.02,-35.1 -2.49,-12.29 -4.73,-22.85 -7.22,-35.15 -2.44,-12.29 -4.93,-22.8 -7.37,-35.09 -2.64,-12.3 -5.08,-22.85 -7.71,-35.15 -2.49,-12.3 -5.13,-22.8 -7.72,-35.1 -2.84,-12.3 -5.48,-22.85 -8.12,-35.15 -2.78,-10.55 -5.62,-22.8 -8.41,-35.1 -2.79,-10.55 -5.62,-22.85 -8.41,-33.4 -2.99,-12.3 -5.83,-24.6 -8.81,-35.1 -2.99,-12.3 -5.98,-22.85 -8.97,-35.15 -2.98,-12.29 -6.12,-22.8 -9.11,-35.1 -3.18,-10.55 -6.32,-22.85 -9.5,-33.4 -3.14,-12.3 -6.33,-24.6 -9.46,-35.1 -3.34,-12.3 -6.53,-22.85 -9.86,-35.15 -3.34,-10.5 -6.67,-22.8 -10.01,-33.35 -3.48,-12.3 -6.82,-22.86 -10.35,-35.15 -3.49,-10.51 -6.82,-22.8 -10.56,-33.36 -3.48,-12.29 -7.02,-22.8 -10.7,-35.1 -3.49,-10.55 -7.17,-22.85 -10.85,-33.4 -3.74,-12.3 -7.42,-22.8 -11.11,-35.1 -3.68,-10.55 -7.51,-22.85 -11.4,-33.41 -3.88,-12.24 -7.56,-22.8 -11.6,-35.09 -3.83,-10.56 -7.71,-21.06 -11.74,-33.36 -3.89,-10.55 -7.92,-22.85 -11.95,-33.41 -4.04,-12.29 -8.07,-22.8 -12.3,-35.09 -4.03,-10.56 -8.26,-21.11 -12.5,-33.36 -4.03,-10.55 -8.21,-22.85 -12.64,-33.4 -4.18,-10.51 -8.41,-22.81 -12.8,-33.36 -4.38,-10.55 -8.61,-22.85 -12.99,-33.36 -4.58,-12.29 -8.96,-22.85 -13.34,-33.4 -4.58,-12.3 -8.96,-22.8 -13.54,-33.36 -4.58,-12.29 -9.11,-22.8 -13.89,-33.35 -4.53,-12.3 -9.11,-22.85 -13.84,-33.36 -4.58,-10.55 -9.16,-22.85 -13.69,-33.4 -4.58,-10.51 -9.16,-21.06 -13.89,-31.62 -4.58,-10.5 -9.31,-21.06 -14.04,-31.61 -4.78,-10.51 -9.51,-21.06 -14.24,-31.61 -4.73,-10.51 -9.66,-21.06 -14.39,-31.62 -4.93,-10.5 -9.66,-21.06 -14.58,-31.61 -4.93,-10.51 -9.86,-21.06 -14.94,-31.61 -4.93,-10.51 -9.86,-21.06 -14.94,-31.62 -4.92,-10.5 -10,-21.06 -15.08,-31.61 -5.13,-10.51 -10.21,-21.06 -15.28,-29.82 -5.28,-10.56 -10.36,-21.11 -15.64,-31.62 -5.07,-10.55 -10.35,-21.1 -15.63,-31.61 -5.28,-10.55 -10.55,-21.11 -15.98,-29.87 -5.28,-10.55 -10.55,-21.06 -15.98,-31.61 -5.48,-10.56 -10.7,-19.32 -16.18,-29.87 -5.43,-10.56 -11.05,-21.06 -16.48,-31.62 -5.47,-8.76 -11.1,-19.31 -16.73,-29.87 -5.42,-10.5 -11.05,-21.06 -16.67,-29.82 -5.63,-10.55 -11.2,-21.11 -17.03,-29.87 -5.62,-10.55 -11.4,-21.06 -17.03,-31.61 -5.77,-8.77 -11.6,-19.32 -17.37,-29.87 -5.82,-8.77 -11.6,-19.32 -17.57,-29.83 -5.83,-8.81 -11.6,-19.36 -17.58,-29.87 -5.97,-8.81 -11.95,-19.31 -17.92,-29.87 -5.97,-8.76 -11.95,-19.31 -17.92,-28.08 -6.13,-10.55 -12.1,-21.1 -18.22,-29.87 -6.18,-10.55 -12.3,-19.31 -18.47,-29.87 -6.13,-8.76 -12.3,-19.31 -18.62,-28.08 -6.13,-10.55 -12.45,-19.31 -18.62,-29.87 -6.32,-8.76 -12.65,-19.31 -18.97,-28.08 -6.32,-10.55 -12.65,-19.31 -19.12,-29.87 -6.32,-8.81 -12.84,-19.31 -19.16,-28.12 -6.48,-10.51 -13,-19.32 -19.47,-29.83 -6.52,-8.81 -12.99,-17.57 -19.66,-28.12 -6.53,-8.77 -13.2,-19.32 -19.72,-28.08 -6.67,-8.81 -13.34,-19.32 -20.01,-28.13 -6.67,-8.76 -13.34,-19.32 -20.16,-28.08 -6.68,-10.55 -13.55,-19.32 -20.22,-28.13 -6.87,-8.76 -13.69,-19.31 -20.56,-28.08 -6.82,-8.76 -13.69,-19.31 -20.71,-28.07 -6.87,-8.82 -13.89,-17.58 -20.71,-28.13 -7.07,-8.77 -14.09,-17.58 -21.11,-26.34 -7.02,-10.55 -14.04,-19.32 -21.25,-28.08 -7.02,-8.81 -14.19,-17.57 -21.21,-28.13 -7.22,-8.76 -14.44,-17.57 -21.61,-26.33 -7.22,-8.76 -14.44,-17.58 -21.61,-28.13 -7.41,-8.76 -14.58,-17.53 -21.95,-26.34 -7.22,-8.76 -14.59,-17.52 -21.96,-26.33 -7.36,-8.77 -14.78,-17.58 -22.3,-28.08 -7.37,-8.81 -14.93,-17.58 -22.3,-26.34 -7.57,-8.81 -15.14,-17.57 -22.65,-26.38 -7.57,-8.77 -15.14,-17.53 -22.66,-26.34 -7.56,-8.76 -15.28,-17.57 -22.85,-26.34 -7.71,-8.76 -15.48,-17.57 -23.2,-26.33 -7.71,-8.81 -15.43,-17.58 -23.15,-24.6 -7.76,-8.76 -15.48,-17.57 -23.39,-26.33 -7.87,-8.81 -15.64,-17.58 -23.5,-26.34 -7.92,-8.81 -15.83,-17.57 -23.75,-26.38 -8.06,-7.02 -15.98,-15.79 -23.85,-24.55 -8.11,-8.81 -16.18,-17.57 -24.24,-24.59 -7.92,-8.81 -15.98,-17.58 -24.25,-26.34 -8.06,-8.81 -16.18,-15.83 -24.39,-24.59 -8.12,-8.81 -16.33,-17.58 -24.44,-24.6 -8.27,-8.81 -16.48,-17.57 -24.75,-26.33 -8.26,-7.07 -16.68,-15.83 -24.94,-24.59 -8.26,-7.02 -16.68,-15.84 -25.14,-24.6 -8.21,-7.02 -16.68,-15.83 -25.09,-24.59 -8.42,-7.02 -16.88,-15.83 -25.29,-22.85 -8.42,-8.77 -16.88,-17.53 -25.29,-24.6 -8.61,-8.76 -17.03,-15.78 -25.64,-24.54 -8.41,-7.07 -17.03,-15.83 -25.64,-22.85 -8.46,-8.76 -17.03,-15.83 -25.64,-24.6 -8.81,-7.02 -17.42,-15.78 -25.99,-22.85 -8.61,-7.02 -17.42,-15.78 -25.98,-22.8 -8.82,-8.81 -17.43,-15.83 -26.19,-22.85 -8.81,-8.76 -17.57,-15.78 -26.34,-22.8 -8.81,-8.81 -17.57,-15.83 -26.33,-22.85 -8.81,-8.76 -17.58,-15.83 -26.54,-22.85 -8.81,-7.02 -17.72,-15.79 -26.68,-22.8 -8.81,-7.02 -17.77,-14.04 -26.74,-21.11 -8.91,-8.77 -17.87,-15.79 -26.83,-22.81 -8.96,-7.01 -17.92,-14.03 -27.08,-21.1 -8.96,-8.77 -18.07,-15.79 -27.03,-22.81 -9.12,-7.01 -18.08,-14.03 -27.24,-21.05 -9.11,-7.07 -18.27,-14.09 -27.38,-21.11 -9.11,-7.02 -18.27,-14.04 -27.38,-21.06 -9.31,-7.02 -18.47,-14.04 -27.78,-21.06 -9.11,-7.07 -18.42,-14.09 -27.58,-21.11 -9.31,-7.02 -18.62,-14.04 -27.93,-21.06 -9.26,-7.02 -18.57,-14.04 -27.88,-21.06 -9.31,-5.27 -18.62,-12.29 -28.13,-19.36 -9.31,-7.02 -18.76,-14.04 -28.07,-21.06 -9.51,-5.28 -18.97,-12.3 -28.28,-19.32 -9.51,-7.02 -18.97,-14.04 -28.48,-19.32 -9.46,-7.02 -18.97,-14.03 -28.62,-19.31 -9.46,-7.02 -18.97,-14.04 -28.63,-19.32 -9.46,-7.02 -19.12,-14.04 -28.77,-19.31 -9.51,-7.02 -19.17,-14.04 -28.83,-19.32 -9.66,-7.02 -19.32,-14.04 -28.97,-19.32 -9.66,-7.02 -19.32,-12.29 -29.18,-19.31 -9.66,-5.28 -19.31,-12.3 -29.12,-17.58 -9.86,-7.02 -19.52,-12.3 -29.32,-19.31 -9.86,-5.28 -19.72,-12.3 -29.53,-17.58 -9.85,-7.02 -19.66,-12.3 -29.52,-17.57 -9.81,-7.02 -19.66,-12.3 -29.67,-19.32 -9.81,-5.28 -19.86,-10.5 -29.67,-17.57 -10.01,-5.23 -20.01,-10.51 -29.87,-17.53 -10.01,-5.27 -20.02,-10.55 -30.02,-17.57 -10.01,-5.28 -20.02,-10.56 -30.22,-15.83 -10.01,-5.23 -20.01,-12.3 -30.22,-17.53 -10.01,-5.27 -20.16,-10.55 -30.17,-15.83 -10.21,-7.02 -20.41,-12.3 -30.57,-17.57 -10,-5.23 -20.21,-10.51 -30.41,-15.78 -10.36,-5.28 -20.52,-10.56 -30.72,-17.58 -10.21,-5.28 -20.56,-10.55 -30.72,-15.78 -10.35,-5.28 -20.56,-10.55 -30.91,-15.83 -10.21,-5.28 -20.57,-10.56 -30.92,-15.78 -10.36,-5.28 -20.71,-10.56 -31.07,-14.09 -10.4,-5.23 -20.76,-10.51 -31.26,-15.78 -10.41,-5.28 -20.76,-10.56 -31.27,-15.84 -10.4,-5.22 -20.9,-10.5 -31.26,-14.04 -10.55,-5.27 -21.11,-10.55 -31.61,-15.78 -10.56,-5.27 -21.11,-8.81 -31.62,-14.09 -10.55,-5.22 -21.1,-10.5 -31.61,-14.04 -10.75,-5.27 -21.26,-10.5 -31.81,-14.04 -10.7,-5.27 -21.26,-10.55 -31.96,-14.03 -10.71,-5.28 -21.26,-10.56 -31.96,-14.04 -10.71,-5.28 -21.41,-10.56 -32.16,-14.09 -22.31,-10.51 -44.41,-19.32 -66.72,-28.08 -22.3,-8.81 -44.6,-17.58 -67.1,-26.34 -22.31,-8.81 -44.76,-17.57 -67.26,-26.33 -22.65,-8.82 -45.11,-17.58 -67.81,-24.6 -22.45,-8.81 -45.1,-17.57 -67.95,-24.59 -22.66,-8.81 -45.31,-15.83 -68.16,-22.85 -22.8,-8.76 -45.65,-15.78 -68.45,-22.8 -22.85,-7.07 -45.85,-14.09 -68.7,-21.11 -23,-7.02 -46.01,-14.04 -69.01,-21.06 -23,-7.02 -46.2,-14.04 -69.2,-19.32 -23.2,-7.02 -46.34,-14.04 -69.54,-19.31 -23.2,-7.02 -46.35,-12.3 -69.75,-17.58 -23.15,-7.02 -46.55,-12.29 -69.7,-17.57 -23.35,-5.28 -46.75,-10.51 -70.1,-15.78 -23.54,-5.28 -46.89,-10.56 -70.24,-15.84 -23.55,-5.27 -47.05,-10.5 -70.45,-14.03 -23.49,-5.28 -47.04,-10.56 -70.59,-14.04 -23.7,-5.28 -47.25,-8.82 -70.74,-12.3 -23.75,-5.28 -47.25,-8.81 -71,-12.3 -23.69,-3.53 -47.39,-7.02 -70.94,-10.55 -23.7,-3.49 -47.39,-7.02 -71.29,-10.51 -23.7,-3.53 -47.44,-7.07 -71.14,-8.81 -23.9,-3.48 -47.59,-7.02 -71.49,-8.76 -23.7,-3.54 -47.6,-5.28 -71.44,-7.02 -23.75,-3.54 -47.65,-5.28 -71.49,-7.02 -23.9,-1.79 -47.79,-3.53 -71.69,-5.28 -23.85,-1.79 -47.74,-3.53 -71.64,-5.27 -23.9,-1.75 -47.79,-3.54 -71.84,-3.54 -23.9,-1.74 -47.74,-3.48 -71.64,-3.48 -23.9,-1.8 -47.94,-1.8 -71.84,-1.8 -23.89,-1.74 -47.94,-1.74 -71.84,-1.74 -23.89,0 -47.94,0 -71.83,0 -23.9,0 -47.95,0 -71.84,0 -23.85,0 -47.95,0 -71.79,1.74 -23.9,0 -47.99,0 -71.84,1.8 -23.9,0 -47.94,1.74 -71.84,3.48 -23.9,0 -47.79,1.79 -71.69,3.54 -23.85,1.74 -47.74,3.48 -71.64,5.27 -23.89,1.75 -47.74,3.49 -71.64,5.28 -23.89,1.74 -47.79,3.48 -71.69,7.02 -23.69,1.74 -47.59,3.48 -71.44,7.02 -23.74,1.74 -47.59,5.28 -71.34,8.76 -23.7,1.74 -47.59,5.28 -71.29,8.81 -23.7,3.49 -47.39,7.02 -71.14,10.51 -23.7,3.53 -47.4,7.02 -71.09,10.55 -23.55,3.49 -47.25,7.02 -71,12.3 -23.49,3.48 -47.04,7.02 -70.74,12.3 -23.55,3.48 -47.09,8.76 -70.59,14.04 -23.55,3.53 -46.9,8.76 -70.45,14.03 -23.35,5.28 -46.89,10.56 -70.24,15.84 -23.35,5.27 -46.75,10.5 -70.1,15.78 -23.35,5.28 -46.7,10.55 -69.9,17.57 -23.34,5.28 -46.54,10.56 -69.69,17.58 -23.2,5.27 -46.4,12.29 -69.55,19.31 -23.05,5.28 -46.2,12.3 -69.2,19.32 -23,7.02 -46.05,14.04 -69.05,21.06 -23,7.02 -45.85,14.04 -68.86,21.11 -22.8,7.02 -45.65,14.04 -68.45,22.8 -22.85,7.02 -45.5,14.04 -68.15,22.85 -22.85,7.02 -45.51,15.78 -68.16,24.59 -22.5,7.02 -45.15,15.78 -67.6,24.6 -22.51,8.76 -44.96,17.52 -67.46,26.33 -22.31,8.76 -44.76,17.53 -67.06,26.34 -22.35,8.76 -44.66,17.57 -66.76,28.08 -10.71,3.53 -21.41,8.81 -32.16,14.09 -10.71,3.48 -21.21,8.76 -31.96,14.04 -10.71,3.48 -21.26,8.76 -31.97,14.03 -10.5,3.54 -21.25,8.77 -31.76,14.04 -10.55,3.54 -21.11,8.82 -31.61,14.04 -10.56,5.28 -21.11,8.82 -31.61,14.09 -10.56,5.23 -21.11,10.51 -31.62,15.78 -10.35,3.54 -20.91,8.82 -31.26,14.04 -10.56,5.28 -20.91,10.56 -31.27,15.84 -10.55,5.27 -20.91,10.55 -31.26,15.78 -10.36,5.27 -20.71,8.81 -31.12,14.09 -10.35,5.22 -20.71,10.5 -30.86,15.78 -10.41,5.28 -20.56,10.55 -30.92,15.83 -10.2,5.23 -20.56,10.5 -30.76,17.52 -10.16,5.28 -20.37,10.56 -30.57,15.84 -10.36,5.27 -20.51,10.55 -30.52,15.78 -10.21,5.27 -20.41,10.55 -30.57,17.57 -10,5.28 -20.21,10.56 -30.22,15.83 -10.2,5.23 -20.21,12.3 -30.22,17.53 -10.15,5.27 -20.16,10.55 -30.16,17.57 -10.06,5.28 -20.07,10.56 -29.88,15.83 -10,7.02 -20.01,12.3 -30.02,17.53 -9.85,7.07 -19.86,12.29 -29.72,17.57 -9.8,7.02 -19.81,12.3 -29.67,19.32 -9.81,5.27 -19.66,10.55 -29.52,17.57 -9.81,5.28 -19.66,12.3 -29.47,17.58 -9.86,7.01 -19.52,12.29 -29.33,19.31 -9.65,5.28 -19.51,12.3 -29.17,17.58 -9.66,7.02 -19.51,12.29 -29.17,19.31 -9.66,7.02 -19.32,12.3 -28.98,19.32 -9.65,5.28 -19.31,12.3 -28.77,19.32 -9.66,5.27 -19.17,12.29 -28.83,19.31 -9.46,5.28 -19.11,12.3 -28.62,19.32 -9.46,5.28 -18.97,12.29 -28.43,19.31 -9.51,7.02 -18.97,12.3 -28.48,19.32 -9.46,7.02 -18.96,14.04 -28.27,19.32 -9.46,7.02 -18.77,14.04 -28.28,21.06 -9.31,7.07 -18.62,14.09 -28.08,19.36 -9.31,7.02 -18.62,14.04 -27.93,21.06 -9.31,7.02 -18.47,14.04 -27.73,21.06 -9.31,7.02 -18.47,14.04 -27.78,21.11 -9.11,7.02 -18.42,14.04 -27.58,21.06 -9.11,7.02 -18.27,14.04 -27.38,21.06 -9.11,7.02 -18.27,14.04 -27.38,21.11 -9.16,7.02 -18.27,14.04 -27.23,21.05 -9.16,7.02 -18.12,14.04 -27.23,22.81 -8.97,7.07 -17.93,14.09 -26.89,21.1 -8.96,7.02 -17.92,14.04 -26.88,22.81 -8.91,7.07 -17.87,14.09 -26.84,21.11 -8.81,7.01 -17.77,15.78 -26.53,22.8 -8.96,7.02 -17.72,14.09 -26.54,22.85 -8.76,7.02 -17.52,14.04 -26.33,22.85 -8.76,7.02 -17.58,14.04 -26.34,22.8 -8.76,7.02 -17.37,14.04 -26.18,22.85 -8.57,7.02 -17.18,15.78 -25.99,22.8 -8.61,7.07 -17.18,15.83 -25.79,22.85 -8.61,8.77 -17.22,15.84 -25.84,24.6 -8.61,7.02 -17.02,15.78 -25.64,22.85 -8.41,8.76 -17.02,15.78 -25.44,24.54 -8.46,7.07 -17.07,15.83 -25.49,24.6 -8.41,7.02 -16.87,15.83 -25.09,22.85 -8.46,8.76 -16.87,17.57 -25.29,24.59 -8.26,8.76 -16.72,17.58 -24.94,24.6 -8.26,8.76 -16.73,17.52 -24.94,24.59 -8.27,8.76 -16.53,17.52 -24.79,26.33 -8.07,7.02 -16.33,15.79 -24.6,24.6 -8.06,8.76 -16.13,15.78 -24.19,24.59 -8.27,8.76 -16.38,17.53 -24.45,26.34 -7.91,7.02 -15.98,15.78 -24.04,24.59 -7.92,8.76 -15.98,17.53 -23.9,24.55 -7.91,8.81 -15.78,17.57 -23.7,26.38 -7.91,8.76 -15.83,17.53 -23.54,26.34 -7.92,8.76 -15.64,17.57 -23.35,26.33 -7.92,7.02 -15.63,15.79 -23.35,24.6 -7.77,8.76 -15.28,17.57 -23,26.33 -7.77,8.77 -15.29,17.58 -22.85,26.34 -7.72,8.81 -15.29,17.57 -22.85,26.34 -7.52,8.81 -14.94,17.57 -22.46,26.38 -7.56,8.76 -14.93,17.53 -22.3,26.34 -7.57,10.5 -14.93,19.31 -22.3,28.08 -7.37,8.81 -14.79,17.57 -21.96,26.33 -7.37,8.81 -14.58,17.58 -21.95,26.34 -7.22,10.55 -14.44,19.37 -21.61,28.13 -7.22,8.76 -14.39,17.57 -21.61,26.33 -7.01,10.56 -14.23,19.32 -21.25,28.13 -7.22,8.76 -14.24,17.53 -21.26,28.08 -7.02,8.76 -14.04,17.57 -20.91,26.34 -7.02,10.55 -13.84,19.31 -20.86,28.13 -6.87,8.76 -13.74,19.31 -20.56,28.07 -6.87,8.77 -13.69,19.32 -20.56,28.08 -6.82,8.81 -13.54,17.58 -20.21,28.13 -6.82,8.76 -13.5,19.32 -20.17,28.08 -6.67,8.81 -13.34,19.32 -20.01,28.13 -6.52,8.76 -13.19,19.31 -19.71,28.08 -6.68,10.55 -13.15,19.31 -19.67,28.12 -6.47,10.51 -12.99,19.32 -19.32,29.83 -6.47,8.81 -12.99,19.31 -19.31,28.12 -6.32,10.56 -12.8,19.32 -19.12,29.87 -6.32,8.77 -12.49,19.32 -18.82,28.08 -6.32,10.56 -12.44,19.32 -18.77,29.87 -6.17,8.77 -12.29,19.32 -18.47,28.08 -6.12,10.56 -12.29,19.32 -18.42,29.87 -5.97,8.77 -12.14,19.32 -18.07,29.87 -6.17,8.77 -12.15,19.32 -18.12,28.08 -5.97,10.56 -11.95,21.06 -17.72,29.87 -5.98,10.51 -11.95,21.06 -17.73,29.87 -5.82,10.51 -11.6,21.06 -17.42,29.83 -5.78,10.55 -11.6,21.1 -17.37,29.87 -5.78,10.55 -11.41,21.06 -17.03,31.61 -5.83,8.76 -11.4,19.32 -17.03,29.87 -5.62,8.76 -11.25,19.32 -16.68,29.82 -5.62,10.56 -11.1,21.11 -16.72,29.87 -5.43,10.56 -10.86,21.06 -16.33,31.62 -5.43,10.55 -10.85,19.31 -16.13,29.87 -5.48,10.55 -10.71,21.06 -16.18,31.61 -5.28,8.76 -10.51,19.32 -15.78,29.87 -5.28,10.51 -10.36,21.06 -15.64,31.61 -5.27,10.51 -10.35,21.06 -15.48,31.62 -5.28,8.76 -10.35,19.31 -15.28,29.82 -5.08,10.55 -10.16,21.11 -15.29,31.61 -4.87,10.56 -10,21.11 -14.88,31.62 -4.93,10.55 -9.86,21.1 -14.79,31.61 -4.93,10.55 -9.66,21.11 -14.58,31.61 -4.73,10.56 -9.66,21.11 -14.39,31.62 -4.73,10.55 -9.46,21.1 -14.24,31.61 -4.73,10.55 -9.31,21.11 -14.04,31.61 -4.58,10.56 -9.11,21.11 -13.84,31.62 -4.58,10.55 -9.16,22.85 -13.54,33.4 -3.54,7.02 -7.02,15.78 -10.7,22.8 -3.54,8.81 -7.22,15.83 -11.11,24.6 -3.83,7.02 -7.71,15.83 -11.55,22.85 -4.08,8.76 -8.11,15.78 -12.29,22.8 -4.04,8.81 -8.27,15.83 -12.65,22.85 -4.43,7.02 -8.81,15.78 -13.19,22.85 -4.58,7.02 -9.11,14.04 -13.69,21.06 -4.73,7.02 -9.51,14.04 -14.24,21.06 -4.73,7.02 -9.66,14.04 -14.59,21.11 -5.07,7.02 -10,14.04 -15.08,21.06 -5.28,5.27 -10.36,12.29 -15.63,19.31 -5.28,7.02 -10.56,12.3 -15.98,19.32 -5.43,7.02 -10.91,12.3 -16.53,19.32 -5.43,5.27 -11.05,12.29 -16.83,17.57 -5.63,7.02 -11.45,12.3 -17.22,19.32 -5.78,5.27 -11.75,10.55 -17.73,17.57 -5.82,5.23 -11.95,10.51 -17.92,15.78 -6.17,7.02 -12.3,12.3 -18.47,17.58 -6.32,5.27 -12.45,10.55 -18.77,15.78 -6.32,5.28 -12.84,10.55 -19.17,15.83 -6.47,5.28 -12.99,10.55 -19.46,15.78 -6.67,3.54 -13.19,8.81 -19.87,14.09 -6.67,5.23 -13.49,8.76 -20.21,14.04 -6.82,5.28 -13.69,8.76 -20.51,14.04 -6.87,3.53 -13.69,8.76 -20.76,12.3 -7.02,5.27 -14.04,8.76 -21.06,14.04 -7.02,3.53 -14.24,7.01 -21.4,10.55 -7.02,5.28 -14.24,8.76 -21.61,12.3 -7.22,3.48 -14.59,7.02 -21.96,10.55 -7.21,3.49 -14.58,7.02 -22.15,10.51 -7.37,3.53 -14.74,7.01 -22.3,10.55 -7.52,3.48 -15.09,7.02 -22.66,10.55 -7.51,1.75 -15.08,5.23 -22.8,8.77 -7.76,1.74 -15.28,5.27 -23.05,7.02 -7.71,3.53 -15.43,7.02 -23.35,8.76 -7.71,1.79 -15.43,5.28 -23.34,7.07 -7.92,1.74 -15.79,5.22 -23.7,7.02 -7.92,1.74 -15.83,3.48 -23.7,5.22 -7.91,3.54 -15.98,5.28 -23.9,7.07 -8.06,1.75 -16.18,3.49 -24.24,5.23 -8.07,0 -16.18,1.79 -24.25,3.54 -8.06,1.74 -16.13,3.53 -24.24,3.53 -8.21,1.74 -16.33,3.49 -24.59,3.49 -8.07,1.74 -16.33,1.74 -24.55,3.53 -8.11,0 -16.38,1.74 -24.59,1.74 -8.26,0 -16.53,1.75 -24.79,1.75 -8.27,0 -16.48,0 -24.94,0 -8.27,0 -16.48,1.74 -24.75,1.74 -8.41,0 -16.68,-1.74 -25.14,-1.74 -8.21,0 -16.48,0 -24.94,0 -8.21,0 -16.68,-1.75 -24.89,-1.75 -8.47,0 -16.88,-1.74 -25.14,-1.74 -8.42,-1.79 -16.68,-1.79 -25.09,-3.53 -8.27,0 -16.73,-1.75 -25.15,-3.49 -8.26,0 -16.67,-1.79 -24.94,-3.53 -8.41,-1.75 -16.68,-3.54 -25.09,-5.28 -8.26,-1.74 -16.68,-3.49 -24.94,-5.28 -8.46,-1.74 -16.68,-3.48 -24.94,-5.28 -8.47,-1.74 -16.68,-5.22 -24.94,-7.02 -8.27,-1.74 -16.68,-5.22 -24.95,-7.01 -8.26,-3.49 -16.53,-5.28 -24.79,-8.77 -8.21,-1.74 -16.48,-5.27 -24.54,-8.81 -8.27,-1.74 -16.53,-5.23 -24.8,-8.76 -8.06,-3.49 -16.32,-7.02 -24.39,-10.56 -8.06,-3.48 -16.18,-7.02 -24.24,-10.5 -7.92,-3.53 -15.84,-7.02 -23.7,-10.55 -7.92,-3.49 -15.63,-7.02 -23.35,-12.3 -7.77,-3.49 -15.48,-7.02 -23.05,-12.3 -7.52,-3.48 -15.09,-7.02 -22.45,-12.29 -7.37,-3.49 -14.74,-8.77 -22.16,-12.3 -7.17,-5.28 -14.53,-8.76 -21.6,-14.04 -7.17,-5.28 -14.19,-8.76 -21.21,-14.04 -7.07,-5.28 -13.89,-10.55 -20.91,-15.83 -6.87,-3.49 -13.54,-8.76 -20.21,-14.04 -6.87,-5.28 -13.35,-10.56 -20.02,-15.78 -6.52,-5.28 -12.99,-10.56 -19.31,-15.83 -6.53,-5.28 -12.85,-10.56 -19.17,-15.79 -6.12,-7.02 -12.3,-12.29 -18.42,-17.57 -6.17,-5.28 -12.15,-12.3 -18.07,-17.57 -5.98,-5.28 -11.8,-12.3 -17.58,-17.58 -5.82,-5.28 -11.45,-12.3 -17.22,-17.52 -5.63,-7.07 -11.05,-12.3 -16.53,-19.37 -5.43,-5.23 -10.85,-12.25 -16.13,-17.52 -5.43,-7.02 -10.55,-14.09 -15.83,-19.32 -5.08,-7.02 -10.16,-14.09 -15.09,-21.11 -4.92,-5.28 -9.85,-12.29 -14.73,-19.31 -4.78,-7.02 -9.51,-12.3 -14.09,-19.32 -4.73,-7.02 -9.31,-14.04 -13.69,-21.06 -4.53,-7.02 -8.96,-14.04 -13.14,-21.06 -4.44,-7.07 -8.62,-14.09 -12.65,-21.11 -4.23,-7.02 -8.26,-14.04 -12.3,-21.06 -3.88,-7.02 -7.71,-14.04 -11.6,-21.06 -3.68,-7.07 -7.56,-15.83 -11.05,-22.85 -3.68,-7.02 -7.22,-14.04 -10.55,-21.06 -3.54,-8.81 -6.87,-15.83 -10.01,-22.85 -3.33,-7.02 -6.52,-15.83 -9.66,-22.85 -2.98,-7.02 -5.97,-15.78 -8.96,-22.8 -2.79,-7.02 -5.62,-15.83 -8.26,-22.85 -2.79,-8.76 -5.43,-15.78 -7.92,-22.8 -2.64,-8.81 -5.08,-15.83 -7.37,-24.6 -2.29,-7.02 -4.53,-15.83 -6.67,-22.85 -2.29,-8.76 -4.18,-15.78 -6.32,-24.59 -1.94,-7.02 -3.68,-15.78 -5.63,-22.8 -1.74,-8.81 -3.33,-17.58 -4.87,-24.6 -1.6,-8.81 -3.19,-15.83 -4.58,-24.59 -1.4,-8.81 -2.64,-15.83 -3.89,-24.59 -1.24,-7.02 -2.29,-15.83 -3.33,-24.6 -0.85,-7.02 -1.94,-15.83 -2.64,-24.59 -0.85,-7.02 -1.55,-15.78 -2.09,-24.59 -0.7,-7.02 -1.25,-15.79 -1.6,-24.6 -0.34,-8.76 -0.69,-15.78 -0.84,-24.59 -0.2,-8.76 -0.4,-15.78 -0.4,-24.55 0,-8.81 0.2,-17.57 0.4,-24.59 0.15,-8.81 0.5,-17.57 0.84,-26.38 0.35,-7.02 0.9,-15.79 1.6,-24.55 0.54,-8.81 1.24,-15.83 2.09,-24.59 0.7,-8.81 1.79,-17.58 2.84,-24.6 1.04,-8.81 2.09,-17.57 3.33,-26.33 1.2,-7.02 2.64,-15.83 4.03,-24.6 1.4,-8.81 2.99,-15.83 4.73,-24.59 1.6,-8.81 3.34,-17.57 5.28,-24.59 1.94,-8.77 3.88,-17.58 5.97,-26.34 2.1,-7.02 4.39,-15.83 6.68,-24.59 2.29,-7.02 4.73,-15.83 7.21,-24.6 2.59,-8.76 5.23,-15.78 8.07,-24.59 2.79,-8.76 5.63,-15.78 8.61,-24.59 2.99,-8.77 5.98,-15.79 9.31,-24.6 3.14,-8.76 6.47,-15.78 9.81,-24.59 6.17,-14.04 12.5,-28.08 18.62,-43.86 6.32,-14.09 12.49,-28.13 18.82,-42.17 6.32,-15.83 12.64,-29.87 19.11,-43.91 6.33,-14.04 12.85,-28.13 19.17,-43.91 6.47,-14.04 12.99,-28.08 19.67,-42.17 6.47,-14.04 13.14,-28.08 19.66,-42.12 6.67,-14.08 13.34,-29.87 20.01,-43.91 6.87,-14.08 13.55,-28.12 20.37,-42.16 6.87,-14.04 13.69,-28.08 20.56,-42.17 6.87,-14.04 13.69,-28.08 20.71,-42.12 7.02,-14.09 14.09,-28.13 21.11,-42.17 7.01,-14.04 14.03,-28.07 21.25,-42.16 7.02,-14.04 14.19,-28.08 21.41,-42.12 7.22,-14.09 14.39,-28.13 21.76,-40.43 7.21,-14.04 14.58,-28.08 21.95,-42.12 7.42,-14.08 14.79,-28.12 22.3,-42.16 7.42,-12.3 14.94,-26.34 22.51,-40.38 7.56,-14.09 15.08,-28.13 22.65,-40.42 7.72,-14.04 15.28,-28.08 23,-42.12 7.72,-14.09 15.48,-26.39 23.2,-40.43 7.71,-14.04 15.63,-26.33 23.55,-40.37 7.71,-14.04 15.63,-28.13 23.69,-40.43 7.92,-14.04 15.79,-28.08 23.9,-40.37 7.87,-14.04 15.98,-26.34 24.05,-40.38 8.26,-14.09 16.32,-26.38 24.39,-40.42 8.26,-12.3 16.53,-26.34 24.79,-40.38 8.22,-12.3 16.48,-26.33 24.94,-38.63 8.22,-14.09 16.68,-26.34 25.1,-40.43 8.41,-12.29 16.87,-26.33 25.29,-38.63 8.41,-14.04 17.02,-26.34 25.64,-38.63 8.61,-14.04 17.22,-26.34 25.83,-40.38 8.62,-12.29 17.38,-26.33 26.14,-38.63 8.61,-12.3 17.42,-26.39 26.19,-38.68 8.96,-12.25 17.72,-26.34 26.68,-38.64 8.81,-12.29 17.77,-26.33 26.68,-38.63 8.97,-12.3 18.13,-24.59 27.09,-38.63 9.11,-12.3 18.27,-24.6 27.38,-36.89 9.11,-14.04 18.27,-26.34 27.38,-38.64 9.31,-12.29 18.47,-24.59 27.78,-38.63 9.31,-12.3 18.62,-24.59 27.93,-36.89 9.46,-12.3 18.77,-24.59 28.28,-36.89 9.46,-14.04 18.96,-26.34 28.42,-38.63 9.51,-12.3 19.17,-24.6 28.63,-36.89 9.66,-12.25 19.32,-24.55 28.97,-36.84 9.66,-12.3 19.32,-24.6 29.18,-36.89 9.66,-12.3 19.46,-24.6 29.32,-36.9 9.86,-12.29 19.66,-24.59 29.67,-36.89 9.86,-12.29 19.87,-24.59 29.87,-35.09 10.01,-12.3 20.02,-24.6 30.02,-36.89 10.01,-12.3 20.21,-24.6 30.37,-36.89 10.06,-10.56 20.21,-22.86 30.42,-35.15 10.35,-12.3 20.56,-24.6 30.91,-35.1 10.16,-12.3 20.52,-24.59 30.92,-36.89 10.36,-10.56 20.86,-22.85 31.26,-35.15 10.51,-12.3 20.86,-22.8 31.42,-35.1 10.55,-12.29 21.06,-22.85 31.81,-35.15 10.51,-10.5 21.21,-22.8 31.76,-35.09 10.71,-10.56 21.41,-22.86 32.16,-33.41 10.86,-12.25 21.61,-24.54 32.46,-35.1 10.71,-12.29 21.61,-22.85 32.51,-35.15 11.05,-10.5 21.96,-22.8 32.86,-33.35 11.05,-12.3 22.1,-22.85 33.16,-35.1 11.1,-10.55 22.15,-21.11 33.2,-33.41 11.25,-10.5 22.31,-22.8 33.56,-33.35 11.25,-10.56 22.45,-22.85 33.7,-33.36 11.25,-10.55 22.5,-22.85 33.75,-33.4 11.4,-10.51 22.66,-22.8 34.06,-33.36 11.4,-10.55 22.65,-21.06 34.05,-33.35 11.45,-10.56 23.05,-21.06 34.45,-31.62 11.4,-10.55 23,-21.06 34.6,-33.35 11.4,-10.56 23,-21.11 34.6,-31.62 11.6,-10.55 23.15,-21.11 34.95,-31.61 11.6,-10.55 23.15,-21.11 34.95,-31.61 11.75,-10.56 23.35,-21.11 35.09,-31.62 11.8,-10.55 23.75,-21.11 35.5,-31.61 11.75,-10.55 23.7,-19.32 35.5,-29.87 11.9,-10.56 23.84,-21.06 35.64,-31.61 11.95,-10.56 23.9,-19.32 36,-29.88 11.94,-10.55 23.89,-21.05 35.99,-29.87 11.95,-10.5 24.05,-21.05 36.19,-31.61 12.1,-8.76 24.25,-19.32 36.35,-29.82 12.09,-8.81 24.39,-19.32 36.54,-28.13 12.29,-10.5 24.39,-21.06 36.69,-29.82 12.3,-10.55 24.59,-19.37 36.89,-29.87 12.3,-8.81 24.59,-19.32 37.04,-28.13 12.3,-10.5 24.79,-19.32 37.24,-28.08 12.29,-10.55 24.79,-19.31 37.24,-29.87 12.49,-8.76 25.14,-17.57 37.58,-28.08 12.5,-8.81 25.14,-17.57 37.59,-28.13 12.65,-8.76 25.29,-17.52 37.94,-26.33 12.64,-10.56 25.29,-19.32 37.93,-28.08 12.65,-8.81 25.49,-17.57 38.14,-28.13 12.79,-8.76 25.63,-17.52 38.43,-26.33 12.84,-8.77 25.64,-17.58 38.48,-26.34 12.8,-8.76 25.64,-17.57 38.63,-26.34 12.8,-8.81 25.79,-17.57 38.79,-26.33 12.84,-8.81 25.83,-17.58 38.83,-26.39 12.99,-8.76 26.19,-17.52 39.18,-26.34 12.99,-8.76 26.14,-17.52 39.13,-26.33 13.19,-7.02 26.38,-15.78 39.53,-24.59 13.19,-8.77 26.33,-17.58 39.53,-24.6 13.19,-8.76 26.53,-17.52 39.67,-24.59 13.35,-8.76 26.74,-17.53 39.88,-24.55 13.34,-8.81 26.69,-17.57 40.03,-24.59 13.39,-8.81 26.88,-17.57 40.22,-24.59 13.35,-8.82 26.89,-15.83 40.43,-24.6 13.34,-7.02 26.83,-15.83 40.37,-22.85 13.55,-8.76 27.04,-15.78 40.78,-24.59 13.49,-7.02 27.03,-14.04 40.72,-22.8 13.54,-7.02 27.23,-15.83 40.92,-22.85 13.69,-7.02 27.38,-15.79 41.08,-22.81 13.74,-7.07 27.43,-14.09 41.27,-22.85 13.74,-7.02 27.43,-14.04 41.27,-21.06 13.89,-8.81 27.78,-15.83 41.67,-22.85 13.84,-7.02 27.73,-14.04 41.62,-21.06 13.84,-7.02 27.93,-15.83 41.77,-22.85 14.03,-7.02 27.92,-14.04 41.96,-21.06 14.09,-7.02 28.13,-14.09 42.17,-21.11 14.04,-7.01 28.08,-14.03 42.17,-21.05 14.19,-5.28 28.28,-12.3 42.46,-19.32 14.09,-7.02 28.28,-14.04 42.52,-21.06 14.24,-7.02 28.48,-12.3 42.66,-19.32 14.24,-7.07 28.63,-14.09 42.87,-21.1 14.24,-5.28 28.62,-12.3 43.06,-19.32 14.19,-5.28 28.63,-12.3 43.02,-19.32 14.38,-5.27 28.77,-12.29 43.21,-19.31 14.54,-5.28 28.97,-12.3 43.56,-17.58 14.39,-7.02 28.97,-12.29 43.36,-19.31 30.22,-12.3 60.39,-24.6 90.81,-36.9 30.22,-12.29 60.59,-24.54 90.95,-36.84 30.37,-12.29 60.94,-24.59 91.51,-35.14 30.57,-12.3 61.13,-22.86 91.85,-33.36 30.57,-12.3 61.28,-22.85 92.2,-33.41 30.77,-10.5 61.63,-21.05 92.55,-31.61 30.91,-10.5 62.03,-21.06 92.95,-31.61 31.06,-8.76 62.13,-19.32 93.24,-28.08 31.27,-10.55 62.33,-19.32 93.6,-28.08 31.26,-8.81 62.53,-19.32 93.94,-28.13 31.26,-8.76 62.73,-15.78 94.14,-24.59 31.46,-8.76 63.08,-17.58 94.49,-24.59 31.61,-8.77 63.23,-15.79 94.84,-22.81 31.61,-8.81 63.23,-15.83 95.04,-22.85 31.61,-7.02 63.37,-14.04 95.19,-21.06 31.76,-7.02 63.57,-12.29 95.33,-19.31 32.01,-7.02 63.98,-12.3 95.74,-19.32 31.96,-5.28 63.92,-10.55 95.88,-15.83 31.96,-7.02 64.12,-12.3 96.09,-17.57 32.16,-5.23 64.12,-8.77 96.23,-14.04 32.16,-5.28 64.27,-8.77 96.43,-14.04 32.16,-3.54 64.47,-8.77 96.58,-12.3 32.16,-3.53 64.47,-8.76 96.78,-12.3 32.16,-3.48 64.47,-7.02 96.78,-8.76 32.31,-3.53 64.62,-7.02 96.93,-8.81 32.31,-3.49 64.62,-7.02 96.98,-8.76 32.31,-1.75 64.62,-5.28 97.08,-7.02 32.31,-1.75 64.67,-3.54 97.13,-5.28 32.31,-1.74 64.82,-1.74 97.13,-3.53 32.51,-1.75 64.97,-1.75 97.28,-3.49 32.51,0 64.82,-1.74 97.33,-1.74 32.51,0 64.82,0 97.28,0 32.5,0 64.81,0 97.32,0 32.31,0 64.77,1.74 97.28,1.74 32.31,1.74 64.82,1.74 97.13,3.49 32.51,1.79 64.82,1.79 97.28,3.53 32.31,1.74 64.82,3.53 97.13,5.28 32.31,1.74 64.82,5.27 97.13,7.02 32.31,1.74 64.62,5.27 96.93,8.76 32.31,1.79 64.67,5.28 96.98,8.81 32.31,1.74 64.42,5.28 96.73,8.76 32.36,3.54 64.47,8.77 96.63,12.3 32.31,3.53 64.42,8.76 96.58,12.3 32.16,5.27 64.27,8.76 96.43,14.04 32.11,5.27 64.07,8.81 96.24,14.04 31.96,5.27 64.12,10.55 96.08,17.57 31.96,5.28 63.92,10.55 95.88,15.83 31.77,7.02 63.73,12.3 95.54,19.32 31.96,7.02 63.77,12.29 95.54,19.31 31.81,7.02 63.42,14.04 95.18,21.06 31.62,7.02 63.43,14.04 95.04,22.85 31.61,7.02 63.23,14.04 94.64,22.81 31.61,7.01 63.08,15.83 94.49,24.59 31.46,8.81 62.88,15.83 94.14,24.59 31.27,8.81 62.68,19.32 93.8,28.13 31.26,8.76 62.53,17.53 93.59,28.08 31.12,8.76 62.18,19.32 93.25,28.08 31.11,10.55 62.03,21.11 92.94,31.61 30.87,10.56 61.79,21.11 92.55,31.61 30.72,10.56 61.44,21.11 92.2,33.41 30.72,10.5 61.29,21.06 91.86,33.36 30.56,10.55 60.93,22.85 91.3,35.14 30.42,12.3 60.79,24.55 91.15,36.84 30.22,12.3 60.44,24.6 90.46,36.9 14.59,7.02 29.18,12.29 43.56,19.31 14.59,5.28 28.98,12.3 43.37,17.58 14.58,7.02 28.97,14.04 43.41,19.31 14.38,7.02 28.62,14.04 43.01,19.32 14.39,7.02 28.63,14.04 43.01,19.32 14.24,7.01 28.63,14.03 42.87,21.1 14.24,5.23 28.43,12.3 42.66,19.32 14.24,7.02 28.28,14.04 42.52,21.06 14.24,7.02 28.28,12.3 42.32,19.32 14.23,7.02 28.27,14.04 42.31,21.05 14.09,7.02 28.13,14.09 42.17,21.11 14.04,7.02 27.93,14.04 41.97,21.06 13.89,7.02 27.93,14.04 41.82,22.85 13.84,7.02 27.73,14.04 41.62,21.06 13.89,7.02 27.73,14.04 41.62,21.06 13.69,8.81 27.58,15.83 41.27,22.85 13.89,7.02 27.58,15.78 41.27,22.85 13.69,7.02 27.38,15.79 41.07,22.81 13.74,7.02 27.43,15.83 40.92,22.85 13.74,7.02 27.23,15.78 40.78,22.8 13.69,8.81 27.23,15.83 40.72,24.59 13.54,7.02 27.08,15.83 40.42,22.85 13.5,8.77 26.84,15.78 40.38,24.6 13.34,7.02 26.68,15.78 40.23,22.8 13.34,8.81 26.68,17.57 40.02,24.59 13.19,8.81 26.54,17.58 39.88,24.6 13.19,8.81 26.53,17.57 39.68,26.33 13.19,7.02 26.38,15.83 39.53,24.6 13.19,8.81 26.33,15.83 39.52,24.59 13,8.81 26.19,17.57 39.18,26.33 13,8.82 26.14,17.58 39.13,26.34 13,8.81 25.99,15.83 38.99,24.59 12.84,8.82 25.83,17.58 38.68,26.34 12.99,8.81 25.79,19.37 38.63,28.13 12.99,8.76 25.79,17.57 38.63,26.34 12.65,8.81 25.44,17.57 38.29,26.33 12.64,8.81 25.44,19.32 38.08,28.13 12.65,8.76 25.29,17.52 37.94,26.34 12.64,10.55 25.29,19.31 37.93,28.07 12.65,8.82 25.14,19.32 37.59,28.13 12.65,8.77 25.14,19.32 37.59,28.08 12.49,10.56 24.94,19.32 37.44,28.13 12.44,10.5 24.74,19.32 37.23,29.82 12.3,8.81 24.55,19.32 36.84,28.13 12.5,10.5 24.8,19.32 36.89,29.87 12.3,8.76 24.6,19.32 36.89,28.08 12.1,10.55 24.25,21.06 36.55,29.87 12.09,10.5 24.24,21.06 36.34,29.82 12.15,10.56 24.04,21.11 36.19,29.87 12.1,10.56 24.05,21.06 36,31.61 11.94,8.82 24.04,19.32 35.99,29.88 11.8,10.55 23.7,21.05 35.65,31.61 11.94,8.76 23.74,19.32 35.49,29.87 11.95,10.5 23.7,21.06 35.5,31.61 11.75,10.51 23.5,21.06 35.1,31.62 11.74,10.5 23.34,21.06 35.14,31.61 11.55,10.5 23.15,21.06 34.75,31.61 11.6,10.51 23.2,21.06 34.8,31.62 11.6,12.29 23,22.8 34.6,33.35 11.4,10.56 22.8,21.06 34.25,31.62 11.4,12.29 22.8,22.8 34.21,33.35 11.45,10.56 22.7,22.85 34.1,33.36 11.25,10.55 22.45,22.85 33.7,33.4 11.45,10.51 22.5,22.8 33.76,33.36 11.2,10.55 22.45,22.85 33.5,33.35 11.1,10.56 22.15,22.86 33.21,33.41 11.05,12.25 22.15,22.8 33.2,35.1 10.9,10.55 21.76,22.85 32.66,33.35 10.9,12.3 21.76,22.86 32.66,35.15 10.9,10.56 21.61,22.85 32.31,33.36 10.9,12.29 21.46,24.59 32.16,35.15 10.7,12.29 21.41,22.8 31.96,35.09 10.56,12.3 21.06,22.86 31.61,35.15 10.56,12.3 21.06,22.8 31.42,35.1 10.55,12.3 20.91,22.85 31.26,35.15 10.36,12.3 20.76,24.59 31.12,35.15 10.15,12.24 20.51,24.54 30.71,36.84 10.21,12.29 20.37,22.85 30.57,35.15 10.01,12.29 20.21,24.59 30.22,36.89 10.01,12.29 20.16,22.8 30.02,35.09 10.01,12.3 20.01,24.6 29.87,36.89 10.01,12.3 19.82,24.6 29.67,36.89 9.81,12.3 19.67,24.6 29.33,36.9 9.85,12.29 19.51,24.59 29.17,36.89 9.66,12.29 19.32,24.59 28.97,36.84 9.46,12.29 19.12,24.59 28.63,36.89 9.46,12.29 18.97,24.59 28.43,36.89 9.51,12.29 18.81,26.33 28.12,38.63 9.46,12.3 18.77,24.59 28.08,36.89 9.31,12.3 18.47,24.59 27.78,38.63 9.11,12.3 18.22,24.6 27.38,36.89 9.11,14.04 18.27,26.34 27.24,38.64 9.11,12.29 18.07,26.33 27.03,38.63 8.96,12.3 17.92,24.59 26.88,38.63 8.96,12.3 17.73,24.6 26.49,38.64 8.81,12.29 17.57,24.59 26.38,38.68 8.76,12.3 17.38,26.34 26.14,38.63 8.61,12.3 17.22,26.34 25.84,38.63 8.61,14.04 17.02,26.34 25.64,40.38 8.41,12.3 16.87,26.34 25.29,38.63 8.41,14.09 16.87,26.34 25.09,40.43 8.46,12.3 16.68,26.33 24.94,38.63 8.26,14.04 16.53,26.34 24.59,40.38 8.27,14.04 16.33,26.33 24.4,40.42 8.11,12.3 16.18,26.34 24.24,40.38 8.12,12.29 15.98,26.33 23.9,40.37 8.06,12.3 15.98,26.39 23.7,40.43 7.91,12.29 15.83,26.33 23.54,40.37 7.72,12.3 15.49,26.34 23.2,40.43 7.72,14.04 15.29,26.33 23,40.37 7.57,14.04 15.09,28.08 22.66,42.17 7.56,12.3 15.08,26.34 22.5,40.38 7.52,14.04 14.88,28.08 22.3,42.16 7.37,14.04 14.74,26.34 21.96,40.38 7.36,14.04 14.53,28.08 21.75,42.17 7.22,14.04 14.39,28.08 21.61,42.12 7.02,14.09 14.24,28.12 21.26,42.16 7.02,14.04 14.04,28.08 21.06,42.17 6.87,14.04 13.89,28.08 20.71,42.12 6.87,14.09 13.74,28.13 20.56,42.17 6.87,14.04 13.54,28.08 20.36,42.16 6.67,14.04 13.34,28.08 20.06,42.12 6.67,15.83 13.14,29.87 19.82,43.91 6.52,14.09 12.99,28.13 19.51,42.17 6.47,14.04 12.8,29.87 19.32,43.91 6.32,14.04 12.64,28.08 18.96,42.17 6.33,15.78 12.65,29.82 18.97,43.91 6.13,14.04 12.3,29.82 18.42,43.86 6.52,14.09 12.85,29.87 18.97,45.7 6.32,14.04 12.5,29.82 18.82,43.91 6.12,15.78 12.3,31.61 18.27,45.65 6.12,15.79 12.1,31.62 18.07,45.66 5.98,15.83 11.95,31.61 17.72,45.65 5.98,15.83 11.8,31.61 17.58,45.7 5.77,15.78 11.4,31.61 17.22,45.65 5.63,15.79 11.21,31.62 16.83,45.66 5.63,15.78 11.1,31.61 16.73,45.65 5.42,15.83 10.85,31.61 16.13,47.44 5.42,14.04 10.7,29.83 16.18,45.66 5.23,15.78 10.35,29.87 15.63,45.65 5.23,15.83 10.36,31.61 15.43,45.65 5.08,15.83 10.01,31.62 15.09,47.45 4.93,15.78 9.86,29.87 14.78,45.65 4.93,15.83 9.81,31.61 14.59,47.44 4.73,15.79 9.46,29.83 14.19,45.66 4.78,15.78 9.31,31.61 13.89,47.39 4.58,15.83 9.11,29.87 13.69,45.7 4.58,15.79 8.96,31.62 13.34,47.4 4.43,15.83 8.81,31.61 13,47.44 4.43,14.04 8.61,29.83 12.84,45.66 4.23,15.78 8.26,31.61 12.45,47.39 4.03,15.83 8.11,31.62 12.14,47.45 4.04,15.78 7.92,31.61 11.75,47.39 3.89,15.83 7.72,29.87 11.6,45.65 3.89,15.84 7.57,31.62 11.25,47.45 3.69,15.78 7.37,31.61 11.06,47.39 3.53,15.84 7.02,31.62 10.55,47.45 3.48,15.78 7.02,31.61 10.36,47.39 3.48,15.84 6.82,31.62 10,47.45 3.34,15.78 6.67,31.61 9.81,47.39 3.19,15.84 6.32,33.41 9.51,49.19 3.13,15.83 6.12,31.62 9.11,47.45 2.99,15.78 5.97,31.61 8.96,47.39 2.84,15.83 5.82,31.61 8.46,47.45 2.79,15.78 5.63,31.61 8.42,47.39 2.64,17.58 5.27,33.41 7.91,49.19 2.64,15.83 5.08,31.61 7.72,47.44 2.44,15.79 4.93,31.62 7.37,47.4 2.29,17.57 4.73,33.35 7.02,49.19 2.29,15.78 4.58,31.61 6.67,47.39 2.29,15.83 4.38,33.41 6.52,49.19 2.09,15.83 4.18,31.61 6.12,47.44 2.14,15.79 4.04,33.36 5.98,49.14 1.94,15.83 3.68,31.61 5.62,47.45 1.74,17.57 3.54,33.35 5.28,49.18 1.59,15.78 3.34,31.62 4.93,49.14 1.54,15.83 3.13,31.61 4.73,47.45 1.39,17.57 2.79,33.35 4.23,49.18 1.39,15.78 2.79,31.62 4.18,49.14 1.25,15.83 2.49,31.61 3.69,47.45 1.24,17.57 2.48,33.35 3.53,49.18 1.05,17.58 2.09,33.36 3.14,49.19 1.09,15.78 1.94,33.36 2.83,49.14 0.9,15.83 1.75,33.4 2.64,49.18 0.7,15.84 1.6,31.62 2.29,49.19 0.7,15.78 1.2,31.62 1.89,49.19 0.55,15.78 1.25,31.61 1.6,49.14 0.55,15.83 1.04,31.61 1.39,49.18 0.35,15.84 0.75,31.62 1.1,49.19 0.35,15.78 0.49,31.61 0.69,49.19 0.35,15.78 0.35,31.61 0.5,49.19 0.2,15.78 0.2,31.61 0.2,49.13 0,15.84 0,33.41 -0.2,49.19 -0.15,15.83 -0.15,33.36 -0.5,49.19 -0.2,15.78 -0.34,33.35 -0.69,49.19 -0.35,15.78 -0.75,33.35 -1.1,49.13 -0.35,15.83 -0.84,33.41 -1.39,49.19 -0.35,15.83 -1.05,33.36 -1.6,49.19 -0.69,15.78 -1.19,33.35 -1.89,49.19 -0.69,15.78 -1.59,33.35 -2.29,49.18 -0.89,15.78 -1.74,31.62 -2.64,49.14 -0.89,15.83 -1.74,31.61 -2.83,49.19 -1.05,15.83 -2.09,31.61 -3.14,47.44 -1.05,17.53 -2.29,33.36 -3.53,49.14 -1.2,15.83 -2.44,33.41 -3.69,49.19 -1.39,15.83 -2.79,31.61 -4.18,49.18 -1.44,15.79 -2.84,31.62 -4.23,47.4 -1.6,17.57 -3.19,33.41 -4.73,49.19 -1.59,15.83 -3.34,31.61 -4.93,49.18 -1.74,15.79 -3.54,31.62 -5.28,47.4 -1.94,15.83 -3.68,33.41 -5.62,49.19 -1.94,15.83 -3.84,31.61 -5.98,47.44 -1.94,17.58 -4.03,33.36 -6.12,49.19 -2.14,15.78 -4.23,31.61 -6.52,47.39 -2.09,17.58 -4.38,33.36 -6.67,49.19 -2.29,15.78 -4.73,31.61 -7.02,47.4 -2.44,15.83 -4.93,31.61 -7.37,49.18 -2.64,15.84 -5.08,31.62 -7.72,47.45 -2.64,15.78 -5.27,31.61 -7.91,47.39 -2.79,15.84 -5.63,31.62 -8.42,47.45 -2.64,17.52 -5.62,33.35 -8.46,49.14 -2.99,15.83 -5.97,31.61 -8.96,47.44 -2.99,15.78 -5.98,31.61 -9.11,47.4 -3.19,15.83 -6.32,31.61 -9.51,47.44 -3.14,15.78 -6.47,31.61 -9.81,47.4 -3.18,15.83 -6.52,31.61 -10,47.44 -3.34,15.78 -6.88,31.61 -10.36,47.4 -3.53,15.83 -7.02,31.61 -10.55,47.44 -3.69,15.78 -7.37,31.61 -11.06,47.4 -3.68,15.83 -7.36,31.61 -11.25,47.44 -3.88,15.78 -7.71,31.61 -11.6,47.4 -3.83,15.83 -7.71,31.61 -11.75,47.44 -4.03,15.78 -8.11,31.61 -12.14,47.4 -4.19,15.83 -8.22,29.87 -12.45,45.7 -4.23,15.78 -8.41,31.61 -12.84,47.39 -4.19,15.83 -8.57,31.62 -13,47.45 -4.38,15.78 -8.76,29.82 -13.34,45.65 -4.58,15.78 -9.11,31.61 -13.69,47.4 -4.58,15.83 -9.11,31.61 -13.89,45.7 -4.73,15.78 -9.46,31.61 -14.19,47.39 -4.78,15.83 -9.66,29.87 -14.59,45.66 -4.92,15.83 -9.85,31.61 -14.78,47.44 -5.08,14.04 -10.01,29.82 -15.09,45.65 -5.07,15.79 -10.2,31.62 -15.43,45.66 -5.28,15.83 -10.4,31.61 -15.63,47.44 -5.48,14.04 -10.76,29.82 -16.18,45.65 -5.28,15.79 -10.71,29.87 -16.13,45.66 -5.63,15.83 -11.1,29.87 -16.73,45.65 -5.62,15.83 -11.2,31.61 -16.83,45.7 -5.82,15.78 -11.45,31.61 -17.22,45.65 -5.78,15.79 -11.6,31.62 -17.58,45.66 -5.77,15.83 -11.74,31.61 -17.72,45.65 -5.97,15.83 -11.95,31.61 -18.07,45.65 -5.97,15.83 -12.15,29.87 -18.27,45.7 -6.32,15.79 -12.5,29.82 -18.82,45.66 -6.12,14.04 -12.45,29.87 -18.97,45.65 -6.12,14.04 -12.29,28.13 -18.42,42.17 -6.32,15.78 -12.64,29.87 -18.97,43.91 -6.32,14.04 -12.64,28.08 -18.96,43.91 -6.52,14.04 -12.85,28.08 -19.32,42.11 -6.52,14.09 -12.99,29.88 -19.51,43.92 -6.68,14.08 -13.15,28.12 -19.82,42.16 -6.72,14.04 -13.39,28.08 -20.06,42.17 -6.82,14.04 -13.49,29.82 -20.36,43.91 -6.82,14.04 -13.69,28.08 -20.56,42.12 -6.82,14.04 -13.84,28.13 -20.71,42.17 -7.02,14.04 -14.04,28.07 -21.06,42.16 -7.02,14.04 -14.24,28.08 -21.26,42.12 -7.22,14.04 -14.39,28.13 -21.61,42.17 -7.22,12.3 -14.39,26.34 -21.75,40.37 -7.22,14.09 -14.59,28.13 -21.96,42.17 -7.42,14.04 -14.78,28.08 -22.3,40.38 -7.42,14.09 -14.94,28.13 -22.5,42.17 -7.57,14.03 -15.09,28.07 -22.66,40.37 -7.71,14.09 -15.28,28.13 -23,42.17 -7.71,12.3 -15.48,26.33 -23.2,40.37 -7.71,14.09 -15.63,26.39 -23.54,40.43 -7.72,14.04 -15.64,26.34 -23.7,40.37 -7.92,14.04 -15.78,26.34 -23.9,40.43 -8.06,14.04 -16.13,26.34 -24.24,40.38 -8.07,12.29 -16.13,26.33 -24.4,40.37 -8.06,12.3 -16.33,26.39 -24.59,38.68 -8.26,14.04 -16.48,26.34 -24.94,40.38 -8.22,14.04 -16.68,26.34 -25.09,40.37 -8.42,12.3 -16.88,26.34 -25.29,38.64 -8.62,12.29 -17.03,26.38 -25.64,38.68 -8.62,14.04 -17.23,26.34 -25.84,40.38 -8.76,12.29 -17.38,24.59 -26.14,38.63 -8.81,12.3 -17.57,26.33 -26.38,38.63 -8.76,12.3 -17.53,26.34 -26.49,38.63 -8.96,12.3 -17.92,24.6 -26.88,38.64 -8.96,12.29 -17.92,24.59 -27.03,38.63 -8.97,12.3 -18.13,24.59 -27.24,36.89 -9.16,14.09 -18.27,26.34 -27.38,38.63 -9.31,12.3 -18.47,24.6 -27.78,38.69 -9.31,12.24 -18.62,24.54 -28.08,36.84 -9.31,12.29 -18.61,24.59 -28.12,36.89 -9.46,12.29 -18.97,26.33 -28.43,38.63 -9.51,12.3 -19.17,24.59 -28.63,36.89 -9.65,12.3 -19.31,24.59 -28.97,36.89 -9.66,12.3 -19.32,24.6 -29.17,36.89 -9.66,12.3 -19.52,24.6 -29.33,36.89 -9.85,12.3 -19.66,24.6 -29.67,36.84 -9.86,10.56 -19.86,22.85 -29.87,35.15 -9.86,12.3 -20.01,24.6 -30.02,36.89 -10.01,12.3 -20.21,24.6 -30.22,35.1 -10.2,12.3 -20.36,24.59 -30.57,36.89 -10.2,12.3 -20.56,22.85 -30.71,35.15 -10.36,12.3 -20.76,24.59 -31.12,35.1 -10.35,12.29 -20.71,24.59 -31.26,36.89 -10.36,10.55 -20.86,22.85 -31.42,35.15 -10.55,10.5 -21.05,22.8 -31.61,35.09 -10.55,10.56 -21.26,22.86 -31.96,33.41 -10.7,12.3 -21.26,24.54 -32.16,35.1 -10.7,12.29 -21.41,22.85 -32.31,35.15 -10.9,10.5 -21.76,22.8 -32.66,33.35 -10.9,12.3 -21.76,22.85 -32.66,35.15 -11.05,10.5 -22.15,22.8 -33.2,33.36 -11.06,12.29 -22.11,22.8 -33.21,35.09 -11.05,10.56 -22.3,21.11 -33.5,33.41 -11.26,10.5 -22.31,21.06 -33.76,33.35 -11.25,10.56 -22.45,21.06 -33.7,33.36 -11.4,10.55 -22.65,21.11 -34.1,33.36 -11.41,10.55 -22.81,21.11 -34.21,31.61 -11.45,10.55 -22.85,22.85 -34.25,33.41 -11.6,10.5 -23,21.05 -34.6,31.61 -11.6,10.5 -23.2,21.06 -34.8,33.35 -11.6,10.56 -23.2,21.06 -34.75,31.62 -11.8,10.55 -23.4,21.06 -35.14,31.61 -11.6,10.56 -23.35,21.06 -35.1,31.61 -11.8,10.56 -23.55,21.06 -35.5,29.88 -11.75,10.5 -23.55,21.05 -35.49,31.61 -11.95,10.5 -23.7,21.06 -35.65,31.61 -11.95,8.76 -24.05,19.32 -35.99,29.82 -11.95,10.56 -23.9,21.11 -36,29.87 -12.15,10.56 -24.04,21.11 -36.19,29.87 -12.1,10.56 -24.25,21.06 -36.34,29.88 -12.3,10.5 -24.45,21.05 -36.55,29.82 -12.29,10.55 -24.59,19.31 -36.69,29.87 -12.29,8.76 -24.59,19.31 -36.89,29.87 -12.49,8.76 -24.74,19.31 -37.04,28.08 -12.49,8.81 -24.79,19.31 -37.23,28.13 -12.5,10.5 -24.95,19.31 -37.44,28.07 -12.45,10.56 -24.94,19.32 -37.39,29.87 -12.65,8.77 -25.14,17.58 -37.79,26.34 -12.64,10.56 -25.09,19.32 -37.73,28.08 -12.65,10.55 -25.49,19.37 -38.14,28.13 -12.64,8.76 -25.44,17.57 -38.08,26.33 -12.85,10.56 -25.49,19.32 -38.29,28.13 -12.84,8.76 -25.64,17.53 -38.48,26.34 -12.79,8.76 -25.79,17.52 -38.63,26.33 -13,8.77 -25.79,17.58 -38.83,26.34 -13,8.76 -25.99,17.57 -38.99,26.34 -12.99,8.81 -25.98,17.57 -39.13,26.33 -12.99,8.81 -26.03,17.58 -39.18,24.6 -13.19,8.81 -26.33,17.57 -39.33,26.33 -13.19,8.81 -26.33,15.83 -39.72,24.6 -13.15,8.81 -26.34,17.57 -39.68,24.59 -13.14,8.81 -26.54,17.57 -39.88,24.59 -13.34,8.77 -26.68,17.58 -40.02,24.6 -13.35,8.76 -26.69,15.78 -40.23,24.59 -13.34,8.76 -26.68,15.78 -40.23,24.59 -13.49,7.02 -27.03,15.79 -40.57,22.81 -13.49,8.81 -27.03,15.83 -40.57,22.85 -13.5,8.76 -27.19,15.78 -40.73,24.59 -13.69,7.02 -27.23,14.04 -40.92,22.8 -13.69,7.07 -27.38,14.09 -41.07,22.85 -13.74,7.02 -27.43,14.04 -41.32,22.85 -13.69,7.02 -27.53,14.04 -41.27,21.06 -13.84,7.02 -27.73,15.84 -41.62,22.85 -13.84,7.02 -27.73,14.04 -41.62,21.06 -13.84,7.02 -27.73,14.04 -41.77,21.06 -13.89,7.02 -27.93,14.09 -41.97,21.11 -14.09,7.02 -27.93,14.04 -42.17,21.06 -14.04,7.02 -28.13,14.04 -42.17,21.06 -14.03,7.02 -28.27,14.09 -42.31,21.11 -14.24,7.02 -28.43,14.04 -42.67,21.06 -14.04,5.27 -28.27,12.29 -42.66,19.31 -14.24,7.02 -28.48,12.3 -42.72,19.32 -14.38,7.02 -28.62,14.04 -43.01,19.32 -14.39,7.02 -28.63,14.04 -43.01,19.31 -14.44,7.02 -28.83,14.04 -43.22,19.32 -14.58,7.02 -28.97,12.3 -43.41,19.32 -14.54,5.27 -29.12,12.29 -43.51,17.57 -15.13,7.02 -30.22,14.04 -45.35,19.32 -15.09,7.02 -30.17,12.29 -45.31,19.31 -15.08,5.28 -30.22,12.3 -45.3,17.58 -15.09,7.02 -30.37,12.29 -45.5,19.31 -15.09,5.28 -30.37,10.56 -45.46,17.58 -15.28,5.27 -30.56,10.5 -45.7,17.57 -15.23,5.23 -30.52,10.51 -45.8,15.78 -15.13,7.02 -30.42,12.3 -45.7,17.58 -15.24,5.27 -30.52,10.55 -46,17.57 -15.29,5.23 -30.57,10.51 -45.85,15.78 -15.44,5.28 -30.72,10.56 -46.15,15.83 -15.29,5.23 -30.77,10.51 -46.05,15.79 -15.44,5.27 -30.72,10.55 -46.15,15.83 -15.49,5.23 -30.92,8.76 -46.4,14.04 -15.44,5.27 -30.92,10.55 -46.35,15.78 -15.49,3.53 -30.92,8.81 -46.35,14.09 -15.48,5.23 -31.12,8.76 -46.55,14.04 -15.48,5.27 -31.11,8.76 -46.55,14.04 -15.63,5.27 -31.11,8.76 -46.75,14.04 -15.63,3.53 -31.06,8.81 -46.69,12.29 -15.64,5.28 -31.27,8.81 -46.9,14.04 -15.63,3.54 -31.26,8.81 -46.9,12.3 -15.63,3.53 -31.26,8.81 -46.89,12.3 -15.64,3.53 -31.27,8.81 -47.05,12.29 -15.63,3.54 -31.26,8.81 -47.1,12.3 -15.63,3.53 -31.41,7.02 -47.04,10.55 -15.83,3.49 -31.61,8.77 -47.25,12.3 -15.78,3.49 -31.61,7.02 -47.39,10.51 -15.83,3.53 -31.66,7.06 -47.45,10.55 -15.78,3.53 -31.61,7.02 -47.39,10.55 -15.83,3.49 -31.61,7.02 -47.44,10.51 -15.79,3.53 -31.82,5.28 -47.6,8.81 -15.98,3.49 -31.81,7.02 -47.59,10.55 -15.98,1.75 -31.81,5.23 -47.79,8.77 -15.99,1.74 -31.77,5.27 -47.75,8.76 -15.98,1.79 -31.96,5.28 -47.79,8.81 -15.98,1.74 -31.96,5.28 -47.94,7.02 -15.98,3.49 -31.96,5.28 -47.95,8.76 -15.98,1.75 -32.11,5.28 -48.14,7.02 -15.98,3.54 -31.96,5.28 -48.09,8.81 -15.98,1.75 -31.96,3.49 -48.14,7.02 -15.98,1.75 -32.11,3.49 -48.09,5.28 -16.18,3.49 -32.16,5.23 -48.29,7.02 -16.18,1.74 -32.16,3.49 -48.34,7.02 -16.13,1.74 -32.31,3.49 -48.44,5.28 -16.18,1.74 -32.31,3.48 -48.29,5.27 -16.18,1.75 -32.51,3.49 -48.69,5.23 -16.13,1.79 -32.31,3.54 -48.44,5.28 -16.18,1.74 -32.51,3.53 -48.64,5.28 -16.18,0 -32.51,1.74 -48.69,3.53 -16.13,1.74 -32.46,3.49 -48.64,3.49 -16.33,1.74 -32.51,3.53 -48.84,5.27 -16.33,0 -32.46,1.75 -48.79,3.54 -16.33,0 -32.65,1.74 -48.83,1.74 -16.33,1.74 -32.66,1.74 -48.99,3.49 -16.33,0 -32.66,1.79 -49.04,1.79 -16.33,1.74 -32.66,1.74 -48.99,3.48 -16.33,0 -32.66,0 -48.99,1.74 -16.52,0 -32.85,0 -49.18,1.8 -16.33,0 -32.81,0 -49.19,1.74 -16.48,0 -32.81,0 -49.33,0 -16.33,0 -32.66,0 -49.19,1.74 -16.48,0 -32.81,0 -49.34,0 -16.33,0 -32.86,0 -49.33,0z"/>
  <polygon fill="black" fill-rule="nonzero" points="14744.64,14694.91 14660.9,14758.13 14576.91,14821.36 14492.98,14884.59 14409.04,14947.81 14325.05,15011.04 14241.12,15076.06 14157.18,15139.29 14073.4,15202.51 13989.46,15265.74 13905.52,15328.97 13821.54,15392.19 13737.6,15455.42 13653.66,15518.65 13569.88,15581.87 13485.94,15645.1 13401.96,15710.07 13318.02,15773.3 13234.08,15836.52 13150.15,15899.75 13066.16,15962.98 12982.42,16026.2 12898.44,16089.43 12814.5,16152.66 12730.57,16215.88 12646.58,16279.11 12562.64,16344.08 12478.86,16407.3 12394.92,16470.53 12310.98,16533.76 12227.05,16596.98 12143.06,16660.21 12059.13,16723.44 11975.34,16786.66 11891.4,16849.89 11807.47,16913.12 11723.48,16978.14 11639.54,17041.36 11555.61,17104.59 11471.67,17167.82 11387.88,17231.04 11303.95,17294.27 11219.96,17357.5 11136.03,17420.72 11052.09,17483.95 10968.1,17547.18 10884.17,17612.14 10800.38,17675.37 10716.44,17738.6 10632.51,17801.82 10548.57,17865.05 10464.59,17928.28 10380.65,17991.5 10296.86,18054.73 10212.93,18117.96 10128.99,18181.18 10045.05,18246.15 9961.07,18309.38 9877.13,18372.61 9793.35,18435.83 9709.41,18499.06 9625.47,18562.29 9541.49,18625.51 9457.55,18688.74 9373.61,18751.97 9360.62,18648.36 9347.78,18542.97 9334.78,18439.37 9321.79,18335.72 9308.8,18230.37 9296,18126.72 9282.96,18021.38 9269.96,17917.72 9256.97,17812.33 9243.98,17708.73 9231.18,17605.13 9218.19,17499.73 9205.19,17396.13 9192.2,17290.73 9179.36,17187.13 9166.36,17081.74 9153.37,16978.14 9140.38,16874.48 9127.38,16769.09 9114.54,16665.49 9101.54,16560.09 9088.55,16456.49 9075.56,16351.1 9062.56,16247.5 9049.77,16143.89 9036.77,16038.5 9023.73,15934.9 9010.74,15829.5 8997.94,15725.85 8984.95,15620.51 8971.96,15516.85 8958.96,15413.25 8945.97,15307.86 8933.12,15204.26 8920.13,15098.86 8907.14,14995.26 8894.14,14889.87 8881.15,14786.26 8868.3,14680.87 8855.31,14577.27 8842.32,14473.62 8829.32,14368.27 8816.53,14264.62 8803.54,14159.27 8790.54,14055.62 8777.55,13950.28 8764.5,13846.63 8751.71,13743.02 8738.72,13637.63 8725.72,13534.03 8712.73,13428.63 8699.73,13325.03 8686.89,13219.64 8673.9,13116.03 8660.9,13012.38 8647.91,12907.04 8635.07,12803.39 8622.07,12698.04 8609.08,12594.39 8596.08,12489.05 8583.09,12385.39 8570.3,12281.79 8557.3,12176.4 8544.31,12072.8 8641.24,12113.17 8738.02,12153.55 8834.95,12195.71 8931.88,12236.14 9028.66,12276.51 9125.64,12318.68 9222.57,12359.06 9319.35,12399.43 9416.28,12441.6 9513.06,12481.98 9609.99,12522.4 9706.97,12564.52 9803.7,12604.94 9900.68,12645.32 9997.61,12687.49 10094.39,12727.86 10191.32,12768.29 10288.1,12810.41 10385.03,12850.83 10482.01,12891.21 10578.74,12933.37 10675.72,12973.75 10772.65,13014.18 10869.43,13056.29 10966.36,13096.72 11063.14,13137.09 11160.07,13179.26 11257.05,13219.64 11353.78,13260.01 11450.76,13302.18 11547.69,13342.61 11644.47,13382.98 11741.4,13425.15 11838.18,13465.52 11935.11,13505.9 12032.09,13548.07 12128.87,13588.44 12225.8,13628.87 12322.73,13670.99 12419.51,13711.41 12516.44,13751.79 12613.42,13793.95 12710.2,13834.33 12807.13,13874.75 12903.91,13916.87 13000.84,13957.3 13097.77,13997.67 13194.55,14039.84 13291.48,14080.22 13388.46,14120.64 13485.24,14162.76 13582.17,14203.18 13678.95,14243.56 13775.88,14285.73 13872.81,14326.1 13969.6,14366.48 14066.57,14408.65 14163.5,14449.07 14260.29,14489.45 14357.22,14531.61 14454,14571.99 14550.93,14612.37 14647.91,14654.53 "/>
 </g>
</svg>
