<?xml version="1.0" encoding="UTF-8"?>
<!DOCTYPE svg PUBLIC "-//W3C//DTD SVG 1.1//EN" "http://www.w3.org/Graphics/SVG/1.1/DTD/svg11.dtd">
<!-- Creator: CorelDRAW 2026 -->
<svg xmlns="http://www.w3.org/2000/svg" xml:space="preserve" width="338.667mm" height="338.667mm" version="1.1" shape-rendering="geometricPrecision" text-rendering="geometricPrecision" image-rendering="optimizeQuality" fill-rule="evenodd" clip-rule="evenodd"
viewBox="0 0 33866.66 33866.66"
 xmlns:xlink="http://www.w3.org/1999/xlink"
 xmlns:xodm="http://www.corel.com/coreldraw/odm/2003">
 <g id="Camada_x0020_1">
  <metadata id="CorelCorpID_0Corel-Layer"/>
  <path fill="black" fill-rule="nonzero" d="M16934.18 -0.01c-145.77,0 -291.54,1.8 -437.31,5.28 -145.77,5.28 -289.8,10.56 -433.78,17.58 -144.02,7.02 -288.05,15.83 -432.08,26.33 -143.98,12.3 -286.26,24.6 -428.5,38.64 -142.28,14.08 -284.52,29.87 -425.06,49.18 -142.23,17.58 -282.73,36.89 -421.48,57.95 -140.54,21.11 -281.03,45.65 -419.78,70.25 -138.75,24.59 -277.5,50.93 -414.46,79.06 -138.75,28.08 -275.76,57.95 -412.76,89.56 -135.22,31.61 -272.23,64.97 -407.44,100.12 -135.22,35.09 -268.69,70.24 -403.96,108.88 -133.47,38.63 -266.94,77.26 -398.67,119.43 -133.48,40.37 -265.21,84.28 -396.94,128.19 -129.93,43.92 -259.92,89.57 -389.86,137.01 -129.99,47.4 -259.93,96.58 -388.17,147.51 -126.46,50.93 -254.65,101.86 -381.1,156.33 -126.46,52.67 -252.91,108.88 -377.62,165.09 -124.66,56.2 -249.37,114.15 -372.34,173.89 -122.92,59.7 -245.89,119.39 -368.81,182.61 -121.17,63.23 -242.35,126.46 -361.78,191.48 -119.44,64.96 -238.87,131.73 -356.56,200.18 -119.39,66.76 -235.33,137.01 -352.98,207.25 -115.94,70.25 -231.84,142.29 -346,216.02 -114.16,73.78 -228.31,149.3 -340.73,224.83 -112.41,75.52 -224.82,152.79 -335.45,231.85 -110.67,79 -219.55,158.06 -328.43,240.61 -108.87,80.75 -216.01,163.29 -323.15,247.62 -105.39,82.55 -212.53,168.58 -316.13,254.65 -105.4,86.08 -209,173.9 -310.86,261.67 -101.86,89.61 -203.77,179.18 -303.83,270.48 -100.12,91.36 -200.24,182.66 -296.82,277.5 -98.37,93.1 -194.96,187.94 -291.54,282.78 -94.84,96.58 -189.68,193.17 -282.78,291.54 -94.84,98.37 -186.19,196.7 -277.5,296.82 -91.3,100.11 -180.92,201.97 -270.48,303.83 -87.82,101.86 -175.64,205.46 -261.67,310.86 -86.07,103.65 -172.1,208.99 -254.65,316.13 -84.33,107.14 -166.87,214.28 -247.67,323.15 -82.55,108.88 -161.56,217.81 -240.61,328.43 -79.01,110.68 -156.28,223.04 -231.8,335.45 -75.53,112.42 -151.05,226.57 -224.83,340.73 -73.78,114.16 -145.77,230.11 -216.02,346 -70.24,117.65 -140.49,233.59 -207.25,353.03 -68.5,117.64 -135.22,237.07 -200.23,356.51 -64.97,119.43 -128.2,240.61 -191.43,361.78 -61.48,122.97 -122.91,245.89 -182.66,368.86 -59.69,122.92 -117.64,247.63 -173.84,372.34 -56.21,124.66 -112.42,251.11 -165.09,377.57 -54.47,126.45 -105.4,252.9 -156.33,381.15 -50.93,128.19 -100.11,258.13 -147.51,388.12 -47.44,129.94 -93.09,259.93 -137.01,389.91 -43.91,131.68 -87.82,263.41 -128.19,396.89 -42.17,131.73 -80.8,265.2 -119.43,398.67 -38.64,135.27 -73.79,268.74 -108.88,403.96 -35.15,135.26 -68.51,272.22 -100.12,407.49 -31.61,136.95 -61.48,273.96 -89.56,412.71 -28.13,137.01 -54.47,275.76 -79.06,414.51 -24.6,138.75 -47.4,279.24 -70.25,417.99 -21.06,140.49 -40.37,280.99 -57.95,423.27 -19.31,140.49 -35.15,282.73 -49.18,425.01 -14.04,142.24 -26.34,284.52 -38.64,428.55 -10.55,143.98 -19.31,286.26 -26.33,432.03 -7.02,144.03 -14.04,288.06 -17.58,433.83 -3.53,145.77 -5.28,291.54 -5.28,437.31 0,145.77 1.75,291.54 5.28,437.31 3.54,144.02 10.56,289.79 17.58,433.82 7.02,143.98 15.78,288 26.33,432.03 12.3,142.24 24.6,286.26 38.64,428.55 14.03,142.23 29.87,282.73 49.18,425.01 17.58,140.49 36.89,280.99 57.95,421.53 22.85,140.49 45.65,279.24 70.25,419.73 24.59,138.75 50.93,275.76 79.06,414.46 28.08,137.01 57.95,274.02 89.56,410.97 31.61,137.01 64.97,272.28 100.12,407.49 35.09,135.22 70.24,270.48 108.88,403.96 38.63,135.21 77.26,266.94 119.43,400.41 40.37,131.74 84.28,263.47 128.19,395.2 43.92,131.68 89.57,261.66 137.01,391.65 47.4,129.94 96.58,258.14 147.51,386.38 50.93,128.2 101.86,256.39 156.33,382.85 52.67,126.45 108.88,251.16 165.09,377.61 56.2,124.72 114.15,249.38 173.84,372.34 59.75,122.92 121.18,245.89 182.66,367.07 63.23,122.92 126.46,242.35 191.43,363.53 65.01,119.43 131.73,238.86 200.23,356.55 66.76,117.65 137.01,235.34 207.25,351.24 70.25,117.69 142.24,231.84 216.02,347.74 73.78,114.16 149.3,226.57 224.83,340.73 75.52,112.41 152.79,223.08 231.8,333.71 79.05,110.67 158.06,221.29 240.61,330.17 80.8,107.13 163.34,216.01 247.67,321.41 82.55,107.14 168.58,212.53 254.65,317.87 86.03,103.66 173.85,207.26 261.67,310.91 89.56,101.86 179.18,203.72 270.48,303.84 91.31,100.06 182.66,198.44 277.5,296.81 93.1,98.33 187.94,194.91 282.78,289.75 96.58,96.63 193.17,191.47 291.54,284.52 96.58,93.1 196.7,186.19 296.82,277.5 100.06,91.35 201.97,180.92 303.83,268.74 101.86,89.56 205.46,177.38 310.86,263.41 103.6,86.08 210.74,170.36 316.13,254.7 107.14,84.28 214.28,166.83 323.15,247.63 108.88,80.8 217.76,161.55 328.43,240.61 110.63,77.26 223.04,154.53 335.45,231.84 112.42,75.53 226.57,151 340.73,223.04 114.16,73.78 230.06,145.77 346,217.76 117.65,70.24 233.59,138.75 352.98,207.25 117.69,68.51 237.12,135.22 356.56,200.24 119.43,64.97 240.61,128.19 361.78,191.42 122.92,61.48 245.89,122.92 368.81,182.66 122.97,57.95 247.68,117.69 372.34,173.85 124.71,56.2 251.16,110.67 377.62,165.13 126.45,52.68 254.64,105.35 381.1,156.28 128.24,49.19 258.18,98.37 388.17,145.77 129.94,47.44 259.93,94.84 389.86,138.75 131.73,43.91 263.46,86.08 396.94,128.24 131.73,40.38 265.2,80.75 398.67,119.39 135.27,36.89 268.74,73.78 403.96,108.93 135.21,35.09 272.22,68.45 407.44,100.06 137,29.87 274.01,59.74 412.76,89.62 136.96,28.07 275.71,54.41 414.46,79 138.75,24.6 279.24,47.45 419.78,68.51 138.75,22.85 279.25,42.17 421.48,59.69 140.54,17.57 282.78,35.15 425.06,49.19 142.24,14.04 284.52,26.33 428.5,36.89 144.03,12.29 288.06,21.06 432.08,28.08 143.98,7.07 288.01,12.29 433.78,15.83 145.77,3.53 291.54,5.28 437.31,5.28 145.82,0 291.59,-1.75 437.36,-5.28 143.97,-3.54 289.74,-8.76 433.77,-15.83 144.03,-7.02 288.05,-15.79 432.08,-28.08 142.24,-10.56 286.26,-22.85 428.5,-36.89 142.28,-14.04 282.78,-31.62 425.06,-49.19 140.49,-17.52 280.99,-36.84 421.48,-59.69 140.49,-21.06 279.24,-43.91 419.78,-68.51 138.75,-24.59 277.5,-50.93 414.46,-79 137.01,-29.88 275.76,-59.75 410.97,-89.62 137.01,-31.61 272.23,-64.97 407.49,-100.06 135.22,-35.15 270.43,-72.04 403.96,-108.93 135.21,-38.64 266.94,-79.01 400.41,-119.39 131.74,-42.16 265.21,-84.33 395.15,-128.24 131.73,-43.91 261.71,-91.31 391.65,-138.75 129.99,-47.4 258.19,-96.58 386.38,-145.77 128.25,-50.93 256.44,-103.6 382.9,-156.28 126.45,-54.46 252.9,-108.93 377.61,-165.13 124.67,-56.16 249.38,-115.9 372.34,-173.85 122.92,-59.74 245.84,-121.18 367.07,-182.66 121.17,-63.23 242.35,-126.45 363.53,-191.42 119.43,-65.02 238.86,-131.73 356.55,-200.24 117.65,-68.5 235.34,-137.01 351.24,-207.25 117.69,-71.99 231.84,-143.98 347.74,-217.76 114.16,-72.04 226.57,-147.51 340.73,-223.04 112.41,-77.31 223.03,-154.58 333.71,-231.84 110.62,-79.06 221.29,-159.81 330.17,-240.61 107.13,-80.8 216.01,-163.35 321.41,-247.63 107.14,-84.34 212.48,-168.62 317.87,-254.7 103.61,-86.03 207.26,-173.85 310.86,-263.41 101.86,-87.82 203.72,-177.39 303.84,-268.74 100.11,-91.31 198.49,-184.4 296.81,-277.5 98.38,-93.05 194.96,-187.89 289.8,-284.52 96.58,-94.84 191.42,-191.42 284.52,-289.75 93.1,-98.37 186.19,-196.75 277.5,-296.81 91.31,-100.12 180.92,-201.98 268.69,-303.84 89.61,-103.65 177.43,-207.25 263.46,-310.91 86.08,-105.34 170.36,-210.73 254.65,-317.87 84.33,-105.4 166.88,-214.28 247.68,-321.41 80.75,-108.88 161.55,-219.5 240.61,-330.17 77.26,-110.63 154.53,-221.3 231.79,-333.71 75.53,-114.16 151.05,-226.57 223.09,-340.73 73.73,-115.9 145.77,-230.05 217.76,-347.74 70.24,-115.9 138.75,-233.59 207.25,-351.24 68.51,-117.69 135.22,-237.12 200.19,-356.55 65.02,-121.18 128.24,-240.61 191.47,-363.53 61.43,-121.18 122.92,-244.15 182.66,-367.07 59.69,-122.96 117.64,-247.62 173.85,-372.34 56.2,-126.45 110.67,-251.16 165.08,-377.61 52.73,-126.46 105.4,-254.65 156.33,-382.85 49.19,-128.24 98.37,-256.44 145.77,-386.38 47.44,-129.99 94.84,-259.97 138.75,-391.65 43.91,-131.73 86.08,-263.46 128.19,-395.2 40.43,-133.47 80.8,-265.2 119.44,-400.41 36.89,-133.48 73.78,-268.74 108.88,-403.96 35.14,-135.21 68.5,-270.48 100.11,-407.49 29.87,-136.95 59.74,-273.96 89.57,-410.97 28.12,-138.7 54.46,-275.71 79.05,-414.46 24.6,-140.49 47.4,-279.24 68.51,-419.73 22.8,-140.54 42.12,-281.04 59.69,-421.53 17.57,-142.28 33.36,-282.78 49.19,-425.01 14.04,-142.29 26.33,-286.31 36.89,-428.55 12.29,-144.03 21.06,-288.05 28.08,-432.03 7.02,-144.03 12.29,-289.8 15.83,-433.82 3.48,-145.77 5.28,-291.54 5.28,-437.31 0,-145.77 -1.8,-291.54 -5.28,-437.31 -3.54,-145.77 -8.81,-289.8 -15.83,-433.83 -7.02,-145.77 -15.79,-288.05 -28.08,-432.03 -10.56,-144.03 -22.85,-286.31 -36.89,-428.55 -15.83,-142.28 -31.62,-284.52 -49.19,-425.01 -17.57,-142.28 -36.89,-282.78 -59.69,-423.27 -21.11,-138.75 -43.91,-279.24 -68.51,-417.99 -24.59,-138.75 -50.93,-277.5 -79.05,-414.51 -29.83,-138.75 -59.7,-275.76 -89.57,-412.71 -31.61,-135.27 -64.97,-272.23 -100.11,-407.49 -35.1,-135.22 -71.99,-268.69 -108.88,-403.96 -38.64,-133.47 -79.01,-266.94 -119.44,-398.67 -42.11,-133.48 -84.28,-265.21 -128.19,-396.89 -43.91,-129.98 -91.31,-259.97 -138.75,-389.91 -47.4,-129.99 -96.58,-259.93 -145.77,-388.12 -50.93,-128.25 -103.6,-254.7 -156.33,-381.15 -54.41,-126.46 -108.88,-252.91 -165.08,-377.57 -56.21,-124.71 -114.16,-249.42 -173.85,-372.34 -59.74,-122.97 -121.23,-245.89 -182.66,-368.86 -63.23,-121.17 -126.45,-242.35 -191.47,-361.78 -64.97,-119.44 -131.68,-238.87 -200.19,-356.51 -68.5,-119.44 -137.01,-235.38 -207.25,-353.03 -71.99,-115.89 -144.03,-231.84 -217.76,-346 -72.04,-114.16 -147.56,-228.31 -223.09,-340.73 -77.26,-112.41 -154.53,-224.77 -231.79,-335.45 -79.06,-110.62 -159.86,-219.55 -240.61,-328.43 -80.8,-108.87 -163.35,-216.01 -247.68,-323.15 -84.29,-107.14 -168.57,-212.48 -254.65,-316.13 -86.03,-105.4 -173.85,-209 -263.46,-310.86 -87.77,-101.86 -177.38,-203.72 -268.69,-303.83 -91.31,-100.12 -184.4,-198.45 -277.5,-296.82 -93.1,-98.37 -187.94,-194.96 -284.52,-291.54 -94.84,-94.84 -191.42,-189.68 -289.8,-282.78 -98.32,-94.84 -196.7,-186.14 -296.81,-277.5 -100.12,-91.3 -201.98,-180.87 -303.84,-270.48 -103.6,-87.77 -207.25,-175.59 -310.86,-261.67 -105.39,-86.07 -210.73,-172.1 -317.87,-254.65 -105.4,-84.33 -214.28,-166.87 -321.41,-247.62 -108.88,-82.55 -219.55,-161.61 -330.17,-240.61 -110.68,-79.06 -221.3,-156.33 -333.71,-231.85 -114.16,-75.53 -226.57,-151.05 -340.73,-224.83 -115.9,-73.73 -230.05,-145.77 -347.74,-216.02 -115.9,-70.24 -233.59,-140.49 -351.24,-207.25 -117.69,-68.45 -237.12,-135.22 -356.55,-200.18 -121.18,-65.02 -242.36,-128.25 -363.53,-191.48 -121.23,-63.22 -244.15,-122.91 -367.07,-182.61 -122.96,-59.74 -247.67,-117.69 -372.34,-173.89 -124.71,-56.21 -251.16,-112.42 -377.61,-165.09 -126.46,-54.47 -254.65,-105.4 -382.9,-156.33 -128.19,-50.93 -256.39,-100.11 -386.38,-147.51 -129.94,-47.44 -259.92,-93.09 -391.65,-137.01 -129.94,-43.91 -263.41,-87.82 -395.15,-128.19 -133.47,-42.17 -265.2,-80.8 -400.41,-119.43 -133.53,-38.64 -268.74,-73.79 -403.96,-108.88 -135.26,-35.15 -270.48,-68.51 -407.49,-100.12 -135.21,-31.61 -273.96,-61.48 -410.97,-89.56 -136.96,-28.13 -275.71,-54.47 -414.46,-79.06 -140.54,-24.6 -279.29,-49.14 -419.78,-70.25 -140.49,-21.06 -280.99,-40.37 -421.48,-57.95 -142.28,-19.31 -282.78,-35.1 -425.06,-49.18 -142.24,-14.04 -286.26,-26.34 -428.5,-38.64 -144.03,-10.5 -288.05,-19.31 -432.08,-26.33 -144.03,-7.02 -289.8,-12.3 -433.77,-17.58 -145.77,-3.48 -291.54,-5.28 -437.36,-5.28l0 0 0 0 0 0 0 0 0 0 0 0 0 0 0 0 0 0 0 0 0 0 0 0 0 0 0 0 0 0 0 0 0 0 0 0 0 0 0 0 0 0 0 0 0 0 0 0 0 0 0 0 0 0 0 0 0 0 0 0 0 0 0 0 0 0 0 0 0 0 0 0 0 0 0 0 0 0 0 0 0 0 0 0 0 0 0 0 0 0 0 0 0 0 0 0 0 0 0 0 0 0 0 0 0 0 0 0 0 0 0 0 0 0 0 0 0 0 0 0 0 0 0 0 0 0 0 0zm0 2112.87c128.24,0 254.7,1.74 381.15,5.23 128.19,3.53 254.65,7.07 379.36,14.09 126.45,7.02 252.9,14.04 377.57,24.59 126.45,8.76 251.16,19.32 374.13,33.36 124.66,12.29 249.37,26.33 372.34,42.11 122.92,15.83 247.63,33.41 368.8,52.73 122.92,17.57 245.89,38.63 367.07,59.69 121.17,21.11 242.35,45.65 361.78,70.24 121.18,24.6 240.61,50.93 360.05,77.32 119.43,28.08 238.86,57.95 356.5,87.77 119.44,31.61 237.13,63.23 353.03,96.63 117.69,33.36 233.59,66.71 351.28,103.6 115.9,36.89 230.05,73.79 346,112.42 114.16,38.63 228.32,79.01 340.68,121.17 114.21,42.17 226.57,84.29 338.98,128.2 112.42,45.7 223.04,91.35 333.71,137.01 112.42,47.44 221.29,94.84 330.17,145.77 110.68,49.18 219.55,100.11 326.69,151.04 108.88,52.68 216.02,107.14 321.41,161.61 107.14,54.41 212.48,110.62 317.88,166.82 105.39,57.95 208.99,115.9 312.6,175.64 103.65,59.7 205.51,119.44 307.37,180.87 101.86,63.23 203.72,126.46 303.83,189.68 100.12,65.02 200.24,129.99 298.56,196.7 98.38,66.76 196.7,135.27 293.33,203.77 96.59,68.45 193.17,138.75 288.01,210.74 94.84,70.25 189.68,142.23 282.78,216.02 93.09,73.78 184.4,147.51 277.5,223.03 91.3,77.32 180.86,152.84 270.48,230.11 89.56,79 179.12,156.32 266.94,237.07 87.82,79.06 173.85,159.86 259.93,242.4 86.03,82.55 170.36,165.09 254.65,247.63 84.28,84.29 166.88,170.37 249.42,254.65 80.75,86.08 161.55,173.9 242.35,261.67 79.01,87.82 158.07,175.64 235.33,265.2 79.06,89.62 154.59,180.92 230.11,272.23 75.47,91.35 151,184.45 223.03,277.5 73.74,93.09 145.77,187.93 217.76,282.77 70.25,94.84 140.5,191.43 210.79,288.06 68.46,96.58 135.22,194.91 201.98,293.28 66.71,98.38 133.47,198.44 196.7,298.56 64.97,100.12 128.19,200.23 189.68,302.09 61.43,101.86 122.92,205.51 182.66,309.12 59.69,103.6 117.64,207.25 175.59,312.6 56.21,103.65 112.41,210.78 166.88,316.13 54.41,107.14 108.88,214.27 159.81,321.41 52.67,108.88 103.6,217.81 152.79,326.69 49.18,108.88 98.37,219.55 144.02,330.17 47.4,110.67 93.1,223.03 137.01,335.45 45.65,110.67 87.77,224.83 129.94,337.19 40.42,114.21 80.8,228.36 119.43,342.52 40.38,114.16 77.27,230.05 114.16,345.95 35.15,115.95 70.24,233.59 103.6,349.54 33.41,117.64 65.02,235.33 94.84,352.98 31.61,119.43 59.74,237.12 87.82,356.55 28.13,119.44 54.47,240.61 79.06,360.05 24.59,121.17 47.39,242.35 70.25,363.53 21.05,121.17 42.16,244.14 59.69,365.32 19.31,122.96 36.89,245.88 52.72,368.8 15.78,124.71 29.82,247.68 42.12,372.34 12.29,124.71 24.59,249.42 33.4,374.08 8.76,126.46 17.53,251.17 24.6,377.62 5.22,126.46 10.5,252.91 14.04,379.36 3.48,128.2 5.27,254.65 5.27,382.9 0,126.45 -1.79,254.65 -5.27,381.1 -3.54,128.19 -8.82,254.65 -14.04,379.36 -7.07,126.45 -15.84,252.9 -24.6,377.62 -8.81,124.66 -21.11,251.11 -33.4,374.08 -12.3,124.71 -26.34,249.37 -42.12,372.34 -15.83,124.71 -33.41,247.63 -52.72,368.8 -17.53,122.97 -38.64,244.15 -59.69,367.07 -22.86,121.17 -45.66,242.4 -70.25,361.78 -24.59,121.23 -50.93,240.61 -79.06,360.05 -28.08,119.43 -56.21,238.86 -87.82,356.55 -29.82,119.44 -61.43,237.08 -94.84,353.03 -33.36,117.64 -68.45,233.59 -103.6,349.49 -36.89,115.9 -73.78,231.84 -114.16,347.74 -38.63,114.16 -79.01,228.32 -119.43,340.73 -42.17,114.16 -84.29,226.57 -129.94,338.93 -43.91,112.42 -89.61,223.09 -137.01,333.71 -45.65,110.67 -94.84,221.29 -144.02,330.17 -49.19,110.68 -100.12,219.55 -152.79,326.69 -50.93,108.88 -105.4,216.02 -159.81,321.41 -54.47,107.14 -110.67,212.48 -166.88,317.88 -57.95,105.39 -115.9,208.99 -175.59,312.65 -59.74,103.6 -121.23,205.46 -182.66,307.32 -61.49,101.86 -124.71,203.72 -189.68,303.83 -63.23,100.12 -129.99,200.24 -196.7,298.56 -66.76,98.38 -133.52,196.75 -201.98,293.33 -70.29,96.59 -140.54,191.43 -210.79,288.01 -71.99,94.84 -144.02,189.68 -217.76,282.78 -72.03,93.09 -147.56,184.4 -223.03,277.5 -75.52,91.3 -151.05,180.91 -230.11,270.48 -77.26,89.56 -156.32,179.12 -235.33,266.94 -80.8,87.82 -161.6,173.9 -242.35,259.93 -82.54,86.08 -165.14,170.36 -249.42,254.65 -84.29,84.33 -168.62,166.88 -254.65,249.42 -86.08,80.8 -172.11,161.55 -259.93,242.35 -87.82,79.06 -177.38,158.07 -266.94,235.33 -89.62,79.06 -179.18,154.59 -270.48,230.11 -93.1,75.52 -184.41,151.05 -277.5,223.03 -93.1,73.79 -187.94,145.77 -282.78,217.81 -94.84,70.25 -191.42,140.5 -288.01,210.74 -96.63,68.51 -194.95,135.22 -293.33,201.98 -98.32,66.71 -198.44,133.47 -298.56,196.7 -100.11,64.97 -201.97,128.19 -303.83,189.68 -101.86,61.48 -203.72,122.92 -307.37,182.66 -103.61,59.69 -207.21,117.64 -312.6,175.64 -105.4,56.16 -210.74,112.36 -317.88,166.83 -105.39,54.46 -212.53,107.13 -321.41,159.81 -107.14,52.72 -216.01,103.65 -326.69,152.79 -108.88,49.18 -217.75,98.37 -330.17,144.02 -110.67,47.45 -221.29,93.1 -333.71,137.01 -112.41,45.65 -224.77,87.82 -338.98,129.94 -112.36,40.42 -226.52,80.8 -340.68,119.43 -115.95,40.43 -230.1,77.32 -346,114.16 -117.69,35.15 -233.59,70.24 -351.28,103.65 -115.9,33.36 -233.59,64.97 -353.03,94.84 -117.64,31.61 -237.07,59.69 -356.5,87.82 -119.44,28.08 -238.87,54.42 -360.05,79.01 -119.43,24.59 -240.61,47.44 -361.78,70.25 -121.18,21.1 -244.15,40.42 -367.07,59.74 -121.17,19.31 -245.88,36.89 -368.8,52.67 -122.97,15.83 -247.68,29.87 -372.34,42.17 -122.97,12.29 -247.68,24.59 -374.13,33.35 -124.67,8.76 -251.12,17.58 -377.57,24.6 -124.71,5.27 -251.17,10.55 -379.36,14.04 -126.45,3.53 -252.91,5.27 -381.15,5.27 -128.2,0 -254.65,-1.74 -382.85,-5.27 -126.45,-3.49 -252.9,-8.77 -379.36,-14.04 -126.45,-7.02 -251.16,-15.84 -375.87,-24.6 -126.46,-8.76 -251.12,-21.06 -375.83,-33.35 -124.71,-12.3 -247.63,-26.34 -370.6,-42.17 -124.66,-15.78 -247.62,-33.36 -370.54,-52.67 -121.18,-19.32 -244.15,-38.64 -365.32,-59.74 -121.18,-22.81 -242.36,-45.66 -363.53,-70.25 -119.44,-24.59 -240.66,-50.93 -360.05,-79.01 -119.43,-28.13 -237.12,-56.21 -356.55,-87.82 -117.65,-29.87 -235.34,-61.48 -353.03,-94.84 -115.9,-33.41 -233.59,-68.5 -349.49,-103.65 -115.9,-36.84 -230.05,-73.73 -346,-114.16 -114.16,-38.63 -228.31,-79.01 -342.47,-119.43 -112.41,-42.12 -224.78,-84.29 -337.19,-129.94 -112.42,-43.91 -224.83,-89.56 -335.45,-137.01 -110.67,-45.65 -221.29,-94.84 -330.17,-144.02 -108.93,-49.14 -217.81,-100.07 -324.95,-152.79 -108.88,-52.68 -216.01,-105.35 -323.15,-159.81 -105.4,-54.47 -210.74,-110.67 -316.13,-166.83 -105.4,-58 -209,-115.95 -312.6,-175.64 -103.65,-59.74 -207.26,-121.18 -309.12,-182.66 -101.86,-61.49 -201.97,-124.71 -302.09,-189.68 -100.12,-63.23 -200.23,-129.99 -298.56,-196.7 -98.37,-66.76 -196.7,-133.47 -293.33,-201.98 -96.58,-70.24 -193.17,-140.49 -288.01,-210.74 -94.84,-72.04 -189.68,-144.02 -282.77,-217.81 -93.1,-71.98 -186.15,-147.51 -277.5,-223.03 -91.31,-75.52 -182.66,-151.05 -272.23,-230.11 -89.56,-77.26 -177.38,-156.27 -265.2,-235.33 -87.82,-80.8 -175.64,-161.55 -261.67,-242.35 -84.33,-82.54 -170.36,-165.09 -252.9,-249.42 -84.34,-84.29 -166.88,-168.57 -249.43,-254.65 -82.54,-86.03 -163.29,-172.11 -242.35,-259.93 -80.8,-87.82 -158.07,-177.38 -237.07,-266.94 -77.32,-89.57 -152.84,-179.18 -230.11,-270.48 -75.52,-93.1 -149.25,-184.41 -223.03,-277.5 -73.79,-93.1 -145.77,-187.94 -216.02,-282.78 -72.04,-96.58 -142.29,-191.42 -210.79,-288.01 -68.45,-96.58 -136.96,-194.95 -203.72,-293.33 -66.71,-98.32 -131.73,-198.44 -196.7,-298.56 -63.22,-100.11 -126.45,-201.97 -187.93,-303.83 -63.23,-101.86 -122.92,-203.72 -182.67,-307.32 -59.69,-103.66 -117.64,-207.26 -175.59,-312.65 -56.2,-105.4 -112.41,-210.74 -166.87,-317.88 -54.42,-105.39 -108.88,-212.53 -161.56,-321.41 -50.93,-107.14 -101.86,-216.01 -151.04,-326.69 -50.93,-108.88 -98.38,-219.5 -145.77,-330.17 -45.7,-110.62 -91.36,-221.29 -137.01,-333.71 -43.91,-112.36 -86.08,-224.77 -128.2,-338.93 -42.16,-112.41 -82.54,-226.57 -121.17,-340.73 -38.63,-115.9 -75.53,-231.84 -112.42,-347.74 -35.14,-115.9 -70.24,-231.85 -103.65,-349.49 -33.35,-115.95 -64.97,-233.59 -96.58,-353.03 -29.87,-117.69 -59.69,-237.12 -86.03,-356.55 -28.13,-119.44 -54.46,-238.82 -79.06,-360.05 -24.59,-119.38 -49.18,-240.61 -70.24,-361.78 -21.06,-122.92 -42.17,-244.1 -61.49,-367.07 -17.57,-121.17 -35.1,-244.09 -50.93,-368.8 -15.78,-122.97 -29.87,-247.63 -42.11,-372.34 -14.09,-122.97 -24.6,-249.42 -33.41,-374.08 -10.5,-124.72 -17.57,-251.17 -24.59,-377.62 -7.02,-124.71 -10.51,-251.17 -14.04,-379.36 -3.49,-126.45 -5.28,-254.65 -5.28,-381.1 0,-128.25 1.79,-254.7 5.28,-382.9 3.53,-126.45 7.02,-252.9 14.04,-379.36 7.02,-126.45 14.09,-251.16 24.59,-377.62 8.81,-124.66 19.32,-249.37 33.41,-374.08 12.24,-124.66 26.33,-247.63 42.11,-372.34 15.83,-122.92 33.36,-245.84 50.93,-368.8 19.32,-121.18 40.43,-244.15 61.49,-365.32 21.06,-121.18 45.65,-242.36 70.24,-363.53 24.6,-119.44 50.93,-240.61 79.06,-360.05 26.34,-119.43 56.16,-237.12 86.03,-356.55 31.61,-117.65 63.23,-235.34 96.58,-352.98 33.41,-115.95 68.51,-233.59 103.65,-349.54 36.89,-115.9 73.79,-231.79 112.42,-345.95 38.63,-114.16 79.01,-228.31 121.17,-342.52 42.12,-112.36 84.29,-226.52 128.2,-337.19 45.65,-112.42 91.31,-224.78 137.01,-335.45 47.39,-110.62 94.84,-221.29 145.77,-330.17 49.18,-108.88 100.11,-217.81 151.04,-326.69 52.68,-107.14 107.14,-214.27 161.56,-321.41 54.46,-105.35 110.67,-212.48 166.87,-316.13 57.95,-105.35 115.9,-209 175.59,-312.6 59.75,-103.61 119.44,-207.26 182.67,-309.12 61.48,-101.86 124.71,-201.97 187.93,-302.09 64.97,-100.12 129.99,-200.18 196.7,-298.56 66.76,-98.37 135.27,-196.7 203.72,-293.28 68.5,-96.63 138.75,-193.22 210.79,-288.06 70.25,-94.84 142.23,-189.68 216.02,-282.77 73.78,-93.05 147.51,-186.15 223.03,-277.5 77.27,-91.31 152.79,-182.61 230.11,-272.23 79,-89.56 156.27,-177.38 237.07,-265.2 79.06,-87.77 159.81,-175.59 242.35,-261.67 82.55,-84.28 165.09,-170.36 249.43,-254.65 82.54,-82.54 168.57,-165.08 252.9,-247.63 86.03,-82.54 173.85,-163.34 261.67,-242.4 87.82,-80.75 175.64,-158.07 265.2,-237.07 89.57,-77.27 180.92,-152.79 272.23,-230.11 91.35,-75.52 184.4,-149.25 277.5,-223.03 93.09,-73.79 187.93,-145.77 282.77,-216.02 94.84,-71.99 191.43,-142.29 288.01,-210.74 96.63,-68.5 194.96,-137.01 293.33,-203.77 98.33,-66.71 198.44,-131.68 298.56,-196.7 100.12,-63.22 200.23,-126.45 302.09,-189.68 101.86,-61.43 205.47,-121.17 309.12,-180.87 103.6,-59.74 207.2,-117.69 312.6,-175.64 105.39,-56.2 210.73,-112.41 316.13,-166.82 107.14,-54.47 214.27,-108.93 323.15,-161.61 107.14,-50.93 216.02,-101.86 324.95,-151.04 108.88,-50.93 219.5,-98.33 330.17,-145.77 110.62,-45.66 223.03,-91.31 335.45,-137.01 112.41,-43.91 224.78,-86.03 337.19,-128.2 114.16,-42.16 228.31,-82.54 342.47,-121.17 115.95,-38.63 230.1,-75.53 346,-112.42 115.9,-36.89 233.59,-70.24 349.49,-103.6 117.69,-33.4 235.38,-65.02 353.03,-96.63 119.43,-29.82 237.12,-59.69 356.55,-87.77 119.39,-26.39 240.61,-52.72 360.05,-77.32 121.17,-24.59 242.35,-49.13 363.53,-70.24 121.17,-21.06 244.14,-42.12 365.32,-59.69 122.92,-19.32 245.88,-36.9 370.54,-52.73 122.97,-15.78 245.89,-29.82 370.6,-42.11 124.71,-14.04 249.37,-24.6 375.83,-33.36 124.71,-10.55 249.42,-17.57 375.87,-24.59 126.46,-7.02 252.91,-10.56 379.36,-14.09 128.2,-3.49 254.65,-5.23 382.85,-5.23z"/>
  <polygon fill="black" fill-rule="nonzero" points="13244.23,16934.23 13393.49,17025.53 13544.53,17118.63 13693.84,17209.93 13843.14,17303.03 13992.4,17394.39 14141.7,17487.43 14292.75,17578.79 14442,17671.84 14591.31,17763.19 14740.61,17854.5 14891.61,17947.59 15040.91,18038.9 15190.22,18132 15339.47,18223.35 15488.78,18316.4 15639.82,18407.75 15789.08,18500.85 15938.38,18592.16 16087.69,18685.26 16236.94,18776.56 16387.99,18867.92 16537.29,18960.96 16686.55,19052.32 16835.85,19145.37 16985.11,19236.72 17136.15,19329.82 17285.46,19421.12 17434.76,19514.22 17584.02,19605.53 17735.06,19698.62 17884.37,19789.93 18033.62,19883.03 18182.93,19974.38 18332.23,20067.43 18483.23,20158.78 18632.53,20250.09 18781.84,20343.19 18931.09,20434.49 19080.4,20527.59 19231.44,20618.94 19380.7,20711.99 19530,20803.35 19679.31,20896.39 19830.35,20987.75 19979.61,21080.85 20128.91,21172.15 20278.17,21263.46 20427.47,21356.56 20578.52,21447.91 20727.77,21540.96 20877.08,21632.31 21026.38,21725.41 21175.64,21816.72 21326.68,21909.81 21475.99,22001.12 21625.24,22094.22 21774.55,22185.52 21923.85,22276.88 22074.9,22369.92 22224.15,22461.28 22373.46,22554.38 22522.71,22645.68 22673.76,22738.78 22823.06,22830.08 22823.06,22645.68 22823.06,22461.28 22823.06,22276.88 22823.06,22094.22 22823.06,21909.81 22823.06,21725.41 22823.06,21540.96 22823.06,21356.56 22823.06,21172.15 22823.06,20987.75 22823.06,20803.35 22823.06,20618.94 22823.06,20434.49 22823.06,20250.09 22823.06,20067.43 22823.06,19883.03 22823.06,19698.62 22823.06,19514.22 22823.06,19329.82 22823.06,19145.37 22823.06,18960.96 22823.06,18776.56 22823.06,18592.16 22823.06,18407.75 22823.06,18223.35 22823.06,18038.9 22823.06,17854.5 22823.06,17670.09 22823.06,17487.43 22823.06,17303.03 22823.06,17118.63 22823.06,16934.23 22823.06,16749.82 22823.06,16565.37 22823.06,16380.97 22823.06,16196.57 22823.06,16012.16 22823.06,15827.76 22823.06,15643.36 22823.06,15458.91 22823.06,15276.29 22823.06,15091.84 22823.06,14907.44 22823.06,14723.04 22823.06,14538.63 22823.06,14354.23 22823.06,14169.83 22823.06,13985.38 22823.06,13800.97 22823.06,13616.57 22823.06,13432.17 22823.06,13247.77 22823.06,13063.36 22823.06,12880.7 22823.06,12696.25 22823.06,12511.85 22823.06,12327.44 22823.06,12143.04 22823.06,11958.64 22823.06,11774.24 22823.06,11589.78 22823.06,11405.38 22823.06,11220.98 22823.06,11036.58 22673.76,11129.67 22522.71,11220.98 22373.46,11314.08 22224.15,11405.38 22074.9,11498.48 21923.85,11589.78 21774.55,11682.88 21625.24,11774.24 21475.99,11867.28 21326.68,11958.64 21175.64,12049.94 21026.38,12143.04 20877.08,12234.35 20727.77,12327.44 20578.52,12418.8 20427.47,12511.85 20278.17,12603.2 20128.91,12696.25 19979.61,12787.6 19830.35,12880.7 19679.31,12972.01 19530,13065.11 19380.7,13156.41 19231.44,13247.77 19080.4,13340.81 18931.09,13432.17 18781.84,13525.27 18632.53,13616.57 18483.23,13709.67 18332.23,13800.97 18182.93,13894.07 18033.62,13985.38 17884.37,14078.47 17735.06,14169.83 17584.02,14262.88 17434.76,14354.23 17285.46,14447.28 17136.15,14538.63 16985.11,14629.94 16835.85,14723.04 16686.55,14814.34 16537.29,14907.44 16387.99,14998.79 16236.94,15091.84 16087.69,15183.2 15938.38,15276.29 15789.08,15367.6 15639.82,15458.91 15488.78,15552 15339.47,15643.36 15190.22,15736.41 15040.91,15827.76 14891.61,15920.81 14740.61,16012.16 14591.31,16105.26 14442,16196.57 14292.75,16289.66 14141.7,16380.97 13992.4,16474.07 13843.14,16565.37 13693.84,16656.73 13544.53,16749.82 13393.49,16841.13 "/>
  <polygon fill="black" fill-rule="nonzero" points="11045.34,11036.58 14064.43,11036.58 14064.43,22830.08 11045.34,22830.08 11045.34,22645.68 11045.34,22461.28 11045.34,22276.88 11045.34,22094.22 11045.34,21909.81 11045.34,21725.41 11045.34,21540.96 11045.34,21356.56 11045.34,21172.15 11045.34,20987.75 11045.34,20803.35 11045.34,20618.94 11045.34,20434.49 11045.34,20250.09 11045.34,20067.43 11045.34,19883.03 11045.34,19698.62 11045.34,19514.22 11045.34,19329.82 11045.34,19145.37 11045.34,18960.96 11045.34,18776.56 11045.34,18592.16 11045.34,18407.75 11045.34,18223.35 11045.34,18038.9 11045.34,17854.5 11045.34,17670.09 11045.34,17487.43 11045.34,17303.03 11045.34,17118.63 11045.34,16934.23 11045.34,16749.82 11045.34,16565.37 11045.34,16380.97 11045.34,16196.57 11045.34,16012.16 11045.34,15827.76 11045.34,15643.36 11045.34,15458.91 11045.34,15276.29 11045.34,15091.84 11045.34,14907.44 11045.34,14723.04 11045.34,14538.63 11045.34,14354.23 11045.34,14169.83 11045.34,13985.38 11045.34,13800.97 11045.34,13616.57 11045.34,13432.17 11045.34,13247.77 11045.34,13063.36 11045.34,12880.7 11045.34,12696.25 11045.34,12511.85 11045.34,12327.44 11045.34,12143.04 11045.34,11958.64 11045.34,11774.24 11045.34,11589.78 11045.34,11405.38 11045.34,11220.98 "/>
 </g>
</svg>
